%FSLAX25Y25*%
%MOIN*%
G70*
G01*
G75*
%ADD10R,0.12402X0.08898*%
%ADD11R,0.02400X0.05906*%
%ADD12R,0.03150X0.03937*%
%ADD13R,0.01969X0.07874*%
%ADD14O,0.01969X0.07874*%
%ADD15R,0.06299X0.05906*%
%ADD16R,0.03937X0.03150*%
%ADD17R,0.01575X0.03937*%
%ADD18R,0.03150X0.02559*%
%ADD19R,0.03937X0.04724*%
%ADD20R,0.04724X0.03937*%
%ADD21R,0.05118X0.15748*%
%ADD22R,0.07874X0.04134*%
%ADD23R,0.26772X0.25984*%
%ADD24R,0.03937X0.01575*%
%ADD25R,0.04724X0.05906*%
%ADD26C,0.04724*%
%ADD27R,0.05118X0.01260*%
%ADD28R,0.05906X0.01378*%
%ADD29P,0.06392X8X22.5*%
G04:AMPARAMS|DCode=30|XSize=39.37mil|YSize=59.06mil|CornerRadius=0mil|HoleSize=0mil|Usage=FLASHONLY|Rotation=180.000|XOffset=0mil|YOffset=0mil|HoleType=Round|Shape=Octagon|*
%AMOCTAGOND30*
4,1,8,0.00984,-0.02953,-0.00984,-0.02953,-0.01969,-0.01969,-0.01969,0.01969,-0.00984,0.02953,0.00984,0.02953,0.01969,0.01969,0.01969,-0.01969,0.00984,-0.02953,0.0*
%
%ADD30OCTAGOND30*%

%ADD31R,0.15748X0.05118*%
%ADD32C,0.03937*%
%ADD33C,0.01181*%
%ADD34C,0.03150*%
%ADD35C,0.01969*%
%ADD36C,0.02362*%
%ADD37C,0.02756*%
%ADD38R,0.06850X0.08228*%
%ADD39C,0.07087*%
%ADD40R,0.05906X0.05906*%
%ADD41C,0.05906*%
%ADD42R,0.05906X0.05906*%
%ADD43O,0.05906X0.07874*%
%ADD44C,0.02559*%
%ADD45C,0.01969*%
%ADD46C,0.03937*%
%ADD47C,0.02756*%
D10*
X52342Y34866D02*
D03*
D11*
X44842Y23616D02*
D03*
X49842D02*
D03*
X54842D02*
D03*
X59842D02*
D03*
Y46116D02*
D03*
X54842D02*
D03*
X49842D02*
D03*
X44842D02*
D03*
D12*
X74594Y43010D02*
D03*
X81287D02*
D03*
X352163Y36306D02*
D03*
X358463D02*
D03*
X358584Y44828D02*
D03*
X352285D02*
D03*
X352435Y54088D02*
D03*
X358734D02*
D03*
X343663Y25499D02*
D03*
X336970D02*
D03*
X329726Y25505D02*
D03*
X323033D02*
D03*
X312415Y22080D02*
D03*
X306116D02*
D03*
Y30090D02*
D03*
X312415D02*
D03*
X292269Y21990D02*
D03*
X298962D02*
D03*
X292046Y30150D02*
D03*
X298345D02*
D03*
X259068Y9138D02*
D03*
X265367D02*
D03*
X259068Y16968D02*
D03*
X265367D02*
D03*
X259068Y24288D02*
D03*
X265367D02*
D03*
X259068Y32188D02*
D03*
X265367D02*
D03*
X259068Y39608D02*
D03*
X265367D02*
D03*
X259068Y47138D02*
D03*
X265367D02*
D03*
X259068Y54558D02*
D03*
X265367D02*
D03*
X259068Y62276D02*
D03*
X265367D02*
D03*
X203417Y24936D02*
D03*
X197118D02*
D03*
Y16696D02*
D03*
X203417D02*
D03*
X197118Y8686D02*
D03*
X203417D02*
D03*
X144931Y28652D02*
D03*
X151230D02*
D03*
X144927Y20426D02*
D03*
X151226D02*
D03*
X144534Y12322D02*
D03*
X151227D02*
D03*
X95715Y62064D02*
D03*
X102014D02*
D03*
X101974Y69558D02*
D03*
X95675D02*
D03*
X74715D02*
D03*
X81014D02*
D03*
X203417Y33829D02*
D03*
X197118D02*
D03*
X44831Y55530D02*
D03*
X51130D02*
D03*
X44831Y63510D02*
D03*
X51130D02*
D03*
Y71130D02*
D03*
X44831D02*
D03*
X72430Y28520D02*
D03*
X78730D02*
D03*
D13*
X340707Y56796D02*
D03*
D14*
X325707Y36323D02*
D03*
X330707D02*
D03*
X335707D02*
D03*
X340707D02*
D03*
X325707Y56796D02*
D03*
X330707D02*
D03*
X335707D02*
D03*
D15*
X324518Y15235D02*
D03*
X341841D02*
D03*
X181367Y62130D02*
D03*
X164044D02*
D03*
D16*
X296402Y46758D02*
D03*
Y53057D02*
D03*
X184940Y12076D02*
D03*
Y5383D02*
D03*
X176554Y12076D02*
D03*
Y5383D02*
D03*
X169034D02*
D03*
Y12076D02*
D03*
X54890Y6960D02*
D03*
Y13260D02*
D03*
X34100Y46170D02*
D03*
Y39870D02*
D03*
X63420Y13360D02*
D03*
Y7060D02*
D03*
D17*
X315202Y53868D02*
D03*
X307722D02*
D03*
X311462D02*
D03*
X307722Y41663D02*
D03*
X315202D02*
D03*
D18*
X281030Y17148D02*
D03*
X274730D02*
D03*
X281030Y13802D02*
D03*
X274730D02*
D03*
X281030Y32076D02*
D03*
X274730D02*
D03*
X281030Y28729D02*
D03*
X274730D02*
D03*
X281030Y47158D02*
D03*
X274730D02*
D03*
X281030Y43812D02*
D03*
X274730D02*
D03*
X281030Y62398D02*
D03*
X274730D02*
D03*
X281030Y59052D02*
D03*
X274730D02*
D03*
D19*
X231919Y61120D02*
D03*
X239792D02*
D03*
X195429Y51020D02*
D03*
X203303D02*
D03*
X195429Y42700D02*
D03*
X203303D02*
D03*
X38253Y12510D02*
D03*
X46127D02*
D03*
D20*
X134763Y28596D02*
D03*
Y20721D02*
D03*
X64760Y63917D02*
D03*
Y56043D02*
D03*
X34100Y22653D02*
D03*
Y30527D02*
D03*
X30780Y66197D02*
D03*
Y58323D02*
D03*
D21*
X166464Y44497D02*
D03*
X179850D02*
D03*
X104654Y36812D02*
D03*
X91268D02*
D03*
D22*
X116510Y44245D02*
D03*
X116510Y62355D02*
D03*
D23*
X142101Y53300D02*
D03*
D24*
X86859Y52290D02*
D03*
Y59771D02*
D03*
Y56030D02*
D03*
X74654D02*
D03*
Y59771D02*
D03*
Y52290D02*
D03*
X166923Y21100D02*
D03*
Y28580D02*
D03*
Y24840D02*
D03*
X179128D02*
D03*
Y28580D02*
D03*
Y21100D02*
D03*
D25*
X94980Y52814D02*
D03*
X104429D02*
D03*
D26*
X273571Y70689D02*
D03*
X262857D02*
D03*
X252141D02*
D03*
X241426D02*
D03*
X230712D02*
D03*
D27*
X243364Y18724D02*
D03*
Y21283D02*
D03*
Y23842D02*
D03*
Y26401D02*
D03*
Y28960D02*
D03*
Y31519D02*
D03*
Y34079D02*
D03*
Y36638D02*
D03*
Y39197D02*
D03*
X220727Y18724D02*
D03*
Y21283D02*
D03*
Y23842D02*
D03*
Y26401D02*
D03*
Y28960D02*
D03*
Y31519D02*
D03*
Y34079D02*
D03*
Y36638D02*
D03*
Y39197D02*
D03*
X243364Y41756D02*
D03*
X220727D02*
D03*
D28*
X17769Y25776D02*
D03*
Y15540D02*
D03*
Y18099D02*
D03*
Y23217D02*
D03*
Y20658D02*
D03*
D29*
X16567Y33355D02*
D03*
Y7765D02*
D03*
D30*
X7119Y16426D02*
D03*
Y24694D02*
D03*
D31*
X78897Y6596D02*
D03*
Y19981D02*
D03*
D39*
X196666Y69040D02*
D03*
X221469D02*
D03*
D40*
X6830Y58590D02*
D03*
Y68590D02*
D03*
D41*
X386160Y62340D02*
D03*
Y32340D02*
D03*
Y42340D02*
D03*
Y52340D02*
D03*
D42*
Y22340D02*
D03*
D43*
X6371Y34237D02*
D03*
X6449Y7198D02*
D03*
D44*
X14488Y28583D02*
D03*
Y12795D02*
D03*
M02*
