M48
;Layer_Color=9474304
;FILE_FORMAT=2:5
INCH,LZ
;TYPE=PLATED
T1F00S00C0.01181
T2F00S00C0.01378
T3F00S00C0.02362
T5F00S00C0.02559
T6F00S00C0.03543
T7F00S00C0.03937
T8F00S00C0.05118
%
T01
X0366732Y0020394
X0372677Y0022677
X0375551Y0031102
X0365079Y0030079
X0365905Y0028858
X0366535Y0046968
X0364882Y0058701
X0372284Y0064055
X0376614Y006941
X0366496Y007437
X0378661Y0049449
X0362992Y0064882
X0362165Y006689
X0363858Y0073543
X0354134Y0074961
X035126Y0069213
X0346969Y0067953
X0350866Y0058898
X0346339Y0045945
X033563Y0042913
X0330784Y0062717
X0333347Y0068189
X030122Y0066063
X0295551Y0067874
X0291142Y0061417
X0303307Y0059331
X0300827Y0046772
X0287756Y0036299
X0279882Y0037638
X0278583Y0023583
X028748Y002126
X0287559Y0010866
X0296339Y0013661
X0301969Y001626
X0302165Y0010866
X0324449Y0007283
X0332126Y0006693
X0349213Y0026969
X0354764Y0026575
X0357638Y0022244
X0277835Y0007835
X0250866Y0010472
X0245354Y0012638
X0239646Y0013465
X0237795Y0020945
X0233858Y0018937
X0230748Y0032205
X023252Y0036693
X0247119Y0037031
X025563Y0039252
X0255748Y0024055
X024748Y0023819
X022522Y002896
X0215945Y0031378
X0211315Y0036638
X0220905Y0046063
X0219055Y0049606
X0219961Y005689
X0228228Y0050551
X0236063Y0055787
X0254921Y0054685
X0243032Y0068898
X0267362Y0068504
X0280827Y0068701
X028252Y0053347
X0207874Y0045787
X0189331Y0042638
X0189882Y0057284
X0203228Y0068032
X0158504Y0057913
X015675Y0028386
X0160669Y0024961
X0158207Y0016339
X0161772Y0012087
X0169034Y0016121
X0172126Y0017362
X0176554Y0016082
X018494Y0015885
X0190984Y0016457
X0189567Y0022598
X0184961Y0022716
X0139427Y001252
X0132813Y0010551
X0129567Y0015827
X0122756Y0019213
X0123228Y0039213
X0122913Y0052795
X0113347Y0068661
X0109803Y006685
X0089567Y0064134
X0089016Y0069252
X0084016Y0063937
X0078504Y006059
X0068583Y0071653
X0061772Y0073858
X0055Y0063071
X0054723Y0051299
X0055945Y0037008
X0052008
X0052087Y003248
X0055787
X0069803Y0033622
X0059842Y0016938
X0067638Y0007441
X0078897Y0003032
X0033425Y0017441
X0020118Y0012717
X0022165Y0006535
X0034055Y003622
X0048071Y0037008
Y003248
X0035787Y0073661
X0029961Y0071772
X0016654
X0012677Y0075748
T02
X0033927Y001251
T03
X0337362Y0075157
X0108976Y0062362
X0079416Y005603
X0083425Y0028504
X0129252Y0028622
X0036142Y0058386
T05
X0014488Y0012795
Y0028583
T06
X038616Y002234
Y003234
Y004234
Y005234
Y006234
T07
X000683Y005859
Y006859
T08
X0221469Y006904
X0196666
M30
