%FSLAX25Y25*%
%MOIN*%
G70*
G01*
G75*
G04 Layer_Color=65535*
%ADD10R,0.12402X0.08898*%
%ADD11R,0.02400X0.05906*%
%ADD12R,0.03150X0.03937*%
%ADD13R,0.03937X0.04724*%
%ADD14R,0.15748X0.05118*%
%ADD15R,0.03937X0.03150*%
%ADD16R,0.05118X0.15748*%
%ADD17R,0.03937X0.01575*%
G04:AMPARAMS|DCode=18|XSize=39.37mil|YSize=59.06mil|CornerRadius=0mil|HoleSize=0mil|Usage=FLASHONLY|Rotation=180.000|XOffset=0mil|YOffset=0mil|HoleType=Round|Shape=Octagon|*
%AMOCTAGOND18*
4,1,8,0.00984,-0.02953,-0.00984,-0.02953,-0.01969,-0.01969,-0.01969,0.01969,-0.00984,0.02953,0.00984,0.02953,0.01969,0.01969,0.01969,-0.01969,0.00984,-0.02953,0.0*
%
%ADD18OCTAGOND18*%

%ADD19P,0.06392X8X22.5*%
%ADD20R,0.05906X0.01378*%
%ADD21R,0.05118X0.01260*%
%ADD22R,0.04724X0.03937*%
%ADD23C,0.04724*%
%ADD24R,0.04724X0.05906*%
%ADD25R,0.07874X0.04134*%
%ADD26R,0.26772X0.25984*%
%ADD27R,0.06299X0.05906*%
%ADD28R,0.03150X0.02559*%
%ADD29R,0.01575X0.03937*%
%ADD30O,0.01969X0.07874*%
%ADD31R,0.01969X0.07874*%
%ADD32C,0.03937*%
%ADD33C,0.01969*%
%ADD34C,0.02756*%
%ADD35C,0.03150*%
%ADD36C,0.01181*%
%ADD37C,0.02362*%
%ADD38R,0.06850X0.08228*%
%ADD39C,0.02559*%
%ADD40O,0.05906X0.07874*%
%ADD41R,0.05906X0.05906*%
%ADD42C,0.05906*%
%ADD43R,0.05906X0.05906*%
%ADD44C,0.07087*%
%ADD45C,0.03937*%
%ADD46C,0.01969*%
%ADD47C,0.02756*%
%ADD48C,0.00984*%
%ADD49C,0.00500*%
%ADD50C,0.00787*%
%ADD51C,0.00472*%
%ADD52C,0.00591*%
%ADD53C,0.00492*%
%ADD54C,0.00709*%
%ADD55C,0.00394*%
G36*
X363311Y7476D02*
Y7471D01*
X363305Y7465D01*
X363294Y7454D01*
X363272Y7438D01*
X363266Y7432D01*
X363250Y7421D01*
X363216Y7393D01*
X363172Y7360D01*
X363117Y7310D01*
X363044Y7249D01*
X362961Y7171D01*
X362861Y7082D01*
X362856D01*
X362850Y7071D01*
X362817Y7043D01*
X362772Y6999D01*
X362717Y6944D01*
X362661Y6882D01*
X362606Y6827D01*
X362561Y6777D01*
X362534Y6733D01*
Y6727D01*
X362523Y6722D01*
X362512Y6716D01*
X362489Y6710D01*
X362456Y6722D01*
X362412Y6744D01*
X362384Y6760D01*
X362356Y6783D01*
X362323Y6816D01*
X362290Y6849D01*
X362284Y6860D01*
X362262Y6882D01*
X362234Y6916D01*
X362212Y6955D01*
X362201Y6994D01*
X362195Y7016D01*
X362201Y7032D01*
X362212Y7049D01*
X362223Y7060D01*
X362245Y7066D01*
X362279Y7071D01*
X362290D01*
X362312Y7077D01*
X362351Y7082D01*
X362406Y7093D01*
X362467Y7116D01*
X362539Y7138D01*
X362623Y7171D01*
X362711Y7215D01*
X362717D01*
X362722Y7221D01*
X362756Y7238D01*
X362800Y7260D01*
X362861Y7293D01*
X362928Y7327D01*
X363005Y7365D01*
X363166Y7438D01*
X363172D01*
X363178Y7443D01*
X363200Y7449D01*
X363233Y7465D01*
X363272Y7471D01*
X363300Y7482D01*
X363311Y7476D01*
D02*
G37*
G36*
X365131Y7676D02*
Y7665D01*
X365120Y7648D01*
X365103Y7626D01*
X365076Y7598D01*
X365070Y7593D01*
X365048Y7571D01*
X365015Y7537D01*
X364970Y7493D01*
X364915Y7432D01*
X364843Y7371D01*
X364765Y7293D01*
X364676Y7215D01*
X364665Y7204D01*
X364637Y7177D01*
X364593Y7138D01*
X364543Y7082D01*
X364487Y7021D01*
X364432Y6960D01*
X364382Y6894D01*
X364337Y6827D01*
X364332Y6821D01*
X364321Y6805D01*
X364299Y6788D01*
X364265Y6777D01*
X364221D01*
X364193Y6783D01*
X364165Y6794D01*
X364132Y6810D01*
X364099Y6838D01*
X364060Y6871D01*
X364021Y6910D01*
Y6916D01*
X364010Y6921D01*
X363988Y6949D01*
X363960Y6988D01*
X363938Y7032D01*
X363921Y7077D01*
Y7093D01*
Y7110D01*
X363932Y7127D01*
X363949Y7138D01*
X363977Y7143D01*
X364049D01*
X364093Y7149D01*
X364154Y7165D01*
X364227Y7182D01*
X364315Y7221D01*
X364415Y7265D01*
X364526Y7332D01*
X364532D01*
X364537Y7343D01*
X364554Y7349D01*
X364576Y7365D01*
X364632Y7404D01*
X364704Y7449D01*
X364781Y7498D01*
X364865Y7548D01*
X364943Y7604D01*
X365020Y7648D01*
X365031Y7654D01*
X365054Y7665D01*
X365081Y7676D01*
X365109Y7687D01*
X365126D01*
X365131Y7676D01*
D02*
G37*
G36*
X376409Y7055D02*
X376442Y7049D01*
X376486Y7038D01*
X376525Y7021D01*
X376564Y6999D01*
X376597Y6966D01*
X376603Y6960D01*
X376609Y6949D01*
X376625Y6932D01*
X376642Y6905D01*
X376653Y6871D01*
X376670Y6832D01*
X376675Y6783D01*
X376681Y6733D01*
Y6727D01*
Y6705D01*
X376675Y6677D01*
X376670Y6644D01*
X376659Y6605D01*
X376642Y6561D01*
X376620Y6522D01*
X376586Y6488D01*
X376581Y6483D01*
X376570Y6477D01*
X376548Y6461D01*
X376520Y6450D01*
X376486Y6433D01*
X376448Y6416D01*
X376403Y6411D01*
X376353Y6405D01*
X376331D01*
X376309Y6411D01*
X376281Y6416D01*
X376242Y6427D01*
X376203Y6438D01*
X376165Y6461D01*
X376126Y6488D01*
X376120Y6494D01*
X376109Y6505D01*
X376092Y6522D01*
X376076Y6549D01*
X376054Y6583D01*
X376037Y6627D01*
X376026Y6677D01*
X376020Y6733D01*
Y6738D01*
Y6755D01*
X376026Y6783D01*
X376031Y6816D01*
X376043Y6849D01*
X376054Y6888D01*
X376076Y6921D01*
X376103Y6955D01*
X376109Y6960D01*
X376120Y6966D01*
X376137Y6982D01*
X376165Y6999D01*
X376203Y7016D01*
X376242Y7032D01*
X376292Y7049D01*
X376353Y7060D01*
X376381D01*
X376409Y7055D01*
D02*
G37*
G36*
X363538Y8797D02*
X363588Y8781D01*
X363594D01*
X363611Y8770D01*
X363638Y8758D01*
X363671Y8742D01*
X363749Y8692D01*
X363821Y8631D01*
X363827Y8625D01*
X363838Y8620D01*
X363877Y8586D01*
X363888Y8570D01*
X363899Y8547D01*
Y8531D01*
X363882Y8509D01*
X363871Y8497D01*
X363860Y8486D01*
X363849Y8470D01*
X363832Y8442D01*
X363810Y8409D01*
X363794Y8364D01*
X363777Y8314D01*
Y8309D01*
X363771Y8287D01*
X363766Y8242D01*
X363755Y8187D01*
X363749Y8109D01*
Y8065D01*
X363744Y8009D01*
Y7954D01*
Y7887D01*
Y7820D01*
Y7743D01*
Y7737D01*
Y7726D01*
Y7704D01*
Y7671D01*
X363749Y7632D01*
Y7587D01*
Y7537D01*
X363755Y7482D01*
Y7354D01*
X363760Y7210D01*
X363771Y7055D01*
X363777Y6899D01*
Y6894D01*
Y6882D01*
Y6860D01*
Y6827D01*
Y6794D01*
Y6749D01*
X363766Y6655D01*
X363749Y6538D01*
X363721Y6422D01*
X363677Y6300D01*
X363622Y6189D01*
Y6183D01*
X363616Y6178D01*
X363594Y6144D01*
X363561Y6106D01*
X363522Y6067D01*
X363472Y6039D01*
X363450Y6028D01*
X363400D01*
X363372Y6039D01*
X363344Y6061D01*
X363322Y6094D01*
X363316Y6106D01*
X363300Y6128D01*
X363272Y6166D01*
X363228Y6216D01*
X363178Y6272D01*
X363117Y6333D01*
X363050Y6394D01*
X362967Y6455D01*
X362956Y6461D01*
X362933Y6477D01*
X362906Y6505D01*
X362883Y6527D01*
X362867Y6549D01*
Y6561D01*
X362872Y6566D01*
X362928D01*
X362967Y6555D01*
X362978D01*
X363005Y6549D01*
X363044Y6538D01*
X363094Y6533D01*
X363205Y6516D01*
X363255D01*
X363300Y6522D01*
X363305D01*
X363316Y6527D01*
X363355Y6544D01*
X363377Y6561D01*
X363400Y6583D01*
X363416Y6616D01*
X363427Y6649D01*
Y6655D01*
X363433Y6672D01*
Y6699D01*
X363438Y6744D01*
X363444Y6805D01*
X363450Y6882D01*
X363455Y6977D01*
X363461Y7093D01*
Y7099D01*
Y7110D01*
Y7127D01*
Y7154D01*
Y7188D01*
X363466Y7221D01*
Y7315D01*
Y7421D01*
Y7543D01*
Y7682D01*
X363461Y7820D01*
Y7826D01*
Y7837D01*
Y7859D01*
Y7881D01*
X363455Y7954D01*
Y8031D01*
X363450Y8120D01*
X363444Y8209D01*
X363433Y8292D01*
Y8326D01*
X363427Y8359D01*
Y8364D01*
X363422Y8381D01*
X363416Y8409D01*
X363411Y8437D01*
X363400Y8464D01*
X363383Y8486D01*
X363366Y8497D01*
X363344Y8503D01*
X363333D01*
X363316Y8497D01*
X363289Y8492D01*
X363255Y8481D01*
X363211Y8470D01*
X363150Y8453D01*
X363083Y8431D01*
X363072D01*
X363050Y8425D01*
X363017Y8420D01*
X362972Y8414D01*
X362917Y8420D01*
X362861Y8431D01*
X362806Y8448D01*
X362756Y8481D01*
X362750Y8486D01*
X362739Y8497D01*
X362722Y8514D01*
X362711Y8536D01*
X362706Y8559D01*
X362711Y8575D01*
X362734Y8592D01*
X362756D01*
X362778Y8597D01*
X362806D01*
X362839Y8603D01*
X362878Y8608D01*
X362928Y8614D01*
X362983Y8620D01*
X363105Y8642D01*
X363111D01*
X363133Y8647D01*
X363166Y8659D01*
X363205Y8670D01*
X363289Y8703D01*
X363333Y8731D01*
X363366Y8758D01*
X363372Y8764D01*
X363383Y8770D01*
X363400Y8781D01*
X363427Y8792D01*
X363455Y8803D01*
X363494D01*
X363538Y8797D01*
D02*
G37*
G36*
X380172Y10523D02*
X380210Y10518D01*
X380249Y10512D01*
X380349Y10484D01*
X380460Y10446D01*
X380521Y10418D01*
X380582Y10385D01*
X380643Y10346D01*
X380704Y10296D01*
X380766Y10246D01*
X380821Y10185D01*
X380827Y10179D01*
X380832Y10168D01*
X380849Y10151D01*
X380871Y10124D01*
X380893Y10090D01*
X380921Y10052D01*
X380954Y10002D01*
X380988Y9952D01*
X381021Y9891D01*
X381054Y9830D01*
X381087Y9757D01*
X381121Y9680D01*
X381176Y9513D01*
X381221Y9330D01*
Y9324D01*
X381226Y9308D01*
X381232Y9280D01*
X381237Y9241D01*
X381243Y9191D01*
X381248Y9136D01*
X381254Y9064D01*
X381265Y8991D01*
X381271Y8908D01*
X381276Y8819D01*
X381282Y8720D01*
Y8614D01*
X381287Y8509D01*
Y8392D01*
X381276Y8148D01*
Y8142D01*
Y8120D01*
X381271Y8081D01*
Y8037D01*
X381265Y7981D01*
X381254Y7915D01*
X381248Y7843D01*
X381237Y7765D01*
X381204Y7587D01*
X381165Y7410D01*
X381110Y7227D01*
X381076Y7143D01*
X381043Y7060D01*
Y7055D01*
X381032Y7043D01*
X381021Y7021D01*
X381004Y6994D01*
X380988Y6960D01*
X380960Y6916D01*
X380899Y6827D01*
X380816Y6733D01*
X380710Y6638D01*
X380588Y6549D01*
X380521Y6511D01*
X380449Y6477D01*
X380444D01*
X380433Y6472D01*
X380410Y6466D01*
X380383Y6455D01*
X380344Y6444D01*
X380299Y6438D01*
X380255Y6427D01*
X380199Y6422D01*
X380077Y6416D01*
X379944Y6422D01*
X379872Y6433D01*
X379800Y6455D01*
X379728Y6477D01*
X379650Y6511D01*
X379644D01*
X379633Y6522D01*
X379611Y6533D01*
X379583Y6549D01*
X379556Y6566D01*
X379517Y6594D01*
X379433Y6649D01*
X379339Y6727D01*
X379245Y6816D01*
X379162Y6921D01*
X379089Y7038D01*
Y7043D01*
X379084Y7055D01*
X379073Y7071D01*
X379062Y7093D01*
X379051Y7127D01*
X379034Y7160D01*
X379001Y7249D01*
X378962Y7349D01*
X378923Y7465D01*
X378890Y7593D01*
X378856Y7726D01*
Y7732D01*
X378851Y7743D01*
Y7765D01*
X378845Y7793D01*
X378840Y7831D01*
X378834Y7876D01*
X378829Y7926D01*
X378823Y7987D01*
X378818Y8054D01*
X378812Y8126D01*
X378806Y8209D01*
Y8298D01*
X378801Y8392D01*
Y8492D01*
Y8603D01*
X378806Y8714D01*
Y8720D01*
Y8742D01*
X378812Y8775D01*
Y8819D01*
X378818Y8869D01*
X378823Y8930D01*
X378829Y8997D01*
X378840Y9069D01*
X378862Y9225D01*
X378895Y9391D01*
X378934Y9552D01*
X378956Y9624D01*
X378984Y9696D01*
Y9702D01*
X378990Y9713D01*
X379001Y9730D01*
X379012Y9757D01*
X379028Y9785D01*
X379051Y9824D01*
X379095Y9907D01*
X379156Y10002D01*
X379234Y10102D01*
X379317Y10196D01*
X379417Y10290D01*
X379422Y10296D01*
X379428Y10301D01*
X379445Y10312D01*
X379467Y10329D01*
X379495Y10346D01*
X379528Y10368D01*
X379611Y10412D01*
X379711Y10451D01*
X379828Y10490D01*
X379961Y10518D01*
X380033Y10529D01*
X380144D01*
X380172Y10523D01*
D02*
G37*
G36*
X374383Y6477D02*
X373917D01*
Y9707D01*
X373911Y9702D01*
X373906Y9696D01*
X373884Y9680D01*
X373861Y9657D01*
X373834Y9630D01*
X373795Y9596D01*
X373756Y9558D01*
X373706Y9519D01*
X373595Y9430D01*
X373462Y9336D01*
X373312Y9230D01*
X373145Y9125D01*
Y9569D01*
X373151Y9574D01*
X373173Y9585D01*
X373201Y9607D01*
X373245Y9641D01*
X373290Y9674D01*
X373351Y9724D01*
X373412Y9774D01*
X373484Y9835D01*
X373556Y9896D01*
X373634Y9968D01*
X373717Y10046D01*
X373795Y10129D01*
X373956Y10307D01*
X374106Y10501D01*
X374383D01*
Y6477D01*
D02*
G37*
G36*
X365231Y9080D02*
X365298Y9064D01*
X365309D01*
X365331Y9053D01*
X365364Y9041D01*
X365409Y9025D01*
X365459Y9003D01*
X365514Y8975D01*
X365625Y8914D01*
X365631Y8908D01*
X365647Y8897D01*
X365664Y8880D01*
X365686Y8853D01*
X365697Y8825D01*
X365703Y8797D01*
X365692Y8758D01*
X365681Y8742D01*
X365664Y8725D01*
X365658Y8720D01*
X365647Y8703D01*
X365642Y8686D01*
X365631Y8664D01*
X365625Y8636D01*
X365614Y8603D01*
X365603Y8559D01*
X365597Y8514D01*
X365592Y8453D01*
X365586Y8387D01*
X365581Y8314D01*
Y8226D01*
Y8131D01*
Y8020D01*
Y8015D01*
Y7993D01*
Y7959D01*
X365586Y7915D01*
Y7865D01*
Y7798D01*
X365592Y7726D01*
Y7648D01*
Y7560D01*
X365597Y7471D01*
Y7271D01*
X365603Y7060D01*
Y6849D01*
Y6844D01*
Y6827D01*
Y6794D01*
X365597Y6760D01*
Y6710D01*
X365592Y6661D01*
X365586Y6599D01*
X365575Y6538D01*
X365553Y6400D01*
X365514Y6261D01*
X365464Y6122D01*
X365431Y6061D01*
X365392Y6006D01*
Y6000D01*
X365381Y5994D01*
X365359Y5967D01*
X365320Y5928D01*
X365276Y5895D01*
X365248Y5878D01*
X365220Y5872D01*
X365198Y5867D01*
X365170Y5872D01*
X365142Y5883D01*
X365120Y5906D01*
X365098Y5939D01*
X365076Y5983D01*
Y5989D01*
X365070Y5994D01*
X365054Y6028D01*
X365026Y6078D01*
X364987Y6139D01*
X364937Y6211D01*
X364865Y6289D01*
X364787Y6366D01*
X364687Y6444D01*
X364682D01*
X364676Y6455D01*
X364648Y6472D01*
X364615Y6505D01*
X364582Y6533D01*
X364560Y6561D01*
Y6572D01*
Y6583D01*
X364571Y6588D01*
X364621D01*
X364665Y6577D01*
X364676D01*
X364709Y6566D01*
X364754Y6561D01*
X364809Y6549D01*
X364876Y6538D01*
X364937Y6527D01*
X364998Y6516D01*
X365054Y6511D01*
X365098D01*
X365126Y6516D01*
X365153Y6527D01*
X365181Y6544D01*
X365203Y6572D01*
X365226Y6605D01*
Y6611D01*
X365231Y6627D01*
X365242Y6661D01*
X365253Y6716D01*
X365259Y6749D01*
X365264Y6788D01*
X365270Y6832D01*
Y6888D01*
X365276Y6944D01*
X365281Y7010D01*
X365287Y7082D01*
Y7165D01*
Y7171D01*
Y7188D01*
Y7210D01*
Y7243D01*
Y7288D01*
Y7338D01*
Y7399D01*
Y7460D01*
Y7532D01*
Y7609D01*
X365281Y7776D01*
X365276Y7954D01*
X365264Y8148D01*
Y8153D01*
Y8170D01*
X365259Y8198D01*
Y8231D01*
X365253Y8270D01*
X365248Y8320D01*
X365231Y8420D01*
X365209Y8520D01*
X365181Y8614D01*
X365164Y8659D01*
X365142Y8692D01*
X365120Y8714D01*
X365098Y8731D01*
X365092D01*
X365076Y8736D01*
X365042Y8747D01*
X364943D01*
X364876Y8742D01*
X364793Y8725D01*
X364698Y8697D01*
X364693D01*
X364687Y8692D01*
X364654Y8686D01*
X364610Y8670D01*
X364554Y8653D01*
X364493Y8642D01*
X364432Y8625D01*
X364382Y8620D01*
X364332D01*
X364321Y8625D01*
X364304Y8631D01*
X364277Y8636D01*
X364249Y8653D01*
X364215Y8670D01*
X364177Y8692D01*
X364138Y8725D01*
X364132Y8731D01*
X364127Y8742D01*
X364116Y8758D01*
X364110Y8775D01*
X364116Y8792D01*
X364138Y8808D01*
X364154Y8819D01*
X364177Y8825D01*
X364210D01*
X364243Y8830D01*
X364254D01*
X364282Y8836D01*
X364321D01*
X364376Y8847D01*
X364443Y8853D01*
X364521Y8869D01*
X364604Y8886D01*
X364687Y8908D01*
X364693D01*
X364698Y8914D01*
X364726Y8919D01*
X364770Y8936D01*
X364820Y8953D01*
X364926Y8997D01*
X364981Y9025D01*
X365020Y9053D01*
X365026Y9058D01*
X365037Y9064D01*
X365059Y9075D01*
X365092Y9080D01*
X365131Y9086D01*
X365176D01*
X365231Y9080D01*
D02*
G37*
G36*
X371292Y6405D02*
X370826D01*
X369654Y10457D01*
X370215D01*
X371036Y7388D01*
X371081D01*
X371902Y10457D01*
X372463D01*
X371292Y6405D01*
D02*
G37*
G36*
X364621Y10523D02*
X364676Y10501D01*
X364682Y10496D01*
X364704Y10490D01*
X364737Y10473D01*
X364776Y10457D01*
X364826Y10429D01*
X364881Y10401D01*
X365003Y10329D01*
X365009Y10323D01*
X365026Y10312D01*
X365048Y10290D01*
X365065Y10262D01*
X365070Y10224D01*
Y10207D01*
X365059Y10185D01*
X365048Y10163D01*
X365026Y10140D01*
X364998Y10113D01*
X364959Y10090D01*
X364948Y10085D01*
X364920Y10068D01*
X364881Y10035D01*
X364831Y9996D01*
X364776Y9940D01*
X364715Y9874D01*
X364654Y9796D01*
X364598Y9707D01*
X364604D01*
X364610Y9696D01*
X364632Y9674D01*
X364665Y9635D01*
X364693Y9596D01*
X364698Y9574D01*
X364704Y9546D01*
Y9524D01*
X364693Y9502D01*
X364676Y9485D01*
X364654Y9463D01*
X364615Y9447D01*
X364571Y9436D01*
X364560D01*
X364543Y9430D01*
X364521Y9424D01*
X364493Y9419D01*
X364460Y9413D01*
X364376Y9397D01*
X364271Y9374D01*
X364149Y9347D01*
X364010Y9319D01*
X363849Y9286D01*
X363844D01*
X363827Y9280D01*
X363805Y9274D01*
X363777Y9269D01*
X363738Y9263D01*
X363694Y9252D01*
X363594Y9230D01*
X363477Y9208D01*
X363355Y9186D01*
X363233Y9164D01*
X363122Y9141D01*
X363111D01*
X363094Y9136D01*
X363072D01*
X363022Y9130D01*
X362956Y9125D01*
X362795D01*
X362711Y9130D01*
X362628Y9147D01*
Y9141D01*
Y9136D01*
X362623Y9103D01*
X362612Y9047D01*
X362595Y8980D01*
X362578Y8892D01*
X362561Y8797D01*
X362539Y8686D01*
X362517Y8570D01*
X362462Y8326D01*
X362401Y8076D01*
X362367Y7959D01*
X362334Y7843D01*
X362301Y7737D01*
X362267Y7643D01*
Y7637D01*
X362262Y7621D01*
X362251Y7598D01*
X362234Y7565D01*
X362217Y7521D01*
X362195Y7471D01*
X362173Y7421D01*
X362145Y7360D01*
X362084Y7221D01*
X362006Y7071D01*
X361923Y6916D01*
X361829Y6755D01*
X361823Y6749D01*
X361818Y6738D01*
X361801Y6716D01*
X361785Y6688D01*
X361757Y6649D01*
X361729Y6611D01*
X361657Y6516D01*
X361568Y6411D01*
X361468Y6294D01*
X361352Y6183D01*
X361224Y6083D01*
X361218D01*
X361207Y6072D01*
X361174Y6050D01*
X361124Y6017D01*
X361080Y5994D01*
X361057Y5983D01*
X361041Y5978D01*
X361030Y5983D01*
Y5989D01*
Y6006D01*
X361046Y6033D01*
X361069Y6067D01*
X361107Y6117D01*
X361113Y6122D01*
X361119Y6128D01*
X361130Y6144D01*
X361146Y6166D01*
X361191Y6228D01*
X361252Y6305D01*
X361318Y6394D01*
X361390Y6505D01*
X361463Y6622D01*
X361540Y6744D01*
Y6749D01*
X361551Y6760D01*
X361562Y6777D01*
X361574Y6805D01*
X361590Y6838D01*
X361613Y6871D01*
X361635Y6916D01*
X361662Y6966D01*
X361718Y7077D01*
X361779Y7204D01*
X361846Y7343D01*
X361912Y7493D01*
Y7498D01*
X361918Y7510D01*
X361929Y7537D01*
X361940Y7565D01*
X361957Y7604D01*
X361973Y7654D01*
X361995Y7704D01*
X362018Y7765D01*
X362040Y7837D01*
X362062Y7909D01*
X362084Y7987D01*
X362112Y8070D01*
X362162Y8253D01*
X362206Y8453D01*
Y8459D01*
X362212Y8475D01*
X362217Y8509D01*
X362223Y8547D01*
X362234Y8592D01*
X362245Y8647D01*
X362256Y8708D01*
X362273Y8781D01*
X362295Y8925D01*
X362323Y9086D01*
X362345Y9247D01*
X362367Y9402D01*
Y9408D01*
Y9419D01*
X362373Y9441D01*
Y9469D01*
Y9502D01*
X362378Y9541D01*
Y9630D01*
X362373Y9730D01*
X362362Y9835D01*
X362339Y9935D01*
X362301Y10024D01*
X362295Y10035D01*
X362290Y10057D01*
X362279Y10090D01*
Y10124D01*
X362295Y10157D01*
X362312Y10168D01*
X362334Y10174D01*
X362356Y10179D01*
X362395D01*
X362439Y10174D01*
X362489Y10163D01*
X362495D01*
X362506Y10157D01*
X362523D01*
X362545Y10151D01*
X362573Y10146D01*
X362606Y10140D01*
X362689Y10129D01*
X362789Y10124D01*
X362911Y10118D01*
X363039Y10124D01*
X363178Y10140D01*
X363183D01*
X363194Y10146D01*
X363216D01*
X363244Y10151D01*
X363278Y10157D01*
X363316Y10163D01*
X363416Y10179D01*
X363527Y10201D01*
X363649Y10224D01*
X363777Y10251D01*
X363905Y10279D01*
X363910D01*
X363921Y10285D01*
X363938Y10290D01*
X363960Y10296D01*
X364021Y10312D01*
X364093Y10335D01*
X364171Y10362D01*
X364249Y10396D01*
X364321Y10429D01*
X364382Y10468D01*
X364387Y10473D01*
X364410Y10484D01*
X364437Y10496D01*
X364471Y10512D01*
X364515Y10523D01*
X364565Y10529D01*
X364621Y10523D01*
D02*
G37*
G36*
X358760Y10812D02*
X358810Y10795D01*
X358815D01*
X358838Y10784D01*
X358865Y10773D01*
X358898Y10751D01*
X358943Y10729D01*
X358993Y10695D01*
X359048Y10662D01*
X359104Y10618D01*
X359109Y10612D01*
X359126Y10601D01*
X359148Y10579D01*
X359171Y10551D01*
X359187Y10523D01*
X359193Y10490D01*
X359182Y10457D01*
X359171Y10446D01*
X359154Y10429D01*
X359148Y10423D01*
X359137Y10418D01*
X359115Y10401D01*
X359093Y10379D01*
X359065Y10351D01*
X359037Y10312D01*
X359004Y10273D01*
X358976Y10224D01*
X358971Y10218D01*
X358965Y10196D01*
X358954Y10163D01*
X358937Y10113D01*
X358915Y10040D01*
X358893Y9957D01*
X358871Y9852D01*
X358849Y9730D01*
Y9724D01*
Y9713D01*
X358843Y9696D01*
X358838Y9669D01*
X358832Y9630D01*
Y9591D01*
X358826Y9541D01*
X358821Y9485D01*
X358815Y9424D01*
X358810Y9358D01*
X358804Y9286D01*
X358799Y9208D01*
X358793Y9036D01*
X358787Y8842D01*
Y8836D01*
Y8819D01*
Y8792D01*
Y8753D01*
X358793Y8708D01*
Y8647D01*
X358799Y8586D01*
Y8514D01*
X358804Y8442D01*
X358815Y8359D01*
X358832Y8181D01*
X358860Y7987D01*
X358893Y7787D01*
Y7782D01*
X358898Y7765D01*
X358904Y7737D01*
X358915Y7698D01*
X358926Y7654D01*
X358943Y7598D01*
X358965Y7543D01*
X358993Y7476D01*
X359054Y7343D01*
X359132Y7199D01*
X359237Y7060D01*
X359293Y6994D01*
X359359Y6932D01*
X359365Y6927D01*
X359376Y6921D01*
X359392Y6905D01*
X359420Y6888D01*
X359481Y6844D01*
X359553Y6794D01*
X359637Y6760D01*
X359676Y6744D01*
X359714Y6738D01*
X359748D01*
X359781Y6744D01*
X359809Y6760D01*
X359831Y6788D01*
X359837Y6799D01*
X359848Y6821D01*
X359870Y6860D01*
X359897Y6921D01*
X359931Y6994D01*
X359970Y7088D01*
X360009Y7193D01*
X360053Y7315D01*
Y7321D01*
X360058Y7332D01*
X360070Y7365D01*
X360086Y7399D01*
X360097Y7415D01*
X360108Y7426D01*
X360114Y7432D01*
X360125D01*
X360131Y7421D01*
X360136Y7399D01*
X360142Y7360D01*
Y7310D01*
Y7243D01*
X360136Y7154D01*
Y7149D01*
Y7132D01*
Y7104D01*
X360131Y7071D01*
Y7027D01*
Y6977D01*
Y6860D01*
Y6733D01*
X360142Y6599D01*
X360158Y6477D01*
X360170Y6416D01*
X360181Y6361D01*
Y6355D01*
X360186Y6350D01*
Y6316D01*
Y6278D01*
X360170Y6233D01*
X360153Y6211D01*
X360136Y6194D01*
X360108Y6178D01*
X360075Y6166D01*
X360031Y6161D01*
X359975D01*
X359914Y6166D01*
X359842Y6178D01*
X359837D01*
X359825Y6183D01*
X359803Y6189D01*
X359770Y6200D01*
X359731Y6216D01*
X359687Y6233D01*
X359637Y6255D01*
X359581Y6283D01*
X359520Y6316D01*
X359459Y6355D01*
X359392Y6400D01*
X359320Y6455D01*
X359248Y6516D01*
X359176Y6583D01*
X359104Y6655D01*
X359032Y6738D01*
X359026Y6744D01*
X359015Y6760D01*
X358998Y6788D01*
X358971Y6821D01*
X358943Y6871D01*
X358904Y6927D01*
X358871Y6999D01*
X358826Y7071D01*
X358787Y7160D01*
X358749Y7254D01*
X358710Y7360D01*
X358671Y7476D01*
X358632Y7598D01*
X358604Y7732D01*
X358577Y7870D01*
X358554Y8020D01*
Y8031D01*
X358549Y8059D01*
Y8104D01*
X358543Y8159D01*
X358532Y8237D01*
X358527Y8320D01*
X358521Y8420D01*
X358516Y8525D01*
X358510Y8647D01*
Y8770D01*
X358505Y8903D01*
Y9041D01*
X358510Y9324D01*
X358532Y9613D01*
Y9624D01*
X358538Y9646D01*
Y9685D01*
X358543Y9735D01*
X358549Y9796D01*
X358554Y9863D01*
X358565Y10007D01*
X358571Y10151D01*
X358577Y10224D01*
Y10290D01*
Y10346D01*
Y10390D01*
X358571Y10423D01*
X358565Y10440D01*
X358549Y10446D01*
X358538Y10451D01*
X358521Y10457D01*
X358382D01*
X358321Y10451D01*
X358255Y10446D01*
X358177Y10440D01*
X358088Y10429D01*
X357983Y10412D01*
X357866Y10396D01*
X357861D01*
X357839Y10390D01*
X357800Y10385D01*
X357750Y10379D01*
X357689Y10368D01*
X357616Y10357D01*
X357528Y10346D01*
X357439Y10335D01*
X357333Y10318D01*
X357222Y10301D01*
X357100Y10285D01*
X356978Y10268D01*
X356845Y10251D01*
X356706Y10235D01*
X356423Y10201D01*
Y10196D01*
Y10190D01*
Y10174D01*
Y10157D01*
Y10102D01*
X356429Y10029D01*
Y9935D01*
Y9835D01*
Y9719D01*
Y9591D01*
X356423Y9458D01*
Y9319D01*
X356412Y9036D01*
X356396Y8753D01*
X356384Y8620D01*
X356368Y8492D01*
Y8486D01*
X356362Y8464D01*
X356357Y8431D01*
X356351Y8381D01*
X356340Y8326D01*
X356329Y8259D01*
X356312Y8187D01*
X356296Y8104D01*
X356279Y8020D01*
X356257Y7926D01*
X356201Y7737D01*
X356135Y7543D01*
X356051Y7354D01*
Y7349D01*
X356040Y7332D01*
X356029Y7310D01*
X356007Y7277D01*
X355979Y7232D01*
X355951Y7188D01*
X355913Y7138D01*
X355868Y7077D01*
X355818Y7021D01*
X355763Y6955D01*
X355702Y6894D01*
X355635Y6827D01*
X355557Y6766D01*
X355474Y6699D01*
X355385Y6638D01*
X355291Y6583D01*
X355286Y6577D01*
X355269Y6572D01*
X355247Y6561D01*
X355213Y6544D01*
X355147Y6511D01*
X355080Y6483D01*
X355058Y6477D01*
X355036D01*
X355025Y6483D01*
X355030Y6494D01*
X355047Y6522D01*
X355075Y6555D01*
X355124Y6605D01*
X355158Y6633D01*
X355197Y6666D01*
X355202Y6672D01*
X355213Y6683D01*
X355236Y6705D01*
X355269Y6733D01*
X355302Y6766D01*
X355346Y6810D01*
X355391Y6860D01*
X355441Y6916D01*
X355491Y6982D01*
X355541Y7049D01*
X355646Y7204D01*
X355746Y7376D01*
X355829Y7565D01*
Y7571D01*
X355840Y7587D01*
X355846Y7615D01*
X355863Y7654D01*
X355879Y7704D01*
X355896Y7759D01*
X355913Y7826D01*
X355935Y7898D01*
X355957Y7976D01*
X355979Y8065D01*
X356018Y8248D01*
X356051Y8448D01*
X356074Y8653D01*
Y8659D01*
Y8681D01*
X356079Y8708D01*
Y8747D01*
X356085Y8797D01*
X356090Y8853D01*
X356096Y8914D01*
X356101Y8980D01*
X356107Y9130D01*
X356118Y9286D01*
X356123Y9441D01*
Y9591D01*
Y9596D01*
Y9607D01*
Y9630D01*
Y9657D01*
X356118Y9724D01*
Y9807D01*
X356107Y9896D01*
X356096Y9985D01*
X356085Y10068D01*
X356074Y10102D01*
X356063Y10129D01*
Y10135D01*
X356051Y10151D01*
X356040Y10179D01*
X356024Y10212D01*
X355974Y10296D01*
X355918Y10385D01*
X355913Y10390D01*
X355907Y10401D01*
X355902Y10423D01*
X355896Y10440D01*
X355902Y10462D01*
X355918Y10479D01*
X355946Y10490D01*
X356018D01*
X356046Y10484D01*
X356085Y10479D01*
X356173Y10462D01*
X356262Y10429D01*
X356268D01*
X356284Y10423D01*
X356307Y10418D01*
X356334Y10407D01*
X356412Y10390D01*
X356495Y10385D01*
X356523D01*
X356562Y10390D01*
X356590D01*
X356623Y10396D01*
X356662D01*
X356706Y10401D01*
X356756Y10407D01*
X356812Y10418D01*
X356878Y10423D01*
X356950Y10435D01*
X357028Y10446D01*
X357111Y10457D01*
X357117D01*
X357134Y10462D01*
X357161D01*
X357195Y10468D01*
X357234Y10473D01*
X357283Y10484D01*
X357345Y10490D01*
X357406Y10501D01*
X357544Y10523D01*
X357694Y10551D01*
X357850Y10579D01*
X358005Y10606D01*
X358011D01*
X358022Y10612D01*
X358044Y10618D01*
X358072Y10623D01*
X358105Y10629D01*
X358144Y10640D01*
X358227Y10656D01*
X358316Y10684D01*
X358405Y10712D01*
X358482Y10740D01*
X358516Y10756D01*
X358543Y10773D01*
X358549Y10779D01*
X358565Y10784D01*
X358593Y10795D01*
X358627Y10806D01*
X358665Y10817D01*
X358710D01*
X358760Y10812D01*
D02*
G37*
G36*
X363549Y11062D02*
X363616Y11056D01*
X363694Y11039D01*
X363777Y11023D01*
X363860Y10995D01*
X363944Y10962D01*
X363955Y10956D01*
X363977Y10939D01*
X364010Y10917D01*
X364043Y10884D01*
X364082Y10834D01*
X364110Y10779D01*
X364127Y10712D01*
Y10673D01*
Y10634D01*
Y10623D01*
X364121Y10601D01*
X364104Y10573D01*
X364088Y10540D01*
X364054Y10518D01*
X364004Y10507D01*
X363977D01*
X363944Y10512D01*
X363905Y10529D01*
X363860Y10551D01*
X363849Y10557D01*
X363821Y10573D01*
X363777Y10601D01*
X363721Y10634D01*
X363666Y10668D01*
X363605Y10706D01*
X363544Y10745D01*
X363494Y10784D01*
X363488Y10790D01*
X363477Y10801D01*
X363461Y10817D01*
X363438Y10845D01*
X363377Y10906D01*
X363300Y10973D01*
X363294Y10978D01*
X363289Y10989D01*
X363278Y11001D01*
Y11023D01*
X363289Y11039D01*
X363300Y11045D01*
X363316Y11050D01*
X363338Y11056D01*
X363372Y11062D01*
X363405Y11067D01*
X363499D01*
X363549Y11062D01*
D02*
G37*
G36*
X369560Y5545D02*
X366613D01*
Y5828D01*
X369560D01*
Y5545D01*
D02*
G37*
G36*
X362628Y8065D02*
X362634D01*
X362656Y8059D01*
X362689Y8054D01*
X362728Y8048D01*
X362772Y8037D01*
X362822Y8020D01*
X362922Y7981D01*
X362928D01*
X362945Y7970D01*
X362961Y7954D01*
X362983Y7931D01*
X363005Y7898D01*
X363028Y7859D01*
X363039Y7809D01*
Y7748D01*
Y7743D01*
X363033Y7721D01*
X363028Y7698D01*
X363017Y7671D01*
X363000Y7648D01*
X362978Y7632D01*
X362945Y7626D01*
X362922Y7632D01*
X362900Y7643D01*
X362895Y7648D01*
X362878Y7654D01*
X362856Y7671D01*
X362828Y7687D01*
X362761Y7732D01*
X362700Y7787D01*
X362695Y7793D01*
X362689Y7798D01*
X362672Y7815D01*
X362656Y7837D01*
X362606Y7898D01*
X362545Y7976D01*
X362539Y7981D01*
X362534Y7993D01*
X362528Y8009D01*
Y8031D01*
X362534Y8048D01*
X362545Y8065D01*
X362578Y8070D01*
X362600D01*
X362628Y8065D01*
D02*
G37*
G36*
X364337Y8253D02*
X364349D01*
X364382Y8248D01*
X364426Y8242D01*
X364482Y8231D01*
X364543Y8214D01*
X364604Y8192D01*
X364659Y8170D01*
X364704Y8137D01*
X364709Y8131D01*
X364721Y8120D01*
X364737Y8098D01*
X364754Y8070D01*
X364765Y8031D01*
X364776Y7981D01*
X364781Y7926D01*
X364770Y7865D01*
Y7859D01*
X364765Y7837D01*
X364754Y7815D01*
X364737Y7793D01*
X364709Y7771D01*
X364676Y7765D01*
X364637Y7771D01*
X364610Y7782D01*
X364582Y7798D01*
X364576Y7804D01*
X364554Y7820D01*
X364526Y7843D01*
X364482Y7876D01*
X364432Y7915D01*
X364376Y7965D01*
X364310Y8026D01*
X364243Y8092D01*
X364238Y8098D01*
X364221Y8120D01*
X364204Y8153D01*
X364193Y8181D01*
Y8214D01*
X364204Y8231D01*
X364215Y8242D01*
X364232Y8248D01*
X364260Y8253D01*
X364293Y8259D01*
X364337Y8253D01*
D02*
G37*
G36*
X357855Y9952D02*
X357899Y9935D01*
X357949Y9918D01*
X357955D01*
X357961Y9913D01*
X357994Y9891D01*
X358044Y9863D01*
X358094Y9824D01*
X358138Y9780D01*
X358177Y9741D01*
X358188Y9719D01*
X358194Y9696D01*
Y9674D01*
X358188Y9657D01*
Y9652D01*
X358177Y9641D01*
X358166Y9607D01*
X358144Y9569D01*
X358116Y9508D01*
X358083Y9430D01*
X358066Y9380D01*
X358044Y9330D01*
X358022Y9269D01*
X357994Y9202D01*
Y9197D01*
X357988Y9186D01*
X357983Y9169D01*
X357972Y9141D01*
X357955Y9108D01*
X357944Y9069D01*
X357905Y8975D01*
X357861Y8864D01*
X357805Y8742D01*
X357750Y8603D01*
X357689Y8464D01*
X357694Y8459D01*
X357700Y8448D01*
X357716Y8425D01*
X357739Y8398D01*
X357766Y8364D01*
X357794Y8320D01*
X357866Y8226D01*
X357944Y8109D01*
X358033Y7981D01*
X358116Y7848D01*
X358194Y7715D01*
Y7709D01*
X358205Y7698D01*
X358210Y7682D01*
X358221Y7660D01*
X358255Y7593D01*
X358282Y7510D01*
X358305Y7421D01*
X358321Y7321D01*
Y7227D01*
X358316Y7177D01*
X358299Y7132D01*
X358294Y7121D01*
X358282Y7104D01*
X358255Y7082D01*
X358221Y7071D01*
X358199Y7077D01*
X358172Y7082D01*
X358144Y7099D01*
X358110Y7127D01*
X358072Y7165D01*
X358033Y7215D01*
X357988Y7277D01*
X357944Y7354D01*
Y7360D01*
X357933Y7376D01*
X357922Y7399D01*
X357899Y7432D01*
X357877Y7471D01*
X357855Y7515D01*
X357794Y7615D01*
X357722Y7737D01*
X357650Y7859D01*
X357572Y7981D01*
X357500Y8092D01*
Y8087D01*
X357489Y8076D01*
X357478Y8059D01*
X357461Y8031D01*
X357433Y8004D01*
X357411Y7965D01*
X357339Y7876D01*
X357256Y7776D01*
X357161Y7665D01*
X357050Y7548D01*
X356928Y7426D01*
X356923Y7421D01*
X356912Y7415D01*
X356895Y7399D01*
X356873Y7376D01*
X356839Y7349D01*
X356806Y7321D01*
X356723Y7254D01*
X356623Y7182D01*
X356512Y7110D01*
X356401Y7043D01*
X356284Y6994D01*
X356279D01*
X356273Y6988D01*
X356246Y6982D01*
X356212Y6977D01*
X356190D01*
X356185Y6988D01*
Y6999D01*
X356196Y7016D01*
X356212Y7043D01*
X356246Y7077D01*
X356290Y7116D01*
X356351Y7165D01*
X356423Y7227D01*
X356429Y7232D01*
X356445Y7243D01*
X356468Y7265D01*
X356501Y7293D01*
X356540Y7332D01*
X356590Y7382D01*
X356645Y7438D01*
X356706Y7504D01*
X356773Y7576D01*
X356845Y7660D01*
X356923Y7754D01*
X357000Y7859D01*
X357084Y7970D01*
X357167Y8098D01*
X357250Y8231D01*
X357339Y8375D01*
X357333Y8381D01*
X357322Y8398D01*
X357306Y8425D01*
X357283Y8464D01*
X357256Y8509D01*
X357228Y8559D01*
X357189Y8620D01*
X357150Y8681D01*
X357067Y8814D01*
X356984Y8947D01*
X356901Y9075D01*
X356862Y9136D01*
X356823Y9191D01*
Y9197D01*
X356817Y9202D01*
X356801Y9230D01*
X356784Y9263D01*
X356773Y9297D01*
Y9308D01*
X356778Y9313D01*
X356789D01*
X356812Y9308D01*
X356839Y9291D01*
X356878Y9263D01*
X356923Y9230D01*
X356984Y9180D01*
X356989Y9175D01*
X357000Y9169D01*
X357017Y9152D01*
X357039Y9130D01*
X357100Y9080D01*
X357178Y9008D01*
X357256Y8936D01*
X357333Y8853D01*
X357400Y8775D01*
X357433Y8736D01*
X357455Y8703D01*
Y8708D01*
X357461Y8720D01*
X357472Y8742D01*
X357483Y8764D01*
X357494Y8797D01*
X357511Y8836D01*
X357544Y8925D01*
X357583Y9030D01*
X357622Y9147D01*
X357650Y9263D01*
X357678Y9380D01*
Y9386D01*
Y9391D01*
X357683Y9408D01*
X357689Y9430D01*
X357694Y9485D01*
X357705Y9552D01*
X357711Y9630D01*
Y9713D01*
Y9785D01*
X357700Y9857D01*
Y9863D01*
Y9885D01*
X357705Y9907D01*
X357716Y9929D01*
X357744Y9952D01*
X357788Y9957D01*
X357822D01*
X357855Y9952D01*
D02*
G37*
%LPC*%
G36*
X364315Y10201D02*
X364299D01*
X364271Y10196D01*
X364232Y10190D01*
X364177Y10179D01*
X364138Y10174D01*
X364093Y10163D01*
X364049Y10151D01*
X363993Y10140D01*
X363932Y10124D01*
X363866Y10107D01*
X363860D01*
X363849Y10102D01*
X363827Y10096D01*
X363794Y10090D01*
X363755Y10079D01*
X363710Y10074D01*
X363649Y10057D01*
X363588Y10046D01*
X363511Y10029D01*
X363427Y10013D01*
X363338Y9996D01*
X363239Y9979D01*
X363128Y9957D01*
X363005Y9940D01*
X362883Y9918D01*
X362745Y9896D01*
Y9891D01*
Y9885D01*
X362739Y9868D01*
Y9846D01*
X362728Y9791D01*
X362717Y9713D01*
X362706Y9619D01*
X362689Y9508D01*
X362672Y9391D01*
X362656Y9263D01*
X362672D01*
X362695Y9269D01*
X362717D01*
X362750Y9274D01*
X362789Y9280D01*
X362883Y9297D01*
X362994Y9313D01*
X363111Y9330D01*
X363239Y9352D01*
X363366Y9380D01*
X363372D01*
X363383Y9386D01*
X363400D01*
X363427Y9397D01*
X363466Y9402D01*
X363505Y9413D01*
X363555Y9424D01*
X363611Y9436D01*
X363677Y9452D01*
X363749Y9469D01*
X363827Y9485D01*
X363910Y9508D01*
X363999Y9530D01*
X364099Y9558D01*
X364204Y9585D01*
X364315Y9613D01*
Y9619D01*
X364321Y9630D01*
Y9646D01*
X364326Y9669D01*
X364337Y9724D01*
X364354Y9791D01*
X364365Y9863D01*
X364376Y9940D01*
X364382Y10007D01*
X364387Y10057D01*
Y10063D01*
Y10079D01*
X364382Y10102D01*
X364376Y10129D01*
X364371Y10157D01*
X364360Y10179D01*
X364337Y10196D01*
X364315Y10201D01*
D02*
G37*
G36*
X380105Y10096D02*
X380077D01*
X380055Y10090D01*
X380000Y10085D01*
X379933Y10063D01*
X379855Y10029D01*
X379767Y9979D01*
X379722Y9940D01*
X379678Y9902D01*
X379639Y9857D01*
X379594Y9802D01*
Y9796D01*
X379583Y9785D01*
X379572Y9769D01*
X379561Y9746D01*
X379539Y9713D01*
X379522Y9674D01*
X379500Y9624D01*
X379472Y9569D01*
X379450Y9508D01*
X379428Y9436D01*
X379400Y9358D01*
X379378Y9274D01*
X379356Y9180D01*
X379334Y9080D01*
X379317Y8969D01*
X379300Y8853D01*
Y8847D01*
Y8825D01*
X379295Y8792D01*
X379289Y8742D01*
Y8686D01*
X379284Y8625D01*
Y8547D01*
X379278Y8470D01*
Y8381D01*
Y8292D01*
X379289Y8098D01*
X379311Y7898D01*
X379345Y7704D01*
Y7698D01*
X379350Y7682D01*
X379356Y7654D01*
X379367Y7621D01*
X379384Y7582D01*
X379400Y7537D01*
X379439Y7426D01*
X379495Y7310D01*
X379561Y7193D01*
X379639Y7082D01*
X379683Y7038D01*
X379733Y6994D01*
X379739D01*
X379744Y6982D01*
X379761Y6977D01*
X379778Y6960D01*
X379833Y6932D01*
X379905Y6905D01*
X379989Y6882D01*
X380077Y6871D01*
X380127D01*
X380177Y6877D01*
X380233Y6888D01*
X380283Y6910D01*
X380288D01*
X380294Y6916D01*
X380327Y6938D01*
X380377Y6971D01*
X380438Y7021D01*
X380510Y7093D01*
X380577Y7182D01*
X380610Y7232D01*
X380638Y7288D01*
X380666Y7354D01*
X380693Y7421D01*
Y7426D01*
X380699Y7438D01*
X380704Y7460D01*
X380716Y7487D01*
X380721Y7526D01*
X380732Y7571D01*
X380743Y7615D01*
X380760Y7671D01*
X380782Y7798D01*
X380799Y7942D01*
X380816Y8098D01*
X380821Y8264D01*
Y8270D01*
Y8287D01*
Y8309D01*
Y8342D01*
Y8381D01*
Y8431D01*
Y8481D01*
X380816Y8542D01*
Y8670D01*
X380810Y8808D01*
X380799Y8953D01*
X380788Y9097D01*
Y9103D01*
Y9114D01*
X380782Y9136D01*
Y9164D01*
X380777Y9191D01*
X380766Y9230D01*
X380749Y9324D01*
X380721Y9430D01*
X380682Y9546D01*
X380638Y9663D01*
X380577Y9780D01*
Y9785D01*
X380571Y9791D01*
X380543Y9830D01*
X380505Y9879D01*
X380449Y9935D01*
X380383Y9990D01*
X380305Y10040D01*
X380210Y10079D01*
X380161Y10090D01*
X380105Y10096D01*
D02*
G37*
%LPD*%
D48*
X41180Y25585D02*
G03*
X41180Y25585I-492J0D01*
G01*
X123105Y63300D02*
G03*
X123105Y63300I-492J0D01*
G01*
X344545Y56796D02*
G03*
X344545Y56796I-492J0D01*
G01*
D49*
X42842Y32616D02*
G03*
X42842Y37116I-248J2250D01*
G01*
X-3817Y34619D02*
G03*
X-2703Y34158I1114J1114D01*
G01*
X15014Y24315D02*
G03*
X14226Y23528I0J-787D01*
G01*
X-2981Y35454D02*
G03*
X-2703Y35339I278J278D01*
G01*
X2021Y31894D02*
G03*
X1628Y31501I0J-394D01*
G01*
X3596D02*
G03*
X3202Y31894I-394J0D01*
G01*
X7336Y30713D02*
G03*
X6943Y31107I-394J0D01*
G01*
Y28745D02*
G03*
X7336Y29138I0J394D01*
G01*
X3202Y27957D02*
G03*
X3596Y28351I0J394D01*
G01*
X1628D02*
G03*
X2021Y27957I394J0D01*
G01*
X13439Y26481D02*
G03*
X13833Y26087I394J0D01*
G01*
Y32386D02*
G03*
X13439Y31993I0J-394D01*
G01*
X15407D02*
G03*
X15014Y32386I-394J0D01*
G01*
X3596Y30418D02*
G03*
X3990Y30024I394J0D01*
G01*
X4384D02*
G03*
X4777Y30418I0J394D01*
G01*
X-2506Y32780D02*
G03*
X-2309Y32977I0J197D01*
G01*
X-4672Y28982D02*
G03*
X-4687Y28973I5119J-8407D01*
G01*
Y12178D02*
G03*
X-4672Y12168I5134J8398D01*
G01*
X14226Y17623D02*
G03*
X15014Y16835I787J0D01*
G01*
X13833Y15063D02*
G03*
X13439Y14670I0J-394D01*
G01*
X-2703Y6993D02*
G03*
X-3817Y6531I0J-1575D01*
G01*
X2021Y13193D02*
G03*
X1628Y12800I0J-394D01*
G01*
X3596D02*
G03*
X3202Y13193I-394J0D01*
G01*
Y9256D02*
G03*
X3596Y9650I0J394D01*
G01*
X1628D02*
G03*
X2021Y9256I394J0D01*
G01*
X4777Y10733D02*
G03*
X4384Y11126I-394J0D01*
G01*
X3990D02*
G03*
X3596Y10733I0J-394D01*
G01*
X-2703Y5812D02*
G03*
X-2981Y5696I0J-394D01*
G01*
X-2309Y8174D02*
G03*
X-2506Y8371I-197J0D01*
G01*
X7336Y12012D02*
G03*
X6943Y12406I-394J0D01*
G01*
Y10044D02*
G03*
X7336Y10437I0J394D01*
G01*
X15014Y8764D02*
G03*
X15407Y9158I0J394D01*
G01*
X13439D02*
G03*
X13833Y8764I394J0D01*
G01*
X-2766Y7063D02*
G03*
X-3880Y6602I0J-1575D01*
G01*
X-2766Y5882D02*
G03*
X-3044Y5767I0J-394D01*
G01*
X-2372Y8244D02*
G03*
X-2569Y8441I-197J0D01*
G01*
X-2372Y9622D02*
G03*
X-2569Y9819I-197J0D01*
G01*
X-3880Y34690D02*
G03*
X-2766Y34228I1114J1114D01*
G01*
X-3044Y35525D02*
G03*
X-2766Y35410I278J278D01*
G01*
X-2569Y32850D02*
G03*
X-2372Y33047I0J197D01*
G01*
X-2569Y31472D02*
G03*
X-2372Y31669I0J197D01*
G01*
X10567Y26151D02*
Y29891D01*
X8599Y27922D02*
X12536D01*
X6016Y3316D02*
Y5812D01*
X4835Y3316D02*
X6016D01*
X4835D02*
Y5678D01*
X6016Y3316D02*
X7197D01*
Y5812D01*
Y35339D02*
Y37962D01*
X6016D02*
X7197D01*
X4835Y35599D02*
Y37962D01*
X6016D01*
Y35339D02*
Y37962D01*
X-4671Y8764D02*
Y32386D01*
X-3836Y8764D02*
Y32386D01*
X-2981Y8371D02*
Y32780D01*
X-2703Y8371D02*
Y32780D01*
X-2506Y34158D02*
Y35339D01*
Y5812D02*
Y6993D01*
X-2309Y5812D02*
Y7386D01*
Y33764D01*
Y35339D01*
X-341Y28745D02*
Y31107D01*
Y10044D02*
Y12406D01*
X-170Y10044D02*
Y12406D01*
Y28745D02*
Y31107D01*
X310Y10044D02*
Y12406D01*
Y28745D02*
Y31107D01*
X579Y10044D02*
Y12406D01*
Y28745D02*
Y31107D01*
X1431Y10044D02*
Y12406D01*
Y28745D02*
Y31107D01*
X1628D02*
Y31501D01*
Y28351D02*
Y28745D01*
Y12406D02*
Y12800D01*
Y9650D02*
Y10044D01*
X3596Y12406D02*
Y12800D01*
Y28351D02*
Y28745D01*
Y30418D02*
Y31501D01*
Y9650D02*
Y10733D01*
X4777Y10044D02*
Y10733D01*
Y30418D02*
Y31107D01*
X7336Y10437D02*
Y12012D01*
Y29138D02*
Y30713D01*
X13439Y26481D02*
Y31993D01*
Y9158D02*
Y14670D01*
X14226Y17623D02*
Y23528D01*
X15216Y27662D02*
Y31971D01*
Y9179D02*
Y13489D01*
X15407Y9158D02*
Y11379D01*
Y29771D02*
Y31993D01*
X15413Y11385D02*
Y13489D01*
Y27662D02*
Y29765D01*
X15801Y24315D02*
Y26087D01*
Y15063D02*
Y16835D01*
X15807D02*
Y24315D01*
X15807Y26087D02*
Y27662D01*
X15807Y13489D02*
Y15063D01*
X16195Y26087D02*
Y28734D01*
Y16835D02*
Y24315D01*
Y12417D02*
Y15063D01*
X17376Y5812D02*
Y35339D01*
X17381Y20182D02*
Y20969D01*
Y30024D02*
Y34158D01*
Y26087D02*
Y26875D01*
Y24119D02*
Y24906D01*
Y22150D02*
Y22938D01*
Y18213D02*
Y19001D01*
Y16245D02*
Y17032D01*
Y14276D02*
Y15063D01*
Y6993D02*
Y11126D01*
X-4671Y35474D02*
X-3836Y36309D01*
X-4393Y35196D02*
X-3558Y36031D01*
X-4671Y5676D02*
X-3817Y6531D01*
X-3836Y4841D02*
X-2981Y5696D01*
X15407Y11379D02*
X15413Y11385D01*
X15346Y9472D02*
X15407Y9527D01*
X-2703Y35339D02*
X17376D01*
X-2703Y34158D02*
X-2309D01*
Y33764D02*
X17376D01*
X-4393Y32780D02*
X-2506D01*
X13833Y32386D02*
X15014D01*
X-4671D02*
X-3836D01*
X15216Y31971D02*
X15407D01*
X2021Y31894D02*
X3202D01*
X15407Y31796D02*
X17376D01*
X15346Y31678D02*
X15407D01*
X3596Y31107D02*
X6943D01*
X-341D02*
X1628D01*
X15407Y30682D02*
X17376D01*
X4777Y30516D02*
X7336D01*
X3990Y30024D02*
X4384D01*
X-341Y28745D02*
X1628D01*
X3596D02*
X6943D01*
X16195Y28734D02*
X17376D01*
X16195Y28056D02*
X17376D01*
X2021Y27957D02*
X3202D01*
X15216Y27662D02*
X15807D01*
X15807Y26875D02*
X16195D01*
X13833Y26087D02*
X17376D01*
X15014Y24315D02*
X17376D01*
X15807Y24119D02*
X16195D01*
Y23528D02*
X17376D01*
X15807Y22938D02*
X16195D01*
X15807Y22150D02*
X16195D01*
X15807Y20969D02*
X16195D01*
X15807Y20182D02*
X16195D01*
X15807Y19001D02*
X16195D01*
X15807Y18213D02*
X16195D01*
Y17623D02*
X17376D01*
X15807Y17032D02*
X16195D01*
X15014Y16835D02*
X17376D01*
X13833Y15063D02*
X17376D01*
X15807Y14276D02*
X16195D01*
X15216Y13489D02*
X15807D01*
X2021Y13193D02*
X3202D01*
X16195Y13095D02*
X17376D01*
X16195Y12417D02*
X17376D01*
X3596Y12406D02*
X6943D01*
X-341D02*
X1628D01*
X3990Y11126D02*
X4384D01*
X4777Y10634D02*
X7336D01*
X15407Y10468D02*
X17376D01*
X-341Y10044D02*
X1628D01*
X3596D02*
X6943D01*
X15346Y9472D02*
X15407D01*
Y9355D02*
X17376D01*
X2021Y9256D02*
X3202D01*
X15216Y9179D02*
X15407D01*
X-4671Y8764D02*
X-3836D01*
X13833D02*
X15014D01*
X-4393Y8371D02*
X-2506D01*
X-2309Y7386D02*
X17376D01*
X-2703Y6993D02*
X-2309D01*
X-2703Y5812D02*
X17376D01*
X15346Y31678D02*
X15407Y31624D01*
Y29771D02*
X15413Y29765D01*
X-3836Y36309D02*
X-2981Y35454D01*
X-4671Y35474D02*
X-3817Y34619D01*
X-4393Y5955D02*
X-3558Y5120D01*
X-4671Y5676D02*
X-3836Y4841D01*
X-4735Y8835D02*
Y12274D01*
Y29017D02*
Y32457D01*
X-3899Y10213D02*
Y11799D01*
Y29492D02*
Y31079D01*
X-3880Y8441D02*
Y9819D01*
Y31472D02*
Y32850D01*
X-3044Y9819D02*
Y11445D01*
Y29846D02*
Y31472D01*
X-2766Y29962D02*
Y32850D01*
Y8441D02*
Y11330D01*
X-2569Y5882D02*
Y7063D01*
Y34228D02*
Y35410D01*
X-2372Y35224D02*
Y35410D01*
Y33807D02*
Y35224D01*
Y30075D02*
Y32417D01*
Y8874D02*
Y11216D01*
Y7485D02*
Y8874D01*
Y6067D02*
Y7485D01*
Y5882D02*
Y6067D01*
Y32417D02*
Y33807D01*
X-4735Y5747D02*
X-3899Y4912D01*
X-4456Y6025D02*
X-3621Y5190D01*
X-4735Y35545D02*
X-3880Y34690D01*
X-3899Y36380D02*
X-3044Y35525D01*
X-2766Y5882D02*
X-404D01*
X-2372Y6067D02*
X-404D01*
X-2766Y7063D02*
X-2372D01*
Y7485D02*
X-404D01*
X-4456Y8441D02*
X-2569D01*
X-2372Y8874D02*
X-404D01*
X-4456Y9819D02*
X-2569D01*
X-4735Y10213D02*
X-3899D01*
X-4735Y31079D02*
X-3899D01*
X-4456Y31472D02*
X-2569D01*
X-2372Y32417D02*
X-404D01*
X-4456Y32850D02*
X-2569D01*
X-2372Y33807D02*
X-404D01*
X-2766Y34228D02*
X-2372D01*
Y35224D02*
X-404D01*
X-2766Y35410D02*
X-404D01*
X-3899Y4912D02*
X-3044Y5767D01*
X-4735Y5747D02*
X-3880Y6602D01*
X-4456Y35266D02*
X-3621Y36101D01*
X-4735Y35545D02*
X-3899Y36380D01*
D50*
X47967Y9474D02*
G03*
X47990Y15610I-5038J3087D01*
G01*
X36383Y15614D02*
G03*
X36544Y9377I5097J-2989D01*
G01*
X177919Y18946D02*
G03*
X177919Y18946I-394J0D01*
G01*
X229233Y44256D02*
G03*
X235237Y44256I3002J3002D01*
G01*
X27676Y56453D02*
G03*
X33913Y56614I2989J5097D01*
G01*
X33816Y68037D02*
G03*
X27680Y68060I-3087J-5038D01*
G01*
X37204Y32397D02*
G03*
X30967Y32236I-2989J-5097D01*
G01*
X31064Y20812D02*
G03*
X37200Y20790I3087J5038D01*
G01*
X61656Y54173D02*
G03*
X67893Y54334I2989J5097D01*
G01*
X67796Y65758D02*
G03*
X61660Y65780I-3087J-5038D01*
G01*
X205173Y39596D02*
G03*
X205012Y45833I-5097J2989D01*
G01*
X193588Y45736D02*
G03*
X193565Y39600I5038J-3087D01*
G01*
X92618Y56259D02*
G03*
X92618Y49369I3445J-3445D01*
G01*
X106791D02*
G03*
X106791Y56259I-3445J3445D01*
G01*
X85650Y50137D02*
G03*
X85650Y50137I-394J0D01*
G01*
X142762Y14793D02*
G03*
X142762Y9851I3706J-2471D01*
G01*
X152998D02*
G03*
X152998Y14793I-3706J2471D01*
G01*
X131727Y18881D02*
G03*
X137863Y18858I3087J5038D01*
G01*
X137867Y30466D02*
G03*
X131630Y30305I-2989J-5097D01*
G01*
X166563Y3611D02*
G03*
X171505Y3611I2471J3706D01*
G01*
Y13847D02*
G03*
X166563Y13847I-2471J-3706D01*
G01*
X179025D02*
G03*
X174084Y13847I-2471J-3706D01*
G01*
Y3611D02*
G03*
X179025Y3611I2471J3706D01*
G01*
X187411Y13847D02*
G03*
X182469Y13847I-2471J-3706D01*
G01*
Y3611D02*
G03*
X187411Y3611I2471J3706D01*
G01*
X205143Y47984D02*
G03*
X205166Y54120I-5038J3087D01*
G01*
X193558Y54124D02*
G03*
X193719Y47887I5097J-2989D01*
G01*
X241633Y58084D02*
G03*
X241655Y64220I-5038J3087D01*
G01*
X230048Y64224D02*
G03*
X230209Y57987I5097J-2989D01*
G01*
X317750Y52266D02*
G03*
X317750Y52266I-394J0D01*
G01*
X290497Y24461D02*
G03*
X290497Y19519I3706J-2471D01*
G01*
X300734D02*
G03*
X300734Y24461I-3706J2471D01*
G01*
X331498Y23035D02*
G03*
X331498Y27976I-3706J2471D01*
G01*
X321262D02*
G03*
X321262Y23035I3706J-2471D01*
G01*
X345435Y23029D02*
G03*
X345435Y27970I-3706J2471D01*
G01*
X335199D02*
G03*
X335199Y23029I3706J-2471D01*
G01*
X343049Y48003D02*
G03*
X343049Y45116I0J-1444D01*
G01*
X72822Y45481D02*
G03*
X72822Y40539I3706J-2471D01*
G01*
X83058D02*
G03*
X83058Y45481I-3706J2471D01*
G01*
X70068Y25764D02*
Y31276D01*
X81092D01*
Y25764D02*
Y31276D01*
X70068Y25764D02*
X81092D01*
X53492Y68374D02*
Y73886D01*
X42469Y68374D02*
X53492D01*
X42469D02*
Y73886D01*
X53492D01*
X42469Y60754D02*
Y66266D01*
X53492D01*
Y60754D02*
Y66266D01*
X42469Y60754D02*
X53492D01*
X42469Y52774D02*
Y58286D01*
X53492D01*
Y52774D02*
Y58286D01*
X42469Y52774D02*
X53492D01*
X60664Y15722D02*
X66176D01*
Y4698D02*
Y15722D01*
X60664Y4698D02*
X66176D01*
X60664D02*
Y15722D01*
X31344Y48532D02*
X36856D01*
Y37508D02*
Y48532D01*
X31344Y37508D02*
X36856D01*
X31344D02*
Y48532D01*
X235237Y44256D02*
X239919D01*
X224295D02*
X229233D01*
X224171Y16165D02*
X239919D01*
Y44256D01*
X224171Y16165D02*
Y44256D01*
X194755Y31073D02*
X205779D01*
Y36585D01*
X194755D02*
X205779D01*
X194755Y31073D02*
Y36585D01*
X72353Y72314D02*
X83376D01*
X72353Y66802D02*
Y72314D01*
Y66802D02*
X83376D01*
Y72314D01*
X381160Y17222D02*
Y67576D01*
X391160D01*
Y17222D02*
Y67576D01*
X381160Y17104D02*
X391160D01*
X2893Y54929D02*
Y72251D01*
X10767D01*
Y54929D02*
Y72251D01*
X2893Y54929D02*
X10767D01*
X196666Y76127D02*
X221469D01*
X196666Y61953D02*
X221469D01*
X196666Y72780D02*
Y76127D01*
Y61953D02*
Y65300D01*
X221469Y72583D02*
Y75930D01*
Y62150D02*
Y65497D01*
X104336Y66802D02*
Y72314D01*
X93313Y66802D02*
X104336D01*
X93313D02*
Y72314D01*
X104336D01*
X93353Y59308D02*
Y64820D01*
X104376D01*
Y59308D02*
Y64820D01*
X93353Y59308D02*
X104376D01*
X92618Y56259D02*
X97996D01*
X92618Y49369D02*
X97996D01*
X101413Y56259D02*
X106791D01*
X101413Y49369D02*
X106791D01*
X52134Y4598D02*
X57646D01*
X52134D02*
Y15622D01*
X57646D01*
Y4598D02*
Y15622D01*
X125368Y39520D02*
Y67080D01*
Y39520D02*
X152140D01*
X125368Y67080D02*
X152534D01*
X142762Y9851D02*
X146699D01*
X142762Y14793D02*
X146699D01*
X149061Y9851D02*
X152998D01*
X149061Y14793D02*
X152998D01*
X142564Y17670D02*
Y23182D01*
X153588D01*
Y17670D02*
Y23182D01*
X142564Y17670D02*
X153588D01*
X142569Y25896D02*
Y31408D01*
X153592D01*
Y25896D02*
Y31408D01*
X142569Y25896D02*
X153592D01*
X171505Y3611D02*
Y7548D01*
X166563Y3611D02*
Y7548D01*
X171505Y9910D02*
Y13847D01*
X166563Y9910D02*
Y13847D01*
X174084Y9910D02*
Y13847D01*
X179025Y9910D02*
Y13847D01*
X174084Y3611D02*
Y7548D01*
X179025Y3611D02*
Y7548D01*
X182469Y9910D02*
Y13847D01*
X187411Y9910D02*
Y13847D01*
X182469Y3611D02*
Y7548D01*
X187411Y3611D02*
Y7548D01*
X194755Y5930D02*
Y11442D01*
X205779D01*
Y5930D02*
Y11442D01*
X194755Y5930D02*
X205779D01*
X194755Y13940D02*
Y19452D01*
X205779D01*
Y13940D02*
Y19452D01*
X194755Y13940D02*
X205779D01*
Y22180D02*
Y27692D01*
X194755Y22180D02*
X205779D01*
X194755D02*
Y27692D01*
X205779D01*
X271975Y64367D02*
X284573D01*
X271975Y56886D02*
X284573D01*
X277093Y59248D02*
Y62398D01*
X271975Y56886D02*
Y64367D01*
X284573Y56886D02*
Y64367D01*
X283786Y56886D02*
Y64367D01*
X277093Y62398D02*
X278667Y60823D01*
X277093Y59248D02*
X278668Y60823D01*
X271975Y49126D02*
X284573D01*
X271975Y41646D02*
X284573D01*
X277093Y44008D02*
Y47158D01*
X271975Y41646D02*
Y49126D01*
X284573Y41646D02*
Y49126D01*
X283786Y41646D02*
Y49126D01*
X277093Y47158D02*
X278667Y45583D01*
X277093Y44008D02*
X278668Y45583D01*
X271975Y34044D02*
X284573D01*
X271975Y26564D02*
X284573D01*
X277093Y28926D02*
Y32076D01*
X271975Y26564D02*
Y34044D01*
X284573Y26564D02*
Y34044D01*
X283786Y26564D02*
Y34044D01*
X277093Y32076D02*
X278667Y30501D01*
X277093Y28926D02*
X278668Y30501D01*
X271975Y19117D02*
X284573D01*
X271975Y11636D02*
X284573D01*
X277093Y13998D02*
Y17148D01*
X271975Y11636D02*
Y19117D01*
X284573Y11636D02*
Y19117D01*
X283786Y11636D02*
Y19117D01*
X277093Y17148D02*
X278667Y15573D01*
X277093Y13998D02*
X278668Y15573D01*
X256706Y59520D02*
Y65032D01*
X267729D01*
Y59520D02*
Y65032D01*
X256706Y59520D02*
X267729D01*
X256706Y51802D02*
Y57314D01*
X267729D01*
Y51802D02*
Y57314D01*
X256706Y51802D02*
X267729D01*
X256706Y44382D02*
Y49894D01*
X267729D01*
Y44382D02*
Y49894D01*
X256706Y44382D02*
X267729D01*
X256706Y36852D02*
Y42364D01*
X267729D01*
Y36852D02*
Y42364D01*
X256706Y36852D02*
X267729D01*
X256706Y29432D02*
Y34944D01*
X267729D01*
Y29432D02*
Y34944D01*
X256706Y29432D02*
X267729D01*
X256706Y21532D02*
Y27044D01*
X267729D01*
Y21532D02*
Y27044D01*
X256706Y21532D02*
X267729D01*
X256706Y14212D02*
Y19724D01*
X267729D01*
Y14212D02*
Y19724D01*
X256706Y14212D02*
X267729D01*
X256706Y6382D02*
Y11893D01*
X267729D01*
Y6382D02*
Y11893D01*
X256706Y6382D02*
X267729D01*
X293646Y44396D02*
X299158D01*
X293646D02*
Y55419D01*
X299158D01*
Y44396D02*
Y55419D01*
X289684Y27394D02*
Y32906D01*
X300707D01*
Y27394D02*
Y32906D01*
X289684Y27394D02*
X300707D01*
X290497Y19519D02*
X294434D01*
X290497Y24461D02*
X294434D01*
X296797Y19519D02*
X300734D01*
X296797Y24461D02*
X300734D01*
X303754Y27334D02*
Y32846D01*
X314777D01*
Y27334D02*
Y32846D01*
X303754Y27334D02*
X314777D01*
Y19324D02*
Y24836D01*
X303754Y19324D02*
X314777D01*
X303754D02*
Y24836D01*
X314777D01*
X327561Y27976D02*
X331498D01*
X327561Y23035D02*
X331498D01*
X321262Y27976D02*
X325199D01*
X321262Y23035D02*
X325199D01*
X341498Y27970D02*
X345435D01*
X341498Y23029D02*
X345435D01*
X335199Y27970D02*
X339136D01*
X335199Y23029D02*
X339136D01*
X343049Y48003D02*
Y50890D01*
Y42229D02*
Y45116D01*
X323364Y42229D02*
Y50890D01*
X343049D01*
X323364Y42229D02*
X343049D01*
X350073Y51332D02*
Y56844D01*
X361097D01*
Y51332D02*
Y56844D01*
X350073Y51332D02*
X361097D01*
X360947Y42072D02*
Y47584D01*
X349923Y42072D02*
X360947D01*
X349923D02*
Y47584D01*
X360947D01*
X349801Y33550D02*
Y39062D01*
X360825D01*
Y33550D02*
Y39062D01*
X349801Y33550D02*
X360825D01*
X72822Y40539D02*
X76759D01*
X72822Y45481D02*
X76759D01*
X79121Y40539D02*
X83058D01*
X79121Y45481D02*
X83058D01*
D51*
X233467Y70688D02*
G03*
X233467Y70688I-2756J0D01*
G01*
X244182D02*
G03*
X244182Y70688I-2756J0D01*
G01*
X254897D02*
G03*
X254897Y70688I-2756J0D01*
G01*
X265612D02*
G03*
X265612Y70688I-2756J0D01*
G01*
X276327D02*
G03*
X276327Y70688I-2756J0D01*
G01*
D52*
X62342Y27616D02*
Y42116D01*
X42342D02*
X62342D01*
X42342Y37116D02*
Y42116D01*
Y27616D02*
Y32616D01*
Y27616D02*
X62342D01*
X175461Y62091D02*
X178139D01*
X167154Y62248D02*
X170186D01*
X170580Y62287D02*
X175343Y58311D01*
Y66106D01*
X170580Y62287D02*
X175343Y66106D01*
X170186Y58547D02*
Y66185D01*
X159713Y57209D02*
Y67169D01*
Y57209D02*
X185698D01*
Y67169D01*
X159713D02*
X185698D01*
X327747Y15275D02*
X330424D01*
X335699Y15117D02*
X338731D01*
X330542Y19054D02*
X335306Y15078D01*
X330542Y11259D02*
Y19054D01*
Y11259D02*
X335306Y15078D01*
X335699Y11180D02*
Y18818D01*
X346172Y10196D02*
Y20157D01*
X320188D02*
X346172D01*
X320188Y10196D02*
Y20157D01*
Y10196D02*
X346172D01*
D53*
X42342Y37116D02*
X42842D01*
X42342Y32616D02*
X42842D01*
D54*
X36540Y9396D02*
X40912D01*
X43618Y9374D02*
X47940D01*
X43568Y15646D02*
X47990D01*
X36440D02*
X40812D01*
X70397Y3194D02*
Y23383D01*
X87397D01*
X70397Y3194D02*
X87397D01*
Y23383D01*
X87867Y28312D02*
X108056D01*
X87867D02*
Y45312D01*
X108056Y28312D02*
Y45312D01*
X87867D02*
X108056D01*
X169876Y19131D02*
X176175D01*
Y30549D01*
X169876Y19131D02*
Y30549D01*
X176175D01*
X27644Y56510D02*
Y60882D01*
Y63638D02*
Y68060D01*
X33916Y63688D02*
Y68010D01*
X33894Y56610D02*
Y60982D01*
X37236Y27968D02*
Y32340D01*
Y20790D02*
Y25212D01*
X30964Y20840D02*
Y25162D01*
X30986Y27868D02*
Y32240D01*
X61624Y54230D02*
Y58602D01*
Y61358D02*
Y65780D01*
X67896Y61408D02*
Y65730D01*
X67874Y54330D02*
Y58702D01*
X200744Y39564D02*
X205116D01*
X193565D02*
X197988D01*
X193615Y45836D02*
X197938D01*
X200643Y45814D02*
X205015D01*
X77607Y61739D02*
X83906D01*
X77607Y50322D02*
Y61739D01*
X83906Y50322D02*
Y61739D01*
X77607Y50322D02*
X83906D01*
X163063Y52997D02*
X183252D01*
Y35997D02*
Y52997D01*
X163063Y35997D02*
Y52997D01*
Y35997D02*
X183252D01*
X131649Y25936D02*
Y30308D01*
X131627Y18909D02*
Y23231D01*
X137899Y18858D02*
Y23281D01*
Y26037D02*
Y30408D01*
X193716Y47906D02*
X198088D01*
X200794Y47884D02*
X205116D01*
X200744Y54156D02*
X205166D01*
X193615D02*
X197988D01*
X230205Y58006D02*
X234578D01*
X237283Y57984D02*
X241605D01*
X237233Y64256D02*
X241655D01*
X230105D02*
X234478D01*
X305754Y44616D02*
Y50915D01*
Y44616D02*
X317171D01*
X305754Y50915D02*
X317171D01*
Y44616D02*
Y50915D01*
D55*
X38741Y28071D02*
X40709D01*
X41102Y28464D01*
Y29252D01*
X40709Y29645D01*
X38741D01*
X41102Y31613D02*
X38741D01*
X39922Y30432D01*
Y32007D01*
X89606Y48582D02*
Y46220D01*
X91181D01*
X91968D02*
X92755D01*
X92361D01*
Y48582D01*
X91968Y48188D01*
X164904Y35687D02*
Y33719D01*
X165298Y33326D01*
X166085D01*
X166479Y33719D01*
Y35687D01*
X167266Y35294D02*
X167659Y35687D01*
X168447D01*
X168840Y35294D01*
Y34900D01*
X168447Y34506D01*
X168053D01*
X168447D01*
X168840Y34113D01*
Y33719D01*
X168447Y33326D01*
X167659D01*
X167266Y33719D01*
X63779Y27441D02*
Y29802D01*
X64960D01*
X65354Y29409D01*
Y28622D01*
X64960Y28228D01*
X63779D01*
X64567D02*
X65354Y27441D01*
X66141Y29409D02*
X66535Y29802D01*
X67322D01*
X67715Y29409D01*
Y29015D01*
X67322Y28622D01*
X66928D01*
X67322D01*
X67715Y28228D01*
Y27834D01*
X67322Y27441D01*
X66535D01*
X66141Y27834D01*
X68502Y27441D02*
X69290D01*
X68896D01*
Y29802D01*
X68502Y29409D01*
X60827Y16890D02*
Y19251D01*
X62007D01*
X62401Y18858D01*
Y18070D01*
X62007Y17677D01*
X60827D01*
X61614D02*
X62401Y16890D01*
X63188Y18858D02*
X63582Y19251D01*
X64369D01*
X64763Y18858D01*
Y18464D01*
X64369Y18070D01*
X63975D01*
X64369D01*
X64763Y17677D01*
Y17283D01*
X64369Y16890D01*
X63582D01*
X63188Y17283D01*
X65550Y18858D02*
X65943Y19251D01*
X66730D01*
X67124Y18858D01*
Y17283D01*
X66730Y16890D01*
X65943D01*
X65550Y17283D01*
Y18858D01*
X30342Y37393D02*
X27980D01*
Y38573D01*
X28374Y38967D01*
X29161D01*
X29554Y38573D01*
Y37393D01*
Y38180D02*
X30342Y38967D01*
Y41328D02*
Y39754D01*
X28767Y41328D01*
X28374D01*
X27980Y40935D01*
Y40148D01*
X28374Y39754D01*
X29948Y42116D02*
X30342Y42509D01*
Y43296D01*
X29948Y43690D01*
X28374D01*
X27980Y43296D01*
Y42509D01*
X28374Y42116D01*
X28767D01*
X29161Y42509D01*
Y43690D01*
X35118Y69961D02*
Y72322D01*
X36299D01*
X36692Y71929D01*
Y71141D01*
X36299Y70748D01*
X35118D01*
X35905D02*
X36692Y69961D01*
X39054D02*
X37480D01*
X39054Y71535D01*
Y71929D01*
X38660Y72322D01*
X37873D01*
X37480Y71929D01*
X39841D02*
X40235Y72322D01*
X41022D01*
X41415Y71929D01*
Y71535D01*
X41022Y71141D01*
X41415Y70748D01*
Y70354D01*
X41022Y69961D01*
X40235D01*
X39841Y70354D01*
Y70748D01*
X40235Y71141D01*
X39841Y71535D01*
Y71929D01*
X40235Y71141D02*
X41022D01*
X34961Y54409D02*
Y56771D01*
X36141D01*
X36535Y56377D01*
Y55590D01*
X36141Y55197D01*
X34961D01*
X35748D02*
X36535Y54409D01*
X38896D02*
X37322D01*
X38896Y55984D01*
Y56377D01*
X38503Y56771D01*
X37716D01*
X37322Y56377D01*
X39683Y56771D02*
X41258D01*
Y56377D01*
X39683Y54803D01*
Y54409D01*
X35315Y62362D02*
Y64724D01*
X36496D01*
X36889Y64330D01*
Y63543D01*
X36496Y63149D01*
X35315D01*
X36102D02*
X36889Y62362D01*
X39251D02*
X37676D01*
X39251Y63937D01*
Y64330D01*
X38857Y64724D01*
X38070D01*
X37676Y64330D01*
X41612Y64724D02*
X40825Y64330D01*
X40038Y63543D01*
Y62756D01*
X40431Y62362D01*
X41219D01*
X41612Y62756D01*
Y63149D01*
X41219Y63543D01*
X40038D01*
X90836Y23180D02*
X88475D01*
Y21606D01*
X90442Y20818D02*
X90836Y20425D01*
Y19638D01*
X90442Y19244D01*
X90049D01*
X89655Y19638D01*
Y20031D01*
Y19638D01*
X89262Y19244D01*
X88868D01*
X88475Y19638D01*
Y20425D01*
X88868Y20818D01*
X37787Y18592D02*
X37393Y18986D01*
X36606D01*
X36213Y18592D01*
Y17018D01*
X36606Y16624D01*
X37393D01*
X37787Y17018D01*
X38574Y16624D02*
X39361D01*
X38967D01*
Y18986D01*
X38574Y18592D01*
X40542Y18986D02*
X42116D01*
Y18592D01*
X40542Y17018D01*
Y16624D01*
X12971Y41645D02*
X13365Y42039D01*
Y42826D01*
X12971Y43220D01*
X11397D01*
X11003Y42826D01*
Y42039D01*
X11397Y41645D01*
X11003Y40858D02*
X13365D01*
X11003Y39284D01*
X13365D01*
X11003Y38497D02*
Y37710D01*
Y38103D01*
X13365D01*
X12971Y38497D01*
X218204Y49387D02*
Y47419D01*
X218598Y47026D01*
X219385D01*
X219779Y47419D01*
Y49387D01*
X222140D02*
X220566D01*
Y48206D01*
X221353Y48600D01*
X221746D01*
X222140Y48206D01*
Y47419D01*
X221746Y47026D01*
X220959D01*
X220566Y47419D01*
X127048Y68386D02*
X129016D01*
X129409Y68779D01*
Y69567D01*
X129016Y69960D01*
X127048D01*
X129409Y70747D02*
Y71534D01*
Y71141D01*
X127048D01*
X127442Y70747D01*
X163268Y56259D02*
Y53898D01*
X164842D01*
X167203D02*
X165629D01*
X167203Y55472D01*
Y55866D01*
X166810Y56259D01*
X166023D01*
X165629Y55866D01*
X259567Y77007D02*
Y75433D01*
X260354Y74646D01*
X261141Y75433D01*
Y77007D01*
X263503Y76613D02*
X263109Y77007D01*
X262322D01*
X261928Y76613D01*
Y75039D01*
X262322Y74646D01*
X263109D01*
X263503Y75039D01*
X265864Y76613D02*
X265471Y77007D01*
X264683D01*
X264290Y76613D01*
Y75039D01*
X264683Y74646D01*
X265471D01*
X265864Y75039D01*
X321606Y57409D02*
X319638D01*
X319244Y57016D01*
Y56229D01*
X319638Y55835D01*
X321606D01*
Y55048D02*
Y53474D01*
X321212D01*
X319638Y55048D01*
X319244D01*
X347755Y62087D02*
X345787D01*
X345394Y61693D01*
Y60906D01*
X345787Y60512D01*
X347755D01*
Y58151D02*
X347362Y58938D01*
X346574Y59725D01*
X345787D01*
X345394Y59332D01*
Y58544D01*
X345787Y58151D01*
X346181D01*
X346574Y58544D01*
Y59725D01*
X87717Y46536D02*
Y48504D01*
X87323Y48898D01*
X86536D01*
X86142Y48504D01*
Y46536D01*
X83781Y48898D02*
X85355D01*
X83781Y47323D01*
Y46930D01*
X84174Y46536D01*
X84961D01*
X85355Y46930D01*
X191279Y75460D02*
X190886Y75854D01*
X190099D01*
X189705Y75460D01*
Y75067D01*
X190099Y74673D01*
X190886D01*
X191279Y74280D01*
Y73886D01*
X190886Y73493D01*
X190099D01*
X189705Y73886D01*
X192066Y75854D02*
Y73493D01*
X192853Y74280D01*
X193641Y73493D01*
Y75854D01*
X194428Y73493D02*
X195215D01*
X194821D01*
Y75854D01*
X194428Y75460D01*
X227953Y74488D02*
Y76850D01*
X229134D01*
X229527Y76456D01*
Y75669D01*
X229134Y75275D01*
X227953D01*
X228740D02*
X229527Y74488D01*
X231889Y76456D02*
X231495Y76850D01*
X230708D01*
X230314Y76456D01*
Y76063D01*
X230708Y75669D01*
X231495D01*
X231889Y75275D01*
Y74882D01*
X231495Y74488D01*
X230708D01*
X230314Y74882D01*
X232676Y76850D02*
X234250D01*
X233463D01*
Y74488D01*
X249606Y8032D02*
Y10393D01*
X250787D01*
X251181Y9999D01*
Y9212D01*
X250787Y8819D01*
X249606D01*
X250393D02*
X251181Y8032D01*
X253542D02*
X251968D01*
X253542Y9606D01*
Y9999D01*
X253149Y10393D01*
X252361D01*
X251968Y9999D01*
X255904Y10393D02*
X254329D01*
Y9212D01*
X255116Y9606D01*
X255510D01*
X255904Y9212D01*
Y8425D01*
X255510Y8032D01*
X254723D01*
X254329Y8425D01*
X362244Y43740D02*
Y46102D01*
X363425D01*
X363818Y45708D01*
Y44921D01*
X363425Y44527D01*
X362244D01*
X363031D02*
X363818Y43740D01*
X366180D02*
X364605D01*
X366180Y45314D01*
Y45708D01*
X365786Y46102D01*
X364999D01*
X364605Y45708D01*
X368148Y43740D02*
Y46102D01*
X366967Y44921D01*
X368541D01*
X362362Y52716D02*
Y55078D01*
X363543D01*
X363936Y54684D01*
Y53897D01*
X363543Y53504D01*
X362362D01*
X363149D02*
X363936Y52716D01*
X366298D02*
X364724D01*
X366298Y54291D01*
Y54684D01*
X365904Y55078D01*
X365117D01*
X364724Y54684D01*
X367085D02*
X367479Y55078D01*
X368266D01*
X368659Y54684D01*
Y54291D01*
X368266Y53897D01*
X367872D01*
X368266D01*
X368659Y53504D01*
Y53110D01*
X368266Y52716D01*
X367479D01*
X367085Y53110D01*
X249528Y15512D02*
Y17873D01*
X250708D01*
X251102Y17480D01*
Y16692D01*
X250708Y16299D01*
X249528D01*
X250315D02*
X251102Y15512D01*
X253463D02*
X251889D01*
X253463Y17086D01*
Y17480D01*
X253070Y17873D01*
X252283D01*
X251889Y17480D01*
X255825Y15512D02*
X254250D01*
X255825Y17086D01*
Y17480D01*
X255431Y17873D01*
X254644D01*
X254250Y17480D01*
X250016Y22683D02*
Y25045D01*
X251197D01*
X251590Y24651D01*
Y23864D01*
X251197Y23471D01*
X250016D01*
X250803D02*
X251590Y22683D01*
X253952D02*
X252378D01*
X253952Y24258D01*
Y24651D01*
X253558Y25045D01*
X252771D01*
X252378Y24651D01*
X254739Y22683D02*
X255526D01*
X255133D01*
Y25045D01*
X254739Y24651D01*
X206839Y15845D02*
Y18206D01*
X208020D01*
X208413Y17812D01*
Y17025D01*
X208020Y16632D01*
X206839D01*
X207626D02*
X208413Y15845D01*
X210775D02*
X209200D01*
X210775Y17419D01*
Y17812D01*
X210381Y18206D01*
X209594D01*
X209200Y17812D01*
X211562D02*
X211955Y18206D01*
X212742D01*
X213136Y17812D01*
Y16238D01*
X212742Y15845D01*
X211955D01*
X211562Y16238D01*
Y17812D01*
X206732Y7283D02*
Y9645D01*
X207913D01*
X208307Y9251D01*
Y8464D01*
X207913Y8071D01*
X206732D01*
X207519D02*
X208307Y7283D01*
X209094D02*
X209881D01*
X209487D01*
Y9645D01*
X209094Y9251D01*
X211062Y7677D02*
X211455Y7283D01*
X212242D01*
X212636Y7677D01*
Y9251D01*
X212242Y9645D01*
X211455D01*
X211062Y9251D01*
Y8858D01*
X211455Y8464D01*
X212636D01*
X289567Y33701D02*
Y36062D01*
X290748D01*
X291141Y35669D01*
Y34881D01*
X290748Y34488D01*
X289567D01*
X290354D02*
X291141Y33701D01*
X291928D02*
X292716D01*
X292322D01*
Y36062D01*
X291928Y35669D01*
X293896D02*
X294290Y36062D01*
X295077D01*
X295470Y35669D01*
Y35275D01*
X295077Y34881D01*
X295470Y34488D01*
Y34094D01*
X295077Y33701D01*
X294290D01*
X293896Y34094D01*
Y34488D01*
X294290Y34881D01*
X293896Y35275D01*
Y35669D01*
X294290Y34881D02*
X295077D01*
X249921Y30394D02*
Y32755D01*
X251102D01*
X251496Y32362D01*
Y31574D01*
X251102Y31181D01*
X249921D01*
X250708D02*
X251496Y30394D01*
X252283D02*
X253070D01*
X252676D01*
Y32755D01*
X252283Y32362D01*
X254251Y32755D02*
X255825D01*
Y32362D01*
X254251Y30787D01*
Y30394D01*
X293465Y56417D02*
Y58779D01*
X294645D01*
X295039Y58385D01*
Y57598D01*
X294645Y57205D01*
X293465D01*
X294252D02*
X295039Y56417D01*
X295826D02*
X296613D01*
X296220D01*
Y58779D01*
X295826Y58385D01*
X299368Y58779D02*
X298581Y58385D01*
X297794Y57598D01*
Y56811D01*
X298187Y56417D01*
X298975D01*
X299368Y56811D01*
Y57205D01*
X298975Y57598D01*
X297794D01*
X362244Y35315D02*
Y37676D01*
X363425D01*
X363818Y37283D01*
Y36496D01*
X363425Y36102D01*
X362244D01*
X363031D02*
X363818Y35315D01*
X364605D02*
X365393D01*
X364999D01*
Y37676D01*
X364605Y37283D01*
X368148Y37676D02*
X366573D01*
Y36496D01*
X367360Y36889D01*
X367754D01*
X368148Y36496D01*
Y35708D01*
X367754Y35315D01*
X366967D01*
X366573Y35708D01*
X249606Y37953D02*
Y40314D01*
X250787D01*
X251181Y39921D01*
Y39134D01*
X250787Y38740D01*
X249606D01*
X250393D02*
X251181Y37953D01*
X251968D02*
X252755D01*
X252361D01*
Y40314D01*
X251968Y39921D01*
X255116Y37953D02*
Y40314D01*
X253936Y39134D01*
X255510D01*
X303937Y15984D02*
Y18346D01*
X305118D01*
X305511Y17952D01*
Y17165D01*
X305118Y16771D01*
X303937D01*
X304724D02*
X305511Y15984D01*
X306298D02*
X307086D01*
X306692D01*
Y18346D01*
X306298Y17952D01*
X308266D02*
X308660Y18346D01*
X309447D01*
X309841Y17952D01*
Y17559D01*
X309447Y17165D01*
X309053D01*
X309447D01*
X309841Y16771D01*
Y16378D01*
X309447Y15984D01*
X308660D01*
X308266Y16378D01*
X304134Y33583D02*
Y35944D01*
X305315D01*
X305708Y35550D01*
Y34763D01*
X305315Y34370D01*
X304134D01*
X304921D02*
X305708Y33583D01*
X306495D02*
X307282D01*
X306889D01*
Y35944D01*
X306495Y35550D01*
X310037Y33583D02*
X308463D01*
X310037Y35157D01*
Y35550D01*
X309644Y35944D01*
X308857D01*
X308463Y35550D01*
X250472Y45827D02*
Y48188D01*
X251653D01*
X252047Y47795D01*
Y47008D01*
X251653Y46614D01*
X250472D01*
X251260D02*
X252047Y45827D01*
X252834D02*
X253621D01*
X253227D01*
Y48188D01*
X252834Y47795D01*
X254802Y45827D02*
X255589D01*
X255195D01*
Y48188D01*
X254802Y47795D01*
X249803Y53268D02*
Y55629D01*
X250984D01*
X251377Y55236D01*
Y54448D01*
X250984Y54055D01*
X249803D01*
X250590D02*
X251377Y53268D01*
X252165D02*
X252952D01*
X252558D01*
Y55629D01*
X252165Y55236D01*
X254133D02*
X254526Y55629D01*
X255313D01*
X255707Y55236D01*
Y53661D01*
X255313Y53268D01*
X254526D01*
X254133Y53661D01*
Y55236D01*
X251472Y61281D02*
Y63642D01*
X252653D01*
X253046Y63248D01*
Y62461D01*
X252653Y62068D01*
X251472D01*
X252259D02*
X253046Y61281D01*
X253833Y61674D02*
X254227Y61281D01*
X255014D01*
X255408Y61674D01*
Y63248D01*
X255014Y63642D01*
X254227D01*
X253833Y63248D01*
Y62855D01*
X254227Y62461D01*
X255408D01*
X206732Y23661D02*
Y26023D01*
X207913D01*
X208307Y25629D01*
Y24842D01*
X207913Y24449D01*
X206732D01*
X207519D02*
X208307Y23661D01*
X209094Y25629D02*
X209487Y26023D01*
X210274D01*
X210668Y25629D01*
Y25236D01*
X210274Y24842D01*
X210668Y24449D01*
Y24055D01*
X210274Y23661D01*
X209487D01*
X209094Y24055D01*
Y24449D01*
X209487Y24842D01*
X209094Y25236D01*
Y25629D01*
X209487Y24842D02*
X210274D01*
X52943Y16770D02*
Y19131D01*
X54123D01*
X54517Y18737D01*
Y17950D01*
X54123Y17557D01*
X52943D01*
X53730D02*
X54517Y16770D01*
X55304Y19131D02*
X56878D01*
Y18737D01*
X55304Y17163D01*
Y16770D01*
X93510Y72955D02*
Y75316D01*
X94690D01*
X95084Y74923D01*
Y74136D01*
X94690Y73742D01*
X93510D01*
X94297D02*
X95084Y72955D01*
X97445Y75316D02*
X96658Y74923D01*
X95871Y74136D01*
Y73348D01*
X96265Y72955D01*
X97052D01*
X97445Y73348D01*
Y73742D01*
X97052Y74136D01*
X95871D01*
X206929Y32559D02*
Y34920D01*
X208110D01*
X208503Y34527D01*
Y33740D01*
X208110Y33346D01*
X206929D01*
X207716D02*
X208503Y32559D01*
X210865Y34920D02*
X209291D01*
Y33740D01*
X210078Y34133D01*
X210471D01*
X210865Y33740D01*
Y32953D01*
X210471Y32559D01*
X209684D01*
X209291Y32953D01*
X72559Y72992D02*
Y75354D01*
X73740D01*
X74133Y74960D01*
Y74173D01*
X73740Y73779D01*
X72559D01*
X73346D02*
X74133Y72992D01*
X76101D02*
Y75354D01*
X74920Y74173D01*
X76495D01*
X105472Y61181D02*
Y63542D01*
X106653D01*
X107047Y63149D01*
Y62362D01*
X106653Y61968D01*
X105472D01*
X106260D02*
X107047Y61181D01*
X107834Y63149D02*
X108227Y63542D01*
X109015D01*
X109408Y63149D01*
Y62755D01*
X109015Y62362D01*
X108621D01*
X109015D01*
X109408Y61968D01*
Y61575D01*
X109015Y61181D01*
X108227D01*
X107834Y61575D01*
X154427Y19213D02*
Y21574D01*
X155608D01*
X156001Y21181D01*
Y20393D01*
X155608Y20000D01*
X154427D01*
X155214D02*
X156001Y19213D01*
X158363D02*
X156789D01*
X158363Y20787D01*
Y21181D01*
X157969Y21574D01*
X157182D01*
X156789Y21181D01*
X154506Y27480D02*
Y29842D01*
X155686D01*
X156080Y29448D01*
Y28661D01*
X155686Y28267D01*
X154506D01*
X155293D02*
X156080Y27480D01*
X156867D02*
X157654D01*
X157261D01*
Y29842D01*
X156867Y29448D01*
X382773Y72687D02*
X381986D01*
X382380D01*
Y70719D01*
X381986Y70326D01*
X381592D01*
X381199Y70719D01*
X385135Y70326D02*
X383560D01*
X385135Y71900D01*
Y72294D01*
X384741Y72687D01*
X383954D01*
X383560Y72294D01*
X4473Y77387D02*
X3686D01*
X4079D01*
Y75419D01*
X3686Y75026D01*
X3292D01*
X2899Y75419D01*
X5260Y75026D02*
X6047D01*
X5654D01*
Y77387D01*
X5260Y76994D01*
X272007Y76771D02*
X271614Y77165D01*
X270827D01*
X270433Y76771D01*
Y75197D01*
X270827Y74803D01*
X271614D01*
X272007Y75197D01*
Y75984D01*
X271220D01*
X272795Y74803D02*
Y77165D01*
X274369Y74803D01*
Y77165D01*
X275156D02*
Y74803D01*
X276337D01*
X276730Y75197D01*
Y76771D01*
X276337Y77165D01*
X275156D01*
X248937Y77007D02*
Y74646D01*
X250118D01*
X250511Y75039D01*
Y76613D01*
X250118Y77007D01*
X248937D01*
X251298Y74646D02*
Y76220D01*
X252086Y77007D01*
X252873Y76220D01*
Y74646D01*
Y75826D01*
X251298D01*
X253660Y77007D02*
X255234D01*
X254447D01*
Y74646D01*
X272047Y22519D02*
Y20157D01*
X273228D01*
X273622Y20551D01*
Y22125D01*
X273228Y22519D01*
X272047D01*
X275983D02*
X275196Y22125D01*
X274409Y21338D01*
Y20551D01*
X274802Y20157D01*
X275589D01*
X275983Y20551D01*
Y20945D01*
X275589Y21338D01*
X274409D01*
X315197Y16102D02*
Y13740D01*
X316378D01*
X316771Y14134D01*
Y15708D01*
X316378Y16102D01*
X315197D01*
X319133D02*
X317558D01*
Y14921D01*
X318345Y15314D01*
X318739D01*
X319133Y14921D01*
Y14134D01*
X318739Y13740D01*
X317952D01*
X317558Y14134D01*
X271969Y37361D02*
Y35000D01*
X273149D01*
X273543Y35394D01*
Y36968D01*
X273149Y37361D01*
X271969D01*
X275511Y35000D02*
Y37361D01*
X274330Y36181D01*
X275904D01*
X272047Y52440D02*
Y50079D01*
X273228D01*
X273622Y50472D01*
Y52047D01*
X273228Y52440D01*
X272047D01*
X274409Y52047D02*
X274802Y52440D01*
X275589D01*
X275983Y52047D01*
Y51653D01*
X275589Y51259D01*
X275196D01*
X275589D01*
X275983Y50866D01*
Y50472D01*
X275589Y50079D01*
X274802D01*
X274409Y50472D01*
X271969Y67952D02*
Y65591D01*
X273149D01*
X273543Y65984D01*
Y67558D01*
X273149Y67952D01*
X271969D01*
X275904Y65591D02*
X274330D01*
X275904Y67165D01*
Y67558D01*
X275511Y67952D01*
X274724D01*
X274330Y67558D01*
X159764Y69999D02*
Y67638D01*
X160944D01*
X161338Y68031D01*
Y69606D01*
X160944Y69999D01*
X159764D01*
X162125Y67638D02*
X162912D01*
X162519D01*
Y69999D01*
X162125Y69606D01*
X240118Y76535D02*
X239724Y76928D01*
X238937D01*
X238543Y76535D01*
Y74961D01*
X238937Y74567D01*
X239724D01*
X240118Y74961D01*
X240905Y76928D02*
Y74567D01*
X242479D01*
X243266Y76928D02*
Y74567D01*
Y75354D01*
X244841Y76928D01*
X243660Y75748D01*
X244841Y74567D01*
X231953Y66980D02*
X231559Y67374D01*
X230772D01*
X230378Y66980D01*
Y65406D01*
X230772Y65013D01*
X231559D01*
X231953Y65406D01*
X232740Y65013D02*
X233527D01*
X233133D01*
Y67374D01*
X232740Y66980D01*
X236282Y67374D02*
X235495Y66980D01*
X234708Y66193D01*
Y65406D01*
X235101Y65013D01*
X235888D01*
X236282Y65406D01*
Y65800D01*
X235888Y66193D01*
X234708D01*
X174999Y17480D02*
X174606Y17873D01*
X173819D01*
X173425Y17480D01*
Y15905D01*
X173819Y15512D01*
X174606D01*
X174999Y15905D01*
X175787Y15512D02*
X176574D01*
X176180D01*
Y17873D01*
X175787Y17480D01*
X179329Y17873D02*
X177754D01*
Y16692D01*
X178542Y17086D01*
X178935D01*
X179329Y16692D01*
Y15905D01*
X178935Y15512D01*
X178148D01*
X177754Y15905D01*
X190432Y12520D02*
X190826Y12914D01*
Y13701D01*
X190432Y14095D01*
X188858D01*
X188465Y13701D01*
Y12914D01*
X188858Y12520D01*
X188465Y11733D02*
Y10946D01*
Y11339D01*
X190826D01*
X190432Y11733D01*
X188465Y8585D02*
X190826D01*
X189645Y9765D01*
Y8191D01*
X291692Y18149D02*
X291299Y18542D01*
X290512D01*
X290118Y18149D01*
Y16575D01*
X290512Y16181D01*
X291299D01*
X291692Y16575D01*
X292480Y16181D02*
X293267D01*
X292873D01*
Y18542D01*
X292480Y18149D01*
X294447D02*
X294841Y18542D01*
X295628D01*
X296022Y18149D01*
Y17755D01*
X295628Y17362D01*
X295235D01*
X295628D01*
X296022Y16968D01*
Y16575D01*
X295628Y16181D01*
X294841D01*
X294447Y16575D01*
X322834Y31102D02*
X322441Y31495D01*
X321653D01*
X321260Y31102D01*
Y29527D01*
X321653Y29134D01*
X322441D01*
X322834Y29527D01*
X323621Y29134D02*
X324408D01*
X324015D01*
Y31495D01*
X323621Y31102D01*
X327163Y29134D02*
X325589D01*
X327163Y30708D01*
Y31102D01*
X326770Y31495D01*
X325983D01*
X325589Y31102D01*
X336771Y31023D02*
X336378Y31417D01*
X335590D01*
X335197Y31023D01*
Y29449D01*
X335590Y29055D01*
X336378D01*
X336771Y29449D01*
X337558Y29055D02*
X338345D01*
X337952D01*
Y31417D01*
X337558Y31023D01*
X339526Y29055D02*
X340313D01*
X339920D01*
Y31417D01*
X339526Y31023D01*
X24674Y58129D02*
X24280Y57735D01*
Y56948D01*
X24674Y56555D01*
X26248D01*
X26641Y56948D01*
Y57735D01*
X26248Y58129D01*
X26641Y58916D02*
Y59703D01*
Y59310D01*
X24280D01*
X24674Y58916D01*
Y60884D02*
X24280Y61277D01*
Y62064D01*
X24674Y62458D01*
X26248D01*
X26641Y62064D01*
Y61277D01*
X26248Y60884D01*
X24674D01*
X28083Y22787D02*
X27689Y22394D01*
Y21607D01*
X28083Y21213D01*
X29657D01*
X30051Y21607D01*
Y22394D01*
X29657Y22787D01*
Y23574D02*
X30051Y23968D01*
Y24755D01*
X29657Y25149D01*
X28083D01*
X27689Y24755D01*
Y23968D01*
X28083Y23574D01*
X28477D01*
X28870Y23968D01*
Y25149D01*
X165275Y12166D02*
X165668Y12559D01*
Y13347D01*
X165275Y13740D01*
X163701D01*
X163307Y13347D01*
Y12559D01*
X163701Y12166D01*
X165275Y11379D02*
X165668Y10985D01*
Y10198D01*
X165275Y9804D01*
X164881D01*
X164488Y10198D01*
X164094Y9804D01*
X163701D01*
X163307Y10198D01*
Y10985D01*
X163701Y11379D01*
X164094D01*
X164488Y10985D01*
X164881Y11379D01*
X165275D01*
X164488Y10985D02*
Y10198D01*
X110511Y53104D02*
X110118Y53497D01*
X109331D01*
X108937Y53104D01*
Y51530D01*
X109331Y51136D01*
X110118D01*
X110511Y51530D01*
X111298Y53497D02*
X112873D01*
Y53104D01*
X111298Y51530D01*
Y51136D01*
X69159Y56034D02*
X68765Y55640D01*
Y54853D01*
X69159Y54460D01*
X70733D01*
X71127Y54853D01*
Y55640D01*
X70733Y56034D01*
X68765Y58395D02*
X69159Y57608D01*
X69946Y56821D01*
X70733D01*
X71127Y57214D01*
Y58002D01*
X70733Y58395D01*
X70340D01*
X69946Y58002D01*
Y56821D01*
X135844Y15670D02*
X136237Y16063D01*
Y16850D01*
X135844Y17244D01*
X134269D01*
X133876Y16850D01*
Y16063D01*
X134269Y15670D01*
X136237Y13308D02*
Y14883D01*
X135057D01*
X135450Y14096D01*
Y13702D01*
X135057Y13308D01*
X134269D01*
X133876Y13702D01*
Y14489D01*
X134269Y14883D01*
X208503Y43503D02*
X208110Y43897D01*
X207323D01*
X206929Y43503D01*
Y41929D01*
X207323Y41535D01*
X208110D01*
X208503Y41929D01*
X210471Y41535D02*
Y43897D01*
X209291Y42716D01*
X210865D01*
X208503Y52243D02*
X208110Y52637D01*
X207323D01*
X206929Y52243D01*
Y50669D01*
X207323Y50276D01*
X208110D01*
X208503Y50669D01*
X209291Y52243D02*
X209684Y52637D01*
X210471D01*
X210865Y52243D01*
Y51850D01*
X210471Y51456D01*
X210078D01*
X210471D01*
X210865Y51063D01*
Y50669D01*
X210471Y50276D01*
X209684D01*
X209291Y50669D01*
X81722Y46836D02*
X82116Y46442D01*
X82903D01*
X83296Y46836D01*
Y48410D01*
X82903Y48803D01*
X82116D01*
X81722Y48410D01*
X79361Y48803D02*
X80935D01*
X79361Y47229D01*
Y46836D01*
X79754Y46442D01*
X80541D01*
X80935Y46836D01*
X156080Y13110D02*
X155686Y13503D01*
X154899D01*
X154506Y13110D01*
Y11535D01*
X154899Y11142D01*
X155686D01*
X156080Y11535D01*
X156867Y11142D02*
X157654D01*
X157261D01*
Y13503D01*
X156867Y13110D01*
X14645Y60551D02*
X13071D01*
X12284Y59764D01*
X13071Y58977D01*
X14645D01*
X13464Y58190D02*
Y56615D01*
X14251Y57403D02*
X12677D01*
X14487Y70669D02*
X12913D01*
X12126Y69882D01*
X12913Y69095D01*
X14487D01*
X13307Y68308D02*
Y66734D01*
M02*
