%FSLAX25Y25*%
%MOIN*%
G70*
G01*
G75*
G04 Layer_Physical_Order=1*
G04 Layer_Color=255*
%ADD10R,0.12402X0.08898*%
%ADD11R,0.02400X0.05906*%
%ADD12R,0.03150X0.03937*%
%ADD13R,0.03937X0.04724*%
%ADD14R,0.15748X0.05118*%
%ADD15R,0.03937X0.03150*%
%ADD16R,0.05118X0.15748*%
%ADD17R,0.03937X0.01575*%
G04:AMPARAMS|DCode=18|XSize=39.37mil|YSize=59.06mil|CornerRadius=0mil|HoleSize=0mil|Usage=FLASHONLY|Rotation=180.000|XOffset=0mil|YOffset=0mil|HoleType=Round|Shape=Octagon|*
%AMOCTAGOND18*
4,1,8,0.00984,-0.02953,-0.00984,-0.02953,-0.01969,-0.01969,-0.01969,0.01969,-0.00984,0.02953,0.00984,0.02953,0.01969,0.01969,0.01969,-0.01969,0.00984,-0.02953,0.0*
%
%ADD18OCTAGOND18*%

%ADD19P,0.06392X8X22.5*%
%ADD20R,0.05906X0.01378*%
%ADD21R,0.05118X0.01260*%
%ADD22R,0.04724X0.03937*%
%ADD23C,0.04724*%
%ADD24R,0.04724X0.05906*%
%ADD25R,0.07874X0.04134*%
%ADD26R,0.26772X0.25984*%
%ADD27R,0.06299X0.05906*%
%ADD28R,0.03150X0.02559*%
%ADD29R,0.01575X0.03937*%
%ADD30O,0.01969X0.07874*%
%ADD31R,0.01969X0.07874*%
%ADD32C,0.03937*%
%ADD33C,0.01969*%
%ADD34C,0.02756*%
%ADD35C,0.03150*%
%ADD36C,0.01181*%
%ADD37C,0.02362*%
%ADD38R,0.06850X0.08228*%
%ADD39C,0.02559*%
%ADD40O,0.05906X0.07874*%
%ADD41R,0.05906X0.05906*%
%ADD42C,0.05906*%
%ADD43R,0.05906X0.05906*%
%ADD44C,0.07087*%
%ADD45C,0.03937*%
%ADD46C,0.01969*%
%ADD47C,0.02756*%
G36*
X392589Y48267D02*
X392127Y48076D01*
X389371Y50832D01*
X389612Y51415D01*
X389734Y52340D01*
X389612Y53265D01*
X389255Y54127D01*
X388687Y54867D01*
X387947Y55435D01*
X387085Y55792D01*
X386160Y55914D01*
X385235Y55792D01*
X384373Y55435D01*
X383633Y54867D01*
X383065Y54127D01*
X382708Y53265D01*
X382586Y52340D01*
X382708Y51415D01*
X383065Y50553D01*
X383633Y49813D01*
X384373Y49245D01*
X385235Y48888D01*
X386160Y48766D01*
X387085Y48888D01*
X387668Y49129D01*
X390252Y46545D01*
Y18806D01*
X387886Y16440D01*
X345581D01*
Y18779D01*
X338101D01*
Y11692D01*
X340637D01*
Y9505D01*
X336835Y5703D01*
X240488D01*
X226959Y19232D01*
X227047Y19678D01*
X230023D01*
X230024Y19678D01*
X230536Y19780D01*
X230638Y19800D01*
X231159Y20148D01*
X239285Y28274D01*
X239285Y28274D01*
X239633Y28795D01*
X239653Y28897D01*
X239717Y29218D01*
X240215Y29169D01*
Y27975D01*
X240215Y27975D01*
X240215D01*
X240215Y27740D01*
Y27622D01*
Y27622D01*
X240215D01*
Y25181D01*
X240215Y25181D01*
X240215Y25063D01*
X240215D01*
Y22857D01*
X240215Y22857D01*
X240215D01*
X240215Y22622D01*
Y22504D01*
X240215D01*
X240215Y22488D01*
X238134D01*
X238134Y22488D01*
X238123Y22485D01*
X237795Y22550D01*
X237181Y22428D01*
X236660Y22080D01*
X236312Y21559D01*
X236190Y20945D01*
X236312Y20330D01*
X236097Y19929D01*
X235090D01*
X234994Y20072D01*
X234473Y20420D01*
X233858Y20543D01*
X233244Y20420D01*
X232723Y20072D01*
X232375Y19552D01*
X232253Y18937D01*
X232375Y18323D01*
X232723Y17802D01*
X233244Y17454D01*
X233858Y17331D01*
X234473Y17454D01*
X234572Y17520D01*
X240215D01*
Y17504D01*
X246514D01*
Y19945D01*
X246514Y19945D01*
Y20063D01*
X246514D01*
Y21809D01*
X246814Y22257D01*
X246901Y22329D01*
X247480Y22213D01*
X248095Y22335D01*
X248616Y22683D01*
X248964Y23204D01*
X249086Y23819D01*
X249059Y23955D01*
X249500Y24191D01*
X250016Y23674D01*
Y16985D01*
X250016Y16985D01*
X250108Y16524D01*
X250369Y16134D01*
X256903Y9600D01*
Y6578D01*
X261233D01*
Y11697D01*
X258212D01*
X252425Y17484D01*
Y21254D01*
X252887Y21446D01*
X256903Y17430D01*
Y14409D01*
X261233D01*
Y19527D01*
X258212D01*
X255588Y22150D01*
X255748Y22449D01*
X256363Y22572D01*
X256462Y22638D01*
X256903Y22402D01*
Y21729D01*
X261233D01*
Y26847D01*
X256903D01*
Y25492D01*
X256433D01*
X256363Y25539D01*
X255748Y25661D01*
X255134Y25539D01*
X254637Y25207D01*
X254391Y25339D01*
X254196Y25469D01*
Y28465D01*
X254105Y28925D01*
X253844Y29316D01*
X250789Y32371D01*
X250752Y32396D01*
X250897Y32874D01*
X256679D01*
X256903Y32650D01*
Y29629D01*
X261233D01*
Y34747D01*
X258212D01*
X258029Y34930D01*
X257638Y35191D01*
X257177Y35283D01*
X257177Y35283D01*
X248198D01*
X248053Y35761D01*
X248254Y35896D01*
X248602Y36417D01*
X248724Y37031D01*
X248602Y37646D01*
X248364Y38002D01*
X248398Y38084D01*
X248788Y38345D01*
X256377Y45934D01*
X256903D01*
Y44579D01*
X261233D01*
Y49697D01*
X256903D01*
Y48342D01*
X255878D01*
X255417Y48251D01*
X255261Y48146D01*
X255027Y47990D01*
X255027Y47989D01*
X247438Y40401D01*
X246514D01*
X246514Y40417D01*
X246514D01*
Y40535D01*
X246514Y40771D01*
X246514Y40771D01*
X246514D01*
Y42976D01*
X246514Y42976D01*
X246514D01*
X246448Y43136D01*
X252977Y49666D01*
X253239Y50056D01*
X253330Y50517D01*
X253330Y50517D01*
X253330Y50517D01*
Y50517D01*
Y53245D01*
X253786Y53550D01*
X254307Y53202D01*
X254921Y53079D01*
X255536Y53202D01*
X255954Y53481D01*
X256903D01*
Y51999D01*
X261233D01*
Y57117D01*
X256903D01*
Y55889D01*
X255954D01*
X255536Y56169D01*
X254921Y56291D01*
X254874Y56379D01*
X258212Y59717D01*
X261233D01*
Y64835D01*
X258271D01*
X258079Y65297D01*
X261098Y68316D01*
X261367Y68109D01*
X262086Y67812D01*
X262857Y67710D01*
X263627Y67812D01*
X264346Y68109D01*
X264962Y68583D01*
X265436Y69200D01*
X265731Y69913D01*
X268918Y73100D01*
X313762D01*
X316474Y70388D01*
Y56427D01*
X313825D01*
Y51309D01*
X313938D01*
Y49554D01*
X311564Y47180D01*
X311303Y46789D01*
X311211Y46328D01*
X311211Y46328D01*
Y32649D01*
X310250D01*
Y27531D01*
X311211D01*
Y24639D01*
X310250D01*
Y20870D01*
X309788Y20679D01*
X308281Y22185D01*
Y24639D01*
X303951D01*
Y19521D01*
X306404D01*
X310919Y15006D01*
X310919Y15006D01*
X311440Y14658D01*
X312054Y14536D01*
X315118D01*
X315118Y14536D01*
X315631Y14638D01*
X315733Y14658D01*
X316253Y15006D01*
X318773Y17526D01*
X318773Y17526D01*
X319006Y17874D01*
X319121Y18047D01*
X319243Y18661D01*
X319243Y18662D01*
Y33071D01*
X319121Y33685D01*
X318773Y34206D01*
X318773Y34206D01*
X316808Y36171D01*
Y42268D01*
X319678Y45139D01*
X319723Y45145D01*
X320346Y45403D01*
X320382Y45430D01*
X335778D01*
X336344Y44865D01*
X336108Y44424D01*
X335630Y44519D01*
X335016Y44397D01*
X334494Y44049D01*
X334146Y43528D01*
X334024Y42913D01*
X334146Y42299D01*
X334494Y41778D01*
X334503Y41773D01*
Y40308D01*
X334223Y39891D01*
X334101Y39276D01*
Y33371D01*
X334223Y32756D01*
X334571Y32235D01*
X335092Y31887D01*
X335707Y31765D01*
X336321Y31887D01*
X336842Y32235D01*
X337190Y32756D01*
X337312Y33371D01*
Y39276D01*
X337190Y39891D01*
X336911Y40308D01*
Y41996D01*
X337113Y42299D01*
X337236Y42913D01*
X337140Y43391D01*
X337581Y43627D01*
X338499Y42709D01*
Y28456D01*
X338667Y27611D01*
X339146Y26895D01*
X339862Y26416D01*
X340274Y26334D01*
X341498Y25110D01*
Y22941D01*
X345829D01*
Y28059D01*
X343659D01*
X342915Y28803D01*
Y34116D01*
X349998D01*
Y33747D01*
X354329D01*
Y34922D01*
X354521Y35172D01*
X354778Y35794D01*
X354866Y36463D01*
Y44828D01*
X354778Y45496D01*
X354521Y46119D01*
X354450Y46210D01*
Y47387D01*
X352453D01*
X352285Y47409D01*
X352117Y47387D01*
X350120D01*
Y46210D01*
X350050Y46119D01*
X349792Y45496D01*
X349704Y44828D01*
Y38531D01*
X342915D01*
Y43624D01*
X342746Y44469D01*
X342268Y45185D01*
X338254Y49199D01*
X337538Y49678D01*
X336693Y49846D01*
X321636D01*
Y71457D01*
X321548Y72125D01*
X321442Y72383D01*
X321290Y72747D01*
X320880Y73282D01*
X316656Y77506D01*
X316697Y77628D01*
X335601D01*
X335761Y77155D01*
X335537Y76983D01*
X335127Y76448D01*
X334869Y75826D01*
X334781Y75157D01*
Y61624D01*
X334606D01*
X334154Y61436D01*
X333967Y60984D01*
Y52756D01*
X334154Y52304D01*
X334606Y52117D01*
X341457D01*
X341822Y52268D01*
X342282D01*
Y61323D01*
X341955D01*
X341909Y61436D01*
X341457Y61624D01*
X339943D01*
Y75157D01*
X339855Y75826D01*
X339598Y76448D01*
X339187Y76983D01*
X338653Y77393D01*
X338700Y77628D01*
X392589D01*
Y48267D01*
D02*
G37*
G36*
X83994Y77155D02*
X83750Y76968D01*
X79189Y72406D01*
X78967Y72117D01*
X78849D01*
Y71963D01*
X78779Y71872D01*
X78597Y71432D01*
X78521Y71249D01*
X78433Y70581D01*
Y69558D01*
X78521Y68890D01*
X78779Y68267D01*
X78849Y68176D01*
Y66999D01*
X80847D01*
X81014Y66977D01*
X81182Y66999D01*
X83180D01*
Y68176D01*
X83250Y68267D01*
X83507Y68890D01*
X83588Y69505D01*
X86645Y72561D01*
X93510D01*
Y72117D01*
X93510D01*
Y66999D01*
X94109D01*
Y64623D01*
X93550D01*
Y62169D01*
X92757Y61376D01*
X86859D01*
X86244Y61254D01*
X86086Y61149D01*
X84300D01*
Y58393D01*
X86086D01*
X86244Y58287D01*
X86859Y58165D01*
X93422D01*
X93422Y58165D01*
X93934Y58267D01*
X94036Y58287D01*
X94557Y58635D01*
X95427Y59505D01*
X97880D01*
Y64623D01*
X97321D01*
Y66999D01*
X97840D01*
Y72117D01*
X97840D01*
Y72208D01*
X98194Y72561D01*
X123283D01*
X123380Y72071D01*
X123112Y71960D01*
X122577Y71549D01*
X116040Y65013D01*
X111983D01*
Y64943D01*
X108976D01*
X108308Y64855D01*
X107686Y64597D01*
X107151Y64187D01*
X106741Y63653D01*
X106483Y63030D01*
X106395Y62362D01*
X106450Y61948D01*
X106001Y61727D01*
X104180Y63549D01*
Y64623D01*
X102182D01*
X102014Y64645D01*
X101847Y64623D01*
X99849D01*
Y63446D01*
X99779Y63354D01*
X99521Y62732D01*
X99433Y62064D01*
X99521Y61396D01*
X99779Y60773D01*
X99849Y60682D01*
Y59505D01*
X100923D01*
X101848Y58580D01*
Y56357D01*
X101476D01*
Y49270D01*
X102073D01*
Y45276D01*
X101505D01*
Y28347D01*
X107804D01*
Y45276D01*
X107235D01*
Y49270D01*
X107382D01*
Y50233D01*
X122774D01*
X122913Y50214D01*
X123581Y50302D01*
X124204Y50560D01*
X124739Y50970D01*
X125149Y51505D01*
X125407Y52127D01*
X125495Y52795D01*
X125407Y53463D01*
X125149Y54086D01*
X124739Y54620D01*
X124720Y54639D01*
X124186Y55049D01*
X123821Y55200D01*
X123563Y55307D01*
X122895Y55395D01*
X107382D01*
Y56357D01*
X107010D01*
Y59649D01*
X106949Y60110D01*
X107383Y60360D01*
X107686Y60127D01*
X108308Y59869D01*
X108976Y59781D01*
X111983D01*
Y59698D01*
X115869D01*
X116104Y59601D01*
X116772Y59513D01*
X117440Y59601D01*
X117674Y59698D01*
X121038D01*
Y62710D01*
X125471Y67143D01*
X161463D01*
Y65673D01*
X160304D01*
Y58587D01*
X167784D01*
Y65673D01*
X166625D01*
Y67143D01*
X185624D01*
X200744Y52024D01*
Y48067D01*
X200836D01*
Y45653D01*
X200744D01*
Y39747D01*
X200836D01*
Y33829D01*
X200924Y33161D01*
X201182Y32538D01*
X201252Y32447D01*
Y31270D01*
X203249D01*
X203417Y31248D01*
X203585Y31270D01*
X205582D01*
Y32447D01*
X205652Y32538D01*
X205910Y33161D01*
X205998Y33829D01*
Y53000D01*
X205910Y53668D01*
X205862Y53786D01*
Y53973D01*
X205784D01*
X205652Y54291D01*
X205242Y54826D01*
X188518Y71549D01*
X187984Y71960D01*
X187715Y72071D01*
X187813Y72561D01*
X204773D01*
X209742Y67592D01*
Y42205D01*
X209830Y41537D01*
X210087Y40914D01*
X210498Y40380D01*
X211032Y39969D01*
X211655Y39711D01*
X212323Y39624D01*
X212991Y39711D01*
X213077Y39747D01*
X214479Y38345D01*
X214516Y38320D01*
X214371Y37842D01*
X212347D01*
X211930Y38121D01*
X211315Y38243D01*
X210701Y38121D01*
X210180Y37773D01*
X209832Y37252D01*
X209710Y36638D01*
X209832Y36023D01*
X210180Y35502D01*
X210701Y35154D01*
X211315Y35032D01*
X211930Y35154D01*
X212347Y35433D01*
X213316D01*
X213461Y34955D01*
X213424Y34930D01*
X208204Y29710D01*
X207943Y29319D01*
X207851Y28858D01*
X207851Y28858D01*
Y20263D01*
X206044Y18456D01*
X205582Y18647D01*
Y19255D01*
X201252D01*
Y14137D01*
X205582D01*
Y15492D01*
X205987D01*
X205987Y15492D01*
X206448Y15584D01*
X206839Y15845D01*
X209554Y18560D01*
X210016Y18369D01*
Y13806D01*
X206101Y9890D01*
X205582D01*
Y11245D01*
X201252D01*
Y8021D01*
X200790Y7830D01*
X199617Y9003D01*
X199611Y9048D01*
X199353Y9670D01*
X199325Y9706D01*
Y16696D01*
X199283Y16909D01*
Y19255D01*
X194952D01*
Y16909D01*
X194910Y16696D01*
Y9822D01*
X193052Y7964D01*
X128482D01*
X119091Y17354D01*
Y41587D01*
X121038D01*
Y46902D01*
X111983D01*
Y41587D01*
X113929D01*
Y16285D01*
X114017Y15617D01*
X114124Y15359D01*
X114275Y14995D01*
X114685Y14460D01*
X125587Y3557D01*
X126122Y3147D01*
X126487Y2996D01*
X126745Y2889D01*
X127413Y2802D01*
X194121D01*
X194789Y2889D01*
X195100Y3018D01*
X195411Y3147D01*
X195946Y3557D01*
X197382Y4993D01*
X199849Y2526D01*
X199855Y2482D01*
X200112Y1859D01*
X200342Y1560D01*
X200120Y1112D01*
X80428D01*
X80282Y1590D01*
X80316Y1613D01*
X80751Y2264D01*
X80904Y3032D01*
Y3446D01*
X87362D01*
Y9745D01*
X70432D01*
Y3446D01*
X76890D01*
Y3032D01*
X77043Y2264D01*
X77478Y1613D01*
X77512Y1590D01*
X77366Y1112D01*
X1112D01*
Y77628D01*
X83834D01*
X83994Y77155D01*
D02*
G37*
G36*
X265684Y77166D02*
X262081Y73563D01*
X261614Y73370D01*
X261426Y73333D01*
X260905Y72985D01*
X260807Y72838D01*
X260751Y72795D01*
X260277Y72178D01*
X260156Y71885D01*
X260065Y71824D01*
X260065Y71824D01*
X252775Y64534D01*
X252631Y64562D01*
X252291Y64703D01*
Y67730D01*
X252912Y67812D01*
X253631Y68109D01*
X254247Y68583D01*
X254721Y69200D01*
X255018Y69918D01*
X255120Y70689D01*
X255018Y71460D01*
X254721Y72178D01*
X254247Y72795D01*
X253631Y73268D01*
X252912Y73565D01*
X252141Y73667D01*
X251371Y73565D01*
X250652Y73268D01*
X250036Y72795D01*
X249562Y72178D01*
X249265Y71460D01*
X249163Y70689D01*
X249265Y69918D01*
X249562Y69200D01*
X249883Y68782D01*
Y65129D01*
X234778Y50025D01*
X234517Y49634D01*
X234426Y49173D01*
X234426Y49173D01*
Y32585D01*
X226887Y25047D01*
X223876D01*
Y25063D01*
X217577D01*
Y22622D01*
X217577Y22622D01*
X217577Y22504D01*
X217577Y22488D01*
X216756D01*
X216295Y22396D01*
X216138Y22291D01*
X215904Y22135D01*
X215904Y22135D01*
X215303Y21533D01*
X214882Y21617D01*
X214037Y21449D01*
X213321Y20971D01*
X212903Y20346D01*
X212425Y20491D01*
Y25761D01*
X214420Y27756D01*
X217577D01*
Y27740D01*
X223876D01*
Y27756D01*
X224188D01*
X224606Y27477D01*
X225220Y27355D01*
X225835Y27477D01*
X226356Y27825D01*
X226704Y28346D01*
X226826Y28960D01*
X226704Y29575D01*
X226356Y30096D01*
X225835Y30444D01*
X225220Y30566D01*
X224606Y30444D01*
X224317Y30251D01*
X223876Y30487D01*
Y32059D01*
X224039Y32874D01*
X224500Y32966D01*
X224891Y33227D01*
X232434Y40770D01*
X232434Y40770D01*
X232695Y41161D01*
X232787Y41622D01*
X232787Y41622D01*
Y58167D01*
X234478D01*
Y64073D01*
X232787D01*
Y68559D01*
X232817Y68583D01*
X233291Y69200D01*
X233588Y69918D01*
X233690Y70689D01*
X233588Y71460D01*
X233291Y72178D01*
X232817Y72795D01*
X232201Y73268D01*
X231482Y73565D01*
X230712Y73667D01*
X229941Y73565D01*
X229222Y73268D01*
X228606Y72795D01*
X228132Y72178D01*
X227835Y71460D01*
X227825Y71388D01*
X227753Y71280D01*
X227662Y70820D01*
X227753Y70359D01*
X227782Y70315D01*
X227835Y69918D01*
X228132Y69200D01*
X228606Y68583D01*
X229222Y68109D01*
X229941Y67812D01*
X230378Y67754D01*
Y64073D01*
X229360D01*
Y58167D01*
X230378D01*
Y42121D01*
X224338Y36081D01*
X223876Y36272D01*
Y37858D01*
X223876Y37858D01*
Y37976D01*
X223876D01*
Y40182D01*
X223876Y40182D01*
X223876Y40417D01*
Y40427D01*
Y40476D01*
X223876Y40535D01*
X223876Y40771D01*
X223876Y40771D01*
X223876D01*
Y42976D01*
X217577D01*
Y40771D01*
X217577Y40771D01*
X217577D01*
X217577Y40535D01*
Y40417D01*
X217577D01*
X217577Y40401D01*
X215830D01*
X214780Y41450D01*
X214816Y41537D01*
X214904Y42205D01*
Y68661D01*
X214816Y69330D01*
X214709Y69587D01*
X214558Y69952D01*
X214148Y70486D01*
X207667Y76968D01*
X207132Y77378D01*
X206821Y77507D01*
X206845Y77628D01*
X265493D01*
X265684Y77166D01*
D02*
G37*
%LPC*%
G36*
X8398Y28237D02*
X5839D01*
X4560Y26958D01*
Y22430D01*
X5839Y21151D01*
X8398D01*
X9678Y22430D01*
Y26958D01*
X8398Y28237D01*
D02*
G37*
G36*
X199283Y36388D02*
X194952D01*
Y33934D01*
X191204Y30186D01*
X179128D01*
X178513Y30064D01*
X178356Y29958D01*
X176569D01*
Y27202D01*
X178356D01*
X178513Y27097D01*
X179128Y26974D01*
X191869D01*
X191869Y26974D01*
X192382Y27076D01*
X192483Y27097D01*
X193004Y27445D01*
X193004Y27445D01*
X193004Y27445D01*
X195050Y29491D01*
X195512Y29299D01*
Y27495D01*
X194952D01*
Y22377D01*
X199283D01*
Y27495D01*
X198723D01*
Y31270D01*
X199283D01*
Y36388D01*
D02*
G37*
G36*
X8398Y19970D02*
X5839D01*
X4560Y18690D01*
Y14162D01*
X5839Y12883D01*
X8398D01*
X9678Y14162D01*
Y18690D01*
X8398Y19970D01*
D02*
G37*
G36*
X169482Y22478D02*
X164364D01*
Y19722D01*
X169482D01*
Y22478D01*
D02*
G37*
G36*
X330707Y40882D02*
X330092Y40760D01*
X329571Y40411D01*
X329223Y39891D01*
X329101Y39276D01*
Y33371D01*
X329223Y32756D01*
X329503Y32338D01*
Y28065D01*
X327561D01*
Y22946D01*
X331892D01*
Y26388D01*
X331911Y26486D01*
X331911Y26486D01*
Y32338D01*
X332190Y32756D01*
X332312Y33371D01*
Y39276D01*
X332190Y39891D01*
X331842Y40411D01*
X331321Y40760D01*
X330707Y40882D01*
D02*
G37*
G36*
X386160Y35914D02*
X385235Y35792D01*
X384373Y35435D01*
X383633Y34867D01*
X383065Y34127D01*
X382708Y33265D01*
X382586Y32340D01*
X382708Y31415D01*
X383065Y30553D01*
X383633Y29813D01*
X384373Y29245D01*
X385235Y28888D01*
X386160Y28766D01*
X387085Y28888D01*
X387947Y29245D01*
X388687Y29813D01*
X389255Y30553D01*
X389612Y31415D01*
X389734Y32340D01*
X389612Y33265D01*
X389255Y34127D01*
X388687Y34867D01*
X387947Y35435D01*
X387085Y35792D01*
X386160Y35914D01*
D02*
G37*
G36*
X6371Y38795D02*
X5446Y38674D01*
X4584Y38317D01*
X3844Y37749D01*
X3275Y37008D01*
X2919Y36146D01*
X2797Y35221D01*
Y33253D01*
X2919Y32328D01*
X3275Y31466D01*
X3844Y30726D01*
X4584Y30158D01*
X5446Y29801D01*
X6371Y29679D01*
X7296Y29801D01*
X8157Y30158D01*
X8898Y30726D01*
X9466Y31466D01*
X9823Y32328D01*
X9944Y33253D01*
Y35221D01*
X9823Y36146D01*
X9466Y37008D01*
X8898Y37749D01*
X8157Y38317D01*
X7296Y38674D01*
X6371Y38795D01*
D02*
G37*
G36*
X169614Y52962D02*
X163314D01*
Y44998D01*
X156449Y38132D01*
X147283D01*
X146615Y38044D01*
X146433Y37969D01*
X145993Y37786D01*
X145458Y37376D01*
X143106Y35024D01*
X142695Y34489D01*
X142600Y34259D01*
X142438Y33867D01*
X142350Y33198D01*
Y31233D01*
X134820D01*
X134592Y31203D01*
X129252D01*
X128584Y31115D01*
X127961Y30857D01*
X127427Y30447D01*
X127017Y29913D01*
X126759Y29290D01*
X126671Y28622D01*
X126759Y27954D01*
X127017Y27332D01*
X127427Y26797D01*
X127961Y26387D01*
X128584Y26129D01*
X129252Y26041D01*
X131810D01*
Y26037D01*
X134596D01*
X134763Y26014D01*
X134931Y26037D01*
X137716D01*
Y26071D01*
X144931D01*
X145098Y26093D01*
X147096D01*
Y27270D01*
X147166Y27361D01*
X147424Y27984D01*
X147512Y28652D01*
Y32129D01*
X148353Y32970D01*
X157518D01*
X158186Y33058D01*
X158498Y33187D01*
X158809Y33316D01*
X159343Y33726D01*
X162853Y37235D01*
X163314Y37044D01*
Y36033D01*
X164342D01*
Y28580D01*
Y25984D01*
X164364Y25817D01*
Y23462D01*
X166475D01*
X166923Y23403D01*
X167371Y23462D01*
X169482D01*
Y25817D01*
X169504Y25984D01*
Y28580D01*
Y36033D01*
X169614D01*
Y52962D01*
D02*
G37*
G36*
X267532Y34747D02*
X263202D01*
Y29629D01*
X267532D01*
Y30984D01*
X272565D01*
Y30206D01*
Y28267D01*
X269790Y25492D01*
X267532D01*
Y26847D01*
X263202D01*
Y21729D01*
X267532D01*
Y23083D01*
X270289D01*
X270289Y23083D01*
X270750Y23175D01*
X271140Y23436D01*
X274564Y26859D01*
X276896D01*
Y30206D01*
Y33946D01*
X272565D01*
Y33392D01*
X267532D01*
Y34747D01*
D02*
G37*
G36*
X309100Y44222D02*
X306344D01*
Y39852D01*
X299201Y32709D01*
X296180D01*
Y27591D01*
X297141D01*
Y24549D01*
X296797D01*
Y21528D01*
X295487Y20218D01*
X295226Y19827D01*
X295134Y19367D01*
X295134Y19367D01*
Y14694D01*
X294855Y14276D01*
X294733Y13661D01*
X294855Y13047D01*
X295203Y12526D01*
X295724Y12178D01*
X296339Y12056D01*
X296953Y12178D01*
X297474Y12526D01*
X297822Y13047D01*
X297944Y13661D01*
X297822Y14276D01*
X297543Y14694D01*
Y18868D01*
X298106Y19431D01*
X301127D01*
Y24549D01*
X299549D01*
Y27591D01*
X300511D01*
Y30612D01*
X308574Y38675D01*
X308835Y39066D01*
X308842Y39104D01*
X309100D01*
Y44222D01*
D02*
G37*
G36*
X153395Y31211D02*
X149065D01*
Y29211D01*
X149014Y29095D01*
X148915Y28429D01*
X148649Y12368D01*
X148726Y11699D01*
X148974Y11072D01*
X149061Y10953D01*
Y9763D01*
X151062D01*
X151187Y9744D01*
X151349Y9763D01*
X153392D01*
Y10933D01*
X153444Y10998D01*
X153712Y11616D01*
X153811Y12282D01*
X154041Y26178D01*
X156750D01*
X157595Y26346D01*
X158311Y26825D01*
X158790Y27541D01*
X158958Y28386D01*
X158790Y29231D01*
X158311Y29947D01*
X157595Y30426D01*
X156750Y30594D01*
X153395D01*
Y31211D01*
D02*
G37*
G36*
X267532Y19527D02*
X263202D01*
Y14409D01*
X267532D01*
Y15763D01*
X272565D01*
Y15278D01*
Y13339D01*
X269568Y10342D01*
X267532D01*
Y11697D01*
X263202D01*
Y6578D01*
X267532D01*
Y7933D01*
X270066D01*
X270066Y7933D01*
X270527Y8025D01*
X270918Y8286D01*
X274564Y11931D01*
X276896D01*
Y15278D01*
Y19018D01*
X272565D01*
Y18172D01*
X267532D01*
Y19527D01*
D02*
G37*
G36*
X6449Y11756D02*
X5524Y11634D01*
X4662Y11277D01*
X3922Y10709D01*
X3354Y9969D01*
X2997Y9107D01*
X2875Y8182D01*
Y6213D01*
X2997Y5289D01*
X3354Y4427D01*
X3922Y3686D01*
X4662Y3118D01*
X5524Y2761D01*
X6449Y2640D01*
X7374Y2761D01*
X8236Y3118D01*
X8976Y3686D01*
X9544Y4427D01*
X9901Y5289D01*
X10023Y6213D01*
Y8182D01*
X9901Y9107D01*
X9544Y9969D01*
X8976Y10709D01*
X8236Y11277D01*
X7374Y11634D01*
X6449Y11756D01*
D02*
G37*
G36*
X14488Y14702D02*
X13758Y14557D01*
X13140Y14143D01*
X12727Y13525D01*
X12582Y12795D01*
X12727Y12066D01*
X13140Y11447D01*
X13758Y11034D01*
X13875Y11011D01*
X14020Y10532D01*
X13024Y9536D01*
Y5993D01*
X14796Y4221D01*
X18339D01*
X20111Y5993D01*
Y9536D01*
X18339Y11308D01*
X16274D01*
X16038Y11749D01*
X16250Y12066D01*
X16395Y12795D01*
X16250Y13525D01*
X15836Y14143D01*
X15218Y14557D01*
X14488Y14702D01*
D02*
G37*
G36*
X169034Y17325D02*
X168573Y17233D01*
X168183Y16972D01*
X167922Y16582D01*
X167830Y16121D01*
Y12076D01*
X167922Y11615D01*
X168183Y11224D01*
X168573Y10963D01*
X169034Y10871D01*
X169495Y10963D01*
X169886Y11224D01*
X170147Y11615D01*
X170238Y12076D01*
Y16121D01*
X170147Y16582D01*
X169886Y16972D01*
X169495Y17233D01*
X169034Y17325D01*
D02*
G37*
G36*
X56632Y27159D02*
X53051D01*
Y20073D01*
X53236D01*
Y15425D01*
X52331D01*
Y11094D01*
X57449D01*
Y15425D01*
X56447D01*
Y20073D01*
X56632D01*
Y27159D01*
D02*
G37*
G36*
X61632D02*
X58051D01*
Y20073D01*
X58236D01*
Y16938D01*
X58236Y16938D01*
X58338Y16425D01*
X58358Y16323D01*
X58706Y15803D01*
X60861Y13648D01*
Y11194D01*
X65979D01*
Y15525D01*
X63525D01*
X61447Y17603D01*
Y20073D01*
X61632D01*
Y27159D01*
D02*
G37*
G36*
X176554Y17286D02*
X176093Y17195D01*
X175703Y16933D01*
X175442Y16543D01*
X175350Y16082D01*
Y12076D01*
X175442Y11615D01*
X175703Y11224D01*
X176093Y10963D01*
X176554Y10871D01*
X177015Y10963D01*
X177406Y11224D01*
X177667Y11615D01*
X177759Y12076D01*
Y16082D01*
X177667Y16543D01*
X177406Y16933D01*
X177015Y17195D01*
X176554Y17286D01*
D02*
G37*
G36*
X184940Y17089D02*
X184479Y16998D01*
X184089Y16737D01*
X183828Y16346D01*
X183736Y15885D01*
Y12076D01*
X183828Y11615D01*
X184089Y11224D01*
X184479Y10963D01*
X184940Y10871D01*
X185401Y10963D01*
X185792Y11224D01*
X186053Y11615D01*
X186144Y12076D01*
Y15885D01*
X186053Y16346D01*
X185792Y16737D01*
X185401Y16998D01*
X184940Y17089D01*
D02*
G37*
G36*
X36659Y42036D02*
X31541D01*
Y37705D01*
X32449D01*
Y36220D01*
X32572Y35606D01*
X32920Y35085D01*
X33441Y34737D01*
X34055Y34615D01*
X34670Y34737D01*
X35190Y35085D01*
X35539Y35606D01*
X35661Y36220D01*
X35661Y36220D01*
X35661Y36220D01*
Y36220D01*
Y37705D01*
X36659D01*
Y42036D01*
D02*
G37*
G36*
X309100Y56427D02*
X306344D01*
Y55072D01*
X298961D01*
Y55222D01*
X293843D01*
Y54261D01*
X292781D01*
X292781Y54261D01*
X292320Y54169D01*
X291930Y53908D01*
X291194Y53173D01*
X290933Y52782D01*
X290842Y52321D01*
X290842Y52321D01*
Y32709D01*
X289880D01*
Y27591D01*
X291065D01*
Y24549D01*
X290104D01*
Y19431D01*
X294434D01*
Y24549D01*
X293473D01*
Y27591D01*
X294211D01*
Y32709D01*
X293250D01*
Y51823D01*
X293280Y51853D01*
X293843D01*
Y50892D01*
X298961D01*
Y52664D01*
X306344D01*
Y51309D01*
X309100D01*
Y56427D01*
D02*
G37*
G36*
X267532Y64835D02*
X263202D01*
Y59717D01*
X267532D01*
Y61071D01*
X272565D01*
Y60528D01*
Y58589D01*
X269738Y55762D01*
X267532D01*
Y57117D01*
X263202D01*
Y51999D01*
X267532D01*
Y53354D01*
X270237D01*
X270237Y53354D01*
X270698Y53446D01*
X271089Y53707D01*
X274564Y57182D01*
X276896D01*
Y60528D01*
Y64268D01*
X272565D01*
Y63480D01*
X267532D01*
Y64835D01*
D02*
G37*
G36*
X221469Y73210D02*
X220390Y73067D01*
X219384Y72651D01*
X218520Y71988D01*
X217858Y71125D01*
X217441Y70119D01*
X217299Y69040D01*
X217441Y67961D01*
X217858Y66955D01*
X218520Y66092D01*
X219384Y65429D01*
X220390Y65013D01*
X221469Y64871D01*
X222548Y65013D01*
X223553Y65429D01*
X224417Y66092D01*
X225080Y66955D01*
X225496Y67961D01*
X225638Y69040D01*
X225496Y70119D01*
X225080Y71125D01*
X224417Y71988D01*
X223553Y72651D01*
X222548Y73067D01*
X221469Y73210D01*
D02*
G37*
G36*
X10373Y62133D02*
X3287D01*
Y55047D01*
X10373D01*
Y55742D01*
X36079D01*
X36747Y55830D01*
X37005Y55937D01*
X37369Y56088D01*
X37904Y56498D01*
X37967Y56561D01*
X38377Y57095D01*
X38506Y57407D01*
X38635Y57718D01*
X38723Y58386D01*
X38635Y59054D01*
X38506Y59365D01*
X38377Y59676D01*
X37967Y60211D01*
X37432Y60621D01*
X37202Y60716D01*
X36810Y60879D01*
X36142Y60967D01*
X35664Y60904D01*
X10373D01*
Y62133D01*
D02*
G37*
G36*
X53295Y73689D02*
X48965D01*
Y68571D01*
X53295D01*
Y69524D01*
X54307D01*
X56780Y67051D01*
Y60350D01*
X53757Y57327D01*
X53295Y57519D01*
Y58089D01*
X48965D01*
Y55635D01*
X48706Y55377D01*
X48358Y54856D01*
X48338Y54754D01*
X48236Y54242D01*
X48236Y54242D01*
Y49659D01*
X48051D01*
Y42573D01*
X51632D01*
Y49659D01*
X51447D01*
Y52971D01*
X53295D01*
Y53924D01*
X54231D01*
X54231Y53924D01*
X54743Y54026D01*
X54845Y54047D01*
X55366Y54395D01*
X59521Y58550D01*
X59521Y58550D01*
X59869Y59071D01*
X59890Y59172D01*
X59992Y59685D01*
X59992Y59685D01*
Y67716D01*
X59992Y67716D01*
X59869Y68331D01*
X59754Y68504D01*
X59521Y68852D01*
X59521Y68852D01*
X56108Y72265D01*
X55587Y72613D01*
X55485Y72634D01*
X54972Y72736D01*
X54972Y72736D01*
X53295D01*
Y73689D01*
D02*
G37*
G36*
X76880Y72117D02*
X72550D01*
Y66999D01*
X73109D01*
Y61149D01*
X72095D01*
Y58393D01*
X74034D01*
X74101Y58348D01*
X74715Y58226D01*
X75330Y58348D01*
X75396Y58393D01*
X77213D01*
Y61149D01*
X76321D01*
Y66999D01*
X76880D01*
Y72117D01*
D02*
G37*
G36*
X386160Y65914D02*
X385235Y65792D01*
X384373Y65435D01*
X383633Y64867D01*
X383065Y64127D01*
X382708Y63265D01*
X382586Y62340D01*
X382708Y61415D01*
X382949Y60832D01*
X377409Y55292D01*
X360900D01*
Y56647D01*
X356569D01*
Y51529D01*
X357380D01*
Y47387D01*
X356419D01*
Y42269D01*
X360750D01*
Y47387D01*
X359789D01*
Y51529D01*
X360900D01*
Y52884D01*
X377908D01*
X377908Y52884D01*
X378369Y52975D01*
X378760Y53236D01*
X384652Y59129D01*
X385235Y58888D01*
X386160Y58766D01*
X387085Y58888D01*
X387947Y59245D01*
X388687Y59813D01*
X389255Y60553D01*
X389612Y61415D01*
X389734Y62340D01*
X389612Y63265D01*
X389255Y64127D01*
X388687Y64867D01*
X387947Y65435D01*
X387085Y65792D01*
X386160Y65914D01*
D02*
G37*
G36*
X79416Y58612D02*
X78748Y58524D01*
X78126Y58266D01*
X77591Y57855D01*
X77423Y57636D01*
X67713D01*
Y58602D01*
X61807D01*
Y53484D01*
X67713D01*
Y54425D01*
X77423D01*
X77591Y54205D01*
X78126Y53795D01*
X78748Y53537D01*
X79416Y53449D01*
X80084Y53537D01*
X80707Y53795D01*
X81241Y54205D01*
X81652Y54740D01*
X81909Y55362D01*
X81997Y56030D01*
X81909Y56698D01*
X81652Y57321D01*
X81241Y57855D01*
X80707Y58266D01*
X80084Y58524D01*
X79416Y58612D01*
D02*
G37*
G36*
X330784Y64322D02*
X330169Y64200D01*
X329648Y63852D01*
X329300Y63331D01*
X329178Y62717D01*
X329300Y62102D01*
X329503Y61799D01*
Y60781D01*
X329223Y60363D01*
X329101Y59749D01*
Y58000D01*
X327312D01*
Y59749D01*
X327190Y60363D01*
X326842Y60884D01*
X326321Y61232D01*
X325707Y61354D01*
X325092Y61232D01*
X324571Y60884D01*
X324223Y60363D01*
X324101Y59749D01*
Y53843D01*
X324223Y53228D01*
X324571Y52708D01*
X325092Y52359D01*
X325707Y52237D01*
X326321Y52359D01*
X326842Y52708D01*
X327190Y53228D01*
X327312Y53843D01*
Y55591D01*
X329101D01*
Y53843D01*
X329223Y53228D01*
X329571Y52708D01*
X330092Y52359D01*
X330707Y52237D01*
X331321Y52359D01*
X331842Y52708D01*
X332190Y53228D01*
X332312Y53843D01*
Y59749D01*
X332190Y60363D01*
X331911Y60781D01*
Y61576D01*
X331919Y61581D01*
X332267Y62102D01*
X332389Y62717D01*
X332267Y63331D01*
X331919Y63852D01*
X331398Y64200D01*
X330784Y64322D01*
D02*
G37*
G36*
X298961Y48923D02*
X293843D01*
Y44592D01*
X298961D01*
Y45567D01*
X299795D01*
X300212Y45288D01*
X300827Y45166D01*
X301441Y45288D01*
X301962Y45636D01*
X302310Y46157D01*
X302432Y46772D01*
X302310Y47386D01*
X301962Y47907D01*
X301441Y48255D01*
X300827Y48377D01*
X300212Y48255D01*
X299795Y47976D01*
X298961D01*
Y48923D01*
D02*
G37*
G36*
X386160Y45914D02*
X385235Y45792D01*
X384373Y45435D01*
X383633Y44867D01*
X383065Y44127D01*
X382708Y43265D01*
X382586Y42340D01*
X382708Y41415D01*
X382949Y40832D01*
X379627Y37510D01*
X360628D01*
Y38865D01*
X356297D01*
Y33747D01*
X360628D01*
Y35102D01*
X380126D01*
X380126Y35102D01*
X380587Y35193D01*
X380978Y35454D01*
X384652Y39129D01*
X385235Y38888D01*
X386160Y38766D01*
X387085Y38888D01*
X387947Y39245D01*
X388687Y39813D01*
X389255Y40553D01*
X389612Y41415D01*
X389734Y42340D01*
X389612Y43265D01*
X389255Y44127D01*
X388687Y44867D01*
X387947Y45435D01*
X387085Y45792D01*
X386160Y45914D01*
D02*
G37*
G36*
X261233Y42167D02*
X256903D01*
Y40812D01*
X255986D01*
X255922Y40799D01*
X255630Y40858D01*
X255015Y40735D01*
X254495Y40387D01*
X254147Y39866D01*
X254024Y39252D01*
X254147Y38638D01*
X254495Y38117D01*
X255015Y37769D01*
X255630Y37646D01*
X256244Y37769D01*
X256462Y37914D01*
X256903Y37678D01*
Y37049D01*
X261233D01*
Y42167D01*
D02*
G37*
G36*
X185107Y65673D02*
X177627D01*
Y61919D01*
X177615Y61904D01*
X177432Y61463D01*
X177357Y61281D01*
X177269Y60613D01*
Y52962D01*
X176700D01*
Y44998D01*
X171128Y39425D01*
X170717Y38890D01*
X170535Y38450D01*
X170460Y38268D01*
X170372Y37600D01*
Y24449D01*
X170372Y24449D01*
X170372D01*
X170460Y23781D01*
X170717Y23158D01*
X171128Y22624D01*
X171128Y22624D01*
X172672Y21079D01*
X173207Y20669D01*
X173829Y20411D01*
X174497Y20323D01*
X175165Y20411D01*
X175252Y20447D01*
X175450Y20248D01*
X175450Y20248D01*
X175684Y20092D01*
X175841Y19987D01*
X176302Y19896D01*
X176569D01*
Y19722D01*
X181687D01*
Y22478D01*
X177401D01*
X177072Y22854D01*
X177078Y22904D01*
X176990Y23572D01*
X176733Y24195D01*
X176322Y24730D01*
X175534Y25518D01*
Y36531D01*
X176238Y37235D01*
X176700Y37044D01*
Y36033D01*
X183000D01*
Y52962D01*
X182431D01*
Y58587D01*
X185107D01*
Y65673D01*
D02*
G37*
G36*
X241426Y73667D02*
X240656Y73565D01*
X239937Y73268D01*
X239321Y72795D01*
X238847Y72178D01*
X238550Y71460D01*
X238448Y70689D01*
X238550Y69918D01*
X238847Y69200D01*
X239321Y68583D01*
X239937Y68109D01*
X240656Y67812D01*
X241426Y67710D01*
X241890Y67772D01*
X241896Y67762D01*
X242417Y67414D01*
X243032Y67292D01*
X243646Y67414D01*
X244167Y67762D01*
X244515Y68283D01*
X244637Y68898D01*
X244515Y69512D01*
X244281Y69863D01*
X244303Y69918D01*
X244405Y70689D01*
X244303Y71460D01*
X244006Y72178D01*
X243532Y72795D01*
X242916Y73268D01*
X242197Y73565D01*
X241426Y73667D01*
D02*
G37*
G36*
X267532Y49697D02*
X263202D01*
Y44579D01*
X267532D01*
Y45934D01*
X272565D01*
Y45288D01*
Y43349D01*
X270028Y40812D01*
X267532D01*
Y42167D01*
X263202D01*
Y37049D01*
X267532D01*
Y38404D01*
X270527D01*
X270527Y38404D01*
X270988Y38495D01*
X271378Y38756D01*
X274564Y41941D01*
X276896D01*
Y45288D01*
Y49028D01*
X272565D01*
Y48342D01*
X267532D01*
Y49697D01*
D02*
G37*
G36*
X44842Y66080D02*
X44756Y66069D01*
X42665D01*
Y64867D01*
X42606Y64790D01*
X42349Y64167D01*
X42261Y63499D01*
Y48751D01*
X29319D01*
X28651Y48663D01*
X28469Y48587D01*
X28029Y48405D01*
X27494Y47995D01*
X23805Y44305D01*
X23395Y43771D01*
X23299Y43541D01*
X23137Y43148D01*
X23049Y42480D01*
Y26981D01*
X21313D01*
Y27056D01*
X16248D01*
X16012Y27497D01*
X16250Y27853D01*
X16395Y28583D01*
X16250Y29312D01*
X16211Y29371D01*
X16446Y29812D01*
X18339D01*
X20111Y31584D01*
Y35127D01*
X18339Y36899D01*
X14796D01*
X13024Y35127D01*
Y31584D01*
X13783Y30825D01*
X13734Y30328D01*
X13140Y29931D01*
X12727Y29312D01*
X12582Y28583D01*
X12727Y27853D01*
X13140Y27234D01*
X13758Y26821D01*
X14226Y26728D01*
Y24497D01*
Y22292D01*
X14226Y22292D01*
X14226D01*
X14226Y21938D01*
X14226Y21938D01*
D01*
D01*
Y21938D01*
X14226D01*
D01*
Y19733D01*
X14226Y19733D01*
X14226D01*
X14226Y19379D01*
D01*
X14226Y19379D01*
D01*
D01*
Y19379D01*
X14226D01*
D01*
Y16820D01*
X21313D01*
Y19025D01*
X21313Y19025D01*
D01*
D01*
X21313Y19379D01*
D01*
Y19379D01*
X21313Y19379D01*
Y19379D01*
D01*
Y19379D01*
Y19379D01*
D01*
X21313Y19733D01*
D01*
Y21585D01*
D01*
D01*
D01*
X21313D01*
X21313Y21938D01*
D01*
Y21938D01*
X21313Y21938D01*
X21313Y22292D01*
D01*
Y24497D01*
Y24572D01*
X23049D01*
Y13268D01*
X23137Y12600D01*
X23266Y12288D01*
X23395Y11977D01*
X23805Y11443D01*
X30112Y5135D01*
X30647Y4725D01*
X31087Y4543D01*
X31269Y4467D01*
X31937Y4379D01*
X54890D01*
X55558Y4467D01*
X56181Y4725D01*
X56272Y4795D01*
X57449D01*
Y6793D01*
X57471Y6960D01*
X57449Y7128D01*
Y9126D01*
X56272D01*
X56181Y9196D01*
X55558Y9454D01*
X54890Y9542D01*
X48686D01*
Y9542D01*
Y9557D01*
X48686Y9895D01*
X48686Y9895D01*
X48686D01*
Y12798D01*
X50977Y15089D01*
X50977Y15089D01*
X51325Y15610D01*
X51447Y16225D01*
Y20073D01*
X51632D01*
Y27159D01*
X48051D01*
Y20073D01*
X48236D01*
Y16890D01*
X46809Y15463D01*
X43568D01*
Y9895D01*
X43568Y9895D01*
X43568D01*
X43568Y9557D01*
X43552Y9542D01*
X40812D01*
Y9542D01*
Y9557D01*
X40812Y9895D01*
X40812Y9895D01*
X40812D01*
Y14447D01*
X45977Y19612D01*
X45977Y19612D01*
X46285Y20073D01*
X46632D01*
Y27159D01*
X43051D01*
Y21227D01*
X37286Y15463D01*
X35694D01*
Y14517D01*
X33927D01*
X33159Y14364D01*
X32508Y13929D01*
X32073Y13278D01*
X31920Y12510D01*
X32073Y11742D01*
X32508Y11091D01*
X33159Y10656D01*
X33927Y10503D01*
X35694D01*
Y9895D01*
X35694Y9895D01*
X35694D01*
X35694Y9557D01*
X35678Y9542D01*
X33006D01*
X28211Y14337D01*
Y24797D01*
X31360Y27946D01*
X34100D01*
X34268Y27968D01*
X37053D01*
Y33086D01*
X34268D01*
X34100Y33108D01*
X30291D01*
X29623Y33020D01*
X29365Y32913D01*
X29000Y32762D01*
X28659Y32501D01*
X28211Y32722D01*
Y41411D01*
X30388Y43589D01*
X43051D01*
Y42573D01*
X46632D01*
Y44264D01*
X46667Y44291D01*
X47077Y44826D01*
X47335Y45448D01*
X47423Y46116D01*
Y63499D01*
X47335Y64167D01*
X47077Y64790D01*
X46996Y64895D01*
Y66069D01*
X44927D01*
X44842Y66080D01*
D02*
G37*
G36*
X54723Y52905D02*
X54210Y52803D01*
X54108Y52783D01*
X53587Y52435D01*
X53239Y51914D01*
X53219Y51812D01*
X53117Y51299D01*
X53219Y50787D01*
X53236Y50701D01*
Y49659D01*
X53051D01*
Y42573D01*
X56632D01*
Y49659D01*
X56447D01*
Y51180D01*
X56325Y51795D01*
X55977Y52316D01*
X55977Y52316D01*
X55858Y52435D01*
X55337Y52783D01*
X55235Y52803D01*
X54723Y52905D01*
D02*
G37*
G36*
X86859Y53896D02*
X86244Y53774D01*
X86086Y53668D01*
X84300D01*
Y50912D01*
X85253D01*
Y49247D01*
X81575Y45569D01*
X79121D01*
Y41363D01*
X78659Y41172D01*
X77175Y42657D01*
Y43010D01*
Y50460D01*
X77128Y50815D01*
X77213Y50912D01*
X77213D01*
Y53668D01*
X72095D01*
Y51086D01*
X72012Y50460D01*
Y43010D01*
Y41588D01*
X72070Y41147D01*
X71622Y40926D01*
X64607Y47941D01*
X64072Y48351D01*
X63761Y48480D01*
X63450Y48609D01*
X62782Y48697D01*
X61632D01*
Y49659D01*
X58051D01*
Y42573D01*
X61632D01*
Y42962D01*
X62094Y43153D01*
X69609Y35639D01*
X69464Y35160D01*
X69291Y35126D01*
X69189Y35105D01*
X68668Y34757D01*
X68320Y34236D01*
X68299Y34135D01*
X68198Y33622D01*
X68299Y33110D01*
X68320Y33008D01*
X68668Y32487D01*
X70265Y30889D01*
Y25961D01*
X70520D01*
X70576Y25680D01*
X71011Y25029D01*
X72447Y23593D01*
X72256Y23131D01*
X70432D01*
Y16832D01*
X87362D01*
Y23131D01*
X78586D01*
X74596Y27121D01*
Y29998D01*
X75058Y30190D01*
X76148Y29099D01*
Y28520D01*
X76236Y27852D01*
X76494Y27229D01*
X76564Y27138D01*
Y25961D01*
X78562D01*
X78730Y25939D01*
X83303D01*
X83425Y25923D01*
X84093Y26011D01*
X84276Y26086D01*
X84716Y26269D01*
X85250Y26679D01*
X85660Y27213D01*
X85812Y27578D01*
X85918Y27836D01*
X86006Y28504D01*
X85918Y29172D01*
X85812Y29430D01*
X85660Y29794D01*
X85250Y30329D01*
X85234Y30345D01*
X84700Y30755D01*
X84389Y30884D01*
X84077Y31013D01*
X83409Y31101D01*
X81113D01*
X81094Y31147D01*
X80965Y31459D01*
X80555Y31993D01*
X78708Y33840D01*
X78929Y34289D01*
X79369Y34231D01*
X88119D01*
Y28347D01*
X94418D01*
Y45276D01*
X88119D01*
Y39393D01*
X80438D01*
X79842Y39989D01*
X80034Y40451D01*
X83452D01*
Y42905D01*
X87994Y47447D01*
X87994Y47447D01*
X88342Y47968D01*
X88362Y48070D01*
X88464Y48582D01*
X88464Y48582D01*
Y50912D01*
X89418D01*
Y53668D01*
X87631D01*
X87473Y53774D01*
X86859Y53896D01*
D02*
G37*
G36*
X195429Y43904D02*
X189393D01*
X188932Y43813D01*
X188541Y43551D01*
X188280Y43161D01*
X188189Y42700D01*
X188280Y42239D01*
X188541Y41848D01*
X188932Y41587D01*
X189393Y41496D01*
X195429D01*
X195889Y41587D01*
X196280Y41848D01*
X196541Y42239D01*
X196633Y42700D01*
X196541Y43161D01*
X196280Y43551D01*
X195889Y43813D01*
X195429Y43904D01*
D02*
G37*
%LPD*%
D10*
X52342Y34866D02*
D03*
D11*
X44842Y23616D02*
D03*
X49842D02*
D03*
X54842D02*
D03*
X59842D02*
D03*
Y46116D02*
D03*
X54842D02*
D03*
X49842D02*
D03*
X44842D02*
D03*
D12*
X78730Y28520D02*
D03*
X72430D02*
D03*
X44831Y71130D02*
D03*
X51130D02*
D03*
Y63510D02*
D03*
X44831D02*
D03*
X51130Y55530D02*
D03*
X44831D02*
D03*
X197118Y33829D02*
D03*
X203417D02*
D03*
X81014Y69558D02*
D03*
X74715D02*
D03*
X95675D02*
D03*
X101974D02*
D03*
X102014Y62064D02*
D03*
X95715D02*
D03*
X151227Y12322D02*
D03*
X144534D02*
D03*
X151226Y20426D02*
D03*
X144927D02*
D03*
X151230Y28652D02*
D03*
X144931D02*
D03*
X203417Y8686D02*
D03*
X197118D02*
D03*
X203417Y16696D02*
D03*
X197118D02*
D03*
Y24936D02*
D03*
X203417D02*
D03*
X265367Y62276D02*
D03*
X259068D02*
D03*
X265367Y54558D02*
D03*
X259068D02*
D03*
X265367Y47138D02*
D03*
X259068D02*
D03*
X265367Y39608D02*
D03*
X259068D02*
D03*
X265367Y32188D02*
D03*
X259068D02*
D03*
X265367Y24288D02*
D03*
X259068D02*
D03*
X265367Y16968D02*
D03*
X259068D02*
D03*
X265367Y9138D02*
D03*
X259068D02*
D03*
X298345Y30150D02*
D03*
X292046D02*
D03*
X298962Y21990D02*
D03*
X292269D02*
D03*
X312415Y30090D02*
D03*
X306116D02*
D03*
Y22080D02*
D03*
X312415D02*
D03*
X323033Y25505D02*
D03*
X329726D02*
D03*
X336970Y25499D02*
D03*
X343663D02*
D03*
X358734Y54088D02*
D03*
X352435D02*
D03*
X352285Y44828D02*
D03*
X358584D02*
D03*
X358463Y36306D02*
D03*
X352163D02*
D03*
X81287Y43010D02*
D03*
X74594D02*
D03*
D13*
X46127Y12510D02*
D03*
X38253D02*
D03*
X203303Y42700D02*
D03*
X195429D02*
D03*
X203303Y51020D02*
D03*
X195429D02*
D03*
X239792Y61120D02*
D03*
X231919D02*
D03*
D14*
X78897Y19981D02*
D03*
Y6596D02*
D03*
D15*
X63420Y7060D02*
D03*
Y13360D02*
D03*
X34100Y39870D02*
D03*
Y46170D02*
D03*
X54890Y13260D02*
D03*
Y6960D02*
D03*
X169034Y12076D02*
D03*
Y5383D02*
D03*
X176554D02*
D03*
Y12076D02*
D03*
X184940Y5383D02*
D03*
Y12076D02*
D03*
X296402Y53057D02*
D03*
Y46758D02*
D03*
D16*
X91268Y36812D02*
D03*
X104654D02*
D03*
X179850Y44497D02*
D03*
X166464D02*
D03*
D17*
X179128Y21100D02*
D03*
Y28580D02*
D03*
Y24840D02*
D03*
X166923D02*
D03*
Y28580D02*
D03*
Y21100D02*
D03*
X74654Y52290D02*
D03*
Y59771D02*
D03*
Y56030D02*
D03*
X86859D02*
D03*
Y59771D02*
D03*
Y52290D02*
D03*
D18*
X7119Y24694D02*
D03*
Y16426D02*
D03*
D19*
X16567Y7765D02*
D03*
Y33355D02*
D03*
D20*
X17769Y20658D02*
D03*
Y23217D02*
D03*
Y18099D02*
D03*
Y15540D02*
D03*
Y25776D02*
D03*
D21*
X220727Y41756D02*
D03*
X243364D02*
D03*
X220727Y39197D02*
D03*
Y36638D02*
D03*
Y34079D02*
D03*
Y31519D02*
D03*
Y28960D02*
D03*
Y26401D02*
D03*
Y23842D02*
D03*
Y21283D02*
D03*
Y18724D02*
D03*
X243364Y39197D02*
D03*
Y36638D02*
D03*
Y34079D02*
D03*
Y31519D02*
D03*
Y28960D02*
D03*
Y26401D02*
D03*
Y23842D02*
D03*
Y21283D02*
D03*
Y18724D02*
D03*
D22*
X30780Y58323D02*
D03*
Y66197D02*
D03*
X34100Y30527D02*
D03*
Y22653D02*
D03*
X64760Y56043D02*
D03*
Y63917D02*
D03*
X134763Y20721D02*
D03*
Y28596D02*
D03*
D23*
X230712Y70689D02*
D03*
X241426D02*
D03*
X252141D02*
D03*
X262857D02*
D03*
X273571D02*
D03*
D24*
X104429Y52814D02*
D03*
X94980D02*
D03*
D25*
X116510Y62355D02*
D03*
X116510Y44245D02*
D03*
D26*
X142101Y53300D02*
D03*
D27*
X164044Y62130D02*
D03*
X181367D02*
D03*
X341841Y15235D02*
D03*
X324518D02*
D03*
D28*
X274730Y59052D02*
D03*
X281030D02*
D03*
X274730Y62398D02*
D03*
X281030D02*
D03*
X274730Y43812D02*
D03*
X281030D02*
D03*
X274730Y47158D02*
D03*
X281030D02*
D03*
X274730Y28729D02*
D03*
X281030D02*
D03*
X274730Y32076D02*
D03*
X281030D02*
D03*
X274730Y13802D02*
D03*
X281030D02*
D03*
X274730Y17148D02*
D03*
X281030D02*
D03*
D29*
X315202Y41663D02*
D03*
X307722D02*
D03*
X311462Y53868D02*
D03*
X307722D02*
D03*
X315202D02*
D03*
D30*
X335707Y56796D02*
D03*
X330707D02*
D03*
X325707D02*
D03*
X340707Y36323D02*
D03*
X335707D02*
D03*
X330707D02*
D03*
X325707D02*
D03*
D31*
X340707Y56796D02*
D03*
D32*
X337362Y56875D02*
Y75157D01*
X108976Y62362D02*
X116503D01*
X122895Y52814D02*
X122913Y52795D01*
X104429Y52814D02*
X122895D01*
X179850Y60613D02*
X181367Y62130D01*
X179850Y44497D02*
Y60613D01*
X81014Y69558D02*
Y70581D01*
X85575Y75142D01*
X205842D01*
X184940Y5383D02*
X194121D01*
X176554D02*
X184940D01*
X169034D02*
X176554D01*
X127413D02*
X169034D01*
X116510Y16285D02*
X127413Y5383D01*
X116510Y16285D02*
Y44245D01*
X30780Y58323D02*
X36079D01*
X7097D02*
X30780D01*
X6830Y58590D02*
X7097Y58323D01*
X36079D02*
X36142Y58386D01*
X79369Y36812D02*
X91268D01*
X74594Y41588D02*
X79369Y36812D01*
X74594Y41588D02*
Y43010D01*
X60787Y46116D02*
X62782D01*
X78730Y30168D01*
Y28520D02*
Y30168D01*
X74594Y43010D02*
Y50460D01*
X134790Y28622D02*
X134820Y28652D01*
X134763Y28596D02*
X134790Y28622D01*
X83409Y28520D02*
X83425Y28504D01*
X78730Y28520D02*
X83409D01*
X166923Y28580D02*
Y44038D01*
Y25984D02*
Y28580D01*
X134820Y28652D02*
X144931D01*
Y33198D01*
X147283Y35551D01*
X157518D01*
X166464Y44497D01*
X151230Y12325D02*
X151496Y28386D01*
X166464Y44497D02*
X166923Y44038D01*
X44842Y46116D02*
Y63499D01*
X25630Y13268D02*
Y25866D01*
X34100Y46170D02*
X44055D01*
X29319D02*
X34100D01*
X25630Y42480D02*
X29319Y46170D01*
X25630Y25866D02*
Y42480D01*
X30291Y30527D02*
X34100D01*
X25630Y25866D02*
X30291Y30527D01*
X25630Y13268D02*
X31937Y6960D01*
X54890D01*
X211653Y3150D02*
X214882Y6378D01*
X202348Y3150D02*
X211653D01*
X194121Y5383D02*
X197118Y8380D01*
X352285Y36463D02*
Y44828D01*
X205842Y75142D02*
X212323Y68661D01*
Y42205D02*
Y68661D01*
X104654Y36812D02*
Y49683D01*
X104429Y52814D02*
Y59649D01*
X102014Y62064D02*
X104429Y59649D01*
X172953Y37600D02*
X179850Y44497D01*
X172953Y24449D02*
Y37600D01*
Y24449D02*
X172953D01*
X174497Y22904D01*
X186693Y69724D02*
X203417Y53000D01*
Y33829D02*
Y53000D01*
X164044Y62130D02*
Y69635D01*
X116772Y62094D02*
X124402Y69724D01*
X186693D01*
X262857Y70689D02*
X267849Y75681D01*
X314831D01*
X319055Y71457D01*
Y47638D02*
Y71457D01*
X129252Y28622D02*
X134790D01*
D33*
X72430Y28520D02*
Y30995D01*
X69803Y33622D02*
X72430Y30995D01*
X54723Y51299D02*
X54842Y51180D01*
Y46116D02*
Y51180D01*
X116503Y62362D02*
X116510Y62355D01*
X64650Y56030D02*
X79416D01*
X54972Y71130D02*
X58386Y67716D01*
Y59685D02*
Y67716D01*
X54231Y55530D02*
X58386Y59685D01*
X51130Y71130D02*
X54972D01*
X51130Y55530D02*
X54231D01*
X78897Y6596D02*
X79882Y5611D01*
X34055Y39825D02*
X34100Y39870D01*
X34055Y36220D02*
Y39825D01*
X81287Y43010D02*
X86859Y48582D01*
Y52290D01*
X151227Y12322D02*
X151230Y12325D01*
X49842Y54242D02*
X51130Y55530D01*
X49842Y46116D02*
Y54242D01*
X44842Y20747D02*
Y23616D01*
X38253Y14159D02*
X44842Y20747D01*
X38253Y12510D02*
Y14159D01*
X49842Y16225D02*
Y23616D01*
X46127Y12510D02*
X49842Y16225D01*
X59842Y16938D02*
X63420Y13360D01*
X59842Y16938D02*
Y23616D01*
X54842Y13308D02*
X54890Y13260D01*
X54842Y13308D02*
Y23616D01*
X74715Y59832D02*
Y69558D01*
X352146Y36323D02*
X352285Y36463D01*
X315202Y35506D02*
X317638Y33071D01*
Y18661D02*
Y33071D01*
X315118Y16142D02*
X317638Y18661D01*
X312054Y16142D02*
X315118D01*
X306116Y22080D02*
X312054Y16142D01*
X95715Y62064D02*
Y69389D01*
X86859Y59771D02*
X93422D01*
X95715Y62064D01*
X179128Y28580D02*
X191869D01*
X197118Y33829D01*
Y24755D02*
Y33829D01*
X238150Y29409D02*
Y47638D01*
X230024Y21283D02*
X238150Y29409D01*
X227047Y21283D02*
X230024D01*
X262041Y71529D02*
Y71849D01*
X261200Y70689D02*
X262857D01*
X238150Y47638D02*
X261200Y70689D01*
X315202Y35506D02*
Y43785D01*
D34*
X78897Y3032D02*
Y6596D01*
X72430Y26448D02*
X78897Y19981D01*
X72430Y26448D02*
Y28520D01*
X33927Y12510D02*
X38253D01*
D35*
X151496Y28386D02*
X156750D01*
X197118Y8380D02*
Y16696D01*
X214882Y6378D02*
Y19410D01*
X197118Y8380D02*
X202348Y3150D01*
X340707Y36323D02*
X352146D01*
X203303Y51020D02*
X203417Y50906D01*
X336732Y56796D02*
X339567D01*
X319055Y47638D02*
X336693D01*
X340707Y43624D01*
X315202Y43785D02*
X319055Y47638D01*
X340707Y28456D02*
Y43624D01*
D36*
X17769Y25776D02*
X25540D01*
X380126Y36306D02*
X386160Y42340D01*
X358463Y36306D02*
X380126D01*
X377908Y54088D02*
X386160Y62340D01*
X358734Y54088D02*
X377908D01*
X388385Y15235D02*
X391457Y18307D01*
X341841Y15235D02*
X388385D01*
X312415Y22080D02*
Y30090D01*
X211315Y36638D02*
X220727D01*
X74654Y59771D02*
X74715Y59832D01*
X95695Y69409D02*
X95730Y69445D01*
X176302Y21100D02*
X179128D01*
X203417Y8686D02*
X206599D01*
X211221Y13307D01*
Y26260D01*
X213921Y28960D01*
X220727D01*
X203417Y16696D02*
X205987D01*
X209055Y19764D01*
Y28858D01*
X214275Y34079D01*
X220727D01*
X214882Y19410D02*
X216756Y21283D01*
X243364Y41756D02*
X252126Y50517D01*
X243364Y39197D02*
X247937D01*
X255878Y47138D01*
X259068D01*
X243364Y34079D02*
X257177D01*
X259068Y32188D01*
X243364Y31519D02*
X249937D01*
X243364Y26401D02*
X248992D01*
X252992Y23043D02*
X259068Y16968D01*
X252992Y23043D02*
Y28465D01*
X249937Y31519D02*
X252992Y28465D01*
X251220Y16985D02*
X259068Y9138D01*
X251220Y16985D02*
Y24173D01*
X248992Y26401D02*
X251220Y24173D01*
X243364Y23842D02*
X247457D01*
X247480Y23819D01*
X255748Y24055D02*
X255980Y24288D01*
X259068D01*
X238134Y21283D02*
X243364D01*
X237795Y20945D02*
X238134Y21283D01*
X255630Y39252D02*
X255986Y39608D01*
X259068D01*
X234071Y18724D02*
X243364D01*
X233858Y18937D02*
X234071Y18724D01*
X254921Y54685D02*
X258941D01*
X259068Y54558D01*
X252126Y50517D02*
Y55334D01*
X259068Y62276D01*
X265367D02*
X274608D01*
X265367Y54558D02*
X270237D01*
X274730Y59052D01*
X265367Y47138D02*
X274711D01*
X265367Y39608D02*
X270527D01*
X274730Y43812D01*
X265367Y32188D02*
X274618D01*
X265367Y24288D02*
X270289D01*
X274730Y28729D01*
X265367Y16968D02*
X274550D01*
X265367Y9138D02*
X270066D01*
X274730Y13802D01*
X228866Y70820D02*
X229657Y71610D01*
X220727Y34079D02*
X224039D01*
X231582Y41622D01*
X216087Y31519D02*
X220727D01*
X215945Y31378D02*
X216087Y31519D01*
X220727Y23842D02*
X227386D01*
X235630Y32087D01*
X243364Y36638D02*
X246913D01*
X247119Y36843D01*
X220727Y28960D02*
X225220D01*
X315142Y53807D02*
X315202Y53868D01*
X386160Y52340D02*
X391457Y47043D01*
Y18307D02*
Y47043D01*
X330707Y62793D02*
X330784Y62717D01*
X329726Y25505D02*
X330707Y26486D01*
Y36323D01*
X358584Y44828D02*
Y53938D01*
X220727Y18724D02*
X225764D01*
X239989Y4499D01*
X337334D01*
X341841Y9007D01*
Y15235D01*
X292781Y53057D02*
X296402D01*
X297213Y53868D02*
X307722D01*
X296402Y53057D02*
X297213Y53868D01*
X307722Y39651D02*
Y41663D01*
X335707Y36323D02*
Y42836D01*
X335630Y42913D02*
X335707Y42836D01*
X296416Y46772D02*
X300827D01*
X296402Y46758D02*
X296416Y46772D01*
X215331Y39197D02*
X220727D01*
X212323Y42205D02*
X215331Y39197D01*
X312415Y30090D02*
Y46328D01*
X315142Y49055D01*
Y53807D01*
X235630Y32087D02*
Y49173D01*
X251087Y64630D01*
X325707Y56796D02*
X330707D01*
Y62793D01*
X296339Y13661D02*
Y19367D01*
X298345Y21373D01*
Y30150D01*
X307722Y39527D01*
Y41663D01*
X292046Y52321D02*
X292781Y53057D01*
X292046Y30150D02*
Y52321D01*
X292269Y21990D02*
Y29927D01*
X292046Y30150D02*
X292269Y29927D01*
X95695Y69409D02*
X95715Y69389D01*
X174497Y22904D02*
X176302Y21100D01*
X169034Y12076D02*
Y16121D01*
X176554Y12076D02*
Y16082D01*
X184940Y12076D02*
Y15885D01*
X243032Y68898D02*
Y69084D01*
X230712Y70689D02*
X231582Y69818D01*
Y41622D02*
Y69818D01*
X251087Y64630D02*
Y69634D01*
X252141Y70689D01*
X216756Y21283D02*
X227047D01*
X189393Y42700D02*
X195429D01*
D37*
X340707Y28456D02*
X343663Y25499D01*
D38*
X338032Y56870D02*
D03*
D39*
X14488Y12795D02*
D03*
Y28583D02*
D03*
D40*
X6449Y7198D02*
D03*
X6371Y34237D02*
D03*
D41*
X6830Y68590D02*
D03*
Y58590D02*
D03*
D42*
X386160Y52340D02*
D03*
Y42340D02*
D03*
Y32340D02*
D03*
Y62340D02*
D03*
D43*
Y22340D02*
D03*
D44*
X221469Y69040D02*
D03*
X196666D02*
D03*
D45*
X337362Y75157D02*
D03*
X108976Y62362D02*
D03*
X79416Y56030D02*
D03*
X36142Y58386D02*
D03*
X129252Y28622D02*
D03*
X83425Y28504D02*
D03*
D46*
X69803Y33622D02*
D03*
X54723Y51299D02*
D03*
X122913Y52795D02*
D03*
X78897Y3032D02*
D03*
X34055Y36220D02*
D03*
X59842Y16938D02*
D03*
X211315Y36638D02*
D03*
X247480Y23819D02*
D03*
X255748Y24055D02*
D03*
X237795Y20945D02*
D03*
X255630Y39252D02*
D03*
X233858Y18937D02*
D03*
X254921Y54685D02*
D03*
X215945Y31378D02*
D03*
X247119Y37031D02*
D03*
X296339Y13661D02*
D03*
X225220Y28960D02*
D03*
X330784Y62717D02*
D03*
X335630Y42913D02*
D03*
X300827Y46772D02*
D03*
X243032Y68898D02*
D03*
X156750Y28386D02*
D03*
X161772Y12087D02*
D03*
X245354Y12638D02*
D03*
X190984Y16457D02*
D03*
X189567Y22598D02*
D03*
X230748Y32205D02*
D03*
X228228Y50551D02*
D03*
X239646Y13465D02*
D03*
X250866Y10472D02*
D03*
X232520Y36693D02*
D03*
X220905Y46063D02*
D03*
X279882Y37638D02*
D03*
X219055Y49606D02*
D03*
X219961Y56890D02*
D03*
X287480Y21260D02*
D03*
X287559Y10866D02*
D03*
X277835Y7835D02*
D03*
X236063Y55787D02*
D03*
X291142Y61417D02*
D03*
X158207Y16339D02*
D03*
X172126Y17362D02*
D03*
X139427Y12520D02*
D03*
X267362Y68504D02*
D03*
X303307Y59331D02*
D03*
X160669Y24961D02*
D03*
X280827Y68701D02*
D03*
X282520Y53347D02*
D03*
X278583Y23583D02*
D03*
X287756Y36299D02*
D03*
X301220Y66063D02*
D03*
X20118Y12717D02*
D03*
X22165Y6535D02*
D03*
X29961Y71772D02*
D03*
X122756Y19213D02*
D03*
X33425Y17441D02*
D03*
X132813Y10551D02*
D03*
X129567Y15827D02*
D03*
X12677Y75748D02*
D03*
X67638Y7441D02*
D03*
X35787Y73661D02*
D03*
X61772Y73858D02*
D03*
X16654Y71772D02*
D03*
X55000Y63071D02*
D03*
X68583Y71653D02*
D03*
X184961Y22716D02*
D03*
X189331Y42638D02*
D03*
X189882Y57284D02*
D03*
X203228Y68032D02*
D03*
X207874Y45787D02*
D03*
X109803Y66850D02*
D03*
X301969Y16260D02*
D03*
X89016Y69252D02*
D03*
X332126Y6693D02*
D03*
X89567Y64134D02*
D03*
X84016Y63937D02*
D03*
X158504Y57913D02*
D03*
X113347Y68661D02*
D03*
X78504Y60590D02*
D03*
X123228Y39213D02*
D03*
X302165Y10866D02*
D03*
X333347Y68189D02*
D03*
X324449Y7283D02*
D03*
X295551Y67874D02*
D03*
X365079Y30079D02*
D03*
X376614Y69410D02*
D03*
X362992Y64882D02*
D03*
X366496Y74370D02*
D03*
X372284Y64055D02*
D03*
X349213Y26969D02*
D03*
X346969Y67953D02*
D03*
X363858Y73543D02*
D03*
X362165Y66890D02*
D03*
X351260Y69213D02*
D03*
X372677Y22677D02*
D03*
X364882Y58701D02*
D03*
X354134Y74961D02*
D03*
X350866Y58898D02*
D03*
X354764Y26575D02*
D03*
X366535Y46968D02*
D03*
X378661Y49449D02*
D03*
X346339Y45945D02*
D03*
X365905Y28858D02*
D03*
X375551Y31102D02*
D03*
X357638Y22244D02*
D03*
X366732Y20394D02*
D03*
X169034Y16121D02*
D03*
X176554Y16082D02*
D03*
X184940Y15885D02*
D03*
X48071Y32480D02*
D03*
X55787D02*
D03*
X52087D02*
D03*
X48071Y37008D02*
D03*
X52008D02*
D03*
X55945D02*
D03*
D47*
X33927Y12510D02*
D03*
M02*
