%FSLAX25Y25*%
%MOIN*%
G70*
G01*
G75*
G04 Layer_Color=16711935*
%ADD10R,0.12402X0.08898*%
%ADD11R,0.02400X0.05906*%
%ADD12R,0.03150X0.03937*%
%ADD13R,0.03937X0.04724*%
%ADD14R,0.15748X0.05118*%
%ADD15R,0.03937X0.03150*%
%ADD16R,0.05118X0.15748*%
%ADD17R,0.03937X0.01575*%
G04:AMPARAMS|DCode=18|XSize=39.37mil|YSize=59.06mil|CornerRadius=0mil|HoleSize=0mil|Usage=FLASHONLY|Rotation=180.000|XOffset=0mil|YOffset=0mil|HoleType=Round|Shape=Octagon|*
%AMOCTAGOND18*
4,1,8,0.00984,-0.02953,-0.00984,-0.02953,-0.01969,-0.01969,-0.01969,0.01969,-0.00984,0.02953,0.00984,0.02953,0.01969,0.01969,0.01969,-0.01969,0.00984,-0.02953,0.0*
%
%ADD18OCTAGOND18*%

%ADD19P,0.06392X8X22.5*%
%ADD20R,0.05906X0.01378*%
%ADD21R,0.05118X0.01260*%
%ADD22R,0.04724X0.03937*%
%ADD23C,0.04724*%
%ADD24R,0.04724X0.05906*%
%ADD25R,0.07874X0.04134*%
%ADD26R,0.26772X0.25984*%
%ADD27R,0.06299X0.05906*%
%ADD28R,0.03150X0.02559*%
%ADD29R,0.01575X0.03937*%
%ADD30O,0.01969X0.07874*%
%ADD31R,0.01969X0.07874*%
%ADD32C,0.03937*%
%ADD33C,0.01969*%
%ADD34C,0.02756*%
%ADD35C,0.03150*%
%ADD36C,0.01181*%
%ADD37C,0.02362*%
%ADD38R,0.06850X0.08228*%
%ADD39C,0.02559*%
%ADD40O,0.05906X0.07874*%
%ADD41R,0.05906X0.05906*%
%ADD42C,0.05906*%
%ADD43R,0.05906X0.05906*%
%ADD44C,0.07087*%
%ADD45C,0.03937*%
%ADD46C,0.01969*%
%ADD47C,0.02756*%
%ADD48C,0.00984*%
%ADD49C,0.00500*%
%ADD50C,0.00787*%
%ADD51C,0.00472*%
%ADD52C,0.00591*%
%ADD53C,0.00492*%
%ADD54C,0.00709*%
%ADD55C,0.00394*%
%ADD56R,0.13202X0.09698*%
%ADD57R,0.03200X0.06706*%
%ADD58R,0.03950X0.04737*%
%ADD59R,0.04737X0.05524*%
%ADD60R,0.16548X0.05918*%
%ADD61R,0.04737X0.03950*%
%ADD62R,0.05918X0.16548*%
%ADD63R,0.04737X0.02375*%
G04:AMPARAMS|DCode=64|XSize=47.37mil|YSize=67.06mil|CornerRadius=0mil|HoleSize=0mil|Usage=FLASHONLY|Rotation=180.000|XOffset=0mil|YOffset=0mil|HoleType=Round|Shape=Octagon|*
%AMOCTAGOND64*
4,1,8,0.01184,-0.03353,-0.01184,-0.03353,-0.02369,-0.02169,-0.02369,0.02169,-0.01184,0.03353,0.01184,0.03353,0.02369,0.02169,0.02369,-0.02169,0.01184,-0.03353,0.0*
%
%ADD64OCTAGOND64*%

%ADD65P,0.07258X8X22.5*%
%ADD66R,0.06706X0.02178*%
%ADD67R,0.05918X0.02060*%
%ADD68R,0.05524X0.04737*%
%ADD69C,0.05524*%
%ADD70R,0.05524X0.06706*%
%ADD71R,0.08674X0.04934*%
%ADD72R,0.27572X0.26784*%
%ADD73R,0.07099X0.06706*%
%ADD74R,0.03950X0.03359*%
%ADD75R,0.02375X0.04737*%
%ADD76O,0.02769X0.08674*%
%ADD77R,0.02769X0.08674*%
%ADD78C,0.03359*%
%ADD79O,0.06706X0.08674*%
%ADD80R,0.06706X0.06706*%
%ADD81C,0.06706*%
%ADD82R,0.06706X0.06706*%
%ADD83C,0.07887*%
%ADD84C,0.01000*%
%ADD85C,0.00600*%
D84*
X393701Y80240D02*
Y93874D01*
X0Y80240D02*
Y93874D01*
X226341Y92874D02*
X393701D01*
X0D02*
X164160D01*
X387701Y94874D02*
X393701Y92874D01*
X387701Y90874D02*
X393701Y92874D01*
X0D02*
X6000Y90874D01*
X0Y92874D02*
X6000Y94874D01*
X-13402Y0D02*
X-1500D01*
X-13402Y78740D02*
X-1500D01*
X-12402Y0D02*
Y9179D01*
Y66361D02*
Y78740D01*
Y0D02*
X-10402Y6000D01*
X-14402D02*
X-12402Y0D01*
X-14402Y72740D02*
X-12402Y78740D01*
X-10402Y72740D01*
X393701Y0D02*
Y78740D01*
X0Y0D02*
X393701D01*
X0D02*
Y78740D01*
X393701D01*
D85*
X165760Y89275D02*
X167759D01*
X166760D01*
Y95273D01*
X165760Y94273D01*
X170758D02*
X171758Y95273D01*
X173757D01*
X174757Y94273D01*
Y90275D01*
X173757Y89275D01*
X171758D01*
X170758Y90275D01*
Y94273D01*
X176756D02*
X177756Y95273D01*
X179755D01*
X180755Y94273D01*
Y90275D01*
X179755Y89275D01*
X177756D01*
X176756Y90275D01*
Y94273D01*
X182754Y89275D02*
Y90275D01*
X183754D01*
Y89275D01*
X182754D01*
X187753Y94273D02*
X188752Y95273D01*
X190752D01*
X191752Y94273D01*
Y90275D01*
X190752Y89275D01*
X188752D01*
X187753Y90275D01*
Y94273D01*
X193751D02*
X194751Y95273D01*
X196750D01*
X197750Y94273D01*
Y90275D01*
X196750Y89275D01*
X194751D01*
X193751Y90275D01*
Y94273D01*
X207746Y89275D02*
X205747Y91274D01*
Y93274D01*
X207746Y95273D01*
X210745Y89275D02*
Y93274D01*
X211745D01*
X212745Y92274D01*
Y89275D01*
Y92274D01*
X213744Y93274D01*
X214744Y92274D01*
Y89275D01*
X216743D02*
Y93274D01*
X217743D01*
X218743Y92274D01*
Y89275D01*
Y92274D01*
X219742Y93274D01*
X220742Y92274D01*
Y89275D01*
X222742D02*
X224741Y91274D01*
Y93274D01*
X222742Y95273D01*
X-8803Y14777D02*
Y10779D01*
X-12801Y14777D01*
X-13801D01*
X-14801Y13778D01*
Y11778D01*
X-13801Y10779D01*
Y16777D02*
X-14801Y17777D01*
Y19776D01*
X-13801Y20776D01*
X-9802D01*
X-8803Y19776D01*
Y17777D01*
X-9802Y16777D01*
X-13801D01*
X-8803Y22775D02*
X-9802D01*
Y23775D01*
X-8803D01*
Y22775D01*
X-13801Y27773D02*
X-14801Y28773D01*
Y30772D01*
X-13801Y31772D01*
X-9802D01*
X-8803Y30772D01*
Y28773D01*
X-9802Y27773D01*
X-13801D01*
Y33771D02*
X-14801Y34771D01*
Y36770D01*
X-13801Y37770D01*
X-9802D01*
X-8803Y36770D01*
Y34771D01*
X-9802Y33771D01*
X-13801D01*
X-8803Y47767D02*
X-10802Y45768D01*
X-12801D01*
X-14801Y47767D01*
X-8803Y50766D02*
X-12801D01*
Y51766D01*
X-11802Y52765D01*
X-8803D01*
X-11802D01*
X-12801Y53765D01*
X-11802Y54765D01*
X-8803D01*
Y56764D02*
X-12801D01*
Y57764D01*
X-11802Y58763D01*
X-8803D01*
X-11802D01*
X-12801Y59763D01*
X-11802Y60763D01*
X-8803D01*
Y62762D02*
X-10802Y64761D01*
X-12801D01*
X-14801Y62762D01*
M02*
