M48
;Layer_Color=9474304
;FILE_FORMAT=2:5
INCH,LZ
;TYPE=PLATED
T1F00S00C0.01181
T2F00S00C0.02362
%
T01
X0058701Y-0461299
X00628
X006685
Y-0457126
X0062638Y-0457087
X0058701Y-0457126
X0040551Y-041685
X0035778Y-0417017
X0040551Y-0410827
X0041012Y-0398729
X0045866Y-0403268
X00523Y-03994
X00525Y-03927
X0049843Y-0381968
X00545Y-0381
X0058819Y-0374016
X006138Y-0376494
X00656Y-03744
Y-03802
Y-03931
X006138Y-041368
X005878Y-0411614
X0031299Y-0400512
X0031811Y-0396339
X0036535Y-0378283
X0033976Y-0349843
X0034252Y-0343189
X0051575Y-0313228
X0058958Y-0314428
X0063661Y-0316614
X0067874Y-0309842
X0067559Y-0328622
X0055197Y-0264961
X003185Y-0274252
X0025354Y-0277441
X0014488Y-0385961
X0015472Y-0399701
X0010591Y-023311
X0008071Y-0161457
X0010748Y-0113504
X0044961Y-012063
X0040905Y-0124764
X00527Y-01327
X0059595Y-0128021
X00561Y-01467
X0063622Y-0151614
X0075945Y-0157874
X0057205Y-0172283
X0036496Y-0174685
X003374Y-018752
X0030709Y-0163425
X00306Y-01563
X0049646Y-0201811
X005559Y-0204331
Y-0196181
X0069252Y-0199173
X007481Y-0214052
X006252Y-0214134
X0054921Y-0225472
X004752Y-0228465
X0049486Y-0232754
X0059488Y-023374
X0059606Y-0239016
X0054921Y-0239606
X0056575Y-0247362
X0055905Y-0258504
X0049213Y-0258543
X0046384Y-0250506
X0040494Y-0250534
X0040157Y-0255866
X0036772Y-0253465
X0031575Y-0251299
X003315Y-0247835
X0032953Y-0259409
X002311Y-0257638
X002752Y-0239961
X0030827Y-0231378
X0034195Y-0227542
X0034488Y-022189
X0027716Y-0226693
X0039134Y-0237717
X0041693
Y-0240394
X0039134
X0042992Y-0214055
X0069252Y-0227205
X0074016Y-0240709
X0054016Y-0104646
X0042795Y-0102992
X0038819Y-0080984
X0061535Y-0087087
X0053189Y-0060984
X0055984Y-0043583
X0046024Y-0035984
X0036496Y-0033504
X0030394Y-0035512
X0032913Y-0055709
X0074016Y-004378
X0080079Y-0045039
X002248Y-006
X0022598Y-0066299
X0002913Y-0040472
X0003268Y-0025197
X0002441Y-0015827
T02
X00268Y-04628
X0036561Y-0464882
X00513Y-04628
X00494Y-04496
X00562
X00619Y-04324
X00665Y-04286
Y-04363
X00473Y-0431
X0027441Y-0398087
X0027401Y-0354819
X0056417Y-0355276
X0062283Y-0356535
X0067165
X0047126Y-0333071
Y-0327165
Y-0322126
X0039055Y-0301457
X0019999Y-0354897
X0019921Y-0375173
X0015196Y-0403559
X0063661Y-0219659
X0017992Y-0076614
M30
