%FSLAX25Y25*%
%MOIN*%
G70*
G01*
G75*
G04 Layer_Color=8388736*
%ADD10R,0.03150X0.02559*%
%ADD11R,0.13386X0.02756*%
%ADD12R,0.07480X0.06299*%
%ADD13R,0.01575X0.03937*%
%ADD14R,0.07874X0.10000*%
%ADD15R,0.02756X0.06102*%
%ADD16R,0.02756X0.13386*%
%ADD17R,0.06299X0.07480*%
%ADD18R,0.03150X0.03937*%
%ADD19R,0.03150X0.03543*%
%ADD20R,0.03150X0.03543*%
%ADD21C,0.05906*%
%ADD22R,0.05118X0.15748*%
%ADD23R,0.02362X0.00787*%
%ADD24R,0.03150X0.00787*%
%ADD25R,0.00787X0.02362*%
%ADD26R,0.00787X0.03150*%
%ADD27R,0.05118X0.05118*%
%ADD28R,0.01063X0.07874*%
%ADD29R,0.02362X0.07874*%
%ADD30R,0.02165X0.02559*%
%ADD31R,0.02362X0.02756*%
%ADD32R,0.03937X0.01575*%
%ADD33R,0.01181X0.07874*%
%ADD34O,0.01181X0.07874*%
%ADD35R,0.02559X0.02165*%
%ADD36R,0.03543X0.03150*%
%ADD37R,0.03543X0.03150*%
%ADD38R,0.03937X0.03150*%
%ADD39R,0.02756X0.02362*%
%ADD40C,0.00787*%
%ADD41C,0.01575*%
%ADD42C,0.01000*%
%ADD43C,0.02362*%
%ADD44C,0.01181*%
%ADD45C,0.01969*%
%ADD46C,0.03150*%
%ADD47C,0.00591*%
%ADD48C,0.00197*%
%ADD49C,0.00600*%
%ADD50C,0.00500*%
%ADD51C,0.00394*%
%ADD52C,0.00709*%
%ADD53C,0.01200*%
%ADD54R,0.03950X0.03359*%
%ADD55R,0.14186X0.03556*%
%ADD56R,0.08280X0.07099*%
%ADD57R,0.02375X0.04737*%
%ADD58R,0.08674X0.10800*%
%ADD59R,0.03556X0.06902*%
%ADD60R,0.03556X0.14186*%
%ADD61R,0.07099X0.08280*%
%ADD62R,0.03950X0.04737*%
%ADD63R,0.03950X0.04343*%
%ADD64R,0.03950X0.04343*%
%ADD65C,0.06706*%
%ADD66R,0.05918X0.16548*%
%ADD67R,0.03162X0.01587*%
%ADD68R,0.03950X0.01587*%
%ADD69R,0.01587X0.03162*%
%ADD70R,0.01587X0.03950*%
%ADD71R,0.05918X0.05918*%
%ADD72R,0.01863X0.08674*%
%ADD73R,0.03162X0.08674*%
%ADD74R,0.02965X0.03359*%
%ADD75R,0.03162X0.03556*%
%ADD76R,0.04737X0.02375*%
%ADD77R,0.01981X0.08674*%
%ADD78O,0.01981X0.08674*%
%ADD79R,0.03359X0.02965*%
%ADD80R,0.04343X0.03950*%
%ADD81R,0.04343X0.03950*%
%ADD82R,0.04737X0.03950*%
%ADD83R,0.03556X0.03162*%
D54*
X38560Y-141080D02*
D03*
X44859D02*
D03*
X38560Y-137733D02*
D03*
X44859D02*
D03*
D55*
X35778Y-448559D02*
D03*
Y-442654D02*
D03*
Y-436748D02*
D03*
D56*
X19800Y-427457D02*
D03*
Y-457890D02*
D03*
D57*
X37570Y-282032D02*
D03*
X45050D02*
D03*
X41310D02*
D03*
X45050Y-269828D02*
D03*
X37570D02*
D03*
X20000Y-369038D02*
D03*
X27480D02*
D03*
X23740D02*
D03*
Y-381243D02*
D03*
X27480D02*
D03*
X20000D02*
D03*
X27480Y-361063D02*
D03*
X20000D02*
D03*
X23740D02*
D03*
Y-348858D02*
D03*
X20000D02*
D03*
X27480D02*
D03*
D58*
X21324Y-308960D02*
D03*
X39040D02*
D03*
D59*
X32283Y-207677D02*
D03*
Y-177953D02*
D03*
X50394Y-207677D02*
D03*
Y-177953D02*
D03*
D60*
X37600Y-24027D02*
D03*
X31695D02*
D03*
X25789D02*
D03*
X19884D02*
D03*
X13978D02*
D03*
X63736Y-24098D02*
D03*
X69642D02*
D03*
D61*
X4687Y-8049D02*
D03*
X46183D02*
D03*
X55272Y-8120D02*
D03*
X78067D02*
D03*
D62*
X14356Y-35630D02*
D03*
X7664D02*
D03*
X37606Y-296270D02*
D03*
X30913D02*
D03*
X44436Y-48833D02*
D03*
X38137D02*
D03*
X44426Y-70423D02*
D03*
X38127D02*
D03*
X44436Y-92073D02*
D03*
X38137D02*
D03*
X44436Y-113903D02*
D03*
X38137D02*
D03*
X20744Y-393631D02*
D03*
X27437D02*
D03*
X37567Y-289490D02*
D03*
X30874D02*
D03*
D63*
X61191Y-336936D02*
D03*
X52530Y-333196D02*
D03*
D64*
X61191Y-329455D02*
D03*
D65*
X74810Y-194340D02*
D03*
Y-175140D02*
D03*
Y-214052D02*
D03*
Y-184520D02*
D03*
Y-204319D02*
D03*
D66*
X32254Y-329973D02*
D03*
X18869D02*
D03*
D67*
X46794Y-242203D02*
D03*
Y-235904D02*
D03*
X34195D02*
D03*
Y-242203D02*
D03*
D68*
X46400Y-240628D02*
D03*
Y-239053D02*
D03*
Y-237478D02*
D03*
X34589D02*
D03*
Y-239053D02*
D03*
Y-240628D02*
D03*
D69*
X43644Y-232754D02*
D03*
X37345D02*
D03*
Y-245352D02*
D03*
X43644D02*
D03*
D70*
X42069Y-233148D02*
D03*
X40494D02*
D03*
X38920D02*
D03*
Y-244959D02*
D03*
X40494D02*
D03*
X42069D02*
D03*
D71*
X40494Y-239053D02*
D03*
D72*
X42414Y-471340D02*
D03*
X30603D02*
D03*
X32572D02*
D03*
X34540D02*
D03*
X36509D02*
D03*
X38477D02*
D03*
X40446D02*
D03*
X44383D02*
D03*
X46351D02*
D03*
X48320D02*
D03*
X50288D02*
D03*
X52257D02*
D03*
D73*
X24422D02*
D03*
X58438D02*
D03*
D74*
X15010Y-48560D02*
D03*
X18947D02*
D03*
X61260Y-302680D02*
D03*
X65197D02*
D03*
X64220Y-186580D02*
D03*
X60283D02*
D03*
D75*
X11170Y-97050D02*
D03*
X15894D02*
D03*
X18042Y-71650D02*
D03*
X13318D02*
D03*
X11170Y-103000D02*
D03*
X15894D02*
D03*
X35828Y-420550D02*
D03*
X40552D02*
D03*
X50288Y-442710D02*
D03*
X55012D02*
D03*
X63682Y-321776D02*
D03*
X58958D02*
D03*
X36288Y-395201D02*
D03*
X41012D02*
D03*
X37692Y-387431D02*
D03*
X32968D02*
D03*
X61102Y-344666D02*
D03*
X56378D02*
D03*
X27452Y-387421D02*
D03*
X22728D02*
D03*
X61192Y-350356D02*
D03*
X56468D02*
D03*
X67072Y-114340D02*
D03*
X62348D02*
D03*
X67072Y-92070D02*
D03*
X62348D02*
D03*
X67072Y-70460D02*
D03*
X62348D02*
D03*
X67072Y-48890D02*
D03*
X62348D02*
D03*
X34258Y-169340D02*
D03*
X38982D02*
D03*
X59022Y-219680D02*
D03*
X54298D02*
D03*
X68492Y-39450D02*
D03*
X63768D02*
D03*
X55082Y-296460D02*
D03*
X50358D02*
D03*
X65992D02*
D03*
X61268D02*
D03*
X59595Y-193380D02*
D03*
X64320D02*
D03*
D76*
X33482Y-406120D02*
D03*
Y-413600D02*
D03*
Y-409860D02*
D03*
X21278D02*
D03*
Y-413600D02*
D03*
Y-406120D02*
D03*
D77*
X63939Y-399397D02*
D03*
Y-365857D02*
D03*
D78*
X61380Y-399397D02*
D03*
X58821D02*
D03*
X56261D02*
D03*
X63939Y-420657D02*
D03*
X61380D02*
D03*
X58821D02*
D03*
X56261D02*
D03*
X61380Y-365857D02*
D03*
X58821D02*
D03*
X56261D02*
D03*
X63939Y-387117D02*
D03*
X61380D02*
D03*
X58821D02*
D03*
X56261D02*
D03*
D79*
X48810Y-413580D02*
D03*
Y-417517D02*
D03*
X46570Y-422820D02*
D03*
Y-426757D02*
D03*
X17330Y-269840D02*
D03*
Y-265903D02*
D03*
X34400Y-372981D02*
D03*
Y-369044D02*
D03*
D80*
X11170Y-89911D02*
D03*
X14910Y-81250D02*
D03*
X10570Y-64811D02*
D03*
X14310Y-56150D02*
D03*
D81*
X18650Y-89911D02*
D03*
X18050Y-64811D02*
D03*
D82*
X28150Y-269847D02*
D03*
Y-263154D02*
D03*
D83*
X14900Y-413582D02*
D03*
Y-408858D02*
D03*
X63550Y-132212D02*
D03*
Y-127488D02*
D03*
Y-141068D02*
D03*
Y-145792D02*
D03*
M02*
