%FSLAX25Y25*%
%MOIN*%
G70*
G01*
G75*
%ADD10C,0.05906*%
%ADD11R,0.02362X0.02756*%
%ADD12R,0.02756X0.02362*%
%ADD13R,0.03150X0.03937*%
%ADD14R,0.03937X0.03150*%
%ADD15R,0.02559X0.02165*%
%ADD16R,0.02165X0.02559*%
%ADD17R,0.03543X0.03150*%
%ADD18R,0.03543X0.03150*%
%ADD19R,0.01575X0.03937*%
%ADD20O,0.01181X0.07874*%
%ADD21R,0.01181X0.07874*%
%ADD22R,0.02362X0.07874*%
%ADD23R,0.01063X0.07874*%
%ADD24R,0.05118X0.05118*%
%ADD25R,0.00787X0.02362*%
%ADD26R,0.00787X0.03150*%
%ADD27R,0.02362X0.00787*%
%ADD28R,0.03150X0.00787*%
%ADD29R,0.05118X0.15748*%
%ADD30R,0.03150X0.03543*%
%ADD31R,0.03150X0.03543*%
%ADD32R,0.06299X0.07480*%
%ADD33R,0.02756X0.13386*%
%ADD34R,0.02756X0.06102*%
%ADD35R,0.07874X0.10000*%
%ADD36R,0.07480X0.06299*%
%ADD37R,0.13386X0.02756*%
%ADD38R,0.03150X0.02559*%
%ADD39C,0.01575*%
%ADD40C,0.01000*%
%ADD41C,0.02362*%
%ADD42C,0.00787*%
%ADD43C,0.01181*%
%ADD44C,0.01969*%
%ADD45C,0.03150*%
%ADD46C,0.00500*%
%ADD47C,0.00591*%
%ADD48C,0.00394*%
%ADD49C,0.00600*%
%ADD50C,0.00197*%
%ADD51C,0.00709*%
%ADD52C,0.01200*%
D40*
X16040Y-315259D02*
Y-302661D01*
D42*
X39338Y-291961D02*
G03*
X39338Y-287019I-3706J2471D01*
G01*
X29102D02*
G03*
X29102Y-291961I3706J-2471D01*
G01*
X25679Y-271618D02*
G03*
X30621Y-271618I2471J3706D01*
G01*
Y-261382D02*
G03*
X25679Y-261382I-2471J-3706D01*
G01*
X18972Y-391160D02*
G03*
X18972Y-396101I3706J-2471D01*
G01*
X29208D02*
G03*
X29208Y-391160I-3706J2471D01*
G01*
X30028Y-350461D02*
G03*
X30028Y-350461I-394J0D01*
G01*
X56647Y-373540D02*
G03*
X56647Y-373540I-394J0D01*
G01*
X18240Y-379641D02*
G03*
X18240Y-379641I-394J0D01*
G01*
X47660Y-246061D02*
G03*
X47660Y-246061I-394J0D01*
G01*
X39378Y-298741D02*
G03*
X39378Y-293799I-3706J2471D01*
G01*
X29142D02*
G03*
X29142Y-298741I3706J-2471D01*
G01*
X15718Y-67781D02*
G03*
X15718Y-62839I-3706J2471D01*
G01*
X5482D02*
G03*
X5482Y-67781I3706J-2471D01*
G01*
X35810Y-280430D02*
G03*
X35810Y-280430I-394J0D01*
G01*
X35401Y-287019D02*
X39338D01*
X35401Y-291961D02*
X39338D01*
X29102Y-287019D02*
X33039D01*
X29102Y-291961D02*
X33039D01*
X30621Y-271618D02*
Y-267681D01*
X25679Y-271618D02*
Y-267681D01*
X30621Y-265319D02*
Y-261382D01*
X25679Y-265319D02*
Y-261382D01*
X18972Y-396101D02*
X22909D01*
X18972Y-391160D02*
X22909D01*
X25271Y-396101D02*
X29208D01*
X25271Y-391160D02*
X29208D01*
X17008Y-80470D02*
X19370D01*
X9134D02*
X11496D01*
X19370Y-86139D02*
Y-80470D01*
X9134Y-86100D02*
Y-80470D01*
X17666Y-104872D02*
X20028D01*
X9792D02*
X12154D01*
X20028Y-110541D02*
Y-104872D01*
X9792Y-110502D02*
Y-104872D01*
X45223Y-108675D02*
X47428D01*
X46759Y-114187D02*
X47389D01*
X47428Y-114148D01*
Y-113557D01*
X46759Y-114187D02*
Y-108675D01*
X47428Y-113557D02*
Y-108675D01*
X35774Y-114187D02*
X46759D01*
X35774D02*
Y-108675D01*
X46759D01*
X45223Y-87809D02*
X47428D01*
X46759Y-93321D02*
X47389D01*
X47428Y-93282D01*
Y-92691D01*
X46759Y-93321D02*
Y-87809D01*
X47428Y-92691D02*
Y-87809D01*
X35774Y-93321D02*
X46759D01*
X35774D02*
Y-87809D01*
X46759D01*
X45223Y-66943D02*
X47428D01*
X46759Y-72455D02*
X47389D01*
X47428Y-72416D01*
Y-71825D01*
X46759Y-72455D02*
Y-66943D01*
X47428Y-71825D02*
Y-66943D01*
X35774Y-72455D02*
X46759D01*
X35774D02*
Y-66943D01*
X46759D01*
X45223Y-46077D02*
X47428D01*
X46759Y-51589D02*
X47389D01*
X47428Y-51549D01*
Y-50959D01*
X46759Y-51589D02*
Y-46077D01*
X47428Y-50959D02*
Y-46077D01*
X35774Y-51589D02*
X46759D01*
X35774D02*
Y-46077D01*
X46759D01*
X35441Y-293799D02*
X39378D01*
X35441Y-298741D02*
X39378D01*
X29142Y-293799D02*
X33079D01*
X29142Y-298741D02*
X33079D01*
X52530Y-330440D02*
Y-328078D01*
Y-338314D02*
Y-335952D01*
Y-328078D02*
X58199D01*
X52530Y-338314D02*
X58160D01*
X11781Y-62839D02*
X15718D01*
X11781Y-67781D02*
X15718D01*
X5482Y-62839D02*
X9419D01*
X5482Y-67781D02*
X9419D01*
X29626Y-181004D02*
X53248D01*
X29626Y-204626D02*
Y-181004D01*
Y-204626D02*
X53248D01*
Y-181004D01*
X35017Y-143049D02*
X47615D01*
X35017Y-135568D02*
X47615D01*
X42497Y-141080D02*
Y-137930D01*
X47615Y-143049D02*
Y-135568D01*
X35017Y-143049D02*
Y-135568D01*
X35804Y-143049D02*
Y-135568D01*
X40922Y-139505D02*
X42497Y-141080D01*
X40922Y-139505D02*
X42497Y-137930D01*
D46*
X36365Y-367625D02*
G03*
X32466Y-367629I-1945J-4864D01*
G01*
X32436Y-374482D02*
G03*
X36372Y-374557I2063J4907D01*
G01*
X58865Y-184615D02*
G03*
X58868Y-188514I4864J-1945D01*
G01*
X65721Y-188544D02*
G03*
X65796Y-184608I-4907J2063D01*
G01*
X66615Y-304645D02*
G03*
X66612Y-300746I-4864J1945D01*
G01*
X59759Y-300716D02*
G03*
X59684Y-304652I4907J-2063D01*
G01*
X19295Y-264485D02*
G03*
X15396Y-264488I-1945J-4864D01*
G01*
X15366Y-271341D02*
G03*
X19302Y-271416I2063J4907D01*
G01*
X69255Y-400055D02*
G03*
X65356Y-400058I-1945J-4864D01*
G01*
X65326Y-406911D02*
G03*
X69262Y-406986I2063J4907D01*
G01*
X8715Y-71065D02*
G03*
X8718Y-74964I4864J-1945D01*
G01*
X15571Y-74994D02*
G03*
X15646Y-71058I-4907J2063D01*
G01*
X68731Y-426094D02*
G03*
X68806Y-422158I-4907J2063D01*
G01*
X61875Y-422165D02*
G03*
X61878Y-426064I4864J-1945D01*
G01*
X36369Y-370225D02*
Y-367627D01*
X32432Y-370225D02*
X32471Y-367627D01*
X36369Y-374558D02*
Y-371800D01*
X32432Y-374479D02*
Y-371800D01*
X58866Y-184611D02*
X61464D01*
X58866Y-188509D02*
X61464Y-188549D01*
X63039Y-184611D02*
X65798D01*
X63039Y-188549D02*
X65719D01*
X64016Y-304648D02*
X66614D01*
X64016Y-300711D02*
X66614Y-300751D01*
X59682Y-304648D02*
X62441D01*
X59761Y-300711D02*
X62441D01*
X19298Y-267084D02*
Y-264486D01*
X15361Y-267084D02*
X15401Y-264486D01*
X19298Y-271417D02*
Y-268659D01*
X15361Y-271339D02*
Y-268659D01*
X69258Y-402654D02*
Y-400056D01*
X65321Y-402654D02*
X65361Y-400056D01*
X69258Y-406988D02*
Y-404229D01*
X65321Y-406909D02*
Y-404229D01*
X8716Y-71061D02*
X11314D01*
X8716Y-74959D02*
X11314Y-74998D01*
X12889Y-71061D02*
X15648D01*
X12889Y-74998D02*
X15569D01*
X66049Y-426098D02*
X68729D01*
X66049Y-422161D02*
X68808D01*
X61876Y-426059D02*
X64474Y-426098D01*
X61876Y-422161D02*
X64474D01*
D47*
X67921Y-375889D02*
G03*
X67921Y-375889I-781J0D01*
G01*
X72829Y-22626D02*
G03*
X72820Y-22420I2271J206D01*
G01*
X10572Y-22446D02*
G03*
X10575Y-22549I-1652J-103D01*
G01*
X49457Y-408148D02*
G03*
X49354Y-408145I0J1655D01*
G01*
X62745Y-195349D02*
X66091D01*
Y-191411D01*
X62745D02*
X66091D01*
X57824Y-195349D02*
X61170D01*
X57824D02*
Y-191411D01*
X61170D01*
X59496Y-294492D02*
X62843D01*
X59496Y-298429D02*
Y-294492D01*
Y-298429D02*
X62843D01*
X64417Y-294492D02*
X67764D01*
Y-298429D02*
Y-294492D01*
X64417Y-298429D02*
X67764D01*
X48586Y-294492D02*
X51933D01*
X48586Y-298429D02*
Y-294492D01*
Y-298429D02*
X51933D01*
X53507Y-294492D02*
X56854D01*
Y-298429D02*
Y-294492D01*
X53507Y-298429D02*
X56854D01*
X77868Y-49793D02*
Y-46446D01*
X73931D02*
X77868D01*
X73931Y-49793D02*
Y-46446D01*
X77868Y-54714D02*
Y-51367D01*
X73931Y-54714D02*
X77868D01*
X73931D02*
Y-51367D01*
X52526Y-217711D02*
X55873D01*
X52526Y-221649D02*
Y-217711D01*
Y-221649D02*
X55873D01*
X57447Y-217711D02*
X60794D01*
Y-221649D02*
Y-217711D01*
X57447Y-221649D02*
X60794D01*
X37407Y-171309D02*
X40754D01*
Y-167371D01*
X37407D02*
X40754D01*
X32486Y-171309D02*
X35833D01*
X32486D02*
Y-167371D01*
X35833D01*
X60576Y-46922D02*
X63923D01*
X60576Y-50858D02*
Y-46922D01*
Y-50858D02*
X63923D01*
X65497Y-46922D02*
X68844D01*
Y-50858D02*
Y-46922D01*
X65497Y-50858D02*
X68844D01*
X61581Y-147564D02*
Y-144217D01*
Y-147564D02*
X65518D01*
Y-144217D01*
X61581Y-142643D02*
Y-139296D01*
X65518D01*
Y-142643D02*
Y-139296D01*
X60576Y-67730D02*
X63923D01*
X60576Y-71667D02*
Y-67730D01*
Y-71667D02*
X63923D01*
X65497Y-67730D02*
X68844D01*
Y-71667D02*
Y-67730D01*
X65497Y-71667D02*
X68844D01*
X65518Y-129063D02*
Y-125716D01*
X61581D02*
X65518D01*
X61581Y-129063D02*
Y-125716D01*
X65518Y-133984D02*
Y-130637D01*
X61581Y-133984D02*
X65518D01*
X61581D02*
Y-130637D01*
X60576Y-88597D02*
X63923D01*
X60576Y-92534D02*
Y-88597D01*
Y-92534D02*
X63923D01*
X65497Y-88597D02*
X68844D01*
Y-92534D02*
Y-88597D01*
X65497Y-92534D02*
X68844D01*
X60576Y-109463D02*
X63923D01*
X60576Y-113400D02*
Y-109463D01*
Y-113400D02*
X63923D01*
X65497Y-109463D02*
X68844D01*
Y-113400D02*
Y-109463D01*
X65497Y-113400D02*
X68844D01*
X49787Y-363968D02*
X53134D01*
Y-360032D01*
X49787D02*
X53134D01*
X44866Y-363968D02*
X48213D01*
X44866D02*
Y-360032D01*
X48213D01*
X54696Y-348387D02*
X58043D01*
X54696Y-352324D02*
Y-348387D01*
Y-352324D02*
X58043D01*
X59617Y-348387D02*
X62964D01*
Y-352324D02*
Y-348387D01*
X59617Y-352324D02*
X62964D01*
X20956Y-385452D02*
X24303D01*
X20956Y-389389D02*
Y-385452D01*
Y-389389D02*
X24303D01*
X25878Y-385452D02*
X29224D01*
Y-389389D02*
Y-385452D01*
X25878Y-389389D02*
X29224D01*
X54606Y-342697D02*
X57953D01*
X54606Y-346634D02*
Y-342697D01*
Y-346634D02*
X57953D01*
X59527Y-342697D02*
X62874D01*
Y-346634D02*
Y-342697D01*
X59527Y-346634D02*
X62874D01*
X31196Y-385462D02*
X34543D01*
X31196Y-389399D02*
Y-385462D01*
Y-389399D02*
X34543D01*
X36118Y-385462D02*
X39464D01*
Y-389399D02*
Y-385462D01*
X36118Y-389399D02*
X39464D01*
X39438Y-397169D02*
X42784D01*
Y-393232D01*
X39438D02*
X42784D01*
X34516Y-397169D02*
X37863D01*
X34516D02*
Y-393232D01*
X37863D01*
X57186Y-319807D02*
X60533D01*
X57186Y-323744D02*
Y-319807D01*
Y-323744D02*
X60533D01*
X62107Y-319807D02*
X65454D01*
Y-323744D02*
Y-319807D01*
X62107Y-323744D02*
X65454D01*
X65677Y-419328D02*
X69024D01*
Y-415391D01*
X65677D02*
X69024D01*
X60756Y-419328D02*
X64103D01*
X60756D02*
Y-415391D01*
X64103D01*
X9201Y-134754D02*
Y-131407D01*
Y-134754D02*
X13138D01*
Y-131407D01*
X9201Y-129833D02*
Y-126486D01*
X13138D01*
Y-129833D02*
Y-126486D01*
X11456Y-93591D02*
X14803D01*
X11456Y-97528D02*
Y-93591D01*
Y-97528D02*
X14803D01*
X16377Y-93591D02*
X19724D01*
Y-97528D02*
Y-93591D01*
X16377Y-97528D02*
X19724D01*
X14319Y-122641D02*
X17666D01*
Y-118703D01*
X14319D02*
X17666D01*
X9398Y-122641D02*
X12745D01*
X9398D02*
Y-118703D01*
X12745D01*
X22808Y-475395D02*
Y-466537D01*
X60170Y-475356D02*
Y-466537D01*
X22808D02*
X60170D01*
X46400Y-234801D02*
Y-233148D01*
X44746D02*
X46400D01*
X34589Y-234801D02*
Y-233148D01*
X36242D01*
X34589Y-244959D02*
Y-243305D01*
Y-244959D02*
X36242D01*
X44746D02*
X46400D01*
Y-243266D01*
X40775Y-109699D02*
X42467Y-111392D01*
X40775Y-113124D02*
Y-109699D01*
Y-113124D02*
X42467Y-111431D01*
Y-111431D01*
X40775Y-88833D02*
X42467Y-90526D01*
X40775Y-92258D02*
Y-88833D01*
Y-92258D02*
X42467Y-90565D01*
Y-90565D01*
X40775Y-67967D02*
X42467Y-69660D01*
X40775Y-71392D02*
Y-67967D01*
Y-71392D02*
X42467Y-69699D01*
Y-69699D01*
X40775Y-47100D02*
X42467Y-48794D01*
X40775Y-50526D02*
Y-47100D01*
Y-50526D02*
X42467Y-48833D01*
Y-48833D01*
X60816Y-409601D02*
X64163D01*
X60816Y-413539D02*
Y-409601D01*
Y-413539D02*
X64163D01*
X65737Y-409601D02*
X69084D01*
Y-413539D02*
Y-409601D01*
X65737Y-413539D02*
X69084D01*
X31201Y-353544D02*
Y-356168D01*
X31726Y-356693D01*
X32775D01*
X33300Y-356168D01*
Y-353544D01*
X34349Y-354069D02*
X34874Y-353544D01*
X35924D01*
X36448Y-354069D01*
Y-354594D01*
X35924Y-355119D01*
X36448Y-355643D01*
Y-356168D01*
X35924Y-356693D01*
X34874D01*
X34349Y-356168D01*
Y-355643D01*
X34874Y-355119D01*
X34349Y-354594D01*
Y-354069D01*
X34874Y-355119D02*
X35924D01*
X3299Y-109997D02*
Y-107898D01*
X2774Y-107373D01*
X1725D01*
X1200Y-107898D01*
Y-109997D01*
X1725Y-110522D01*
X2774D01*
X2249Y-109473D02*
X3299Y-110522D01*
X2774D02*
X3299Y-109997D01*
X4349Y-107898D02*
X4873Y-107373D01*
X5923D01*
X6448Y-107898D01*
Y-108423D01*
X5923Y-108948D01*
X5398D01*
X5923D01*
X6448Y-109473D01*
Y-109997D01*
X5923Y-110522D01*
X4873D01*
X4349Y-109997D01*
X3741Y-83395D02*
Y-81296D01*
X3216Y-80771D01*
X2167D01*
X1642Y-81296D01*
Y-83395D01*
X2167Y-83920D01*
X3216D01*
X2692Y-82871D02*
X3741Y-83920D01*
X3216D02*
X3741Y-83395D01*
X6890Y-83920D02*
X4791D01*
X6890Y-81821D01*
Y-81296D01*
X6365Y-80771D01*
X5315D01*
X4791Y-81296D01*
X46850Y-306399D02*
Y-309547D01*
X48425D01*
X48950Y-309022D01*
Y-306923D01*
X48425Y-306399D01*
X46850D01*
X52098D02*
X51048Y-306923D01*
X49999Y-307973D01*
Y-309022D01*
X50524Y-309547D01*
X51573D01*
X52098Y-309022D01*
Y-308498D01*
X51573Y-307973D01*
X49999D01*
X63352Y-402099D02*
X63877Y-401574D01*
Y-400525D01*
X63352Y-400000D01*
X61253D01*
X60728Y-400525D01*
Y-401574D01*
X61253Y-402099D01*
X60728Y-403149D02*
Y-404198D01*
Y-403673D01*
X63877D01*
X63352Y-403149D01*
X60728Y-405772D02*
Y-406822D01*
Y-406297D01*
X63877D01*
X63352Y-405772D01*
X13600Y-388800D02*
Y-385651D01*
X15174D01*
X15699Y-386176D01*
Y-387226D01*
X15174Y-387751D01*
X13600D01*
X14649D02*
X15699Y-388800D01*
X16749Y-385651D02*
X18848D01*
Y-386176D01*
X16749Y-388275D01*
Y-388800D01*
X39500Y-41851D02*
Y-45000D01*
X41074D01*
X41599Y-44475D01*
Y-42376D01*
X41074Y-41851D01*
X39500D01*
X44748D02*
X42649D01*
Y-43426D01*
X43698Y-42901D01*
X44223D01*
X44748Y-43426D01*
Y-44475D01*
X44223Y-45000D01*
X43173D01*
X42649Y-44475D01*
X40110Y-62628D02*
Y-65776D01*
X41684D01*
X42209Y-65251D01*
Y-63152D01*
X41684Y-62628D01*
X40110D01*
X44833Y-65776D02*
Y-62628D01*
X43259Y-64202D01*
X45358D01*
X39800Y-83744D02*
Y-86892D01*
X41374D01*
X41899Y-86367D01*
Y-84268D01*
X41374Y-83744D01*
X39800D01*
X42949Y-84268D02*
X43473Y-83744D01*
X44523D01*
X45048Y-84268D01*
Y-84793D01*
X44523Y-85318D01*
X43998D01*
X44523D01*
X45048Y-85843D01*
Y-86367D01*
X44523Y-86892D01*
X43473D01*
X42949Y-86367D01*
X40500Y-104180D02*
Y-107328D01*
X42074D01*
X42599Y-106804D01*
Y-104705D01*
X42074Y-104180D01*
X40500D01*
X43649Y-107328D02*
X44698D01*
X44173D01*
Y-104180D01*
X43649Y-104705D01*
X15399Y-392376D02*
X14874Y-391851D01*
X13825D01*
X13300Y-392376D01*
Y-394475D01*
X13825Y-395000D01*
X14874D01*
X15399Y-394475D01*
X16449Y-395000D02*
X17498D01*
X16973D01*
Y-391851D01*
X16449Y-392376D01*
X6589Y-58456D02*
X6064Y-57931D01*
X5015D01*
X4490Y-58456D01*
Y-60555D01*
X5015Y-61080D01*
X6064D01*
X6589Y-60555D01*
X9738Y-61080D02*
X7639D01*
X9738Y-58981D01*
Y-58456D01*
X9213Y-57931D01*
X8163D01*
X7639Y-58456D01*
X23899Y-295276D02*
X23374Y-294751D01*
X22325D01*
X21800Y-295276D01*
Y-297375D01*
X22325Y-297900D01*
X23374D01*
X23899Y-297375D01*
X24949Y-295276D02*
X25473Y-294751D01*
X26523D01*
X27048Y-295276D01*
Y-295801D01*
X26523Y-296326D01*
X25998D01*
X26523D01*
X27048Y-296850D01*
Y-297375D01*
X26523Y-297900D01*
X25473D01*
X24949Y-297375D01*
X33497Y-363420D02*
X32972Y-362895D01*
X31922D01*
X31398Y-363420D01*
Y-365518D01*
X31922Y-366043D01*
X32972D01*
X33497Y-365518D01*
X36121Y-366043D02*
Y-362895D01*
X34546Y-364469D01*
X36645D01*
X20381Y-74136D02*
X20906Y-74661D01*
X21955D01*
X22480Y-74136D01*
Y-72037D01*
X21955Y-71512D01*
X20906D01*
X20381Y-72037D01*
X17232Y-74661D02*
X19331D01*
Y-73086D01*
X18282Y-73611D01*
X17757D01*
X17232Y-73086D01*
Y-72037D01*
X17757Y-71512D01*
X18807D01*
X19331Y-72037D01*
X27887Y-256234D02*
X27362Y-255710D01*
X26312D01*
X25787Y-256234D01*
Y-258333D01*
X26312Y-258858D01*
X27362D01*
X27887Y-258333D01*
X31035Y-255710D02*
X29985Y-256234D01*
X28936Y-257284D01*
Y-258333D01*
X29461Y-258858D01*
X30510D01*
X31035Y-258333D01*
Y-257809D01*
X30510Y-257284D01*
X28936D01*
X23599Y-288476D02*
X23074Y-287951D01*
X22025D01*
X21500Y-288476D01*
Y-290575D01*
X22025Y-291100D01*
X23074D01*
X23599Y-290575D01*
X24649Y-287951D02*
X26748D01*
Y-288476D01*
X24649Y-290575D01*
Y-291100D01*
X19186Y-273242D02*
X18661Y-272717D01*
X17611D01*
X17087Y-273242D01*
Y-275341D01*
X17611Y-275866D01*
X18661D01*
X19186Y-275341D01*
X20235Y-273242D02*
X20760Y-272717D01*
X21810D01*
X22334Y-273242D01*
Y-273767D01*
X21810Y-274292D01*
X22334Y-274817D01*
Y-275341D01*
X21810Y-275866D01*
X20760D01*
X20235Y-275341D01*
Y-274817D01*
X20760Y-274292D01*
X20235Y-273767D01*
Y-273242D01*
X20760Y-274292D02*
X21810D01*
X54999Y-300976D02*
X54474Y-300451D01*
X53425D01*
X52900Y-300976D01*
Y-303075D01*
X53425Y-303600D01*
X54474D01*
X54999Y-303075D01*
X56049D02*
X56573Y-303600D01*
X57623D01*
X58148Y-303075D01*
Y-300976D01*
X57623Y-300451D01*
X56573D01*
X56049Y-300976D01*
Y-301501D01*
X56573Y-302026D01*
X58148D01*
X56799Y-179476D02*
X56274Y-178951D01*
X55225D01*
X54700Y-179476D01*
Y-181575D01*
X55225Y-182100D01*
X56274D01*
X56799Y-181575D01*
X57849Y-182100D02*
X58898D01*
X58373D01*
Y-178951D01*
X57849Y-179476D01*
X60472D02*
X60997Y-178951D01*
X62047D01*
X62572Y-179476D01*
Y-181575D01*
X62047Y-182100D01*
X60997D01*
X60472Y-181575D01*
Y-179476D01*
X40453Y-129725D02*
Y-132874D01*
X42027D01*
X42552Y-132349D01*
Y-130250D01*
X42027Y-129725D01*
X40453D01*
X45700Y-132874D02*
X43601D01*
X45700Y-130775D01*
Y-130250D01*
X45176Y-129725D01*
X44126D01*
X43601Y-130250D01*
X37248Y-327011D02*
Y-330159D01*
X39347D01*
X40396D02*
X41446D01*
X40921D01*
Y-327011D01*
X40396Y-327536D01*
X45300Y-437900D02*
Y-434751D01*
X46874D01*
X47399Y-435276D01*
Y-436326D01*
X46874Y-436851D01*
X45300D01*
X48449Y-437900D02*
X49498D01*
X48973D01*
Y-434751D01*
X48449Y-435276D01*
X42100Y-25000D02*
Y-21851D01*
X43674D01*
X44199Y-22376D01*
Y-23426D01*
X43674Y-23950D01*
X42100D01*
X47348Y-25000D02*
X45249D01*
X47348Y-22901D01*
Y-22376D01*
X46823Y-21851D01*
X45773D01*
X45249Y-22376D01*
X53400Y-25200D02*
Y-22051D01*
X54974D01*
X55499Y-22576D01*
Y-23626D01*
X54974Y-24150D01*
X53400D01*
X56549Y-22576D02*
X57073Y-22051D01*
X58123D01*
X58648Y-22576D01*
Y-23101D01*
X58123Y-23626D01*
X57598D01*
X58123D01*
X58648Y-24150D01*
Y-24675D01*
X58123Y-25200D01*
X57073D01*
X56549Y-24675D01*
X66174Y-333924D02*
Y-331825D01*
X65649Y-331300D01*
X64600D01*
X64075Y-331825D01*
Y-333924D01*
X64600Y-334449D01*
X65649D01*
X65124Y-333399D02*
X66174Y-334449D01*
X65649D02*
X66174Y-333924D01*
X67223Y-334449D02*
X68273D01*
X67748D01*
Y-331300D01*
X67223Y-331825D01*
X51500Y-323200D02*
Y-320051D01*
X53074D01*
X53599Y-320576D01*
Y-321626D01*
X53074Y-322150D01*
X51500D01*
X52549D02*
X53599Y-323200D01*
X54649D02*
X55698D01*
X55173D01*
Y-320051D01*
X54649Y-320576D01*
X41299Y-392284D02*
Y-389135D01*
X42873D01*
X43398Y-389660D01*
Y-390709D01*
X42873Y-391234D01*
X41299D01*
X42349D02*
X43398Y-392284D01*
X46547D02*
X44448D01*
X46547Y-390184D01*
Y-389660D01*
X46022Y-389135D01*
X44973D01*
X44448Y-389660D01*
X34252Y-384055D02*
Y-380907D01*
X35826D01*
X36351Y-381431D01*
Y-382481D01*
X35826Y-383006D01*
X34252D01*
X35302D02*
X36351Y-384055D01*
X37401Y-381431D02*
X37925Y-380907D01*
X38975D01*
X39500Y-381431D01*
Y-381956D01*
X38975Y-382481D01*
X38450D01*
X38975D01*
X39500Y-383006D01*
Y-383530D01*
X38975Y-384055D01*
X37925D01*
X37401Y-383530D01*
X1900Y-121800D02*
Y-118651D01*
X3474D01*
X3999Y-119176D01*
Y-120226D01*
X3474Y-120750D01*
X1900D01*
X2950D02*
X3999Y-121800D01*
X6623D02*
Y-118651D01*
X5049Y-120226D01*
X7148D01*
X47700Y-346200D02*
Y-343051D01*
X49274D01*
X49799Y-343576D01*
Y-344626D01*
X49274Y-345150D01*
X47700D01*
X48750D02*
X49799Y-346200D01*
X52948Y-343051D02*
X50849D01*
Y-344626D01*
X51898Y-344101D01*
X52423D01*
X52948Y-344626D01*
Y-345675D01*
X52423Y-346200D01*
X51373D01*
X50849Y-345675D01*
X47900Y-352000D02*
Y-348851D01*
X49474D01*
X49999Y-349376D01*
Y-350426D01*
X49474Y-350951D01*
X47900D01*
X48950D02*
X49999Y-352000D01*
X51049Y-349376D02*
X51573Y-348851D01*
X52623D01*
X53148Y-349376D01*
Y-349901D01*
X52623Y-350426D01*
X53148Y-350951D01*
Y-351475D01*
X52623Y-352000D01*
X51573D01*
X51049Y-351475D01*
Y-350951D01*
X51573Y-350426D01*
X51049Y-349901D01*
Y-349376D01*
X51573Y-350426D02*
X52623D01*
X3020Y-97310D02*
Y-94161D01*
X4594D01*
X5119Y-94686D01*
Y-95736D01*
X4594Y-96260D01*
X3020D01*
X4070D02*
X5119Y-97310D01*
X6169Y-96785D02*
X6694Y-97310D01*
X7743D01*
X8268Y-96785D01*
Y-94686D01*
X7743Y-94161D01*
X6694D01*
X6169Y-94686D01*
Y-95211D01*
X6694Y-95736D01*
X8268D01*
X4100Y-128000D02*
X7249D01*
Y-129574D01*
X6724Y-130099D01*
X5674D01*
X5150Y-129574D01*
Y-128000D01*
Y-129050D02*
X4100Y-130099D01*
Y-131149D02*
Y-132198D01*
Y-131673D01*
X7249D01*
X6724Y-131149D01*
Y-133772D02*
X7249Y-134297D01*
Y-135347D01*
X6724Y-135872D01*
X4625D01*
X4100Y-135347D01*
Y-134297D01*
X4625Y-133772D01*
X6724D01*
X61713Y-434350D02*
Y-431202D01*
X63287D01*
X63812Y-431727D01*
Y-432776D01*
X63287Y-433301D01*
X61713D01*
X62762D02*
X63812Y-434350D01*
X64861D02*
X65911D01*
X65386D01*
Y-431202D01*
X64861Y-431727D01*
X67485Y-434350D02*
X68535D01*
X68010D01*
Y-431202D01*
X67485Y-431727D01*
X43701Y-358661D02*
Y-355513D01*
X45275D01*
X45800Y-356038D01*
Y-357087D01*
X45275Y-357612D01*
X43701D01*
X44750D02*
X45800Y-358661D01*
X46849D02*
X47899D01*
X47374D01*
Y-355513D01*
X46849Y-356038D01*
X51572Y-358661D02*
X49473D01*
X51572Y-356562D01*
Y-356038D01*
X51047Y-355513D01*
X49998D01*
X49473Y-356038D01*
X60500Y-108391D02*
Y-105243D01*
X62074D01*
X62599Y-105767D01*
Y-106817D01*
X62074Y-107342D01*
X60500D01*
X61550D02*
X62599Y-108391D01*
X63649D02*
X64698D01*
X64173D01*
Y-105243D01*
X63649Y-105767D01*
X68371Y-105243D02*
X66272D01*
Y-106817D01*
X67322Y-106292D01*
X67847D01*
X68371Y-106817D01*
Y-107867D01*
X67847Y-108391D01*
X66797D01*
X66272Y-107867D01*
X60700Y-97795D02*
Y-94647D01*
X62274D01*
X62799Y-95171D01*
Y-96221D01*
X62274Y-96746D01*
X60700D01*
X61750D02*
X62799Y-97795D01*
X63849D02*
X64898D01*
X64373D01*
Y-94647D01*
X63849Y-95171D01*
X68572Y-94647D02*
X67522Y-95171D01*
X66472Y-96221D01*
Y-97270D01*
X66997Y-97795D01*
X68047D01*
X68572Y-97270D01*
Y-96746D01*
X68047Y-96221D01*
X66472D01*
X66496Y-130905D02*
Y-127757D01*
X68070D01*
X68595Y-128282D01*
Y-129331D01*
X68070Y-129856D01*
X66496D01*
X67546D02*
X68595Y-130905D01*
X69645D02*
X70694D01*
X70169D01*
Y-127757D01*
X69645Y-128282D01*
X72268Y-127757D02*
X74367D01*
Y-128282D01*
X72268Y-130381D01*
Y-130905D01*
X60400Y-66839D02*
Y-63690D01*
X61974D01*
X62499Y-64215D01*
Y-65265D01*
X61974Y-65789D01*
X60400D01*
X61449D02*
X62499Y-66839D01*
X63549D02*
X64598D01*
X64073D01*
Y-63690D01*
X63549Y-64215D01*
X66172D02*
X66697Y-63690D01*
X67747D01*
X68271Y-64215D01*
Y-64740D01*
X67747Y-65265D01*
X68271Y-65789D01*
Y-66314D01*
X67747Y-66839D01*
X66697D01*
X66172Y-66314D01*
Y-65789D01*
X66697Y-65265D01*
X66172Y-64740D01*
Y-64215D01*
X66697Y-65265D02*
X67747D01*
X66969Y-143347D02*
Y-140198D01*
X68543D01*
X69068Y-140723D01*
Y-141772D01*
X68543Y-142297D01*
X66969D01*
X68018D02*
X69068Y-143347D01*
X70117D02*
X71167D01*
X70642D01*
Y-140198D01*
X70117Y-140723D01*
X72741Y-142822D02*
X73266Y-143347D01*
X74315D01*
X74840Y-142822D01*
Y-140723D01*
X74315Y-140198D01*
X73266D01*
X72741Y-140723D01*
Y-141247D01*
X73266Y-141772D01*
X74840D01*
X60600Y-56400D02*
Y-53251D01*
X62174D01*
X62699Y-53776D01*
Y-54826D01*
X62174Y-55351D01*
X60600D01*
X61650D02*
X62699Y-56400D01*
X65848D02*
X63749D01*
X65848Y-54301D01*
Y-53776D01*
X65323Y-53251D01*
X64273D01*
X63749Y-53776D01*
X66897D02*
X67422Y-53251D01*
X68471D01*
X68996Y-53776D01*
Y-55875D01*
X68471Y-56400D01*
X67422D01*
X66897Y-55875D01*
Y-53776D01*
X21500Y-171400D02*
Y-168251D01*
X23074D01*
X23599Y-168776D01*
Y-169826D01*
X23074Y-170351D01*
X21500D01*
X22549D02*
X23599Y-171400D01*
X26748D02*
X24649D01*
X26748Y-169301D01*
Y-168776D01*
X26223Y-168251D01*
X25173D01*
X24649Y-168776D01*
X27797Y-171400D02*
X28847D01*
X28322D01*
Y-168251D01*
X27797Y-168776D01*
X42028Y-221358D02*
Y-218210D01*
X43602D01*
X44127Y-218734D01*
Y-219784D01*
X43602Y-220309D01*
X42028D01*
X43077D02*
X44127Y-221358D01*
X47275D02*
X45176D01*
X47275Y-219259D01*
Y-218734D01*
X46751Y-218210D01*
X45701D01*
X45176Y-218734D01*
X50424Y-221358D02*
X48325D01*
X50424Y-219259D01*
Y-218734D01*
X49899Y-218210D01*
X48849D01*
X48325Y-218734D01*
X74410Y-35925D02*
X77558D01*
Y-37499D01*
X77033Y-38024D01*
X75984D01*
X75459Y-37499D01*
Y-35925D01*
Y-36975D02*
X74410Y-38024D01*
Y-41173D02*
Y-39074D01*
X76508Y-41173D01*
X77033D01*
X77558Y-40648D01*
Y-39599D01*
X77033Y-39074D01*
Y-42222D02*
X77558Y-42747D01*
Y-43797D01*
X77033Y-44321D01*
X76508D01*
X75984Y-43797D01*
Y-43272D01*
Y-43797D01*
X75459Y-44321D01*
X74934D01*
X74410Y-43797D01*
Y-42747D01*
X74934Y-42222D01*
X49915Y-292861D02*
Y-289713D01*
X51489D01*
X52014Y-290238D01*
Y-291287D01*
X51489Y-291812D01*
X49915D01*
X50964D02*
X52014Y-292861D01*
X55162D02*
X53063D01*
X55162Y-290762D01*
Y-290238D01*
X54638Y-289713D01*
X53588D01*
X53063Y-290238D01*
X57786Y-292861D02*
Y-289713D01*
X56212Y-291287D01*
X58311D01*
X60710Y-293107D02*
Y-289959D01*
X62284D01*
X62809Y-290483D01*
Y-291533D01*
X62284Y-292058D01*
X60710D01*
X61760D02*
X62809Y-293107D01*
X65958D02*
X63859D01*
X65958Y-291008D01*
Y-290483D01*
X65433Y-289959D01*
X64384D01*
X63859Y-290483D01*
X69107Y-289959D02*
X67007D01*
Y-291533D01*
X68057Y-291008D01*
X68582D01*
X69107Y-291533D01*
Y-292582D01*
X68582Y-293107D01*
X67532D01*
X67007Y-292582D01*
X57000Y-201811D02*
Y-198662D01*
X58574D01*
X59099Y-199187D01*
Y-200237D01*
X58574Y-200762D01*
X57000D01*
X58049D02*
X59099Y-201811D01*
X62248D02*
X60149D01*
X62248Y-199712D01*
Y-199187D01*
X61723Y-198662D01*
X60673D01*
X60149Y-199187D01*
X65396Y-198662D02*
X64347Y-199187D01*
X63297Y-200237D01*
Y-201286D01*
X63822Y-201811D01*
X64872D01*
X65396Y-201286D01*
Y-200762D01*
X64872Y-200237D01*
X63297D01*
X25682Y-189148D02*
X25157Y-188623D01*
X24107D01*
X23583Y-189148D01*
Y-189673D01*
X24107Y-190197D01*
X25157D01*
X25682Y-190722D01*
Y-191247D01*
X25157Y-191772D01*
X24107D01*
X23583Y-191247D01*
X26731Y-191772D02*
X27781D01*
X27256D01*
Y-188623D01*
X26731Y-189148D01*
X43306Y-374902D02*
X40682D01*
X40157Y-375426D01*
Y-376476D01*
X40682Y-377001D01*
X43306D01*
X40157Y-378050D02*
Y-379100D01*
Y-378575D01*
X43306D01*
X42781Y-378050D01*
X13288Y-377165D02*
X15912D01*
X16437Y-376641D01*
Y-375591D01*
X15912Y-375066D01*
X13288D01*
X16437Y-371918D02*
Y-374017D01*
X14338Y-371918D01*
X13813D01*
X13288Y-372443D01*
Y-373492D01*
X13813Y-374017D01*
X61516Y-359548D02*
Y-362172D01*
X62041Y-362697D01*
X63090D01*
X63615Y-362172D01*
Y-359548D01*
X64664Y-360073D02*
X65189Y-359548D01*
X66239D01*
X66763Y-360073D01*
Y-360598D01*
X66239Y-361123D01*
X65714D01*
X66239D01*
X66763Y-361647D01*
Y-362172D01*
X66239Y-362697D01*
X65189D01*
X64664Y-362172D01*
X28937Y-281497D02*
Y-284121D01*
X29462Y-284646D01*
X30511D01*
X31036Y-284121D01*
Y-281497D01*
X33660Y-284646D02*
Y-281497D01*
X32086Y-283071D01*
X34185D01*
X14215Y-469757D02*
Y-472380D01*
X14740Y-472905D01*
X15789D01*
X16314Y-472380D01*
Y-469757D01*
X19463D02*
X17364D01*
Y-471331D01*
X18413Y-470806D01*
X18938D01*
X19463Y-471331D01*
Y-472380D01*
X18938Y-472905D01*
X17888D01*
X17364Y-472380D01*
X49173Y-245355D02*
Y-247979D01*
X49698Y-248504D01*
X50748D01*
X51272Y-247979D01*
Y-245355D01*
X54421D02*
X53371Y-245880D01*
X52322Y-246930D01*
Y-247979D01*
X52847Y-248504D01*
X53896D01*
X54421Y-247979D01*
Y-247454D01*
X53896Y-246930D01*
X52322D01*
X63024Y-436352D02*
X62499Y-435828D01*
X61450D01*
X60925Y-436352D01*
Y-438452D01*
X61450Y-438976D01*
X62499D01*
X63024Y-438452D01*
X64074Y-438976D02*
X65123D01*
X64599D01*
Y-435828D01*
X64074Y-436352D01*
X68797Y-438976D02*
X66698D01*
X68797Y-436877D01*
Y-436352D01*
X68272Y-435828D01*
X67222D01*
X66698Y-436352D01*
X62363Y-430138D02*
Y-426990D01*
X63937D01*
X64462Y-427514D01*
Y-428564D01*
X63937Y-429089D01*
X62363D01*
X63413D02*
X64462Y-430138D01*
X67611Y-426990D02*
X66561Y-427514D01*
X65512Y-428564D01*
Y-429613D01*
X66036Y-430138D01*
X67086D01*
X67611Y-429613D01*
Y-429089D01*
X67086Y-428564D01*
X65512D01*
X75276Y-155601D02*
X74751Y-156126D01*
Y-157175D01*
X75276Y-157700D01*
X77375D01*
X77900Y-157175D01*
Y-156126D01*
X77375Y-155601D01*
X76326D01*
Y-156650D01*
X77900Y-154551D02*
X74751D01*
X77900Y-152452D01*
X74751D01*
Y-151403D02*
X77900D01*
Y-149829D01*
X77375Y-149304D01*
X75276D01*
X74751Y-149829D01*
Y-151403D01*
X77600Y-169500D02*
X74451D01*
Y-167926D01*
X74976Y-167401D01*
X76026D01*
X76551Y-167926D01*
Y-169500D01*
Y-168450D02*
X77600Y-167401D01*
X74976Y-164252D02*
X74451Y-164777D01*
Y-165827D01*
X74976Y-166351D01*
X75501D01*
X76026Y-165827D01*
Y-164777D01*
X76551Y-164252D01*
X77075D01*
X77600Y-164777D01*
Y-165827D01*
X77075Y-166351D01*
X74451Y-163203D02*
Y-161104D01*
Y-162153D01*
X77600D01*
X68376Y-195601D02*
X67851Y-196126D01*
Y-197175D01*
X68376Y-197700D01*
X70475D01*
X71000Y-197175D01*
Y-196126D01*
X70475Y-195601D01*
X67851Y-194551D02*
X71000D01*
Y-192452D01*
X67851Y-191403D02*
X71000D01*
X69950D01*
X67851Y-189304D01*
X69426Y-190878D01*
X71000Y-189304D01*
X74151Y-241700D02*
X77300D01*
Y-240126D01*
X76775Y-239601D01*
X76250D01*
X75726Y-240126D01*
Y-241700D01*
Y-240126D01*
X75201Y-239601D01*
X74676D01*
X74151Y-240126D01*
Y-241700D01*
X77300Y-238551D02*
X75201D01*
X74151Y-237502D01*
X75201Y-236452D01*
X77300D01*
X75726D01*
Y-238551D01*
X74151Y-235403D02*
Y-233304D01*
Y-234353D01*
X77300D01*
X73951Y-229200D02*
X77100D01*
Y-227626D01*
X76575Y-227101D01*
X74476D01*
X73951Y-227626D01*
Y-229200D01*
X77100Y-226051D02*
X75001D01*
X73951Y-225002D01*
X75001Y-223952D01*
X77100D01*
X75526D01*
Y-226051D01*
X73951Y-222903D02*
Y-220804D01*
Y-221853D01*
X77100D01*
D48*
X68620Y-377560D02*
G03*
X68620Y-378840I0J-640D01*
G01*
X58383Y-374401D02*
X68620D01*
X58383Y-381999D02*
Y-374401D01*
Y-381999D02*
X68620D01*
Y-378840D01*
Y-377560D02*
Y-374401D01*
X54878Y-720D02*
X78500D01*
X54878Y-17720D02*
Y-791D01*
Y-17720D02*
X78500D01*
Y-791D01*
X5120Y-720D02*
X46459D01*
Y-17649D02*
Y-720D01*
X5120Y-17649D02*
X46459D01*
X5120D02*
Y-720D01*
X23622Y-161024D02*
Y-31102D01*
X59055D01*
Y-161024D02*
Y-31102D01*
X23622Y-161024D02*
X59055D01*
X31496Y-57284D02*
Y-39567D01*
X51181D01*
Y-57284D02*
Y-39567D01*
X31496Y-57284D02*
X51181D01*
X31496Y-78937D02*
Y-62008D01*
X51181D01*
X31496Y-78937D02*
X51181D01*
Y-62008D01*
X31496Y-100591D02*
Y-83661D01*
X51024D01*
X31496Y-100591D02*
X51063D01*
X51024Y-100551D02*
X51063Y-100591D01*
Y-83701D01*
X31496Y-122244D02*
Y-105315D01*
X51181D01*
X31496Y-122244D02*
X51181D01*
Y-105315D01*
X15748Y-279528D02*
Y-165354D01*
X66929D01*
Y-279528D02*
Y-165354D01*
X15748Y-279528D02*
X66929D01*
X27628Y-432193D02*
Y-402693D01*
Y-432193D02*
X44557D01*
Y-402693D01*
X27628D02*
X44557D01*
D49*
X45770Y-243935D02*
G03*
X45770Y-243935I-394J0D01*
G01*
D50*
X48228Y-192913D02*
G03*
X48228Y-192913I-6890J0D01*
G01*
X38189Y-47244D02*
X44488D01*
Y-50394D02*
Y-47244D01*
X38189Y-50394D02*
X44488D01*
X38189D02*
Y-47244D01*
Y-68898D02*
X44488D01*
Y-72047D02*
Y-68898D01*
X38189Y-72047D02*
X44488D01*
X38189D02*
Y-68898D01*
Y-90551D02*
X44488D01*
X38189Y-93701D02*
X44488D01*
Y-90551D01*
X38189Y-93701D02*
Y-90551D01*
Y-112205D02*
X44488D01*
Y-115354D02*
Y-112205D01*
X38189Y-115354D02*
X44488D01*
X38189D02*
Y-112205D01*
X53248Y-204823D02*
Y-181004D01*
X29429Y-204823D02*
Y-181004D01*
Y-204823D02*
X53248D01*
X29429Y-181004D02*
X53248D01*
X30906Y-210925D02*
Y-204823D01*
X33661Y-210925D02*
Y-204823D01*
X30906Y-206988D02*
X33661D01*
X30906Y-210925D02*
X33661D01*
X49016D02*
Y-204823D01*
X51772Y-210925D02*
Y-204823D01*
X49016Y-206988D02*
X51772D01*
X49016Y-210925D02*
X51772D01*
X30906Y-181004D02*
Y-174902D01*
X33661Y-181004D02*
Y-174902D01*
X30906D02*
X33661D01*
X30906Y-178839D02*
X33661D01*
X49016Y-181004D02*
Y-174902D01*
X51772Y-181004D02*
Y-174902D01*
X49016D02*
X51772D01*
X49016Y-178839D02*
X51772D01*
X23740Y-518701D02*
Y-473229D01*
X23741D02*
X27953D01*
Y-477362D02*
Y-473229D01*
X27677Y-477362D02*
X55000D01*
X54724D02*
Y-473229D01*
X58936D01*
X58937Y-518701D02*
Y-473229D01*
X27677Y-518701D02*
Y-477362D01*
X55000Y-518701D02*
Y-477362D01*
X27677Y-494567D02*
X55000D01*
X23741Y-490433D02*
X27953D01*
Y-494567D02*
Y-490433D01*
X54724Y-494567D02*
Y-490433D01*
X58936D01*
X23740Y-517244D02*
X58937D01*
X23740Y-518701D02*
X58937D01*
D51*
X29449Y-358110D02*
Y-351811D01*
X18032D02*
X29449D01*
X18032Y-358110D02*
X29449D01*
X18032D02*
Y-351811D01*
X56069Y-381190D02*
Y-374890D01*
X44651D02*
X56069D01*
X44651Y-381190D02*
X56069D01*
X44651D02*
Y-374890D01*
X18032Y-378290D02*
Y-371991D01*
Y-378290D02*
X29449D01*
X18032Y-371991D02*
X29449D01*
Y-378290D02*
Y-371991D01*
X15467Y-338473D02*
X35656D01*
X15467D02*
Y-321473D01*
X35656Y-338473D02*
Y-321473D01*
X15467D02*
X35656D01*
X47019Y-279080D02*
Y-272780D01*
X35601D02*
X47019D01*
X35601Y-279080D02*
X47019D01*
X35601D02*
Y-272780D01*
D52*
X35540Y-302661D02*
X45540D01*
X35540Y-315259D02*
X45540D01*
X14540Y-302661D02*
X25048D01*
X14540Y-315259D02*
X25048D01*
X45540D02*
Y-302661D01*
X14540Y-315259D02*
Y-302661D01*
M02*
