%FSLAX25Y25*%
%MOIN*%
G70*
G01*
G75*
%ADD10R,0.03150X0.03937*%
%ADD11R,0.02362X0.07874*%
%ADD12R,0.01063X0.07874*%
%ADD13R,0.03937X0.03150*%
%ADD14R,0.05906X0.12992*%
%ADD15R,0.05906X0.03937*%
%ADD16R,0.01969X0.07874*%
%ADD17O,0.01969X0.07874*%
%ADD18R,0.05118X0.05118*%
%ADD19R,0.02362X0.00787*%
%ADD20R,0.03150X0.00787*%
%ADD21R,0.00787X0.02362*%
%ADD22R,0.00787X0.03150*%
%ADD23R,0.03150X0.02559*%
%ADD24R,0.15748X0.05118*%
%ADD25C,0.05906*%
%ADD26R,0.03937X0.04724*%
%ADD27R,0.12402X0.08898*%
%ADD28R,0.02400X0.05906*%
%ADD29R,0.04724X0.03937*%
%ADD30R,0.03150X0.03543*%
%ADD31R,0.03150X0.03543*%
%ADD32R,0.01575X0.03937*%
%ADD33C,0.00787*%
%ADD34C,0.01000*%
%ADD35C,0.01181*%
%ADD36C,0.03150*%
%ADD37C,0.03937*%
%ADD38C,0.02362*%
%ADD39C,0.01575*%
%ADD40R,0.05906X0.05906*%
%ADD41R,0.05906X0.05906*%
%ADD42C,0.01969*%
%ADD43C,0.03150*%
%ADD44C,0.01575*%
%ADD45C,0.00984*%
%ADD46C,0.00600*%
%ADD47C,0.00500*%
%ADD48C,0.00197*%
%ADD49C,0.00591*%
%ADD50C,0.00709*%
%ADD51C,0.00492*%
D33*
X16789Y-424408D02*
G03*
X21731Y-424408I2471J3706D01*
G01*
Y-414172D02*
G03*
X16789Y-414172I-2471J-3706D01*
G01*
X30196Y-247304D02*
G03*
X30196Y-244417I0J1444D01*
G01*
X57182Y-181259D02*
G03*
X57182Y-186201I3706J-2471D01*
G01*
X67418D02*
G03*
X67418Y-181259I-3706J2471D01*
G01*
X49766Y-163172D02*
G03*
X49766Y-163172I-394J0D01*
G01*
X50978Y-226812D02*
G03*
X50978Y-221871I-3706J2471D01*
G01*
X40742D02*
G03*
X40742Y-226812I3706J-2471D01*
G01*
X26676Y-383802D02*
G03*
X26838Y-390039I5097J-2989D01*
G01*
X38261Y-389943D02*
G03*
X38284Y-383806I-5038J3087D01*
G01*
X32626Y-323764D02*
G03*
X26388Y-323925I-2989J-5097D01*
G01*
X26485Y-335349D02*
G03*
X32621Y-335371I3087J5038D01*
G01*
X44781Y-333819D02*
G03*
X49722Y-333819I2471J3706D01*
G01*
Y-323583D02*
G03*
X44781Y-323583I-2471J-3706D01*
G01*
X30780Y-278775D02*
G03*
X30780Y-278775I-394J0D01*
G01*
X52509Y-276168D02*
G03*
X57451Y-276168I2471J3706D01*
G01*
Y-265932D02*
G03*
X52509Y-265932I-2471J-3706D01*
G01*
X27228Y-451694D02*
G03*
X33466Y-451532I2989J5097D01*
G01*
X33369Y-440109D02*
G03*
X27233Y-440086I-3087J-5038D01*
G01*
X41774Y-440089D02*
G03*
X36833Y-440089I-2471J-3706D01*
G01*
Y-450325D02*
G03*
X41774Y-450325I2471J3706D01*
G01*
X45871Y-451616D02*
G03*
X52109Y-451454I2989J5097D01*
G01*
X52012Y-440031D02*
G03*
X45876Y-440008I-3087J-5038D01*
G01*
X26162Y-381552D02*
X37186D01*
Y-376040D01*
X26162D02*
X37186D01*
X26162Y-381552D02*
Y-376040D01*
X53110Y-11700D02*
Y-1700D01*
X3110Y-11700D02*
X53110D01*
X3110Y-1700D02*
X53110D01*
X3110Y-11700D02*
Y-1700D01*
X57950Y-24540D02*
Y-14540D01*
X17950Y-24540D02*
X57950D01*
X17950Y-14540D02*
X57950D01*
X17950Y-24540D02*
Y-14540D01*
X20648Y-34546D02*
Y-29034D01*
X31672D01*
Y-34546D02*
Y-29034D01*
X20648Y-34546D02*
X31672D01*
X16888Y-433256D02*
Y-427744D01*
X27912D01*
Y-433256D02*
Y-427744D01*
X16888Y-433256D02*
X27912D01*
X23494Y-456912D02*
Y-436912D01*
X13494D02*
X23494D01*
X13494Y-456912D02*
Y-436912D01*
Y-456912D02*
X23494D01*
X25714Y-413968D02*
X31226D01*
Y-424992D02*
Y-413968D01*
X25714Y-424992D02*
X31226D01*
X25714D02*
Y-413968D01*
X21731Y-424408D02*
Y-420471D01*
X16789Y-424408D02*
Y-420471D01*
X21731Y-418109D02*
Y-414172D01*
X16789Y-418109D02*
Y-414172D01*
X49449Y-388571D02*
Y-383060D01*
X60473D01*
Y-388571D02*
Y-383060D01*
X49449Y-388571D02*
X60473D01*
X58757Y-416340D02*
Y-401537D01*
X44780Y-401576D02*
X58717D01*
X44583Y-430907D02*
Y-401773D01*
Y-430907D02*
X58717D01*
X58757Y-430710D02*
Y-415198D01*
X44583Y-401773D02*
X44780Y-401576D01*
X59544Y-265688D02*
X65056D01*
Y-276712D02*
Y-265688D01*
X59544Y-276712D02*
X65056D01*
X59544D02*
Y-265688D01*
X30196Y-241529D02*
X49881D01*
X30196Y-250191D02*
X49881D01*
Y-241529D01*
X30196Y-244417D02*
Y-241529D01*
Y-250191D02*
Y-247304D01*
X32452Y-205665D02*
Y-180075D01*
X50168D01*
Y-205665D02*
Y-180075D01*
X32452Y-205665D02*
X50168D01*
X57182Y-186201D02*
X61119D01*
X57182Y-181259D02*
X61119D01*
X63481Y-186201D02*
X67418D01*
X63481Y-181259D02*
X67418D01*
X56498Y-178166D02*
Y-172654D01*
X67522D01*
Y-178166D02*
Y-172654D01*
X56498Y-178166D02*
X67522D01*
X17618Y-154316D02*
Y-148804D01*
X28642D01*
Y-154316D02*
Y-148804D01*
X17618Y-154316D02*
X28642D01*
X17478Y-144526D02*
Y-139014D01*
X28502D01*
Y-144526D02*
Y-139014D01*
X17478Y-144526D02*
X28502D01*
X35017Y-143049D02*
X47615D01*
X35017Y-135568D02*
X47615D01*
X42497Y-141080D02*
Y-137930D01*
X47615Y-143049D02*
Y-135568D01*
X35017Y-143049D02*
Y-135568D01*
X35804Y-143049D02*
Y-135568D01*
X40922Y-139505D02*
X42497Y-141080D01*
X40922Y-139505D02*
X42497Y-137930D01*
X35618Y-124176D02*
Y-118664D01*
X46642D01*
Y-124176D02*
Y-118664D01*
X35618Y-124176D02*
X46642D01*
X34959Y-116458D02*
X37163D01*
X34998Y-110946D02*
X35628D01*
X34959Y-110985D02*
X34998Y-110946D01*
X34959Y-111576D02*
Y-110985D01*
X35628Y-116458D02*
Y-110946D01*
X34959Y-116458D02*
Y-111576D01*
X35628Y-110946D02*
X46612D01*
Y-116458D02*
Y-110946D01*
X35628Y-116458D02*
X46612D01*
X35708Y-105186D02*
Y-99674D01*
X46732D01*
Y-105186D02*
Y-99674D01*
X35708Y-105186D02*
X46732D01*
X35053Y-94899D02*
X37258D01*
X35093Y-89387D02*
X35723D01*
X35053Y-89427D02*
X35093Y-89387D01*
X35053Y-90017D02*
Y-89427D01*
X35723Y-94899D02*
Y-89387D01*
X35053Y-94899D02*
Y-90017D01*
X35723Y-89387D02*
X46707D01*
Y-94899D02*
Y-89387D01*
X35723Y-94899D02*
X46707D01*
X35668Y-84076D02*
Y-78564D01*
X46692D01*
Y-84076D02*
Y-78564D01*
X35668Y-84076D02*
X46692D01*
X35058Y-73134D02*
X37263D01*
X35098Y-67622D02*
X35727D01*
X35058Y-67661D02*
X35098Y-67622D01*
X35058Y-68252D02*
Y-67661D01*
X35727Y-73134D02*
Y-67622D01*
X35058Y-73134D02*
Y-68252D01*
X35727Y-67622D02*
X46712D01*
Y-73134D02*
Y-67622D01*
X35727Y-73134D02*
X46712D01*
X35838Y-62246D02*
Y-56734D01*
X46862D01*
Y-62246D02*
Y-56734D01*
X35838Y-62246D02*
X46862D01*
X35194Y-51456D02*
X37399D01*
X35233Y-45944D02*
X35863D01*
X35194Y-45983D02*
X35233Y-45944D01*
X35194Y-46574D02*
Y-45983D01*
X35863Y-51456D02*
Y-45944D01*
X35194Y-51456D02*
Y-46574D01*
X35863Y-45944D02*
X46847D01*
Y-51456D02*
Y-45944D01*
X35863Y-51456D02*
X46847D01*
X47041Y-221871D02*
X50978D01*
X47041Y-226812D02*
X50978D01*
X40742Y-221871D02*
X44679D01*
X40742Y-226812D02*
X44679D01*
X41662Y-386690D02*
X47174D01*
X41662D02*
Y-375666D01*
X47174D01*
Y-386690D02*
Y-375666D01*
X49379Y-380791D02*
Y-375279D01*
X60403D01*
Y-380791D02*
Y-375279D01*
X49379Y-380791D02*
X60403D01*
X15805Y-354022D02*
X21317D01*
X15805D02*
Y-342998D01*
X21317D01*
Y-354022D02*
Y-342998D01*
X15815Y-334702D02*
X21327D01*
X15815D02*
Y-323678D01*
X21327D01*
Y-334702D02*
Y-323678D01*
X36635Y-334283D02*
X42147D01*
X36635D02*
Y-323259D01*
X42147D01*
Y-334283D02*
Y-323259D01*
X49722Y-333819D02*
Y-329882D01*
X44781Y-333819D02*
Y-329882D01*
X49722Y-327520D02*
Y-323583D01*
X44781Y-327520D02*
Y-323583D01*
X37112Y-399486D02*
Y-393974D01*
X26088Y-399486D02*
X37112D01*
X26088D02*
Y-393974D01*
X37112D01*
X16189Y-305898D02*
Y-300386D01*
X27213D01*
Y-305898D02*
Y-300386D01*
X16189Y-305898D02*
X27213D01*
X16189Y-313438D02*
Y-307926D01*
X27213D01*
Y-313438D02*
Y-307926D01*
X16189Y-313438D02*
X27213D01*
X44172Y-312006D02*
Y-309644D01*
Y-304132D02*
Y-301770D01*
X38502Y-312006D02*
X44172D01*
X38542Y-301770D02*
X44172D01*
X41070Y-293474D02*
Y-287962D01*
X30047Y-293474D02*
X41070D01*
X30047D02*
Y-287962D01*
X41070D01*
X22374Y-276772D02*
X27886D01*
X22374D02*
Y-265748D01*
X27886D01*
Y-276772D02*
Y-265748D01*
X44744Y-276662D02*
X50256D01*
X44744D02*
Y-265638D01*
X50256D01*
Y-276662D02*
Y-265638D01*
X57451Y-276168D02*
Y-272231D01*
X52509Y-276168D02*
Y-272231D01*
X57451Y-269869D02*
Y-265932D01*
X52509Y-269869D02*
Y-265932D01*
X36833Y-444026D02*
Y-440089D01*
X41774Y-444026D02*
Y-440089D01*
X36833Y-450325D02*
Y-446388D01*
X41774Y-450325D02*
Y-446388D01*
X29844Y-214638D02*
X35356D01*
Y-225662D02*
Y-214638D01*
X29844Y-225662D02*
X35356D01*
X29844D02*
Y-214638D01*
X46502Y-132356D02*
Y-126844D01*
X35478Y-132356D02*
X46502D01*
X35478D02*
Y-126844D01*
X46502D01*
X18268Y-380793D02*
Y-376857D01*
X20236D01*
X20892Y-377513D01*
Y-378825D01*
X20236Y-379481D01*
X18268D01*
X19580D02*
X20892Y-380793D01*
X22204Y-376857D02*
X24828D01*
Y-377513D01*
X22204Y-380137D01*
Y-380793D01*
X26693Y-46615D02*
Y-50551D01*
X28661D01*
X29317Y-49895D01*
Y-47271D01*
X28661Y-46615D01*
X26693D01*
X33253D02*
X30629D01*
Y-48583D01*
X31941Y-47927D01*
X32596D01*
X33253Y-48583D01*
Y-49895D01*
X32596Y-50551D01*
X31285D01*
X30629Y-49895D01*
X26811Y-68387D02*
Y-72323D01*
X28779D01*
X29435Y-71667D01*
Y-69043D01*
X28779Y-68387D01*
X26811D01*
X32715Y-72323D02*
Y-68387D01*
X30747Y-70355D01*
X33371D01*
X26811Y-90395D02*
Y-94331D01*
X28779D01*
X29435Y-93675D01*
Y-91051D01*
X28779Y-90395D01*
X26811D01*
X30747Y-91051D02*
X31403Y-90395D01*
X32715D01*
X33371Y-91051D01*
Y-91707D01*
X32715Y-92363D01*
X32059D01*
X32715D01*
X33371Y-93019D01*
Y-93675D01*
X32715Y-94331D01*
X31403D01*
X30747Y-93675D01*
X27362Y-111615D02*
Y-115551D01*
X29330D01*
X29986Y-114895D01*
Y-112271D01*
X29330Y-111615D01*
X27362D01*
X31298Y-115551D02*
X32610D01*
X31954D01*
Y-111615D01*
X31298Y-112271D01*
X27953Y-318127D02*
X27297Y-318783D01*
Y-320095D01*
X27953Y-320751D01*
X30576D01*
X31232Y-320095D01*
Y-318783D01*
X30576Y-318127D01*
X31232Y-316815D02*
Y-315503D01*
Y-316159D01*
X27297D01*
X27953Y-316815D01*
X43052Y-215447D02*
X42397Y-214791D01*
X41085D01*
X40429Y-215447D01*
Y-218071D01*
X41085Y-218727D01*
X42397D01*
X43052Y-218071D01*
X46988Y-218727D02*
X44364D01*
X46988Y-216103D01*
Y-215447D01*
X46332Y-214791D01*
X45020D01*
X44364Y-215447D01*
X45630Y-317576D02*
X44974Y-318232D01*
Y-319544D01*
X45630Y-320200D01*
X48254D01*
X48910Y-319544D01*
Y-318232D01*
X48254Y-317576D01*
X45630Y-316264D02*
X44974Y-315608D01*
Y-314296D01*
X45630Y-313640D01*
X46286D01*
X46942Y-314296D01*
Y-314952D01*
Y-314296D01*
X47598Y-313640D01*
X48254D01*
X48910Y-314296D01*
Y-315608D01*
X48254Y-316264D01*
X20759Y-385711D02*
X20103Y-385055D01*
X18791D01*
X18135Y-385711D01*
Y-388334D01*
X18791Y-388990D01*
X20103D01*
X20759Y-388334D01*
X24038Y-388990D02*
Y-385055D01*
X22071Y-387022D01*
X24694D01*
X53839Y-283493D02*
X53184Y-284149D01*
Y-285461D01*
X53839Y-286117D01*
X56463D01*
X57119Y-285461D01*
Y-284149D01*
X56463Y-283493D01*
X53184Y-279557D02*
Y-282181D01*
X55151D01*
X54495Y-280869D01*
Y-280213D01*
X55151Y-279557D01*
X56463D01*
X57119Y-280213D01*
Y-281525D01*
X56463Y-282181D01*
X50209Y-456588D02*
X50865Y-455932D01*
Y-454621D01*
X50209Y-453965D01*
X47585D01*
X46929Y-454621D01*
Y-455932D01*
X47585Y-456588D01*
X50865Y-460524D02*
X50209Y-459212D01*
X48897Y-457900D01*
X47585D01*
X46929Y-458556D01*
Y-459868D01*
X47585Y-460524D01*
X48241D01*
X48897Y-459868D01*
Y-457900D01*
X31590Y-456084D02*
X32246Y-455428D01*
Y-454116D01*
X31590Y-453460D01*
X28966D01*
X28310Y-454116D01*
Y-455428D01*
X28966Y-456084D01*
X32246Y-457396D02*
Y-460019D01*
X31590D01*
X28966Y-457396D01*
X28310D01*
X40622Y-455778D02*
X41278Y-455122D01*
Y-453811D01*
X40622Y-453155D01*
X37998D01*
X37342Y-453811D01*
Y-455122D01*
X37998Y-455778D01*
X40622Y-457090D02*
X41278Y-457746D01*
Y-459058D01*
X40622Y-459714D01*
X39966D01*
X39310Y-459058D01*
X38654Y-459714D01*
X37998D01*
X37342Y-459058D01*
Y-457746D01*
X37998Y-457090D01*
X38654D01*
X39310Y-457746D01*
X39966Y-457090D01*
X40622D01*
X39310Y-457746D02*
Y-459058D01*
X15303Y-409738D02*
X14647Y-410394D01*
Y-411706D01*
X15303Y-412362D01*
X17927D01*
X18583Y-411706D01*
Y-410394D01*
X17927Y-409738D01*
Y-408427D02*
X18583Y-407770D01*
Y-406459D01*
X17927Y-405803D01*
X15303D01*
X14647Y-406459D01*
Y-407770D01*
X15303Y-408427D01*
X15959D01*
X16615Y-407770D01*
Y-405803D01*
X59886Y-188404D02*
X59230Y-187748D01*
X57918D01*
X57262Y-188404D01*
Y-191028D01*
X57918Y-191683D01*
X59230D01*
X59886Y-191028D01*
X61198Y-191683D02*
X62510D01*
X61854D01*
Y-187748D01*
X61198Y-188404D01*
X64477D02*
X65133Y-187748D01*
X66445D01*
X67101Y-188404D01*
Y-191028D01*
X66445Y-191683D01*
X65133D01*
X64477Y-191028D01*
Y-188404D01*
X49134Y-137324D02*
Y-141260D01*
X51102D01*
X51758Y-140604D01*
Y-137980D01*
X51102Y-137324D01*
X49134D01*
X55693Y-141260D02*
X53070D01*
X55693Y-138636D01*
Y-137980D01*
X55037Y-137324D01*
X53726D01*
X53070Y-137980D01*
X60510Y-339016D02*
X56575D01*
Y-341640D01*
Y-342951D02*
Y-344263D01*
Y-343607D01*
X60510D01*
X59855Y-342951D01*
X18110Y-463701D02*
X14175D01*
Y-461733D01*
X14830Y-461077D01*
X16142D01*
X16798Y-461733D01*
Y-463701D01*
X18110Y-459765D02*
Y-458453D01*
Y-459109D01*
X14175D01*
X14830Y-459765D01*
X55276Y-9016D02*
Y-5080D01*
X57244D01*
X57899Y-5736D01*
Y-7048D01*
X57244Y-7704D01*
X55276D01*
X61835Y-9016D02*
X59211D01*
X61835Y-6392D01*
Y-5736D01*
X61179Y-5080D01*
X59867D01*
X59211Y-5736D01*
X59921Y-21614D02*
Y-17678D01*
X61889D01*
X62545Y-18334D01*
Y-19646D01*
X61889Y-20302D01*
X59921D01*
X63857Y-18334D02*
X64513Y-17678D01*
X65825D01*
X66481Y-18334D01*
Y-18990D01*
X65825Y-19646D01*
X65169D01*
X65825D01*
X66481Y-20302D01*
Y-20958D01*
X65825Y-21614D01*
X64513D01*
X63857Y-20958D01*
X49402Y-304399D02*
X52026D01*
X52682Y-303743D01*
Y-302431D01*
X52026Y-301775D01*
X49402D01*
X48746Y-302431D01*
Y-303743D01*
X50058Y-303087D02*
X48746Y-304399D01*
Y-303743D02*
X49402Y-304399D01*
X48746Y-305711D02*
Y-307023D01*
Y-306367D01*
X52682D01*
X52026Y-305711D01*
X24962Y-396724D02*
Y-400660D01*
X22994D01*
X22338Y-400004D01*
Y-398692D01*
X22994Y-398036D01*
X24962D01*
X23650D02*
X22338Y-396724D01*
X21026D02*
X19715D01*
X20370D01*
Y-400660D01*
X21026Y-400004D01*
X61772Y-387992D02*
Y-384056D01*
X63740D01*
X64395Y-384712D01*
Y-386024D01*
X63740Y-386680D01*
X61772D01*
X63084D02*
X64395Y-387992D01*
X68331D02*
X65707D01*
X68331Y-385368D01*
Y-384712D01*
X67675Y-384056D01*
X66363D01*
X65707Y-384712D01*
X61654Y-379961D02*
Y-376025D01*
X63621D01*
X64277Y-376681D01*
Y-377993D01*
X63621Y-378649D01*
X61654D01*
X62965D02*
X64277Y-379961D01*
X65589Y-376681D02*
X66245Y-376025D01*
X67557D01*
X68213Y-376681D01*
Y-377337D01*
X67557Y-377993D01*
X66901D01*
X67557D01*
X68213Y-378649D01*
Y-379305D01*
X67557Y-379961D01*
X66245D01*
X65589Y-379305D01*
X46114Y-394334D02*
X42178D01*
Y-392366D01*
X42834Y-391710D01*
X44146D01*
X44802Y-392366D01*
Y-394334D01*
Y-393022D02*
X46114Y-391710D01*
Y-388430D02*
X42178D01*
X44146Y-390398D01*
Y-387774D01*
X18571Y-299134D02*
Y-295198D01*
X20539D01*
X21195Y-295854D01*
Y-297166D01*
X20539Y-297822D01*
X18571D01*
X19883D02*
X21195Y-299134D01*
X25131Y-295198D02*
X22507D01*
Y-297166D01*
X23819Y-296510D01*
X24475D01*
X25131Y-297166D01*
Y-298478D01*
X24475Y-299134D01*
X23163D01*
X22507Y-298478D01*
X41075Y-320751D02*
X37139D01*
Y-318783D01*
X37795Y-318127D01*
X39107D01*
X39763Y-318783D01*
Y-320751D01*
Y-319439D02*
X41075Y-318127D01*
X37139Y-314191D02*
X37795Y-315503D01*
X39107Y-316815D01*
X40419D01*
X41075Y-316159D01*
Y-314847D01*
X40419Y-314191D01*
X39763D01*
X39107Y-314847D01*
Y-316815D01*
X18571Y-318622D02*
Y-314686D01*
X20539D01*
X21195Y-315342D01*
Y-316654D01*
X20539Y-317310D01*
X18571D01*
X19883D02*
X21195Y-318622D01*
X22507Y-315342D02*
X23163Y-314686D01*
X24475D01*
X25131Y-315342D01*
Y-315998D01*
X24475Y-316654D01*
X25131Y-317310D01*
Y-317966D01*
X24475Y-318622D01*
X23163D01*
X22507Y-317966D01*
Y-317310D01*
X23163Y-316654D01*
X22507Y-315998D01*
Y-315342D01*
X23163Y-316654D02*
X24475D01*
X22016Y-292669D02*
Y-288733D01*
X23984D01*
X24640Y-289389D01*
Y-290701D01*
X23984Y-291357D01*
X22016D01*
X23328D02*
X24640Y-292669D01*
X25952Y-292013D02*
X26608Y-292669D01*
X27920D01*
X28576Y-292013D01*
Y-289389D01*
X27920Y-288733D01*
X26608D01*
X25952Y-289389D01*
Y-290045D01*
X26608Y-290701D01*
X28576D01*
X20731Y-276267D02*
X16796D01*
Y-274299D01*
X17452Y-273643D01*
X18764D01*
X19420Y-274299D01*
Y-276267D01*
Y-274955D02*
X20731Y-273643D01*
Y-272331D02*
Y-271019D01*
Y-271675D01*
X16796D01*
X17452Y-272331D01*
Y-269052D02*
X16796Y-268395D01*
Y-267084D01*
X17452Y-266428D01*
X20076D01*
X20731Y-267084D01*
Y-268395D01*
X20076Y-269052D01*
X17452D01*
X26024Y-333071D02*
X22088D01*
Y-331103D01*
X22744Y-330447D01*
X24056D01*
X24712Y-331103D01*
Y-333071D01*
Y-331759D02*
X26024Y-330447D01*
Y-329135D02*
Y-327823D01*
Y-328479D01*
X22088D01*
X22744Y-329135D01*
X26024Y-325855D02*
Y-324543D01*
Y-325199D01*
X22088D01*
X22744Y-325855D01*
X20591Y-365118D02*
X16655D01*
Y-363150D01*
X17311Y-362494D01*
X18623D01*
X19279Y-363150D01*
Y-365118D01*
Y-363806D02*
X20591Y-362494D01*
Y-361182D02*
Y-359871D01*
Y-360526D01*
X16655D01*
X17311Y-361182D01*
X20591Y-355279D02*
Y-357903D01*
X17967Y-355279D01*
X17311D01*
X16655Y-355935D01*
Y-357247D01*
X17311Y-357903D01*
X64399Y-288340D02*
X60464D01*
Y-286373D01*
X61119Y-285717D01*
X62431D01*
X63087Y-286373D01*
Y-288340D01*
Y-287029D02*
X64399Y-285717D01*
Y-284405D02*
Y-283093D01*
Y-283749D01*
X60464D01*
X61119Y-284405D01*
Y-281125D02*
X60464Y-280469D01*
Y-279157D01*
X61119Y-278501D01*
X61775D01*
X62431Y-279157D01*
Y-279813D01*
Y-279157D01*
X63087Y-278501D01*
X63743D01*
X64399Y-279157D01*
Y-280469D01*
X63743Y-281125D01*
X49487Y-287899D02*
X45551D01*
Y-285931D01*
X46207Y-285276D01*
X47519D01*
X48175Y-285931D01*
Y-287899D01*
Y-286587D02*
X49487Y-285276D01*
Y-283963D02*
Y-282652D01*
Y-283308D01*
X45551D01*
X46207Y-283963D01*
X49487Y-278716D02*
X45551D01*
X47519Y-280684D01*
Y-278060D01*
X24273Y-123475D02*
Y-119539D01*
X26241D01*
X26897Y-120195D01*
Y-121507D01*
X26241Y-122163D01*
X24273D01*
X25585D02*
X26897Y-123475D01*
X28209D02*
X29521D01*
X28865D01*
Y-119539D01*
X28209Y-120195D01*
X34113Y-119539D02*
X31489D01*
Y-121507D01*
X32801Y-120851D01*
X33457D01*
X34113Y-121507D01*
Y-122819D01*
X33457Y-123475D01*
X32145D01*
X31489Y-122819D01*
X23858Y-104252D02*
Y-100316D01*
X25826D01*
X26482Y-100972D01*
Y-102284D01*
X25826Y-102940D01*
X23858D01*
X25170D02*
X26482Y-104252D01*
X27794D02*
X29106D01*
X28450D01*
Y-100316D01*
X27794Y-100972D01*
X33698Y-100316D02*
X32386Y-100972D01*
X31074Y-102284D01*
Y-103596D01*
X31730Y-104252D01*
X33042D01*
X33698Y-103596D01*
Y-102940D01*
X33042Y-102284D01*
X31074D01*
X47992Y-131417D02*
Y-127482D01*
X49960D01*
X50616Y-128138D01*
Y-129449D01*
X49960Y-130105D01*
X47992D01*
X49304D02*
X50616Y-131417D01*
X51928D02*
X53240D01*
X52584D01*
Y-127482D01*
X51928Y-128138D01*
X55208Y-127482D02*
X57832D01*
Y-128138D01*
X55208Y-130761D01*
Y-131417D01*
X24567Y-83150D02*
Y-79214D01*
X26535D01*
X27191Y-79870D01*
Y-81182D01*
X26535Y-81838D01*
X24567D01*
X25879D02*
X27191Y-83150D01*
X28503D02*
X29815D01*
X29159D01*
Y-79214D01*
X28503Y-79870D01*
X31782D02*
X32438Y-79214D01*
X33750D01*
X34406Y-79870D01*
Y-80526D01*
X33750Y-81182D01*
X34406Y-81838D01*
Y-82494D01*
X33750Y-83150D01*
X32438D01*
X31782Y-82494D01*
Y-81838D01*
X32438Y-81182D01*
X31782Y-80526D01*
Y-79870D01*
X32438Y-81182D02*
X33750D01*
X6929Y-153701D02*
Y-149765D01*
X8897D01*
X9553Y-150421D01*
Y-151733D01*
X8897Y-152389D01*
X6929D01*
X8241D02*
X9553Y-153701D01*
X10865D02*
X12177D01*
X11521D01*
Y-149765D01*
X10865Y-150421D01*
X14145Y-153045D02*
X14801Y-153701D01*
X16113D01*
X16769Y-153045D01*
Y-150421D01*
X16113Y-149765D01*
X14801D01*
X14145Y-150421D01*
Y-151077D01*
X14801Y-151733D01*
X16769D01*
X23976Y-61850D02*
Y-57915D01*
X25944D01*
X26600Y-58571D01*
Y-59882D01*
X25944Y-60539D01*
X23976D01*
X25288D02*
X26600Y-61850D01*
X30536D02*
X27912D01*
X30536Y-59227D01*
Y-58571D01*
X29880Y-57915D01*
X28568D01*
X27912Y-58571D01*
X31848D02*
X32504Y-57915D01*
X33816D01*
X34472Y-58571D01*
Y-61194D01*
X33816Y-61850D01*
X32504D01*
X31848Y-61194D01*
Y-58571D01*
X6811Y-144095D02*
Y-140159D01*
X8779D01*
X9435Y-140815D01*
Y-142127D01*
X8779Y-142783D01*
X6811D01*
X8123D02*
X9435Y-144095D01*
X13371D02*
X10747D01*
X13371Y-141471D01*
Y-140815D01*
X12715Y-140159D01*
X11403D01*
X10747Y-140815D01*
X14683Y-144095D02*
X15994D01*
X15338D01*
Y-140159D01*
X14683Y-140815D01*
X28210Y-225767D02*
X24275D01*
Y-223799D01*
X24930Y-223143D01*
X26242D01*
X26898Y-223799D01*
Y-225767D01*
Y-224455D02*
X28210Y-223143D01*
Y-219207D02*
Y-221831D01*
X25587Y-219207D01*
X24930D01*
X24275Y-219863D01*
Y-221175D01*
X24930Y-221831D01*
X28210Y-215272D02*
Y-217895D01*
X25587Y-215272D01*
X24930D01*
X24275Y-215928D01*
Y-217239D01*
X24930Y-217895D01*
X34291Y-33779D02*
Y-29844D01*
X36259D01*
X36915Y-30500D01*
Y-31812D01*
X36259Y-32468D01*
X34291D01*
X35603D02*
X36915Y-33779D01*
X40851D02*
X38227D01*
X40851Y-31156D01*
Y-30500D01*
X40195Y-29844D01*
X38883D01*
X38227Y-30500D01*
X42163D02*
X42819Y-29844D01*
X44131D01*
X44787Y-30500D01*
Y-31156D01*
X44131Y-31812D01*
X43475D01*
X44131D01*
X44787Y-32468D01*
Y-33124D01*
X44131Y-33779D01*
X42819D01*
X42163Y-33124D01*
X35827Y-424094D02*
X31891D01*
Y-422127D01*
X32547Y-421471D01*
X33859D01*
X34515Y-422127D01*
Y-424094D01*
Y-422783D02*
X35827Y-421471D01*
Y-417535D02*
Y-420159D01*
X33203Y-417535D01*
X32547D01*
X31891Y-418191D01*
Y-419503D01*
X32547Y-420159D01*
X35827Y-414255D02*
X31891D01*
X33859Y-416223D01*
Y-413599D01*
X29173Y-432677D02*
Y-428741D01*
X31141D01*
X31797Y-429397D01*
Y-430709D01*
X31141Y-431365D01*
X29173D01*
X30485D02*
X31797Y-432677D01*
X35733D02*
X33109D01*
X35733Y-430053D01*
Y-429397D01*
X35077Y-428741D01*
X33765D01*
X33109Y-429397D01*
X39669Y-428741D02*
X37045D01*
Y-430709D01*
X38357Y-430053D01*
X39013D01*
X39669Y-430709D01*
Y-432021D01*
X39013Y-432677D01*
X37701D01*
X37045Y-432021D01*
X57177Y-171205D02*
Y-167269D01*
X59145D01*
X59801Y-167925D01*
Y-169237D01*
X59145Y-169893D01*
X57177D01*
X58489D02*
X59801Y-171205D01*
X63736D02*
X61113D01*
X63736Y-168581D01*
Y-167925D01*
X63081Y-167269D01*
X61769D01*
X61113Y-167925D01*
X67672Y-167269D02*
X66360Y-167925D01*
X65048Y-169237D01*
Y-170549D01*
X65704Y-171205D01*
X67016D01*
X67672Y-170549D01*
Y-169893D01*
X67016Y-169237D01*
X65048D01*
X54122Y-192770D02*
X53466Y-193426D01*
Y-194738D01*
X54122Y-195394D01*
X54778D01*
X55434Y-194738D01*
Y-193426D01*
X56090Y-192770D01*
X56746D01*
X57402Y-193426D01*
Y-194738D01*
X56746Y-195394D01*
X57402Y-191458D02*
Y-190146D01*
Y-190802D01*
X53466D01*
X54122Y-191458D01*
X23663Y-248780D02*
X26943D01*
X27598Y-248124D01*
Y-246812D01*
X26943Y-246156D01*
X23663D01*
X27598Y-244844D02*
Y-243532D01*
Y-244188D01*
X23663D01*
X24319Y-244844D01*
X50432Y-337717D02*
X47152D01*
X46496Y-338372D01*
Y-339684D01*
X47152Y-340340D01*
X50432D01*
X46496Y-344276D02*
Y-341652D01*
X49120Y-344276D01*
X49776D01*
X50432Y-343620D01*
Y-342308D01*
X49776Y-341652D01*
X24768Y-286037D02*
X28047D01*
X28703Y-285381D01*
Y-284069D01*
X28047Y-283414D01*
X24768D01*
X25423Y-282102D02*
X24768Y-281446D01*
Y-280134D01*
X25423Y-279478D01*
X26079D01*
X26735Y-280134D01*
Y-280790D01*
Y-280134D01*
X27391Y-279478D01*
X28047D01*
X28703Y-280134D01*
Y-281446D01*
X28047Y-282102D01*
X65944Y-401732D02*
X62664D01*
X62008Y-402388D01*
Y-403700D01*
X62664Y-404356D01*
X65944D01*
X62008Y-407636D02*
X65944D01*
X63976Y-405668D01*
Y-408292D01*
X14215Y-468969D02*
Y-472249D01*
X14871Y-472905D01*
X16183D01*
X16839Y-472249D01*
Y-468969D01*
X20775D02*
X18151D01*
Y-470937D01*
X19463Y-470282D01*
X20119D01*
X20775Y-470937D01*
Y-472249D01*
X20119Y-472905D01*
X18807D01*
X18151Y-472249D01*
X55779Y-170274D02*
Y-166995D01*
X55123Y-166339D01*
X53811D01*
X53155Y-166995D01*
Y-170274D01*
X49219D02*
X50531Y-169618D01*
X51843Y-168306D01*
Y-166995D01*
X51187Y-166339D01*
X49875D01*
X49219Y-166995D01*
Y-167650D01*
X49875Y-168306D01*
X51843D01*
D45*
X29684Y-256096D02*
G03*
X29684Y-256096I-492J0D01*
G01*
X48181Y-347325D02*
G03*
X48181Y-347325I-492J0D01*
G01*
D46*
X51892Y-161282D02*
G03*
X51892Y-161282I-394J0D01*
G01*
D47*
X45535Y-354357D02*
G03*
X45535Y-358857I248J-2250D01*
G01*
D48*
X48228Y-192913D02*
G03*
X48228Y-192913I-6890J0D01*
G01*
X38189Y-47244D02*
X44488D01*
Y-50394D02*
Y-47244D01*
X38189Y-50394D02*
X44488D01*
X38189D02*
Y-47244D01*
Y-68898D02*
X44488D01*
Y-72047D02*
Y-68898D01*
X38189Y-72047D02*
X44488D01*
X38189D02*
Y-68898D01*
Y-90551D02*
X44488D01*
X38189Y-93701D02*
X44488D01*
Y-90551D01*
X38189Y-93701D02*
Y-90551D01*
Y-112205D02*
X44488D01*
Y-115354D02*
Y-112205D01*
X38189Y-115354D02*
X44488D01*
X38189D02*
Y-112205D01*
X34449Y-133858D02*
X48228D01*
Y-144882D02*
Y-133858D01*
X34449Y-144882D02*
X48228D01*
X34449D02*
Y-133858D01*
X53248Y-204823D02*
Y-181004D01*
X29429Y-204823D02*
Y-181004D01*
Y-204823D02*
X53248D01*
X29429Y-181004D02*
X53248D01*
X30906Y-210925D02*
Y-204823D01*
X33661Y-210925D02*
Y-204823D01*
X30906Y-206988D02*
X33661D01*
X30906Y-210925D02*
X33661D01*
X49016D02*
Y-204823D01*
X51772Y-210925D02*
Y-204823D01*
X49016Y-206988D02*
X51772D01*
X49016Y-210925D02*
X51772D01*
X30906Y-181004D02*
Y-174902D01*
X33661Y-181004D02*
Y-174902D01*
X30906D02*
X33661D01*
X30906Y-178839D02*
X33661D01*
X49016Y-181004D02*
Y-174902D01*
X51772Y-181004D02*
Y-174902D01*
X49016D02*
X51772D01*
X49016Y-178839D02*
X51772D01*
X23740Y-518701D02*
Y-473229D01*
X23741D02*
X27953D01*
Y-477362D02*
Y-473229D01*
X27677Y-477362D02*
X55000D01*
X54724D02*
Y-473229D01*
X58936D01*
X58937Y-518701D02*
Y-473229D01*
X27677Y-518701D02*
Y-477362D01*
X55000Y-518701D02*
Y-477362D01*
X27677Y-494567D02*
X55000D01*
X23741Y-490433D02*
X27953D01*
Y-494567D02*
Y-490433D01*
X54724Y-494567D02*
Y-490433D01*
X58936D01*
X23740Y-517244D02*
X58937D01*
X23740Y-518701D02*
X58937D01*
D49*
X22808Y-475395D02*
Y-466537D01*
X60170Y-475356D02*
Y-466537D01*
X22808D02*
X60170D01*
X60632Y-162305D02*
X62286D01*
Y-160652D01*
X60632Y-150495D02*
X62286D01*
Y-152148D02*
Y-150495D01*
X50475D02*
X52128D01*
X50475Y-152148D02*
Y-150495D01*
Y-162305D02*
Y-160652D01*
Y-162305D02*
X52167D01*
X39919Y-113741D02*
X41612Y-115434D01*
Y-112009D01*
X39919Y-113702D02*
X41612Y-112009D01*
X39919Y-113702D02*
Y-113702D01*
X40014Y-92183D02*
X41707Y-93876D01*
Y-90450D01*
X40014Y-92143D02*
X41707Y-90450D01*
X40014Y-92143D02*
Y-92143D01*
X40019Y-70417D02*
X41712Y-72110D01*
Y-68685D01*
X40019Y-70378D02*
X41712Y-68685D01*
X40019Y-70378D02*
Y-70378D01*
X40154Y-48739D02*
X41847Y-50432D01*
Y-47007D01*
X40154Y-48700D02*
X41847Y-47007D01*
X40154Y-48700D02*
Y-48700D01*
X26035Y-363857D02*
Y-349357D01*
Y-363857D02*
X46035D01*
Y-358857D01*
Y-354357D02*
Y-349357D01*
X26035D02*
X46035D01*
D50*
X67763Y-366273D02*
Y-346084D01*
X50763Y-366273D02*
X67763D01*
X50763Y-346084D02*
X67763D01*
X50763Y-366273D02*
Y-346084D01*
X26734Y-383770D02*
X31106D01*
X33862D02*
X38284D01*
X33912Y-390042D02*
X38234D01*
X26834Y-390020D02*
X31206D01*
X32658Y-328193D02*
Y-323821D01*
Y-335371D02*
Y-330949D01*
X26385Y-335321D02*
Y-330999D01*
X26408Y-328293D02*
Y-323921D01*
X30571Y-277425D02*
Y-271126D01*
Y-277425D02*
X41989D01*
X30571Y-271126D02*
X41989D01*
Y-277425D02*
Y-271126D01*
X27197Y-451636D02*
Y-447264D01*
Y-444508D02*
Y-440086D01*
X33469Y-444458D02*
Y-440136D01*
X33447Y-451536D02*
Y-447164D01*
X45840Y-451558D02*
Y-447186D01*
Y-444430D02*
Y-440008D01*
X52112Y-444380D02*
Y-440058D01*
X52090Y-451458D02*
Y-447086D01*
X69345Y-216247D02*
X68820Y-216772D01*
Y-217822D01*
X69345Y-218347D01*
X71444D01*
X71969Y-217822D01*
Y-216772D01*
X71444Y-216247D01*
X70394D01*
Y-217297D01*
X71969Y-215198D02*
X68820D01*
X71969Y-213099D01*
X68820D01*
Y-212049D02*
X71969D01*
Y-210475D01*
X71444Y-209950D01*
X69345D01*
X68820Y-210475D01*
Y-212049D01*
X71969Y-208110D02*
X68820D01*
Y-206536D01*
X69345Y-206011D01*
X70394D01*
X70919Y-206536D01*
Y-208110D01*
Y-207061D02*
X71969Y-206011D01*
X69345Y-202863D02*
X68820Y-203387D01*
Y-204437D01*
X69345Y-204962D01*
X69869D01*
X70394Y-204437D01*
Y-203387D01*
X70919Y-202863D01*
X71444D01*
X71969Y-203387D01*
Y-204437D01*
X71444Y-204962D01*
X68820Y-201813D02*
Y-199714D01*
Y-200764D01*
X71969D01*
X68938Y-197992D02*
X72087D01*
Y-196418D01*
X71562Y-195893D01*
X69463D01*
X68938Y-196418D01*
Y-197992D01*
X72087Y-194843D02*
X69987D01*
X68938Y-193794D01*
X69987Y-192745D01*
X72087D01*
X70512D01*
Y-194843D01*
X68938Y-191695D02*
Y-189596D01*
Y-190645D01*
X72087D01*
X69266Y-185854D02*
X68741Y-186379D01*
Y-187428D01*
X69266Y-187953D01*
X71365D01*
X71890Y-187428D01*
Y-186379D01*
X71365Y-185854D01*
X68741Y-184804D02*
X71890D01*
Y-182705D01*
X68741Y-181656D02*
X71890D01*
X70840D01*
X68741Y-179557D01*
X70315Y-181131D01*
X71890Y-179557D01*
X68702Y-177756D02*
X71850D01*
Y-176182D01*
X71326Y-175657D01*
X70801D01*
X70276Y-176182D01*
Y-177756D01*
Y-176182D01*
X69751Y-175657D01*
X69227D01*
X68702Y-176182D01*
Y-177756D01*
X71850Y-174607D02*
X69751D01*
X68702Y-173558D01*
X69751Y-172508D01*
X71850D01*
X70276D01*
Y-174607D01*
X68702Y-171459D02*
Y-169360D01*
Y-170409D01*
X71850D01*
D51*
X45535Y-358857D02*
X46035D01*
X45535Y-354357D02*
X46035D01*
M02*
