%FSLAX25Y25*%
%MOIN*%
G70*
G01*
G75*
G04 Layer_Color=255*
%ADD10R,0.03150X0.03937*%
%ADD11R,0.02362X0.07874*%
%ADD12R,0.01063X0.07874*%
%ADD13R,0.03937X0.03150*%
%ADD14R,0.05906X0.12992*%
%ADD15R,0.05906X0.03937*%
%ADD16R,0.01969X0.07874*%
%ADD17O,0.01969X0.07874*%
%ADD18R,0.05118X0.05118*%
%ADD19R,0.02362X0.00787*%
%ADD20R,0.03150X0.00787*%
%ADD21R,0.00787X0.02362*%
%ADD22R,0.00787X0.03150*%
%ADD23R,0.03150X0.02559*%
%ADD24R,0.15748X0.05118*%
%ADD25C,0.05906*%
%ADD26R,0.03937X0.04724*%
%ADD27R,0.12402X0.08898*%
%ADD28R,0.02400X0.05906*%
%ADD29R,0.04724X0.03937*%
%ADD30R,0.03150X0.03543*%
%ADD31R,0.03150X0.03543*%
%ADD32R,0.01575X0.03937*%
%ADD33C,0.00787*%
%ADD34C,0.01000*%
%ADD35C,0.01181*%
%ADD36C,0.03150*%
%ADD37C,0.03937*%
%ADD38C,0.02362*%
%ADD39C,0.01575*%
%ADD40R,0.05906X0.05906*%
%ADD41R,0.05906X0.05906*%
%ADD42C,0.01969*%
%ADD43C,0.03150*%
%ADD44C,0.01575*%
D11*
X58438Y-471340D02*
D03*
X24422D02*
D03*
D12*
X42414D02*
D03*
X44383D02*
D03*
X46351D02*
D03*
X48320D02*
D03*
X50288D02*
D03*
X52257D02*
D03*
X40446D02*
D03*
X38477D02*
D03*
X36509D02*
D03*
X34540D02*
D03*
X32572D02*
D03*
X30603D02*
D03*
D25*
X18110Y-6700D02*
D03*
X28110D02*
D03*
X38110D02*
D03*
X48110D02*
D03*
X32950Y-19540D02*
D03*
X42950D02*
D03*
X52950D02*
D03*
X18494Y-451912D02*
D03*
X32452Y-205665D02*
D03*
X50168D02*
D03*
X32452Y-180075D02*
D03*
X50168D02*
D03*
D40*
X8110Y-6700D02*
D03*
X22950Y-19540D02*
D03*
D41*
X18494Y-441912D02*
D03*
M02*
