%FSLAX25Y25*%
%MOIN*%
G70*
G01*
G75*
G04 Layer_Color=2752767*
%ADD10R,0.03150X0.03937*%
%ADD11R,0.02362X0.07874*%
%ADD12R,0.01063X0.07874*%
%ADD13R,0.03937X0.03150*%
%ADD14R,0.05906X0.12992*%
%ADD15R,0.05906X0.03937*%
%ADD16R,0.01969X0.07874*%
%ADD17O,0.01969X0.07874*%
%ADD18R,0.05118X0.05118*%
%ADD19R,0.02362X0.00787*%
%ADD20R,0.03150X0.00787*%
%ADD21R,0.00787X0.02362*%
%ADD22R,0.00787X0.03150*%
%ADD23R,0.03150X0.02559*%
%ADD24R,0.15748X0.05118*%
%ADD25C,0.05906*%
%ADD26R,0.03937X0.04724*%
%ADD27R,0.12402X0.08898*%
%ADD28R,0.02400X0.05906*%
%ADD29R,0.04724X0.03937*%
%ADD30R,0.03150X0.03543*%
%ADD31R,0.03150X0.03543*%
%ADD32R,0.01575X0.03937*%
%ADD33C,0.00787*%
%ADD34C,0.01000*%
%ADD35C,0.01181*%
%ADD36C,0.03150*%
%ADD37C,0.03937*%
%ADD38C,0.02362*%
%ADD39C,0.01575*%
%ADD40R,0.05906X0.05906*%
%ADD41R,0.05906X0.05906*%
%ADD42C,0.01969*%
%ADD43C,0.03150*%
%ADD44C,0.01575*%
%ADD45C,0.00984*%
%ADD46C,0.00600*%
%ADD47C,0.00500*%
%ADD48C,0.00197*%
%ADD49C,0.00591*%
%ADD50C,0.00709*%
%ADD51C,0.00492*%
%ADD52R,0.03950X0.04737*%
%ADD53R,0.03162X0.08674*%
%ADD54R,0.01863X0.08674*%
%ADD55R,0.04737X0.03950*%
%ADD56R,0.06706X0.13792*%
%ADD57R,0.06706X0.04737*%
%ADD58R,0.02769X0.08674*%
%ADD59O,0.02769X0.08674*%
%ADD60R,0.05918X0.05918*%
%ADD61R,0.03162X0.01587*%
%ADD62R,0.03950X0.01587*%
%ADD63R,0.01587X0.03162*%
%ADD64R,0.01587X0.03950*%
%ADD65R,0.03950X0.03359*%
%ADD66R,0.16548X0.05918*%
%ADD67C,0.06706*%
%ADD68R,0.04737X0.05524*%
%ADD69R,0.13202X0.09698*%
%ADD70R,0.03200X0.06706*%
%ADD71R,0.05524X0.04737*%
%ADD72R,0.03950X0.04343*%
%ADD73R,0.03950X0.04343*%
%ADD74R,0.02375X0.04737*%
%ADD75R,0.06706X0.06706*%
%ADD76R,0.06706X0.06706*%
%ADD77C,0.00667*%
D48*
X6110Y-8700D02*
Y-4700D01*
X10110D01*
Y-8700D01*
X6110D01*
X16110D02*
Y-4700D01*
X20110D01*
Y-8700D01*
X16110D01*
X26110D02*
Y-4700D01*
X30110D01*
Y-8700D01*
X26110D01*
X36110D02*
Y-4700D01*
X40110D01*
Y-8700D01*
X36110D01*
X46110D02*
Y-4700D01*
X50110D01*
Y-8700D01*
X46110D01*
X20950Y-21540D02*
Y-17540D01*
X24950D01*
Y-21540D01*
X20950D01*
X30950D02*
Y-17540D01*
X34950D01*
Y-21540D01*
X30950D01*
X40950D02*
Y-17540D01*
X44950D01*
Y-21540D01*
X40950D01*
X50950D02*
Y-17540D01*
X54950D01*
Y-21540D01*
X50950D01*
X16494Y-453912D02*
Y-449912D01*
X20494D01*
Y-453912D01*
X16494D01*
Y-443912D02*
Y-439912D01*
X20494D01*
Y-443912D01*
X16494D01*
X65945Y-151173D02*
X63945Y-147173D01*
X67945D01*
X65945Y-151173D01*
X71181Y-162866D02*
X69181Y-158866D01*
X73181D01*
X71181Y-162866D01*
X49370Y-136961D02*
X47370Y-132961D01*
X51370D01*
X49370Y-136961D01*
X71772Y-140228D02*
X69772Y-136228D01*
X73772D01*
X71772Y-140228D01*
X72716Y-134047D02*
X70717Y-130047D01*
X74717D01*
X72716Y-134047D01*
X48386Y-127630D02*
X46386Y-123630D01*
X50386D01*
X48386Y-127630D01*
X66457Y-164716D02*
X64457Y-160716D01*
X68457D01*
X66457Y-164716D01*
X15827Y-19362D02*
X13827Y-15362D01*
X17827D01*
X15827Y-19362D01*
X32087Y-175307D02*
X30087Y-171307D01*
X34087D01*
X32087Y-175307D01*
X48622Y-168260D02*
X46622Y-164260D01*
X50622D01*
X48622Y-168260D01*
X37047Y-161606D02*
X35047Y-157606D01*
X39047D01*
X37047Y-161606D01*
X23010Y-42454D02*
X21010Y-38454D01*
X25010D01*
X23010Y-42454D01*
X39449Y-153850D02*
X37449Y-149850D01*
X41449D01*
X39449Y-153850D01*
X26024Y-148378D02*
X24024Y-144378D01*
X28024D01*
X26024Y-148378D01*
X62679Y-152317D02*
X60679Y-148317D01*
X64679D01*
X62679Y-152317D01*
X19961Y-168535D02*
X17961Y-164535D01*
X21961D01*
X19961Y-168535D01*
X41299Y-162433D02*
X39299Y-158433D01*
X43299D01*
X41299Y-162433D01*
X73898Y-127984D02*
X71898Y-123984D01*
X75898D01*
X73898Y-127984D01*
X48740Y-145583D02*
X46740Y-141583D01*
X50740D01*
X48740Y-145583D01*
X78110Y-152394D02*
X76110Y-148394D01*
X80110D01*
X78110Y-152394D01*
X54805Y-143695D02*
X52805Y-139695D01*
X56805D01*
X54805Y-143695D01*
X70000Y-182551D02*
X71000Y-181551D01*
X72000D01*
X71000Y-180551D01*
X72000Y-179551D01*
X71000D01*
X70000Y-178551D01*
X69000Y-179551D01*
X68000D01*
X69000Y-180551D01*
X68000Y-181551D01*
X69000D01*
X70000Y-182551D01*
X41496Y-195937D02*
X42496Y-194937D01*
X43496D01*
X42496Y-193937D01*
X43496Y-192937D01*
X42496D01*
X41496Y-191937D01*
X40496Y-192937D01*
X39496D01*
X40496Y-193937D01*
X39496Y-194937D01*
X40496D01*
X41496Y-195937D01*
X31220Y-162472D02*
X29221Y-158472D01*
X33220D01*
X31220Y-162472D01*
X58860Y-172947D02*
X56860Y-168947D01*
X60860D01*
X58860Y-172947D01*
X25770Y-258124D02*
X23770Y-254124D01*
X27770D01*
X25770Y-258124D01*
X18779Y-270110D02*
X16780Y-266110D01*
X20779D01*
X18779Y-270110D01*
X28450Y-406450D02*
X29450Y-405450D01*
X30450D01*
X29450Y-404450D01*
X30450Y-403450D01*
X29450D01*
X28450Y-402450D01*
X27450Y-403450D01*
X26450D01*
X27450Y-404450D01*
X26450Y-405450D01*
X27450D01*
X28450Y-406450D01*
X51339Y-373811D02*
X52339Y-372811D01*
X53339D01*
X52339Y-371811D01*
X53339Y-370811D01*
X52339D01*
X51339Y-369811D01*
X50339Y-370811D01*
X49339D01*
X50339Y-371811D01*
X49339Y-372811D01*
X50339D01*
X51339Y-373811D01*
X14490Y-183576D02*
X12490Y-179576D01*
X16490D01*
X14490Y-183576D01*
Y-424636D02*
X12490Y-420636D01*
X16490D01*
X14490Y-424636D01*
X17165Y-468811D02*
X15165Y-464811D01*
X19165D01*
X17165Y-468811D01*
X63701Y-436213D02*
X61701Y-432213D01*
X65701D01*
X63701Y-436213D01*
X62835Y-460347D02*
X60835Y-456347D01*
X64835D01*
X62835Y-460347D01*
X35039Y-457669D02*
X33039Y-453669D01*
X37039D01*
X35039Y-457669D01*
X24488Y-463417D02*
X22488Y-459417D01*
X26488D01*
X24488Y-463417D01*
X41890Y-403142D02*
X39890Y-399142D01*
X43890D01*
X41890Y-403142D01*
X41142Y-393102D02*
X39142Y-389102D01*
X43142D01*
X41142Y-393102D01*
X63819Y-373024D02*
X61819Y-369024D01*
X65819D01*
X63819Y-373024D01*
X63701Y-324126D02*
X61701Y-320126D01*
X65701D01*
X63701Y-324126D01*
X33819Y-318024D02*
X31819Y-314024D01*
X35819D01*
X33819Y-318024D01*
X47047Y-295228D02*
X45047Y-291228D01*
X49047D01*
X47047Y-295228D01*
X58425Y-294874D02*
X56425Y-290874D01*
X60425D01*
X58425Y-294874D01*
X24764Y-241724D02*
X22764Y-237724D01*
X26764D01*
X24764Y-241724D01*
X58425Y-235701D02*
X56425Y-231701D01*
X60425D01*
X58425Y-235701D01*
X77047Y-99244D02*
X75047Y-95244D01*
X79047D01*
X77047Y-99244D01*
X78858Y-76764D02*
X76858Y-72764D01*
X80858D01*
X78858Y-76764D01*
X79685Y-145504D02*
X77685Y-141504D01*
X81685D01*
X79685Y-145504D01*
X6772Y-207709D02*
X4772Y-203709D01*
X8772D01*
X6772Y-207709D01*
X61496Y-206410D02*
X59496Y-202409D01*
X63496D01*
X61496Y-206410D01*
X26496Y-215386D02*
X24496Y-211386D01*
X28496D01*
X26496Y-215386D01*
X14961Y-174323D02*
X12961Y-170323D01*
X16961D01*
X14961Y-174323D01*
X25118Y-166016D02*
X23118Y-162016D01*
X27118D01*
X25118Y-166016D01*
X18622Y-127905D02*
X16622Y-123906D01*
X20622D01*
X18622Y-127905D01*
X25984Y-114480D02*
X23984Y-110480D01*
X27984D01*
X25984Y-114480D01*
X3032Y-28496D02*
X1032Y-24496D01*
X5032D01*
X3032Y-28496D01*
X30158Y-41370D02*
X28157Y-37370D01*
X32157D01*
X30158Y-41370D01*
X27913Y-66173D02*
X25913Y-62173D01*
X29913D01*
X27913Y-66173D01*
X29016Y-88221D02*
X27016Y-84220D01*
X31016D01*
X29016Y-88221D01*
X50945Y-106843D02*
X48945Y-102842D01*
X52945D01*
X50945Y-106843D01*
X51929Y-90543D02*
X49929Y-86543D01*
X53929D01*
X51929Y-90543D01*
X53543Y-68732D02*
X51543Y-64732D01*
X55543D01*
X53543Y-68732D01*
X75827Y-51488D02*
X73827Y-47488D01*
X77827D01*
X75827Y-51488D01*
X63701Y-33850D02*
X61701Y-29850D01*
X65701D01*
X63701Y-33850D01*
X63150Y-193929D02*
X61150Y-189929D01*
X65150D01*
X63150Y-193929D01*
X75646Y-206319D02*
X73646Y-202319D01*
X77646D01*
X75646Y-206319D01*
X18110Y-114205D02*
X16110Y-110205D01*
X20110D01*
X18110Y-114205D01*
X56063Y-264795D02*
X54063Y-260795D01*
X58063D01*
X56063Y-264795D01*
X66929Y-237433D02*
X64929Y-233433D01*
X68929D01*
X66929Y-237433D01*
X56931Y-308888D02*
X54931Y-304888D01*
X58931D01*
X56931Y-308888D01*
X42538Y-251430D02*
X43538Y-250430D01*
X44538D01*
X43538Y-249430D01*
X44538Y-248430D01*
X43538D01*
X42538Y-247430D01*
X41538Y-248430D01*
X40538D01*
X41538Y-249430D01*
X40538Y-250430D01*
X41538D01*
X42538Y-251430D01*
X39391Y-321428D02*
X40391Y-320428D01*
X41391D01*
X40391Y-319428D01*
X41391Y-318428D01*
X40391D01*
X39391Y-317428D01*
X38391Y-318428D01*
X37391D01*
X38391Y-319428D01*
X37391Y-320428D01*
X38391D01*
X39391Y-321428D01*
X56931Y-395345D02*
X54931Y-391345D01*
X58931D01*
X56931Y-395345D01*
X46351Y-463680D02*
X47351Y-462680D01*
X48351D01*
X47351Y-461680D01*
X48351Y-460680D01*
X47351D01*
X46351Y-459680D01*
X45351Y-460680D01*
X44351D01*
X45351Y-461680D01*
X44351Y-462680D01*
X45351D01*
X46351Y-463680D01*
X53039Y-157039D02*
X54039Y-155039D01*
X53039Y-153039D01*
X55039Y-154039D01*
X57039Y-153039D01*
X56039Y-155039D01*
X57039Y-157039D01*
X55039Y-156039D01*
X53039Y-157039D01*
Y-159598D02*
X54039Y-157598D01*
X53039Y-155598D01*
X55039Y-156598D01*
X57039Y-155598D01*
X56039Y-157598D01*
X57039Y-159598D01*
X55039Y-158598D01*
X53039Y-159598D01*
X55677D02*
X56677Y-157598D01*
X55677Y-155598D01*
X57677Y-156598D01*
X59677Y-155598D01*
X58677Y-157598D01*
X59677Y-159598D01*
X57677Y-158598D01*
X55677Y-159598D01*
Y-157079D02*
X56677Y-155079D01*
X55677Y-153079D01*
X57677Y-154079D01*
X59677Y-153079D01*
X58677Y-155079D01*
X59677Y-157079D01*
X57677Y-156079D01*
X55677Y-157079D01*
X31850Y-356252D02*
X29850Y-352252D01*
X33850D01*
X31850Y-356252D01*
X40276Y-360740D02*
X38276Y-356740D01*
X42276D01*
X40276Y-360740D01*
X36063D02*
X34063Y-356740D01*
X38063D01*
X36063Y-360740D01*
X31850D02*
X29850Y-356740D01*
X33850D01*
X31850Y-360740D01*
X40276Y-356252D02*
X38276Y-352252D01*
X42276D01*
X40276Y-356252D01*
X36063D02*
X34063Y-352252D01*
X38063D01*
X36063Y-356252D01*
X25770Y-369857D02*
X26770Y-368857D01*
X27770D01*
X26770Y-367857D01*
X27770Y-366857D01*
X26770D01*
X25770Y-365857D01*
X24770Y-366857D01*
X23770D01*
X24770Y-367857D01*
X23770Y-368857D01*
X24770D01*
X25770Y-369857D01*
X49055Y-122512D02*
X47055Y-118512D01*
X51055D01*
X49055Y-122512D01*
X35118Y-150819D02*
X33118Y-146819D01*
X37118D01*
X35118Y-150819D01*
D77*
X34452Y-205665D02*
G03*
X34452Y-205665I-2000J0D01*
G01*
X52168D02*
G03*
X52168Y-205665I-2000J0D01*
G01*
X34452Y-180075D02*
G03*
X34452Y-180075I-2000J0D01*
G01*
X52168D02*
G03*
X52168Y-180075I-2000J0D01*
G01*
M02*
