%FSLAX25Y25*%
%MOIN*%
G70*
G01*
G75*
G04 Layer_Physical_Order=1*
G04 Layer_Color=255*
%ADD10R,0.03150X0.03937*%
%ADD11R,0.02362X0.07874*%
%ADD12R,0.01063X0.07874*%
%ADD13R,0.03937X0.03150*%
%ADD14R,0.05906X0.12992*%
%ADD15R,0.05906X0.03937*%
%ADD16R,0.01969X0.07874*%
%ADD17O,0.01969X0.07874*%
%ADD18R,0.05118X0.05118*%
%ADD19R,0.02362X0.00787*%
%ADD20R,0.03150X0.00787*%
%ADD21R,0.00787X0.02362*%
%ADD22R,0.00787X0.03150*%
%ADD23R,0.03150X0.02559*%
%ADD24R,0.15748X0.05118*%
%ADD25C,0.05906*%
%ADD26R,0.03937X0.04724*%
%ADD27R,0.12402X0.08898*%
%ADD28R,0.02400X0.05906*%
%ADD29R,0.04724X0.03937*%
%ADD30R,0.03150X0.03543*%
%ADD31R,0.03150X0.03543*%
%ADD32R,0.01575X0.03937*%
%ADD33C,0.00787*%
%ADD34C,0.01000*%
%ADD35C,0.01181*%
%ADD36C,0.03150*%
%ADD37C,0.03937*%
%ADD38C,0.02362*%
%ADD39C,0.01575*%
%ADD40R,0.05906X0.05906*%
%ADD41R,0.05906X0.05906*%
%ADD42C,0.01969*%
%ADD43C,0.03150*%
%ADD44C,0.01575*%
G36*
X81674Y-151885D02*
X81212Y-152076D01*
X79685Y-150549D01*
X79716Y-150394D01*
X79594Y-149779D01*
X79246Y-149258D01*
X78725Y-148910D01*
X78110Y-148788D01*
X77496Y-148910D01*
X76982Y-149253D01*
X76906Y-149213D01*
X76542Y-148969D01*
Y-127516D01*
X76542Y-127516D01*
X76457Y-127091D01*
X76216Y-126730D01*
X75498Y-126012D01*
X75503Y-125984D01*
X75381Y-125370D01*
X75033Y-124849D01*
X74512Y-124501D01*
X73898Y-124379D01*
X73283Y-124501D01*
X72762Y-124849D01*
X72414Y-125370D01*
X72292Y-125984D01*
X72414Y-126599D01*
X72762Y-127120D01*
X73283Y-127468D01*
X73898Y-127590D01*
X73925Y-127584D01*
X74318Y-127977D01*
Y-130601D01*
X73852Y-130912D01*
X73331Y-130564D01*
X72716Y-130442D01*
X72102Y-130564D01*
X71581Y-130912D01*
X71233Y-131433D01*
X71111Y-132047D01*
X71233Y-132662D01*
X71581Y-133183D01*
X72102Y-133531D01*
X72716Y-133653D01*
X72942Y-134786D01*
Y-136586D01*
X72501Y-136822D01*
X72386Y-136745D01*
X71772Y-136623D01*
X71157Y-136745D01*
X70697Y-137053D01*
X70256Y-136817D01*
Y-20984D01*
X70179Y-20600D01*
X69962Y-20275D01*
X55677Y-5990D01*
X55352Y-5773D01*
X54968Y-5697D01*
X51530D01*
X51205Y-4913D01*
X50637Y-4173D01*
X49897Y-3605D01*
X49035Y-3248D01*
X48110Y-3126D01*
X47185Y-3248D01*
X46323Y-3605D01*
X45583Y-4173D01*
X45015Y-4913D01*
X44658Y-5775D01*
X44536Y-6700D01*
X44658Y-7625D01*
X45015Y-8487D01*
X45583Y-9227D01*
X46323Y-9795D01*
X47185Y-10152D01*
X48110Y-10274D01*
X49035Y-10152D01*
X49897Y-9795D01*
X50637Y-9227D01*
X51205Y-8487D01*
X51530Y-7704D01*
X54552D01*
X68248Y-21400D01*
Y-70390D01*
X67787Y-70582D01*
X46650Y-49446D01*
Y-46141D01*
X42320D01*
Y-51259D01*
X45625D01*
X66870Y-72504D01*
Y-90902D01*
X66392Y-91047D01*
X66300Y-90909D01*
X46515Y-71124D01*
Y-67819D01*
X42184D01*
Y-72937D01*
X45489D01*
X64587Y-92035D01*
Y-110313D01*
X64125Y-110504D01*
X46510Y-92889D01*
Y-89584D01*
X42179D01*
Y-94702D01*
X45485D01*
X63012Y-112230D01*
Y-136907D01*
X56271Y-143649D01*
X55809Y-143457D01*
Y-142918D01*
X55941Y-142830D01*
X56289Y-142309D01*
X56411Y-141695D01*
X56289Y-141080D01*
X55941Y-140560D01*
X55420Y-140211D01*
X54805Y-140089D01*
X54191Y-140211D01*
X53670Y-140560D01*
X53411Y-140947D01*
X52933Y-140802D01*
Y-117008D01*
X52856Y-116624D01*
X52639Y-116298D01*
X49332Y-112992D01*
X49007Y-112775D01*
X48623Y-112698D01*
X46415D01*
Y-111143D01*
X42085D01*
Y-116261D01*
X46415D01*
Y-114705D01*
X48207D01*
X50926Y-117423D01*
Y-133545D01*
X50693Y-133700D01*
X50485Y-133811D01*
X49984Y-133477D01*
X49370Y-133355D01*
X49215Y-133386D01*
X46305Y-130476D01*
Y-127041D01*
X46305D01*
Y-126987D01*
X46659Y-126633D01*
X47162D01*
X47251Y-126765D01*
X47771Y-127113D01*
X48386Y-127236D01*
X49000Y-127113D01*
X49521Y-126765D01*
X49869Y-126244D01*
X49992Y-125630D01*
X49869Y-125015D01*
X49521Y-124495D01*
X49000Y-124146D01*
X48386Y-124024D01*
X47771Y-124146D01*
X47251Y-124495D01*
X47162Y-124626D01*
X31951D01*
X19685Y-112361D01*
X19716Y-112205D01*
X19593Y-111591D01*
X19245Y-111070D01*
X18724Y-110722D01*
X18110Y-110599D01*
X17495Y-110722D01*
X16975Y-111070D01*
X16627Y-111591D01*
X16504Y-112205D01*
X16627Y-112819D01*
X16975Y-113340D01*
X17495Y-113688D01*
X18110Y-113811D01*
X18266Y-113780D01*
X30825Y-126339D01*
X31151Y-126557D01*
X31535Y-126633D01*
X35675D01*
Y-127041D01*
X35675D01*
Y-132159D01*
X37582D01*
X40756Y-135333D01*
Y-135567D01*
X40633Y-135863D01*
X36395D01*
Y-136622D01*
X30176D01*
X30176Y-136622D01*
X29751Y-136706D01*
X29390Y-136947D01*
X29390Y-136947D01*
X27126Y-139211D01*
X23974D01*
Y-143831D01*
X23512Y-144023D01*
X22006Y-142516D01*
Y-139211D01*
X17675D01*
Y-144329D01*
X20980D01*
X23739Y-147088D01*
X24064Y-147305D01*
X24064Y-147305D01*
X24064Y-147305D01*
D01*
X24064Y-147305D01*
X24064Y-147305D01*
X24448Y-147381D01*
X24800D01*
X24888Y-147513D01*
X25409Y-147861D01*
X26024Y-147984D01*
X26638Y-147861D01*
X27159Y-147513D01*
X27507Y-146992D01*
X27629Y-146378D01*
X27507Y-145764D01*
X27159Y-145243D01*
X26638Y-144895D01*
X26297Y-144827D01*
X26346Y-144329D01*
X28305D01*
Y-141177D01*
X30637Y-138846D01*
X36395D01*
Y-139604D01*
Y-140041D01*
X36334Y-140053D01*
X35973Y-140294D01*
X35973Y-140294D01*
X27266Y-149001D01*
X24114D01*
Y-154119D01*
X28445D01*
Y-150967D01*
X36462Y-142950D01*
X40725D01*
Y-139604D01*
Y-135956D01*
X40758Y-135942D01*
D01*
X41187Y-135765D01*
X42694Y-137271D01*
Y-139604D01*
X47025D01*
Y-135863D01*
X44692D01*
X40006Y-131177D01*
Y-127041D01*
X40006D01*
Y-126987D01*
X40359Y-126633D01*
X41974D01*
Y-127041D01*
X41974D01*
Y-132159D01*
X45149D01*
X47795Y-134805D01*
X47764Y-134961D01*
X47887Y-135575D01*
X48235Y-136096D01*
X48756Y-136444D01*
X49370Y-136566D01*
X49984Y-136444D01*
X50485Y-136110D01*
X50693Y-136221D01*
X50926Y-136377D01*
Y-142638D01*
X50926Y-142638D01*
X50926D01*
X51002Y-143022D01*
X51219Y-143347D01*
X52227Y-144355D01*
Y-150101D01*
X52228Y-150108D01*
X51911Y-150495D01*
X50475D01*
Y-151931D01*
X50088Y-152248D01*
X50081Y-152247D01*
X47564D01*
X45885Y-150569D01*
Y-147857D01*
X48585Y-145157D01*
X48740Y-145188D01*
X49355Y-145066D01*
X49876Y-144718D01*
X50224Y-144197D01*
X50346Y-143583D01*
X50224Y-142968D01*
X49876Y-142447D01*
X49355Y-142099D01*
X48740Y-141977D01*
X48126Y-142099D01*
X47605Y-142447D01*
X47257Y-142968D01*
X47135Y-143583D01*
X47165Y-143738D01*
X44172Y-146731D01*
X43955Y-147057D01*
X43878Y-147441D01*
Y-150984D01*
X43878Y-150984D01*
X43878D01*
X43955Y-151368D01*
X44172Y-151694D01*
X45838Y-153360D01*
X45647Y-153822D01*
X42839D01*
X41023Y-152006D01*
X41054Y-151850D01*
X40932Y-151236D01*
X40584Y-150715D01*
X40063Y-150367D01*
X39449Y-150245D01*
X38834Y-150367D01*
X38313Y-150715D01*
X37965Y-151236D01*
X37843Y-151850D01*
X37965Y-152465D01*
X38313Y-152986D01*
X38834Y-153334D01*
X39449Y-153456D01*
X39604Y-153425D01*
X41114Y-154935D01*
X40922Y-155396D01*
X35293D01*
X34909Y-155473D01*
X34583Y-155690D01*
X31376Y-158898D01*
X31220Y-158867D01*
X30606Y-158989D01*
X30085Y-159337D01*
X29737Y-159858D01*
X29615Y-160472D01*
X29737Y-161087D01*
X30085Y-161608D01*
X30606Y-161956D01*
X31220Y-162078D01*
X31835Y-161956D01*
X32116Y-162377D01*
X14517Y-179976D01*
X14490Y-179971D01*
X13875Y-180093D01*
X13354Y-180441D01*
X13006Y-180962D01*
X12884Y-181576D01*
X13006Y-182191D01*
X13354Y-182712D01*
X13875Y-183060D01*
X14490Y-183182D01*
X15104Y-183060D01*
X15625Y-182712D01*
X15973Y-182191D01*
X16095Y-181576D01*
X16090Y-181549D01*
X33810Y-163829D01*
X52246D01*
Y-164471D01*
X53802D01*
Y-166472D01*
X41203Y-179071D01*
X35871D01*
X35547Y-178288D01*
X34979Y-177548D01*
X34239Y-176980D01*
X33377Y-176623D01*
X32452Y-176501D01*
X31527Y-176623D01*
X30665Y-176980D01*
X29925Y-177548D01*
X29357Y-178288D01*
X29000Y-179150D01*
X28878Y-180075D01*
X29000Y-181000D01*
X29357Y-181862D01*
X29925Y-182602D01*
X30665Y-183170D01*
X31448Y-183494D01*
Y-202246D01*
X30665Y-202570D01*
X29925Y-203138D01*
X29357Y-203878D01*
X29000Y-204740D01*
X28878Y-205665D01*
X29000Y-206590D01*
X29357Y-207452D01*
X29925Y-208192D01*
X30665Y-208760D01*
X31436Y-209080D01*
Y-214835D01*
X30041D01*
Y-219166D01*
X33265D01*
X33456Y-219628D01*
X31949Y-221134D01*
X30041D01*
Y-225465D01*
X30330D01*
Y-235490D01*
X17218Y-248602D01*
X16740Y-249318D01*
X16572Y-250163D01*
Y-268110D01*
X16740Y-268955D01*
X17218Y-269671D01*
X17935Y-270150D01*
X18779Y-270318D01*
X25129D01*
X25130Y-270318D01*
X31162D01*
Y-270732D01*
X33918D01*
Y-269752D01*
X34038Y-269672D01*
X34517Y-268955D01*
X34685Y-268110D01*
X34517Y-267266D01*
X34038Y-266549D01*
X33918Y-266469D01*
Y-265614D01*
X31162D01*
Y-265903D01*
X25131D01*
X25130Y-265902D01*
X20987D01*
Y-251077D01*
X31991Y-240074D01*
X32538Y-240182D01*
X33153Y-240060D01*
X33674Y-239712D01*
X34021Y-239191D01*
X34144Y-238577D01*
Y-237899D01*
X34578Y-237249D01*
X34746Y-236404D01*
X34668Y-236014D01*
X34746Y-235624D01*
Y-225465D01*
X35159D01*
Y-224169D01*
X43057Y-216271D01*
X43057Y-216271D01*
X43057Y-216271D01*
X43536Y-215555D01*
X43704Y-214710D01*
Y-193937D01*
X43536Y-193092D01*
X43057Y-192376D01*
X42341Y-191897D01*
X41496Y-191729D01*
X40651Y-191897D01*
X39935Y-192376D01*
X39456Y-193092D01*
X39288Y-193937D01*
Y-213795D01*
X35621Y-217463D01*
X35159Y-217271D01*
Y-214835D01*
X33443D01*
Y-209090D01*
X34239Y-208760D01*
X34979Y-208192D01*
X35547Y-207452D01*
X35904Y-206590D01*
X36026Y-205665D01*
X35904Y-204740D01*
X35547Y-203878D01*
X34979Y-203138D01*
X34239Y-202570D01*
X33455Y-202246D01*
Y-183494D01*
X34239Y-183170D01*
X34979Y-182602D01*
X35547Y-181862D01*
X35871Y-181078D01*
X41618D01*
X42002Y-181002D01*
X42328Y-180784D01*
X55515Y-167597D01*
X55660Y-167380D01*
X55732Y-167272D01*
X55809Y-166888D01*
Y-162305D01*
X56951D01*
Y-167889D01*
X54369Y-170472D01*
X54152Y-170797D01*
X54075Y-171181D01*
Y-190079D01*
X54075Y-190079D01*
X54075D01*
X54152Y-190463D01*
X54369Y-190788D01*
X58630Y-195049D01*
X58847Y-195194D01*
X58956Y-195267D01*
X59340Y-195343D01*
X72172D01*
X72194Y-195512D01*
X72551Y-196373D01*
X73119Y-197114D01*
X73859Y-197682D01*
X74721Y-198039D01*
X75646Y-198160D01*
X76571Y-198039D01*
X77433Y-197682D01*
X78173Y-197114D01*
X78741Y-196373D01*
X79098Y-195512D01*
X79220Y-194587D01*
X79098Y-193662D01*
X78741Y-192800D01*
X78173Y-192060D01*
X77433Y-191491D01*
X76571Y-191135D01*
X75646Y-191013D01*
X74721Y-191135D01*
X73859Y-191491D01*
X73119Y-192060D01*
X72551Y-192800D01*
X72329Y-193336D01*
X64634D01*
X64398Y-192895D01*
X64633Y-192544D01*
X64755Y-191929D01*
X64633Y-191315D01*
X64285Y-190794D01*
X63764Y-190446D01*
X63150Y-190323D01*
X62994Y-190354D01*
X60019Y-187380D01*
Y-186289D01*
X61119D01*
Y-181171D01*
X59957D01*
Y-177969D01*
X61026D01*
Y-172851D01*
X59972D01*
Y-172098D01*
X59996Y-172082D01*
X60344Y-171562D01*
X60466Y-170947D01*
X60344Y-170333D01*
X59996Y-169812D01*
X59475Y-169464D01*
X58860Y-169341D01*
X58848Y-169344D01*
X58664Y-169015D01*
X58664D01*
X58664D01*
D01*
X58882Y-168689D01*
X58895Y-168625D01*
X58958Y-168305D01*
Y-167102D01*
X59420Y-166911D01*
X63955Y-171446D01*
Y-172851D01*
X62994D01*
Y-177969D01*
X67325D01*
Y-177329D01*
X69446D01*
X69638Y-177791D01*
X68439Y-178990D01*
X67960Y-179706D01*
X67792Y-180551D01*
X67960Y-181396D01*
X68439Y-182112D01*
X69155Y-182591D01*
X70000Y-182759D01*
X70845Y-182591D01*
X71561Y-182112D01*
X71561Y-182112D01*
X71561Y-182112D01*
X75056Y-178618D01*
X75646Y-178695D01*
X76571Y-178574D01*
X77433Y-178217D01*
X78173Y-177649D01*
X78741Y-176909D01*
X79098Y-176047D01*
X79167Y-175523D01*
X79666Y-175556D01*
Y-178420D01*
X76651Y-181435D01*
X76571Y-181402D01*
X75646Y-181280D01*
X74721Y-181402D01*
X73859Y-181759D01*
X73119Y-182327D01*
X72551Y-183067D01*
X72194Y-183929D01*
X72072Y-184854D01*
X72194Y-185779D01*
X72551Y-186641D01*
X73119Y-187381D01*
X73859Y-187949D01*
X74721Y-188306D01*
X75646Y-188428D01*
X76571Y-188306D01*
X77433Y-187949D01*
X78173Y-187381D01*
X78741Y-186641D01*
X79098Y-185779D01*
X79220Y-184854D01*
X79098Y-183929D01*
X78741Y-183067D01*
X78357Y-182567D01*
X81212Y-179712D01*
X81674Y-179903D01*
Y-245060D01*
X70866D01*
X70482Y-245136D01*
X70157Y-245354D01*
X69939Y-245679D01*
X69863Y-246063D01*
Y-439548D01*
X64961D01*
Y-439521D01*
X63573Y-439704D01*
X62280Y-440239D01*
X61170Y-441091D01*
X60318Y-442202D01*
X59782Y-443495D01*
X59600Y-444882D01*
X59782Y-446270D01*
X60318Y-447563D01*
X61170Y-448673D01*
X62280Y-449525D01*
X63573Y-450060D01*
X64961Y-450243D01*
Y-450216D01*
X69863D01*
Y-475375D01*
X60210D01*
Y-466812D01*
X56666D01*
Y-475375D01*
X51410D01*
Y-466812D01*
X47556D01*
Y-463951D01*
X47642Y-463915D01*
X48176Y-463505D01*
X48587Y-462971D01*
X48844Y-462348D01*
X48932Y-461680D01*
X48844Y-461012D01*
X48587Y-460390D01*
X48176Y-459855D01*
X47642Y-459445D01*
X47019Y-459187D01*
X46351Y-459099D01*
X38753D01*
X38085Y-459187D01*
X37827Y-459294D01*
X37462Y-459445D01*
X36928Y-459855D01*
X34684Y-462099D01*
X34273Y-462634D01*
X34016Y-463256D01*
X33928Y-463924D01*
X34016Y-464592D01*
X34273Y-465215D01*
X34684Y-465750D01*
X35218Y-466160D01*
X35304Y-466195D01*
Y-466812D01*
X31450D01*
Y-475375D01*
X26194D01*
Y-466812D01*
X22650D01*
Y-475375D01*
X12815D01*
Y-423825D01*
X13293Y-423680D01*
X13354Y-423772D01*
X13875Y-424120D01*
X14490Y-424242D01*
X15104Y-424120D01*
X15625Y-423772D01*
X15641Y-423748D01*
X16701D01*
Y-424802D01*
X18148D01*
Y-427941D01*
X17085D01*
Y-433059D01*
X21416D01*
Y-427941D01*
X20372D01*
Y-424802D01*
X21819D01*
Y-423741D01*
X25911D01*
Y-424795D01*
X31029D01*
Y-421459D01*
X31491Y-421268D01*
X35725Y-425502D01*
Y-427954D01*
X36687D01*
Y-431870D01*
X29227Y-439331D01*
X22037D01*
Y-438369D01*
X14951D01*
Y-445456D01*
X22037D01*
Y-444493D01*
X27380D01*
Y-444508D01*
X33285D01*
Y-442573D01*
X36282Y-439576D01*
X36744Y-439767D01*
Y-444026D01*
X39047D01*
X39314Y-444079D01*
X46023D01*
Y-444430D01*
X51928D01*
Y-439312D01*
X51183D01*
Y-426047D01*
X51015Y-425202D01*
X50537Y-424486D01*
X42812Y-416761D01*
Y-413781D01*
X40879D01*
X40830Y-413707D01*
X30658Y-403536D01*
Y-396730D01*
X30616Y-396517D01*
Y-394171D01*
X26285D01*
Y-396517D01*
X26243Y-396730D01*
Y-404450D01*
X26411Y-405295D01*
X26889Y-406011D01*
X35725Y-414847D01*
Y-417548D01*
X35263Y-417739D01*
X32029Y-414505D01*
X31494Y-414095D01*
X31183Y-413966D01*
X31051Y-413911D01*
Y-413667D01*
X30963Y-412999D01*
X30856Y-412741D01*
X30705Y-412376D01*
X30295Y-411842D01*
X21715Y-403262D01*
Y-397388D01*
X29244Y-389859D01*
X31106D01*
Y-387074D01*
X31128Y-386906D01*
Y-378819D01*
X31051Y-378236D01*
Y-368352D01*
X31116Y-367857D01*
X31028Y-367189D01*
X30770Y-366566D01*
X30360Y-366032D01*
X30326Y-366005D01*
Y-364313D01*
X30326D01*
Y-364210D01*
X30679Y-363857D01*
X31745D01*
Y-364313D01*
X31745D01*
Y-371400D01*
X32423D01*
Y-377508D01*
X32423Y-377508D01*
X32508Y-377934D01*
X32658Y-378158D01*
Y-381355D01*
X36989D01*
Y-376237D01*
X34647D01*
Y-371400D01*
X35326D01*
Y-366228D01*
X36283Y-365271D01*
X36745Y-365462D01*
Y-371400D01*
X37423D01*
Y-372145D01*
X37423Y-372145D01*
X37508Y-372571D01*
X37749Y-372931D01*
X41859Y-377042D01*
Y-380194D01*
X46977D01*
Y-379140D01*
X49576D01*
Y-380594D01*
X53907D01*
Y-376127D01*
X54369Y-375936D01*
X55875Y-377443D01*
Y-380594D01*
X56928D01*
Y-383256D01*
X55945D01*
Y-388374D01*
X60276D01*
Y-383256D01*
X59152D01*
Y-380594D01*
X60206D01*
Y-375476D01*
X57054D01*
X53520Y-371943D01*
X53546Y-371811D01*
X53378Y-370966D01*
X52900Y-370250D01*
X52184Y-369771D01*
X51339Y-369603D01*
X48404D01*
X45326Y-366525D01*
Y-364630D01*
X45326Y-364630D01*
D01*
D01*
X45326Y-364313D01*
D01*
X45363Y-364276D01*
X50798D01*
Y-366021D01*
X67728D01*
Y-359722D01*
X50798D01*
Y-361467D01*
X46035D01*
Y-350497D01*
X46497Y-350305D01*
X46671Y-350479D01*
X47126Y-350784D01*
X47664Y-350890D01*
X50798D01*
Y-352635D01*
X67728D01*
Y-346336D01*
X60668D01*
Y-333987D01*
X60561Y-333450D01*
X60256Y-332994D01*
X51624Y-324361D01*
X51168Y-324057D01*
X50630Y-323950D01*
X49810D01*
Y-323189D01*
X44692D01*
Y-327520D01*
X49810D01*
Y-327175D01*
X50272Y-326984D01*
X57858Y-334569D01*
Y-346336D01*
X50798D01*
Y-348081D01*
X48246D01*
X45326Y-345160D01*
Y-341813D01*
X41745D01*
Y-348900D01*
X41745D01*
Y-349003D01*
X41391Y-349357D01*
X40326D01*
Y-348900D01*
X40326D01*
Y-341813D01*
X39647D01*
Y-341224D01*
X46659Y-334213D01*
X49810D01*
Y-329882D01*
X44692D01*
Y-333034D01*
X37749Y-339977D01*
X37508Y-340338D01*
X37423Y-340764D01*
X37423Y-340764D01*
Y-341813D01*
X36745D01*
Y-348900D01*
X36745D01*
Y-349003D01*
X36391Y-349357D01*
X35326D01*
Y-348900D01*
X35326D01*
Y-341813D01*
X34647D01*
Y-338237D01*
X38798Y-334086D01*
X41950D01*
Y-329755D01*
X36832D01*
Y-332907D01*
X32749Y-336990D01*
X32508Y-337351D01*
X32423Y-337777D01*
X32423Y-337777D01*
Y-341813D01*
X31745D01*
Y-348900D01*
X31745D01*
Y-349003D01*
X31391Y-349357D01*
X30326D01*
Y-348900D01*
X30326D01*
Y-341813D01*
X26745D01*
Y-344245D01*
X21120D01*
Y-343195D01*
X19677D01*
Y-334505D01*
X21130D01*
Y-330174D01*
X16012D01*
Y-334505D01*
X17453D01*
Y-343195D01*
X16002D01*
Y-347526D01*
X21120D01*
Y-346468D01*
X26745D01*
Y-348900D01*
X26745D01*
Y-349003D01*
X26391Y-349357D01*
X26035D01*
Y-363857D01*
X26745D01*
Y-364313D01*
X26745D01*
Y-365276D01*
X25770D01*
X25102Y-365363D01*
X24479Y-365621D01*
X23945Y-366032D01*
X23535Y-366566D01*
X23277Y-367189D01*
X23189Y-367857D01*
X23277Y-368525D01*
X23535Y-369147D01*
X23945Y-369682D01*
X24479Y-370092D01*
X25102Y-370350D01*
X25770Y-370438D01*
X25889D01*
Y-378796D01*
X25966Y-379379D01*
Y-385837D01*
X17309Y-394494D01*
X16898Y-395029D01*
X16770Y-395340D01*
X16641Y-395651D01*
X16553Y-396319D01*
Y-404331D01*
X16641Y-404999D01*
X16770Y-405310D01*
X16898Y-405621D01*
X17309Y-406156D01*
X25889Y-414736D01*
Y-416330D01*
X25911Y-416498D01*
Y-418496D01*
X27088D01*
X27179Y-418566D01*
X27802Y-418823D01*
X28470Y-418911D01*
X29135D01*
X30225Y-420002D01*
X30034Y-420464D01*
X25911D01*
Y-421518D01*
X21819D01*
Y-420471D01*
X16701D01*
Y-421524D01*
X15641D01*
X15625Y-421501D01*
X15104Y-421153D01*
X14490Y-421031D01*
X13875Y-421153D01*
X13354Y-421501D01*
X13293Y-421593D01*
X12815Y-421448D01*
Y-246063D01*
X12738Y-245679D01*
X12521Y-245354D01*
X12195Y-245136D01*
X11811Y-245060D01*
X1003D01*
Y-52578D01*
X5906D01*
Y-52605D01*
X7293Y-52422D01*
X8586Y-51887D01*
X9696Y-51035D01*
X10548Y-49924D01*
X11084Y-48632D01*
X11266Y-47244D01*
X11084Y-45857D01*
X10548Y-44564D01*
X9696Y-43453D01*
X8586Y-42601D01*
X7293Y-42066D01*
X5906Y-41883D01*
Y-41910D01*
X1003D01*
Y-1003D01*
X81674D01*
Y-151885D01*
D02*
G37*
G36*
X68248Y-139576D02*
Y-151260D01*
X65687Y-153822D01*
X64451D01*
Y-152266D01*
X63683D01*
Y-151541D01*
X63815Y-151452D01*
X64163Y-150932D01*
X64285Y-150317D01*
X64163Y-149703D01*
X63815Y-149182D01*
X63294Y-148834D01*
X62679Y-148711D01*
X62065Y-148834D01*
X61544Y-149182D01*
X61196Y-149703D01*
X61115Y-150107D01*
X60630Y-150228D01*
X60532Y-150108D01*
X60533Y-150101D01*
Y-146638D01*
X67787Y-139385D01*
X68248Y-139576D01*
D02*
G37*
G36*
X74318Y-154645D02*
Y-171836D01*
X73859Y-172027D01*
X73242Y-172500D01*
X73111Y-172587D01*
X73024Y-172718D01*
X72874Y-172914D01*
X67325D01*
Y-172851D01*
X66364D01*
Y-170947D01*
X66272Y-170486D01*
X66011Y-170096D01*
X66011Y-170096D01*
X60734Y-164818D01*
Y-162699D01*
X60732Y-162692D01*
X61050Y-162305D01*
X62286D01*
Y-160869D01*
X62672Y-160552D01*
X62679Y-160553D01*
X63937D01*
X65179Y-161795D01*
X64973Y-162102D01*
X64851Y-162716D01*
X64973Y-163331D01*
X65321Y-163852D01*
X65842Y-164200D01*
X66457Y-164322D01*
X67071Y-164200D01*
X67592Y-163852D01*
X67940Y-163331D01*
X68062Y-162716D01*
X67940Y-162102D01*
X67592Y-161581D01*
X67423Y-161469D01*
X67384Y-161269D01*
X67166Y-160944D01*
X65663Y-159440D01*
X65854Y-158978D01*
X68915D01*
X69299Y-158902D01*
X69625Y-158684D01*
X73856Y-154453D01*
X74318Y-154645D01*
D02*
G37*
%LPC*%
G36*
X56063Y-261190D02*
X55449Y-261312D01*
X54928Y-261660D01*
X54580Y-262181D01*
X54457Y-262795D01*
X54580Y-263410D01*
X54928Y-263931D01*
X54936Y-263936D01*
Y-265538D01*
X52421D01*
Y-266969D01*
X50059D01*
Y-265835D01*
X44941D01*
Y-266969D01*
X41398D01*
Y-265614D01*
X38642D01*
Y-270732D01*
X41398D01*
Y-269377D01*
X44941D01*
Y-270166D01*
X50059D01*
Y-269377D01*
X52421D01*
Y-269869D01*
X57539D01*
Y-265538D01*
X57344D01*
Y-263712D01*
X57546Y-263410D01*
X57669Y-262795D01*
X57546Y-262181D01*
X57198Y-261660D01*
X56677Y-261312D01*
X56063Y-261190D01*
D02*
G37*
G36*
X37538Y-231066D02*
X36924Y-231188D01*
X36403Y-231536D01*
X36055Y-232057D01*
X35932Y-232671D01*
Y-238577D01*
X36055Y-239191D01*
X36403Y-239712D01*
X36441Y-239738D01*
X36511Y-240090D01*
X36752Y-240450D01*
X41182Y-244881D01*
X41182Y-244881D01*
X41543Y-245122D01*
X41543Y-245122D01*
X41543Y-245122D01*
D01*
X41543Y-245122D01*
X41543Y-245122D01*
X41969Y-245206D01*
X41969Y-245206D01*
X45996D01*
X61188Y-260398D01*
Y-265885D01*
X59741D01*
Y-270216D01*
X64859D01*
Y-265885D01*
X63412D01*
Y-259938D01*
X63327Y-259512D01*
X63086Y-259152D01*
X63086Y-259152D01*
X47243Y-243308D01*
X46882Y-243067D01*
X46457Y-242983D01*
X46457Y-242983D01*
X42429D01*
X38868Y-239421D01*
X39022Y-239191D01*
X39144Y-238577D01*
Y-232671D01*
X39022Y-232057D01*
X38673Y-231536D01*
X38153Y-231188D01*
X37538Y-231066D01*
D02*
G37*
G36*
X50059Y-272134D02*
X44941D01*
Y-273188D01*
X42157D01*
X42157Y-273188D01*
X41732Y-273272D01*
X41371Y-273513D01*
X41371Y-273513D01*
X39234Y-275650D01*
X38993Y-276011D01*
X38908Y-276436D01*
X38908Y-276437D01*
Y-277819D01*
X38642D01*
Y-282937D01*
X41398D01*
Y-277819D01*
X41132D01*
Y-276897D01*
X42618Y-275412D01*
X44941D01*
Y-276465D01*
X50059D01*
Y-275507D01*
X52421D01*
Y-276562D01*
X57539D01*
Y-275507D01*
X59741D01*
Y-276515D01*
X64859D01*
Y-272184D01*
X59741D01*
Y-273283D01*
X57539D01*
Y-272231D01*
X52421D01*
Y-273283D01*
X50059D01*
Y-272134D01*
D02*
G37*
G36*
X75646Y-200745D02*
X74721Y-200867D01*
X73859Y-201224D01*
X73119Y-201792D01*
X72551Y-202532D01*
X72194Y-203394D01*
X72072Y-204319D01*
X72194Y-205244D01*
X72551Y-206106D01*
X73119Y-206846D01*
X73859Y-207414D01*
X74721Y-207771D01*
X75646Y-207893D01*
X76571Y-207771D01*
X77433Y-207414D01*
X78173Y-206846D01*
X78741Y-206106D01*
X79098Y-205244D01*
X79220Y-204319D01*
X79098Y-203394D01*
X78741Y-202532D01*
X78173Y-201792D01*
X77433Y-201224D01*
X76571Y-200867D01*
X75646Y-200745D01*
D02*
G37*
G36*
X44679Y-221782D02*
X40348D01*
Y-226901D01*
X41426D01*
Y-231520D01*
X41403Y-231536D01*
X41055Y-232057D01*
X40933Y-232671D01*
Y-238577D01*
X41055Y-239191D01*
X41403Y-239712D01*
X41924Y-240060D01*
X42538Y-240182D01*
X43153Y-240060D01*
X43674Y-239712D01*
X44021Y-239191D01*
X44144Y-238577D01*
Y-232671D01*
X44021Y-232057D01*
X43674Y-231536D01*
X43650Y-231520D01*
Y-226901D01*
X44679D01*
Y-221782D01*
D02*
G37*
G36*
X42538Y-247223D02*
X41693Y-247391D01*
X40977Y-247869D01*
X40498Y-248586D01*
X40330Y-249430D01*
Y-254869D01*
X39840Y-254966D01*
X39773Y-254806D01*
X39363Y-254271D01*
X39144Y-254103D01*
Y-253144D01*
X39022Y-252529D01*
X38673Y-252008D01*
X38153Y-251660D01*
X37538Y-251538D01*
X36924Y-251660D01*
X36403Y-252008D01*
X36055Y-252529D01*
X35932Y-253144D01*
Y-253515D01*
X34113D01*
Y-251569D01*
X30963D01*
Y-253917D01*
X25770D01*
X24925Y-254085D01*
X24209Y-254563D01*
X23730Y-255279D01*
X23562Y-256124D01*
X23730Y-256969D01*
X24209Y-257685D01*
X24925Y-258164D01*
X25770Y-258332D01*
X30963D01*
Y-260624D01*
X34113D01*
Y-258678D01*
X35932D01*
Y-259049D01*
X36055Y-259664D01*
X36403Y-260185D01*
X36924Y-260532D01*
X37538Y-260655D01*
X38153Y-260532D01*
X38673Y-260185D01*
X39022Y-259664D01*
X39144Y-259049D01*
Y-258090D01*
X39363Y-257922D01*
X39773Y-257387D01*
X39994Y-256856D01*
X40491Y-256905D01*
X40498Y-256941D01*
X40933Y-257591D01*
Y-259049D01*
X41055Y-259664D01*
X41403Y-260185D01*
X41924Y-260532D01*
X42538Y-260655D01*
X43153Y-260532D01*
X43674Y-260185D01*
X44021Y-259664D01*
X44144Y-259049D01*
Y-258304D01*
X45932D01*
Y-259049D01*
X46055Y-259664D01*
X46403Y-260185D01*
X46924Y-260532D01*
X47538Y-260655D01*
X48153Y-260532D01*
X48673Y-260185D01*
X49022Y-259664D01*
X49144Y-259049D01*
Y-257591D01*
X49578Y-256941D01*
X49746Y-256096D01*
X49578Y-255252D01*
X49144Y-254602D01*
Y-253144D01*
X49022Y-252529D01*
X48673Y-252008D01*
X48153Y-251660D01*
X47538Y-251538D01*
X46924Y-251660D01*
X46403Y-252008D01*
X46055Y-252529D01*
X45932Y-253144D01*
Y-253889D01*
X44746D01*
Y-249430D01*
X44578Y-248586D01*
X44099Y-247869D01*
X43383Y-247391D01*
X42538Y-247223D01*
D02*
G37*
G36*
X20717Y-300583D02*
X16386D01*
Y-305701D01*
X16765D01*
Y-308123D01*
X16386D01*
Y-313241D01*
X16765D01*
Y-323875D01*
X16012D01*
Y-324893D01*
X15814Y-325372D01*
X15726Y-326040D01*
X15814Y-326708D01*
X16012Y-327187D01*
Y-328206D01*
X16925D01*
X17017Y-328276D01*
X17639Y-328534D01*
X18307Y-328622D01*
X40276D01*
X40944Y-328534D01*
X41566Y-328276D01*
X42101Y-327866D01*
X42511Y-327331D01*
X42769Y-326708D01*
X42857Y-326040D01*
X42769Y-325372D01*
X42511Y-324750D01*
X42101Y-324215D01*
X41973Y-324117D01*
Y-319428D01*
X41884Y-318759D01*
X41627Y-318137D01*
X41216Y-317602D01*
X40682Y-317192D01*
X40059Y-316934D01*
X39391Y-316846D01*
X38723Y-316934D01*
X38101Y-317192D01*
X37566Y-317602D01*
X37156Y-318137D01*
X36898Y-318759D01*
X36810Y-319428D01*
Y-323459D01*
X32474D01*
Y-323075D01*
X26569D01*
Y-323459D01*
X20378D01*
Y-313241D01*
X20717D01*
Y-308123D01*
X20378D01*
Y-305701D01*
X20717D01*
Y-300583D01*
D02*
G37*
G36*
X56931Y-391739D02*
X56316Y-391861D01*
X55795Y-392210D01*
X55447Y-392730D01*
X55325Y-393345D01*
X55356Y-393500D01*
X53130Y-395726D01*
X36915D01*
Y-394171D01*
X32584D01*
Y-399289D01*
X36915D01*
Y-397733D01*
X53546D01*
X53930Y-397657D01*
X54255Y-397440D01*
X56775Y-394920D01*
X56931Y-394951D01*
X57545Y-394828D01*
X58066Y-394480D01*
X58414Y-393959D01*
X58536Y-393345D01*
X58414Y-392730D01*
X58066Y-392210D01*
X57545Y-391861D01*
X56931Y-391739D01*
D02*
G37*
G36*
X67615Y-409253D02*
X60528D01*
Y-423426D01*
X67615D01*
Y-409253D01*
D02*
G37*
G36*
X27689Y-272244D02*
X22571D01*
Y-276575D01*
X27689D01*
Y-275521D01*
X29618D01*
X31341Y-277245D01*
Y-277819D01*
X31162D01*
Y-282937D01*
X31341D01*
Y-288159D01*
X30244D01*
Y-293277D01*
X34574D01*
Y-288159D01*
X33565D01*
Y-282937D01*
X33918D01*
Y-277819D01*
X33565D01*
Y-276784D01*
X33481Y-276359D01*
X33240Y-275998D01*
X33240Y-275998D01*
X30865Y-273623D01*
X30504Y-273382D01*
X30079Y-273298D01*
X30079Y-273298D01*
X27689D01*
Y-272244D01*
D02*
G37*
G36*
X66929Y-233827D02*
X66315Y-233950D01*
X65794Y-234298D01*
X65446Y-234819D01*
X65324Y-235433D01*
X65446Y-236048D01*
X65794Y-236568D01*
X65926Y-236656D01*
Y-296474D01*
X57086Y-305313D01*
X56931Y-305282D01*
X56316Y-305405D01*
X55795Y-305753D01*
X55707Y-305885D01*
X46337D01*
Y-304526D01*
X42006D01*
Y-309250D01*
X46337D01*
Y-307892D01*
X55707D01*
X55795Y-308024D01*
X56316Y-308372D01*
X56931Y-308494D01*
X57545Y-308372D01*
X58066Y-308024D01*
X58414Y-307503D01*
X58536Y-306888D01*
X58505Y-306733D01*
X67639Y-297599D01*
X67856Y-297274D01*
X67869Y-297210D01*
X67933Y-296890D01*
Y-236656D01*
X68064Y-236568D01*
X68413Y-236048D01*
X68535Y-235433D01*
X68413Y-234819D01*
X68064Y-234298D01*
X67544Y-233950D01*
X66929Y-233827D01*
D02*
G37*
G36*
X27016Y-300583D02*
X22685D01*
Y-305701D01*
X27016D01*
Y-304260D01*
X33345D01*
Y-305510D01*
X37676D01*
Y-300786D01*
X33345D01*
Y-302036D01*
X27016D01*
Y-300583D01*
D02*
G37*
G36*
X22146Y-149001D02*
X17815D01*
Y-154119D01*
X18977D01*
Y-165299D01*
X18825Y-165400D01*
X18477Y-165921D01*
X18355Y-166535D01*
X18477Y-167150D01*
X18825Y-167671D01*
X19346Y-168019D01*
X19961Y-168141D01*
X20575Y-168019D01*
X21096Y-167671D01*
X21444Y-167150D01*
X21566Y-166535D01*
X21444Y-165921D01*
X21096Y-165400D01*
X20984Y-165325D01*
Y-154119D01*
X22146D01*
Y-149001D01*
D02*
G37*
G36*
X40351Y-46141D02*
X36021D01*
Y-51259D01*
X37074D01*
Y-56931D01*
X36035D01*
Y-62049D01*
X40366D01*
Y-56931D01*
X39298D01*
Y-51259D01*
X40351D01*
Y-46141D01*
D02*
G37*
G36*
X40216Y-67819D02*
X35885D01*
Y-72937D01*
X36938D01*
Y-78761D01*
X35865D01*
Y-83879D01*
X40196D01*
Y-78761D01*
X39162D01*
Y-72937D01*
X40216D01*
Y-67819D01*
D02*
G37*
G36*
X40211Y-89584D02*
X35880D01*
Y-94702D01*
X36934D01*
Y-99871D01*
X35905D01*
Y-104989D01*
X40236D01*
Y-99871D01*
X39157D01*
Y-94702D01*
X40211D01*
Y-89584D01*
D02*
G37*
G36*
X52950Y-15966D02*
X52025Y-16088D01*
X51163Y-16445D01*
X50423Y-17013D01*
X49855Y-17753D01*
X49498Y-18615D01*
X49376Y-19540D01*
X49498Y-20465D01*
X49777Y-21140D01*
X40239Y-30678D01*
X31475D01*
Y-29231D01*
X27144D01*
Y-34349D01*
X31475D01*
Y-32902D01*
X40700D01*
X40700Y-32902D01*
X41126Y-32817D01*
X41486Y-32576D01*
X51350Y-22713D01*
X52025Y-22992D01*
X52950Y-23114D01*
X53875Y-22992D01*
X54737Y-22635D01*
X55477Y-22067D01*
X56045Y-21327D01*
X56402Y-20465D01*
X56524Y-19540D01*
X56402Y-18615D01*
X56045Y-17753D01*
X55477Y-17013D01*
X54737Y-16445D01*
X53875Y-16088D01*
X52950Y-15966D01*
D02*
G37*
G36*
X55118Y-30473D02*
X53936Y-30628D01*
X52835Y-31085D01*
X51889Y-31810D01*
X51163Y-32756D01*
X50707Y-33858D01*
X50551Y-35039D01*
X50707Y-36221D01*
X51163Y-37323D01*
X51889Y-38269D01*
X52835Y-38994D01*
X53936Y-39450D01*
X55118Y-39606D01*
X56300Y-39450D01*
X57402Y-38994D01*
X58347Y-38269D01*
X59073Y-37323D01*
X59529Y-36221D01*
X59685Y-35039D01*
X59529Y-33858D01*
X59073Y-32756D01*
X58347Y-31810D01*
X57402Y-31085D01*
X56300Y-30628D01*
X55118Y-30473D01*
D02*
G37*
G36*
X26493Y-15997D02*
X19407D01*
Y-23083D01*
X21946D01*
Y-29231D01*
X20845D01*
Y-34349D01*
X22007D01*
Y-39231D01*
X21875Y-39319D01*
X21527Y-39840D01*
X21405Y-40454D01*
X21527Y-41069D01*
X21875Y-41590D01*
X22396Y-41938D01*
X23010Y-42060D01*
X23625Y-41938D01*
X24146Y-41590D01*
X24494Y-41069D01*
X24616Y-40454D01*
X24494Y-39840D01*
X24146Y-39319D01*
X24014Y-39231D01*
Y-34349D01*
X25176D01*
Y-29231D01*
X23953D01*
Y-23083D01*
X26493D01*
Y-15997D01*
D02*
G37*
G36*
X28110Y-3126D02*
X27185Y-3248D01*
X26323Y-3605D01*
X25583Y-4173D01*
X25015Y-4913D01*
X24658Y-5775D01*
X24536Y-6700D01*
X24598Y-7172D01*
X15982Y-15788D01*
X15827Y-15756D01*
X15212Y-15879D01*
X14691Y-16227D01*
X14343Y-16748D01*
X14221Y-17362D01*
X14343Y-17977D01*
X14691Y-18498D01*
X15212Y-18846D01*
X15827Y-18968D01*
X16441Y-18846D01*
X16962Y-18498D01*
X17310Y-17977D01*
X17432Y-17362D01*
X17402Y-17207D01*
X25394Y-9215D01*
X25583Y-9227D01*
X26323Y-9795D01*
X27185Y-10152D01*
X28110Y-10274D01*
X29035Y-10152D01*
X29897Y-9795D01*
X30637Y-9227D01*
X31205Y-8487D01*
X31562Y-7625D01*
X31684Y-6700D01*
X31562Y-5775D01*
X31205Y-4913D01*
X30637Y-4173D01*
X29897Y-3605D01*
X29035Y-3248D01*
X28110Y-3126D01*
D02*
G37*
G36*
X11653Y-3157D02*
X4567D01*
Y-10243D01*
X11653D01*
Y-3157D01*
D02*
G37*
G36*
X48622Y-164654D02*
X48008Y-164776D01*
X47487Y-165124D01*
X47399Y-165256D01*
X39134D01*
X38750Y-165333D01*
X38424Y-165550D01*
X32242Y-171732D01*
X32087Y-171701D01*
X31472Y-171824D01*
X30951Y-172172D01*
X30603Y-172693D01*
X30481Y-173307D01*
X30603Y-173922D01*
X30951Y-174443D01*
X31472Y-174791D01*
X32087Y-174913D01*
X32701Y-174791D01*
X33222Y-174443D01*
X33570Y-173922D01*
X33692Y-173307D01*
X33661Y-173152D01*
X39549Y-167263D01*
X47399D01*
X47487Y-167395D01*
X48008Y-167743D01*
X48622Y-167866D01*
X49237Y-167743D01*
X49757Y-167395D01*
X50106Y-166874D01*
X50228Y-166260D01*
X50106Y-165645D01*
X49757Y-165124D01*
X49237Y-164776D01*
X48622Y-164654D01*
D02*
G37*
G36*
X40116Y-111143D02*
X35785D01*
Y-116261D01*
X36869D01*
Y-118861D01*
X35815D01*
Y-123979D01*
X40146D01*
Y-118861D01*
X39092D01*
Y-116261D01*
X40116D01*
Y-111143D01*
D02*
G37*
G36*
X27559Y-126929D02*
X26377Y-127085D01*
X25276Y-127541D01*
X24330Y-128267D01*
X23604Y-129213D01*
X23148Y-130314D01*
X22992Y-131496D01*
X23148Y-132678D01*
X23604Y-133779D01*
X24330Y-134725D01*
X25276Y-135451D01*
X26377Y-135907D01*
X27559Y-136063D01*
X28741Y-135907D01*
X29842Y-135451D01*
X30788Y-134725D01*
X31514Y-133779D01*
X31970Y-132678D01*
X32126Y-131496D01*
X31970Y-130314D01*
X31514Y-129213D01*
X30788Y-128267D01*
X29842Y-127541D01*
X28741Y-127085D01*
X27559Y-126929D01*
D02*
G37*
G36*
X18110Y-3126D02*
X17185Y-3248D01*
X16323Y-3605D01*
X15583Y-4173D01*
X15015Y-4913D01*
X14658Y-5775D01*
X14536Y-6700D01*
X14658Y-7625D01*
X15015Y-8487D01*
X15583Y-9227D01*
X16323Y-9795D01*
X17185Y-10152D01*
X18110Y-10274D01*
X19035Y-10152D01*
X19897Y-9795D01*
X20637Y-9227D01*
X21205Y-8487D01*
X21562Y-7625D01*
X21684Y-6700D01*
X21562Y-5775D01*
X21205Y-4913D01*
X20637Y-4173D01*
X19897Y-3605D01*
X19035Y-3248D01*
X18110Y-3126D01*
D02*
G37*
%LPD*%
D10*
X28524Y-378796D02*
D03*
X34823D02*
D03*
X29310Y-31790D02*
D03*
X23010D02*
D03*
X25550Y-430500D02*
D03*
X19250D02*
D03*
X58110Y-385815D02*
D03*
X51811D02*
D03*
X65646Y-183730D02*
D03*
X58953D02*
D03*
X65160Y-175410D02*
D03*
X58860D02*
D03*
X26280Y-151560D02*
D03*
X19980D02*
D03*
X26140Y-141770D02*
D03*
X19840D02*
D03*
X44280Y-121420D02*
D03*
X37980D02*
D03*
X44250Y-113702D02*
D03*
X37951D02*
D03*
X44370Y-102430D02*
D03*
X38070D02*
D03*
X44345Y-92143D02*
D03*
X38045D02*
D03*
X44330Y-81320D02*
D03*
X38030D02*
D03*
X44350Y-70378D02*
D03*
X38050D02*
D03*
X44500Y-59490D02*
D03*
X38200D02*
D03*
X44485Y-48700D02*
D03*
X38186D02*
D03*
X42513Y-224342D02*
D03*
X49207D02*
D03*
X58040Y-378035D02*
D03*
X51741D02*
D03*
X28450Y-396730D02*
D03*
X34750D02*
D03*
X24850Y-303142D02*
D03*
X18551D02*
D03*
X24850Y-310682D02*
D03*
X18551D02*
D03*
X32409Y-290718D02*
D03*
X38708D02*
D03*
X37840Y-129600D02*
D03*
X44140D02*
D03*
D11*
X58438Y-471340D02*
D03*
X24422D02*
D03*
D12*
X52257D02*
D03*
X50288D02*
D03*
X48320D02*
D03*
X46351D02*
D03*
X44383D02*
D03*
X40446D02*
D03*
X38477D02*
D03*
X36509D02*
D03*
X34540D02*
D03*
X32572D02*
D03*
X30603D02*
D03*
X42414D02*
D03*
D13*
X28470Y-422629D02*
D03*
Y-416330D02*
D03*
X19260Y-415943D02*
D03*
Y-422636D02*
D03*
X62300Y-274350D02*
D03*
Y-268050D02*
D03*
X44418Y-378028D02*
D03*
Y-384328D02*
D03*
X18561Y-345360D02*
D03*
Y-351660D02*
D03*
X18571Y-326040D02*
D03*
Y-332340D02*
D03*
X39391Y-325621D02*
D03*
Y-331921D02*
D03*
X47251Y-325355D02*
D03*
Y-332048D02*
D03*
X25130Y-268110D02*
D03*
Y-274410D02*
D03*
X47500Y-268000D02*
D03*
Y-274300D02*
D03*
X54980Y-267704D02*
D03*
Y-274396D02*
D03*
X39303Y-448554D02*
D03*
Y-441861D02*
D03*
X32600Y-223300D02*
D03*
Y-217000D02*
D03*
D14*
X64072Y-416340D02*
D03*
D15*
X39268Y-425395D02*
D03*
Y-416340D02*
D03*
Y-407285D02*
D03*
D16*
X32538Y-256096D02*
D03*
D17*
X47538Y-235624D02*
D03*
X42538D02*
D03*
X37538D02*
D03*
X32538D02*
D03*
X47538Y-256096D02*
D03*
X42538D02*
D03*
X37538D02*
D03*
D18*
X56380Y-156400D02*
D03*
D19*
X50081Y-159550D02*
D03*
Y-153250D02*
D03*
X62679D02*
D03*
Y-159550D02*
D03*
D20*
X50475Y-157975D02*
D03*
Y-156400D02*
D03*
Y-154825D02*
D03*
X62286D02*
D03*
Y-156400D02*
D03*
Y-157975D02*
D03*
D21*
X53230Y-150101D02*
D03*
X59530D02*
D03*
Y-162699D02*
D03*
X53230D02*
D03*
D22*
X54805Y-150495D02*
D03*
X56380D02*
D03*
X57955D02*
D03*
Y-162305D02*
D03*
X56380D02*
D03*
X54805D02*
D03*
D23*
X44859Y-137733D02*
D03*
X38560D02*
D03*
X44859Y-141080D02*
D03*
X38560D02*
D03*
D24*
X59263Y-362871D02*
D03*
Y-349486D02*
D03*
D25*
X75646Y-204319D02*
D03*
Y-194587D02*
D03*
Y-214052D02*
D03*
Y-175122D02*
D03*
Y-184854D02*
D03*
X18110Y-6700D02*
D03*
X28110D02*
D03*
X38110D02*
D03*
X48110D02*
D03*
X32950Y-19540D02*
D03*
X42950D02*
D03*
X52950D02*
D03*
X18494Y-451912D02*
D03*
X32452Y-205665D02*
D03*
X50168D02*
D03*
X32452Y-180075D02*
D03*
X50168D02*
D03*
D26*
X28547Y-386906D02*
D03*
X36421D02*
D03*
D27*
X36035Y-356607D02*
D03*
D28*
X43535Y-345357D02*
D03*
X38535D02*
D03*
X33535D02*
D03*
X28535D02*
D03*
Y-367857D02*
D03*
X33535D02*
D03*
X38535D02*
D03*
X43535D02*
D03*
D29*
X29521Y-325634D02*
D03*
Y-333508D02*
D03*
X30333Y-449823D02*
D03*
Y-441949D02*
D03*
X48976Y-449745D02*
D03*
Y-441871D02*
D03*
D30*
X44172Y-306888D02*
D03*
X35510Y-303148D02*
D03*
D31*
Y-310628D02*
D03*
D32*
X32540Y-280378D02*
D03*
X40020D02*
D03*
X36280D02*
D03*
X40020Y-268173D02*
D03*
X32540D02*
D03*
D33*
X73945Y-152944D02*
Y-133276D01*
X68915Y-157975D02*
X73945Y-152944D01*
X62286Y-157975D02*
X68915D01*
X71772Y-151890D02*
Y-138228D01*
X67261Y-156400D02*
X71772Y-151890D01*
X62286Y-156400D02*
X67261D01*
X44140Y-129730D02*
Y-129600D01*
Y-129730D02*
X49370Y-134961D01*
X48110Y-6700D02*
X54968D01*
X69252Y-20984D01*
Y-151676D02*
Y-20984D01*
X66102Y-154825D02*
X69252Y-151676D01*
X62286Y-154825D02*
X66102D01*
X31535Y-125630D02*
X48386D01*
X72716Y-132047D02*
X73945Y-133276D01*
X64353Y-159550D02*
X66457Y-161653D01*
Y-162716D02*
Y-161653D01*
X62679Y-159550D02*
X64353D01*
X26489Y-6700D02*
X28110D01*
X15827Y-17362D02*
X26489Y-6700D01*
X39134Y-166260D02*
X48622D01*
X32087Y-173307D02*
X39134Y-166260D01*
X19980Y-166516D02*
Y-151560D01*
X41299Y-160433D02*
X42183Y-159550D01*
X37047Y-159606D02*
X38679Y-157975D01*
X31220Y-160472D02*
X35293Y-156400D01*
X38679Y-157975D02*
X50475D01*
X22950Y-31950D02*
Y-19540D01*
X23010Y-40454D02*
Y-31790D01*
X39449Y-151850D02*
X42424Y-154825D01*
X50475D01*
X44882Y-150984D02*
Y-147441D01*
X48740Y-143583D01*
X19840Y-141770D02*
X24448Y-146378D01*
X26024D01*
X62679Y-153250D02*
Y-150317D01*
X42183Y-159550D02*
X50081D01*
X48623Y-113702D02*
X51929Y-117008D01*
Y-142638D02*
Y-117008D01*
Y-142638D02*
X53230Y-143939D01*
Y-150101D02*
Y-143939D01*
X47148Y-153250D02*
X50081D01*
X44882Y-150984D02*
X47148Y-153250D01*
X74898Y-184607D02*
X80669Y-178835D01*
Y-152953D01*
X78110Y-150394D02*
X80669Y-152953D01*
X54805Y-150495D02*
Y-141695D01*
X44345Y-92143D02*
X64016Y-111814D01*
Y-137323D02*
Y-111814D01*
X56380Y-144959D02*
X64016Y-137323D01*
X56380Y-150495D02*
Y-144959D01*
X44350Y-70378D02*
X65591Y-91619D01*
Y-138189D02*
Y-91619D01*
X57955Y-145825D02*
X65591Y-138189D01*
X57955Y-150495D02*
Y-145825D01*
X44485Y-48700D02*
X67874Y-72089D01*
Y-137878D02*
Y-72089D01*
X59530Y-146222D02*
X67874Y-137878D01*
X59530Y-150101D02*
Y-146222D01*
X35293Y-156400D02*
X50475D01*
X32440Y-217340D02*
Y-205677D01*
X32452Y-205665D02*
Y-180075D01*
X59016Y-187795D02*
X63150Y-191929D01*
X58953Y-183730D02*
X59016Y-183792D01*
Y-187795D02*
Y-183792D01*
X58953Y-183730D02*
Y-175503D01*
X57955Y-168305D02*
Y-162305D01*
X55079Y-171181D02*
X57955Y-168305D01*
X55079Y-190079D02*
Y-171181D01*
X59340Y-194340D02*
X74898D01*
X55079Y-190079D02*
X59340Y-194340D01*
X22950Y-19540D02*
X22950Y-19540D01*
X44250Y-113702D02*
X48623D01*
X41618Y-180075D02*
X54805Y-166888D01*
Y-162305D01*
X32452Y-180075D02*
X41618D01*
X44172Y-306888D02*
X56931D01*
X66929Y-296890D01*
Y-235433D01*
X53546Y-396730D02*
X56931Y-393345D01*
X34750Y-396730D02*
X53546D01*
X18110Y-112205D02*
X31535Y-125630D01*
D34*
X75430Y-174905D02*
Y-127516D01*
Y-175122D02*
Y-174905D01*
X73898Y-173373D02*
X75430Y-174905D01*
X75646Y-175122D01*
X73898Y-125984D02*
X75430Y-127516D01*
X58860Y-175410D02*
Y-170947D01*
X40700Y-31790D02*
X52950Y-19540D01*
X29310Y-31790D02*
X40700D01*
X51816Y-371811D02*
X58040Y-378035D01*
X14490Y-181576D02*
X33350Y-162716D01*
X53213D01*
X14490Y-422636D02*
X19260D01*
Y-430490D02*
Y-422636D01*
X19267Y-422629D01*
X28470D01*
X33535Y-367857D02*
Y-366032D01*
X38535Y-340764D02*
X47251Y-332048D01*
X38535Y-345357D02*
Y-340764D01*
X33535Y-337777D02*
X39391Y-331921D01*
X33535Y-345357D02*
Y-337777D01*
X18565Y-345357D02*
X28535D01*
X18565D02*
Y-332346D01*
X32454Y-290674D02*
Y-276784D01*
X30079Y-274410D02*
X32454Y-276784D01*
X25130Y-274410D02*
X30079D01*
X37538Y-239664D02*
Y-235624D01*
X36760Y-141080D02*
X38560D01*
X26280Y-151560D02*
X36760Y-141080D01*
X30176Y-137733D02*
X38560D01*
X26140Y-141770D02*
X30176Y-137733D01*
X42538Y-235624D02*
Y-224366D01*
X25565Y-303148D02*
X35510D01*
X18565Y-332346D02*
X18571Y-332340D01*
X33535Y-377508D02*
Y-367857D01*
X44418Y-378028D02*
X51734D01*
X58040Y-385745D02*
Y-378035D01*
X38535Y-372145D02*
X44418Y-378028D01*
X38535Y-372145D02*
Y-367857D01*
X33535Y-377508D02*
X34823Y-378796D01*
X62300Y-268050D02*
Y-259938D01*
X48727Y-274395D02*
X62300D01*
X48688Y-274434D02*
X48727Y-274395D01*
X40020Y-280378D02*
Y-276436D01*
X42157Y-274300D01*
X47500D01*
X45964Y-274434D02*
X48688D01*
X37538Y-239664D02*
X41969Y-244094D01*
X46457D01*
X62300Y-259938D01*
X37980Y-121420D02*
Y-113731D01*
X37951Y-113702D02*
X37980Y-113731D01*
X38186Y-59476D02*
Y-48700D01*
X38050Y-81300D02*
Y-70378D01*
X38045Y-102405D02*
Y-92143D01*
D35*
X56140Y-267739D02*
Y-262872D01*
X59530Y-165317D02*
X65160Y-170947D01*
Y-175410D02*
Y-170947D01*
X59530Y-165317D02*
Y-162699D01*
X40020Y-268173D02*
X55706D01*
X46351Y-471340D02*
Y-461680D01*
X36509Y-471340D02*
Y-463924D01*
X37840Y-130715D02*
Y-129600D01*
Y-130715D02*
X44859Y-137733D01*
D36*
X75430Y-175122D02*
X75646D01*
X65448D02*
X75430D01*
X70000Y-180551D02*
X75430Y-175122D01*
X41496Y-214710D02*
Y-193937D01*
X32906Y-223300D02*
X41496Y-214710D01*
X32600Y-223300D02*
X32906D01*
X32538Y-223361D02*
X32600Y-223300D01*
X32538Y-235624D02*
Y-223361D01*
X18779Y-250163D02*
X32538Y-236404D01*
X18779Y-268110D02*
Y-250163D01*
X42538Y-256096D02*
Y-249430D01*
Y-256096D02*
X47538D01*
X25770Y-256124D02*
X32510D01*
X25130Y-268110D02*
X32477D01*
X25130Y-268110D02*
X25130Y-268110D01*
X18779Y-268110D02*
X25130D01*
X28450Y-404450D02*
Y-396730D01*
Y-404450D02*
X39268Y-415268D01*
Y-416340D02*
Y-415268D01*
X39314Y-441871D02*
X48976D01*
Y-426047D01*
X39268Y-416340D02*
X48976Y-426047D01*
X43535Y-367857D02*
X47490Y-371811D01*
X51339D01*
D37*
X32538Y-256096D02*
X37538D01*
X18571Y-326040D02*
X40276D01*
X18307D02*
X18571D01*
X28470Y-378796D02*
Y-367857D01*
X28547Y-386906D02*
Y-378819D01*
X19134Y-396319D02*
X28547Y-386906D01*
X19134Y-404331D02*
Y-396319D01*
Y-404331D02*
X28470Y-413667D01*
Y-416330D02*
Y-413667D01*
Y-416330D02*
X30204D01*
X39268Y-425395D01*
Y-432939D02*
Y-425395D01*
X30296Y-441912D02*
X39268Y-432939D01*
X18494Y-441912D02*
X30296D01*
X39391Y-325621D02*
Y-319428D01*
X36509Y-463924D02*
X38753Y-461680D01*
X46351D01*
X28470Y-367857D02*
X28535D01*
X25770D02*
X28470D01*
D38*
X18571Y-326040D02*
Y-303162D01*
D39*
X59263Y-349486D02*
Y-333987D01*
X50630Y-325355D02*
X59263Y-333987D01*
X47251Y-325355D02*
X50630D01*
X36696Y-362871D02*
X59263D01*
X33535Y-366032D02*
X36696Y-362871D01*
X47664Y-349486D02*
X59263D01*
X43535Y-345357D02*
X47664Y-349486D01*
D40*
X8110Y-6700D02*
D03*
X22950Y-19540D02*
D03*
D41*
X18494Y-441912D02*
D03*
D42*
X65945Y-149173D02*
D03*
X71181Y-160866D02*
D03*
X49370Y-134961D02*
D03*
X71772Y-138228D02*
D03*
X72716Y-132047D02*
D03*
X48386Y-125630D02*
D03*
X66457Y-162716D02*
D03*
X15827Y-17362D02*
D03*
X32087Y-173307D02*
D03*
X48622Y-166260D02*
D03*
X37047Y-159606D02*
D03*
X23010Y-40454D02*
D03*
X39449Y-151850D02*
D03*
X26024Y-146378D02*
D03*
X62679Y-150317D02*
D03*
X19961Y-166535D02*
D03*
X41299Y-160433D02*
D03*
X73898Y-125984D02*
D03*
X48740Y-143583D02*
D03*
X78110Y-150394D02*
D03*
X54805Y-141695D02*
D03*
X31220Y-160472D02*
D03*
X58860Y-170947D02*
D03*
X25770Y-256124D02*
D03*
X18779Y-268110D02*
D03*
X14490Y-181576D02*
D03*
Y-422636D02*
D03*
X17165Y-466811D02*
D03*
X63701Y-434213D02*
D03*
X62835Y-458347D02*
D03*
X35039Y-455669D02*
D03*
X24488Y-461417D02*
D03*
X41890Y-401142D02*
D03*
X41142Y-391102D02*
D03*
X63819Y-371024D02*
D03*
X63701Y-322126D02*
D03*
X33819Y-316024D02*
D03*
X47047Y-293228D02*
D03*
X58425Y-292874D02*
D03*
X24764Y-239724D02*
D03*
X58425Y-233701D02*
D03*
X77047Y-97244D02*
D03*
X78858Y-74764D02*
D03*
X79685Y-143504D02*
D03*
X6772Y-205709D02*
D03*
X61496Y-204409D02*
D03*
X26496Y-213386D02*
D03*
X14961Y-172323D02*
D03*
X25118Y-164016D02*
D03*
X18622Y-125906D02*
D03*
X25984Y-112480D02*
D03*
X3032Y-26496D02*
D03*
X30158Y-39370D02*
D03*
X27913Y-64173D02*
D03*
X29016Y-86221D02*
D03*
X50945Y-104842D02*
D03*
X51929Y-88543D02*
D03*
X53543Y-66732D02*
D03*
X75827Y-49488D02*
D03*
X63701Y-31850D02*
D03*
X63150Y-191929D02*
D03*
X75646Y-204319D02*
D03*
X18110Y-112205D02*
D03*
X56063Y-262795D02*
D03*
X66929Y-235433D02*
D03*
X56931Y-306888D02*
D03*
Y-393345D02*
D03*
X31850Y-354252D02*
D03*
X40276Y-358740D02*
D03*
X36063D02*
D03*
X31850D02*
D03*
X40276Y-354252D02*
D03*
X36063D02*
D03*
X49055Y-120512D02*
D03*
X35118Y-148819D02*
D03*
D43*
X70000Y-180551D02*
D03*
X41496Y-193937D02*
D03*
X28450Y-404450D02*
D03*
X51339Y-371811D02*
D03*
X42538Y-249430D02*
D03*
X39391Y-319428D02*
D03*
X46351Y-461680D02*
D03*
X25770Y-367857D02*
D03*
D44*
X55039Y-155039D02*
D03*
Y-157598D02*
D03*
X57677D02*
D03*
Y-155079D02*
D03*
M02*
