%FSLAX25Y25*%
%MOIN*%
G70*
G01*
G75*
G04 Layer_Physical_Order=2*
G04 Layer_Color=16711680*
%ADD10R,0.05118X0.15748*%
%ADD11R,0.03937X0.03150*%
%ADD12R,0.03150X0.03937*%
%ADD13R,0.01969X0.07874*%
%ADD14O,0.01969X0.07874*%
%ADD15R,0.06299X0.05906*%
%ADD16R,0.01575X0.03937*%
%ADD17R,0.03150X0.02559*%
%ADD18R,0.03937X0.04724*%
%ADD19R,0.04724X0.03937*%
%ADD20R,0.07874X0.04134*%
%ADD21R,0.26772X0.25984*%
%ADD22O,0.08500X0.02362*%
%ADD23R,0.08500X0.02362*%
%ADD24R,0.03937X0.01575*%
%ADD25R,0.04724X0.05906*%
%ADD26C,0.04724*%
%ADD27R,0.05118X0.01260*%
%ADD28R,0.05906X0.01378*%
%ADD29P,0.06392X8X22.5*%
G04:AMPARAMS|DCode=30|XSize=39.37mil|YSize=59.06mil|CornerRadius=0mil|HoleSize=0mil|Usage=FLASHONLY|Rotation=180.000|XOffset=0mil|YOffset=0mil|HoleType=Round|Shape=Octagon|*
%AMOCTAGOND30*
4,1,8,0.00984,-0.02953,-0.00984,-0.02953,-0.01969,-0.01969,-0.01969,0.01969,-0.00984,0.02953,0.00984,0.02953,0.01969,0.01969,0.01969,-0.01969,0.00984,-0.02953,0.0*
%
%ADD30OCTAGOND30*%

%ADD31C,0.01181*%
%ADD32C,0.03937*%
%ADD33C,0.03150*%
%ADD34C,0.01969*%
%ADD35C,0.02362*%
%ADD36C,0.00600*%
%ADD37R,0.04764X0.28031*%
%ADD38R,0.04646X0.26732*%
%ADD39R,0.07356X0.27834*%
%ADD40R,0.05236X0.08032*%
%ADD41R,0.07244X0.06654*%
%ADD42C,0.07087*%
%ADD43R,0.05906X0.05906*%
%ADD44C,0.05906*%
%ADD45R,0.05906X0.05906*%
%ADD46O,0.05906X0.07874*%
%ADD47C,0.02559*%
%ADD48C,0.01969*%
G36*
X392589Y1112D02*
X259082D01*
X258699Y2036D01*
X266285Y9621D01*
X266546Y10012D01*
X266637Y10472D01*
X266637Y10473D01*
Y12629D01*
X266916Y13047D01*
X267039Y13661D01*
X266916Y14276D01*
X266568Y14797D01*
X266048Y15145D01*
X265433Y15267D01*
X264819Y15145D01*
X264298Y14797D01*
X263950Y14276D01*
X263827Y13661D01*
X263950Y13047D01*
X264229Y12629D01*
Y10971D01*
X256942Y3685D01*
X199593D01*
X186244Y17034D01*
Y30346D01*
X186523Y30764D01*
X186645Y31378D01*
X186523Y31992D01*
X186175Y32513D01*
X185654Y32861D01*
X185039Y32984D01*
X184425Y32861D01*
X183904Y32513D01*
X183556Y31992D01*
X183434Y31378D01*
X183556Y30764D01*
X183835Y30346D01*
Y16535D01*
X183835Y16535D01*
X183927Y16075D01*
X184188Y15684D01*
X197836Y2036D01*
X197453Y1112D01*
X1112D01*
Y77628D01*
X183301D01*
X183684Y76704D01*
X177427Y70447D01*
X177017Y69913D01*
X176834Y69472D01*
X176759Y69290D01*
X176671Y68622D01*
Y59337D01*
X170657Y53323D01*
X92041D01*
X91373Y53236D01*
X90751Y52978D01*
X90216Y52567D01*
X89806Y52033D01*
X89548Y51410D01*
X89460Y50742D01*
X89548Y50074D01*
X89806Y49452D01*
X90216Y48917D01*
X90751Y48507D01*
X91373Y48249D01*
X92041Y48161D01*
X171727D01*
X172395Y48249D01*
X172652Y48356D01*
X173017Y48507D01*
X173552Y48917D01*
X181077Y56443D01*
X181487Y56977D01*
X181638Y57342D01*
X181745Y57600D01*
X181833Y58268D01*
Y67553D01*
X186649Y72369D01*
X187334Y71769D01*
X187378Y71680D01*
X186952Y71125D01*
X186536Y70119D01*
X186394Y69040D01*
X186536Y67961D01*
X186952Y66955D01*
X187615Y66092D01*
X188478Y65429D01*
X189484Y65013D01*
X190563Y64871D01*
X191642Y65013D01*
X192279Y65276D01*
X193111Y64721D01*
Y29993D01*
X192831Y29575D01*
X192709Y28960D01*
X192831Y28346D01*
X193179Y27825D01*
X193700Y27477D01*
X194315Y27355D01*
X194929Y27477D01*
X195450Y27825D01*
X195798Y28346D01*
X195920Y28960D01*
X195798Y29575D01*
X195519Y29993D01*
Y65288D01*
X195519Y65288D01*
X195427Y65749D01*
X195166Y66140D01*
X194226Y67080D01*
X194591Y67961D01*
X194733Y69040D01*
X194591Y70119D01*
X194174Y71125D01*
X193511Y71988D01*
X193711Y72576D01*
X307868D01*
X307976Y72468D01*
X308511Y72058D01*
X309133Y71800D01*
X309801Y71712D01*
X310469Y71800D01*
X311092Y72058D01*
X311626Y72468D01*
X312037Y73003D01*
X312294Y73625D01*
X312382Y74293D01*
X312294Y74961D01*
X312037Y75584D01*
X311626Y76118D01*
X310762Y76983D01*
X310228Y77393D01*
X309863Y77544D01*
X309880Y77628D01*
X392589D01*
Y1112D01*
D02*
G37*
%LPC*%
G36*
X14488Y30489D02*
X13758Y30344D01*
X13140Y29931D01*
X12727Y29312D01*
X12582Y28583D01*
X12727Y27853D01*
X13140Y27234D01*
X13758Y26821D01*
X14488Y26676D01*
X15218Y26821D01*
X15836Y27234D01*
X16250Y27853D01*
X16395Y28583D01*
X16250Y29312D01*
X15836Y29931D01*
X15218Y30344D01*
X14488Y30489D01*
D02*
G37*
G36*
X299878Y64322D02*
X299264Y64200D01*
X298743Y63852D01*
X298395Y63331D01*
X298272Y62717D01*
X298395Y62102D01*
X298743Y61581D01*
X299264Y61233D01*
X299878Y61111D01*
X300493Y61233D01*
X300910Y61512D01*
X355285D01*
X382949Y33848D01*
X382708Y33265D01*
X382586Y32340D01*
X382708Y31415D01*
X383065Y30553D01*
X383633Y29813D01*
X384373Y29245D01*
X385235Y28888D01*
X386160Y28766D01*
X387085Y28888D01*
X387947Y29245D01*
X388687Y29813D01*
X389255Y30553D01*
X389612Y31415D01*
X389734Y32340D01*
X389612Y33265D01*
X389255Y34127D01*
X388687Y34867D01*
X387947Y35435D01*
X387085Y35792D01*
X386160Y35914D01*
X385235Y35792D01*
X384652Y35551D01*
X356635Y63568D01*
X356244Y63829D01*
X355784Y63921D01*
X355783Y63921D01*
X300910D01*
X300493Y64200D01*
X299878Y64322D01*
D02*
G37*
G36*
X180410Y38845D02*
X131047D01*
X130202Y38677D01*
X129486Y38199D01*
X124266Y32978D01*
X123787Y32262D01*
X123619Y31417D01*
X123787Y30572D01*
X124266Y29856D01*
X124982Y29378D01*
X125827Y29210D01*
X126672Y29378D01*
X127388Y29856D01*
X131962Y34430D01*
X180410D01*
X181254Y34598D01*
X181971Y35076D01*
X182449Y35793D01*
X182617Y36638D01*
X182449Y37483D01*
X181971Y38199D01*
X181254Y38677D01*
X180410Y38845D01*
D02*
G37*
G36*
X224843Y25661D02*
X224228Y25539D01*
X223707Y25190D01*
X223595Y25023D01*
X217607D01*
X217189Y25302D01*
X216575Y25425D01*
X215960Y25302D01*
X215439Y24954D01*
X215091Y24433D01*
X214969Y23819D01*
X215091Y23204D01*
X215439Y22683D01*
X215960Y22335D01*
X216575Y22213D01*
X217189Y22335D01*
X217607Y22615D01*
X224164D01*
X224228Y22572D01*
X224843Y22449D01*
X225457Y22572D01*
X225978Y22920D01*
X226326Y23441D01*
X226448Y24055D01*
X226326Y24670D01*
X225978Y25190D01*
X225457Y25539D01*
X224843Y25661D01*
D02*
G37*
G36*
X6449Y11756D02*
X5524Y11634D01*
X4662Y11277D01*
X3922Y10709D01*
X3354Y9969D01*
X2997Y9107D01*
X2875Y8182D01*
Y6213D01*
X2997Y5289D01*
X3354Y4427D01*
X3922Y3686D01*
X4662Y3118D01*
X5524Y2761D01*
X6449Y2640D01*
X7374Y2761D01*
X8236Y3118D01*
X8976Y3686D01*
X9544Y4427D01*
X9901Y5289D01*
X10023Y6213D01*
Y8182D01*
X9901Y9107D01*
X9544Y9969D01*
X8976Y10709D01*
X8236Y11277D01*
X7374Y11634D01*
X6449Y11756D01*
D02*
G37*
G36*
X14488Y14702D02*
X13758Y14557D01*
X13140Y14143D01*
X12727Y13525D01*
X12582Y12795D01*
X12727Y12066D01*
X13140Y11447D01*
X13758Y11034D01*
X14488Y10889D01*
X15218Y11034D01*
X15836Y11447D01*
X16250Y12066D01*
X16395Y12795D01*
X16250Y13525D01*
X15836Y14143D01*
X15218Y14557D01*
X14488Y14702D01*
D02*
G37*
G36*
X95236Y34431D02*
X53819D01*
X53151Y34344D01*
X52969Y34268D01*
X52528Y34086D01*
X51994Y33676D01*
X46561Y28242D01*
X46150Y27708D01*
X45893Y27085D01*
X45805Y26417D01*
X45893Y25749D01*
X46150Y25127D01*
X46561Y24592D01*
X47095Y24182D01*
X47718Y23924D01*
X48386Y23836D01*
X49054Y23924D01*
X49676Y24182D01*
X50211Y24592D01*
X54888Y29269D01*
X95236D01*
X95904Y29357D01*
X96527Y29615D01*
X97061Y30025D01*
X97471Y30560D01*
X97729Y31182D01*
X97817Y31850D01*
X97729Y32518D01*
X97471Y33141D01*
X97061Y33676D01*
X96527Y34086D01*
X95904Y34344D01*
X95236Y34431D01*
D02*
G37*
G36*
X6371Y38795D02*
X5446Y38674D01*
X4584Y38317D01*
X3844Y37749D01*
X3275Y37008D01*
X2919Y36146D01*
X2797Y35221D01*
Y33253D01*
X2919Y32328D01*
X3275Y31466D01*
X3844Y30726D01*
X4584Y30158D01*
X5446Y29801D01*
X6371Y29679D01*
X7296Y29801D01*
X8157Y30158D01*
X8898Y30726D01*
X9466Y31466D01*
X9823Y32328D01*
X9944Y33253D01*
Y35221D01*
X9823Y36146D01*
X9466Y37008D01*
X8898Y37749D01*
X8157Y38317D01*
X7296Y38674D01*
X6371Y38795D01*
D02*
G37*
G36*
X10373Y62133D02*
X3287D01*
Y55047D01*
X10373D01*
Y62133D01*
D02*
G37*
G36*
X386160Y65914D02*
X385235Y65792D01*
X384373Y65435D01*
X383633Y64867D01*
X383065Y64127D01*
X382708Y63265D01*
X382586Y62340D01*
X382708Y61415D01*
X383065Y60553D01*
X383633Y59813D01*
X384373Y59245D01*
X385235Y58888D01*
X386160Y58766D01*
X387085Y58888D01*
X387947Y59245D01*
X388687Y59813D01*
X389255Y60553D01*
X389612Y61415D01*
X389734Y62340D01*
X389612Y63265D01*
X389255Y64127D01*
X388687Y64867D01*
X387947Y65435D01*
X387085Y65792D01*
X386160Y65914D01*
D02*
G37*
G36*
X212126Y70503D02*
X211511Y70381D01*
X210991Y70033D01*
X210643Y69512D01*
X210520Y68898D01*
X210643Y68283D01*
X210991Y67762D01*
X211511Y67414D01*
X212004Y67316D01*
X215009Y64312D01*
Y38064D01*
X214730Y37646D01*
X214608Y37031D01*
X214730Y36417D01*
X215078Y35896D01*
X215237Y35789D01*
X215237Y35789D01*
X215335Y34794D01*
D01*
D01*
Y34794D01*
X215335D01*
D01*
X202101Y21560D01*
X201840Y21170D01*
X201748Y20709D01*
X201748Y20709D01*
Y19969D01*
X201469Y19552D01*
X201347Y18937D01*
X201469Y18323D01*
X201817Y17802D01*
X202338Y17454D01*
X202953Y17331D01*
X203567Y17454D01*
X204088Y17802D01*
X204436Y18323D01*
X204558Y18937D01*
X204436Y19552D01*
X204157Y19969D01*
Y20210D01*
X205143Y20853D01*
X205406Y20330D01*
Y20330D01*
D01*
D01*
D01*
X205406Y20330D01*
X205754Y19809D01*
X206275Y19461D01*
X206890Y19339D01*
X207504Y19461D01*
X208025Y19809D01*
X208373Y20330D01*
X208471Y20823D01*
X225573Y37925D01*
X225860Y38117D01*
X226208Y38638D01*
X226330Y39252D01*
X226208Y39866D01*
X225860Y40387D01*
X225339Y40735D01*
X224897Y40823D01*
X224867Y40920D01*
X224867Y40920D01*
X225128Y41311D01*
X225220Y41772D01*
X225220Y41772D01*
Y53653D01*
X225499Y54071D01*
X225621Y54685D01*
X225499Y55300D01*
X225151Y55820D01*
X224630Y56169D01*
X224016Y56291D01*
X223401Y56169D01*
X222880Y55820D01*
X222532Y55300D01*
X222410Y54685D01*
X222532Y54071D01*
X222812Y53653D01*
Y42270D01*
X218450Y37909D01*
X217962Y37957D01*
X217417Y38183D01*
Y64810D01*
X217417Y64810D01*
X217326Y65271D01*
X217326D01*
D01*
D01*
X217326Y65271D01*
D01*
D01*
D01*
D01*
X217326Y65271D01*
D01*
D01*
Y65271D01*
D01*
X217326D01*
D01*
D01*
X217326D01*
D01*
D01*
X217065Y65662D01*
X217065Y65662D01*
X213707Y69019D01*
X213609Y69512D01*
X213261Y70033D01*
X212740Y70381D01*
X212126Y70503D01*
D02*
G37*
G36*
X85630Y58487D02*
X46850D01*
X46182Y58399D01*
X45560Y58141D01*
X45025Y57731D01*
X44615Y57196D01*
X44357Y56574D01*
X44269Y55905D01*
X44357Y55238D01*
X44615Y54615D01*
X45025Y54080D01*
X45560Y53670D01*
X46182Y53412D01*
X46850Y53324D01*
X85630D01*
X86298Y53412D01*
X86920Y53670D01*
X87455Y54080D01*
X87865Y54615D01*
X88123Y55238D01*
X88211Y55905D01*
X88123Y56574D01*
X87865Y57196D01*
X87455Y57731D01*
X86920Y58141D01*
X86298Y58399D01*
X85630Y58487D01*
D02*
G37*
G36*
X386160Y45914D02*
X385235Y45792D01*
X384373Y45435D01*
X383633Y44867D01*
X383065Y44127D01*
X382708Y43265D01*
X382586Y42340D01*
X382708Y41415D01*
X383065Y40553D01*
X383633Y39813D01*
X384373Y39245D01*
X385235Y38888D01*
X386160Y38766D01*
X387085Y38888D01*
X387947Y39245D01*
X388687Y39813D01*
X389255Y40553D01*
X389612Y41415D01*
X389734Y42340D01*
X389612Y43265D01*
X389255Y44127D01*
X388687Y44867D01*
X387947Y45435D01*
X387085Y45792D01*
X386160Y45914D01*
D02*
G37*
G36*
X269921Y48377D02*
X269307Y48255D01*
X268786Y47907D01*
X268438Y47386D01*
X268316Y46772D01*
X268438Y46157D01*
X268786Y45636D01*
X269307Y45288D01*
X269921Y45166D01*
X270536Y45288D01*
X270954Y45567D01*
X300367D01*
X303143Y42792D01*
X303241Y42299D01*
X303589Y41778D01*
X304110Y41430D01*
X304724Y41308D01*
X305339Y41430D01*
X305860Y41778D01*
X306208Y42299D01*
X306330Y42913D01*
X306208Y43528D01*
X305860Y44049D01*
X305339Y44397D01*
X304846Y44495D01*
X301718Y47623D01*
X301327Y47884D01*
X300866Y47976D01*
X300866Y47976D01*
X270954D01*
X270536Y48255D01*
X269921Y48377D01*
D02*
G37*
G36*
X386160Y55914D02*
X385235Y55792D01*
X384373Y55435D01*
X383633Y54867D01*
X383065Y54127D01*
X382708Y53265D01*
X382586Y52340D01*
X382708Y51415D01*
X383065Y50553D01*
X383633Y49813D01*
X384373Y49245D01*
X385235Y48888D01*
X386160Y48766D01*
X387085Y48888D01*
X387947Y49245D01*
X388687Y49813D01*
X389255Y50553D01*
X389612Y51415D01*
X389734Y52340D01*
X389612Y53265D01*
X389255Y54127D01*
X388687Y54867D01*
X387947Y55435D01*
X387085Y55792D01*
X386160Y55914D01*
D02*
G37*
%LPD*%
D31*
X216213Y37031D02*
Y64810D01*
X212126Y68898D02*
X216213Y64810D01*
X190563Y69040D02*
X194315Y65288D01*
Y28960D02*
Y65288D01*
X269921Y46772D02*
X300866D01*
X304724Y42913D01*
X355784Y62717D02*
X386160Y32340D01*
X299878Y62717D02*
X355784D01*
X265433Y10472D02*
Y13661D01*
X257441Y2480D02*
X265433Y10472D01*
X199094Y2480D02*
X257441D01*
X185039Y16535D02*
X199094Y2480D01*
X185039Y16535D02*
Y31378D01*
X224016Y41772D02*
Y54685D01*
X202953Y20709D02*
X224016Y41772D01*
X202953Y18937D02*
Y20709D01*
X224724Y38780D02*
Y39252D01*
X206890Y20945D02*
X224724Y38780D01*
X224606Y23819D02*
X224843Y24055D01*
X216575Y23819D02*
X224606D01*
D32*
X48386Y26417D02*
X53819Y31850D01*
X95236D01*
X308937Y75157D02*
X309801Y74293D01*
X185787Y75157D02*
X308937D01*
X179252Y68622D02*
X185787Y75157D01*
X179252Y58268D02*
Y68622D01*
X171727Y50742D02*
X179252Y58268D01*
X92041Y50742D02*
X171727D01*
X46850Y55905D02*
X85630D01*
D33*
X125827Y31417D02*
X131047Y36638D01*
X180410D01*
D34*
X85630Y55905D02*
X85866Y55669D01*
D42*
X165760Y69040D02*
D03*
X190563D02*
D03*
D43*
X6830Y58590D02*
D03*
Y68590D02*
D03*
D44*
X386160Y62340D02*
D03*
Y32340D02*
D03*
Y42340D02*
D03*
Y52340D02*
D03*
D45*
Y22340D02*
D03*
D46*
X6371Y34237D02*
D03*
X6449Y7198D02*
D03*
D47*
X14488Y28583D02*
D03*
Y12795D02*
D03*
D48*
X41024Y19331D02*
D03*
X36570Y18735D02*
D03*
X85939Y4955D02*
D03*
X154035Y15885D02*
D03*
X145649Y16082D02*
D03*
X138129Y16121D02*
D03*
X335827Y20394D02*
D03*
X357638Y22244D02*
D03*
X375551Y31102D02*
D03*
X365905Y28858D02*
D03*
X315433Y45945D02*
D03*
X315827Y55197D02*
D03*
X378661Y49449D02*
D03*
X360118Y44291D02*
D03*
X350630Y47992D02*
D03*
X335630Y46968D02*
D03*
X323858Y26575D02*
D03*
X350866Y58898D02*
D03*
X354134Y74961D02*
D03*
X333976Y58701D02*
D03*
X372677Y22677D02*
D03*
X351260Y69213D02*
D03*
X331260Y66890D02*
D03*
X332953Y73543D02*
D03*
X316063Y67953D02*
D03*
X349213Y26969D02*
D03*
X372284Y64055D02*
D03*
X366496Y74370D02*
D03*
X362992Y64882D02*
D03*
X376614Y69410D02*
D03*
X334173Y30079D02*
D03*
X264646Y67874D02*
D03*
X293543Y7283D02*
D03*
X276890Y63740D02*
D03*
X343661Y41181D02*
D03*
X302441Y68189D02*
D03*
X271260Y10866D02*
D03*
X92559Y57520D02*
D03*
X92323Y39213D02*
D03*
X78504Y60590D02*
D03*
X82441Y68661D02*
D03*
X128228Y42953D02*
D03*
X78228Y37638D02*
D03*
X127598Y57913D02*
D03*
X51181Y63543D02*
D03*
X56732Y63740D02*
D03*
X301220Y6693D02*
D03*
X56181Y68858D02*
D03*
X64567Y39488D02*
D03*
X271063Y16260D02*
D03*
X76968Y66457D02*
D03*
X78858Y41772D02*
D03*
X176969Y45787D02*
D03*
X172323Y68032D02*
D03*
X158976Y57284D02*
D03*
X158425Y42638D02*
D03*
X154055Y22716D02*
D03*
X164370Y55748D02*
D03*
X34370Y63779D02*
D03*
X35748Y71260D02*
D03*
X69961Y25984D02*
D03*
X15827Y67835D02*
D03*
X77953Y19173D02*
D03*
X23268Y62913D02*
D03*
X75827Y24764D02*
D03*
X20276Y72795D02*
D03*
X35984Y39528D02*
D03*
X13465Y74488D02*
D03*
X26221Y67835D02*
D03*
X6535Y43189D02*
D03*
X36968Y44016D02*
D03*
X28937Y73465D02*
D03*
X31929Y42559D02*
D03*
X46535Y2362D02*
D03*
X25433Y7520D02*
D03*
X15905Y2520D02*
D03*
X7323Y49803D02*
D03*
X98661Y17677D02*
D03*
X107165Y10866D02*
D03*
X28740Y3268D02*
D03*
X91850Y19213D02*
D03*
X23543Y15512D02*
D03*
X42717Y13740D02*
D03*
X25591Y34252D02*
D03*
X19055Y38898D02*
D03*
X270315Y66063D02*
D03*
X256850Y36299D02*
D03*
X247677Y23583D02*
D03*
X251614Y53347D02*
D03*
X249921Y68701D02*
D03*
X129764Y24961D02*
D03*
X272402Y59331D02*
D03*
X236457Y68504D02*
D03*
X108504Y15551D02*
D03*
X141220Y17362D02*
D03*
X127284Y19370D02*
D03*
X260236Y61417D02*
D03*
X205157Y55787D02*
D03*
X246929Y7835D02*
D03*
X256653Y10866D02*
D03*
X256575Y21260D02*
D03*
X189055Y56890D02*
D03*
X188150Y49606D02*
D03*
X248976Y37638D02*
D03*
X190000Y46063D02*
D03*
X201614Y36693D02*
D03*
X219961Y10472D02*
D03*
X208740Y13465D02*
D03*
X197323Y50551D02*
D03*
X199843Y32205D02*
D03*
X158661Y22598D02*
D03*
X160079Y16457D02*
D03*
X214449Y12638D02*
D03*
X130866Y12087D02*
D03*
X92041Y50742D02*
D03*
X309801Y74293D02*
D03*
X125827Y31417D02*
D03*
X212126Y68898D02*
D03*
X48386Y26417D02*
D03*
X95236Y31850D02*
D03*
X85866Y55669D02*
D03*
X46850Y55905D02*
D03*
X269921Y46772D02*
D03*
X304724Y42913D02*
D03*
X299878Y62717D02*
D03*
X194315Y28960D02*
D03*
X265433Y13661D02*
D03*
X216213Y37031D02*
D03*
X185039Y31378D02*
D03*
X224016Y54685D02*
D03*
X202953Y18937D02*
D03*
X224724Y39252D02*
D03*
X206890Y20945D02*
D03*
X224843Y24055D02*
D03*
X216575Y23819D02*
D03*
X180410Y36638D02*
D03*
M02*
