%FSLAX25Y25*%
%MOIN*%
G70*
G01*
G75*
G04 Layer_Physical_Order=1*
G04 Layer_Color=255*
%ADD10R,0.05118X0.15748*%
%ADD11R,0.03937X0.03150*%
%ADD12R,0.03150X0.03937*%
%ADD13R,0.01969X0.07874*%
%ADD14O,0.01969X0.07874*%
%ADD15R,0.06299X0.05906*%
%ADD16R,0.01575X0.03937*%
%ADD17R,0.03150X0.02559*%
%ADD18R,0.03937X0.04724*%
%ADD19R,0.04724X0.03937*%
%ADD20R,0.07874X0.04134*%
%ADD21R,0.26772X0.25984*%
%ADD22O,0.08500X0.02362*%
%ADD23R,0.08500X0.02362*%
%ADD24R,0.03937X0.01575*%
%ADD25R,0.04724X0.05906*%
%ADD26C,0.04724*%
%ADD27R,0.05118X0.01260*%
%ADD28R,0.05906X0.01378*%
%ADD29P,0.06392X8X22.5*%
G04:AMPARAMS|DCode=30|XSize=39.37mil|YSize=59.06mil|CornerRadius=0mil|HoleSize=0mil|Usage=FLASHONLY|Rotation=180.000|XOffset=0mil|YOffset=0mil|HoleType=Round|Shape=Octagon|*
%AMOCTAGOND30*
4,1,8,0.00984,-0.02953,-0.00984,-0.02953,-0.01969,-0.01969,-0.01969,0.01969,-0.00984,0.02953,0.00984,0.02953,0.01969,0.01969,0.01969,-0.01969,0.00984,-0.02953,0.0*
%
%ADD30OCTAGOND30*%

%ADD31C,0.01181*%
%ADD32C,0.03937*%
%ADD33C,0.03150*%
%ADD34C,0.01969*%
%ADD35C,0.02362*%
%ADD36C,0.00600*%
%ADD37R,0.04764X0.28031*%
%ADD38R,0.04646X0.26732*%
%ADD39R,0.07356X0.27834*%
%ADD40R,0.05236X0.08032*%
%ADD41R,0.07244X0.06654*%
%ADD42C,0.07087*%
%ADD43R,0.05906X0.05906*%
%ADD44C,0.05906*%
%ADD45R,0.05906X0.05906*%
%ADD46O,0.05906X0.07874*%
%ADD47C,0.02559*%
%ADD48C,0.01969*%
G36*
X234778Y77166D02*
X231176Y73563D01*
X230708Y73370D01*
X230521Y73333D01*
X230000Y72985D01*
X229902Y72838D01*
X229845Y72795D01*
X229372Y72178D01*
X229250Y71885D01*
X229160Y71824D01*
X229160Y71824D01*
X221869Y64534D01*
X221725Y64562D01*
X221385Y64703D01*
Y67730D01*
X222007Y67812D01*
X222725Y68109D01*
X223342Y68583D01*
X223815Y69200D01*
X224113Y69918D01*
X224214Y70689D01*
X224113Y71460D01*
X223815Y72178D01*
X223342Y72795D01*
X222725Y73268D01*
X222007Y73565D01*
X221236Y73667D01*
X220465Y73565D01*
X219747Y73268D01*
X219130Y72795D01*
X218657Y72178D01*
X218359Y71460D01*
X218258Y70689D01*
X218359Y69918D01*
X218657Y69200D01*
X218977Y68782D01*
Y65129D01*
X203873Y50025D01*
X203612Y49634D01*
X203520Y49173D01*
X203520Y49173D01*
Y32585D01*
X195981Y25047D01*
X192971D01*
Y25063D01*
X186671D01*
Y22622D01*
D01*
D01*
D01*
X186671D01*
D01*
X186537Y22488D01*
X185850D01*
X185389Y22396D01*
X185233Y22291D01*
X184999Y22135D01*
X184999Y22135D01*
X184397Y21533D01*
X183976Y21617D01*
X183132Y21449D01*
X182415Y20971D01*
X181998Y20346D01*
X181519Y20491D01*
Y25761D01*
X183514Y27756D01*
X186671D01*
Y27740D01*
X192971D01*
Y27756D01*
X193282D01*
X193700Y27477D01*
X194315Y27355D01*
X194929Y27477D01*
X195450Y27825D01*
X195798Y28346D01*
X195920Y28960D01*
X195798Y29575D01*
X195450Y30096D01*
X194929Y30444D01*
X194315Y30566D01*
X193700Y30444D01*
X193412Y30251D01*
X192971Y30487D01*
Y32059D01*
X193134Y32874D01*
X193595Y32966D01*
X193985Y33227D01*
X201529Y40770D01*
X201529Y40770D01*
X201790Y41161D01*
X201881Y41622D01*
X201881Y41622D01*
Y58167D01*
X203572D01*
Y64073D01*
X201881D01*
Y68559D01*
X201912Y68583D01*
X202385Y69200D01*
X202683Y69918D01*
X202784Y70689D01*
X202683Y71460D01*
X202385Y72178D01*
X201912Y72795D01*
X201295Y73268D01*
X200577Y73565D01*
X199806Y73667D01*
X199035Y73565D01*
X198317Y73268D01*
X197700Y72795D01*
X197227Y72178D01*
X196929Y71460D01*
X196920Y71388D01*
X196848Y71280D01*
X196756Y70820D01*
X196848Y70359D01*
X196877Y70315D01*
X196929Y69918D01*
X197227Y69200D01*
X197700Y68583D01*
X198317Y68109D01*
X199035Y67812D01*
X199473Y67754D01*
Y64073D01*
X198454D01*
Y58167D01*
X199473D01*
Y42121D01*
X193433Y36081D01*
X192971Y36272D01*
Y37858D01*
D01*
Y37858D01*
X192971Y37858D01*
Y37976D01*
X192971D01*
Y40182D01*
X192971Y40182D01*
D01*
D01*
X192971Y40417D01*
Y40427D01*
Y40476D01*
X192971Y40535D01*
X192971Y40771D01*
X192971D01*
D01*
Y40771D01*
X192971D01*
D01*
Y42976D01*
X186671D01*
Y40771D01*
X186671Y40771D01*
X186671D01*
X186671Y40535D01*
Y40435D01*
Y40401D01*
X184924D01*
X183875Y41450D01*
X183911Y41537D01*
X183999Y42205D01*
Y68661D01*
X183911Y69330D01*
X183835Y69512D01*
X183653Y69952D01*
X183242Y70486D01*
X176761Y76968D01*
X176227Y77378D01*
X175862Y77529D01*
X175882Y77628D01*
X234587D01*
X234778Y77166D01*
D02*
G37*
G36*
X52577Y77155D02*
X52333Y76968D01*
X47088Y71723D01*
X46014D01*
Y70546D01*
X45944Y70455D01*
X45686Y69832D01*
X45599Y69164D01*
X45686Y68496D01*
X45944Y67874D01*
X46014Y67782D01*
Y66605D01*
X48012D01*
X48180Y66583D01*
X48347Y66605D01*
X50345D01*
Y67679D01*
X55227Y72561D01*
X92322D01*
X92428Y72305D01*
X92428Y72305D01*
X92206Y71960D01*
X91672Y71549D01*
X85135Y65013D01*
X81077D01*
Y59698D01*
X83285D01*
Y55669D01*
X83373Y55001D01*
X83631Y54379D01*
X84041Y53844D01*
X84103Y53797D01*
X83942Y53323D01*
X74547D01*
Y55963D01*
X74176D01*
Y59255D01*
X74088Y59923D01*
X73981Y60181D01*
X73830Y60546D01*
X73419Y61080D01*
X71345Y63155D01*
Y64229D01*
X69347D01*
X69180Y64251D01*
X69012Y64229D01*
X67014D01*
Y63052D01*
X66944Y62961D01*
X66686Y62338D01*
X66598Y61670D01*
X66686Y61002D01*
X66944Y60379D01*
X67014Y60288D01*
Y59111D01*
X68088D01*
X69013Y58186D01*
Y55963D01*
X68642D01*
Y48877D01*
X69238D01*
Y44883D01*
X68670D01*
Y27954D01*
X74969D01*
Y44883D01*
X74401D01*
Y48161D01*
X92041D01*
X92709Y48249D01*
X93332Y48507D01*
X93867Y48917D01*
X94277Y49452D01*
X94535Y50074D01*
X94623Y50742D01*
X94535Y51410D01*
X94277Y52033D01*
X93867Y52567D01*
X93332Y52978D01*
X92709Y53236D01*
X92041Y53323D01*
X87790D01*
X87630Y53797D01*
X87691Y53844D01*
X88102Y54379D01*
X88359Y55001D01*
X88447Y55669D01*
Y59698D01*
X90132D01*
Y62710D01*
X94566Y67143D01*
X130557D01*
Y65673D01*
X129398D01*
Y58587D01*
X136879D01*
Y65673D01*
X135720D01*
Y67143D01*
X154718D01*
X164598Y57264D01*
X164453Y56785D01*
X164062Y56708D01*
X163672Y56447D01*
X163410Y56056D01*
X163319Y55595D01*
Y51020D01*
X163410Y50559D01*
X163672Y50169D01*
X164062Y49907D01*
X164523Y49816D01*
X164984Y49907D01*
X165375Y50169D01*
X165636Y50559D01*
X165727Y51020D01*
Y55481D01*
X166189Y55672D01*
X169838Y52024D01*
Y48067D01*
X169930D01*
Y45653D01*
X169838D01*
Y39747D01*
X169930D01*
Y33829D01*
X170018Y33161D01*
X170276Y32538D01*
X170346Y32447D01*
Y31270D01*
X172344D01*
X172511Y31248D01*
X172679Y31270D01*
X174677D01*
Y32447D01*
X174747Y32538D01*
X175004Y33161D01*
X175092Y33829D01*
Y53000D01*
X175004Y53668D01*
X174956Y53786D01*
Y53973D01*
X174879D01*
X174842Y54061D01*
X174747Y54291D01*
X174337Y54826D01*
X157613Y71549D01*
X157078Y71960D01*
X156810Y72071D01*
X156856Y72305D01*
X156963Y72561D01*
X173867D01*
X178836Y67592D01*
Y42205D01*
X178924Y41537D01*
X179182Y40914D01*
X179592Y40380D01*
X180127Y39969D01*
X180749Y39711D01*
X181417Y39624D01*
X182085Y39711D01*
X182172Y39747D01*
X183574Y38345D01*
X183611Y38320D01*
X183466Y37842D01*
X181442D01*
X181024Y38121D01*
X180410Y38243D01*
X179795Y38121D01*
X179274Y37773D01*
X178926Y37252D01*
X178804Y36638D01*
X178926Y36023D01*
X179274Y35502D01*
X179795Y35154D01*
X180410Y35032D01*
X181024Y35154D01*
X181442Y35433D01*
X182410D01*
X182555Y34955D01*
X182518Y34930D01*
X177298Y29710D01*
X177037Y29319D01*
X176945Y28858D01*
X176945Y28858D01*
Y20263D01*
X175139Y18456D01*
X174677Y18647D01*
Y19255D01*
X170346D01*
Y14137D01*
X174677D01*
Y15492D01*
X175082D01*
X175082Y15492D01*
X175543Y15584D01*
X175933Y15845D01*
X178649Y18560D01*
X179111Y18369D01*
Y13806D01*
X175195Y9890D01*
X174677D01*
Y11245D01*
X170346D01*
Y8021D01*
X169884Y7830D01*
X168711Y9003D01*
X168705Y9048D01*
X168447Y9670D01*
X168420Y9706D01*
Y16696D01*
X168377Y16909D01*
Y19255D01*
X164047D01*
Y16909D01*
X164004Y16696D01*
Y9822D01*
X162146Y7964D01*
X98346D01*
X98338Y7983D01*
X97927Y8518D01*
X89931Y16515D01*
Y41587D01*
X90132D01*
Y46902D01*
X81077D01*
Y41587D01*
X81296D01*
Y15945D01*
X81483Y15493D01*
X81932Y15307D01*
X82269Y14868D01*
X83256Y13881D01*
X83065Y13419D01*
X78601D01*
Y12856D01*
X72689D01*
X72594Y12919D01*
X71903Y13056D01*
X65765D01*
X65074Y12919D01*
X64488Y12527D01*
X64096Y11941D01*
X63959Y11250D01*
X64096Y10559D01*
X64488Y9973D01*
X65074Y9581D01*
X65765Y9444D01*
X71903D01*
X72594Y9581D01*
X72689Y9644D01*
X78601D01*
Y9088D01*
X83719D01*
Y12765D01*
X84181Y12956D01*
X94002Y3136D01*
X94536Y2725D01*
X95159Y2468D01*
X95827Y2379D01*
X96495Y2468D01*
X97117Y2725D01*
X97217Y2802D01*
X163215D01*
X163883Y2889D01*
X164141Y2996D01*
X164506Y3147D01*
X165040Y3557D01*
X166476Y4993D01*
X168943Y2526D01*
X168949Y2482D01*
X169207Y1859D01*
X169436Y1560D01*
X169215Y1112D01*
X1112D01*
Y77628D01*
X52416D01*
X52577Y77155D01*
D02*
G37*
G36*
X392589Y48267D02*
X392127Y48076D01*
X389371Y50832D01*
X389612Y51415D01*
X389734Y52340D01*
X389612Y53265D01*
X389255Y54127D01*
X388687Y54867D01*
X387947Y55435D01*
X387085Y55792D01*
X386160Y55914D01*
X385235Y55792D01*
X384373Y55435D01*
X383633Y54867D01*
X383065Y54127D01*
X382708Y53265D01*
X382586Y52340D01*
X382708Y51415D01*
X383065Y50553D01*
X383633Y49813D01*
X384373Y49245D01*
X385235Y48888D01*
X386160Y48766D01*
X387085Y48888D01*
X387668Y49129D01*
X390252Y46545D01*
Y18806D01*
X387886Y16440D01*
X314676D01*
Y18779D01*
X307195D01*
Y11692D01*
X309731D01*
Y9505D01*
X305929Y5703D01*
X209582D01*
X196053Y19232D01*
X196142Y19678D01*
X199118D01*
X199118Y19678D01*
X199630Y19780D01*
X199732Y19800D01*
X200253Y20148D01*
Y20148D01*
X200253D01*
D01*
D01*
D01*
D01*
D01*
D01*
X200253D01*
D01*
X200253D01*
Y20148D01*
D01*
D01*
D01*
D01*
Y20148D01*
D01*
D01*
D01*
D01*
D01*
D01*
Y20148D01*
D01*
D01*
X200253D01*
D01*
D01*
D01*
D01*
D01*
X208379Y28274D01*
X208380Y28274D01*
X208728Y28795D01*
X208748Y28897D01*
X208812Y29218D01*
X209309Y29169D01*
Y27975D01*
X209309Y27975D01*
X209309D01*
X209309Y27740D01*
Y27622D01*
Y27622D01*
D01*
D01*
X209309D01*
D01*
Y25181D01*
X209309Y25181D01*
X209309Y25063D01*
X209309D01*
Y22857D01*
X209309Y22857D01*
X209309D01*
X209309Y22622D01*
X209175Y22488D01*
X207228D01*
X207228Y22488D01*
X207217Y22485D01*
X206890Y22550D01*
X206275Y22428D01*
X205754Y22080D01*
X205406Y21559D01*
X205284Y20945D01*
X205406Y20330D01*
X205191Y19929D01*
X204184D01*
X204088Y20072D01*
X203567Y20420D01*
X202953Y20543D01*
X202338Y20420D01*
X201817Y20072D01*
X201469Y19552D01*
X201347Y18937D01*
X201469Y18323D01*
X201817Y17802D01*
X202338Y17454D01*
X202953Y17331D01*
X203567Y17454D01*
X203667Y17520D01*
X209309D01*
Y17504D01*
X215609D01*
Y19945D01*
D01*
Y19945D01*
X215609Y19945D01*
Y20063D01*
X215609D01*
Y21809D01*
X215908Y22257D01*
X215995Y22329D01*
X216575Y22213D01*
X217189Y22335D01*
X217710Y22683D01*
X218058Y23204D01*
X218180Y23819D01*
X218153Y23955D01*
X218594Y24191D01*
X219111Y23674D01*
Y16985D01*
X219111Y16985D01*
X219202Y16524D01*
X219463Y16134D01*
X225997Y9600D01*
Y6578D01*
X230328D01*
Y11697D01*
X227306D01*
X221519Y17484D01*
Y21254D01*
X221981Y21446D01*
X225997Y17430D01*
Y14409D01*
X230328D01*
Y19527D01*
X227306D01*
X224683Y22150D01*
X224843Y22449D01*
X225457Y22572D01*
X225556Y22638D01*
X225997Y22402D01*
Y21729D01*
X230328D01*
Y26847D01*
X225997D01*
Y25492D01*
X225527D01*
X225457Y25539D01*
X224843Y25661D01*
X224228Y25539D01*
X223732Y25207D01*
X223485Y25339D01*
X223291Y25469D01*
Y28465D01*
X223199Y28925D01*
X222938Y29316D01*
Y29316D01*
X222938D01*
D01*
D01*
D01*
D01*
D01*
D01*
X222938Y29316D01*
D01*
X222938Y29316D01*
D01*
D01*
X222938D01*
D01*
D01*
Y29316D01*
D01*
X219883Y32371D01*
X219846Y32396D01*
X219991Y32874D01*
X225773D01*
X225997Y32650D01*
Y29629D01*
X230328D01*
Y34747D01*
X227306D01*
X227123Y34930D01*
X226733Y35191D01*
X226272Y35283D01*
X226272Y35283D01*
X217292D01*
X217147Y35761D01*
X217349Y35896D01*
X217697Y36417D01*
X217819Y37031D01*
X217697Y37646D01*
X217458Y38002D01*
X217492Y38084D01*
X217883Y38345D01*
X225471Y45934D01*
X225997D01*
Y44579D01*
X230328D01*
Y49697D01*
X225997D01*
Y48342D01*
X224973D01*
X224512Y48251D01*
X224355Y48146D01*
X224121Y47990D01*
X224121Y47989D01*
X216532Y40401D01*
X215609D01*
Y40435D01*
Y40535D01*
X215609Y40771D01*
X215609D01*
D01*
Y40771D01*
X215609D01*
D01*
Y42976D01*
X215609Y42976D01*
X215609D01*
X215542Y43136D01*
X222072Y49666D01*
X222333Y50056D01*
X222425Y50517D01*
Y53245D01*
X222880Y53550D01*
X223401Y53202D01*
X224016Y53079D01*
X224630Y53202D01*
X225048Y53481D01*
X225997D01*
Y51999D01*
X230328D01*
Y57117D01*
X225997D01*
Y55889D01*
X225048D01*
X224630Y56169D01*
X224016Y56291D01*
X223969Y56379D01*
X227306Y59717D01*
X230328D01*
Y64835D01*
X227365D01*
X227174Y65297D01*
X230193Y68316D01*
X230462Y68109D01*
X231180Y67812D01*
X231951Y67710D01*
X232722Y67812D01*
X233440Y68109D01*
X234057Y68583D01*
X234530Y69200D01*
X234826Y69913D01*
X238013Y73100D01*
X282856D01*
X285568Y70388D01*
Y56427D01*
X282919D01*
Y51309D01*
X283032D01*
Y49554D01*
X280658Y47180D01*
X280397Y46789D01*
X280305Y46328D01*
X280305Y46328D01*
Y32649D01*
X279344D01*
Y27531D01*
X280305D01*
Y24639D01*
X279344D01*
Y20870D01*
X278882Y20679D01*
X277376Y22185D01*
Y24639D01*
X273045D01*
Y19521D01*
X275499D01*
X280013Y15006D01*
X280013Y15006D01*
X280534Y14658D01*
Y14658D01*
X280534Y14658D01*
D01*
D01*
D01*
X280534D01*
Y14658D01*
D01*
X280534Y14658D01*
X280534Y14658D01*
X281149Y14536D01*
X284213D01*
X284213Y14536D01*
X284725Y14638D01*
X284827Y14658D01*
X285348Y15006D01*
X287868Y17526D01*
X287868Y17526D01*
X288100Y17874D01*
X288216Y18047D01*
X288338Y18661D01*
X288338Y18662D01*
Y33071D01*
X288216Y33685D01*
X287868Y34206D01*
X287868Y34206D01*
X285903Y36171D01*
Y42268D01*
X288773Y45139D01*
X288818Y45145D01*
X289440Y45403D01*
X289476Y45430D01*
X304873D01*
X305438Y44865D01*
X305202Y44424D01*
X304724Y44519D01*
X304110Y44397D01*
X303589Y44049D01*
X303241Y43528D01*
X303119Y42913D01*
X303241Y42299D01*
X303589Y41778D01*
X303597Y41773D01*
Y40308D01*
X303318Y39891D01*
X303196Y39276D01*
Y33371D01*
X303318Y32756D01*
X303666Y32235D01*
X304187Y31887D01*
X304801Y31765D01*
X305416Y31887D01*
X305937Y32235D01*
X306285Y32756D01*
X306407Y33371D01*
Y39276D01*
X306285Y39891D01*
X306006Y40308D01*
Y41996D01*
X306208Y42299D01*
X306330Y42913D01*
X306235Y43391D01*
X306676Y43627D01*
X307593Y42709D01*
Y28456D01*
X307762Y27611D01*
X308240Y26895D01*
X308956Y26416D01*
X309368Y26334D01*
X310592Y25110D01*
Y22941D01*
X314923D01*
Y28059D01*
X312753D01*
X312009Y28803D01*
Y34116D01*
X319092D01*
Y33747D01*
X323423D01*
Y34922D01*
X323615Y35172D01*
X323873Y35794D01*
X323961Y36463D01*
Y44828D01*
X323873Y45496D01*
X323615Y46119D01*
X323545Y46210D01*
Y47387D01*
X321547D01*
X321380Y47409D01*
X321212Y47387D01*
X319214D01*
Y46210D01*
X319144Y46119D01*
X318886Y45496D01*
X318798Y44828D01*
Y38531D01*
X312009D01*
Y43624D01*
X311841Y44469D01*
X311362Y45185D01*
X307348Y49199D01*
D01*
X307348Y49199D01*
D01*
D01*
D01*
X307348Y49199D01*
X307348Y49199D01*
X306632Y49678D01*
X305787Y49846D01*
X290731D01*
Y71457D01*
X290643Y72125D01*
X290567Y72307D01*
X290385Y72747D01*
X289975Y73282D01*
X285750Y77506D01*
X285792Y77628D01*
X392589D01*
Y48267D01*
D02*
G37*
%LPC*%
G36*
X8398Y28237D02*
X5839D01*
X4560Y26958D01*
Y22430D01*
X5839Y21151D01*
X8398D01*
X9678Y22430D01*
Y26958D01*
X8398Y28237D01*
D02*
G37*
G36*
X138577Y22478D02*
X133459D01*
Y19722D01*
X138577D01*
Y22478D01*
D02*
G37*
G36*
X10373Y62133D02*
X3287D01*
Y55047D01*
X8624D01*
X33617Y30054D01*
Y28192D01*
X36402D01*
X36570Y28170D01*
X36738Y28192D01*
X39523D01*
Y28543D01*
X42980D01*
X44125Y27399D01*
Y22600D01*
X44015Y22527D01*
X43624Y21941D01*
X43486Y21250D01*
X43624Y20559D01*
X44015Y19973D01*
X44601Y19581D01*
X45293Y19444D01*
X47167D01*
X47517Y19210D01*
X48362Y19042D01*
X49206Y19210D01*
X49556Y19444D01*
X51430D01*
X52122Y19581D01*
X52708Y19973D01*
X53099Y20559D01*
X53237Y21250D01*
X53099Y21941D01*
X52708Y22527D01*
X52647Y22568D01*
Y27716D01*
X52460Y28168D01*
X52008Y28356D01*
X49412D01*
X45456Y32312D01*
D01*
X45456Y32312D01*
D01*
D01*
D01*
X45456Y32312D01*
X45456Y32312D01*
X44739Y32791D01*
X43894Y32959D01*
X39523D01*
Y33310D01*
X37661D01*
X10556Y60415D01*
X10373Y60556D01*
Y62133D01*
D02*
G37*
G36*
X168377Y36388D02*
X164047D01*
Y33934D01*
X160298Y30186D01*
X148222D01*
X147608Y30064D01*
X147450Y29958D01*
X145663D01*
Y27202D01*
X147450D01*
X147608Y27097D01*
X148222Y26974D01*
X160963D01*
X160963Y26974D01*
X161476Y27076D01*
X161578Y27097D01*
X162099Y27445D01*
Y27445D01*
X162099D01*
D01*
D01*
D01*
D01*
D01*
D01*
X162099D01*
D01*
X162099D01*
Y27445D01*
D01*
D01*
D01*
D01*
Y27445D01*
D01*
D01*
D01*
D01*
D01*
D01*
Y27445D01*
D01*
D01*
X162099D01*
D01*
D01*
D01*
D01*
D01*
X164145Y29491D01*
X164606Y29299D01*
Y27495D01*
X164047D01*
Y22377D01*
X168377D01*
Y27495D01*
X167818D01*
Y31270D01*
X168377D01*
Y36388D01*
D02*
G37*
G36*
X41614Y53329D02*
X41199Y53275D01*
X39260D01*
Y51752D01*
X39121Y51416D01*
X39033Y50748D01*
Y38898D01*
X39121Y38230D01*
X39228Y37972D01*
X39379Y37607D01*
X39789Y37073D01*
X42269Y34593D01*
X42803Y34183D01*
X43114Y34054D01*
X43426Y33925D01*
X44094Y33837D01*
X55284D01*
Y27954D01*
X61583D01*
Y44883D01*
X55284D01*
Y38999D01*
X45163D01*
X44195Y39967D01*
Y50519D01*
X44378D01*
Y53275D01*
X42030D01*
X41614Y53329D01*
D02*
G37*
G36*
X386160Y35914D02*
X385235Y35792D01*
X384373Y35435D01*
X383633Y34867D01*
X383065Y34127D01*
X382708Y33265D01*
X382586Y32340D01*
X382708Y31415D01*
X383065Y30553D01*
X383633Y29813D01*
X384373Y29245D01*
X385235Y28888D01*
X386160Y28766D01*
X387085Y28888D01*
X387947Y29245D01*
X388687Y29813D01*
X389255Y30553D01*
X389612Y31415D01*
X389734Y32340D01*
X389612Y33265D01*
X389255Y34127D01*
X388687Y34867D01*
X387947Y35435D01*
X387085Y35792D01*
X386160Y35914D01*
D02*
G37*
G36*
X299801Y40882D02*
X299187Y40760D01*
X298666Y40411D01*
X298318Y39891D01*
X298196Y39276D01*
Y33371D01*
X298318Y32756D01*
X298597Y32338D01*
Y28065D01*
X296655D01*
Y22946D01*
X300986D01*
Y26388D01*
X301006Y26486D01*
X301006Y26486D01*
Y32338D01*
X301285Y32756D01*
X301407Y33371D01*
Y39276D01*
X301285Y39891D01*
X300937Y40411D01*
X300416Y40760D01*
X299801Y40882D01*
D02*
G37*
G36*
X236627Y34747D02*
X232296D01*
Y29629D01*
X236627D01*
Y30984D01*
X241660D01*
Y30206D01*
Y28267D01*
X238884Y25492D01*
X236627D01*
Y26847D01*
X232296D01*
Y21729D01*
X236627D01*
Y23083D01*
X239383D01*
X239383Y23083D01*
X239844Y23175D01*
X240235Y23436D01*
X243658Y26859D01*
X245990D01*
Y30206D01*
Y33946D01*
X241660D01*
Y33392D01*
X236627D01*
Y34747D01*
D02*
G37*
G36*
X36570Y24081D02*
X36109Y23990D01*
X35719Y23729D01*
X35457Y23338D01*
X35366Y22877D01*
Y18851D01*
X35337Y18707D01*
X35337Y18707D01*
Y14111D01*
X35429Y13650D01*
X35690Y13260D01*
X36081Y12999D01*
X36541Y12907D01*
X37002Y12999D01*
X37393Y13260D01*
X37654Y13650D01*
X37746Y14111D01*
Y18591D01*
X37774Y18735D01*
Y22877D01*
X37683Y23338D01*
X37422Y23729D01*
X37031Y23990D01*
X36570Y24081D01*
D02*
G37*
G36*
X14488Y14702D02*
X13758Y14557D01*
X13140Y14143D01*
X12727Y13525D01*
X12582Y12795D01*
X12727Y12066D01*
X13140Y11447D01*
X13758Y11034D01*
X13875Y11011D01*
X14020Y10532D01*
X13024Y9536D01*
Y5993D01*
X14796Y4221D01*
X18339D01*
X20111Y5993D01*
Y9536D01*
X18339Y11308D01*
X16274D01*
X16038Y11749D01*
X16250Y12066D01*
X16395Y12795D01*
X16250Y13525D01*
X15836Y14143D01*
X15218Y14557D01*
X14488Y14702D01*
D02*
G37*
G36*
X236627Y19527D02*
X232296D01*
Y14409D01*
X236627D01*
Y15763D01*
X241660D01*
Y15278D01*
Y13339D01*
X238662Y10342D01*
X236627D01*
Y11697D01*
X232296D01*
Y6578D01*
X236627D01*
Y7933D01*
X239161D01*
X239161Y7933D01*
X239622Y8025D01*
X240013Y8286D01*
X243658Y11931D01*
X245990D01*
Y15278D01*
Y19018D01*
X241660D01*
Y18172D01*
X236627D01*
Y19527D01*
D02*
G37*
G36*
X85939Y6159D02*
X81160D01*
X80699Y6067D01*
X80309Y5806D01*
X80047Y5415D01*
X79956Y4955D01*
X80047Y4494D01*
X80309Y4103D01*
X80699Y3842D01*
X81160Y3750D01*
X85939D01*
X86400Y3842D01*
X86790Y4103D01*
X87051Y4494D01*
X87143Y4955D01*
X87051Y5415D01*
X86790Y5806D01*
X86400Y6067D01*
X85939Y6159D01*
D02*
G37*
G36*
X6449Y11756D02*
X5524Y11634D01*
X4662Y11277D01*
X3922Y10709D01*
X3354Y9969D01*
X2997Y9107D01*
X2875Y8182D01*
Y6213D01*
X2997Y5289D01*
X3354Y4427D01*
X3922Y3686D01*
X4662Y3118D01*
X5524Y2761D01*
X6449Y2640D01*
X7374Y2761D01*
X8236Y3118D01*
X8976Y3686D01*
X9544Y4427D01*
X9901Y5289D01*
X10023Y6213D01*
Y8182D01*
X9901Y9107D01*
X9544Y9969D01*
X8976Y10709D01*
X8236Y11277D01*
X7374Y11634D01*
X6449Y11756D01*
D02*
G37*
G36*
X18339Y36899D02*
X14796D01*
X13024Y35127D01*
Y31584D01*
X13783Y30825D01*
X13734Y30328D01*
X13140Y29931D01*
X12727Y29312D01*
X12582Y28583D01*
X12727Y27853D01*
X13140Y27234D01*
X13758Y26821D01*
X14226Y26728D01*
Y24497D01*
Y22291D01*
X14226Y22291D01*
X14226D01*
X14226Y21938D01*
X14226Y21938D01*
D01*
D01*
Y21938D01*
X14226D01*
D01*
Y19733D01*
X14226Y19733D01*
X14226D01*
X14226Y19379D01*
X14226Y19379D01*
D01*
D01*
Y19379D01*
X14226D01*
D01*
Y16820D01*
X16632D01*
X16840Y16509D01*
X16909Y16379D01*
X16657Y16001D01*
X16565Y15540D01*
X16657Y15079D01*
X16918Y14689D01*
X17309Y14428D01*
X17769Y14336D01*
X23515D01*
X23976Y14428D01*
X24366Y14689D01*
X24627Y15079D01*
X24719Y15540D01*
X24627Y16001D01*
X24366Y16392D01*
X23976Y16653D01*
X23515Y16745D01*
X21388D01*
X21313Y16820D01*
X21313Y17098D01*
X21313D01*
D01*
Y17098D01*
X21313D01*
D01*
Y19025D01*
X21313D01*
D01*
D01*
Y19025D01*
D01*
D01*
X21313Y19379D01*
D01*
Y19379D01*
D01*
Y19379D01*
D01*
D01*
Y19379D01*
X21313Y19635D01*
X21313Y19733D01*
X21313D01*
D01*
Y19733D01*
X21313D01*
D01*
Y21584D01*
X21313D01*
D01*
D01*
Y21584D01*
D01*
D01*
X21313Y21938D01*
D01*
Y21938D01*
D01*
Y21938D01*
D01*
D01*
D01*
D01*
D01*
X21313Y22188D01*
X21313Y22291D01*
X21313D01*
D01*
Y22291D01*
X21313D01*
D01*
Y24497D01*
Y24502D01*
X25184D01*
X25284Y24261D01*
X25695Y23726D01*
X27498Y21923D01*
Y9724D01*
X27586Y9056D01*
X27714Y8745D01*
X27843Y8434D01*
X28254Y7899D01*
X31728Y4425D01*
X32263Y4015D01*
X32627Y3864D01*
X32885Y3757D01*
X33553Y3669D01*
X52825D01*
X53493Y3757D01*
X53804Y3886D01*
X54115Y4015D01*
X54650Y4425D01*
X60408Y10183D01*
X60818Y10717D01*
X61000Y11157D01*
X61076Y11340D01*
X61164Y12008D01*
Y17317D01*
X62516Y18669D01*
X68834D01*
X69502Y18757D01*
X70125Y19015D01*
X70659Y19425D01*
X70673Y19444D01*
X71903D01*
X72594Y19581D01*
X73180Y19973D01*
X73572Y20559D01*
X73709Y21250D01*
X73572Y21941D01*
X73180Y22527D01*
X72594Y22919D01*
X71903Y23056D01*
X70673D01*
X70659Y23075D01*
X70125Y23485D01*
X69502Y23743D01*
X68834Y23831D01*
X61447D01*
X60779Y23743D01*
X60521Y23636D01*
X60156Y23485D01*
X59622Y23075D01*
X56758Y20211D01*
X56347Y19676D01*
X56252Y19446D01*
X56090Y19054D01*
X56002Y18386D01*
Y13077D01*
X51756Y8831D01*
X34622D01*
X32660Y10793D01*
Y22992D01*
X32572Y23660D01*
X32314Y24283D01*
X32314Y24283D01*
D01*
D01*
D01*
D01*
X32314Y24283D01*
D01*
D01*
Y24283D01*
D01*
X32314D01*
D01*
X32314D01*
D01*
D01*
X31904Y24817D01*
X29345Y27376D01*
X28810Y27786D01*
X28188Y28044D01*
X27520Y28132D01*
X26852Y28044D01*
X26229Y27786D01*
X25695Y27376D01*
X25337Y26911D01*
X21313D01*
Y27056D01*
X16248D01*
X16012Y27497D01*
X16250Y27853D01*
X16395Y28583D01*
X16250Y29312D01*
X16211Y29371D01*
X16446Y29812D01*
X18339D01*
X20111Y31584D01*
Y35127D01*
X18339Y36899D01*
D02*
G37*
G36*
X278195Y44222D02*
X275439D01*
Y39852D01*
X268296Y32709D01*
X265274D01*
Y27591D01*
X266235D01*
Y24549D01*
X265891D01*
Y21528D01*
X264581Y20218D01*
X264320Y19827D01*
X264229Y19367D01*
X264229Y19367D01*
Y14694D01*
X263950Y14276D01*
X263827Y13661D01*
X263950Y13047D01*
X264298Y12526D01*
X264819Y12178D01*
X265433Y12056D01*
X266048Y12178D01*
X266568Y12526D01*
X266916Y13047D01*
X267039Y13661D01*
X266916Y14276D01*
X266637Y14694D01*
Y18868D01*
X267200Y19431D01*
X270222D01*
Y24549D01*
X268644D01*
Y27591D01*
X269605D01*
Y30612D01*
X277668Y38675D01*
X277929Y39066D01*
X277937Y39104D01*
X278195D01*
Y44222D01*
D02*
G37*
G36*
X8398Y19970D02*
X5839D01*
X4560Y18690D01*
Y14162D01*
X5839Y12883D01*
X8398D01*
X9678Y14162D01*
Y18690D01*
X8398Y19970D01*
D02*
G37*
G36*
X154035Y17089D02*
X153574Y16998D01*
X153183Y16737D01*
X152922Y16346D01*
X152830Y15885D01*
Y12076D01*
X152922Y11615D01*
X153183Y11224D01*
X153574Y10963D01*
X154035Y10871D01*
X154496Y10963D01*
X154886Y11224D01*
X155147Y11615D01*
X155239Y12076D01*
Y15885D01*
X155147Y16346D01*
X154886Y16737D01*
X154496Y16998D01*
X154035Y17089D01*
D02*
G37*
G36*
X138129Y17325D02*
X137668Y17233D01*
X137277Y16972D01*
X137016Y16582D01*
X136925Y16121D01*
Y12076D01*
X137016Y11615D01*
X137277Y11224D01*
X137668Y10963D01*
X138129Y10871D01*
X138590Y10963D01*
X138980Y11224D01*
X139241Y11615D01*
X139333Y12076D01*
Y16121D01*
X139241Y16582D01*
X138980Y16972D01*
X138590Y17233D01*
X138129Y17325D01*
D02*
G37*
G36*
X145649Y17286D02*
X145188Y17195D01*
X144797Y16933D01*
X144536Y16543D01*
X144445Y16082D01*
Y12076D01*
X144536Y11615D01*
X144797Y11224D01*
X145188Y10963D01*
X145649Y10871D01*
X146110Y10963D01*
X146500Y11224D01*
X146761Y11615D01*
X146853Y12076D01*
Y16082D01*
X146761Y16543D01*
X146500Y16933D01*
X146110Y17195D01*
X145649Y17286D01*
D02*
G37*
G36*
X6371Y38795D02*
X5446Y38674D01*
X4584Y38317D01*
X3844Y37749D01*
X3275Y37008D01*
X2919Y36146D01*
X2797Y35221D01*
Y33253D01*
X2919Y32328D01*
X3275Y31466D01*
X3844Y30726D01*
X4584Y30158D01*
X5446Y29801D01*
X6371Y29679D01*
X7296Y29801D01*
X8157Y30158D01*
X8898Y30726D01*
X9466Y31466D01*
X9823Y32328D01*
X9944Y33253D01*
Y35221D01*
X9823Y36146D01*
X9466Y37008D01*
X8898Y37749D01*
X8157Y38317D01*
X7296Y38674D01*
X6371Y38795D01*
D02*
G37*
G36*
X236627Y64835D02*
X232296D01*
Y59717D01*
X236627D01*
Y61071D01*
X241660D01*
Y60528D01*
Y58589D01*
X238833Y55762D01*
X236627D01*
Y57117D01*
X232296D01*
Y51999D01*
X236627D01*
Y53354D01*
X239331D01*
X239332Y53354D01*
X239792Y53446D01*
X240183Y53707D01*
X243658Y57182D01*
X245990D01*
Y60528D01*
Y64268D01*
X241660D01*
Y63480D01*
X236627D01*
Y64835D01*
D02*
G37*
G36*
X44046Y71723D02*
X39715D01*
Y66605D01*
X40275D01*
Y60755D01*
X39260D01*
Y57999D01*
X41199D01*
X41266Y57955D01*
X41880Y57832D01*
X42495Y57955D01*
X42561Y57999D01*
X44378D01*
Y60755D01*
X43486D01*
Y66605D01*
X44046D01*
Y71723D01*
D02*
G37*
G36*
X31815Y58218D02*
X31530Y58180D01*
X28847D01*
Y53062D01*
X31632D01*
X31800Y53040D01*
X31968Y53062D01*
X34753D01*
Y54031D01*
X46582D01*
X46582Y54031D01*
X47094Y54133D01*
X47196Y54153D01*
X47717Y54501D01*
Y54501D01*
X47717D01*
D01*
D01*
D01*
D01*
D01*
D01*
X47717D01*
D01*
X47717D01*
Y54501D01*
D01*
D01*
D01*
D01*
Y54501D01*
D01*
D01*
D01*
D01*
D01*
D01*
Y54501D01*
D01*
D01*
X47717D01*
D01*
D01*
D01*
X47986Y54770D01*
X48334Y55291D01*
X48354Y55393D01*
X48456Y55905D01*
X48334Y56520D01*
X47986Y57041D01*
X47465Y57389D01*
X46850Y57511D01*
X46338Y57409D01*
X46236Y57389D01*
X46016Y57242D01*
X34753D01*
Y58180D01*
X32101D01*
X31815Y58218D01*
D02*
G37*
G36*
X278195Y56427D02*
X275439D01*
Y55072D01*
X268055D01*
Y55222D01*
X262937D01*
Y54261D01*
X261876D01*
X261876Y54261D01*
X261415Y54169D01*
X261024Y53908D01*
X260289Y53173D01*
X260028Y52782D01*
X259936Y52321D01*
X259936Y52321D01*
Y32709D01*
X258975D01*
Y27591D01*
X260159D01*
Y24549D01*
X259198D01*
Y19431D01*
X263529D01*
Y24549D01*
X262568D01*
Y27591D01*
X263306D01*
Y32709D01*
X262345D01*
Y51823D01*
X262375Y51853D01*
X262937D01*
Y50892D01*
X268055D01*
Y52664D01*
X275439D01*
Y51309D01*
X278195D01*
Y56427D01*
D02*
G37*
G36*
X299878Y64322D02*
X299264Y64200D01*
X298743Y63852D01*
X298395Y63331D01*
X298272Y62717D01*
X298395Y62102D01*
X298597Y61799D01*
Y60781D01*
X298318Y60363D01*
X298196Y59749D01*
Y58000D01*
X296407D01*
Y59749D01*
X296285Y60363D01*
X295937Y60884D01*
X295416Y61232D01*
X294801Y61354D01*
X294187Y61232D01*
X293666Y60884D01*
X293318Y60363D01*
X293196Y59749D01*
Y53843D01*
X293318Y53228D01*
X293666Y52708D01*
X294187Y52359D01*
X294801Y52237D01*
X295416Y52359D01*
X295937Y52708D01*
X296285Y53228D01*
X296407Y53843D01*
Y55591D01*
X298196D01*
Y53843D01*
X298318Y53228D01*
X298666Y52708D01*
X299187Y52359D01*
X299801Y52237D01*
X300416Y52359D01*
X300937Y52708D01*
X301285Y53228D01*
X301407Y53843D01*
Y59749D01*
X301285Y60363D01*
X301006Y60781D01*
Y61576D01*
X301013Y61581D01*
X301361Y62102D01*
X301484Y62717D01*
X301361Y63331D01*
X301013Y63852D01*
X300493Y64200D01*
X299878Y64322D01*
D02*
G37*
G36*
X190563Y73210D02*
X189484Y73067D01*
X188478Y72651D01*
X187615Y71988D01*
X186952Y71125D01*
X186536Y70119D01*
X186394Y69040D01*
X186536Y67961D01*
X186952Y66955D01*
X187615Y66092D01*
X188478Y65429D01*
X189484Y65013D01*
X190563Y64871D01*
X191642Y65013D01*
X192648Y65429D01*
X193511Y66092D01*
X194174Y66955D01*
X194591Y67961D01*
X194733Y69040D01*
X194591Y70119D01*
X194174Y71125D01*
X193511Y71988D01*
X192648Y72651D01*
X191642Y73067D01*
X190563Y73210D01*
D02*
G37*
G36*
X210521Y73667D02*
X209750Y73565D01*
X209032Y73268D01*
X208415Y72795D01*
X207942Y72178D01*
X207644Y71460D01*
X207543Y70689D01*
X207644Y69918D01*
X207942Y69200D01*
X208415Y68583D01*
X209032Y68109D01*
X209750Y67812D01*
X210521Y67710D01*
X210984Y67772D01*
X210991Y67762D01*
X211511Y67414D01*
X212126Y67292D01*
X212740Y67414D01*
X213261Y67762D01*
X213609Y68283D01*
X213732Y68898D01*
X213609Y69512D01*
X213375Y69863D01*
X213398Y69918D01*
X213499Y70689D01*
X213398Y71460D01*
X213100Y72178D01*
X212627Y72795D01*
X212010Y73268D01*
X211292Y73565D01*
X210521Y73667D01*
D02*
G37*
G36*
X65006Y71723D02*
X60675D01*
Y66605D01*
X61275D01*
Y64229D01*
X60715D01*
Y61775D01*
X59922Y60983D01*
X54024D01*
X53410Y60860D01*
X53252Y60755D01*
X51465D01*
Y57999D01*
X53252D01*
X53410Y57893D01*
X54024Y57771D01*
X60587D01*
X60587Y57771D01*
X61100Y57873D01*
X61202Y57893D01*
X61723Y58241D01*
Y58241D01*
X61723D01*
D01*
D01*
D01*
D01*
D01*
D01*
X61723D01*
D01*
X61723D01*
Y58241D01*
D01*
D01*
D01*
D01*
Y58241D01*
D01*
D01*
D01*
D01*
D01*
D01*
Y58241D01*
D01*
D01*
X61723D01*
D01*
D01*
D01*
D01*
D01*
X62592Y59111D01*
X65046D01*
Y64229D01*
X64486D01*
Y66605D01*
X65006D01*
Y71723D01*
D02*
G37*
G36*
X386160Y65914D02*
X385235Y65792D01*
X384373Y65435D01*
X383633Y64867D01*
X383065Y64127D01*
X382708Y63265D01*
X382586Y62340D01*
X382708Y61415D01*
X382949Y60832D01*
X377409Y55292D01*
X329994D01*
Y56647D01*
X325663D01*
Y51529D01*
X326475D01*
Y47387D01*
X325514D01*
Y42269D01*
X329844D01*
Y47387D01*
X328883D01*
Y51529D01*
X329994D01*
Y52884D01*
X377908D01*
X377908Y52884D01*
X378369Y52975D01*
X378760Y53236D01*
X384652Y59129D01*
X385235Y58888D01*
X386160Y58766D01*
X387085Y58888D01*
X387947Y59245D01*
X388687Y59813D01*
X389255Y60553D01*
X389612Y61415D01*
X389734Y62340D01*
X389612Y63265D01*
X389255Y64127D01*
X388687Y64867D01*
X387947Y65435D01*
X387085Y65792D01*
X386160Y65914D01*
D02*
G37*
G36*
X309801Y76501D02*
X308956Y76333D01*
X308240Y75854D01*
X307762Y75138D01*
X307593Y74293D01*
Y61624D01*
X304606D01*
X304154Y61436D01*
X304025Y61124D01*
X303666Y60884D01*
X303318Y60363D01*
X303196Y59749D01*
Y53843D01*
X303318Y53228D01*
X303666Y52708D01*
X304187Y52359D01*
X304801Y52237D01*
X305185Y52314D01*
X308226D01*
Y52268D01*
X311376D01*
Y55255D01*
X311841Y55951D01*
X312009Y56796D01*
Y74293D01*
X311841Y75138D01*
X311362Y75854D01*
X310646Y76333D01*
X309801Y76501D01*
D02*
G37*
G36*
X386160Y45914D02*
X385235Y45792D01*
X384373Y45435D01*
X383633Y44867D01*
X383065Y44127D01*
X382708Y43265D01*
X382586Y42340D01*
X382708Y41415D01*
X382949Y40832D01*
X379627Y37510D01*
X329722D01*
Y38865D01*
X325392D01*
Y33747D01*
X329722D01*
Y35102D01*
X380126D01*
X380126Y35102D01*
X380587Y35193D01*
X380978Y35454D01*
X384652Y39129D01*
X385235Y38888D01*
X386160Y38766D01*
X387085Y38888D01*
X387947Y39245D01*
X388687Y39813D01*
X389255Y40553D01*
X389612Y41415D01*
X389734Y42340D01*
X389612Y43265D01*
X389255Y44127D01*
X388687Y44867D01*
X387947Y45435D01*
X387085Y45792D01*
X386160Y45914D01*
D02*
G37*
G36*
X230328Y42167D02*
X225997D01*
Y40812D01*
X225080D01*
X225016Y40799D01*
X224724Y40858D01*
X224110Y40735D01*
X223589Y40387D01*
X223241Y39866D01*
X223119Y39252D01*
X223241Y38638D01*
X223589Y38117D01*
X224110Y37769D01*
X224724Y37646D01*
X225339Y37769D01*
X225556Y37914D01*
X225997Y37678D01*
Y37049D01*
X230328D01*
Y42167D01*
D02*
G37*
G36*
X154202Y65673D02*
X146721D01*
Y64809D01*
X146605Y64528D01*
Y61652D01*
X146451Y61281D01*
X146363Y60613D01*
Y52962D01*
X145795D01*
Y44998D01*
X140222Y39425D01*
X139812Y38890D01*
X139717Y38660D01*
X139554Y38268D01*
X139466Y37600D01*
Y24449D01*
X139466Y24449D01*
X139466D01*
X139554Y23781D01*
X139812Y23158D01*
X140222Y22624D01*
D01*
X140222D01*
X140222Y22624D01*
X140222D01*
Y22624D01*
X140222Y22624D01*
Y22624D01*
X141767Y21079D01*
X142301Y20669D01*
X142924Y20411D01*
X143592Y20323D01*
X144260Y20411D01*
X144346Y20447D01*
X144545Y20248D01*
X144545Y20248D01*
X144779Y20092D01*
X144935Y19987D01*
X145396Y19896D01*
X145663D01*
Y19722D01*
X150781D01*
Y22478D01*
X146496D01*
X146166Y22854D01*
X146173Y22904D01*
X146085Y23572D01*
X145827Y24195D01*
X145417Y24730D01*
X144628Y25518D01*
Y36531D01*
X145333Y37235D01*
X145795Y37044D01*
Y36033D01*
X152094D01*
Y37241D01*
X152342Y37343D01*
X152529Y37795D01*
Y58587D01*
X154202D01*
Y65673D01*
D02*
G37*
G36*
X138708Y52962D02*
X132409D01*
Y36492D01*
X131947Y36301D01*
X130212Y38036D01*
X129677Y38446D01*
X129366Y38575D01*
X129055Y38704D01*
X128387Y38792D01*
X117672D01*
X117004Y38704D01*
X116822Y38629D01*
X116381Y38446D01*
X115847Y38036D01*
X112182Y34372D01*
X112100Y34265D01*
X103896D01*
X103468Y34208D01*
X95460D01*
X94792Y34120D01*
X94169Y33862D01*
X93634Y33452D01*
X93224Y32918D01*
X92966Y32295D01*
X92879Y31627D01*
X92966Y30959D01*
X93224Y30336D01*
X93634Y29802D01*
X94169Y29392D01*
X94792Y29134D01*
X95460Y29046D01*
X103840D01*
X104008Y29068D01*
X106793D01*
Y29102D01*
X114008D01*
X114175Y29124D01*
X116173D01*
Y30302D01*
X116243Y30393D01*
X116501Y31015D01*
X116558Y31446D01*
X117317Y32206D01*
X117765Y31984D01*
X117726Y31683D01*
Y15357D01*
X117814Y14689D01*
X118071Y14066D01*
X118138Y13979D01*
Y12794D01*
X120163D01*
X120307Y12776D01*
X120451Y12794D01*
X122469D01*
Y13971D01*
X122542Y14066D01*
X122800Y14689D01*
X122888Y15357D01*
Y29210D01*
X125827D01*
X126672Y29378D01*
X127388Y29856D01*
X127866Y30572D01*
X128034Y31417D01*
X127866Y32262D01*
X127635Y32609D01*
X128021Y32926D01*
X132471Y28477D01*
Y24094D01*
X132658Y23642D01*
X133110Y23455D01*
X137874D01*
X137890Y23462D01*
X138577D01*
Y26218D01*
X138513D01*
Y27202D01*
X138577D01*
Y28413D01*
X138599Y28580D01*
X138577Y28748D01*
Y29958D01*
X138513D01*
Y36033D01*
X138708D01*
Y52962D01*
D02*
G37*
G36*
X236627Y49697D02*
X232296D01*
Y44579D01*
X236627D01*
Y45934D01*
X241660D01*
Y45288D01*
Y43349D01*
X239123Y40812D01*
X236627D01*
Y42167D01*
X232296D01*
Y37049D01*
X236627D01*
Y38404D01*
X239621D01*
X239621Y38404D01*
X240082Y38495D01*
X240473Y38756D01*
X243658Y41941D01*
X245990D01*
Y45288D01*
Y49028D01*
X241660D01*
Y48342D01*
X236627D01*
Y49697D01*
D02*
G37*
G36*
X164523Y43904D02*
X158487D01*
X158027Y43813D01*
X157636Y43551D01*
X157375Y43161D01*
X157283Y42700D01*
X157375Y42239D01*
X157636Y41848D01*
X158027Y41587D01*
X158487Y41496D01*
X164523D01*
X164984Y41587D01*
X165375Y41848D01*
X165636Y42239D01*
X165727Y42700D01*
X165636Y43161D01*
X165375Y43551D01*
X164984Y43813D01*
X164523Y43904D01*
D02*
G37*
G36*
X268055Y48923D02*
X262937D01*
Y44592D01*
X268055D01*
Y45567D01*
X268889D01*
X269307Y45288D01*
X269921Y45166D01*
X270536Y45288D01*
X271057Y45636D01*
X271405Y46157D01*
X271527Y46772D01*
X271405Y47386D01*
X271057Y47907D01*
X270536Y48255D01*
X269921Y48377D01*
X269307Y48255D01*
X268889Y47976D01*
X268055D01*
Y48923D01*
D02*
G37*
G36*
X54024Y53502D02*
X53410Y53380D01*
X53252Y53275D01*
X51465D01*
Y50519D01*
X52418D01*
Y48776D01*
X49035Y45392D01*
X46581D01*
Y41061D01*
X51699D01*
Y43515D01*
X55159Y46975D01*
X55159Y46975D01*
X55507Y47496D01*
X55630Y48110D01*
Y50519D01*
X56583D01*
Y53275D01*
X54796D01*
X54638Y53380D01*
X54024Y53502D01*
D02*
G37*
G36*
X31800Y48951D02*
X31339Y48860D01*
X30948Y48599D01*
X30687Y48208D01*
X30596Y47747D01*
Y42688D01*
X30687Y42227D01*
X30948Y41837D01*
X31339Y41576D01*
X31800Y41484D01*
X32261Y41576D01*
X32651Y41837D01*
X32913Y42227D01*
X33004Y42688D01*
Y47747D01*
X32913Y48208D01*
X32651Y48599D01*
X32261Y48860D01*
X31800Y48951D01*
D02*
G37*
%LPD*%
D10*
X71819Y36418D02*
D03*
X58434D02*
D03*
X135559Y44497D02*
D03*
X148944D02*
D03*
D11*
X49140Y36533D02*
D03*
Y43227D02*
D03*
X265496Y46758D02*
D03*
Y53057D02*
D03*
X154035Y12076D02*
D03*
Y5383D02*
D03*
X145649Y12076D02*
D03*
Y5383D02*
D03*
X138129D02*
D03*
Y12076D02*
D03*
X81160Y4955D02*
D03*
Y11254D02*
D03*
D12*
X321258Y36306D02*
D03*
X327557D02*
D03*
X327679Y44828D02*
D03*
X321380D02*
D03*
X321530Y54088D02*
D03*
X327829D02*
D03*
X312758Y25499D02*
D03*
X306065D02*
D03*
X298821Y25505D02*
D03*
X292128D02*
D03*
X281510Y22080D02*
D03*
X275210D02*
D03*
Y30090D02*
D03*
X281510D02*
D03*
X261364Y21990D02*
D03*
X268057D02*
D03*
X261140Y30150D02*
D03*
X267440D02*
D03*
X228162Y9138D02*
D03*
X234462D02*
D03*
X228162Y16968D02*
D03*
X234462D02*
D03*
X228162Y24288D02*
D03*
X234462D02*
D03*
X228162Y32188D02*
D03*
X234462D02*
D03*
X228162Y39608D02*
D03*
X234462D02*
D03*
X228162Y47138D02*
D03*
X234462D02*
D03*
X228162Y54558D02*
D03*
X234462D02*
D03*
X228162Y62276D02*
D03*
X234462D02*
D03*
X172511Y24936D02*
D03*
X166212D02*
D03*
Y16696D02*
D03*
X172511D02*
D03*
X166212Y8686D02*
D03*
X172511D02*
D03*
X114008Y31683D02*
D03*
X120307D02*
D03*
X114003Y23458D02*
D03*
X120303D02*
D03*
X113611Y15353D02*
D03*
X120304D02*
D03*
X62880Y61670D02*
D03*
X69180D02*
D03*
X69140Y69164D02*
D03*
X62840D02*
D03*
X41880D02*
D03*
X48180D02*
D03*
X172511Y33829D02*
D03*
X166212D02*
D03*
D13*
X309801Y56796D02*
D03*
D14*
X294801Y36323D02*
D03*
X299801D02*
D03*
X304801D02*
D03*
X309801D02*
D03*
X294801Y56796D02*
D03*
X299801D02*
D03*
X304801D02*
D03*
D15*
X293613Y15235D02*
D03*
X310936D02*
D03*
X150461Y62130D02*
D03*
X133139D02*
D03*
D16*
X284297Y53868D02*
D03*
X276817D02*
D03*
X280557D02*
D03*
X276817Y41663D02*
D03*
X284297D02*
D03*
D17*
X250124Y17148D02*
D03*
X243825D02*
D03*
X250124Y13802D02*
D03*
X243825D02*
D03*
X250124Y32076D02*
D03*
X243825D02*
D03*
X250124Y28729D02*
D03*
X243825D02*
D03*
X250124Y47158D02*
D03*
X243825D02*
D03*
X250124Y43812D02*
D03*
X243825D02*
D03*
X250124Y62398D02*
D03*
X243825D02*
D03*
X250124Y59052D02*
D03*
X243825D02*
D03*
D18*
X201013Y61120D02*
D03*
X208887D02*
D03*
X164523Y51020D02*
D03*
X172397D02*
D03*
X164523Y42700D02*
D03*
X172397D02*
D03*
D19*
X103840Y31627D02*
D03*
Y23753D02*
D03*
X31800Y47747D02*
D03*
Y55621D02*
D03*
X36541Y14111D02*
D03*
Y6237D02*
D03*
X36570Y22877D02*
D03*
Y30751D02*
D03*
D20*
X85605Y44245D02*
D03*
X85605Y62355D02*
D03*
D21*
X111195Y53300D02*
D03*
D22*
X68834Y11250D02*
D03*
Y16250D02*
D03*
Y21250D02*
D03*
X48362Y6250D02*
D03*
Y11250D02*
D03*
Y16250D02*
D03*
Y21250D02*
D03*
D23*
X68834Y6250D02*
D03*
D24*
X54024Y51897D02*
D03*
Y59377D02*
D03*
Y55637D02*
D03*
X41819D02*
D03*
Y59377D02*
D03*
Y51897D02*
D03*
X148222Y21100D02*
D03*
Y28580D02*
D03*
Y24840D02*
D03*
X136018D02*
D03*
Y28580D02*
D03*
Y21100D02*
D03*
D25*
X62146Y52420D02*
D03*
X71594D02*
D03*
D26*
X242666Y70689D02*
D03*
X231951D02*
D03*
X221236D02*
D03*
X210521D02*
D03*
X199806D02*
D03*
D27*
X212459Y18724D02*
D03*
Y21283D02*
D03*
Y23842D02*
D03*
Y26401D02*
D03*
Y28960D02*
D03*
Y31519D02*
D03*
Y34079D02*
D03*
Y36638D02*
D03*
Y39197D02*
D03*
X189821Y18724D02*
D03*
Y21283D02*
D03*
Y23842D02*
D03*
Y26401D02*
D03*
Y28960D02*
D03*
Y31519D02*
D03*
Y34079D02*
D03*
Y36638D02*
D03*
Y39197D02*
D03*
X212459Y41756D02*
D03*
X189821D02*
D03*
D28*
X17769Y25776D02*
D03*
Y15540D02*
D03*
Y18099D02*
D03*
Y23217D02*
D03*
Y20658D02*
D03*
D29*
X16567Y33355D02*
D03*
Y7765D02*
D03*
D30*
X7119Y16426D02*
D03*
Y24694D02*
D03*
D31*
X164523Y51020D02*
Y55595D01*
X158487Y42700D02*
X164523D01*
X36541Y18707D02*
X36570Y18735D01*
X36541Y14111D02*
Y18707D01*
X36570Y18735D02*
Y22877D01*
X81160Y4955D02*
X85939D01*
X185850Y21283D02*
X196142D01*
X220181Y69634D02*
X221236Y70689D01*
X220181Y64630D02*
Y69634D01*
X200677Y41622D02*
Y69818D01*
X199806Y70689D02*
X200677Y69818D01*
X212126Y68898D02*
Y69084D01*
X154035Y12076D02*
Y15885D01*
X145649Y12076D02*
Y16082D01*
X138129Y12076D02*
Y16121D01*
X17769Y15540D02*
X23515D01*
X31800Y42688D02*
Y47747D01*
X143592Y22904D02*
X145396Y21100D01*
X62860Y69016D02*
X62880Y68995D01*
X261140Y30150D02*
X261364Y29927D01*
Y21990D02*
Y29927D01*
X261140Y30150D02*
Y52321D01*
X261876Y53057D01*
X276817Y39527D02*
Y41663D01*
X267440Y30150D02*
X276817Y39527D01*
X267440Y21373D02*
Y30150D01*
X265433Y19367D02*
X267440Y21373D01*
X265433Y13661D02*
Y19367D01*
X299801Y56796D02*
Y62793D01*
X294801Y56796D02*
X299801D01*
X204724Y49173D02*
X220181Y64630D01*
X204724Y32087D02*
Y49173D01*
X284236Y49055D02*
Y53807D01*
X281510Y46328D02*
X284236Y49055D01*
X281510Y30090D02*
Y46328D01*
X181417Y42205D02*
X184425Y39197D01*
X189821D01*
X265496Y46758D02*
X265510Y46772D01*
X269921D01*
X304724Y42913D02*
X304801Y42836D01*
Y36323D02*
Y42836D01*
X276817Y39651D02*
Y41663D01*
X265496Y53057D02*
X266307Y53868D01*
X276817D01*
X261876Y53057D02*
X265496D01*
X310936Y9007D02*
Y15235D01*
X306428Y4499D02*
X310936Y9007D01*
X209084Y4499D02*
X306428D01*
X194858Y18724D02*
X209084Y4499D01*
X189821Y18724D02*
X194858D01*
X327679Y44828D02*
Y53938D01*
X327829Y54088D02*
X377908D01*
X386160Y62340D01*
X327557Y36306D02*
X380126D01*
X386160Y42340D01*
X299801Y26486D02*
Y36323D01*
X298821Y25505D02*
X299801Y26486D01*
Y62793D02*
X299878Y62717D01*
X391457Y18307D02*
Y47043D01*
X310936Y15235D02*
X388385D01*
X386160Y52340D02*
X391457Y47043D01*
X284236Y53807D02*
X284297Y53868D01*
X189821Y28960D02*
X194315D01*
X216008Y36638D02*
X216213Y36843D01*
X212459Y36638D02*
X216008D01*
X196480Y23842D02*
X204724Y32087D01*
X189821Y23842D02*
X196480D01*
X185039Y31378D02*
X185181Y31519D01*
X189821D01*
X193134Y34079D02*
X200677Y41622D01*
X189821Y34079D02*
X193134D01*
X197960Y70820D02*
X198751Y71610D01*
X239161Y9138D02*
X243825Y13802D01*
X234462Y9138D02*
X239161D01*
X234462Y16968D02*
X243645D01*
X239383Y24288D02*
X243825Y28729D01*
X234462Y24288D02*
X239383D01*
X234462Y32188D02*
X243713D01*
X239621Y39608D02*
X243825Y43812D01*
X234462Y39608D02*
X239621D01*
X234462Y47138D02*
X243805D01*
X239332Y54558D02*
X243825Y59052D01*
X234462Y54558D02*
X239332D01*
X234462Y62276D02*
X243703D01*
X221220Y55334D02*
X228162Y62276D01*
X221220Y50517D02*
Y55334D01*
X228035Y54685D02*
X228162Y54558D01*
X224016Y54685D02*
X228035D01*
X202953Y18937D02*
X203166Y18724D01*
X212459D01*
X225080Y39608D02*
X228162D01*
X224724Y39252D02*
X225080Y39608D01*
X206890Y20945D02*
X207228Y21283D01*
X212459D01*
X225075Y24288D02*
X228162D01*
X224843Y24055D02*
X225075Y24288D01*
X216551Y23842D02*
X216575Y23819D01*
X212459Y23842D02*
X216551D01*
X218087Y26401D02*
X220315Y24173D01*
Y16985D02*
Y24173D01*
Y16985D02*
X228162Y9138D01*
X219032Y31519D02*
X222087Y28465D01*
Y23043D02*
Y28465D01*
Y23043D02*
X228162Y16968D01*
X212459Y26401D02*
X218087D01*
X212459Y31519D02*
X219032D01*
X226272Y34079D02*
X228162Y32188D01*
X212459Y34079D02*
X226272D01*
X224973Y47138D02*
X228162D01*
X217031Y39197D02*
X224973Y47138D01*
X212459Y39197D02*
X217031D01*
X212459Y41756D02*
X221220Y50517D01*
X183976Y19410D02*
X185850Y21283D01*
X183370Y34079D02*
X189821D01*
X178150Y28858D02*
X183370Y34079D01*
X178150Y19764D02*
Y28858D01*
X175082Y16696D02*
X178150Y19764D01*
X172511Y16696D02*
X175082D01*
X183016Y28960D02*
X189821D01*
X180315Y26260D02*
X183016Y28960D01*
X180315Y13307D02*
Y26260D01*
X175694Y8686D02*
X180315Y13307D01*
X172511Y8686D02*
X175694D01*
X145396Y21100D02*
X148222D01*
X62860Y69016D02*
X62895Y69051D01*
X41819Y59377D02*
X41880Y59438D01*
X180410Y36638D02*
X189821D01*
X281510Y22080D02*
Y30090D01*
X388385Y15235D02*
X391457Y18307D01*
X27364Y25706D02*
X27520Y25551D01*
X17839Y25706D02*
X27364D01*
D32*
X128387Y36211D02*
X136018Y28580D01*
X96507Y5383D02*
X163215D01*
X85605Y16285D02*
Y44245D01*
X84095Y16693D02*
X95827Y4961D01*
X85605Y16285D02*
X96507Y5383D01*
X87362Y15433D02*
X96102Y6693D01*
X288150Y47638D02*
Y71457D01*
X283925Y75681D02*
X288150Y71457D01*
X236943Y75681D02*
X283925D01*
X231951Y70689D02*
X236943Y75681D01*
X93497Y69724D02*
X155787D01*
X85866Y62094D02*
X93497Y69724D01*
X133139Y62130D02*
Y69635D01*
X172511Y33829D02*
Y53000D01*
X155787Y69724D02*
X172511Y53000D01*
X85866Y55669D02*
Y62094D01*
X142047Y24449D02*
X143592Y22904D01*
X142047Y24449D02*
X142047D01*
X142047D02*
Y37600D01*
X148944Y44497D01*
X44094Y36418D02*
X58434D01*
X41614Y38898D02*
Y50748D01*
Y38898D02*
X44094Y36418D01*
X33553Y6250D02*
X52825D01*
X61447Y21250D02*
X68834D01*
X58583Y18386D02*
X61447Y21250D01*
X58583Y12008D02*
Y18386D01*
X52825Y6250D02*
X58583Y12008D01*
X30079Y9724D02*
X33553Y6250D01*
X30079Y9724D02*
Y22992D01*
X27520Y25551D02*
X30079Y22992D01*
X71819Y49290D02*
X73272Y50742D01*
X69180Y61670D02*
X71594Y59255D01*
Y52420D02*
Y59255D01*
X71819Y36418D02*
Y49290D01*
X73272Y50742D02*
X92041D01*
X135559Y29039D02*
Y44497D01*
X95460Y31627D02*
X103840D01*
X117672Y36211D02*
X128387D01*
X114008Y32547D02*
X117672Y36211D01*
X114008Y31683D02*
Y32547D01*
X103840Y31627D02*
X103896Y31683D01*
X114008D01*
X48180Y69164D02*
X54158Y75142D01*
X181417Y42205D02*
Y68661D01*
X174936Y75142D02*
X181417Y68661D01*
X54158Y75142D02*
X174936D01*
X31800Y55621D02*
X31815Y55637D01*
X6830Y58590D02*
X8731D01*
X36570Y30751D01*
X321380Y36463D02*
Y44828D01*
X148944Y44497D02*
Y60613D01*
X163215Y5383D02*
X166212Y8380D01*
X171442Y3150D02*
X180748D01*
X183976Y6378D01*
X120307Y15357D02*
Y31683D01*
D33*
X309801Y28456D02*
Y43624D01*
X284297Y43785D02*
X288150Y47638D01*
X305787D02*
X309801Y43624D01*
X288150Y47638D02*
X305787D01*
X43894Y30751D02*
X48362Y26284D01*
X305827Y56796D02*
X309801D01*
Y74293D01*
X120573Y31417D02*
X125827D01*
X136018Y25748D02*
Y28580D01*
X172397Y51020D02*
X172511Y50906D01*
X309801Y36323D02*
X321240D01*
X166212Y8380D02*
X171442Y3150D01*
X183976Y6378D02*
Y19410D01*
X36570Y30751D02*
X43894D01*
X48362Y21250D02*
Y26284D01*
X166212Y8380D02*
Y16696D01*
D34*
X284297Y35506D02*
Y43785D01*
X207244Y47638D02*
X230295Y70689D01*
X231951D01*
X31815Y55637D02*
X46582D01*
X231135Y71529D02*
Y71849D01*
X196142Y21283D02*
X199118D01*
X207244Y29409D01*
Y47638D01*
X166212Y24755D02*
Y33829D01*
X160963Y28580D02*
X166212Y33829D01*
X148222Y28580D02*
X160963D01*
X49140Y43227D02*
X54024Y48110D01*
Y51897D01*
X60587Y59377D02*
X62880Y61670D01*
X54024Y59377D02*
X60587D01*
X62880Y61670D02*
Y68995D01*
X275210Y22080D02*
X281149Y16142D01*
X284213D01*
X286732Y18661D01*
Y33071D01*
X284297Y35506D02*
X286732Y33071D01*
X46582Y55637D02*
X46850Y55905D01*
X321240Y36323D02*
X321380Y36463D01*
X41880Y59438D02*
Y69164D01*
X68834Y11250D02*
X81156D01*
X120304Y15353D02*
X120307Y15357D01*
D35*
X309801Y28456D02*
X312758Y25499D01*
D36*
X81156Y11250D02*
X81160Y11254D01*
D37*
X135492Y38110D02*
D03*
D38*
X149567Y51161D02*
D03*
D39*
X85613Y29862D02*
D03*
D40*
X307224Y56968D02*
D03*
D41*
X48386Y24390D02*
D03*
D42*
X165760Y69040D02*
D03*
X190563D02*
D03*
D43*
X6830Y58590D02*
D03*
Y68590D02*
D03*
D44*
X386160Y62340D02*
D03*
Y32340D02*
D03*
Y42340D02*
D03*
Y52340D02*
D03*
D45*
Y22340D02*
D03*
D46*
X6371Y34237D02*
D03*
X6449Y7198D02*
D03*
D47*
X14488Y28583D02*
D03*
Y12795D02*
D03*
D48*
X41024Y19331D02*
D03*
X36570Y18735D02*
D03*
X85939Y4955D02*
D03*
X154035Y15885D02*
D03*
X145649Y16082D02*
D03*
X138129Y16121D02*
D03*
X335827Y20394D02*
D03*
X357638Y22244D02*
D03*
X375551Y31102D02*
D03*
X365905Y28858D02*
D03*
X315433Y45945D02*
D03*
X315827Y55197D02*
D03*
X378661Y49449D02*
D03*
X360118Y44291D02*
D03*
X350630Y47992D02*
D03*
X335630Y46968D02*
D03*
X323858Y26575D02*
D03*
X350866Y58898D02*
D03*
X354134Y74961D02*
D03*
X333976Y58701D02*
D03*
X372677Y22677D02*
D03*
X351260Y69213D02*
D03*
X331260Y66890D02*
D03*
X332953Y73543D02*
D03*
X316063Y67953D02*
D03*
X349213Y26969D02*
D03*
X372284Y64055D02*
D03*
X366496Y74370D02*
D03*
X362992Y64882D02*
D03*
X376614Y69410D02*
D03*
X334173Y30079D02*
D03*
X264646Y67874D02*
D03*
X293543Y7283D02*
D03*
X276890Y63740D02*
D03*
X343661Y41181D02*
D03*
X302441Y68189D02*
D03*
X271260Y10866D02*
D03*
X92559Y57520D02*
D03*
X92323Y39213D02*
D03*
X78504Y60590D02*
D03*
X82441Y68661D02*
D03*
X128228Y42953D02*
D03*
X78228Y37638D02*
D03*
X127598Y57913D02*
D03*
X51181Y63543D02*
D03*
X56732Y63740D02*
D03*
X301220Y6693D02*
D03*
X56181Y68858D02*
D03*
X64567Y39488D02*
D03*
X271063Y16260D02*
D03*
X76968Y66457D02*
D03*
X78858Y41772D02*
D03*
X176969Y45787D02*
D03*
X172323Y68032D02*
D03*
X158976Y57284D02*
D03*
X158425Y42638D02*
D03*
X154055Y22716D02*
D03*
X164370Y55748D02*
D03*
X34370Y63779D02*
D03*
X35748Y71260D02*
D03*
X69961Y25984D02*
D03*
X15827Y67835D02*
D03*
X77953Y19173D02*
D03*
X23268Y62913D02*
D03*
X75827Y24764D02*
D03*
X20276Y72795D02*
D03*
X35984Y39528D02*
D03*
X13465Y74488D02*
D03*
X26221Y67835D02*
D03*
X6535Y43189D02*
D03*
X36968Y44016D02*
D03*
X28937Y73465D02*
D03*
X31929Y42559D02*
D03*
X46535Y2362D02*
D03*
X25433Y7520D02*
D03*
X15905Y2520D02*
D03*
X7323Y49803D02*
D03*
X98661Y17677D02*
D03*
X107165Y10866D02*
D03*
X28740Y3268D02*
D03*
X91850Y19213D02*
D03*
X23543Y15512D02*
D03*
X42717Y13740D02*
D03*
X25591Y34252D02*
D03*
X19055Y38898D02*
D03*
X270315Y66063D02*
D03*
X256850Y36299D02*
D03*
X247677Y23583D02*
D03*
X251614Y53347D02*
D03*
X249921Y68701D02*
D03*
X129764Y24961D02*
D03*
X272402Y59331D02*
D03*
X236457Y68504D02*
D03*
X108504Y15551D02*
D03*
X141220Y17362D02*
D03*
X127284Y19370D02*
D03*
X260236Y61417D02*
D03*
X205157Y55787D02*
D03*
X246929Y7835D02*
D03*
X256653Y10866D02*
D03*
X256575Y21260D02*
D03*
X189055Y56890D02*
D03*
X188150Y49606D02*
D03*
X248976Y37638D02*
D03*
X190000Y46063D02*
D03*
X201614Y36693D02*
D03*
X219961Y10472D02*
D03*
X208740Y13465D02*
D03*
X197323Y50551D02*
D03*
X199843Y32205D02*
D03*
X158661Y22598D02*
D03*
X160079Y16457D02*
D03*
X214449Y12638D02*
D03*
X130866Y12087D02*
D03*
X92041Y50742D02*
D03*
X309801Y74293D02*
D03*
X125827Y31417D02*
D03*
X212126Y68898D02*
D03*
X48386Y26417D02*
D03*
X95236Y31850D02*
D03*
X85866Y55669D02*
D03*
X46850Y55905D02*
D03*
X269921Y46772D02*
D03*
X304724Y42913D02*
D03*
X299878Y62717D02*
D03*
X194315Y28960D02*
D03*
X265433Y13661D02*
D03*
X216213Y37031D02*
D03*
X185039Y31378D02*
D03*
X224016Y54685D02*
D03*
X202953Y18937D02*
D03*
X224724Y39252D02*
D03*
X206890Y20945D02*
D03*
X224843Y24055D02*
D03*
X216575Y23819D02*
D03*
X180410Y36638D02*
D03*
M02*
