%FSLAX25Y25*%
%MOIN*%
G70*
G01*
G75*
%ADD10R,0.05118X0.15748*%
%ADD11R,0.03937X0.03150*%
%ADD12R,0.03150X0.03937*%
%ADD13R,0.01969X0.07874*%
%ADD14O,0.01969X0.07874*%
%ADD15R,0.06299X0.05906*%
%ADD16R,0.01575X0.03937*%
%ADD17R,0.03150X0.02559*%
%ADD18R,0.03937X0.04724*%
%ADD19R,0.04724X0.03937*%
%ADD20R,0.07874X0.04134*%
%ADD21R,0.26772X0.25984*%
%ADD22O,0.08500X0.02362*%
%ADD23R,0.08500X0.02362*%
%ADD24R,0.03937X0.01575*%
%ADD25R,0.04724X0.05906*%
%ADD26C,0.04724*%
%ADD27R,0.05118X0.01260*%
%ADD28R,0.05906X0.01378*%
%ADD29P,0.06392X8X22.5*%
G04:AMPARAMS|DCode=30|XSize=39.37mil|YSize=59.06mil|CornerRadius=0mil|HoleSize=0mil|Usage=FLASHONLY|Rotation=180.000|XOffset=0mil|YOffset=0mil|HoleType=Round|Shape=Octagon|*
%AMOCTAGOND30*
4,1,8,0.00984,-0.02953,-0.00984,-0.02953,-0.01969,-0.01969,-0.01969,0.01969,-0.00984,0.02953,0.00984,0.02953,0.01969,0.01969,0.01969,-0.01969,0.00984,-0.02953,0.0*
%
%ADD30OCTAGOND30*%

%ADD31C,0.01181*%
%ADD32C,0.03937*%
%ADD33C,0.03150*%
%ADD34C,0.01969*%
%ADD35C,0.02362*%
%ADD36C,0.00600*%
%ADD37R,0.04764X0.28031*%
%ADD38R,0.04646X0.26732*%
%ADD39R,0.07356X0.27834*%
%ADD40R,0.05236X0.08032*%
%ADD41R,0.07244X0.06654*%
%ADD42C,0.07087*%
%ADD43R,0.05906X0.05906*%
%ADD44C,0.05906*%
%ADD45R,0.05906X0.05906*%
%ADD46O,0.05906X0.07874*%
%ADD47C,0.02559*%
%ADD48C,0.01969*%
%ADD49C,0.00787*%
%ADD50C,0.00984*%
%ADD51C,0.00472*%
%ADD52C,0.00500*%
%ADD53C,0.00709*%
%ADD54C,0.00591*%
%ADD55C,0.00394*%
%ADD56R,0.05918X0.16548*%
%ADD57R,0.04737X0.03950*%
%ADD58R,0.03950X0.04737*%
%ADD59R,0.02769X0.08674*%
%ADD60O,0.02769X0.08674*%
%ADD61R,0.07099X0.06706*%
%ADD62R,0.02375X0.04737*%
%ADD63R,0.03950X0.03359*%
%ADD64R,0.04737X0.05524*%
%ADD65R,0.05524X0.04737*%
%ADD66R,0.08674X0.04934*%
%ADD67R,0.27572X0.26784*%
%ADD68O,0.09300X0.03162*%
%ADD69R,0.09300X0.03162*%
%ADD70R,0.04737X0.02375*%
%ADD71R,0.05524X0.06706*%
%ADD72C,0.05524*%
%ADD73R,0.05918X0.02060*%
%ADD74R,0.06706X0.02178*%
%ADD75P,0.07258X8X22.5*%
G04:AMPARAMS|DCode=76|XSize=47.37mil|YSize=67.06mil|CornerRadius=0mil|HoleSize=0mil|Usage=FLASHONLY|Rotation=180.000|XOffset=0mil|YOffset=0mil|HoleType=Round|Shape=Octagon|*
%AMOCTAGOND76*
4,1,8,0.01184,-0.03353,-0.01184,-0.03353,-0.02369,-0.02169,-0.02369,0.02169,-0.01184,0.03353,0.01184,0.03353,0.02369,0.02169,0.02369,-0.02169,0.01184,-0.03353,0.0*
%
%ADD76OCTAGOND76*%

%ADD77C,0.07887*%
%ADD78R,0.06706X0.06706*%
%ADD79C,0.06706*%
%ADD80R,0.06706X0.06706*%
%ADD81O,0.06706X0.08674*%
%ADD82C,0.03359*%
%ADD83C,0.01000*%
%ADD84C,0.00667*%
D55*
X163760Y67040D02*
Y71040D01*
X167760D01*
Y67040D01*
X163760D01*
X188563D02*
Y71040D01*
X192563D01*
Y67040D01*
X188563D01*
X386160Y60340D02*
X384160Y64340D01*
X388160D01*
X386160Y60340D01*
Y20340D02*
X384160Y24340D01*
X388160D01*
X386160Y20340D01*
Y30340D02*
X384160Y34340D01*
X388160D01*
X386160Y30340D01*
Y40340D02*
X384160Y44340D01*
X388160D01*
X386160Y40340D01*
Y50340D02*
X384160Y54340D01*
X388160D01*
X386160Y50340D01*
X6371Y32237D02*
X7371Y33237D01*
X8371D01*
X7371Y34237D01*
X8371Y35237D01*
X7371D01*
X6371Y36237D01*
X5371Y35237D01*
X4371D01*
X5371Y34237D01*
X4371Y33237D01*
X5371D01*
X6371Y32237D01*
X6449Y5198D02*
X7449Y6198D01*
X8449D01*
X7449Y7198D01*
X8449Y8198D01*
X7449D01*
X6449Y9198D01*
X5449Y8198D01*
X4449D01*
X5449Y7198D01*
X4449Y6198D01*
X5449D01*
X6449Y5198D01*
X12488Y26583D02*
X13488Y28583D01*
X12488Y30583D01*
X14488Y29583D01*
X16488Y30583D01*
X15488Y28583D01*
X16488Y26583D01*
X14488Y27583D01*
X12488Y26583D01*
Y10795D02*
X13488Y12795D01*
X12488Y14795D01*
X14488Y13795D01*
X16488Y14795D01*
X15488Y12795D01*
X16488Y10795D01*
X14488Y11795D01*
X12488Y10795D01*
X40024Y18331D02*
Y17331D01*
X42024D01*
Y18331D01*
X43024D01*
Y20331D01*
X42024D01*
Y21331D01*
X40024D01*
Y20331D01*
X39024D01*
Y18331D01*
X40024D01*
X35570Y17735D02*
Y16735D01*
X37570D01*
Y17735D01*
X38570D01*
Y19735D01*
X37570D01*
Y20735D01*
X35570D01*
Y19735D01*
X34570D01*
Y17735D01*
X35570D01*
X84939Y3955D02*
Y2955D01*
X86939D01*
Y3955D01*
X87939D01*
Y5955D01*
X86939D01*
Y6955D01*
X84939D01*
Y5955D01*
X83939D01*
Y3955D01*
X84939D01*
X153035Y14885D02*
Y13885D01*
X155035D01*
Y14885D01*
X156035D01*
Y16885D01*
X155035D01*
Y17885D01*
X153035D01*
Y16885D01*
X152035D01*
Y14885D01*
X153035D01*
X144649Y15082D02*
Y14082D01*
X146649D01*
Y15082D01*
X147649D01*
Y17082D01*
X146649D01*
Y18082D01*
X144649D01*
Y17082D01*
X143649D01*
Y15082D01*
X144649D01*
X137129Y15121D02*
Y14121D01*
X139129D01*
Y15121D01*
X140129D01*
Y17121D01*
X139129D01*
Y18121D01*
X137129D01*
Y17121D01*
X136129D01*
Y15121D01*
X137129D01*
X334827Y19394D02*
Y18394D01*
X336827D01*
Y19394D01*
X337827D01*
Y21394D01*
X336827D01*
Y22394D01*
X334827D01*
Y21394D01*
X333827D01*
Y19394D01*
X334827D01*
X356638Y21244D02*
Y20244D01*
X358638D01*
Y21244D01*
X359638D01*
Y23244D01*
X358638D01*
Y24244D01*
X356638D01*
Y23244D01*
X355638D01*
Y21244D01*
X356638D01*
X374551Y30102D02*
Y29102D01*
X376551D01*
Y30102D01*
X377551D01*
Y32102D01*
X376551D01*
Y33102D01*
X374551D01*
Y32102D01*
X373551D01*
Y30102D01*
X374551D01*
X364906Y27858D02*
Y26858D01*
X366905D01*
Y27858D01*
X367905D01*
Y29858D01*
X366905D01*
Y30858D01*
X364906D01*
Y29858D01*
X363906D01*
Y27858D01*
X364906D01*
X314433Y44945D02*
Y43945D01*
X316433D01*
Y44945D01*
X317433D01*
Y46945D01*
X316433D01*
Y47945D01*
X314433D01*
Y46945D01*
X313433D01*
Y44945D01*
X314433D01*
X314827Y54197D02*
Y53197D01*
X316827D01*
Y54197D01*
X317827D01*
Y56197D01*
X316827D01*
Y57197D01*
X314827D01*
Y56197D01*
X313827D01*
Y54197D01*
X314827D01*
X377661Y48449D02*
Y47449D01*
X379661D01*
Y48449D01*
X380661D01*
Y50449D01*
X379661D01*
Y51449D01*
X377661D01*
Y50449D01*
X376661D01*
Y48449D01*
X377661D01*
X359118Y43291D02*
Y42291D01*
X361118D01*
Y43291D01*
X362118D01*
Y45291D01*
X361118D01*
Y46291D01*
X359118D01*
Y45291D01*
X358118D01*
Y43291D01*
X359118D01*
X349630Y46992D02*
Y45992D01*
X351630D01*
Y46992D01*
X352630D01*
Y48992D01*
X351630D01*
Y49992D01*
X349630D01*
Y48992D01*
X348630D01*
Y46992D01*
X349630D01*
X334630Y45968D02*
Y44969D01*
X336630D01*
Y45968D01*
X337630D01*
Y47969D01*
X336630D01*
Y48968D01*
X334630D01*
Y47969D01*
X333630D01*
Y45968D01*
X334630D01*
X322858Y25575D02*
Y24575D01*
X324858D01*
Y25575D01*
X325858D01*
Y27575D01*
X324858D01*
Y28575D01*
X322858D01*
Y27575D01*
X321858D01*
Y25575D01*
X322858D01*
X349866Y57898D02*
Y56898D01*
X351866D01*
Y57898D01*
X352866D01*
Y59898D01*
X351866D01*
Y60898D01*
X349866D01*
Y59898D01*
X348866D01*
Y57898D01*
X349866D01*
X353134Y73961D02*
Y72961D01*
X355134D01*
Y73961D01*
X356134D01*
Y75961D01*
X355134D01*
Y76961D01*
X353134D01*
Y75961D01*
X352134D01*
Y73961D01*
X353134D01*
X332976Y57701D02*
Y56701D01*
X334976D01*
Y57701D01*
X335976D01*
Y59701D01*
X334976D01*
Y60701D01*
X332976D01*
Y59701D01*
X331976D01*
Y57701D01*
X332976D01*
X371677Y21677D02*
Y20677D01*
X373677D01*
Y21677D01*
X374677D01*
Y23677D01*
X373677D01*
Y24677D01*
X371677D01*
Y23677D01*
X370677D01*
Y21677D01*
X371677D01*
X350260Y68213D02*
Y67213D01*
X352260D01*
Y68213D01*
X353260D01*
Y70213D01*
X352260D01*
Y71213D01*
X350260D01*
Y70213D01*
X349260D01*
Y68213D01*
X350260D01*
X330260Y65890D02*
Y64890D01*
X332260D01*
Y65890D01*
X333260D01*
Y67890D01*
X332260D01*
Y68890D01*
X330260D01*
Y67890D01*
X329260D01*
Y65890D01*
X330260D01*
X331953Y72543D02*
Y71543D01*
X333953D01*
Y72543D01*
X334953D01*
Y74543D01*
X333953D01*
Y75543D01*
X331953D01*
Y74543D01*
X330953D01*
Y72543D01*
X331953D01*
X315063Y66953D02*
Y65953D01*
X317063D01*
Y66953D01*
X318063D01*
Y68953D01*
X317063D01*
Y69953D01*
X315063D01*
Y68953D01*
X314063D01*
Y66953D01*
X315063D01*
X348213Y25969D02*
Y24969D01*
X350213D01*
Y25969D01*
X351213D01*
Y27968D01*
X350213D01*
Y28969D01*
X348213D01*
Y27968D01*
X347213D01*
Y25969D01*
X348213D01*
X371284Y63055D02*
Y62055D01*
X373284D01*
Y63055D01*
X374284D01*
Y65055D01*
X373284D01*
Y66055D01*
X371284D01*
Y65055D01*
X370284D01*
Y63055D01*
X371284D01*
X365496Y73370D02*
Y72370D01*
X367496D01*
Y73370D01*
X368496D01*
Y75370D01*
X367496D01*
Y76370D01*
X365496D01*
Y75370D01*
X364496D01*
Y73370D01*
X365496D01*
X361992Y63882D02*
Y62882D01*
X363992D01*
Y63882D01*
X364992D01*
Y65882D01*
X363992D01*
Y66882D01*
X361992D01*
Y65882D01*
X360992D01*
Y63882D01*
X361992D01*
X375614Y68410D02*
Y67409D01*
X377614D01*
Y68410D01*
X378614D01*
Y70410D01*
X377614D01*
Y71409D01*
X375614D01*
Y70410D01*
X374614D01*
Y68410D01*
X375614D01*
X333173Y29079D02*
Y28079D01*
X335173D01*
Y29079D01*
X336173D01*
Y31079D01*
X335173D01*
Y32079D01*
X333173D01*
Y31079D01*
X332173D01*
Y29079D01*
X333173D01*
X263646Y66874D02*
Y65874D01*
X265646D01*
Y66874D01*
X266646D01*
Y68874D01*
X265646D01*
Y69874D01*
X263646D01*
Y68874D01*
X262646D01*
Y66874D01*
X263646D01*
X292543Y6284D02*
Y5283D01*
X294543D01*
Y6284D01*
X295543D01*
Y8283D01*
X294543D01*
Y9284D01*
X292543D01*
Y8283D01*
X291543D01*
Y6284D01*
X292543D01*
X275890Y62740D02*
Y61740D01*
X277890D01*
Y62740D01*
X278890D01*
Y64740D01*
X277890D01*
Y65740D01*
X275890D01*
Y64740D01*
X274890D01*
Y62740D01*
X275890D01*
X342661Y40181D02*
Y39181D01*
X344661D01*
Y40181D01*
X345661D01*
Y42181D01*
X344661D01*
Y43181D01*
X342661D01*
Y42181D01*
X341661D01*
Y40181D01*
X342661D01*
X301441Y67189D02*
Y66189D01*
X303441D01*
Y67189D01*
X304441D01*
Y69189D01*
X303441D01*
Y70189D01*
X301441D01*
Y69189D01*
X300441D01*
Y67189D01*
X301441D01*
X270260Y9866D02*
Y8866D01*
X272260D01*
Y9866D01*
X273260D01*
Y11866D01*
X272260D01*
Y12866D01*
X270260D01*
Y11866D01*
X269260D01*
Y9866D01*
X270260D01*
X91559Y56520D02*
Y55520D01*
X93559D01*
Y56520D01*
X94559D01*
Y58520D01*
X93559D01*
Y59520D01*
X91559D01*
Y58520D01*
X90559D01*
Y56520D01*
X91559D01*
X91323Y38213D02*
Y37213D01*
X93323D01*
Y38213D01*
X94323D01*
Y40213D01*
X93323D01*
Y41213D01*
X91323D01*
Y40213D01*
X90323D01*
Y38213D01*
X91323D01*
X77504Y59591D02*
Y58591D01*
X79504D01*
Y59591D01*
X80504D01*
Y61590D01*
X79504D01*
Y62590D01*
X77504D01*
Y61590D01*
X76504D01*
Y59591D01*
X77504D01*
X81441Y67661D02*
Y66661D01*
X83441D01*
Y67661D01*
X84441D01*
Y69661D01*
X83441D01*
Y70661D01*
X81441D01*
Y69661D01*
X80441D01*
Y67661D01*
X81441D01*
X127228Y41953D02*
Y40953D01*
X129228D01*
Y41953D01*
X130228D01*
Y43953D01*
X129228D01*
Y44953D01*
X127228D01*
Y43953D01*
X126228D01*
Y41953D01*
X127228D01*
X77228Y36638D02*
Y35638D01*
X79228D01*
Y36638D01*
X80228D01*
Y38638D01*
X79228D01*
Y39638D01*
X77228D01*
Y38638D01*
X76228D01*
Y36638D01*
X77228D01*
X126598Y56913D02*
Y55913D01*
X128598D01*
Y56913D01*
X129598D01*
Y58913D01*
X128598D01*
Y59913D01*
X126598D01*
Y58913D01*
X125598D01*
Y56913D01*
X126598D01*
X50181Y62543D02*
Y61543D01*
X52181D01*
Y62543D01*
X53181D01*
Y64543D01*
X52181D01*
Y65543D01*
X50181D01*
Y64543D01*
X49181D01*
Y62543D01*
X50181D01*
X55732Y62740D02*
Y61740D01*
X57732D01*
Y62740D01*
X58732D01*
Y64740D01*
X57732D01*
Y65740D01*
X55732D01*
Y64740D01*
X54732D01*
Y62740D01*
X55732D01*
X300220Y5693D02*
Y4693D01*
X302221D01*
Y5693D01*
X303221D01*
Y7693D01*
X302221D01*
Y8693D01*
X300220D01*
Y7693D01*
X299220D01*
Y5693D01*
X300220D01*
X55181Y67858D02*
Y66858D01*
X57181D01*
Y67858D01*
X58181D01*
Y69858D01*
X57181D01*
Y70858D01*
X55181D01*
Y69858D01*
X54181D01*
Y67858D01*
X55181D01*
X63567Y38488D02*
Y37488D01*
X65567D01*
Y38488D01*
X66567D01*
Y40488D01*
X65567D01*
Y41488D01*
X63567D01*
Y40488D01*
X62567D01*
Y38488D01*
X63567D01*
X270063Y15260D02*
Y14260D01*
X272063D01*
Y15260D01*
X273063D01*
Y17260D01*
X272063D01*
Y18260D01*
X270063D01*
Y17260D01*
X269063D01*
Y15260D01*
X270063D01*
X75968Y65457D02*
Y64457D01*
X77969D01*
Y65457D01*
X78969D01*
Y67457D01*
X77969D01*
Y68457D01*
X75968D01*
Y67457D01*
X74968D01*
Y65457D01*
X75968D01*
X77858Y40772D02*
Y39772D01*
X79858D01*
Y40772D01*
X80858D01*
Y42772D01*
X79858D01*
Y43772D01*
X77858D01*
Y42772D01*
X76858D01*
Y40772D01*
X77858D01*
X175969Y44787D02*
Y43787D01*
X177969D01*
Y44787D01*
X178969D01*
Y46787D01*
X177969D01*
Y47787D01*
X175969D01*
Y46787D01*
X174969D01*
Y44787D01*
X175969D01*
X171323Y67032D02*
Y66031D01*
X173323D01*
Y67032D01*
X174323D01*
Y69032D01*
X173323D01*
Y70031D01*
X171323D01*
Y69032D01*
X170323D01*
Y67032D01*
X171323D01*
X157976Y56283D02*
Y55283D01*
X159976D01*
Y56283D01*
X160976D01*
Y58284D01*
X159976D01*
Y59284D01*
X157976D01*
Y58284D01*
X156976D01*
Y56283D01*
X157976D01*
X157425Y41638D02*
Y40638D01*
X159425D01*
Y41638D01*
X160425D01*
Y43638D01*
X159425D01*
Y44638D01*
X157425D01*
Y43638D01*
X156425D01*
Y41638D01*
X157425D01*
X153055Y21716D02*
Y20717D01*
X155055D01*
Y21716D01*
X156055D01*
Y23717D01*
X155055D01*
Y24716D01*
X153055D01*
Y23717D01*
X152055D01*
Y21716D01*
X153055D01*
X163370Y54748D02*
Y53748D01*
X165370D01*
Y54748D01*
X166370D01*
Y56748D01*
X165370D01*
Y57748D01*
X163370D01*
Y56748D01*
X162370D01*
Y54748D01*
X163370D01*
X33370Y62779D02*
Y61779D01*
X35370D01*
Y62779D01*
X36370D01*
Y64780D01*
X35370D01*
Y65780D01*
X33370D01*
Y64780D01*
X32370D01*
Y62779D01*
X33370D01*
X34748Y70260D02*
Y69260D01*
X36748D01*
Y70260D01*
X37748D01*
Y72260D01*
X36748D01*
Y73260D01*
X34748D01*
Y72260D01*
X33748D01*
Y70260D01*
X34748D01*
X68961Y24984D02*
Y23984D01*
X70961D01*
Y24984D01*
X71961D01*
Y26984D01*
X70961D01*
Y27984D01*
X68961D01*
Y26984D01*
X67961D01*
Y24984D01*
X68961D01*
X14827Y66835D02*
Y65835D01*
X16827D01*
Y66835D01*
X17827D01*
Y68835D01*
X16827D01*
Y69835D01*
X14827D01*
Y68835D01*
X13827D01*
Y66835D01*
X14827D01*
X76953Y18173D02*
Y17173D01*
X78953D01*
Y18173D01*
X79953D01*
Y20173D01*
X78953D01*
Y21173D01*
X76953D01*
Y20173D01*
X75953D01*
Y18173D01*
X76953D01*
X22268Y61913D02*
Y60913D01*
X24268D01*
Y61913D01*
X25268D01*
Y63913D01*
X24268D01*
Y64913D01*
X22268D01*
Y63913D01*
X21268D01*
Y61913D01*
X22268D01*
X74827Y23764D02*
Y22764D01*
X76827D01*
Y23764D01*
X77827D01*
Y25764D01*
X76827D01*
Y26764D01*
X74827D01*
Y25764D01*
X73827D01*
Y23764D01*
X74827D01*
X19276Y71795D02*
Y70795D01*
X21276D01*
Y71795D01*
X22276D01*
Y73795D01*
X21276D01*
Y74795D01*
X19276D01*
Y73795D01*
X18276D01*
Y71795D01*
X19276D01*
X34984Y38528D02*
Y37528D01*
X36984D01*
Y38528D01*
X37984D01*
Y40528D01*
X36984D01*
Y41528D01*
X34984D01*
Y40528D01*
X33984D01*
Y38528D01*
X34984D01*
X12465Y73488D02*
Y72488D01*
X14465D01*
Y73488D01*
X15465D01*
Y75488D01*
X14465D01*
Y76488D01*
X12465D01*
Y75488D01*
X11465D01*
Y73488D01*
X12465D01*
X25221Y66835D02*
Y65835D01*
X27220D01*
Y66835D01*
X28220D01*
Y68835D01*
X27220D01*
Y69835D01*
X25221D01*
Y68835D01*
X24220D01*
Y66835D01*
X25221D01*
X5535Y42189D02*
Y41189D01*
X7535D01*
Y42189D01*
X8535D01*
Y44189D01*
X7535D01*
Y45189D01*
X5535D01*
Y44189D01*
X4535D01*
Y42189D01*
X5535D01*
X35969Y43016D02*
Y42016D01*
X37969D01*
Y43016D01*
X38969D01*
Y45016D01*
X37969D01*
Y46016D01*
X35969D01*
Y45016D01*
X34969D01*
Y43016D01*
X35969D01*
X27937Y72465D02*
Y71465D01*
X29937D01*
Y72465D01*
X30937D01*
Y74465D01*
X29937D01*
Y75465D01*
X27937D01*
Y74465D01*
X26937D01*
Y72465D01*
X27937D01*
X30929Y41559D02*
Y40559D01*
X32929D01*
Y41559D01*
X33929D01*
Y43559D01*
X32929D01*
Y44559D01*
X30929D01*
Y43559D01*
X29929D01*
Y41559D01*
X30929D01*
X45535Y1362D02*
Y362D01*
X47535D01*
Y1362D01*
X48535D01*
Y3362D01*
X47535D01*
Y4362D01*
X45535D01*
Y3362D01*
X44535D01*
Y1362D01*
X45535D01*
X24433Y6520D02*
Y5520D01*
X26433D01*
Y6520D01*
X27433D01*
Y8520D01*
X26433D01*
Y9520D01*
X24433D01*
Y8520D01*
X23433D01*
Y6520D01*
X24433D01*
X14906Y1520D02*
Y520D01*
X16905D01*
Y1520D01*
X17906D01*
Y3520D01*
X16905D01*
Y4520D01*
X14906D01*
Y3520D01*
X13905D01*
Y1520D01*
X14906D01*
X6323Y48803D02*
Y47803D01*
X8323D01*
Y48803D01*
X9323D01*
Y50803D01*
X8323D01*
Y51803D01*
X6323D01*
Y50803D01*
X5323D01*
Y48803D01*
X6323D01*
X97661Y16677D02*
Y15677D01*
X99661D01*
Y16677D01*
X100661D01*
Y18677D01*
X99661D01*
Y19677D01*
X97661D01*
Y18677D01*
X96661D01*
Y16677D01*
X97661D01*
X106165Y9866D02*
Y8866D01*
X108165D01*
Y9866D01*
X109165D01*
Y11866D01*
X108165D01*
Y12866D01*
X106165D01*
Y11866D01*
X105165D01*
Y9866D01*
X106165D01*
X27740Y2268D02*
Y1268D01*
X29740D01*
Y2268D01*
X30740D01*
Y4268D01*
X29740D01*
Y5268D01*
X27740D01*
Y4268D01*
X26740D01*
Y2268D01*
X27740D01*
X90850Y18213D02*
Y17213D01*
X92850D01*
Y18213D01*
X93850D01*
Y20213D01*
X92850D01*
Y21213D01*
X90850D01*
Y20213D01*
X89850D01*
Y18213D01*
X90850D01*
X22543Y14512D02*
Y13512D01*
X24543D01*
Y14512D01*
X25543D01*
Y16512D01*
X24543D01*
Y17512D01*
X22543D01*
Y16512D01*
X21543D01*
Y14512D01*
X22543D01*
X41717Y12740D02*
Y11740D01*
X43716D01*
Y12740D01*
X44717D01*
Y14740D01*
X43716D01*
Y15740D01*
X41717D01*
Y14740D01*
X40716D01*
Y12740D01*
X41717D01*
X24590Y33252D02*
Y32252D01*
X26591D01*
Y33252D01*
X27591D01*
Y35252D01*
X26591D01*
Y36252D01*
X24590D01*
Y35252D01*
X23591D01*
Y33252D01*
X24590D01*
X18055Y37898D02*
Y36898D01*
X20055D01*
Y37898D01*
X21055D01*
Y39898D01*
X20055D01*
Y40898D01*
X18055D01*
Y39898D01*
X17055D01*
Y37898D01*
X18055D01*
X269315Y65063D02*
Y64063D01*
X271315D01*
Y65063D01*
X272315D01*
Y67063D01*
X271315D01*
Y68063D01*
X269315D01*
Y67063D01*
X268315D01*
Y65063D01*
X269315D01*
X255850Y35299D02*
Y34299D01*
X257850D01*
Y35299D01*
X258850D01*
Y37299D01*
X257850D01*
Y38299D01*
X255850D01*
Y37299D01*
X254850D01*
Y35299D01*
X255850D01*
X246677Y22583D02*
Y21583D01*
X248677D01*
Y22583D01*
X249677D01*
Y24583D01*
X248677D01*
Y25583D01*
X246677D01*
Y24583D01*
X245677D01*
Y22583D01*
X246677D01*
X250614Y52346D02*
Y51346D01*
X252614D01*
Y52346D01*
X253614D01*
Y54347D01*
X252614D01*
Y55347D01*
X250614D01*
Y54347D01*
X249614D01*
Y52346D01*
X250614D01*
X248921Y67701D02*
Y66701D01*
X250921D01*
Y67701D01*
X251921D01*
Y69701D01*
X250921D01*
Y70701D01*
X248921D01*
Y69701D01*
X247921D01*
Y67701D01*
X248921D01*
X128764Y23961D02*
Y22961D01*
X130764D01*
Y23961D01*
X131764D01*
Y25961D01*
X130764D01*
Y26961D01*
X128764D01*
Y25961D01*
X127764D01*
Y23961D01*
X128764D01*
X271402Y58331D02*
Y57331D01*
X273402D01*
Y58331D01*
X274402D01*
Y60331D01*
X273402D01*
Y61331D01*
X271402D01*
Y60331D01*
X270402D01*
Y58331D01*
X271402D01*
X235457Y67504D02*
Y66504D01*
X237457D01*
Y67504D01*
X238457D01*
Y69504D01*
X237457D01*
Y70504D01*
X235457D01*
Y69504D01*
X234457D01*
Y67504D01*
X235457D01*
X107504Y14551D02*
Y13551D01*
X109504D01*
Y14551D01*
X110504D01*
Y16551D01*
X109504D01*
Y17551D01*
X107504D01*
Y16551D01*
X106504D01*
Y14551D01*
X107504D01*
X140220Y16362D02*
Y15362D01*
X142220D01*
Y16362D01*
X143220D01*
Y18362D01*
X142220D01*
Y19362D01*
X140220D01*
Y18362D01*
X139220D01*
Y16362D01*
X140220D01*
X126284Y18370D02*
Y17370D01*
X128284D01*
Y18370D01*
X129283D01*
Y20370D01*
X128284D01*
Y21370D01*
X126284D01*
Y20370D01*
X125284D01*
Y18370D01*
X126284D01*
X259236Y60417D02*
Y59417D01*
X261236D01*
Y60417D01*
X262236D01*
Y62417D01*
X261236D01*
Y63417D01*
X259236D01*
Y62417D01*
X258236D01*
Y60417D01*
X259236D01*
X204157Y54787D02*
Y53787D01*
X206157D01*
Y54787D01*
X207157D01*
Y56787D01*
X206157D01*
Y57787D01*
X204157D01*
Y56787D01*
X203157D01*
Y54787D01*
X204157D01*
X245929Y6835D02*
Y5835D01*
X247929D01*
Y6835D01*
X248929D01*
Y8835D01*
X247929D01*
Y9835D01*
X245929D01*
Y8835D01*
X244929D01*
Y6835D01*
X245929D01*
X255654Y9866D02*
Y8866D01*
X257653D01*
Y9866D01*
X258653D01*
Y11866D01*
X257653D01*
Y12866D01*
X255654D01*
Y11866D01*
X254654D01*
Y9866D01*
X255654D01*
X255575Y20260D02*
Y19260D01*
X257575D01*
Y20260D01*
X258575D01*
Y22260D01*
X257575D01*
Y23260D01*
X255575D01*
Y22260D01*
X254575D01*
Y20260D01*
X255575D01*
X188055Y55890D02*
Y54890D01*
X190055D01*
Y55890D01*
X191055D01*
Y57890D01*
X190055D01*
Y58890D01*
X188055D01*
Y57890D01*
X187055D01*
Y55890D01*
X188055D01*
X187150Y48606D02*
Y47606D01*
X189150D01*
Y48606D01*
X190150D01*
Y50606D01*
X189150D01*
Y51606D01*
X187150D01*
Y50606D01*
X186150D01*
Y48606D01*
X187150D01*
X247976Y36638D02*
Y35638D01*
X249976D01*
Y36638D01*
X250976D01*
Y38638D01*
X249976D01*
Y39638D01*
X247976D01*
Y38638D01*
X246976D01*
Y36638D01*
X247976D01*
X189000Y45063D02*
Y44063D01*
X191000D01*
Y45063D01*
X192000D01*
Y47063D01*
X191000D01*
Y48063D01*
X189000D01*
Y47063D01*
X188000D01*
Y45063D01*
X189000D01*
X200614Y35693D02*
Y34693D01*
X202614D01*
Y35693D01*
X203614D01*
Y37693D01*
X202614D01*
Y38693D01*
X200614D01*
Y37693D01*
X199614D01*
Y35693D01*
X200614D01*
X218961Y9472D02*
Y8472D01*
X220961D01*
Y9472D01*
X221961D01*
Y11472D01*
X220961D01*
Y12472D01*
X218961D01*
Y11472D01*
X217961D01*
Y9472D01*
X218961D01*
X207740Y12465D02*
Y11465D01*
X209740D01*
Y12465D01*
X210740D01*
Y14465D01*
X209740D01*
Y15465D01*
X207740D01*
Y14465D01*
X206740D01*
Y12465D01*
X207740D01*
X196323Y49551D02*
Y48551D01*
X198323D01*
Y49551D01*
X199323D01*
Y51551D01*
X198323D01*
Y52551D01*
X196323D01*
Y51551D01*
X195323D01*
Y49551D01*
X196323D01*
X198843Y31205D02*
Y30205D01*
X200842D01*
Y31205D01*
X201842D01*
Y33205D01*
X200842D01*
Y34205D01*
X198843D01*
Y33205D01*
X197843D01*
Y31205D01*
X198843D01*
X157661Y21598D02*
Y20598D01*
X159661D01*
Y21598D01*
X160661D01*
Y23598D01*
X159661D01*
Y24598D01*
X157661D01*
Y23598D01*
X156661D01*
Y21598D01*
X157661D01*
X159079Y15457D02*
Y14457D01*
X161079D01*
Y15457D01*
X162079D01*
Y17457D01*
X161079D01*
Y18457D01*
X159079D01*
Y17457D01*
X158079D01*
Y15457D01*
X159079D01*
X213449Y11638D02*
Y10638D01*
X215449D01*
Y11638D01*
X216449D01*
Y13638D01*
X215449D01*
Y14638D01*
X213449D01*
Y13638D01*
X212449D01*
Y11638D01*
X213449D01*
X129866Y11087D02*
Y10087D01*
X131866D01*
Y11087D01*
X132866D01*
Y13087D01*
X131866D01*
Y14087D01*
X129866D01*
Y13087D01*
X128866D01*
Y11087D01*
X129866D01*
X91041Y49742D02*
Y48742D01*
X93041D01*
Y49742D01*
X94042D01*
Y51742D01*
X93041D01*
Y52742D01*
X91041D01*
Y51742D01*
X90042D01*
Y49742D01*
X91041D01*
X308801Y73293D02*
Y72293D01*
X310801D01*
Y73293D01*
X311801D01*
Y75293D01*
X310801D01*
Y76293D01*
X308801D01*
Y75293D01*
X307801D01*
Y73293D01*
X308801D01*
X124827Y30417D02*
Y29417D01*
X126827D01*
Y30417D01*
X127827D01*
Y32417D01*
X126827D01*
Y33417D01*
X124827D01*
Y32417D01*
X123827D01*
Y30417D01*
X124827D01*
X211126Y67898D02*
Y66898D01*
X213126D01*
Y67898D01*
X214126D01*
Y69898D01*
X213126D01*
Y70898D01*
X211126D01*
Y69898D01*
X210126D01*
Y67898D01*
X211126D01*
X47386Y25417D02*
Y24417D01*
X49386D01*
Y25417D01*
X50386D01*
Y27417D01*
X49386D01*
Y28417D01*
X47386D01*
Y27417D01*
X46386D01*
Y25417D01*
X47386D01*
X94236Y30850D02*
Y29850D01*
X96236D01*
Y30850D01*
X97236D01*
Y32850D01*
X96236D01*
Y33850D01*
X94236D01*
Y32850D01*
X93236D01*
Y30850D01*
X94236D01*
X84866Y54669D02*
Y53669D01*
X86866D01*
Y54669D01*
X87866D01*
Y56669D01*
X86866D01*
Y57669D01*
X84866D01*
Y56669D01*
X83866D01*
Y54669D01*
X84866D01*
X45850Y54905D02*
Y53905D01*
X47850D01*
Y54905D01*
X48850D01*
Y56906D01*
X47850D01*
Y57906D01*
X45850D01*
Y56906D01*
X44850D01*
Y54905D01*
X45850D01*
X268921Y45772D02*
Y44772D01*
X270921D01*
Y45772D01*
X271921D01*
Y47772D01*
X270921D01*
Y48772D01*
X268921D01*
Y47772D01*
X267921D01*
Y45772D01*
X268921D01*
X303724Y41913D02*
Y40913D01*
X305724D01*
Y41913D01*
X306724D01*
Y43913D01*
X305724D01*
Y44913D01*
X303724D01*
Y43913D01*
X302724D01*
Y41913D01*
X303724D01*
X298878Y61717D02*
Y60716D01*
X300878D01*
Y61717D01*
X301878D01*
Y63717D01*
X300878D01*
Y64717D01*
X298878D01*
Y63717D01*
X297878D01*
Y61717D01*
X298878D01*
X193315Y27961D02*
Y26961D01*
X195315D01*
Y27961D01*
X196315D01*
Y29961D01*
X195315D01*
Y30961D01*
X193315D01*
Y29961D01*
X192315D01*
Y27961D01*
X193315D01*
X264433Y12661D02*
Y11661D01*
X266433D01*
Y12661D01*
X267433D01*
Y14661D01*
X266433D01*
Y15661D01*
X264433D01*
Y14661D01*
X263433D01*
Y12661D01*
X264433D01*
X215213Y36031D02*
Y35031D01*
X217213D01*
Y36031D01*
X218213D01*
Y38031D01*
X217213D01*
Y39031D01*
X215213D01*
Y38031D01*
X214213D01*
Y36031D01*
X215213D01*
X184039Y30378D02*
Y29378D01*
X186039D01*
Y30378D01*
X187039D01*
Y32378D01*
X186039D01*
Y33378D01*
X184039D01*
Y32378D01*
X183039D01*
Y30378D01*
X184039D01*
X223016Y53685D02*
Y52685D01*
X225016D01*
Y53685D01*
X226016D01*
Y55685D01*
X225016D01*
Y56685D01*
X223016D01*
Y55685D01*
X222016D01*
Y53685D01*
X223016D01*
X201953Y17937D02*
Y16937D01*
X203953D01*
Y17937D01*
X204953D01*
Y19937D01*
X203953D01*
Y20937D01*
X201953D01*
Y19937D01*
X200953D01*
Y17937D01*
X201953D01*
X223724Y38252D02*
Y37252D01*
X225724D01*
Y38252D01*
X226724D01*
Y40252D01*
X225724D01*
Y41252D01*
X223724D01*
Y40252D01*
X222724D01*
Y38252D01*
X223724D01*
X205890Y19945D02*
Y18945D01*
X207890D01*
Y19945D01*
X208890D01*
Y21945D01*
X207890D01*
Y22945D01*
X205890D01*
Y21945D01*
X204890D01*
Y19945D01*
X205890D01*
X223843Y23055D02*
Y22055D01*
X225842D01*
Y23055D01*
X226842D01*
Y25055D01*
X225842D01*
Y26055D01*
X223843D01*
Y25055D01*
X222843D01*
Y23055D01*
X223843D01*
X215575Y22819D02*
Y21819D01*
X217575D01*
Y22819D01*
X218575D01*
Y24819D01*
X217575D01*
Y25819D01*
X215575D01*
Y24819D01*
X214575D01*
Y22819D01*
X215575D01*
X179410Y35638D02*
Y34638D01*
X181410D01*
Y35638D01*
X182410D01*
Y37638D01*
X181410D01*
Y38638D01*
X179410D01*
Y37638D01*
X178410D01*
Y35638D01*
X179410D01*
D84*
X8830Y58590D02*
G03*
X8830Y58590I-2000J0D01*
G01*
Y68590D02*
G03*
X8830Y68590I-2000J0D01*
G01*
M02*
