M48
;Layer_Color=9474304
;FILE_FORMAT=2:5
INCH,LZ
;TYPE=PLATED
T1F00S00C0.01181
T3F00S00C0.02559
T4F00S00C0.03543
T5F00S00C0.03937
T6F00S00C0.05118
%
T01
X0365905Y0028858
X0375551Y0031102
X0372677Y0022677
X0378661Y0049449
X0372284Y0064055
X0376614Y006941
X0366496Y007437
X0354134Y0074961
X035126Y0069213
X0350866Y0058898
X035063Y0047992
X0360118Y0044291
X0343661Y0041181
X033563Y0046968
X0333976Y0058701
X033126Y006689
X0332953Y0073543
X0316063Y0067953
X0309801Y0074293
X0302441Y0068189
X0299878Y0062717
X0315827Y0055197
X0315433Y0045945
X0304724Y0042913
X0323858Y0026575
X0334173Y0030079
X0335827Y0020394
X0349213Y0026969
X0357638Y0022244
X0362992Y0064882
X027689Y006374
X0270315Y0066063
X0264646Y0067874
X0260236Y0061417
X0272402Y0059331
X0269921Y0046772
X025685Y0036299
X0248976Y0037638
X0247677Y0023583
X0256575Y002126
X0256653Y0010866
X0265433Y0013661
X0271063Y001626
X027126Y0010866
X0293543Y0007283
X030122Y0006693
X0246929Y0007835
X0219961Y0010472
X0214449Y0012638
X020874Y0013465
X0216575Y0023819
X0224843Y0024055
X0224724Y0039252
X0216213Y0037031
X0224016Y0054685
X0212126Y0068898
X0236457Y0068504
X0249921Y0068701
X0251614Y0053347
X0205157Y0055787
X0197323Y0050551
X018815Y0049606
X019Y0046063
X0189055Y005689
X0176969Y0045787
X018041Y0036638
X0185039Y0031378
X0194315Y002896
X0199843Y0032205
X0201614Y0036693
X0202953Y0018937
X020689Y0020945
X0158661Y0022598
X0154055Y0022716
X0154035Y0015885
X0160079Y0016457
X0145649Y0016082
X014122Y0017362
X0138129Y0016121
X0130866Y0012087
X0127284Y001937
X0129764Y0024961
X0125827Y0031417
X0128228Y0042953
X0127598Y0057913
X0158976Y0057284
X016437Y0055748
X0158425Y0042638
X0172323Y0068032
X0092559Y005752
X0092041Y0050742
X0085866Y0055669
X0078504Y006059
X0076968Y0066457
X0082441Y0068661
X0056181Y0068858
X0056732Y006374
X0064567Y0039488
X0078228Y0037638
X0078858Y0041772
X0092323Y0039213
X0095236Y003185
X009185Y0019213
X0098661Y0017677
X0108504Y0015551
X0107165Y0010866
X0085939Y0004955
X0077953Y0019173
X0075827Y0024764
X0069961Y0025984
X0048386Y0026417
X0041024Y0019331
X003657Y0018735
X0042717Y001374
X0046535Y0002362
X002874Y0003268
X0025433Y000752
X0023543Y0015512
X0015905Y000252
X0019055Y0038898
X0025591Y0034252
X0031929Y0042559
X0036968Y0044016
X0035984Y0039528
X003437Y0063779
X0035748Y007126
X0028937Y0073465
X0026221Y0067835
X0023268Y0062913
X0015827Y0067835
X0013465Y0074488
X0020276Y0072795
X0007323Y0049803
X0006535Y0043189
X004685Y0055905
X0051181Y0063543
T03
X0014488Y0012795
Y0028583
T04
X038616Y002234
Y003234
Y004234
Y005234
Y006234
T05
X000683Y005859
Y006859
T06
X016576Y006904
X0190563
M30
