%FSLAX25Y25*%
%MOIN*%
G70*
G01*
G75*
G04 Layer_Color=65535*
%ADD10R,0.05118X0.15748*%
%ADD11R,0.03937X0.03150*%
%ADD12R,0.03150X0.03937*%
%ADD13R,0.01969X0.07874*%
%ADD14O,0.01969X0.07874*%
%ADD15R,0.06299X0.05906*%
%ADD16R,0.01575X0.03937*%
%ADD17R,0.03150X0.02559*%
%ADD18R,0.03937X0.04724*%
%ADD19R,0.04724X0.03937*%
%ADD20R,0.07874X0.04134*%
%ADD21R,0.26772X0.25984*%
%ADD22O,0.08500X0.02362*%
%ADD23R,0.08500X0.02362*%
%ADD24R,0.03937X0.01575*%
%ADD25R,0.04724X0.05906*%
%ADD26C,0.04724*%
%ADD27R,0.05118X0.01260*%
%ADD28R,0.05906X0.01378*%
%ADD29P,0.06392X8X22.5*%
G04:AMPARAMS|DCode=30|XSize=39.37mil|YSize=59.06mil|CornerRadius=0mil|HoleSize=0mil|Usage=FLASHONLY|Rotation=180.000|XOffset=0mil|YOffset=0mil|HoleType=Round|Shape=Octagon|*
%AMOCTAGOND30*
4,1,8,0.00984,-0.02953,-0.00984,-0.02953,-0.01969,-0.01969,-0.01969,0.01969,-0.00984,0.02953,0.00984,0.02953,0.01969,0.01969,0.01969,-0.01969,0.00984,-0.02953,0.0*
%
%ADD30OCTAGOND30*%

%ADD31C,0.01181*%
%ADD32C,0.03937*%
%ADD33C,0.03150*%
%ADD34C,0.01969*%
%ADD35C,0.02362*%
%ADD36C,0.00600*%
%ADD37R,0.04764X0.28031*%
%ADD38R,0.04646X0.26732*%
%ADD39R,0.07356X0.27834*%
%ADD40R,0.05236X0.08032*%
%ADD41R,0.07244X0.06654*%
%ADD42C,0.07087*%
%ADD43R,0.05906X0.05906*%
%ADD44C,0.05906*%
%ADD45R,0.05906X0.05906*%
%ADD46O,0.05906X0.07874*%
%ADD47C,0.02559*%
%ADD48C,0.01969*%
%ADD49C,0.00787*%
%ADD50C,0.00984*%
%ADD51C,0.00472*%
%ADD52C,0.00500*%
%ADD53C,0.00709*%
%ADD54C,0.00591*%
%ADD55C,0.00394*%
D49*
X51611Y44998D02*
G03*
X46669Y44998I-2471J-3706D01*
G01*
Y34762D02*
G03*
X51611Y34762I2471J3706D01*
G01*
X312144Y48003D02*
G03*
X312144Y45116I0J-1444D01*
G01*
X304293Y27970D02*
G03*
X304293Y23029I3706J-2471D01*
G01*
X314529D02*
G03*
X314529Y27970I-3706J2471D01*
G01*
X290356Y27976D02*
G03*
X290356Y23035I3706J-2471D01*
G01*
X300592D02*
G03*
X300592Y27976I-3706J2471D01*
G01*
X269828Y19519D02*
G03*
X269828Y24461I-3706J2471D01*
G01*
X259592D02*
G03*
X259592Y19519I3706J-2471D01*
G01*
X286844Y52266D02*
G03*
X286844Y52266I-394J0D01*
G01*
X199143Y64224D02*
G03*
X199304Y57987I5097J-2989D01*
G01*
X210728Y58084D02*
G03*
X210750Y64220I-5038J3087D01*
G01*
X162653Y54124D02*
G03*
X162814Y47887I5097J-2989D01*
G01*
X174238Y47984D02*
G03*
X174260Y54120I-5038J3087D01*
G01*
X151564Y3611D02*
G03*
X156505Y3611I2471J3706D01*
G01*
Y13847D02*
G03*
X151564Y13847I-2471J-3706D01*
G01*
X143178Y3611D02*
G03*
X148120Y3611I2471J3706D01*
G01*
Y13847D02*
G03*
X143178Y13847I-2471J-3706D01*
G01*
X140600D02*
G03*
X135658Y13847I-2471J-3706D01*
G01*
Y3611D02*
G03*
X140600Y3611I2471J3706D01*
G01*
X106944Y33497D02*
G03*
X100707Y33336I-2989J-5097D01*
G01*
X100804Y21913D02*
G03*
X106940Y21890I3087J5038D01*
G01*
X122075Y12883D02*
G03*
X122075Y17824I-3706J2471D01*
G01*
X111839D02*
G03*
X111839Y12883I3706J-2471D01*
G01*
X60041Y3907D02*
G03*
X57154Y3907I-1444J0D01*
G01*
X52815Y49743D02*
G03*
X52815Y49743I-394J0D01*
G01*
X73957Y48975D02*
G03*
X73957Y55865I-3445J3445D01*
G01*
X59783D02*
G03*
X59783Y48975I3445J-3445D01*
G01*
X162682Y45736D02*
G03*
X162660Y39600I5038J-3087D01*
G01*
X174267Y39596D02*
G03*
X174106Y45833I-5097J2989D01*
G01*
X28764Y45907D02*
G03*
X34900Y45884I3087J5038D01*
G01*
X34904Y57491D02*
G03*
X28667Y57330I-2989J-5097D01*
G01*
X39578Y15952D02*
G03*
X33441Y15974I-3087J-5038D01*
G01*
X33437Y4367D02*
G03*
X39674Y4528I2989J5097D01*
G01*
X33534Y21037D02*
G03*
X39670Y21014I3087J5038D01*
G01*
X39674Y32621D02*
G03*
X33437Y32460I-2989J-5097D01*
G01*
X147014Y18946D02*
G03*
X147014Y18946I-394J0D01*
G01*
X198327Y44256D02*
G03*
X204331Y44256I3002J3002D01*
G01*
X46669Y41061D02*
Y44998D01*
X51611Y41061D02*
Y44998D01*
X46669Y34762D02*
Y38699D01*
X51611Y34762D02*
Y38699D01*
X318896Y33550D02*
X329919D01*
Y39062D01*
X318896D02*
X329919D01*
X318896Y33550D02*
Y39062D01*
X319018Y47584D02*
X330041D01*
X319018Y42072D02*
Y47584D01*
Y42072D02*
X330041D01*
Y47584D01*
X319167Y51332D02*
X330191D01*
Y56844D01*
X319167D02*
X330191D01*
X319167Y51332D02*
Y56844D01*
X292459Y42229D02*
X312144D01*
X292459Y50890D02*
X312144D01*
X292459Y42229D02*
Y50890D01*
X312144Y42229D02*
Y45116D01*
Y48003D02*
Y50890D01*
X304293Y23029D02*
X308230D01*
X304293Y27970D02*
X308230D01*
X310592Y23029D02*
X314529D01*
X310592Y27970D02*
X314529D01*
X290356Y23035D02*
X294293D01*
X290356Y27976D02*
X294293D01*
X296655Y23035D02*
X300592D01*
X296655Y27976D02*
X300592D01*
X272848Y24836D02*
X283872D01*
X272848Y19324D02*
Y24836D01*
Y19324D02*
X283872D01*
Y24836D01*
X272848Y27334D02*
X283872D01*
Y32846D01*
X272848D02*
X283872D01*
X272848Y27334D02*
Y32846D01*
X265891Y24461D02*
X269828D01*
X265891Y19519D02*
X269828D01*
X259592Y24461D02*
X263529D01*
X259592Y19519D02*
X263529D01*
X258778Y27394D02*
X269802D01*
Y32906D01*
X258778D02*
X269802D01*
X258778Y27394D02*
Y32906D01*
X268252Y44396D02*
Y55419D01*
X262740D02*
X268252D01*
X262740Y44396D02*
Y55419D01*
Y44396D02*
X268252D01*
X225800Y6382D02*
X236824D01*
Y11893D01*
X225800D02*
X236824D01*
X225800Y6382D02*
Y11893D01*
Y14212D02*
X236824D01*
Y19724D01*
X225800D02*
X236824D01*
X225800Y14212D02*
Y19724D01*
Y21532D02*
X236824D01*
Y27044D01*
X225800D02*
X236824D01*
X225800Y21532D02*
Y27044D01*
Y29432D02*
X236824D01*
Y34944D01*
X225800D02*
X236824D01*
X225800Y29432D02*
Y34944D01*
Y36852D02*
X236824D01*
Y42364D01*
X225800D02*
X236824D01*
X225800Y36852D02*
Y42364D01*
Y44382D02*
X236824D01*
Y49894D01*
X225800D02*
X236824D01*
X225800Y44382D02*
Y49894D01*
Y51802D02*
X236824D01*
Y57314D01*
X225800D02*
X236824D01*
X225800Y51802D02*
Y57314D01*
Y59520D02*
X236824D01*
Y65032D01*
X225800D02*
X236824D01*
X225800Y59520D02*
Y65032D01*
X246187Y13998D02*
X247762Y15573D01*
X246187Y17148D02*
X247762Y15573D01*
X252880Y11636D02*
Y19117D01*
X253668Y11636D02*
Y19117D01*
X241069Y11636D02*
Y19117D01*
X246187Y13998D02*
Y17148D01*
X241069Y11636D02*
X253668D01*
X241069Y19117D02*
X253668D01*
X246187Y28926D02*
X247762Y30501D01*
X246187Y32076D02*
X247762Y30501D01*
X252880Y26564D02*
Y34044D01*
X253668Y26564D02*
Y34044D01*
X241069Y26564D02*
Y34044D01*
X246187Y28926D02*
Y32076D01*
X241069Y26564D02*
X253668D01*
X241069Y34044D02*
X253668D01*
X246187Y44008D02*
X247762Y45583D01*
X246187Y47158D02*
X247762Y45583D01*
X252880Y41646D02*
Y49126D01*
X253668Y41646D02*
Y49126D01*
X241069Y41646D02*
Y49126D01*
X246187Y44008D02*
Y47158D01*
X241069Y41646D02*
X253668D01*
X241069Y49126D02*
X253668D01*
X246187Y59248D02*
X247762Y60823D01*
X246187Y62398D02*
X247762Y60823D01*
X252880Y56886D02*
Y64367D01*
X253668Y56886D02*
Y64367D01*
X241069Y56886D02*
Y64367D01*
X246187Y59248D02*
Y62398D01*
X241069Y56886D02*
X253668D01*
X241069Y64367D02*
X253668D01*
X163850Y27692D02*
X174873D01*
X163850Y22180D02*
Y27692D01*
Y22180D02*
X174873D01*
Y27692D01*
X163850Y13940D02*
X174873D01*
Y19452D01*
X163850D02*
X174873D01*
X163850Y13940D02*
Y19452D01*
Y5930D02*
X174873D01*
Y11442D01*
X163850D02*
X174873D01*
X163850Y5930D02*
Y11442D01*
X156505Y3611D02*
Y7548D01*
X151564Y3611D02*
Y7548D01*
X156505Y9910D02*
Y13847D01*
X151564Y9910D02*
Y13847D01*
X148120Y3611D02*
Y7548D01*
X143178Y3611D02*
Y7548D01*
X148120Y9910D02*
Y13847D01*
X143178Y9910D02*
Y13847D01*
X135658Y9910D02*
Y13847D01*
X140600Y9910D02*
Y13847D01*
X135658Y3611D02*
Y7548D01*
X140600Y3611D02*
Y7548D01*
X111645Y28928D02*
X122669D01*
Y34439D01*
X111645D02*
X122669D01*
X111645Y28928D02*
Y34439D01*
X111641Y20702D02*
X122665D01*
Y26214D01*
X111641D02*
X122665D01*
X111641Y20702D02*
Y26214D01*
X118138Y17824D02*
X122075D01*
X118138Y12883D02*
X122075D01*
X111839Y17824D02*
X115776D01*
X111839Y12883D02*
X115776D01*
X94463Y67080D02*
X121628D01*
X94463Y39520D02*
X121235D01*
X94463D02*
Y67080D01*
X83916Y2592D02*
Y13616D01*
X78404D02*
X83916D01*
X78404Y2592D02*
Y13616D01*
Y2592D02*
X83916D01*
X60041Y3907D02*
X62928D01*
X54267D02*
X57154D01*
X54267Y23593D02*
X62928D01*
Y3907D02*
Y23593D01*
X54267Y3907D02*
Y23593D01*
X68579Y48975D02*
X73957D01*
X68579Y55865D02*
X73957D01*
X59783Y48975D02*
X65161D01*
X59783Y55865D02*
X65161D01*
X60518Y58914D02*
X71542D01*
Y64426D01*
X60518D02*
X71542D01*
X60518Y58914D02*
Y64426D01*
X60478Y71920D02*
X71502D01*
X60478Y66408D02*
Y71920D01*
Y66408D02*
X71502D01*
Y71920D01*
X190563Y62150D02*
Y65497D01*
Y72583D02*
Y75930D01*
X165760Y61953D02*
Y65300D01*
Y72780D02*
Y76127D01*
Y61953D02*
X190563D01*
X165760Y76127D02*
X190563D01*
X2893Y54929D02*
X10767D01*
Y72251D01*
X2893D02*
X10767D01*
X2893Y54929D02*
Y72251D01*
X381160Y17104D02*
X391160D01*
Y17222D02*
Y67576D01*
X381160D02*
X391160D01*
X381160Y17222D02*
Y67576D01*
X50542Y66408D02*
Y71920D01*
X39518Y66408D02*
X50542D01*
X39518D02*
Y71920D01*
X50542D01*
X163850Y31073D02*
Y36585D01*
X174873D01*
Y31073D02*
Y36585D01*
X163850Y31073D02*
X174873D01*
X193266Y16165D02*
Y44256D01*
X209014Y16165D02*
Y44256D01*
X193266Y16165D02*
X209014D01*
X193390Y44256D02*
X198327D01*
X204331D02*
X209014D01*
D50*
X313640Y56796D02*
G03*
X313640Y56796I-492J0D01*
G01*
X92199Y63300D02*
G03*
X92199Y63300I-492J0D01*
G01*
X69326Y2904D02*
G03*
X69326Y2904I-492J0D01*
G01*
D51*
X245422Y70688D02*
G03*
X245422Y70688I-2756J0D01*
G01*
X234707D02*
G03*
X234707Y70688I-2756J0D01*
G01*
X223992D02*
G03*
X223992Y70688I-2756J0D01*
G01*
X213277D02*
G03*
X213277Y70688I-2756J0D01*
G01*
X202562D02*
G03*
X202562Y70688I-2756J0D01*
G01*
D52*
X-2569Y31472D02*
G03*
X-2372Y31669I0J197D01*
G01*
X-2569Y32850D02*
G03*
X-2372Y33047I0J197D01*
G01*
X-3044Y35525D02*
G03*
X-2766Y35410I278J278D01*
G01*
X-3880Y34690D02*
G03*
X-2766Y34228I1114J1114D01*
G01*
X-2372Y9622D02*
G03*
X-2569Y9819I-197J0D01*
G01*
X-2372Y8244D02*
G03*
X-2569Y8441I-197J0D01*
G01*
X-2766Y5882D02*
G03*
X-3044Y5767I0J-394D01*
G01*
X-2766Y7063D02*
G03*
X-3880Y6602I0J-1575D01*
G01*
X13439Y9158D02*
G03*
X13833Y8764I394J0D01*
G01*
X15014D02*
G03*
X15407Y9158I0J394D01*
G01*
X6943Y10044D02*
G03*
X7336Y10437I0J394D01*
G01*
Y12012D02*
G03*
X6943Y12406I-394J0D01*
G01*
X-2309Y8174D02*
G03*
X-2506Y8371I-197J0D01*
G01*
X-2703Y5812D02*
G03*
X-2981Y5696I0J-394D01*
G01*
X3990Y11126D02*
G03*
X3596Y10733I0J-394D01*
G01*
X4777D02*
G03*
X4384Y11126I-394J0D01*
G01*
X1628Y9650D02*
G03*
X2021Y9256I394J0D01*
G01*
X3202D02*
G03*
X3596Y9650I0J394D01*
G01*
Y12800D02*
G03*
X3202Y13193I-394J0D01*
G01*
X2021D02*
G03*
X1628Y12800I0J-394D01*
G01*
X-2703Y6993D02*
G03*
X-3817Y6531I0J-1575D01*
G01*
X13833Y15063D02*
G03*
X13439Y14670I0J-394D01*
G01*
X14226Y17623D02*
G03*
X15014Y16835I787J0D01*
G01*
X-4687Y12178D02*
G03*
X-4672Y12168I5134J8398D01*
G01*
Y28982D02*
G03*
X-4687Y28973I5119J-8407D01*
G01*
X-2506Y32780D02*
G03*
X-2309Y32977I0J197D01*
G01*
X4384Y30024D02*
G03*
X4777Y30418I0J394D01*
G01*
X3596D02*
G03*
X3990Y30024I394J0D01*
G01*
X15407Y31993D02*
G03*
X15014Y32386I-394J0D01*
G01*
X13833D02*
G03*
X13439Y31993I0J-394D01*
G01*
Y26481D02*
G03*
X13833Y26087I394J0D01*
G01*
X1628Y28351D02*
G03*
X2021Y27957I394J0D01*
G01*
X3202D02*
G03*
X3596Y28351I0J394D01*
G01*
X6943Y28745D02*
G03*
X7336Y29138I0J394D01*
G01*
Y30713D02*
G03*
X6943Y31107I-394J0D01*
G01*
X3596Y31501D02*
G03*
X3202Y31894I-394J0D01*
G01*
X2021D02*
G03*
X1628Y31501I0J-394D01*
G01*
X-2981Y35454D02*
G03*
X-2703Y35339I278J278D01*
G01*
X15014Y24315D02*
G03*
X14226Y23528I0J-787D01*
G01*
X-3817Y34619D02*
G03*
X-2703Y34158I1114J1114D01*
G01*
X-4735Y35545D02*
X-3899Y36380D01*
X-4456Y35266D02*
X-3621Y36101D01*
X-4735Y5747D02*
X-3880Y6602D01*
X-3899Y4912D02*
X-3044Y5767D01*
X-2766Y35410D02*
X-404D01*
X-2372Y35224D02*
X-404D01*
X-2766Y34228D02*
X-2372D01*
Y33807D02*
X-404D01*
X-4456Y32850D02*
X-2569D01*
X-2372Y32417D02*
X-404D01*
X-4456Y31472D02*
X-2569D01*
X-4735Y31079D02*
X-3899D01*
X-4735Y10213D02*
X-3899D01*
X-4456Y9819D02*
X-2569D01*
X-2372Y8874D02*
X-404D01*
X-4456Y8441D02*
X-2569D01*
X-2372Y7485D02*
X-404D01*
X-2766Y7063D02*
X-2372D01*
Y6067D02*
X-404D01*
X-2766Y5882D02*
X-404D01*
X-3899Y36380D02*
X-3044Y35525D01*
X-4735Y35545D02*
X-3880Y34690D01*
X-4456Y6025D02*
X-3621Y5190D01*
X-4735Y5747D02*
X-3899Y4912D01*
X-2372Y32417D02*
Y33807D01*
Y5882D02*
Y6067D01*
Y7485D01*
Y8874D01*
Y11216D01*
Y30075D02*
Y32417D01*
Y33807D02*
Y35224D01*
Y35410D01*
X-2569Y34228D02*
Y35410D01*
Y5882D02*
Y7063D01*
X-2766Y8441D02*
Y11330D01*
Y29962D02*
Y32850D01*
X-3044Y29846D02*
Y31472D01*
Y9819D02*
Y11445D01*
X-3880Y31472D02*
Y32850D01*
Y8441D02*
Y9819D01*
X-3899Y29492D02*
Y31079D01*
Y10213D02*
Y11799D01*
X-4735Y29017D02*
Y32457D01*
Y8835D02*
Y12274D01*
X-4671Y5676D02*
X-3836Y4841D01*
X-4393Y5955D02*
X-3558Y5120D01*
X-4671Y35474D02*
X-3817Y34619D01*
X-3836Y36309D02*
X-2981Y35454D01*
X15407Y29771D02*
X15413Y29765D01*
X15346Y31678D02*
X15407Y31624D01*
X-2703Y5812D02*
X17376D01*
X-2703Y6993D02*
X-2309D01*
Y7386D02*
X17376D01*
X-4393Y8371D02*
X-2506D01*
X13833Y8764D02*
X15014D01*
X-4671D02*
X-3836D01*
X15216Y9179D02*
X15407D01*
X2021Y9256D02*
X3202D01*
X15407Y9355D02*
X17376D01*
X15346Y9472D02*
X15407D01*
X3596Y10044D02*
X6943D01*
X-341D02*
X1628D01*
X15407Y10468D02*
X17376D01*
X4777Y10634D02*
X7336D01*
X3990Y11126D02*
X4384D01*
X-341Y12406D02*
X1628D01*
X3596D02*
X6943D01*
X16195Y12417D02*
X17376D01*
X16195Y13095D02*
X17376D01*
X2021Y13193D02*
X3202D01*
X15216Y13489D02*
X15807D01*
X15807Y14276D02*
X16195D01*
X13833Y15063D02*
X17376D01*
X15014Y16835D02*
X17376D01*
X15807Y17032D02*
X16195D01*
Y17623D02*
X17376D01*
X15807Y18213D02*
X16195D01*
X15807Y19001D02*
X16195D01*
X15807Y20182D02*
X16195D01*
X15807Y20969D02*
X16195D01*
X15807Y22150D02*
X16195D01*
X15807Y22938D02*
X16195D01*
Y23528D02*
X17376D01*
X15807Y24119D02*
X16195D01*
X15014Y24315D02*
X17376D01*
X13833Y26087D02*
X17376D01*
X15807Y26875D02*
X16195D01*
X15216Y27662D02*
X15807D01*
X2021Y27957D02*
X3202D01*
X16195Y28056D02*
X17376D01*
X16195Y28734D02*
X17376D01*
X3596Y28745D02*
X6943D01*
X-341D02*
X1628D01*
X3990Y30024D02*
X4384D01*
X4777Y30516D02*
X7336D01*
X15407Y30682D02*
X17376D01*
X-341Y31107D02*
X1628D01*
X3596D02*
X6943D01*
X15346Y31678D02*
X15407D01*
Y31796D02*
X17376D01*
X2021Y31894D02*
X3202D01*
X15216Y31971D02*
X15407D01*
X-4671Y32386D02*
X-3836D01*
X13833D02*
X15014D01*
X-4393Y32780D02*
X-2506D01*
X-2309Y33764D02*
X17376D01*
X-2703Y34158D02*
X-2309D01*
X-2703Y35339D02*
X17376D01*
X15346Y9472D02*
X15407Y9527D01*
Y11379D02*
X15413Y11385D01*
X-3836Y4841D02*
X-2981Y5696D01*
X-4671Y5676D02*
X-3817Y6531D01*
X-4393Y35196D02*
X-3558Y36031D01*
X-4671Y35474D02*
X-3836Y36309D01*
X17381Y6993D02*
Y11126D01*
Y14276D02*
Y15063D01*
Y16245D02*
Y17032D01*
Y18213D02*
Y19001D01*
Y22150D02*
Y22938D01*
Y24119D02*
Y24906D01*
Y26087D02*
Y26875D01*
Y30024D02*
Y34158D01*
Y20182D02*
Y20969D01*
X17376Y5812D02*
Y35339D01*
X16195Y12417D02*
Y15063D01*
Y16835D02*
Y24315D01*
Y26087D02*
Y28734D01*
X15807Y13489D02*
Y15063D01*
X15807Y26087D02*
Y27662D01*
X15807Y16835D02*
Y24315D01*
X15801Y15063D02*
Y16835D01*
Y24315D02*
Y26087D01*
X15413Y27662D02*
Y29765D01*
Y11385D02*
Y13489D01*
X15407Y29771D02*
Y31993D01*
Y9158D02*
Y11379D01*
X15216Y9179D02*
Y13489D01*
Y27662D02*
Y31971D01*
X14226Y17623D02*
Y23528D01*
X13439Y9158D02*
Y14670D01*
Y26481D02*
Y31993D01*
X7336Y29138D02*
Y30713D01*
Y10437D02*
Y12012D01*
X4777Y30418D02*
Y31107D01*
Y10044D02*
Y10733D01*
X3596Y9650D02*
Y10733D01*
Y30418D02*
Y31501D01*
Y28351D02*
Y28745D01*
Y12406D02*
Y12800D01*
X1628Y9650D02*
Y10044D01*
Y12406D02*
Y12800D01*
Y28351D02*
Y28745D01*
Y31107D02*
Y31501D01*
X1431Y28745D02*
Y31107D01*
Y10044D02*
Y12406D01*
X579Y28745D02*
Y31107D01*
Y10044D02*
Y12406D01*
X310Y28745D02*
Y31107D01*
Y10044D02*
Y12406D01*
X-170Y28745D02*
Y31107D01*
Y10044D02*
Y12406D01*
X-341Y10044D02*
Y12406D01*
Y28745D02*
Y31107D01*
X-2309Y33764D02*
Y35339D01*
Y7386D02*
Y33764D01*
Y5812D02*
Y7386D01*
X-2506Y5812D02*
Y6993D01*
Y34158D02*
Y35339D01*
X-2703Y8371D02*
Y32780D01*
X-2981Y8371D02*
Y32780D01*
X-3836Y8764D02*
Y32386D01*
X-4671Y8764D02*
Y32386D01*
X6016Y35339D02*
Y37962D01*
X4835D02*
X6016D01*
X4835Y35599D02*
Y37962D01*
X6016D02*
X7197D01*
Y35339D02*
Y37962D01*
Y3316D02*
Y5812D01*
X6016Y3316D02*
X7197D01*
X4835D02*
Y5678D01*
Y3316D02*
X6016D01*
Y5812D01*
X8599Y27922D02*
X12536D01*
X10567Y26151D02*
Y29891D01*
D53*
X55032Y44918D02*
X75221D01*
Y27918D02*
Y44918D01*
X55032Y27918D02*
Y44918D01*
Y27918D02*
X75221D01*
X286265Y44616D02*
Y50915D01*
X274848D02*
X286265D01*
X274848Y44616D02*
X286265D01*
X274848D02*
Y50915D01*
X199200Y64256D02*
X203572D01*
X206328D02*
X210750D01*
X206378Y57984D02*
X210700D01*
X199300Y58006D02*
X203672D01*
X162710Y54156D02*
X167082D01*
X169838D02*
X174260D01*
X169888Y47884D02*
X174210D01*
X162810Y47906D02*
X167182D01*
X106976Y29068D02*
Y33440D01*
Y21890D02*
Y26312D01*
X100704Y21940D02*
Y26262D01*
X100726Y28968D02*
Y33340D01*
X132157Y35997D02*
X152346D01*
X132157D02*
Y52997D01*
X152346Y35997D02*
Y52997D01*
X132157D02*
X152346D01*
X44772Y49928D02*
X51071D01*
Y61345D01*
X44772Y49928D02*
Y61345D01*
X51071D01*
X169738Y45814D02*
X174110D01*
X162710Y45836D02*
X167032D01*
X162660Y39564D02*
X167082D01*
X169838D02*
X174210D01*
X28686Y52962D02*
Y57334D01*
X28664Y45934D02*
Y50256D01*
X34936Y45884D02*
Y50306D01*
Y53062D02*
Y57434D01*
X39655Y4524D02*
Y8896D01*
X39678Y11602D02*
Y15924D01*
X33405Y11552D02*
Y15974D01*
Y4424D02*
Y8796D01*
X33456Y28092D02*
Y32464D01*
X33434Y21064D02*
Y25386D01*
X39706Y21014D02*
Y25436D01*
Y28192D02*
Y32564D01*
X138970Y19131D02*
X145270D01*
Y30549D01*
X138970Y19131D02*
Y30549D01*
X145270D01*
D54*
X289282Y10196D02*
X315266D01*
X289282D02*
Y20157D01*
X315266D01*
Y10196D02*
Y20157D01*
X304794Y11180D02*
Y18818D01*
X299637Y11259D02*
X304400Y15078D01*
X299637Y11259D02*
Y19054D01*
X304400Y15078D01*
X304794Y15117D02*
X307825D01*
X296841Y15275D02*
X299518D01*
X128808Y67169D02*
X154792D01*
Y57209D02*
Y67169D01*
X128808Y57209D02*
X154792D01*
X128808D02*
Y67169D01*
X139280Y58547D02*
Y66185D01*
X139674Y62287D02*
X144438Y66106D01*
Y58311D02*
Y66106D01*
X139674Y62287D02*
X144438Y58311D01*
X136249Y62248D02*
X139280D01*
X144556Y62091D02*
X147233D01*
D55*
X56772Y48188D02*
Y45827D01*
X58346D01*
X59133D02*
X59920D01*
X59527D01*
Y48188D01*
X59133Y47795D01*
X45314Y43662D02*
X45708Y44056D01*
Y44843D01*
X45314Y45236D01*
X43740D01*
X43347Y44843D01*
Y44056D01*
X43740Y43662D01*
X43347Y41300D02*
Y42875D01*
X44921Y41300D01*
X45314D01*
X45708Y41694D01*
Y42481D01*
X45314Y42875D01*
X125157Y16141D02*
X124763Y16535D01*
X123976D01*
X123583Y16141D01*
Y14567D01*
X123976Y14173D01*
X124763D01*
X125157Y14567D01*
X125944Y14173D02*
X126731D01*
X126338D01*
Y16535D01*
X125944Y16141D01*
X177598Y52243D02*
X177204Y52637D01*
X176417D01*
X176024Y52243D01*
Y50669D01*
X176417Y50276D01*
X177204D01*
X177598Y50669D01*
X178385Y52243D02*
X178779Y52637D01*
X179566D01*
X179959Y52243D01*
Y51850D01*
X179566Y51456D01*
X179172D01*
X179566D01*
X179959Y51063D01*
Y50669D01*
X179566Y50276D01*
X178779D01*
X178385Y50669D01*
X177598Y43503D02*
X177204Y43897D01*
X176417D01*
X176024Y43503D01*
Y41929D01*
X176417Y41535D01*
X177204D01*
X177598Y41929D01*
X179566Y41535D02*
Y43897D01*
X178385Y42716D01*
X179959D01*
X104921Y18701D02*
X105314Y19095D01*
Y19882D01*
X104921Y20276D01*
X103346D01*
X102953Y19882D01*
Y19095D01*
X103346Y18701D01*
X105314Y16340D02*
Y17914D01*
X104133D01*
X104527Y17127D01*
Y16733D01*
X104133Y16340D01*
X103346D01*
X102953Y16733D01*
Y17521D01*
X103346Y17914D01*
X27401Y55630D02*
X27795Y56024D01*
Y56811D01*
X27401Y57205D01*
X25827D01*
X25433Y56811D01*
Y56024D01*
X25827Y55630D01*
X27795Y53269D02*
X27401Y54056D01*
X26614Y54843D01*
X25827D01*
X25433Y54450D01*
Y53663D01*
X25827Y53269D01*
X26220D01*
X26614Y53663D01*
Y54843D01*
X77677Y52710D02*
X77283Y53104D01*
X76496D01*
X76102Y52710D01*
Y51136D01*
X76496Y50742D01*
X77283D01*
X77677Y51136D01*
X78464Y53104D02*
X80038D01*
Y52710D01*
X78464Y51136D01*
Y50742D01*
X134369Y12166D02*
X134763Y12559D01*
Y13347D01*
X134369Y13740D01*
X132795D01*
X132402Y13347D01*
Y12559D01*
X132795Y12166D01*
X134369Y11379D02*
X134763Y10985D01*
Y10198D01*
X134369Y9804D01*
X133976D01*
X133582Y10198D01*
X133189Y9804D01*
X132795D01*
X132402Y10198D01*
Y10985D01*
X132795Y11379D01*
X133189D01*
X133582Y10985D01*
X133976Y11379D01*
X134369D01*
X133582Y10985D02*
Y10198D01*
X42558Y13977D02*
X42952Y14370D01*
Y15158D01*
X42558Y15551D01*
X40984D01*
X40591Y15158D01*
Y14370D01*
X40984Y13977D01*
Y13190D02*
X40591Y12796D01*
Y12009D01*
X40984Y11615D01*
X42558D01*
X42952Y12009D01*
Y12796D01*
X42558Y13190D01*
X42165D01*
X41771Y12796D01*
Y11615D01*
X42676Y30945D02*
X43070Y31339D01*
Y32126D01*
X42676Y32520D01*
X41102D01*
X40709Y32126D01*
Y31339D01*
X41102Y30945D01*
X40709Y30158D02*
Y29371D01*
Y29765D01*
X43070D01*
X42676Y30158D01*
Y28190D02*
X43070Y27797D01*
Y27010D01*
X42676Y26616D01*
X41102D01*
X40709Y27010D01*
Y27797D01*
X41102Y28190D01*
X42676D01*
X305866Y31023D02*
X305472Y31417D01*
X304685D01*
X304291Y31023D01*
Y29449D01*
X304685Y29055D01*
X305472D01*
X305866Y29449D01*
X306653Y29055D02*
X307440D01*
X307046D01*
Y31417D01*
X306653Y31023D01*
X308621Y29055D02*
X309408D01*
X309014D01*
Y31417D01*
X308621Y31023D01*
X291929Y31102D02*
X291535Y31495D01*
X290748D01*
X290354Y31102D01*
Y29527D01*
X290748Y29134D01*
X291535D01*
X291929Y29527D01*
X292716Y29134D02*
X293503D01*
X293109D01*
Y31495D01*
X292716Y31102D01*
X296258Y29134D02*
X294684D01*
X296258Y30708D01*
Y31102D01*
X295864Y31495D01*
X295077D01*
X294684Y31102D01*
X260787Y18149D02*
X260393Y18542D01*
X259606D01*
X259213Y18149D01*
Y16575D01*
X259606Y16181D01*
X260393D01*
X260787Y16575D01*
X261574Y16181D02*
X262361D01*
X261968D01*
Y18542D01*
X261574Y18149D01*
X263542D02*
X263935Y18542D01*
X264723D01*
X265116Y18149D01*
Y17755D01*
X264723Y17362D01*
X264329D01*
X264723D01*
X265116Y16968D01*
Y16575D01*
X264723Y16181D01*
X263935D01*
X263542Y16575D01*
X159527Y12520D02*
X159921Y12914D01*
Y13701D01*
X159527Y14095D01*
X157953D01*
X157559Y13701D01*
Y12914D01*
X157953Y12520D01*
X157559Y11733D02*
Y10946D01*
Y11339D01*
X159921D01*
X159527Y11733D01*
X157559Y8585D02*
X159921D01*
X158740Y9765D01*
Y8191D01*
X144094Y17480D02*
X143700Y17873D01*
X142913D01*
X142520Y17480D01*
Y15905D01*
X142913Y15512D01*
X143700D01*
X144094Y15905D01*
X144881Y15512D02*
X145668D01*
X145275D01*
Y17873D01*
X144881Y17480D01*
X148423Y17873D02*
X146849D01*
Y16692D01*
X147636Y17086D01*
X148030D01*
X148423Y16692D01*
Y15905D01*
X148030Y15512D01*
X147243D01*
X146849Y15905D01*
X201047Y66980D02*
X200654Y67374D01*
X199866D01*
X199473Y66980D01*
Y65406D01*
X199866Y65013D01*
X200654D01*
X201047Y65406D01*
X201834Y65013D02*
X202621D01*
X202228D01*
Y67374D01*
X201834Y66980D01*
X205376Y67374D02*
X204589Y66980D01*
X203802Y66193D01*
Y65406D01*
X204196Y65013D01*
X204983D01*
X205376Y65406D01*
Y65800D01*
X204983Y66193D01*
X203802D01*
X209212Y76535D02*
X208819Y76928D01*
X208031D01*
X207638Y76535D01*
Y74961D01*
X208031Y74567D01*
X208819D01*
X209212Y74961D01*
X209999Y76928D02*
Y74567D01*
X211574D01*
X212361Y76928D02*
Y74567D01*
Y75354D01*
X213935Y76928D01*
X212754Y75748D01*
X213935Y74567D01*
X128858Y69999D02*
Y67638D01*
X130039D01*
X130433Y68031D01*
Y69606D01*
X130039Y69999D01*
X128858D01*
X131220Y67638D02*
X132007D01*
X131613D01*
Y69999D01*
X131220Y69606D01*
X241063Y67952D02*
Y65591D01*
X242244D01*
X242637Y65984D01*
Y67558D01*
X242244Y67952D01*
X241063D01*
X244999Y65591D02*
X243424D01*
X244999Y67165D01*
Y67558D01*
X244605Y67952D01*
X243818D01*
X243424Y67558D01*
X241142Y52440D02*
Y50079D01*
X242322D01*
X242716Y50472D01*
Y52047D01*
X242322Y52440D01*
X241142D01*
X243503Y52047D02*
X243897Y52440D01*
X244684D01*
X245077Y52047D01*
Y51653D01*
X244684Y51259D01*
X244290D01*
X244684D01*
X245077Y50866D01*
Y50472D01*
X244684Y50079D01*
X243897D01*
X243503Y50472D01*
X241063Y37361D02*
Y35000D01*
X242244D01*
X242637Y35394D01*
Y36968D01*
X242244Y37361D01*
X241063D01*
X244605Y35000D02*
Y37361D01*
X243424Y36181D01*
X244999D01*
X284291Y16102D02*
Y13740D01*
X285472D01*
X285866Y14134D01*
Y15708D01*
X285472Y16102D01*
X284291D01*
X288227D02*
X286653D01*
Y14921D01*
X287440Y15314D01*
X287833D01*
X288227Y14921D01*
Y14134D01*
X287833Y13740D01*
X287046D01*
X286653Y14134D01*
X241142Y22519D02*
Y20157D01*
X242322D01*
X242716Y20551D01*
Y22125D01*
X242322Y22519D01*
X241142D01*
X245077D02*
X244290Y22125D01*
X243503Y21338D01*
Y20551D01*
X243897Y20157D01*
X244684D01*
X245077Y20551D01*
Y20945D01*
X244684Y21338D01*
X243503D01*
X218032Y77007D02*
Y74646D01*
X219212D01*
X219606Y75039D01*
Y76613D01*
X219212Y77007D01*
X218032D01*
X220393Y74646D02*
Y76220D01*
X221180Y77007D01*
X221967Y76220D01*
Y74646D01*
Y75826D01*
X220393D01*
X222754Y77007D02*
X224329D01*
X223541D01*
Y74646D01*
X241102Y76771D02*
X240708Y77165D01*
X239921D01*
X239528Y76771D01*
Y75197D01*
X239921Y74803D01*
X240708D01*
X241102Y75197D01*
Y75984D01*
X240315D01*
X241889Y74803D02*
Y77165D01*
X243463Y74803D01*
Y77165D01*
X244250D02*
Y74803D01*
X245431D01*
X245825Y75197D01*
Y76771D01*
X245431Y77165D01*
X244250D01*
X4479Y77378D02*
X3692D01*
X4085D01*
Y75410D01*
X3692Y75017D01*
X3298D01*
X2904Y75410D01*
X5266Y75017D02*
X6053D01*
X5659D01*
Y77378D01*
X5266Y76985D01*
X382702Y72754D02*
X381914D01*
X382308D01*
Y70786D01*
X381914Y70393D01*
X381521D01*
X381127Y70786D01*
X385063Y70393D02*
X383489D01*
X385063Y71967D01*
Y72361D01*
X384669Y72754D01*
X383882D01*
X383489Y72361D01*
X123583Y30512D02*
Y32873D01*
X124763D01*
X125157Y32480D01*
Y31692D01*
X124763Y31299D01*
X123583D01*
X124370D02*
X125157Y30512D01*
X125944D02*
X126731D01*
X126338D01*
Y32873D01*
X125944Y32480D01*
X123504Y22244D02*
Y24606D01*
X124685D01*
X125078Y24212D01*
Y23425D01*
X124685Y23031D01*
X123504D01*
X124291D02*
X125078Y22244D01*
X127440D02*
X125865D01*
X127440Y23818D01*
Y24212D01*
X127046Y24606D01*
X126259D01*
X125865Y24212D01*
X72638Y60787D02*
Y63149D01*
X73818D01*
X74212Y62755D01*
Y61968D01*
X73818Y61575D01*
X72638D01*
X73425D02*
X74212Y60787D01*
X74999Y62755D02*
X75393Y63149D01*
X76180D01*
X76573Y62755D01*
Y62362D01*
X76180Y61968D01*
X75786D01*
X76180D01*
X76573Y61575D01*
Y61181D01*
X76180Y60787D01*
X75393D01*
X74999Y61181D01*
X39724Y72598D02*
Y74960D01*
X40905D01*
X41299Y74566D01*
Y73779D01*
X40905Y73386D01*
X39724D01*
X40512D02*
X41299Y72598D01*
X43267D02*
Y74960D01*
X42086Y73779D01*
X43660D01*
X176024Y32559D02*
Y34920D01*
X177204D01*
X177598Y34527D01*
Y33740D01*
X177204Y33346D01*
X176024D01*
X176811D02*
X177598Y32559D01*
X179959Y34920D02*
X178385D01*
Y33740D01*
X179172Y34133D01*
X179566D01*
X179959Y33740D01*
Y32953D01*
X179566Y32559D01*
X178779D01*
X178385Y32953D01*
X60675Y72561D02*
Y74923D01*
X61856D01*
X62249Y74529D01*
Y73742D01*
X61856Y73348D01*
X60675D01*
X61462D02*
X62249Y72561D01*
X64611Y74923D02*
X63824Y74529D01*
X63037Y73742D01*
Y72955D01*
X63430Y72561D01*
X64217D01*
X64611Y72955D01*
Y73348D01*
X64217Y73742D01*
X63037D01*
X79213Y14764D02*
Y17125D01*
X80393D01*
X80787Y16732D01*
Y15945D01*
X80393Y15551D01*
X79213D01*
X80000D02*
X80787Y14764D01*
X81574Y17125D02*
X83148D01*
Y16732D01*
X81574Y15157D01*
Y14764D01*
X175827Y23661D02*
Y26023D01*
X177007D01*
X177401Y25629D01*
Y24842D01*
X177007Y24449D01*
X175827D01*
X176614D02*
X177401Y23661D01*
X178188Y25629D02*
X178582Y26023D01*
X179369D01*
X179762Y25629D01*
Y25236D01*
X179369Y24842D01*
X179762Y24449D01*
Y24055D01*
X179369Y23661D01*
X178582D01*
X178188Y24055D01*
Y24449D01*
X178582Y24842D01*
X178188Y25236D01*
Y25629D01*
X178582Y24842D02*
X179369D01*
X220566Y61281D02*
Y63642D01*
X221747D01*
X222141Y63248D01*
Y62461D01*
X221747Y62068D01*
X220566D01*
X221354D02*
X222141Y61281D01*
X222928Y61674D02*
X223321Y61281D01*
X224109D01*
X224502Y61674D01*
Y63248D01*
X224109Y63642D01*
X223321D01*
X222928Y63248D01*
Y62855D01*
X223321Y62461D01*
X224502D01*
X218898Y53268D02*
Y55629D01*
X220078D01*
X220472Y55236D01*
Y54448D01*
X220078Y54055D01*
X218898D01*
X219685D02*
X220472Y53268D01*
X221259D02*
X222046D01*
X221653D01*
Y55629D01*
X221259Y55236D01*
X223227D02*
X223621Y55629D01*
X224408D01*
X224801Y55236D01*
Y53661D01*
X224408Y53268D01*
X223621D01*
X223227Y53661D01*
Y55236D01*
X219567Y45827D02*
Y48188D01*
X220748D01*
X221141Y47795D01*
Y47008D01*
X220748Y46614D01*
X219567D01*
X220354D02*
X221141Y45827D01*
X221928D02*
X222715D01*
X222322D01*
Y48188D01*
X221928Y47795D01*
X223896Y45827D02*
X224683D01*
X224290D01*
Y48188D01*
X223896Y47795D01*
X273228Y33583D02*
Y35944D01*
X274409D01*
X274803Y35550D01*
Y34763D01*
X274409Y34370D01*
X273228D01*
X274015D02*
X274803Y33583D01*
X275590D02*
X276377D01*
X275983D01*
Y35944D01*
X275590Y35550D01*
X279132Y33583D02*
X277558D01*
X279132Y35157D01*
Y35550D01*
X278738Y35944D01*
X277951D01*
X277558Y35550D01*
X273031Y15984D02*
Y18346D01*
X274212D01*
X274606Y17952D01*
Y17165D01*
X274212Y16771D01*
X273031D01*
X273819D02*
X274606Y15984D01*
X275393D02*
X276180D01*
X275786D01*
Y18346D01*
X275393Y17952D01*
X277361D02*
X277754Y18346D01*
X278541D01*
X278935Y17952D01*
Y17559D01*
X278541Y17165D01*
X278148D01*
X278541D01*
X278935Y16771D01*
Y16378D01*
X278541Y15984D01*
X277754D01*
X277361Y16378D01*
X218701Y37953D02*
Y40314D01*
X219882D01*
X220275Y39921D01*
Y39134D01*
X219882Y38740D01*
X218701D01*
X219488D02*
X220275Y37953D01*
X221062D02*
X221849D01*
X221456D01*
Y40314D01*
X221062Y39921D01*
X224211Y37953D02*
Y40314D01*
X223030Y39134D01*
X224604D01*
X331339Y35315D02*
Y37676D01*
X332519D01*
X332913Y37283D01*
Y36496D01*
X332519Y36102D01*
X331339D01*
X332126D02*
X332913Y35315D01*
X333700D02*
X334487D01*
X334094D01*
Y37676D01*
X333700Y37283D01*
X337242Y37676D02*
X335668D01*
Y36496D01*
X336455Y36889D01*
X336849D01*
X337242Y36496D01*
Y35708D01*
X336849Y35315D01*
X336062D01*
X335668Y35708D01*
X262559Y56417D02*
Y58779D01*
X263740D01*
X264133Y58385D01*
Y57598D01*
X263740Y57205D01*
X262559D01*
X263346D02*
X264133Y56417D01*
X264920D02*
X265708D01*
X265314D01*
Y58779D01*
X264920Y58385D01*
X268463Y58779D02*
X267675Y58385D01*
X266888Y57598D01*
Y56811D01*
X267282Y56417D01*
X268069D01*
X268463Y56811D01*
Y57205D01*
X268069Y57598D01*
X266888D01*
X219016Y30394D02*
Y32755D01*
X220197D01*
X220590Y32362D01*
Y31574D01*
X220197Y31181D01*
X219016D01*
X219803D02*
X220590Y30394D01*
X221377D02*
X222164D01*
X221771D01*
Y32755D01*
X221377Y32362D01*
X223345Y32755D02*
X224919D01*
Y32362D01*
X223345Y30787D01*
Y30394D01*
X258661Y33701D02*
Y36062D01*
X259842D01*
X260236Y35669D01*
Y34881D01*
X259842Y34488D01*
X258661D01*
X259449D02*
X260236Y33701D01*
X261023D02*
X261810D01*
X261416D01*
Y36062D01*
X261023Y35669D01*
X262991D02*
X263384Y36062D01*
X264171D01*
X264565Y35669D01*
Y35275D01*
X264171Y34881D01*
X264565Y34488D01*
Y34094D01*
X264171Y33701D01*
X263384D01*
X262991Y34094D01*
Y34488D01*
X263384Y34881D01*
X262991Y35275D01*
Y35669D01*
X263384Y34881D02*
X264171D01*
X175827Y7283D02*
Y9645D01*
X177007D01*
X177401Y9251D01*
Y8464D01*
X177007Y8071D01*
X175827D01*
X176614D02*
X177401Y7283D01*
X178188D02*
X178975D01*
X178582D01*
Y9645D01*
X178188Y9251D01*
X180156Y7677D02*
X180550Y7283D01*
X181337D01*
X181730Y7677D01*
Y9251D01*
X181337Y9645D01*
X180550D01*
X180156Y9251D01*
Y8858D01*
X180550Y8464D01*
X181730D01*
X175933Y15845D02*
Y18206D01*
X177114D01*
X177508Y17812D01*
Y17025D01*
X177114Y16632D01*
X175933D01*
X176721D02*
X177508Y15845D01*
X179869D02*
X178295D01*
X179869Y17419D01*
Y17812D01*
X179476Y18206D01*
X178688D01*
X178295Y17812D01*
X180656D02*
X181050Y18206D01*
X181837D01*
X182231Y17812D01*
Y16238D01*
X181837Y15845D01*
X181050D01*
X180656Y16238D01*
Y17812D01*
X219111Y22683D02*
Y25045D01*
X220291D01*
X220685Y24651D01*
Y23864D01*
X220291Y23471D01*
X219111D01*
X219898D02*
X220685Y22683D01*
X223046D02*
X221472D01*
X223046Y24258D01*
Y24651D01*
X222653Y25045D01*
X221866D01*
X221472Y24651D01*
X223834Y22683D02*
X224621D01*
X224227D01*
Y25045D01*
X223834Y24651D01*
X218622Y15512D02*
Y17873D01*
X219803D01*
X220196Y17480D01*
Y16692D01*
X219803Y16299D01*
X218622D01*
X219409D02*
X220196Y15512D01*
X222558D02*
X220984D01*
X222558Y17086D01*
Y17480D01*
X222164Y17873D01*
X221377D01*
X220984Y17480D01*
X224919Y15512D02*
X223345D01*
X224919Y17086D01*
Y17480D01*
X224526Y17873D01*
X223739D01*
X223345Y17480D01*
X331457Y52716D02*
Y55078D01*
X332637D01*
X333031Y54684D01*
Y53897D01*
X332637Y53504D01*
X331457D01*
X332244D02*
X333031Y52716D01*
X335392D02*
X333818D01*
X335392Y54291D01*
Y54684D01*
X334999Y55078D01*
X334212D01*
X333818Y54684D01*
X336180D02*
X336573Y55078D01*
X337360D01*
X337754Y54684D01*
Y54291D01*
X337360Y53897D01*
X336967D01*
X337360D01*
X337754Y53504D01*
Y53110D01*
X337360Y52716D01*
X336573D01*
X336180Y53110D01*
X331339Y43740D02*
Y46102D01*
X332519D01*
X332913Y45708D01*
Y44921D01*
X332519Y44527D01*
X331339D01*
X332126D02*
X332913Y43740D01*
X335274D02*
X333700D01*
X335274Y45314D01*
Y45708D01*
X334881Y46102D01*
X334094D01*
X333700Y45708D01*
X337242Y43740D02*
Y46102D01*
X336062Y44921D01*
X337636D01*
X218701Y8032D02*
Y10393D01*
X219882D01*
X220275Y9999D01*
Y9212D01*
X219882Y8819D01*
X218701D01*
X219488D02*
X220275Y8032D01*
X222637D02*
X221062D01*
X222637Y9606D01*
Y9999D01*
X222243Y10393D01*
X221456D01*
X221062Y9999D01*
X224998Y10393D02*
X223424D01*
Y9212D01*
X224211Y9606D01*
X224604D01*
X224998Y9212D01*
Y8425D01*
X224604Y8032D01*
X223817D01*
X223424Y8425D01*
X197047Y74488D02*
Y76850D01*
X198228D01*
X198621Y76456D01*
Y75669D01*
X198228Y75275D01*
X197047D01*
X197834D02*
X198621Y74488D01*
X200983Y76456D02*
X200589Y76850D01*
X199802D01*
X199409Y76456D01*
Y76063D01*
X199802Y75669D01*
X200589D01*
X200983Y75275D01*
Y74882D01*
X200589Y74488D01*
X199802D01*
X199409Y74882D01*
X201770Y76850D02*
X203344D01*
X202557D01*
Y74488D01*
X160374Y75460D02*
X159980Y75854D01*
X159193D01*
X158800Y75460D01*
Y75067D01*
X159193Y74673D01*
X159980D01*
X160374Y74280D01*
Y73886D01*
X159980Y73493D01*
X159193D01*
X158800Y73886D01*
X161161Y75854D02*
Y73493D01*
X161948Y74280D01*
X162735Y73493D01*
Y75854D01*
X163522Y73493D02*
X164310D01*
X163916D01*
Y75854D01*
X163522Y75460D01*
X54882Y46143D02*
Y48110D01*
X54488Y48504D01*
X53701D01*
X53308Y48110D01*
Y46143D01*
X50946Y48504D02*
X52521D01*
X50946Y46930D01*
Y46536D01*
X51340Y46143D01*
X52127D01*
X52521Y46536D01*
X134089Y35657D02*
Y33689D01*
X134482Y33296D01*
X135269D01*
X135663Y33689D01*
Y35657D01*
X136450Y35264D02*
X136844Y35657D01*
X137631D01*
X138024Y35264D01*
Y34870D01*
X137631Y34477D01*
X137237D01*
X137631D01*
X138024Y34083D01*
Y33689D01*
X137631Y33296D01*
X136844D01*
X136450Y33689D01*
X75551Y1339D02*
Y3307D01*
X75158Y3701D01*
X74370D01*
X73977Y3307D01*
Y1339D01*
X72009Y3701D02*
Y1339D01*
X73190Y2520D01*
X71615D01*
X316850Y62087D02*
X314882D01*
X314488Y61693D01*
Y60906D01*
X314882Y60512D01*
X316850D01*
Y58151D02*
X316456Y58938D01*
X315669Y59725D01*
X314882D01*
X314488Y59332D01*
Y58544D01*
X314882Y58151D01*
X315275D01*
X315669Y58544D01*
Y59725D01*
X290700Y57409D02*
X288732D01*
X288339Y57016D01*
Y56229D01*
X288732Y55835D01*
X290700D01*
Y55048D02*
Y53474D01*
X290307D01*
X288732Y55048D01*
X288339D01*
X228661Y77007D02*
Y75433D01*
X229449Y74646D01*
X230236Y75433D01*
Y77007D01*
X232597Y76613D02*
X232204Y77007D01*
X231416D01*
X231023Y76613D01*
Y75039D01*
X231416Y74646D01*
X232204D01*
X232597Y75039D01*
X234959Y76613D02*
X234565Y77007D01*
X233778D01*
X233384Y76613D01*
Y75039D01*
X233778Y74646D01*
X234565D01*
X234959Y75039D01*
X132362Y56259D02*
Y53898D01*
X133937D01*
X136298D02*
X134724D01*
X136298Y55472D01*
Y55866D01*
X135904Y56259D01*
X135117D01*
X134724Y55866D01*
X96143Y68386D02*
X98110D01*
X98504Y68779D01*
Y69567D01*
X98110Y69960D01*
X96143D01*
X98504Y70747D02*
Y71534D01*
Y71141D01*
X96143D01*
X96536Y70747D01*
X187283Y49422D02*
Y47454D01*
X187677Y47060D01*
X188464D01*
X188857Y47454D01*
Y49422D01*
X191219D02*
X189644D01*
Y48241D01*
X190431Y48635D01*
X190825D01*
X191219Y48241D01*
Y47454D01*
X190825Y47060D01*
X190038D01*
X189644Y47454D01*
X12971Y41645D02*
X13365Y42039D01*
Y42826D01*
X12971Y43220D01*
X11397D01*
X11003Y42826D01*
Y42039D01*
X11397Y41645D01*
X11003Y40858D02*
X13365D01*
X11003Y39284D01*
X13365D01*
X11003Y38497D02*
Y37710D01*
Y38103D01*
X13365D01*
X12971Y38497D01*
X14487Y70669D02*
X12913D01*
X12126Y69882D01*
X12913Y69095D01*
X14487D01*
X13307Y68308D02*
Y66734D01*
X14645Y60551D02*
X13071D01*
X12284Y59764D01*
X13071Y58977D01*
X14645D01*
X13464Y58190D02*
Y56615D01*
X14251Y57403D02*
X12677D01*
M02*
