%FSLAX25Y25*%
%MOIN*%
G70*
G01*
G75*
G04 Layer_Color=16711935*
%ADD10R,0.03543X0.03150*%
%ADD11R,0.03543X0.03150*%
%ADD12R,0.03150X0.03543*%
%ADD13R,0.03150X0.03543*%
%ADD14R,0.02756X0.02362*%
%ADD15R,0.02362X0.02756*%
%ADD16R,0.02165X0.02559*%
%ADD17R,0.03150X0.02559*%
%ADD18R,0.13386X0.02756*%
%ADD19R,0.07480X0.06299*%
%ADD20R,0.01575X0.03937*%
%ADD21R,0.07874X0.10000*%
%ADD22R,0.02756X0.06102*%
%ADD23R,0.02756X0.13386*%
%ADD24R,0.06299X0.07480*%
%ADD25R,0.03150X0.03937*%
%ADD26C,0.05906*%
%ADD27R,0.05118X0.15748*%
%ADD28R,0.02362X0.00787*%
%ADD29R,0.03150X0.00787*%
%ADD30R,0.00787X0.02362*%
%ADD31R,0.00787X0.03150*%
%ADD32R,0.05118X0.05118*%
%ADD33R,0.01063X0.07874*%
%ADD34R,0.02362X0.07874*%
%ADD35R,0.01181X0.07874*%
%ADD36O,0.01181X0.07874*%
%ADD37R,0.02559X0.02165*%
%ADD38R,0.03937X0.03150*%
%ADD39C,0.00787*%
%ADD40C,0.01181*%
%ADD41C,0.01000*%
%ADD42C,0.02362*%
%ADD43C,0.01575*%
%ADD44C,0.01969*%
%ADD45C,0.03150*%
%ADD46C,0.00500*%
%ADD47C,0.00591*%
%ADD48C,0.00197*%
%ADD49C,0.00600*%
%ADD50C,0.00394*%
%ADD51C,0.00709*%
%ADD52C,0.01200*%
%ADD53R,0.04343X0.03950*%
%ADD54R,0.04343X0.03950*%
%ADD55R,0.03950X0.04343*%
%ADD56R,0.03950X0.04343*%
%ADD57R,0.03556X0.03162*%
%ADD58R,0.03162X0.03556*%
%ADD59R,0.02965X0.03359*%
%ADD60R,0.03950X0.03359*%
%ADD61R,0.14186X0.03556*%
%ADD62R,0.08280X0.07099*%
%ADD63R,0.02375X0.04737*%
%ADD64R,0.08674X0.10800*%
%ADD65R,0.03556X0.06902*%
%ADD66R,0.03556X0.14186*%
%ADD67R,0.07099X0.08280*%
%ADD68R,0.03950X0.04737*%
%ADD69C,0.06706*%
%ADD70R,0.05918X0.16548*%
%ADD71R,0.03162X0.01587*%
%ADD72R,0.03950X0.01587*%
%ADD73R,0.01587X0.03162*%
%ADD74R,0.01587X0.03950*%
%ADD75R,0.05918X0.05918*%
%ADD76R,0.01863X0.08674*%
%ADD77R,0.03162X0.08674*%
%ADD78R,0.01981X0.08674*%
%ADD79O,0.01981X0.08674*%
%ADD80R,0.03359X0.02965*%
%ADD81R,0.04737X0.03950*%
D39*
X58662Y-35039D02*
G03*
X58662Y-35039I-3543J0D01*
G01*
X31102Y-131496D02*
G03*
X31102Y-131496I-3543J0D01*
G01*
X5906Y-51575D02*
G03*
X5906Y-42913I0J4331D01*
G01*
X64961Y-440551D02*
G03*
X64961Y-449213I0J-4331D01*
G01*
X0Y0D02*
X82677D01*
X0Y-42913D02*
Y0D01*
X82677Y-246063D02*
Y0D01*
X0Y-42913D02*
X5906D01*
X0Y-51575D02*
X5906D01*
X0Y-246063D02*
Y-51575D01*
Y-246063D02*
X11811D01*
Y-476378D02*
Y-246063D01*
Y-476378D02*
X70866D01*
X70866D02*
Y-449213D01*
X64961D02*
X70866D01*
Y-440551D02*
Y-246063D01*
X82677D01*
X64961Y-440551D02*
X70866D01*
D41*
X82677Y1394D02*
Y14937D01*
X0Y1394D02*
Y14937D01*
X60333Y13937D02*
X82677D01*
X0D02*
X19145D01*
X76677Y15937D02*
X82677Y13937D01*
X76677Y11937D02*
X82677Y13937D01*
X0D02*
X6000Y11937D01*
X0Y13937D02*
X6000Y15937D01*
X-11551Y-476378D02*
X10417D01*
X-11551Y0D02*
X-1394D01*
X-10551Y-476378D02*
Y-262882D01*
Y-216696D02*
Y0D01*
Y-476378D02*
X-8551Y-470378D01*
X-12551D02*
X-10551Y-476378D01*
X-12551Y-6000D02*
X-10551Y0D01*
X-8551Y-6000D01*
D47*
X22844Y10338D02*
X20745D01*
X22844Y12437D01*
Y12962D01*
X22319Y13487D01*
X21270D01*
X20745Y12962D01*
X23893Y10338D02*
X24943D01*
X24418D01*
Y13487D01*
X23893Y12962D01*
X26517Y10338D02*
Y10863D01*
X27042D01*
Y10338D01*
X26517D01*
X29141Y12962D02*
X29666Y13487D01*
X30715D01*
X31240Y12962D01*
Y10863D01*
X30715Y10338D01*
X29666D01*
X29141Y10863D01*
Y12962D01*
X32290D02*
X32814Y13487D01*
X33864D01*
X34389Y12962D01*
Y10863D01*
X33864Y10338D01*
X32814D01*
X32290Y10863D01*
Y12962D01*
X35438Y10338D02*
Y12437D01*
X35963D01*
X36488Y11912D01*
Y10338D01*
Y11912D01*
X37012Y12437D01*
X37537Y11912D01*
Y10338D01*
X38587D02*
Y12437D01*
X39112D01*
X39636Y11912D01*
Y10338D01*
Y11912D01*
X40161Y12437D01*
X40686Y11912D01*
Y10338D01*
X-6952Y-261282D02*
Y-260233D01*
Y-260757D01*
X-10101D01*
X-9576Y-261282D01*
X-6952Y-256559D02*
Y-258658D01*
X-9051Y-256559D01*
X-9576D01*
X-10101Y-257084D01*
Y-258134D01*
X-9576Y-258658D01*
X-6952Y-255510D02*
Y-254460D01*
Y-254985D01*
X-10101D01*
X-9576Y-255510D01*
X-6952Y-252886D02*
X-7477D01*
Y-252361D01*
X-6952D01*
Y-252886D01*
X-9576Y-250262D02*
X-10101Y-249737D01*
Y-248688D01*
X-9576Y-248163D01*
X-7477D01*
X-6952Y-248688D01*
Y-249737D01*
X-7477Y-250262D01*
X-9576D01*
Y-247113D02*
X-10101Y-246589D01*
Y-245539D01*
X-9576Y-245014D01*
X-7477D01*
X-6952Y-245539D01*
Y-246589D01*
X-7477Y-247113D01*
X-9576D01*
X-6952Y-243965D02*
X-9051D01*
Y-243440D01*
X-8526Y-242915D01*
X-6952D01*
X-8526D01*
X-9051Y-242391D01*
X-8526Y-241866D01*
X-6952D01*
Y-240816D02*
X-9051D01*
Y-240292D01*
X-8526Y-239767D01*
X-6952D01*
X-8526D01*
X-9051Y-239242D01*
X-8526Y-238717D01*
X-6952D01*
M02*
