%FSLAX25Y25*%
%MOIN*%
G70*
G01*
G75*
G04 Layer_Color=8421504*
%ADD10C,0.05906*%
%ADD11R,0.02362X0.02756*%
%ADD12R,0.02756X0.02362*%
%ADD13R,0.03150X0.03937*%
%ADD14R,0.03937X0.03150*%
%ADD15R,0.02559X0.02165*%
%ADD16R,0.02165X0.02559*%
%ADD17R,0.03543X0.03150*%
%ADD18R,0.03543X0.03150*%
%ADD19R,0.01575X0.03937*%
%ADD20O,0.01181X0.07874*%
%ADD21R,0.01181X0.07874*%
%ADD22R,0.02362X0.07874*%
%ADD23R,0.01063X0.07874*%
%ADD24R,0.05118X0.05118*%
%ADD25R,0.00787X0.02362*%
%ADD26R,0.00787X0.03150*%
%ADD27R,0.02362X0.00787*%
%ADD28R,0.03150X0.00787*%
%ADD29R,0.05118X0.15748*%
%ADD30R,0.06299X0.07480*%
%ADD31R,0.02756X0.13386*%
%ADD32R,0.02756X0.06102*%
%ADD33R,0.07874X0.10000*%
%ADD34R,0.07480X0.06299*%
%ADD35R,0.13386X0.02756*%
%ADD36R,0.03150X0.02559*%
%ADD37R,0.03150X0.03543*%
%ADD38R,0.03150X0.03543*%
%ADD39C,0.01575*%
%ADD40C,0.01000*%
%ADD41C,0.02362*%
%ADD42C,0.00787*%
%ADD43C,0.01181*%
%ADD44C,0.01969*%
%ADD45C,0.03150*%
%ADD46C,0.00500*%
%ADD47C,0.00591*%
%ADD48C,0.00394*%
%ADD49C,0.00600*%
%ADD50C,0.00197*%
%ADD51C,0.00709*%
%ADD52C,0.01200*%
D10*
X74810Y-204319D02*
D03*
Y-184520D02*
D03*
Y-214052D02*
D03*
Y-175140D02*
D03*
Y-194340D02*
D03*
D11*
X64320Y-193380D02*
D03*
X59595D02*
D03*
X61268Y-296460D02*
D03*
X65992D02*
D03*
X50358D02*
D03*
X55082D02*
D03*
X54298Y-219680D02*
D03*
X59022D02*
D03*
X38982Y-169340D02*
D03*
X34258D02*
D03*
X62348Y-48890D02*
D03*
X67072D02*
D03*
X62348Y-69699D02*
D03*
X67072D02*
D03*
X62348Y-90565D02*
D03*
X67072D02*
D03*
X62348Y-111431D02*
D03*
X67072D02*
D03*
X51362Y-362000D02*
D03*
X46638D02*
D03*
X62998Y-322550D02*
D03*
X67722D02*
D03*
X22548Y-371850D02*
D03*
X27272D02*
D03*
X67722Y-328220D02*
D03*
X62998D02*
D03*
X32968Y-387431D02*
D03*
X37692D02*
D03*
X41012Y-395201D02*
D03*
X36288D02*
D03*
X58908Y-311800D02*
D03*
X63632D02*
D03*
X67252Y-417360D02*
D03*
X62528D02*
D03*
X13228Y-95560D02*
D03*
X17952D02*
D03*
X15894Y-120672D02*
D03*
X11170D02*
D03*
X62588Y-411570D02*
D03*
X67312D02*
D03*
X67542Y-334760D02*
D03*
X62818D02*
D03*
D12*
X75900Y-48218D02*
D03*
Y-52942D02*
D03*
X63550Y-145792D02*
D03*
Y-141068D02*
D03*
Y-127488D02*
D03*
Y-132212D02*
D03*
X11170Y-132982D02*
D03*
Y-128258D02*
D03*
X15960Y-401958D02*
D03*
Y-406682D02*
D03*
X23470Y-401958D02*
D03*
Y-406682D02*
D03*
X75900Y-92272D02*
D03*
Y-87548D02*
D03*
Y-77258D02*
D03*
Y-81982D02*
D03*
X67580Y-353168D02*
D03*
Y-357892D02*
D03*
X34010Y-340098D02*
D03*
Y-344822D02*
D03*
D13*
X56967Y-288320D02*
D03*
X50274D02*
D03*
X27277Y-379230D02*
D03*
X20583D02*
D03*
X38137Y-111431D02*
D03*
X44436D02*
D03*
X38137Y-90565D02*
D03*
X44436D02*
D03*
X38137Y-69699D02*
D03*
X44436D02*
D03*
X38137Y-48833D02*
D03*
X44436D02*
D03*
X30863Y-288370D02*
D03*
X37556D02*
D03*
X7254Y-65310D02*
D03*
X13947D02*
D03*
D14*
X28150Y-263154D02*
D03*
Y-269847D02*
D03*
D15*
X34400Y-369044D02*
D03*
Y-372981D02*
D03*
X17330Y-265903D02*
D03*
Y-269840D02*
D03*
X67290Y-401473D02*
D03*
Y-405410D02*
D03*
D16*
X60283Y-186580D02*
D03*
X64220D02*
D03*
X65197Y-302680D02*
D03*
X61260D02*
D03*
X10133Y-73030D02*
D03*
X14070D02*
D03*
X67230Y-424130D02*
D03*
X63293D02*
D03*
D17*
X14252Y-80470D02*
D03*
X10512Y-89131D02*
D03*
X14910Y-104872D02*
D03*
X11170Y-113533D02*
D03*
X47964Y-311790D02*
D03*
X44224Y-320452D02*
D03*
X16000Y-396131D02*
D03*
X19740Y-387470D02*
D03*
D18*
X17992Y-89131D02*
D03*
X18650Y-113533D02*
D03*
X51704Y-320452D02*
D03*
X23480Y-396131D02*
D03*
D19*
X27480Y-332618D02*
D03*
X20000D02*
D03*
X23740D02*
D03*
Y-344823D02*
D03*
X20000D02*
D03*
X27480D02*
D03*
X54100Y-371938D02*
D03*
X46620D02*
D03*
X50360D02*
D03*
Y-384142D02*
D03*
X46620D02*
D03*
X54100D02*
D03*
X19800Y-364902D02*
D03*
X27280D02*
D03*
X23540D02*
D03*
Y-352698D02*
D03*
X27280D02*
D03*
X19800D02*
D03*
X37570Y-269828D02*
D03*
X45050D02*
D03*
X41310Y-282032D02*
D03*
X45050D02*
D03*
X37570D02*
D03*
D20*
X59663Y-388830D02*
D03*
X62222D02*
D03*
X64781D02*
D03*
X67340D02*
D03*
X59663Y-367570D02*
D03*
X62222D02*
D03*
X64781D02*
D03*
D21*
X67340D02*
D03*
D22*
X58438Y-471340D02*
D03*
X24422D02*
D03*
D23*
X52257D02*
D03*
X50288D02*
D03*
X48320D02*
D03*
X46351D02*
D03*
X44383D02*
D03*
X40446D02*
D03*
X38477D02*
D03*
X36509D02*
D03*
X34540D02*
D03*
X32572D02*
D03*
X30603D02*
D03*
X42414D02*
D03*
D24*
X40494Y-239053D02*
D03*
D25*
X43644Y-245352D02*
D03*
X37345D02*
D03*
Y-232754D02*
D03*
X43644D02*
D03*
D26*
X42069Y-244959D02*
D03*
X40494D02*
D03*
X38920D02*
D03*
Y-233148D02*
D03*
X40494D02*
D03*
X42069D02*
D03*
D27*
X34195Y-242203D02*
D03*
Y-235904D02*
D03*
X46794D02*
D03*
Y-242203D02*
D03*
D28*
X34589Y-240628D02*
D03*
Y-239053D02*
D03*
Y-237478D02*
D03*
X46400D02*
D03*
Y-239053D02*
D03*
Y-240628D02*
D03*
D29*
X18909Y-318063D02*
D03*
X32294D02*
D03*
D30*
X78067Y-8120D02*
D03*
X55272D02*
D03*
X46183Y-8049D02*
D03*
X4687D02*
D03*
D31*
X69642Y-24098D02*
D03*
X63736D02*
D03*
X13978Y-24027D02*
D03*
X19884D02*
D03*
X25789D02*
D03*
X31695D02*
D03*
X37600D02*
D03*
D32*
X50394Y-177953D02*
D03*
Y-207677D02*
D03*
X32283Y-177953D02*
D03*
Y-207677D02*
D03*
D33*
X38970Y-300100D02*
D03*
X21253D02*
D03*
D34*
X34958Y-432693D02*
D03*
Y-402260D02*
D03*
D35*
X50935Y-411551D02*
D03*
Y-417457D02*
D03*
Y-423362D02*
D03*
D36*
X44859Y-137733D02*
D03*
X38560D02*
D03*
X44859Y-141080D02*
D03*
X38560D02*
D03*
D37*
X67551Y-347800D02*
D03*
X58890Y-344060D02*
D03*
X52862Y-347280D02*
D03*
X44201Y-343540D02*
D03*
D38*
X67551Y-340320D02*
D03*
X52862Y-339800D02*
D03*
M02*
