%FSLAX25Y25*%
%MOIN*%
G70*
G01*
G75*
G04 Layer_Physical_Order=2*
G04 Layer_Color=16711680*
%ADD10C,0.05906*%
%ADD11R,0.02362X0.02756*%
%ADD12R,0.02756X0.02362*%
%ADD13R,0.03150X0.03937*%
%ADD14R,0.03937X0.03150*%
%ADD15R,0.02559X0.02165*%
%ADD16R,0.02165X0.02559*%
%ADD17R,0.03543X0.03150*%
%ADD18R,0.03543X0.03150*%
%ADD19R,0.01575X0.03937*%
%ADD20O,0.01181X0.07874*%
%ADD21R,0.01181X0.07874*%
%ADD22R,0.02362X0.07874*%
%ADD23R,0.01063X0.07874*%
%ADD24R,0.05118X0.05118*%
%ADD25R,0.00787X0.02362*%
%ADD26R,0.00787X0.03150*%
%ADD27R,0.02362X0.00787*%
%ADD28R,0.03150X0.00787*%
%ADD29R,0.05118X0.15748*%
%ADD30R,0.06299X0.07480*%
%ADD31R,0.02756X0.13386*%
%ADD32R,0.02756X0.06102*%
%ADD33R,0.07874X0.10000*%
%ADD34R,0.07480X0.06299*%
%ADD35R,0.13386X0.02756*%
%ADD36R,0.03150X0.02559*%
%ADD37R,0.03150X0.03543*%
%ADD38R,0.03150X0.03543*%
%ADD39C,0.01575*%
%ADD40C,0.01000*%
%ADD41C,0.02362*%
%ADD42C,0.00787*%
%ADD43C,0.01181*%
%ADD44C,0.01969*%
%ADD45C,0.03150*%
G36*
X69863Y-416834D02*
X69365Y-416883D01*
X69292Y-416515D01*
X68813Y-415799D01*
X68097Y-415320D01*
X67252Y-415152D01*
X67068Y-415189D01*
X52891Y-401012D01*
X52861Y-400862D01*
X52513Y-400341D01*
X51992Y-399993D01*
X51378Y-399871D01*
X50763Y-399993D01*
X50243Y-400341D01*
X49894Y-400862D01*
X49772Y-401476D01*
X49894Y-402091D01*
X50243Y-402612D01*
X50763Y-402960D01*
X50890Y-402985D01*
X65081Y-417176D01*
X65044Y-417360D01*
X65213Y-418205D01*
X65691Y-418921D01*
X66407Y-419400D01*
X67252Y-419568D01*
X68097Y-419400D01*
X68813Y-418921D01*
X69292Y-418205D01*
X69365Y-417837D01*
X69863Y-417886D01*
Y-439548D01*
X64961D01*
Y-439521D01*
X63573Y-439704D01*
X62280Y-440239D01*
X61874Y-440551D01*
X43504D01*
Y-377953D01*
X69863D01*
Y-416834D01*
D02*
G37*
G36*
X81674Y-64995D02*
X81214Y-65302D01*
X80693Y-64954D01*
X80079Y-64831D01*
X79464Y-64954D01*
X78943Y-65302D01*
X78595Y-65823D01*
X78473Y-66437D01*
X78595Y-67052D01*
X78943Y-67572D01*
X79075Y-67660D01*
Y-208403D01*
X74996Y-212483D01*
X74810Y-212446D01*
X74195Y-212568D01*
X73675Y-212916D01*
X73327Y-213437D01*
X73204Y-214052D01*
X73327Y-214666D01*
X73675Y-215187D01*
X74195Y-215535D01*
X74810Y-215657D01*
X75424Y-215535D01*
X75945Y-215187D01*
X76293Y-214666D01*
X76416Y-214052D01*
X76391Y-213926D01*
X80788Y-209528D01*
X81006Y-209203D01*
X81082Y-208819D01*
X81082Y-208819D01*
X81082Y-208819D01*
Y-208819D01*
Y-68015D01*
X81523Y-67779D01*
X81674Y-67879D01*
Y-245060D01*
X70866D01*
X70642Y-245104D01*
X70256Y-244787D01*
Y-228428D01*
X70387Y-228340D01*
X70735Y-227819D01*
X70858Y-227205D01*
X70735Y-226590D01*
X70387Y-226069D01*
X70256Y-225981D01*
Y-200397D01*
X70387Y-200309D01*
X70735Y-199788D01*
X70858Y-199173D01*
X70735Y-198559D01*
X70387Y-198038D01*
X69866Y-197690D01*
X69252Y-197568D01*
X68638Y-197690D01*
X68117Y-198038D01*
X67769Y-198559D01*
X67646Y-199173D01*
X67769Y-199788D01*
X68117Y-200309D01*
X68248Y-200397D01*
Y-225981D01*
X68117Y-226069D01*
X67769Y-226590D01*
X67646Y-227205D01*
X67769Y-227819D01*
X68117Y-228340D01*
X68248Y-228428D01*
Y-265765D01*
X64645Y-269369D01*
X64427Y-269695D01*
X64351Y-270079D01*
X64351Y-270079D01*
X64351D01*
X64351Y-270079D01*
X64351D01*
Y-312478D01*
X57066Y-319763D01*
X56849Y-320088D01*
X56772Y-320472D01*
X56772Y-320472D01*
X56772D01*
X56772Y-320472D01*
X56772D01*
Y-330273D01*
X56640Y-330361D01*
X56292Y-330882D01*
X56170Y-331496D01*
X56292Y-332111D01*
X56640Y-332631D01*
X57161Y-332979D01*
X57776Y-333102D01*
X58390Y-332979D01*
X58911Y-332631D01*
X59259Y-332111D01*
X59381Y-331496D01*
X59259Y-330882D01*
X58911Y-330361D01*
X58779Y-330273D01*
Y-320888D01*
X66064Y-313603D01*
X66281Y-313278D01*
X66358Y-312894D01*
X66358Y-312894D01*
X66358Y-312894D01*
Y-312894D01*
Y-270494D01*
X69401Y-267452D01*
X69863Y-267643D01*
Y-377313D01*
X43504D01*
X43052Y-377501D01*
X42865Y-377953D01*
Y-440551D01*
X43052Y-441003D01*
X43504Y-441190D01*
X60529D01*
X60750Y-441639D01*
X60318Y-442202D01*
X59782Y-443495D01*
X59600Y-444882D01*
X59782Y-446270D01*
X60318Y-447563D01*
X61170Y-448673D01*
X62280Y-449525D01*
X63573Y-450060D01*
X64961Y-450243D01*
Y-450216D01*
X69863D01*
Y-475375D01*
X60210D01*
Y-466812D01*
X56666D01*
Y-475375D01*
X51410D01*
Y-466812D01*
X48673D01*
X47556Y-466589D01*
X47464Y-466128D01*
X47203Y-465737D01*
X47203Y-465737D01*
X45496Y-464030D01*
X45105Y-463769D01*
X44644Y-463678D01*
X44644Y-463678D01*
X38360D01*
X38122Y-463321D01*
X37406Y-462842D01*
X36994Y-462760D01*
X29287Y-455053D01*
Y-399221D01*
X29480Y-398931D01*
X29648Y-398087D01*
X29480Y-397242D01*
X29287Y-396952D01*
Y-373110D01*
X45315Y-357082D01*
X56417D01*
X57109Y-356944D01*
X57695Y-356553D01*
X64565Y-349683D01*
X64956Y-349097D01*
X65094Y-348406D01*
Y-345289D01*
X65327Y-344939D01*
X65495Y-344094D01*
X65327Y-343250D01*
X64849Y-342533D01*
X64132Y-342055D01*
X63287Y-341887D01*
X62442Y-342055D01*
X61726Y-342533D01*
X61248Y-343250D01*
X61080Y-344094D01*
X61248Y-344939D01*
X61481Y-345289D01*
Y-347657D01*
X55669Y-353469D01*
X44567D01*
X43876Y-353607D01*
X43290Y-353998D01*
X26203Y-371085D01*
X25811Y-371671D01*
X25674Y-372362D01*
X25674Y-372362D01*
X25674D01*
X25674Y-372362D01*
X25674D01*
Y-396833D01*
X25401Y-397242D01*
X25233Y-398087D01*
X25401Y-398931D01*
X25674Y-399340D01*
Y-455801D01*
X25674Y-455801D01*
X25674D01*
X25811Y-456493D01*
X26203Y-457079D01*
X34439Y-465315D01*
X34521Y-465727D01*
X34952Y-466371D01*
X34716Y-466812D01*
X31450D01*
Y-475375D01*
X26194D01*
Y-466812D01*
X22650D01*
Y-475375D01*
X12815D01*
Y-246063D01*
X12738Y-245679D01*
X12521Y-245354D01*
X12195Y-245136D01*
X11811Y-245060D01*
X1003D01*
Y-52578D01*
X5906D01*
Y-52605D01*
X7293Y-52422D01*
X8586Y-51887D01*
X9696Y-51035D01*
X10548Y-49924D01*
X11084Y-48632D01*
X11266Y-47244D01*
X11084Y-45857D01*
X10548Y-44564D01*
X9696Y-43453D01*
X8586Y-42601D01*
X7293Y-42066D01*
X5906Y-41883D01*
Y-41910D01*
X1003D01*
Y-1003D01*
X81674D01*
Y-64995D01*
D02*
G37*
%LPC*%
G36*
X17992Y-98028D02*
X17147Y-98197D01*
X16431Y-98675D01*
X15952Y-99391D01*
X15784Y-100236D01*
X15952Y-101081D01*
X16186Y-101430D01*
Y-265015D01*
Y-286004D01*
X16186Y-286004D01*
X16186D01*
X16323Y-286695D01*
X16715Y-287281D01*
X28644Y-299210D01*
X29230Y-299602D01*
X29921Y-299739D01*
X30612Y-299602D01*
X31199Y-299210D01*
X31590Y-298624D01*
X31728Y-297933D01*
X31590Y-297242D01*
X31199Y-296656D01*
X19798Y-285256D01*
Y-265252D01*
X19838Y-265054D01*
X19798Y-264856D01*
Y-101430D01*
X20032Y-101081D01*
X20200Y-100236D01*
X20032Y-99391D01*
X19553Y-98675D01*
X18837Y-98197D01*
X17992Y-98028D01*
D02*
G37*
G36*
X63661Y-217452D02*
X62817Y-217620D01*
X62100Y-218098D01*
X61622Y-218814D01*
X61454Y-219659D01*
X61622Y-220504D01*
X61855Y-220853D01*
Y-263154D01*
X55197D01*
X54506Y-263292D01*
X53920Y-263683D01*
X53528Y-264269D01*
X53391Y-264961D01*
X53528Y-265652D01*
X53920Y-266238D01*
X54506Y-266630D01*
X55197Y-266767D01*
X63661D01*
X64353Y-266630D01*
X64939Y-266238D01*
X65330Y-265652D01*
X65468Y-264961D01*
Y-220853D01*
X65701Y-220504D01*
X65869Y-219659D01*
X65701Y-218814D01*
X65223Y-218098D01*
X64506Y-217620D01*
X63661Y-217452D01*
D02*
G37*
G36*
X59606Y-237410D02*
X58992Y-237532D01*
X58471Y-237880D01*
X58123Y-238401D01*
X58001Y-239016D01*
X58123Y-239630D01*
X58471Y-240151D01*
X58603Y-240239D01*
Y-250458D01*
X55734Y-253327D01*
X41775D01*
X41686Y-253195D01*
X41166Y-252847D01*
X40551Y-252725D01*
X39937Y-252847D01*
X39416Y-253195D01*
X39068Y-253716D01*
X38945Y-254331D01*
X39068Y-254945D01*
X39416Y-255466D01*
X39937Y-255814D01*
X40551Y-255936D01*
X41166Y-255814D01*
X41686Y-255466D01*
X41775Y-255334D01*
X56149D01*
X56533Y-255258D01*
X56859Y-255040D01*
X60316Y-251583D01*
X60461Y-251366D01*
X60533Y-251258D01*
X60610Y-250874D01*
Y-240239D01*
X60742Y-240151D01*
X61090Y-239630D01*
X61212Y-239016D01*
X61090Y-238401D01*
X60742Y-237880D01*
X60221Y-237532D01*
X59606Y-237410D01*
D02*
G37*
G36*
X49213Y-256938D02*
X48598Y-257060D01*
X48077Y-257408D01*
X47729Y-257929D01*
X47607Y-258543D01*
X47729Y-259158D01*
X48077Y-259679D01*
X48209Y-259767D01*
Y-274213D01*
X48209Y-274213D01*
X48209D01*
X48285Y-274597D01*
X48503Y-274922D01*
X57953Y-284372D01*
Y-306191D01*
X57723Y-306345D01*
X57375Y-306866D01*
X57253Y-307480D01*
X57375Y-308095D01*
X57723Y-308616D01*
X58244Y-308964D01*
X58858Y-309086D01*
X59473Y-308964D01*
X59994Y-308616D01*
X60342Y-308095D01*
X60464Y-307480D01*
X60342Y-306866D01*
X59994Y-306345D01*
X59960Y-306323D01*
Y-283963D01*
X59961Y-283958D01*
X59885Y-283574D01*
X59667Y-283248D01*
X59667Y-283248D01*
X50216Y-273797D01*
Y-259767D01*
X50348Y-259679D01*
X50696Y-259158D01*
X50818Y-258543D01*
X50696Y-257929D01*
X50348Y-257408D01*
X49827Y-257060D01*
X49213Y-256938D01*
D02*
G37*
G36*
X44488Y-256957D02*
X43874Y-257080D01*
X43353Y-257428D01*
X43005Y-257948D01*
X42882Y-258563D01*
X43005Y-259177D01*
X43353Y-259698D01*
X43485Y-259787D01*
Y-290529D01*
X15250Y-318763D01*
X15033Y-319089D01*
X14956Y-319473D01*
Y-405459D01*
X14825Y-405547D01*
X14477Y-406068D01*
X14354Y-406682D01*
X14477Y-407297D01*
X14825Y-407818D01*
X15346Y-408166D01*
X15960Y-408288D01*
X16575Y-408166D01*
X17095Y-407818D01*
X17443Y-407297D01*
X17566Y-406682D01*
X17443Y-406068D01*
X17095Y-405547D01*
X16963Y-405459D01*
Y-319889D01*
X45198Y-291654D01*
X45343Y-291437D01*
X45415Y-291329D01*
X45492Y-290945D01*
Y-259787D01*
X45624Y-259698D01*
X45972Y-259177D01*
X46094Y-258563D01*
X45972Y-257948D01*
X45624Y-257428D01*
X45103Y-257080D01*
X44488Y-256957D01*
D02*
G37*
G36*
X44201Y-341934D02*
X43586Y-342057D01*
X43169Y-342336D01*
X41499D01*
X41039Y-342427D01*
X40882Y-342532D01*
X40648Y-342688D01*
X40648Y-342688D01*
X32220Y-351116D01*
X31727Y-351214D01*
X31206Y-351562D01*
X30858Y-352083D01*
X30736Y-352698D01*
X30858Y-353312D01*
X31206Y-353833D01*
X31727Y-354181D01*
X32342Y-354303D01*
X32956Y-354181D01*
X33477Y-353833D01*
X33825Y-353312D01*
X33923Y-352819D01*
X41998Y-344744D01*
X43169D01*
X43586Y-345023D01*
X44201Y-345146D01*
X44815Y-345023D01*
X45336Y-344675D01*
X45684Y-344155D01*
X45807Y-343540D01*
X45684Y-342926D01*
X45336Y-342405D01*
X44815Y-342057D01*
X44201Y-341934D01*
D02*
G37*
G36*
X53059Y-338194D02*
X52445Y-338316D01*
X51924Y-338665D01*
X51771Y-338894D01*
X35042D01*
X34624Y-338614D01*
X34010Y-338492D01*
X33395Y-338614D01*
X32875Y-338962D01*
X32527Y-339483D01*
X32404Y-340098D01*
X32527Y-340712D01*
X32875Y-341233D01*
X33395Y-341581D01*
X34010Y-341704D01*
X34624Y-341581D01*
X35042Y-341302D01*
X52539D01*
X53059Y-341406D01*
X53674Y-341283D01*
X54194Y-340935D01*
X54543Y-340414D01*
X54665Y-339800D01*
X54543Y-339185D01*
X54194Y-338665D01*
X53674Y-338316D01*
X53059Y-338194D01*
D02*
G37*
G36*
X54921Y-223867D02*
X54307Y-223989D01*
X53786Y-224337D01*
X53438Y-224858D01*
X53316Y-225472D01*
X53438Y-226087D01*
X53786Y-226608D01*
X53918Y-226696D01*
Y-238383D01*
X53786Y-238471D01*
X53438Y-238992D01*
X53316Y-239606D01*
X53438Y-240221D01*
X53786Y-240742D01*
X54307Y-241090D01*
X54921Y-241212D01*
X55536Y-241090D01*
X56057Y-240742D01*
X56405Y-240221D01*
X56527Y-239606D01*
X56405Y-238992D01*
X56057Y-238471D01*
X55925Y-238383D01*
Y-226696D01*
X56057Y-226608D01*
X56405Y-226087D01*
X56527Y-225472D01*
X56405Y-224858D01*
X56057Y-224337D01*
X55536Y-223989D01*
X54921Y-223867D01*
D02*
G37*
G36*
X27559Y-126929D02*
X26377Y-127085D01*
X25276Y-127541D01*
X24330Y-128267D01*
X23604Y-129213D01*
X23148Y-130314D01*
X22992Y-131496D01*
X23148Y-132678D01*
X23604Y-133779D01*
X24330Y-134725D01*
X25276Y-135451D01*
X26377Y-135907D01*
X27559Y-136063D01*
X28741Y-135907D01*
X29842Y-135451D01*
X30788Y-134725D01*
X31514Y-133779D01*
X31970Y-132678D01*
X32126Y-131496D01*
X31970Y-130314D01*
X31514Y-129213D01*
X30788Y-128267D01*
X29842Y-127541D01*
X28741Y-127085D01*
X27559Y-126929D01*
D02*
G37*
G36*
X25789Y-22421D02*
X25175Y-22544D01*
X24654Y-22892D01*
X24306Y-23413D01*
X24184Y-24027D01*
X24306Y-24642D01*
X24654Y-25163D01*
X25175Y-25510D01*
X25789Y-25633D01*
X26404Y-25510D01*
X26925Y-25163D01*
X27013Y-25031D01*
X58848D01*
X70847Y-37030D01*
Y-63836D01*
X70715Y-63924D01*
X70367Y-64445D01*
X70245Y-65059D01*
X70367Y-65674D01*
X70715Y-66194D01*
X71236Y-66543D01*
X71850Y-66665D01*
X72465Y-66543D01*
X72986Y-66194D01*
X73334Y-65674D01*
X73456Y-65059D01*
X73334Y-64445D01*
X72986Y-63924D01*
X72854Y-63836D01*
Y-36614D01*
X72777Y-36230D01*
X72705Y-36122D01*
X72560Y-35905D01*
X59973Y-23317D01*
X59647Y-23100D01*
X59263Y-23024D01*
X27013D01*
X26925Y-22892D01*
X26404Y-22544D01*
X25789Y-22421D01*
D02*
G37*
G36*
X32913Y-54103D02*
X32299Y-54225D01*
X31778Y-54573D01*
X31690Y-54705D01*
X11772D01*
X11388Y-54782D01*
X11280Y-54854D01*
X11062Y-54999D01*
X2401Y-63661D01*
X2183Y-63986D01*
X2107Y-64370D01*
Y-225630D01*
X2107Y-225630D01*
X2107D01*
X2183Y-226014D01*
X2401Y-226340D01*
X11929Y-235868D01*
X11898Y-236024D01*
X12021Y-236638D01*
X12369Y-237159D01*
X12890Y-237507D01*
X13504Y-237629D01*
X14119Y-237507D01*
X14639Y-237159D01*
X14988Y-236638D01*
X15110Y-236024D01*
X14988Y-235409D01*
X14639Y-234888D01*
X14119Y-234540D01*
X13504Y-234418D01*
X13349Y-234449D01*
X4114Y-225214D01*
Y-64786D01*
X12187Y-56712D01*
X31690D01*
X31778Y-56844D01*
X32299Y-57192D01*
X32913Y-57314D01*
X33528Y-57192D01*
X34049Y-56844D01*
X34397Y-56323D01*
X34519Y-55709D01*
X34397Y-55094D01*
X34049Y-54573D01*
X33528Y-54225D01*
X32913Y-54103D01*
D02*
G37*
G36*
X56063Y-43768D02*
X55449Y-43891D01*
X54928Y-44239D01*
X54580Y-44760D01*
X54457Y-45374D01*
X54580Y-45989D01*
X54928Y-46509D01*
X55059Y-46597D01*
Y-123110D01*
X55097Y-123296D01*
Y-145476D01*
X54965Y-145565D01*
X54617Y-146086D01*
X54494Y-146700D01*
X54617Y-147315D01*
X54965Y-147835D01*
X55485Y-148183D01*
X56100Y-148306D01*
X56714Y-148183D01*
X57235Y-147835D01*
X57583Y-147315D01*
X57706Y-146700D01*
X57583Y-146086D01*
X57235Y-145565D01*
X57104Y-145476D01*
Y-123147D01*
X57067Y-122961D01*
Y-46597D01*
X57198Y-46509D01*
X57546Y-45989D01*
X57669Y-45374D01*
X57546Y-44760D01*
X57198Y-44239D01*
X56677Y-43891D01*
X56063Y-43768D01*
D02*
G37*
G36*
X55118Y-30473D02*
X53936Y-30628D01*
X52835Y-31085D01*
X51889Y-31810D01*
X51163Y-32756D01*
X50707Y-33858D01*
X50551Y-35039D01*
X50707Y-36221D01*
X51163Y-37323D01*
X51889Y-38269D01*
X52835Y-38994D01*
X53936Y-39450D01*
X55118Y-39606D01*
X56300Y-39450D01*
X57402Y-38994D01*
X58347Y-38269D01*
X59073Y-37323D01*
X59529Y-36221D01*
X59685Y-35039D01*
X59529Y-33858D01*
X59073Y-32756D01*
X58347Y-31810D01*
X57402Y-31085D01*
X56300Y-30628D01*
X55118Y-30473D01*
D02*
G37*
G36*
X59595Y-126415D02*
X58981Y-126537D01*
X58460Y-126885D01*
X58112Y-127406D01*
X57990Y-128021D01*
X58112Y-128635D01*
X58460Y-129156D01*
X58592Y-129244D01*
Y-203403D01*
X57649Y-204346D01*
X57170Y-204201D01*
X57074Y-203716D01*
X56726Y-203195D01*
X56594Y-203107D01*
Y-197405D01*
X56726Y-197317D01*
X57074Y-196796D01*
X57196Y-196181D01*
X57074Y-195567D01*
X56726Y-195046D01*
X56205Y-194698D01*
X55590Y-194576D01*
X54976Y-194698D01*
X54455Y-195046D01*
X54107Y-195567D01*
X53985Y-196181D01*
X54107Y-196796D01*
X54455Y-197317D01*
X54587Y-197405D01*
Y-203107D01*
X54455Y-203195D01*
X54107Y-203716D01*
X53985Y-204331D01*
X54107Y-204945D01*
X54455Y-205466D01*
X54976Y-205814D01*
X55461Y-205911D01*
X55606Y-206389D01*
X49290Y-212705D01*
X49073Y-213030D01*
X48996Y-213414D01*
Y-225569D01*
X47675Y-226890D01*
X47520Y-226859D01*
X46905Y-226981D01*
X46384Y-227329D01*
X46036Y-227850D01*
X45914Y-228465D01*
X46036Y-229079D01*
X46384Y-229600D01*
X46905Y-229948D01*
X47520Y-230070D01*
X48134Y-229948D01*
X48655Y-229600D01*
X49003Y-229079D01*
X49125Y-228465D01*
X49094Y-228309D01*
X49913Y-227491D01*
X50374Y-227682D01*
Y-230446D01*
X49642Y-231179D01*
X49486Y-231148D01*
X48872Y-231270D01*
X48351Y-231618D01*
X48003Y-232139D01*
X47881Y-232754D01*
X48003Y-233368D01*
X48351Y-233889D01*
X48872Y-234237D01*
X49486Y-234360D01*
X50101Y-234237D01*
X50621Y-233889D01*
X50970Y-233368D01*
X51092Y-232754D01*
X51061Y-232598D01*
X52087Y-231572D01*
X52233Y-231354D01*
X52305Y-231246D01*
X52381Y-230862D01*
Y-217069D01*
X64332Y-205119D01*
X64549Y-204794D01*
X64562Y-204730D01*
X64626Y-204409D01*
Y-152838D01*
X64757Y-152750D01*
X65105Y-152229D01*
X65228Y-151614D01*
X65105Y-151000D01*
X64757Y-150479D01*
X64236Y-150131D01*
X63622Y-150008D01*
X63008Y-150131D01*
X62487Y-150479D01*
X62139Y-151000D01*
X62016Y-151614D01*
X62139Y-152229D01*
X62487Y-152750D01*
X62618Y-152838D01*
Y-203994D01*
X51465Y-215147D01*
X51003Y-214955D01*
Y-213830D01*
X60305Y-204528D01*
X60523Y-204203D01*
X60599Y-203819D01*
X60599Y-203819D01*
X60599Y-203819D01*
Y-203819D01*
Y-129244D01*
X60731Y-129156D01*
X61079Y-128635D01*
X61201Y-128021D01*
X61079Y-127406D01*
X60731Y-126885D01*
X60210Y-126537D01*
X59595Y-126415D01*
D02*
G37*
G36*
X36496Y-31898D02*
X35882Y-32021D01*
X35361Y-32369D01*
X35013Y-32890D01*
X34890Y-33504D01*
X35013Y-34118D01*
X35361Y-34639D01*
X35493Y-34727D01*
Y-173419D01*
X35091Y-173717D01*
X34744Y-173612D01*
Y-71260D01*
X34680Y-70939D01*
X34667Y-70876D01*
X34450Y-70550D01*
X24055Y-60155D01*
X24086Y-60000D01*
X23964Y-59386D01*
X23616Y-58865D01*
X23095Y-58517D01*
X22480Y-58394D01*
X21866Y-58517D01*
X21345Y-58865D01*
X20997Y-59386D01*
X20875Y-60000D01*
X20997Y-60615D01*
X21345Y-61135D01*
X21866Y-61483D01*
X22480Y-61606D01*
X22636Y-61575D01*
X32737Y-71675D01*
Y-186296D01*
X32605Y-186384D01*
X32257Y-186905D01*
X32135Y-187520D01*
X32257Y-188134D01*
X32605Y-188655D01*
X33126Y-189003D01*
X33740Y-189125D01*
X34355Y-189003D01*
X34876Y-188655D01*
X35224Y-188134D01*
X35346Y-187520D01*
X35224Y-186905D01*
X34876Y-186384D01*
X34744Y-186296D01*
Y-175758D01*
X35222Y-175613D01*
X35361Y-175820D01*
X35882Y-176169D01*
X36496Y-176291D01*
X37110Y-176169D01*
X37374Y-175992D01*
X37815Y-176228D01*
Y-208836D01*
X27007Y-219645D01*
X26789Y-219970D01*
X26713Y-220354D01*
Y-225469D01*
X26581Y-225557D01*
X26246Y-226060D01*
X25767Y-225914D01*
Y-162552D01*
X30444Y-157875D01*
X30600Y-157906D01*
X31214Y-157783D01*
X31735Y-157435D01*
X32083Y-156914D01*
X32206Y-156300D01*
X32083Y-155685D01*
X31735Y-155165D01*
X31214Y-154817D01*
X30600Y-154694D01*
X29985Y-154817D01*
X29465Y-155165D01*
X29117Y-155685D01*
X28994Y-156300D01*
X29025Y-156456D01*
X24054Y-161427D01*
X23837Y-161752D01*
X23760Y-162136D01*
Y-244488D01*
X23760Y-244488D01*
X23760D01*
X23837Y-244872D01*
X24054Y-245198D01*
X30000Y-251144D01*
X29969Y-251299D01*
X30091Y-251914D01*
X30439Y-252435D01*
X30960Y-252783D01*
X31575Y-252905D01*
X32189Y-252783D01*
X32710Y-252435D01*
X33058Y-251914D01*
X33180Y-251299D01*
X33058Y-250685D01*
X32710Y-250164D01*
X32189Y-249816D01*
X31575Y-249694D01*
X31419Y-249725D01*
X25767Y-244073D01*
Y-241034D01*
X26246Y-240889D01*
X26384Y-241096D01*
X26905Y-241444D01*
X27520Y-241566D01*
X28134Y-241444D01*
X28655Y-241096D01*
X29003Y-240575D01*
X29125Y-239961D01*
X29003Y-239346D01*
X28655Y-238825D01*
X28134Y-238477D01*
X27520Y-238355D01*
X27145Y-236472D01*
Y-236439D01*
X28644Y-234941D01*
X31811D01*
X32195Y-234864D01*
X32521Y-234647D01*
X47048Y-220119D01*
X47266Y-219794D01*
X47278Y-219730D01*
X47342Y-219409D01*
Y-205534D01*
X49490Y-203386D01*
X49646Y-203417D01*
X50260Y-203294D01*
X50781Y-202946D01*
X51129Y-202426D01*
X51251Y-201811D01*
X51129Y-201197D01*
X50781Y-200676D01*
X50260Y-200328D01*
X49646Y-200205D01*
X49031Y-200328D01*
X48510Y-200676D01*
X48162Y-201197D01*
X48040Y-201811D01*
X48071Y-201967D01*
X46426Y-203611D01*
X45964Y-203420D01*
Y-121853D01*
X46096Y-121765D01*
X46444Y-121244D01*
X46566Y-120630D01*
X46444Y-120016D01*
X46096Y-119495D01*
X45575Y-119147D01*
X44961Y-119024D01*
X44346Y-119147D01*
X44240Y-119218D01*
X43799Y-118982D01*
Y-104216D01*
X43931Y-104128D01*
X44279Y-103607D01*
X44401Y-102992D01*
X44279Y-102378D01*
X43931Y-101857D01*
X43410Y-101509D01*
X42795Y-101386D01*
X42181Y-101509D01*
X41660Y-101857D01*
X41312Y-102378D01*
X41190Y-102992D01*
X41312Y-103607D01*
X41660Y-104128D01*
X41792Y-104216D01*
Y-123791D01*
X41792Y-123791D01*
X41792D01*
X41868Y-124175D01*
X41870Y-124179D01*
Y-208403D01*
X30117Y-220157D01*
X29900Y-220482D01*
X29823Y-220866D01*
Y-230154D01*
X29691Y-230243D01*
X29343Y-230764D01*
X29221Y-231378D01*
X29343Y-231992D01*
X29678Y-232492D01*
X29566Y-232700D01*
X29411Y-232933D01*
X28228D01*
X27908Y-232997D01*
X27844Y-233010D01*
X27519Y-233227D01*
X26229Y-234517D01*
X25767Y-234326D01*
Y-227471D01*
X26246Y-227326D01*
X26581Y-227828D01*
X27102Y-228176D01*
X27716Y-228299D01*
X28331Y-228176D01*
X28852Y-227828D01*
X29200Y-227307D01*
X29322Y-226693D01*
X29200Y-226079D01*
X28852Y-225557D01*
X28720Y-225469D01*
Y-220770D01*
X39529Y-209962D01*
X39746Y-209636D01*
X39822Y-209252D01*
Y-82208D01*
X39954Y-82120D01*
X40302Y-81599D01*
X40424Y-80984D01*
X40302Y-80370D01*
X39954Y-79849D01*
X39433Y-79501D01*
X38819Y-79379D01*
X38204Y-79501D01*
X37941Y-79677D01*
X37500Y-79441D01*
Y-34727D01*
X37631Y-34639D01*
X37980Y-34118D01*
X38102Y-33504D01*
X37980Y-32890D01*
X37631Y-32369D01*
X37110Y-32021D01*
X36496Y-31898D01*
D02*
G37*
%LPD*%
G36*
X43957Y-209808D02*
Y-216361D01*
X34351Y-225967D01*
X34195Y-225936D01*
X33581Y-226058D01*
X33060Y-226406D01*
X32712Y-226927D01*
X32590Y-227542D01*
X32712Y-228156D01*
X33060Y-228677D01*
X33581Y-229025D01*
X34195Y-229147D01*
X34582Y-229070D01*
X34817Y-229511D01*
X32893Y-231435D01*
X32415Y-231290D01*
X32310Y-230764D01*
X31962Y-230243D01*
X31830Y-230154D01*
Y-221282D01*
X43495Y-209617D01*
X43957Y-209808D01*
D02*
G37*
D22*
X58438Y-471340D02*
D03*
X24422D02*
D03*
D23*
X42414D02*
D03*
X44383D02*
D03*
X46351D02*
D03*
X48320D02*
D03*
X50288D02*
D03*
X52257D02*
D03*
X40446D02*
D03*
X38477D02*
D03*
X36509D02*
D03*
X34540D02*
D03*
X32572D02*
D03*
X30603D02*
D03*
D39*
X51378Y-401486D02*
Y-401476D01*
Y-401486D02*
X67252Y-417360D01*
D41*
X27480Y-455801D02*
X36561Y-464882D01*
X55197Y-264961D02*
X63661D01*
Y-219659D01*
X27480Y-372362D02*
X44567Y-355276D01*
X56417D01*
X17992Y-286004D02*
Y-265015D01*
X18032Y-265054D01*
X17992Y-265015D02*
Y-100236D01*
Y-286004D02*
X29921Y-297933D01*
X56417Y-355276D02*
X63287Y-348406D01*
Y-344094D01*
X27480Y-455801D02*
Y-372362D01*
D42*
X55590Y-204331D02*
Y-196181D01*
X46339Y-219409D02*
Y-205118D01*
X31811Y-233937D02*
X46339Y-219409D01*
X28228Y-233937D02*
X31811D01*
X26142Y-236024D02*
X28228Y-233937D01*
X26142Y-238583D02*
Y-236024D01*
Y-238583D02*
X27520Y-239961D01*
X46339Y-205118D02*
X49646Y-201811D01*
X56063Y-123110D02*
Y-45374D01*
X24764Y-244488D02*
X31575Y-251299D01*
X22480Y-60000D02*
X33740Y-71260D01*
Y-187520D02*
Y-71260D01*
X36496Y-174685D02*
Y-33504D01*
X11772Y-55709D02*
X32913D01*
X3110Y-64370D02*
X11772Y-55709D01*
X3110Y-225630D02*
Y-64370D01*
Y-225630D02*
X13504Y-236024D01*
X38819Y-209252D02*
Y-80984D01*
X27716Y-220354D02*
X38819Y-209252D01*
X27716Y-226693D02*
Y-220354D01*
X30827Y-231378D02*
Y-220866D01*
X42795Y-123791D02*
Y-102992D01*
X42874Y-208819D02*
Y-123870D01*
X30827Y-220866D02*
X42874Y-208819D01*
X42795Y-123791D02*
X42874Y-123870D01*
X74810Y-214052D02*
X74846D01*
X80079Y-208819D01*
Y-66437D01*
X44961Y-216776D02*
Y-120630D01*
X34195Y-227542D02*
X44961Y-216776D01*
X69252Y-227205D02*
Y-199173D01*
X59606Y-250874D02*
Y-239016D01*
X54921Y-239606D02*
Y-225472D01*
X59595Y-203819D02*
Y-128021D01*
X50000Y-213414D02*
X59595Y-203819D01*
X50000Y-225984D02*
Y-213414D01*
X47520Y-228465D02*
X50000Y-225984D01*
X63622Y-204409D02*
Y-151614D01*
X51378Y-216653D02*
X63622Y-204409D01*
X51378Y-230862D02*
Y-216653D01*
X49486Y-232754D02*
X51378Y-230862D01*
X49213Y-274213D02*
X58958Y-283958D01*
X49213Y-274213D02*
Y-258543D01*
X24764Y-244488D02*
Y-162136D01*
X30600Y-156300D01*
X56100Y-146700D02*
Y-123147D01*
X71850Y-65059D02*
Y-36614D01*
X25789Y-24027D02*
X59263D01*
X71850Y-36614D01*
X15960Y-406682D02*
Y-319473D01*
X44488Y-290945D01*
Y-258563D01*
X56149Y-254331D02*
X59606Y-250874D01*
X40551Y-254331D02*
X56149D01*
X58957Y-283959D02*
X58958Y-283958D01*
X58957Y-307480D02*
Y-283959D01*
X57776Y-331496D02*
Y-320472D01*
X69252Y-266181D02*
Y-227205D01*
X57776Y-320472D02*
X65354Y-312894D01*
Y-270079D01*
X69252Y-266181D01*
D43*
X46351Y-471340D02*
Y-466589D01*
X44644Y-464882D02*
X46351Y-466589D01*
X36561Y-464882D02*
X44644D01*
X36509Y-471340D02*
Y-464934D01*
X34010Y-340098D02*
X52761D01*
X53059Y-339800D01*
X32342Y-352698D02*
X41499Y-343540D01*
X44201D01*
D44*
X51378Y-401476D02*
D03*
X23110Y-257638D02*
D03*
X33150Y-247835D02*
D03*
X32953Y-259409D02*
D03*
X36772Y-253465D02*
D03*
X46384Y-250506D02*
D03*
X55590Y-196181D02*
D03*
Y-204331D02*
D03*
X27520Y-239961D02*
D03*
X49646Y-201811D02*
D03*
X56575Y-247362D02*
D03*
X34488Y-221890D02*
D03*
X56063Y-45374D02*
D03*
X30600Y-156300D02*
D03*
X31575Y-251299D02*
D03*
X22480Y-60000D02*
D03*
X33740Y-187520D02*
D03*
X36496Y-33504D02*
D03*
Y-174685D02*
D03*
X32913Y-55709D02*
D03*
X13504Y-236024D02*
D03*
X38819Y-80984D02*
D03*
X27716Y-226693D02*
D03*
X42795Y-102992D02*
D03*
X74810Y-214052D02*
D03*
X44961Y-120630D02*
D03*
X34195Y-227542D02*
D03*
X30827Y-231378D02*
D03*
X69252Y-199173D02*
D03*
Y-227205D02*
D03*
X59606Y-239016D02*
D03*
X40551Y-254331D02*
D03*
X49213Y-258543D02*
D03*
X54921Y-225472D02*
D03*
X59595Y-128021D02*
D03*
X47520Y-228465D02*
D03*
X63622Y-151614D02*
D03*
X49486Y-232754D02*
D03*
X59488Y-233740D02*
D03*
X54921Y-239606D02*
D03*
X41693Y-237717D02*
D03*
Y-240394D02*
D03*
X39134Y-237717D02*
D03*
Y-240394D02*
D03*
X30394Y-35512D02*
D03*
X30709Y-163425D02*
D03*
X31811Y-396339D02*
D03*
X36535Y-378283D02*
D03*
X56201Y-301476D02*
D03*
X66850Y-461299D02*
D03*
X58701Y-457126D02*
D03*
X66850D02*
D03*
X62638Y-457087D02*
D03*
X67874Y-309842D02*
D03*
X55216Y-322835D02*
D03*
X31850Y-274252D02*
D03*
X42224Y-286910D02*
D03*
X55905Y-258504D02*
D03*
X40905Y-124764D02*
D03*
X75945Y-157874D02*
D03*
X42992Y-214055D02*
D03*
X62520Y-214134D02*
D03*
X74016Y-240709D02*
D03*
X8071Y-161457D02*
D03*
X5800Y-125100D02*
D03*
X54016Y-104646D02*
D03*
X60630Y-81791D02*
D03*
X53189Y-60984D02*
D03*
X46024Y-35984D02*
D03*
X65650Y-59842D02*
D03*
X19700Y-77000D02*
D03*
X3268Y-25197D02*
D03*
X2441Y-15827D02*
D03*
X57205Y-172283D02*
D03*
X55197Y-264961D02*
D03*
X37402Y-356004D02*
D03*
X31988Y-329823D02*
D03*
X58701Y-461299D02*
D03*
X62800D02*
D03*
X52700Y-132700D02*
D03*
X56100Y-146700D02*
D03*
X80079Y-66437D02*
D03*
X71850Y-65059D02*
D03*
X25789Y-24027D02*
D03*
X15960Y-406682D02*
D03*
X44488Y-258563D02*
D03*
X29921Y-297933D02*
D03*
X58858Y-307480D02*
D03*
X63661Y-264961D02*
D03*
X57776Y-331496D02*
D03*
X34010Y-340098D02*
D03*
X53059Y-339800D02*
D03*
X32342Y-352698D02*
D03*
X44201Y-343540D02*
D03*
D45*
X67252Y-417360D02*
D03*
X51968Y-433268D02*
D03*
X56100Y-429900D02*
D03*
X48000Y-430100D02*
D03*
X47800Y-404900D02*
D03*
X51300Y-462800D02*
D03*
X56496Y-360039D02*
D03*
X61378D02*
D03*
X36561Y-464882D02*
D03*
X27441Y-398087D02*
D03*
X63287Y-344094D02*
D03*
X17992Y-100236D02*
D03*
X63661Y-219659D02*
D03*
X19882Y-358760D02*
D03*
X19999Y-338657D02*
D03*
X27401Y-338579D02*
D03*
X53839Y-329823D02*
D03*
X49213Y-329921D02*
D03*
X44173D02*
D03*
X26800Y-462800D02*
D03*
X56700Y-397000D02*
D03*
X63500D02*
D03*
M02*
