M48
;Layer_Color=9474304
;FILE_FORMAT=2:5
INCH,LZ
;TYPE=PLATED
T1F00S00C0.01181
T2F00S00C0.02362
%
T01
X0058701Y-0461299
X00628
X006685
Y-0457126
X0062638Y-0457087
X0058701Y-0457126
X0051378Y-0401476
X0031811Y-0396339
X0036535Y-0378283
X0037402Y-0356004
X0032342Y-0352698
X003401Y-0340098
X0031988Y-0329823
X0044201Y-034354
X0053059Y-03398
X0057776Y-0331496
X0055216Y-0322835
X0058858Y-030748
X0056201Y-0301476
X0067874Y-0309842
X0042224Y-028691
X003185Y-0274252
X0029921Y-0297933
X0055197Y-0264961
X0063661
X001596Y-0406682
X0013504Y-0236024
X0008071Y-0161457
X00058Y-01251
X0040905Y-0124764
X0044961Y-012063
X00527Y-01327
X0059595Y-0128021
X00561Y-01467
X0063622Y-0151614
X0075945Y-0157874
X0057205Y-0172283
X0036496Y-0174685
X003374Y-018752
X0030709Y-0163425
X00306Y-01563
X0049646Y-0201811
X005559Y-0204331
Y-0196181
X0069252Y-0199173
X007481Y-0214052
X006252Y-0214134
X0054921Y-0225472
X004752Y-0228465
X0049486Y-0232754
X0059488Y-023374
X0059606Y-0239016
X0054921Y-0239606
X0056575Y-0247362
X0055905Y-0258504
X0049213Y-0258543
X0044488Y-0258563
X0040551Y-0254331
X0036772Y-0253465
X0031575Y-0251299
X003315Y-0247835
X0032953Y-0259409
X002311Y-0257638
X002752Y-0239961
X0030827Y-0231378
X0034195Y-0227542
X0034488Y-022189
X0027716Y-0226693
X0039134Y-0237717
X0041693
Y-0240394
X0039134
X0046384Y-0250506
X0074016Y-0240709
X0069252Y-0227205
X0042992Y-0214055
X0054016Y-0104646
X0042795Y-0102992
X0038819Y-0080984
X006063Y-0081791
X006565Y-0059842
X007185Y-0065059
X0080079Y-0066437
X0053189Y-0060984
X0056063Y-0045374
X0046024Y-0035984
X0036496Y-0033504
X0030394Y-0035512
X0025789Y-0024027
X0032913Y-0055709
X002248Y-006
X00197Y-0077
X0003268Y-0025197
X0002441Y-0015827
T02
X00268Y-04628
X0036561Y-0464882
X00513Y-04628
X0051968Y-0433268
X0048Y-04301
X00561Y-04299
X0067252Y-041736
X00635Y-0397
X00567
X00478Y-04049
X0027441Y-0398087
X0027401Y-0338579
X0044173Y-0329921
X0049213
X0053839Y-0329823
X0063287Y-0344094
X0061378Y-0360039
X0056496
X0019882Y-035876
X0019999Y-0338657
X0063661Y-0219659
X0017992Y-0100236
M30
