%FSLAX25Y25*%
%MOIN*%
G70*
G01*
G75*
G04 Layer_Physical_Order=1*
G04 Layer_Color=255*
%ADD10R,0.07874X0.10000*%
%ADD11R,0.02756X0.06102*%
%ADD12R,0.02756X0.13386*%
%ADD13R,0.06299X0.07480*%
%ADD14R,0.03150X0.03937*%
%ADD15R,0.03150X0.03543*%
%ADD16R,0.03150X0.03543*%
%ADD17C,0.05906*%
%ADD18R,0.05118X0.15748*%
%ADD19R,0.03150X0.02559*%
%ADD20R,0.02362X0.00787*%
%ADD21R,0.03150X0.00787*%
%ADD22R,0.00787X0.02362*%
%ADD23R,0.00787X0.03150*%
%ADD24R,0.05118X0.05118*%
%ADD25R,0.05906X0.03937*%
%ADD26R,0.05906X0.12992*%
%ADD27R,0.01063X0.07874*%
%ADD28R,0.02362X0.07874*%
%ADD29R,0.02165X0.02559*%
%ADD30R,0.01575X0.03937*%
%ADD31R,0.02362X0.02756*%
%ADD32R,0.03937X0.01575*%
%ADD33R,0.01181X0.07874*%
%ADD34O,0.01181X0.07874*%
%ADD35R,0.02559X0.02165*%
%ADD36R,0.03543X0.03150*%
%ADD37R,0.03543X0.03150*%
%ADD38R,0.02756X0.02362*%
%ADD39R,0.03937X0.03150*%
%ADD40R,0.07874X0.07874*%
%ADD41C,0.00787*%
%ADD42C,0.01000*%
%ADD43C,0.02362*%
%ADD44C,0.01181*%
%ADD45C,0.01575*%
%ADD46C,0.03150*%
%ADD47C,0.01969*%
G36*
X65227Y-381760D02*
Y-396529D01*
X63479Y-398276D01*
X63017Y-398085D01*
Y-396329D01*
X62925Y-395868D01*
X62664Y-395478D01*
X62274Y-395217D01*
X61813Y-395125D01*
X61352Y-395217D01*
X60961Y-395478D01*
X60700Y-395868D01*
X60609Y-396329D01*
Y-398716D01*
X60130Y-398861D01*
X60105Y-398824D01*
X59715Y-398563D01*
X59254Y-398471D01*
X56695D01*
X56234Y-398563D01*
X55843Y-398824D01*
X55818Y-398861D01*
X55340Y-398716D01*
Y-396329D01*
X55248Y-395868D01*
X54987Y-395478D01*
X54596Y-395217D01*
X54136Y-395125D01*
X53675Y-395217D01*
X53284Y-395478D01*
X53023Y-395868D01*
X52931Y-396329D01*
Y-403022D01*
X53023Y-403483D01*
X53024Y-403484D01*
Y-408148D01*
X53023Y-408148D01*
X52931Y-408609D01*
Y-410844D01*
X50131D01*
X50131Y-410844D01*
X49705Y-410928D01*
X49345Y-411170D01*
X49345Y-411170D01*
X47705Y-412809D01*
X47677Y-412804D01*
X47063Y-412926D01*
X46542Y-413274D01*
X46194Y-413795D01*
X46071Y-414409D01*
X46194Y-415024D01*
X46542Y-415545D01*
X47063Y-415893D01*
X47677Y-416015D01*
X48292Y-415893D01*
X48812Y-415545D01*
X49161Y-415024D01*
X49283Y-414409D01*
X49277Y-414382D01*
X50591Y-413068D01*
X52931D01*
Y-415302D01*
X53023Y-415763D01*
X53284Y-416154D01*
X53675Y-416415D01*
X54136Y-416506D01*
X54596Y-416415D01*
X54987Y-416154D01*
X55248Y-415763D01*
X55340Y-415302D01*
Y-412915D01*
X55818Y-412770D01*
X55843Y-412807D01*
X56234Y-413068D01*
X56695Y-413160D01*
X59254D01*
X59715Y-413068D01*
X60105Y-412807D01*
X60153Y-412736D01*
X60632Y-412881D01*
Y-416483D01*
X60701D01*
Y-429048D01*
X60222Y-429193D01*
X60105Y-429018D01*
X59715Y-428757D01*
X59254Y-428665D01*
X58793Y-428757D01*
X58540Y-428925D01*
X58100Y-428689D01*
Y-424844D01*
X58137Y-424788D01*
X58259Y-424173D01*
X58137Y-423559D01*
X57789Y-423038D01*
X57268Y-422690D01*
X56653Y-422568D01*
X56039Y-422690D01*
X55518Y-423038D01*
X55170Y-423559D01*
X55048Y-424173D01*
X55166Y-424767D01*
X54793Y-424967D01*
X54689D01*
X45100Y-415378D01*
Y-389024D01*
X52462Y-381662D01*
X52940Y-381807D01*
X53023Y-382223D01*
X53284Y-382614D01*
X53675Y-382875D01*
X54136Y-382966D01*
X54596Y-382875D01*
X54847Y-382707D01*
X55288Y-382943D01*
Y-385843D01*
X55209Y-385960D01*
X55087Y-386575D01*
X55209Y-387189D01*
X55558Y-387710D01*
X56078Y-388058D01*
X56693Y-388180D01*
X57307Y-388058D01*
X57408Y-387991D01*
X57849Y-388227D01*
D01*
X57770Y-388439D01*
Y-388439D01*
X57648Y-389053D01*
X57770Y-389668D01*
X58118Y-390189D01*
X58639Y-390537D01*
X59254Y-390659D01*
X59868Y-390537D01*
X60389Y-390189D01*
X60737Y-389668D01*
X60859Y-389053D01*
X60737Y-388439D01*
X60659Y-388321D01*
Y-382943D01*
X62994D01*
Y-380181D01*
X63456Y-379990D01*
X65227Y-381760D01*
D02*
G37*
G36*
X81674Y-3789D02*
X74327D01*
Y-12451D01*
X81674D01*
Y-43597D01*
X81523Y-43697D01*
X81082Y-43462D01*
Y-42795D01*
X81006Y-42411D01*
X80788Y-42086D01*
X77443Y-38740D01*
X77118Y-38523D01*
X76733Y-38447D01*
X70264D01*
Y-37481D01*
X66721D01*
Y-37700D01*
X65539D01*
Y-37481D01*
X64771D01*
Y-31381D01*
X65705D01*
Y-16815D01*
X61768D01*
Y-31381D01*
X62764D01*
Y-37481D01*
X61996D01*
Y-38447D01*
X60117D01*
X59797Y-38510D01*
X59733Y-38523D01*
X59407Y-38740D01*
X56140Y-42008D01*
X55984Y-41977D01*
X55370Y-42099D01*
X54849Y-42447D01*
X54501Y-42968D01*
X54379Y-43583D01*
X54501Y-44197D01*
X54849Y-44718D01*
X55370Y-45066D01*
X55984Y-45188D01*
X56599Y-45066D01*
X57120Y-44718D01*
X57468Y-44197D01*
X57590Y-43583D01*
X57559Y-43427D01*
X60533Y-40453D01*
X61996D01*
Y-41418D01*
X65539D01*
Y-41200D01*
X66721D01*
Y-41418D01*
X70264D01*
Y-40453D01*
X76318D01*
X79075Y-43211D01*
Y-43816D01*
X78943Y-43904D01*
X78595Y-44425D01*
X78473Y-45039D01*
X78595Y-45654D01*
X78943Y-46175D01*
X79464Y-46523D01*
X80079Y-46645D01*
X80693Y-46523D01*
X81214Y-46175D01*
X81674Y-46482D01*
Y-245060D01*
X70866D01*
X70482Y-245136D01*
X70157Y-245354D01*
X69939Y-245679D01*
X69863Y-246063D01*
Y-439548D01*
X64961D01*
Y-439521D01*
X63573Y-439704D01*
X62280Y-440239D01*
X61170Y-441091D01*
X60318Y-442202D01*
X59782Y-443495D01*
X59600Y-444882D01*
X59782Y-446270D01*
X60318Y-447563D01*
X61170Y-448673D01*
X62280Y-449525D01*
X63573Y-450060D01*
X64961Y-450243D01*
Y-450216D01*
X69863D01*
Y-475375D01*
X60210D01*
Y-466812D01*
X56666D01*
Y-475375D01*
X51410D01*
Y-466812D01*
X48673D01*
X47556Y-466589D01*
X47464Y-466128D01*
X47203Y-465737D01*
X47203Y-465737D01*
X45496Y-464030D01*
X45105Y-463769D01*
X45105Y-463769D01*
X45105D01*
Y-463743D01*
X45110Y-463698D01*
D01*
X45110D01*
X45110Y-463480D01*
X46900D01*
Y-459980D01*
X46900Y-459980D01*
X46900D01*
X46792Y-459778D01*
X46797Y-459772D01*
X46893Y-459627D01*
X46978Y-459202D01*
X46978Y-459202D01*
X46978Y-459202D01*
Y-459202D01*
Y-448807D01*
X47633Y-448152D01*
X48363D01*
Y-448418D01*
X53481D01*
Y-448418D01*
X53613D01*
X53967Y-448771D01*
Y-449049D01*
X53613Y-449402D01*
X53481D01*
Y-449402D01*
X48363D01*
Y-452158D01*
X53481D01*
Y-451892D01*
X54023D01*
X54023Y-451892D01*
X54449Y-451807D01*
X54809Y-451566D01*
X55865Y-450511D01*
X56154Y-450704D01*
X56203Y-451201D01*
X53996Y-453408D01*
X53481D01*
Y-453142D01*
X48363D01*
Y-455898D01*
X53481D01*
Y-455632D01*
X54456D01*
X54456Y-455632D01*
X54882Y-455547D01*
X55243Y-455306D01*
X58227Y-452322D01*
X58227Y-452322D01*
X58468Y-451961D01*
X58553Y-451535D01*
X58553Y-451535D01*
Y-444488D01*
X58553Y-444488D01*
X58468Y-444063D01*
X58227Y-443702D01*
X56600Y-442075D01*
X56695Y-441602D01*
X59254D01*
X59791Y-441495D01*
X60247Y-441190D01*
X60552Y-440734D01*
X60659Y-440197D01*
X60659Y-440197D01*
X60659Y-440197D01*
Y-440197D01*
Y-437742D01*
X61100Y-437506D01*
X61352Y-437675D01*
X61813Y-437766D01*
X62274Y-437675D01*
X62664Y-437414D01*
X62925Y-437023D01*
X63017Y-436562D01*
Y-429869D01*
X62925Y-429408D01*
X62925Y-429407D01*
Y-416483D01*
X62994D01*
Y-413068D01*
X63832D01*
X63832Y-413068D01*
X64257Y-412983D01*
X64618Y-412742D01*
X67164Y-410196D01*
X67405Y-409835D01*
X67490Y-409410D01*
X67490Y-409410D01*
X67490Y-409410D01*
Y-409409D01*
Y-402402D01*
X67490Y-402402D01*
X67405Y-401976D01*
X67164Y-401615D01*
X65224Y-399676D01*
X67125Y-397775D01*
X67366Y-397415D01*
X67450Y-396989D01*
X67450Y-396989D01*
X67450Y-396989D01*
Y-396989D01*
Y-381299D01*
X67450Y-381299D01*
X67366Y-380874D01*
X67125Y-380513D01*
X64241Y-377630D01*
X63881Y-377389D01*
X63455Y-377304D01*
X63455Y-377304D01*
X62994D01*
Y-373888D01*
X60659D01*
Y-372876D01*
X60552Y-372338D01*
X60247Y-371882D01*
X59791Y-371578D01*
X59254Y-371471D01*
X56695D01*
X56157Y-371578D01*
X55701Y-371882D01*
X55397Y-372338D01*
X55290Y-372876D01*
Y-373890D01*
X54849Y-374125D01*
X54596Y-373957D01*
X54136Y-373865D01*
X53675Y-373957D01*
X53284Y-374218D01*
X53023Y-374608D01*
X52931Y-375069D01*
Y-378048D01*
X43321Y-387658D01*
X42859Y-387467D01*
Y-330861D01*
X45188D01*
Y-319679D01*
X42466D01*
Y-303710D01*
X47910Y-298266D01*
X48586D01*
Y-298429D01*
X52129D01*
Y-298210D01*
X53311D01*
Y-298429D01*
X56854D01*
Y-297580D01*
X59496D01*
Y-298429D01*
X60148D01*
Y-300810D01*
X59587D01*
Y-304550D01*
X62933D01*
Y-304330D01*
X64128D01*
Y-301030D01*
X62933D01*
Y-300810D01*
X62372D01*
Y-298429D01*
X63039D01*
Y-298210D01*
X64830D01*
Y-294710D01*
X63039D01*
Y-294492D01*
X61788D01*
Y-276937D01*
X68265D01*
Y-262763D01*
X62793D01*
X62195Y-262364D01*
X62271Y-261980D01*
Y-244339D01*
X62208Y-244018D01*
X62195Y-243955D01*
X61977Y-243629D01*
X59841Y-241493D01*
X59516Y-241276D01*
X59132Y-241199D01*
X56362D01*
X56057Y-240742D01*
X56405Y-240221D01*
X56527Y-239606D01*
X56405Y-238992D01*
X56057Y-238471D01*
X55536Y-238123D01*
X54921Y-238001D01*
X54307Y-238123D01*
X53786Y-238471D01*
X53438Y-238992D01*
X53316Y-239606D01*
X53301Y-239624D01*
X46400D01*
Y-238482D01*
X51144D01*
X51528Y-238405D01*
X51853Y-238188D01*
X66124Y-223917D01*
X73543D01*
X73927Y-223840D01*
X74253Y-223623D01*
X79457Y-218419D01*
X79674Y-218094D01*
X79751Y-217710D01*
X79751Y-217710D01*
X79751Y-217710D01*
Y-217710D01*
Y-210115D01*
X79687Y-209794D01*
X79674Y-209731D01*
X79457Y-209405D01*
X77310Y-207258D01*
X77337Y-206846D01*
X77905Y-206106D01*
X78262Y-205244D01*
X78384Y-204319D01*
X78262Y-203394D01*
X77905Y-202532D01*
X77337Y-201792D01*
X76597Y-201224D01*
X75735Y-200867D01*
X74810Y-200745D01*
X74264Y-200817D01*
X74043Y-200369D01*
X75520Y-198892D01*
X75737Y-198566D01*
X75814Y-198182D01*
X75814Y-198182D01*
X75814Y-198182D01*
Y-198182D01*
Y-197760D01*
X76597Y-197435D01*
X77337Y-196867D01*
X77905Y-196127D01*
X78262Y-195265D01*
X78384Y-194340D01*
X78262Y-193415D01*
X77905Y-192553D01*
X77337Y-191813D01*
X76597Y-191245D01*
X75735Y-190888D01*
X74810Y-190766D01*
X73885Y-190888D01*
X73023Y-191245D01*
X72283Y-191813D01*
X71715Y-192553D01*
X71358Y-193415D01*
X71236Y-194340D01*
X71358Y-195265D01*
X71715Y-196127D01*
X72283Y-196867D01*
X73023Y-197435D01*
X73396Y-197589D01*
X73493Y-198080D01*
X70907Y-200666D01*
X70422Y-200544D01*
X70357Y-200329D01*
X70387Y-200309D01*
X70735Y-199788D01*
X70858Y-199173D01*
X70735Y-198559D01*
X70387Y-198038D01*
X70256Y-197950D01*
Y-194528D01*
X70179Y-194143D01*
X69962Y-193818D01*
X68714Y-192571D01*
X68389Y-192353D01*
X68005Y-192277D01*
X66091D01*
Y-191411D01*
X65332D01*
Y-188450D01*
X65894D01*
Y-186479D01*
X66741Y-185632D01*
X71435D01*
X71715Y-186307D01*
X72283Y-187047D01*
X73023Y-187615D01*
X73885Y-187972D01*
X74810Y-188094D01*
X75735Y-187972D01*
X76597Y-187615D01*
X77337Y-187047D01*
X77905Y-186307D01*
X78262Y-185445D01*
X78384Y-184520D01*
X78262Y-183595D01*
X77905Y-182733D01*
X77337Y-181993D01*
X76597Y-181425D01*
X75735Y-181068D01*
X74810Y-180946D01*
X73885Y-181068D01*
X73023Y-181425D01*
X72283Y-181993D01*
X71715Y-182733D01*
X71435Y-183408D01*
X66280D01*
X66280Y-183408D01*
X65855Y-183493D01*
X65494Y-183734D01*
X64518Y-184710D01*
X62547D01*
Y-184930D01*
X61352D01*
Y-188230D01*
X62547D01*
Y-188450D01*
X63108D01*
Y-191411D01*
X62548D01*
Y-191630D01*
X61367D01*
Y-191411D01*
X57824D01*
Y-192576D01*
X57682Y-192670D01*
X55746Y-194606D01*
X55590Y-194576D01*
X54976Y-194698D01*
X54455Y-195046D01*
X54107Y-195567D01*
X53985Y-196181D01*
X54107Y-196796D01*
X54455Y-197317D01*
X54976Y-197664D01*
X55590Y-197787D01*
X56205Y-197664D01*
X56726Y-197317D01*
X57074Y-196796D01*
X57196Y-196181D01*
X57165Y-196026D01*
X57842Y-195349D01*
X61367D01*
Y-195130D01*
X62548D01*
Y-195349D01*
X66091D01*
Y-194284D01*
X67589D01*
X68248Y-194943D01*
Y-197950D01*
X68117Y-198038D01*
X67769Y-198559D01*
X67646Y-199173D01*
X67769Y-199788D01*
X68117Y-200309D01*
X68147Y-200329D01*
X68002Y-200807D01*
X50869D01*
X50781Y-200676D01*
X50260Y-200328D01*
X49646Y-200205D01*
X49352Y-200264D01*
X49116Y-199823D01*
X51103Y-197836D01*
X51321Y-197510D01*
X51397Y-197126D01*
X51397Y-197126D01*
X51397Y-197126D01*
Y-197126D01*
Y-181595D01*
X52362D01*
Y-174311D01*
X48425D01*
Y-181595D01*
X49390D01*
Y-196710D01*
X46968Y-199133D01*
X46750Y-199459D01*
X46674Y-199843D01*
X46674Y-199843D01*
X46674D01*
X46674Y-199843D01*
X46674D01*
Y-202626D01*
X46750Y-203010D01*
X46968Y-203336D01*
X48425Y-204794D01*
Y-211319D01*
X49390D01*
Y-215776D01*
X49390Y-215776D01*
X49390D01*
X49467Y-216160D01*
X49684Y-216486D01*
X52526Y-219328D01*
Y-221649D01*
X53918D01*
Y-224249D01*
X53786Y-224337D01*
X53438Y-224858D01*
X53316Y-225472D01*
X53438Y-226087D01*
X53786Y-226608D01*
X54307Y-226956D01*
X54921Y-227078D01*
X55536Y-226956D01*
X56057Y-226608D01*
X56405Y-226087D01*
X56527Y-225472D01*
X56405Y-224858D01*
X56057Y-224337D01*
X55925Y-224249D01*
Y-221649D01*
X56069D01*
Y-221430D01*
X57250D01*
Y-221649D01*
X58019D01*
Y-227216D01*
X50334Y-234900D01*
X46794D01*
X46786Y-234901D01*
X46400Y-234584D01*
Y-233757D01*
X48263D01*
X48351Y-233889D01*
X48872Y-234237D01*
X49486Y-234360D01*
X50101Y-234237D01*
X50621Y-233889D01*
X50970Y-233368D01*
X51092Y-232754D01*
X50970Y-232139D01*
X50621Y-231618D01*
X50101Y-231270D01*
X49486Y-231148D01*
X48872Y-231270D01*
X48351Y-231618D01*
X48263Y-231750D01*
X44628D01*
Y-230982D01*
X43413D01*
X43222Y-230520D01*
X44274Y-229468D01*
X46296D01*
X46384Y-229600D01*
X46905Y-229948D01*
X47520Y-230070D01*
X48134Y-229948D01*
X48655Y-229600D01*
X49003Y-229079D01*
X49125Y-228465D01*
X49003Y-227850D01*
X48655Y-227329D01*
X48134Y-226981D01*
X47520Y-226859D01*
X46905Y-226981D01*
X46384Y-227329D01*
X46296Y-227461D01*
X43858D01*
X43474Y-227537D01*
X43149Y-227755D01*
X41960Y-228944D01*
X41498Y-228752D01*
Y-170852D01*
X41422Y-170468D01*
X41204Y-170143D01*
X40754Y-169692D01*
Y-167371D01*
X37211D01*
Y-167590D01*
X36029D01*
Y-167371D01*
X34862D01*
Y-142896D01*
X35674Y-142084D01*
X36395D01*
Y-142950D01*
X40725D01*
Y-139210D01*
X36395D01*
Y-140076D01*
X35259D01*
X34875Y-140153D01*
X34549Y-140370D01*
X33149Y-141771D01*
X32931Y-142096D01*
X32855Y-142480D01*
X32855Y-142480D01*
X32855D01*
X32855Y-142480D01*
X32855D01*
Y-167371D01*
X32486D01*
Y-171309D01*
X36029D01*
Y-171090D01*
X37211D01*
Y-171309D01*
X39491D01*
Y-175607D01*
X39029Y-175799D01*
X38071Y-174841D01*
X38102Y-174685D01*
X37980Y-174071D01*
X37631Y-173550D01*
X37110Y-173202D01*
X36496Y-173079D01*
X35882Y-173202D01*
X35361Y-173550D01*
X35013Y-174071D01*
X34890Y-174685D01*
X35013Y-175300D01*
X35361Y-175820D01*
X35882Y-176169D01*
X36496Y-176291D01*
X36652Y-176260D01*
X37916Y-177524D01*
Y-189623D01*
X37454Y-189814D01*
X35315Y-187675D01*
X35346Y-187520D01*
X35224Y-186905D01*
X34876Y-186384D01*
X34355Y-186036D01*
X33740Y-185914D01*
X33126Y-186036D01*
X32605Y-186384D01*
X32257Y-186905D01*
X32135Y-187520D01*
X32257Y-188134D01*
X32605Y-188655D01*
X33126Y-189003D01*
X33740Y-189125D01*
X33896Y-189094D01*
X36341Y-191540D01*
Y-232754D01*
X36343Y-232761D01*
X36026Y-233148D01*
X35199D01*
Y-228765D01*
X35331Y-228677D01*
X35679Y-228156D01*
X35801Y-227542D01*
X35679Y-226927D01*
X35331Y-226406D01*
X34810Y-226058D01*
X34195Y-225936D01*
X33581Y-226058D01*
X33060Y-226406D01*
X32712Y-226927D01*
X32590Y-227542D01*
X32712Y-228156D01*
X33060Y-228677D01*
X33192Y-228765D01*
Y-234919D01*
X32424D01*
Y-235154D01*
X32246Y-235228D01*
X31830Y-234950D01*
Y-232601D01*
X31962Y-232513D01*
X32310Y-231992D01*
X32432Y-231378D01*
X32310Y-230764D01*
X31962Y-230243D01*
X31441Y-229894D01*
X30827Y-229772D01*
X30212Y-229894D01*
X29691Y-230243D01*
X29343Y-230764D01*
X29221Y-231378D01*
X29343Y-231992D01*
X29691Y-232513D01*
X29823Y-232601D01*
Y-235630D01*
X29823Y-235630D01*
X29823D01*
X29900Y-236014D01*
X30117Y-236339D01*
X31365Y-237588D01*
X31174Y-238050D01*
X30217D01*
X28720Y-236553D01*
Y-227916D01*
X28852Y-227828D01*
X29200Y-227307D01*
X29322Y-226693D01*
X29200Y-226079D01*
X28852Y-225557D01*
X28331Y-225209D01*
X27716Y-225087D01*
X27102Y-225209D01*
X26581Y-225557D01*
X26233Y-226079D01*
X26111Y-226693D01*
X26233Y-227307D01*
X26581Y-227828D01*
X26713Y-227916D01*
Y-236968D01*
X26789Y-237353D01*
X27007Y-237678D01*
X27282Y-237953D01*
X27136Y-238431D01*
X26905Y-238477D01*
X26384Y-238825D01*
X26036Y-239346D01*
X25914Y-239961D01*
X26036Y-240575D01*
X26159Y-240758D01*
X25923Y-241199D01*
X20099D01*
X12165Y-233266D01*
X12196Y-233110D01*
X12074Y-232496D01*
X11726Y-231975D01*
X11205Y-231627D01*
X10591Y-231505D01*
X9976Y-231627D01*
X9455Y-231975D01*
X9107Y-232496D01*
X8985Y-233110D01*
X9107Y-233725D01*
X9455Y-234246D01*
X9976Y-234594D01*
X10591Y-234716D01*
X10746Y-234685D01*
X18973Y-242912D01*
X19299Y-243130D01*
X19363Y-243143D01*
X19683Y-243206D01*
X34195D01*
X34203Y-243205D01*
X34589Y-243522D01*
Y-244349D01*
X18485D01*
X6476Y-232340D01*
Y-130691D01*
X16604Y-120563D01*
X16821Y-120238D01*
X16898Y-119854D01*
Y-104969D01*
X17666D01*
Y-101031D01*
X14123D01*
Y-101250D01*
X12942D01*
Y-101031D01*
X12374D01*
Y-99019D01*
X12942D01*
Y-98800D01*
X14732D01*
Y-95300D01*
X12942D01*
Y-95082D01*
X12374D01*
Y-92077D01*
X13532D01*
Y-87746D01*
X8808D01*
Y-92077D01*
X9966D01*
Y-95082D01*
X9398D01*
Y-99019D01*
X9966D01*
Y-101031D01*
X9398D01*
Y-104969D01*
X12942D01*
Y-104750D01*
X14123D01*
Y-104969D01*
X14891D01*
Y-119438D01*
X4763Y-129566D01*
X4545Y-129892D01*
X4469Y-130276D01*
X4469Y-130276D01*
X4469D01*
X4469Y-130276D01*
X4469D01*
Y-232756D01*
X4469Y-232756D01*
X4469D01*
X4545Y-233140D01*
X4763Y-233466D01*
X17359Y-246062D01*
X17685Y-246279D01*
X17749Y-246292D01*
X18069Y-246356D01*
X36361D01*
Y-247124D01*
X37916D01*
Y-247909D01*
X35529Y-250296D01*
X32798D01*
X32710Y-250164D01*
X32189Y-249816D01*
X31575Y-249694D01*
X30960Y-249816D01*
X30439Y-250164D01*
X30091Y-250685D01*
X29969Y-251299D01*
X30091Y-251914D01*
X30439Y-252435D01*
X30960Y-252783D01*
X31575Y-252905D01*
X32189Y-252783D01*
X32710Y-252435D01*
X32798Y-252303D01*
X35945D01*
X36329Y-252226D01*
X36654Y-252009D01*
X38468Y-250195D01*
X38909Y-250431D01*
X38889Y-250534D01*
X39011Y-251148D01*
X39359Y-251669D01*
X39880Y-252017D01*
X40494Y-252139D01*
X41109Y-252017D01*
X41630Y-251669D01*
X41746Y-251495D01*
X42225Y-251640D01*
Y-252380D01*
X40313Y-254291D01*
X40157Y-254260D01*
X39543Y-254383D01*
X39022Y-254731D01*
X38674Y-255252D01*
X38552Y-255866D01*
X38674Y-256481D01*
X39022Y-257001D01*
X39543Y-257350D01*
X40157Y-257472D01*
X40772Y-257350D01*
X41293Y-257001D01*
X41641Y-256481D01*
X41763Y-255866D01*
X41732Y-255711D01*
X43938Y-253505D01*
X44155Y-253179D01*
X44232Y-252795D01*
X44232Y-252795D01*
X44232Y-252795D01*
Y-252795D01*
Y-249685D01*
X44168Y-249365D01*
X44155Y-249301D01*
X43938Y-248975D01*
X43073Y-248110D01*
Y-247124D01*
X44628D01*
Y-246356D01*
X47141D01*
X48209Y-247424D01*
Y-257320D01*
X48077Y-257408D01*
X47729Y-257929D01*
X47607Y-258543D01*
X47729Y-259158D01*
X48077Y-259679D01*
X48598Y-260027D01*
X49213Y-260149D01*
X49827Y-260027D01*
X50348Y-259679D01*
X50696Y-259158D01*
X50818Y-258543D01*
X50696Y-257929D01*
X50348Y-257408D01*
X50216Y-257320D01*
Y-247008D01*
X50216Y-247008D01*
X50216Y-247008D01*
Y-247008D01*
X50216D01*
X50216Y-247008D01*
X50140Y-246624D01*
X49922Y-246298D01*
X48267Y-244643D01*
X47941Y-244425D01*
X47557Y-244349D01*
X46400D01*
Y-243522D01*
X46786Y-243205D01*
X46794Y-243206D01*
X58716D01*
X60264Y-244754D01*
Y-261564D01*
X60075Y-261753D01*
X59857Y-262079D01*
X59781Y-262463D01*
X59781Y-262463D01*
X59781D01*
X59781Y-262463D01*
X59781D01*
Y-294492D01*
X59496D01*
Y-295356D01*
X56854D01*
Y-294492D01*
X53311D01*
Y-294710D01*
X52129D01*
Y-294492D01*
X48586D01*
Y-294654D01*
X47162D01*
X46471Y-294791D01*
X45885Y-295183D01*
X42928Y-298139D01*
X42466Y-297948D01*
Y-281464D01*
X43462D01*
Y-276346D01*
X36375D01*
Y-277099D01*
X33076D01*
X32727Y-276865D01*
X31882Y-276697D01*
X31037Y-276865D01*
X30321Y-277344D01*
X29843Y-278060D01*
X29675Y-278905D01*
X29843Y-279750D01*
X30321Y-280466D01*
X31037Y-280945D01*
X31882Y-281113D01*
X32727Y-280945D01*
X33076Y-280712D01*
X36375D01*
Y-281464D01*
X38854D01*
Y-302962D01*
X38854Y-302962D01*
X38854D01*
Y-319679D01*
X36132D01*
Y-330861D01*
X39246D01*
Y-403750D01*
X38100D01*
Y-403532D01*
X36062D01*
X34212Y-401681D01*
Y-399698D01*
X34780D01*
Y-399480D01*
X36570D01*
Y-395980D01*
X34780D01*
Y-395761D01*
X34212D01*
Y-388795D01*
X34212Y-388795D01*
X34120Y-388334D01*
X33859Y-387944D01*
X33859Y-387944D01*
X31442Y-385526D01*
X31051Y-385265D01*
X30591Y-385174D01*
X30591Y-385174D01*
X25001D01*
X24540Y-385265D01*
X24384Y-385370D01*
X24149Y-385526D01*
X24149Y-385526D01*
X22929Y-386747D01*
X22667Y-387138D01*
X22576Y-387599D01*
X22576Y-387599D01*
Y-388983D01*
X22402D01*
Y-394101D01*
X25158D01*
Y-388983D01*
X24984D01*
Y-388098D01*
X25500Y-387582D01*
X30092D01*
X31804Y-389294D01*
Y-395761D01*
X31236D01*
Y-399698D01*
X31804D01*
Y-402180D01*
X31804Y-402180D01*
X31895Y-402641D01*
X32156Y-403031D01*
X34556Y-405431D01*
Y-407469D01*
X38100D01*
Y-407250D01*
X39246D01*
Y-409302D01*
X37126Y-411422D01*
X21181D01*
X20490Y-411559D01*
X19904Y-411951D01*
X16506Y-415349D01*
X16115Y-415935D01*
X15977Y-416626D01*
Y-417571D01*
X15618D01*
Y-422689D01*
X16057D01*
Y-425181D01*
X15698D01*
Y-430299D01*
X16084D01*
Y-432932D01*
X13362D01*
Y-441988D01*
X22418D01*
Y-440586D01*
X24850D01*
Y-441733D01*
X24632D01*
Y-445276D01*
X28569D01*
Y-444616D01*
X30780D01*
Y-445144D01*
X31209D01*
X31445Y-445584D01*
X31194Y-445960D01*
X31071Y-446575D01*
X31194Y-447189D01*
X31542Y-447710D01*
X32063Y-448058D01*
X32067Y-448059D01*
X32213Y-448538D01*
X31646Y-449104D01*
X31405Y-449465D01*
X31321Y-449890D01*
X31321Y-449890D01*
Y-451847D01*
X30580D01*
Y-452390D01*
X28569D01*
Y-451731D01*
X28350D01*
Y-450549D01*
X28569D01*
Y-447006D01*
X26761D01*
X26598Y-446974D01*
X22418D01*
Y-443720D01*
X13362D01*
Y-452775D01*
X13374D01*
Y-454507D01*
X13362D01*
Y-462883D01*
X13337Y-462944D01*
X13362Y-463005D01*
Y-463562D01*
X13747D01*
X14104Y-463710D01*
X30591D01*
X31043Y-463523D01*
X34494Y-460071D01*
X34554Y-459926D01*
X34654Y-459805D01*
X34644Y-459709D01*
X34681Y-459619D01*
X34621Y-459474D01*
X34606Y-459318D01*
X34389Y-458913D01*
X34658Y-458734D01*
X37066Y-456326D01*
X41582D01*
X42274Y-456189D01*
X42860Y-455797D01*
X44292Y-454365D01*
X44754Y-454556D01*
Y-458741D01*
X43734Y-459761D01*
X41566D01*
Y-463678D01*
X38360D01*
X38122Y-463321D01*
X37406Y-462842D01*
X36561Y-462674D01*
X35716Y-462842D01*
X35000Y-463321D01*
X34521Y-464037D01*
X34353Y-464882D01*
X34521Y-465727D01*
X34952Y-466371D01*
X34716Y-466812D01*
X31450D01*
Y-475375D01*
X26194D01*
Y-466812D01*
X22650D01*
Y-475375D01*
X12815D01*
Y-390721D01*
X13276Y-390530D01*
X15566Y-392820D01*
X15566Y-392820D01*
X15566D01*
X15566Y-392820D01*
X15566D01*
X15566Y-392820D01*
Y-392820D01*
Y-392820D01*
D01*
D01*
X15566D01*
Y-392820D01*
X16152Y-393211D01*
X16844Y-393349D01*
X18662D01*
Y-394101D01*
X18836D01*
Y-394992D01*
X18836Y-394992D01*
X18927Y-395453D01*
X19188Y-395844D01*
X20996Y-397651D01*
Y-399689D01*
X24539D01*
Y-399470D01*
X25674D01*
Y-401371D01*
X25311D01*
Y-406489D01*
X25674D01*
Y-407192D01*
X25441Y-407541D01*
X25273Y-408386D01*
X25441Y-409231D01*
X25919Y-409947D01*
X26635Y-410426D01*
X27480Y-410594D01*
X28325Y-410426D01*
X29041Y-409947D01*
X29520Y-409231D01*
X29688Y-408386D01*
X29520Y-407541D01*
X29287Y-407192D01*
Y-406489D01*
X29642D01*
Y-401371D01*
X29287D01*
Y-391582D01*
X29149Y-390891D01*
X28898Y-390515D01*
Y-388983D01*
X26142D01*
Y-390396D01*
X25811Y-390891D01*
X25674Y-391582D01*
Y-395970D01*
X24539D01*
Y-395752D01*
X22502D01*
X21244Y-394493D01*
Y-394101D01*
X21418D01*
Y-392669D01*
X21709Y-392234D01*
X21846Y-391542D01*
X21709Y-390851D01*
X21418Y-390416D01*
Y-388983D01*
X18662D01*
Y-389736D01*
X17592D01*
X15783Y-387927D01*
Y-352688D01*
X16109D01*
Y-352688D01*
X22408D01*
Y-335758D01*
X16109D01*
Y-342417D01*
X15946D01*
X15255Y-342554D01*
X14669Y-342946D01*
X13276Y-344338D01*
X12815Y-344147D01*
Y-246063D01*
X12738Y-245679D01*
X12521Y-245354D01*
X12195Y-245136D01*
X11811Y-245060D01*
X1003D01*
Y-52578D01*
X5906D01*
Y-52605D01*
X7293Y-52422D01*
X8586Y-51887D01*
X9696Y-51035D01*
X10548Y-49924D01*
X11084Y-48632D01*
X11266Y-47244D01*
X11084Y-45857D01*
X10548Y-44564D01*
X9696Y-43453D01*
X8586Y-42601D01*
X7293Y-42066D01*
X5906Y-41883D01*
Y-41910D01*
X1003D01*
Y-12380D01*
X8427D01*
Y-3718D01*
X1003D01*
Y-1003D01*
X81674D01*
Y-3789D01*
D02*
G37*
G36*
X71426Y-203230D02*
X71358Y-203394D01*
X71236Y-204319D01*
X71358Y-205244D01*
X71715Y-206106D01*
X72283Y-206846D01*
X73023Y-207414D01*
X73885Y-207771D01*
X74810Y-207893D01*
X75072Y-207858D01*
X77744Y-210530D01*
Y-211271D01*
X77295Y-211492D01*
X76597Y-210957D01*
X75735Y-210599D01*
X74810Y-210478D01*
X73885Y-210599D01*
X73023Y-210957D01*
X72283Y-211525D01*
X71715Y-212265D01*
X71358Y-213127D01*
X71236Y-214052D01*
X71355Y-214952D01*
X68454Y-217853D01*
X64855D01*
X64506Y-217620D01*
X63661Y-217452D01*
X62817Y-217620D01*
X62467Y-217853D01*
X60794D01*
Y-217711D01*
X60026D01*
Y-207762D01*
X59949Y-207378D01*
X59732Y-207053D01*
X57165Y-204486D01*
X57196Y-204331D01*
X57074Y-203716D01*
X56726Y-203195D01*
X56205Y-202847D01*
X56205Y-202847D01*
X56205D01*
Y-202847D01*
X56208Y-202815D01*
X71148D01*
X71426Y-203230D01*
D02*
G37*
G36*
X24850Y-451731D02*
X24632D01*
Y-455274D01*
X28569D01*
Y-454614D01*
X30580D01*
Y-455193D01*
X30800D01*
Y-456388D01*
X30800Y-456388D01*
X30800D01*
X30848Y-456504D01*
X30378Y-456974D01*
X17890D01*
X17199Y-457111D01*
X16613Y-457503D01*
X16221Y-458089D01*
X16084Y-458780D01*
X16221Y-459471D01*
X16613Y-460057D01*
X17199Y-460449D01*
X17890Y-460586D01*
X31127D01*
X31818Y-460449D01*
X32404Y-460057D01*
X33198Y-459263D01*
X33381D01*
X33806Y-459178D01*
X34042Y-459619D01*
X30591Y-463071D01*
X14104D01*
X13976Y-462944D01*
X14014Y-462907D01*
Y-452775D01*
X22418D01*
Y-450586D01*
X24850D01*
Y-451731D01*
D02*
G37*
G36*
X50000Y-441024D02*
X44961D01*
Y-441398D01*
X44499Y-441590D01*
X41609Y-438701D01*
Y-431063D01*
X41472Y-430372D01*
X41080Y-429786D01*
X40494Y-429394D01*
X39803Y-429257D01*
X39112Y-429394D01*
X38526Y-429786D01*
X38134Y-430372D01*
X37997Y-431063D01*
Y-437727D01*
X32650D01*
X31959Y-437864D01*
X31373Y-438256D01*
X30981Y-438842D01*
X30844Y-439533D01*
X30981Y-440225D01*
X31104Y-440408D01*
X31000Y-440602D01*
X31000D01*
X31000Y-440602D01*
Y-441797D01*
X30780D01*
Y-442392D01*
X28569D01*
Y-441733D01*
X28350D01*
Y-440552D01*
X28569D01*
Y-437008D01*
X26774D01*
X26600Y-436974D01*
X22418D01*
Y-432932D01*
X19696D01*
Y-430299D01*
X20029D01*
Y-428504D01*
X22391D01*
Y-430299D01*
X26722D01*
Y-428504D01*
X50000D01*
Y-441024D01*
D02*
G37*
G36*
X42876Y-411371D02*
Y-415838D01*
X42876Y-415838D01*
X42961Y-416264D01*
X43202Y-416625D01*
X48212Y-421635D01*
X47976Y-422076D01*
X47677Y-422016D01*
X47063Y-422139D01*
X46542Y-422487D01*
X46194Y-423008D01*
X46071Y-423622D01*
X46194Y-424236D01*
X46542Y-424757D01*
X47063Y-425105D01*
X47677Y-425228D01*
X47705Y-425222D01*
X49885Y-427403D01*
X49694Y-427865D01*
X26722D01*
X26270Y-428052D01*
X26083Y-428504D01*
Y-429660D01*
X23030D01*
Y-428504D01*
X22843Y-428052D01*
X22391Y-427865D01*
X20029D01*
Y-425181D01*
X19670D01*
Y-422689D01*
X19949D01*
Y-417571D01*
X19949D01*
X19949Y-417015D01*
X21929Y-415035D01*
X37874D01*
X38565Y-414897D01*
X39151Y-414506D01*
X42329Y-411328D01*
X42398Y-411225D01*
X42876Y-411371D01*
D02*
G37*
%LPC*%
G36*
X69252Y-225599D02*
X68638Y-225721D01*
X68117Y-226069D01*
X67769Y-226590D01*
X67646Y-227205D01*
X67769Y-227819D01*
X68117Y-228340D01*
X68248Y-228428D01*
Y-228954D01*
X59762Y-237441D01*
X59606Y-237410D01*
X58992Y-237532D01*
X58471Y-237880D01*
X58123Y-238401D01*
X58001Y-239016D01*
X58123Y-239630D01*
X58471Y-240151D01*
X58992Y-240499D01*
X59606Y-240621D01*
X60221Y-240499D01*
X60742Y-240151D01*
X61090Y-239630D01*
X61212Y-239016D01*
X61181Y-238860D01*
X69962Y-230080D01*
X70179Y-229754D01*
X70256Y-229370D01*
X70256Y-229370D01*
X70256Y-229370D01*
Y-229370D01*
Y-228428D01*
X70387Y-228340D01*
X70735Y-227819D01*
X70858Y-227205D01*
X70735Y-226590D01*
X70387Y-226069D01*
X69866Y-225721D01*
X69252Y-225599D01*
D02*
G37*
G36*
X56063Y-121505D02*
X55449Y-121627D01*
X54928Y-121975D01*
X54580Y-122496D01*
X54457Y-123110D01*
X54580Y-123725D01*
X54928Y-124246D01*
X55059Y-124334D01*
Y-126395D01*
X52734Y-128721D01*
X37874D01*
X37554Y-128785D01*
X37490Y-128797D01*
X37164Y-129015D01*
X31295Y-134884D01*
X30919Y-134554D01*
Y-134554D01*
X30919Y-134554D01*
D01*
X31514Y-133779D01*
X31970Y-132678D01*
X32126Y-131496D01*
X31970Y-130314D01*
X31514Y-129213D01*
X30788Y-128267D01*
X29842Y-127541D01*
X28741Y-127085D01*
X27559Y-126929D01*
X26377Y-127085D01*
X25276Y-127541D01*
X24330Y-128267D01*
X23604Y-129213D01*
X23148Y-130314D01*
X22992Y-131496D01*
X23148Y-132678D01*
X23604Y-133779D01*
X24330Y-134725D01*
X25276Y-135451D01*
X26377Y-135907D01*
X27559Y-136063D01*
X28741Y-135907D01*
X29842Y-135451D01*
X30617Y-134856D01*
X30947Y-135232D01*
X28305Y-137874D01*
X28150Y-137843D01*
X27535Y-137965D01*
X27014Y-138313D01*
X26666Y-138834D01*
X26544Y-139449D01*
X26666Y-140063D01*
X27014Y-140584D01*
X27535Y-140932D01*
X28150Y-141054D01*
X28764Y-140932D01*
X29285Y-140584D01*
X29633Y-140063D01*
X29755Y-139449D01*
X29724Y-139293D01*
X38290Y-130728D01*
X53150D01*
X53534Y-130651D01*
X53859Y-130434D01*
X56773Y-127521D01*
X56990Y-127195D01*
X57003Y-127131D01*
X57067Y-126811D01*
Y-124334D01*
X57198Y-124246D01*
X57546Y-123725D01*
X57669Y-123110D01*
X57546Y-122496D01*
X57198Y-121975D01*
X56677Y-121627D01*
X56063Y-121505D01*
D02*
G37*
G36*
X40302Y-111344D02*
X35971D01*
Y-116462D01*
X37133D01*
Y-116523D01*
X37210Y-116907D01*
X37427Y-117232D01*
X39960Y-119765D01*
X39960D01*
X39960Y-119765D01*
X39960D01*
X39960Y-119765D01*
Y-119765D01*
X39960Y-119765D01*
Y-119765D01*
X40285Y-119982D01*
X40669Y-120059D01*
X42970D01*
X43386Y-120474D01*
X43355Y-120630D01*
X43477Y-121244D01*
X43825Y-121765D01*
X44346Y-122113D01*
X44961Y-122236D01*
X45575Y-122113D01*
X46096Y-121765D01*
X46444Y-121244D01*
X46566Y-120630D01*
X46444Y-120016D01*
X46096Y-119495D01*
X45575Y-119147D01*
X44961Y-119024D01*
X44805Y-119055D01*
X44095Y-118345D01*
X43770Y-118128D01*
X43386Y-118052D01*
X41085D01*
X39957Y-116924D01*
X40148Y-116462D01*
X40302D01*
Y-111344D01*
D02*
G37*
G36*
X65518Y-125716D02*
X61581D01*
Y-126484D01*
X60128D01*
X60036Y-126503D01*
X59595Y-126415D01*
X58981Y-126537D01*
X58460Y-126885D01*
X58112Y-127406D01*
X57990Y-128021D01*
X58112Y-128635D01*
X58460Y-129156D01*
X58981Y-129504D01*
X59595Y-129626D01*
X60210Y-129504D01*
X60731Y-129156D01*
X61079Y-128635D01*
X61084Y-128610D01*
X61581Y-128658D01*
Y-129259D01*
X61800D01*
Y-130441D01*
X61581D01*
Y-132762D01*
X57613Y-136730D01*
X47025D01*
Y-135863D01*
X42694D01*
Y-139604D01*
Y-142950D01*
X47025D01*
Y-142071D01*
X61581D01*
Y-142840D01*
X61800D01*
Y-144021D01*
X61581D01*
Y-147564D01*
X62618D01*
Y-150391D01*
X62487Y-150479D01*
X62139Y-151000D01*
X62016Y-151614D01*
X62139Y-152229D01*
X62487Y-152750D01*
X63008Y-153098D01*
X63622Y-153220D01*
X64236Y-153098D01*
X64757Y-152750D01*
X65105Y-152229D01*
X65228Y-151614D01*
X65105Y-151000D01*
X64757Y-150479D01*
X64626Y-150391D01*
Y-147564D01*
X65518D01*
Y-144021D01*
X65300D01*
Y-142840D01*
X65518D01*
Y-139296D01*
X61581D01*
Y-140064D01*
X47025D01*
Y-139604D01*
Y-138737D01*
X58029D01*
X58413Y-138661D01*
X58738Y-138443D01*
X63198Y-133984D01*
X65518D01*
Y-130441D01*
X65300D01*
Y-129259D01*
X65518D01*
Y-125716D01*
D02*
G37*
G36*
X63357Y-344928D02*
X59026D01*
Y-349652D01*
X59990D01*
Y-353051D01*
X59331D01*
Y-353270D01*
X58149D01*
Y-353051D01*
X54606D01*
Y-356989D01*
X55174D01*
Y-358741D01*
X54696D01*
Y-360231D01*
X54611Y-360660D01*
Y-364436D01*
X54378Y-364785D01*
X54210Y-365630D01*
X54378Y-366475D01*
X54856Y-367191D01*
X55572Y-367670D01*
X56417Y-367838D01*
X57262Y-367670D01*
X57978Y-367191D01*
X58457Y-366475D01*
X58625Y-365630D01*
X58457Y-364785D01*
X58224Y-364436D01*
Y-362679D01*
X58239D01*
Y-362460D01*
X60030D01*
Y-358960D01*
X58239D01*
Y-358741D01*
X57582D01*
Y-356989D01*
X58149D01*
Y-356770D01*
X59331D01*
Y-356989D01*
X62874D01*
Y-353051D01*
X62214D01*
Y-349652D01*
X63357D01*
Y-344928D01*
D02*
G37*
G36*
X28898Y-376779D02*
X26142D01*
Y-381897D01*
X28898D01*
Y-380542D01*
X32570D01*
Y-381016D01*
X32790D01*
Y-382212D01*
X32840Y-382162D01*
X36090D01*
Y-381016D01*
X36310D01*
Y-377670D01*
X32570D01*
Y-378133D01*
X28898D01*
Y-376779D01*
D02*
G37*
G36*
X27471Y-319679D02*
X18416D01*
Y-330861D01*
X27471D01*
Y-327687D01*
X27933Y-327495D01*
X30838Y-330400D01*
Y-335758D01*
X29495D01*
Y-342417D01*
X29341D01*
X28650Y-342554D01*
X28064Y-342946D01*
X25179Y-345830D01*
X24788Y-346416D01*
X24650Y-347107D01*
Y-351497D01*
X22503Y-353644D01*
X22111Y-354230D01*
X21974Y-354922D01*
Y-359158D01*
X22111Y-359849D01*
X22402Y-360284D01*
Y-361717D01*
X22576D01*
Y-368803D01*
X22402D01*
Y-372920D01*
X21940Y-373111D01*
X21418Y-372589D01*
Y-368803D01*
X18662D01*
Y-373921D01*
X19344D01*
X22402Y-376979D01*
Y-381897D01*
X25158D01*
Y-376979D01*
X28216Y-373921D01*
X28898D01*
Y-368803D01*
X26142D01*
Y-372589D01*
X25620Y-373111D01*
X25158Y-372920D01*
Y-368803D01*
X24984D01*
Y-361717D01*
X25158D01*
Y-360284D01*
X25449Y-359849D01*
X25586Y-359158D01*
Y-355670D01*
X27734Y-353522D01*
X28126Y-352936D01*
X28263Y-352245D01*
X28263Y-352245D01*
X28263Y-352245D01*
Y-352245D01*
Y-347856D01*
X29033Y-347086D01*
X29495Y-347277D01*
Y-352688D01*
X35794D01*
Y-335758D01*
X34451D01*
Y-329652D01*
X34313Y-328961D01*
X33922Y-328375D01*
X29539Y-323993D01*
X28953Y-323601D01*
X28262Y-323464D01*
X27471D01*
Y-319679D01*
D02*
G37*
G36*
X18980Y-266972D02*
X15680D01*
Y-268167D01*
X15460D01*
Y-271514D01*
X16641D01*
X16648Y-271519D01*
X17340Y-271656D01*
X25591D01*
Y-272012D01*
X30709D01*
Y-271656D01*
X36375D01*
Y-272409D01*
X43462D01*
Y-271656D01*
X53236D01*
X53927Y-271519D01*
X54513Y-271127D01*
X54905Y-270541D01*
X55042Y-269850D01*
X54905Y-269159D01*
X54513Y-268573D01*
X53927Y-268181D01*
X53236Y-268044D01*
X43462D01*
Y-267291D01*
X36375D01*
Y-268044D01*
X30709D01*
Y-267681D01*
X25591D01*
Y-268044D01*
X18980D01*
Y-266972D01*
D02*
G37*
G36*
X58958Y-312822D02*
X58343Y-312945D01*
X57822Y-313293D01*
X57474Y-313814D01*
X57352Y-314428D01*
X57474Y-315042D01*
X57822Y-315563D01*
X57954Y-315651D01*
Y-330161D01*
X57186D01*
Y-334099D01*
X57954D01*
Y-336706D01*
X53473Y-341188D01*
X50365D01*
Y-345912D01*
X54695D01*
Y-342804D01*
X59667Y-337832D01*
X59885Y-337506D01*
X59898Y-337442D01*
X59961Y-337122D01*
Y-334099D01*
X60729D01*
Y-333880D01*
X61911D01*
Y-334099D01*
X65454D01*
Y-332305D01*
X65489Y-332130D01*
Y-326989D01*
X65351Y-326298D01*
X64960Y-325712D01*
X64373Y-325320D01*
X63682Y-325183D01*
X62991Y-325320D01*
X62405Y-325712D01*
X62013Y-326298D01*
X61876Y-326989D01*
Y-330380D01*
X60729D01*
Y-330161D01*
X59961D01*
Y-315651D01*
X60093Y-315563D01*
X60441Y-315042D01*
X60563Y-314428D01*
X60441Y-313814D01*
X60093Y-313293D01*
X59572Y-312945D01*
X58958Y-312822D01*
D02*
G37*
G36*
X46601Y-111344D02*
X42271D01*
Y-116462D01*
X46601D01*
Y-115452D01*
X60576D01*
Y-116308D01*
X64119D01*
Y-116090D01*
X65910D01*
Y-112590D01*
X64119D01*
Y-112372D01*
X60576D01*
Y-113228D01*
X46601D01*
Y-111344D01*
D02*
G37*
G36*
Y-46274D02*
X42271D01*
Y-51392D01*
X46601D01*
Y-50002D01*
X60576D01*
Y-50858D01*
X64119D01*
Y-50640D01*
X65910D01*
Y-47140D01*
X64119D01*
Y-46922D01*
X60576D01*
Y-47778D01*
X46601D01*
Y-46274D01*
D02*
G37*
G36*
X40302D02*
X35971D01*
Y-51392D01*
X37133D01*
Y-52589D01*
X35017Y-54705D01*
X34137D01*
X34049Y-54573D01*
X33528Y-54225D01*
X32913Y-54103D01*
X32299Y-54225D01*
X31778Y-54573D01*
X31430Y-55094D01*
X31308Y-55709D01*
X31430Y-56323D01*
X31778Y-56844D01*
X32299Y-57192D01*
X32913Y-57314D01*
X33528Y-57192D01*
X34049Y-56844D01*
X34137Y-56712D01*
X35433D01*
X35817Y-56636D01*
X36143Y-56418D01*
X38846Y-53715D01*
X39064Y-53389D01*
X39140Y-53005D01*
Y-51392D01*
X40302D01*
Y-46274D01*
D02*
G37*
G36*
X15947Y-16744D02*
X12010D01*
Y-31310D01*
X12550D01*
Y-33071D01*
X12191D01*
Y-38189D01*
X13203D01*
Y-47812D01*
X13033Y-47982D01*
X12641Y-48568D01*
X12504Y-49260D01*
Y-53985D01*
X11948D01*
Y-58315D01*
X16672D01*
Y-53985D01*
X16116D01*
Y-50430D01*
X16683D01*
Y-50210D01*
X17878D01*
Y-46910D01*
X16816D01*
Y-36283D01*
X16679Y-35592D01*
X16522Y-35357D01*
Y-33071D01*
X16163D01*
Y-24405D01*
X16025Y-23714D01*
X15947Y-23596D01*
Y-16744D01*
D02*
G37*
G36*
X55118Y-30473D02*
X53936Y-30628D01*
X52835Y-31085D01*
X51889Y-31810D01*
X51163Y-32756D01*
X50707Y-33858D01*
X50551Y-35039D01*
X50707Y-36221D01*
X51163Y-37323D01*
X51889Y-38269D01*
X52835Y-38994D01*
X53936Y-39450D01*
X55118Y-39606D01*
X56300Y-39450D01*
X57402Y-38994D01*
X58347Y-38269D01*
X59073Y-37323D01*
X59529Y-36221D01*
X59685Y-35039D01*
X59529Y-33858D01*
X59073Y-32756D01*
X58347Y-31810D01*
X57402Y-31085D01*
X56300Y-30628D01*
X55118Y-30473D01*
D02*
G37*
G36*
X49923Y-3718D02*
X42443D01*
Y-12380D01*
X49923D01*
Y-3718D01*
D02*
G37*
G36*
X59012Y-3789D02*
X51531D01*
Y-12451D01*
X59012D01*
Y-3789D01*
D02*
G37*
G36*
X39569Y-16744D02*
X35632D01*
Y-31310D01*
X36597D01*
Y-31816D01*
X36496Y-31898D01*
X35882Y-32021D01*
X35361Y-32369D01*
X35013Y-32890D01*
X34890Y-33504D01*
X35013Y-34118D01*
X35361Y-34639D01*
X35882Y-34987D01*
X36496Y-35110D01*
X37110Y-34987D01*
X37631Y-34639D01*
X37980Y-34118D01*
X38102Y-33504D01*
X38071Y-33348D01*
X38310Y-33109D01*
X38527Y-32784D01*
X38604Y-32400D01*
Y-31310D01*
X39569D01*
Y-16744D01*
D02*
G37*
G36*
X40292Y-67864D02*
X35961D01*
Y-72982D01*
X37815D01*
Y-79761D01*
X37683Y-79849D01*
X37336Y-80370D01*
X37213Y-80984D01*
X37336Y-81599D01*
X37683Y-82120D01*
X38204Y-82468D01*
X38819Y-82590D01*
X39433Y-82468D01*
X39954Y-82120D01*
X40302Y-81599D01*
X40424Y-80984D01*
X40302Y-80370D01*
X39954Y-79849D01*
X39822Y-79761D01*
Y-72982D01*
X40292D01*
Y-67864D01*
D02*
G37*
G36*
X46601Y-89514D02*
X42271D01*
Y-94632D01*
X46601D01*
Y-93073D01*
X60576D01*
Y-94038D01*
X64119D01*
Y-93820D01*
X65910D01*
Y-90320D01*
X64119D01*
Y-90101D01*
X60576D01*
Y-91066D01*
X46601D01*
Y-89514D01*
D02*
G37*
G36*
X40302D02*
X35971D01*
Y-94632D01*
X37133D01*
Y-98334D01*
X37133Y-98334D01*
X37133D01*
X37210Y-98718D01*
X37427Y-99043D01*
X41221Y-102837D01*
X41190Y-102992D01*
X41312Y-103607D01*
X41660Y-104128D01*
X42181Y-104476D01*
X42795Y-104598D01*
X43410Y-104476D01*
X43931Y-104128D01*
X44279Y-103607D01*
X44401Y-102992D01*
X44279Y-102378D01*
X43931Y-101857D01*
X43410Y-101509D01*
X42795Y-101386D01*
X42640Y-101417D01*
X39140Y-97918D01*
Y-94632D01*
X40302D01*
Y-89514D01*
D02*
G37*
G36*
X46591Y-67864D02*
X42261D01*
Y-72982D01*
X46591D01*
Y-71572D01*
X60576D01*
Y-72429D01*
X64119D01*
Y-72210D01*
X65910D01*
Y-68710D01*
X64119D01*
Y-68492D01*
X60576D01*
Y-69348D01*
X46591D01*
Y-67864D01*
D02*
G37*
G36*
X21852Y-16744D02*
X17915D01*
Y-31310D01*
X18880D01*
Y-36537D01*
X18957Y-36921D01*
X19174Y-37247D01*
X21477Y-39549D01*
Y-58776D01*
X21345Y-58865D01*
X20997Y-59386D01*
X20875Y-60000D01*
X20997Y-60615D01*
X21345Y-61135D01*
X21866Y-61483D01*
X22480Y-61606D01*
X23095Y-61483D01*
X23616Y-61135D01*
X23964Y-60615D01*
X24086Y-60000D01*
X23964Y-59386D01*
X23616Y-58865D01*
X23484Y-58776D01*
Y-39134D01*
X23407Y-38750D01*
X23190Y-38424D01*
X20887Y-36122D01*
Y-31310D01*
X21852D01*
Y-16744D01*
D02*
G37*
G36*
X27758D02*
X23821D01*
Y-31310D01*
X24786D01*
Y-62693D01*
X22754Y-64724D01*
X22598Y-64694D01*
X21984Y-64816D01*
X21463Y-65164D01*
X21115Y-65685D01*
X20993Y-66299D01*
X21115Y-66914D01*
X21463Y-67435D01*
X21984Y-67783D01*
X22598Y-67905D01*
X23213Y-67783D01*
X23734Y-67435D01*
X24082Y-66914D01*
X24204Y-66299D01*
X24173Y-66144D01*
X26499Y-63818D01*
X26716Y-63492D01*
X26793Y-63108D01*
X26793Y-63108D01*
X26793Y-63108D01*
Y-63108D01*
Y-31310D01*
X27758D01*
Y-16744D01*
D02*
G37*
G36*
X20412Y-62646D02*
X15688D01*
Y-66977D01*
X16236D01*
Y-69900D01*
X15089D01*
Y-69682D01*
X13052D01*
X11774Y-68403D01*
Y-66977D01*
X12932D01*
Y-62646D01*
X8208D01*
Y-66977D01*
X9366D01*
Y-68902D01*
X9366Y-68902D01*
X9457Y-69363D01*
X9718Y-69754D01*
X11546Y-71581D01*
Y-73619D01*
X12114D01*
Y-79658D01*
X12113Y-79658D01*
X12205Y-80119D01*
X12466Y-80509D01*
X12548Y-80591D01*
Y-83415D01*
X17272D01*
Y-79085D01*
X14522D01*
Y-73619D01*
X15089D01*
Y-73400D01*
X16186D01*
Y-75420D01*
X15952Y-75769D01*
X15784Y-76614D01*
X15952Y-77459D01*
X16431Y-78175D01*
X17147Y-78654D01*
X17992Y-78822D01*
X18837Y-78654D01*
X19553Y-78175D01*
X20032Y-77459D01*
X20200Y-76614D01*
X20032Y-75769D01*
X19798Y-75420D01*
Y-73619D01*
X19814D01*
Y-71825D01*
X19849Y-71650D01*
Y-66977D01*
X20412D01*
Y-62646D01*
D02*
G37*
%LPD*%
D10*
X22943Y-325270D02*
D03*
X40660D02*
D03*
D11*
X32283Y-207677D02*
D03*
Y-177953D02*
D03*
X50394Y-207677D02*
D03*
Y-177953D02*
D03*
D12*
X37600Y-24027D02*
D03*
X31695D02*
D03*
X25789D02*
D03*
X19884D02*
D03*
X13978D02*
D03*
X63736Y-24098D02*
D03*
X69642D02*
D03*
D13*
X4687Y-8049D02*
D03*
X46183D02*
D03*
X55272Y-8120D02*
D03*
X78067D02*
D03*
D14*
X14356Y-35630D02*
D03*
X7664D02*
D03*
X17784Y-420130D02*
D03*
X24476D02*
D03*
X44436Y-48833D02*
D03*
X38137D02*
D03*
X44426Y-70423D02*
D03*
X38127D02*
D03*
X44436Y-92073D02*
D03*
X38137D02*
D03*
X44436Y-113903D02*
D03*
X38137D02*
D03*
X20784Y-403930D02*
D03*
X27477D02*
D03*
X17864Y-427740D02*
D03*
X24556D02*
D03*
D15*
X61191Y-347290D02*
D03*
X52530Y-343550D02*
D03*
D16*
X61191Y-339810D02*
D03*
D17*
X74810Y-194340D02*
D03*
Y-175140D02*
D03*
Y-214052D02*
D03*
Y-184520D02*
D03*
Y-204319D02*
D03*
D18*
X32644Y-344223D02*
D03*
X19259D02*
D03*
D19*
X38560Y-141080D02*
D03*
X44859D02*
D03*
X38560Y-137733D02*
D03*
X44859D02*
D03*
D20*
X46794Y-242203D02*
D03*
Y-235904D02*
D03*
X34195D02*
D03*
Y-242203D02*
D03*
D21*
X46400Y-240628D02*
D03*
Y-239053D02*
D03*
Y-237478D02*
D03*
X34589D02*
D03*
Y-239053D02*
D03*
Y-240628D02*
D03*
D22*
X43644Y-232754D02*
D03*
X37345D02*
D03*
Y-245352D02*
D03*
X43644D02*
D03*
D23*
X42069Y-233148D02*
D03*
X40494D02*
D03*
X38920D02*
D03*
Y-244959D02*
D03*
X40494D02*
D03*
X42069D02*
D03*
D24*
X40494Y-239053D02*
D03*
D25*
X39918Y-260795D02*
D03*
Y-269850D02*
D03*
Y-278905D02*
D03*
D26*
X64722Y-269850D02*
D03*
D27*
X42414Y-471340D02*
D03*
X30603D02*
D03*
X32572D02*
D03*
X34540D02*
D03*
X36509D02*
D03*
X38477D02*
D03*
X40446D02*
D03*
X44383D02*
D03*
X46351D02*
D03*
X48320D02*
D03*
X50288D02*
D03*
X52257D02*
D03*
D28*
X24422D02*
D03*
X58438D02*
D03*
D29*
X15010Y-48560D02*
D03*
X18947D02*
D03*
X61260Y-302680D02*
D03*
X65197D02*
D03*
X64220Y-186580D02*
D03*
X60283D02*
D03*
D30*
X20040Y-379338D02*
D03*
X27520D02*
D03*
X23780D02*
D03*
Y-391542D02*
D03*
X27520D02*
D03*
X20040D02*
D03*
X27520Y-371362D02*
D03*
X20040D02*
D03*
X23780D02*
D03*
Y-359158D02*
D03*
X20040D02*
D03*
X27520D02*
D03*
D31*
X11170Y-97050D02*
D03*
X15894D02*
D03*
X18042Y-71650D02*
D03*
X13318D02*
D03*
X11170Y-103000D02*
D03*
X15894D02*
D03*
X63682Y-332130D02*
D03*
X58958D02*
D03*
X36328Y-405500D02*
D03*
X41052D02*
D03*
X37732Y-397730D02*
D03*
X33008D02*
D03*
X61102Y-355020D02*
D03*
X56378D02*
D03*
X27492Y-397720D02*
D03*
X22768D02*
D03*
X61192Y-360710D02*
D03*
X56468D02*
D03*
X43338Y-461730D02*
D03*
X48062D02*
D03*
X67072Y-114340D02*
D03*
X62348D02*
D03*
X67072Y-92070D02*
D03*
X62348D02*
D03*
X67072Y-70460D02*
D03*
X62348D02*
D03*
X67072Y-48890D02*
D03*
X62348D02*
D03*
X34258Y-169340D02*
D03*
X38982D02*
D03*
X59022Y-219680D02*
D03*
X54298D02*
D03*
X68492Y-39450D02*
D03*
X63768D02*
D03*
X55082Y-296460D02*
D03*
X50358D02*
D03*
X65992D02*
D03*
X61268D02*
D03*
X59595Y-193380D02*
D03*
X64320D02*
D03*
D32*
X38718Y-454520D02*
D03*
Y-447040D02*
D03*
Y-450780D02*
D03*
X50922D02*
D03*
Y-447040D02*
D03*
Y-454520D02*
D03*
D33*
X61813Y-411956D02*
D03*
Y-378416D02*
D03*
D34*
X59254Y-411956D02*
D03*
X56695D02*
D03*
X54136D02*
D03*
X61813Y-433216D02*
D03*
X59254D02*
D03*
X56695D02*
D03*
X54136D02*
D03*
X59254Y-378416D02*
D03*
X56695D02*
D03*
X54136D02*
D03*
X61813Y-399676D02*
D03*
X59254D02*
D03*
X56695D02*
D03*
X54136D02*
D03*
D35*
X32450Y-453520D02*
D03*
Y-457457D02*
D03*
X32650Y-443470D02*
D03*
Y-439533D02*
D03*
X17330Y-269840D02*
D03*
Y-265903D02*
D03*
X34440Y-383280D02*
D03*
Y-379343D02*
D03*
D36*
X11170Y-89911D02*
D03*
X14910Y-81250D02*
D03*
X10570Y-64811D02*
D03*
X14310Y-56150D02*
D03*
D37*
X18650Y-89911D02*
D03*
X18050Y-64811D02*
D03*
D38*
X26600Y-438780D02*
D03*
Y-443504D02*
D03*
Y-448778D02*
D03*
Y-453502D02*
D03*
X63550Y-132212D02*
D03*
Y-127488D02*
D03*
Y-141068D02*
D03*
Y-145792D02*
D03*
D39*
X28150Y-269847D02*
D03*
Y-263154D02*
D03*
D40*
X17890Y-437460D02*
D03*
Y-448247D02*
D03*
Y-459035D02*
D03*
D41*
X46794Y-242203D02*
X59132D01*
X61268Y-244339D01*
Y-261980D02*
Y-244339D01*
X60785Y-262463D02*
X61268Y-261980D01*
X60785Y-295977D02*
Y-262463D01*
Y-295977D02*
X61268Y-296460D01*
X58958Y-332130D02*
Y-314428D01*
Y-337122D02*
Y-332130D01*
X52530Y-343550D02*
X58958Y-337122D01*
X46400Y-240628D02*
X53900D01*
X54921Y-239606D01*
X59022Y-219680D02*
X59043Y-219659D01*
X59595Y-219107D01*
X46794Y-235904D02*
X50750D01*
X59022Y-227631D01*
Y-219680D01*
X46400Y-237478D02*
X51144D01*
X65709Y-222913D01*
X73543D01*
X43644Y-232754D02*
X49486D01*
X63622Y-151614D02*
Y-145864D01*
X63550Y-145792D02*
X63622Y-145864D01*
X42069Y-233148D02*
Y-230254D01*
X43858Y-228465D01*
X47520D01*
X59595Y-128021D02*
X60128Y-127488D01*
X63550D01*
X50394Y-215776D02*
X54298Y-219680D01*
X50394Y-215776D02*
Y-207677D01*
X54921Y-225472D02*
Y-220304D01*
X54298Y-219680D02*
X54921Y-220304D01*
X40494Y-250534D02*
Y-244959D01*
X59606Y-239016D02*
X69252Y-229370D01*
Y-227205D01*
Y-199173D02*
Y-194528D01*
X68005Y-193280D02*
X69252Y-194528D01*
X64220Y-193280D02*
X68005D01*
X33858Y-168940D02*
X34258Y-169340D01*
X33858Y-142480D02*
X35259Y-141080D01*
X38560D01*
X33858Y-168940D02*
Y-142480D01*
X18069Y-245352D02*
X37345D01*
X5472Y-232756D02*
X18069Y-245352D01*
X5472Y-232756D02*
Y-130276D01*
X15894Y-119854D01*
Y-103000D01*
X32675Y-237478D02*
X34589D01*
X30827Y-235630D02*
X32675Y-237478D01*
X30827Y-235630D02*
Y-231378D01*
X34195Y-235904D02*
Y-227542D01*
X38137Y-113903D02*
X38234D01*
X44439Y-92070D02*
X62348D01*
X74810Y-206178D02*
X78747Y-210115D01*
X73543Y-222913D02*
X78747Y-217710D01*
Y-210115D01*
X74810Y-206178D02*
Y-204319D01*
X80079Y-45039D02*
Y-42795D01*
X76733Y-39450D02*
X80079Y-42795D01*
X38137Y-98334D02*
X42795Y-102992D01*
X38137Y-98334D02*
Y-92073D01*
X43386Y-119055D02*
X44961Y-120630D01*
X40669Y-119055D02*
X43386D01*
X38137Y-116523D02*
X40669Y-119055D01*
X38137Y-116523D02*
Y-113903D01*
X29801Y-239053D02*
X34589D01*
X27716Y-236968D02*
X29801Y-239053D01*
X27716Y-236968D02*
Y-226693D01*
X38819Y-80984D02*
Y-71115D01*
X38127Y-70423D02*
X38819Y-71115D01*
X19683Y-242203D02*
X34195D01*
X10591Y-233110D02*
X19683Y-242203D01*
X32913Y-55709D02*
X35433D01*
X38137Y-53005D01*
Y-48833D01*
X68492Y-39450D02*
X76733D01*
X38982Y-169340D02*
X40494Y-170852D01*
Y-233148D02*
Y-170852D01*
X38920Y-233148D02*
Y-177109D01*
X36496Y-174685D02*
X38920Y-177109D01*
X36496Y-33504D02*
X37600Y-32400D01*
Y-24027D01*
X37345Y-232754D02*
Y-191124D01*
X33740Y-187520D02*
X37345Y-191124D01*
X22480Y-60000D02*
Y-39134D01*
X19884Y-36537D02*
X22480Y-39134D01*
X19884Y-36537D02*
Y-24027D01*
X22598Y-66299D02*
X25789Y-63108D01*
Y-24027D01*
X42069Y-248526D02*
Y-244959D01*
Y-248526D02*
X43228Y-249685D01*
Y-252795D02*
Y-249685D01*
X40157Y-255866D02*
X43228Y-252795D01*
X38920Y-248324D02*
Y-244959D01*
X35945Y-251299D02*
X38920Y-248324D01*
X31575Y-251299D02*
X35945D01*
X28150Y-139449D02*
X37874Y-129724D01*
X53150D01*
X56063Y-126811D01*
Y-123110D01*
X55984Y-43583D02*
X60117Y-39450D01*
X63768D01*
Y-24129D01*
X63736Y-24098D02*
X63768Y-24129D01*
X49213Y-258543D02*
Y-247008D01*
X47557Y-245352D02*
X49213Y-247008D01*
X43644Y-245352D02*
X47557D01*
X74810Y-198182D02*
Y-194340D01*
X71181Y-201811D02*
X74810Y-198182D01*
X49646Y-201811D02*
X71181D01*
X28187Y-240628D02*
X34589D01*
X27520Y-239961D02*
X28187Y-240628D01*
X59022Y-219680D02*
Y-207762D01*
X55590Y-204331D02*
X59022Y-207762D01*
X55590Y-196181D02*
X58392Y-193380D01*
X59595D01*
X50394Y-207677D02*
Y-205343D01*
X47677Y-202626D02*
X50394Y-205343D01*
X47677Y-202626D02*
Y-199843D01*
X50394Y-197126D01*
Y-177953D01*
X58029Y-137733D02*
X63550Y-132212D01*
X44859Y-137733D02*
X58029D01*
X44871Y-141068D02*
X63550D01*
X44859Y-141080D02*
X44871Y-141068D01*
D42*
X55090Y-296468D02*
X61260D01*
Y-302680D02*
Y-296468D01*
X61102Y-355020D02*
Y-347379D01*
X26600Y-443504D02*
X32616D01*
X26600Y-453502D02*
X32432D01*
X35283Y-447040D02*
X38718D01*
X32432Y-449890D02*
X35283Y-447040D01*
X32432Y-453502D02*
Y-449890D01*
X43338Y-461730D02*
X45866Y-459202D01*
X47173Y-447040D02*
X50922D01*
X45866Y-448347D02*
X47173Y-447040D01*
X45866Y-459202D02*
Y-448347D01*
X61813Y-433216D02*
Y-411956D01*
X50922Y-450780D02*
X54023D01*
X54136Y-411956D02*
Y-399676D01*
X50922Y-454520D02*
X54456D01*
X34811Y-450780D02*
X38718D01*
X32616Y-446514D02*
X32677Y-446575D01*
X32616Y-446514D02*
Y-443504D01*
X61813Y-399676D02*
X63652D01*
X61813Y-411956D02*
X63832D01*
X66378Y-409410D02*
Y-402402D01*
X63832Y-411956D02*
X66378Y-409410D01*
X63652Y-399676D02*
X66378Y-402402D01*
X63652Y-399676D02*
X66339Y-396989D01*
Y-381299D01*
X63455Y-378416D02*
X66339Y-381299D01*
X61813Y-378416D02*
X63455D01*
X54456Y-454520D02*
X57441Y-451535D01*
X54136Y-441183D02*
Y-433216D01*
Y-441183D02*
X57441Y-444488D01*
Y-451535D02*
Y-444488D01*
X54023Y-450780D02*
X55079Y-449724D01*
Y-446535D01*
X52323Y-443780D02*
X55079Y-446535D01*
X54136Y-433216D02*
Y-425986D01*
X43988Y-415838D02*
X54136Y-425986D01*
X43988Y-415838D02*
Y-388563D01*
X54136Y-378416D01*
X52323Y-443780D02*
Y-428268D01*
X47677Y-423622D02*
X52323Y-428268D01*
X47677Y-414409D02*
X50131Y-411956D01*
X54136D01*
X64220Y-186580D02*
X66280Y-184520D01*
X64220Y-193280D02*
Y-186580D01*
Y-193280D02*
X64320Y-193380D01*
X66280Y-184520D02*
X74810D01*
X44873Y-114340D02*
X62348D01*
X44493Y-48890D02*
X62348D01*
X44463Y-70460D02*
X62348D01*
D43*
X17992Y-76614D02*
Y-71700D01*
X31882Y-278905D02*
X39918D01*
X18042Y-71650D02*
Y-64819D01*
X40660Y-302962D02*
Y-279647D01*
X17340Y-269850D02*
X39918D01*
X56417Y-365630D02*
Y-360660D01*
X63682Y-332130D02*
Y-326989D01*
X39918Y-269850D02*
X53236D01*
X40660Y-325270D02*
Y-302962D01*
X47162Y-296460D01*
X50358D01*
X40660Y-325270D02*
X41052Y-325662D01*
Y-405500D02*
Y-325662D01*
X32644Y-344223D02*
Y-329652D01*
X28262Y-325270D02*
X32644Y-329652D01*
X22943Y-325270D02*
X28262D01*
X26457Y-352245D02*
Y-347107D01*
X29341Y-344223D01*
X32644D01*
X23780Y-354922D02*
X26457Y-352245D01*
X23780Y-359158D02*
Y-354922D01*
X13976Y-388675D02*
Y-346193D01*
X15946Y-344223D01*
X19259D01*
X13976Y-388675D02*
X16844Y-391542D01*
X20040D01*
X41052Y-410050D02*
Y-405500D01*
X37874Y-413228D02*
X41052Y-410050D01*
X21181Y-413228D02*
X37874D01*
X17784Y-416626D02*
X21181Y-413228D01*
X17784Y-420130D02*
Y-416626D01*
X17890Y-438780D02*
X26600D01*
X17890Y-448780D02*
X26598D01*
X17890Y-458780D02*
X31127D01*
X32450Y-457457D01*
X33381D01*
X36317Y-454520D01*
X38718D01*
X41582D01*
X43307Y-452795D01*
Y-442953D01*
X17890Y-438780D02*
Y-427767D01*
X17864Y-427740D02*
Y-420210D01*
X27480Y-408386D02*
Y-391582D01*
X32650Y-439533D02*
X39888D01*
X43307Y-442953D01*
X39803Y-439685D02*
Y-431063D01*
X59043Y-219659D02*
X63661D01*
X69202D01*
X74810Y-214052D01*
X14310Y-56150D02*
Y-49260D01*
X15010Y-48560D01*
Y-36283D01*
X14356Y-35630D02*
X15010Y-36283D01*
X14356Y-35630D02*
Y-24405D01*
X13978Y-24027D02*
X14356Y-24405D01*
D44*
X13318Y-79658D02*
X14910Y-81250D01*
X13318Y-79658D02*
Y-71650D01*
X10570Y-68902D02*
Y-64811D01*
Y-68902D02*
X13318Y-71650D01*
X11170Y-103000D02*
Y-89911D01*
X56378Y-360620D02*
Y-355020D01*
X25001Y-386378D02*
X30591D01*
X23780Y-387599D02*
X25001Y-386378D01*
X23780Y-391542D02*
Y-387599D01*
X33008Y-402180D02*
Y-388795D01*
X30591Y-386378D02*
X33008Y-388795D01*
Y-402180D02*
X36328Y-405500D01*
X23780Y-371362D02*
Y-359158D01*
X20040Y-372914D02*
Y-371362D01*
Y-372914D02*
X23780Y-376654D01*
X27520Y-372914D02*
Y-371362D01*
X23780Y-376654D02*
X27520Y-372914D01*
X23780Y-379338D02*
Y-376654D01*
X20040Y-394992D02*
Y-391542D01*
Y-394992D02*
X22768Y-397720D01*
X27520Y-379338D02*
X34434D01*
X36561Y-464882D02*
X44644D01*
X36561Y-471288D02*
Y-464882D01*
X36509Y-471340D02*
Y-471288D01*
X44644Y-464882D02*
X46351Y-466589D01*
Y-471340D02*
Y-466589D01*
X56695Y-411956D02*
X59254D01*
X56695Y-399676D02*
X59254D01*
X56695Y-411956D02*
Y-399676D01*
X59254Y-411956D02*
Y-405865D01*
Y-399676D01*
D45*
X56695Y-433216D02*
Y-424214D01*
X56693Y-386575D02*
Y-378417D01*
X59254Y-389053D02*
Y-378416D01*
Y-372876D01*
X56695D02*
X59254D01*
X56695Y-378416D02*
Y-372876D01*
X59254Y-438187D02*
Y-433216D01*
X56695Y-440197D02*
Y-433216D01*
Y-440197D02*
X59254D01*
Y-433216D01*
D46*
X63661Y-219659D02*
D03*
X17992Y-76614D02*
D03*
X31882Y-278905D02*
D03*
X56417Y-365630D02*
D03*
X27480Y-408386D02*
D03*
X36561Y-464882D02*
D03*
X47874Y-430669D02*
D03*
X43465Y-433898D02*
D03*
X46968Y-390905D02*
D03*
Y-409410D02*
D03*
Y-401260D02*
D03*
X67165Y-366890D02*
D03*
X45039Y-370590D02*
D03*
Y-375630D02*
D03*
Y-381535D02*
D03*
X62283Y-366890D02*
D03*
X46968Y-396339D02*
D03*
X32323Y-417165D02*
D03*
X32047Y-424409D02*
D03*
X40748Y-415827D02*
D03*
X15236Y-413858D02*
D03*
X19961Y-385472D02*
D03*
X20039Y-365197D02*
D03*
X27441Y-365118D02*
D03*
X19331Y-287638D02*
D03*
X30158Y-288032D02*
D03*
X19331Y-297520D02*
D03*
X30158D02*
D03*
X19331Y-305827D02*
D03*
X30158Y-305472D02*
D03*
X19331Y-314449D02*
D03*
X30158Y-314370D02*
D03*
X38937Y-461417D02*
D03*
X39567Y-430945D02*
D03*
D47*
X57205Y-172283D02*
D03*
X58958Y-314428D02*
D03*
X63661Y-326969D02*
D03*
X53236Y-269850D02*
D03*
X56653Y-424173D02*
D03*
X56693Y-386575D02*
D03*
X59254Y-389053D02*
D03*
X34811Y-450780D02*
D03*
X32677Y-446575D02*
D03*
X2441Y-15827D02*
D03*
X3268Y-25197D02*
D03*
X2913Y-40472D02*
D03*
X74016Y-43780D02*
D03*
X46024Y-35984D02*
D03*
X53189Y-60984D02*
D03*
X61535Y-87087D02*
D03*
X54016Y-104646D02*
D03*
X10748Y-113504D02*
D03*
X8071Y-161457D02*
D03*
X74016Y-240709D02*
D03*
X62520Y-214134D02*
D03*
X42992Y-214055D02*
D03*
X75945Y-157874D02*
D03*
X40905Y-124764D02*
D03*
X55748Y-262559D02*
D03*
X20787Y-277913D02*
D03*
X33150Y-274252D02*
D03*
X45709Y-290354D02*
D03*
X67559Y-338976D02*
D03*
X67874Y-309842D02*
D03*
X62638Y-457087D02*
D03*
X66850Y-457126D02*
D03*
X58701D02*
D03*
X66850Y-461299D02*
D03*
X51575Y-313228D02*
D03*
X47638Y-354803D02*
D03*
Y-360591D02*
D03*
X35315Y-357441D02*
D03*
X35197Y-371024D02*
D03*
X36575Y-388583D02*
D03*
X14528Y-396260D02*
D03*
X15512Y-410000D02*
D03*
X32795Y-409449D02*
D03*
X38819Y-420079D02*
D03*
Y-424764D02*
D03*
X43780Y-420039D02*
D03*
Y-424882D02*
D03*
X29685Y-157165D02*
D03*
X30394Y-35512D02*
D03*
X49213Y-144803D02*
D03*
X47677Y-423622D02*
D03*
Y-414409D02*
D03*
X39134Y-240394D02*
D03*
Y-237717D02*
D03*
X41693Y-240394D02*
D03*
Y-237717D02*
D03*
X54921Y-239606D02*
D03*
X59488Y-233740D02*
D03*
X49486Y-232754D02*
D03*
X63622Y-151614D02*
D03*
X47520Y-228465D02*
D03*
X59595Y-128021D02*
D03*
X54921Y-225472D02*
D03*
X49213Y-258543D02*
D03*
X40494Y-250534D02*
D03*
X59606Y-239016D02*
D03*
X69252Y-227205D02*
D03*
Y-199173D02*
D03*
X30827Y-231378D02*
D03*
X34195Y-227542D02*
D03*
X44961Y-120630D02*
D03*
X80079Y-45039D02*
D03*
X74810Y-214052D02*
D03*
X42795Y-102992D02*
D03*
X27716Y-226693D02*
D03*
X38819Y-80984D02*
D03*
X10591Y-233110D02*
D03*
X32913Y-55709D02*
D03*
X36496Y-174685D02*
D03*
Y-33504D02*
D03*
X33740Y-187520D02*
D03*
X22480Y-60000D02*
D03*
X22598Y-66299D02*
D03*
X40157Y-255866D02*
D03*
X31575Y-251299D02*
D03*
X28150Y-139449D02*
D03*
X56063Y-123110D02*
D03*
X55984Y-43583D02*
D03*
X34488Y-221890D02*
D03*
X56575Y-247362D02*
D03*
X49646Y-201811D02*
D03*
X27520Y-239961D02*
D03*
X55590Y-204331D02*
D03*
Y-196181D02*
D03*
X46384Y-250506D02*
D03*
X36772Y-253465D02*
D03*
X32953Y-259409D02*
D03*
X33150Y-247835D02*
D03*
X23110Y-257638D02*
D03*
M02*
