%FSLAX25Y25*%
%MOIN*%
G70*
G01*
G75*
%ADD10R,0.07874X0.10000*%
%ADD11R,0.02756X0.06102*%
%ADD12R,0.02756X0.13386*%
%ADD13R,0.06299X0.07480*%
%ADD14R,0.03150X0.03937*%
%ADD15R,0.03150X0.03543*%
%ADD16R,0.03150X0.03543*%
%ADD17C,0.05906*%
%ADD18R,0.05118X0.15748*%
%ADD19R,0.03150X0.02559*%
%ADD20R,0.02362X0.00787*%
%ADD21R,0.03150X0.00787*%
%ADD22R,0.00787X0.02362*%
%ADD23R,0.00787X0.03150*%
%ADD24R,0.05118X0.05118*%
%ADD25R,0.05906X0.03937*%
%ADD26R,0.05906X0.12992*%
%ADD27R,0.01063X0.07874*%
%ADD28R,0.02362X0.07874*%
%ADD29R,0.02165X0.02559*%
%ADD30R,0.01575X0.03937*%
%ADD31R,0.02362X0.02756*%
%ADD32R,0.03937X0.01575*%
%ADD33R,0.01181X0.07874*%
%ADD34O,0.01181X0.07874*%
%ADD35R,0.02559X0.02165*%
%ADD36R,0.03543X0.03150*%
%ADD37R,0.03543X0.03150*%
%ADD38R,0.02756X0.02362*%
%ADD39R,0.03937X0.03150*%
%ADD40R,0.07874X0.07874*%
%ADD41C,0.00787*%
%ADD42C,0.01000*%
%ADD43C,0.02362*%
%ADD44C,0.01181*%
%ADD45C,0.01575*%
%ADD46C,0.03150*%
%ADD47C,0.01969*%
%ADD48C,0.00591*%
%ADD49C,0.00197*%
%ADD50C,0.00600*%
%ADD51C,0.00500*%
%ADD52C,0.00394*%
%ADD53C,0.01200*%
%ADD54C,0.00709*%
D41*
X5892Y-33159D02*
G03*
X5892Y-38101I3706J-2471D01*
G01*
X16128D02*
G03*
X16128Y-33159I-3706J2471D01*
G01*
X26248Y-422601D02*
G03*
X26248Y-417659I-3706J2471D01*
G01*
X16012D02*
G03*
X16012Y-422601I3706J-2471D01*
G01*
X47660Y-246061D02*
G03*
X47660Y-246061I-394J0D01*
G01*
X18280Y-389940D02*
G03*
X18280Y-389940I-394J0D01*
G01*
X49714Y-456674D02*
G03*
X49714Y-456674I-394J0D01*
G01*
X30067Y-360760D02*
G03*
X30067Y-360760I-394J0D01*
G01*
X29248Y-406401D02*
G03*
X29248Y-401459I-3706J2471D01*
G01*
X19012D02*
G03*
X19012Y-406401I3706J-2471D01*
G01*
X30621Y-261382D02*
G03*
X25679Y-261382I-2471J-3706D01*
G01*
Y-271618D02*
G03*
X30621Y-271618I2471J3706D01*
G01*
X26328Y-430211D02*
G03*
X26328Y-425269I-3706J2471D01*
G01*
X16092D02*
G03*
X16092Y-430211I3706J-2471D01*
G01*
X53248Y-204626D02*
Y-181004D01*
X29626Y-204626D02*
X53248D01*
X29626D02*
Y-181004D01*
X53248D01*
X5892Y-38101D02*
X9829D01*
X5892Y-33159D02*
X9829D01*
X12191Y-38101D02*
X16128D01*
X12191Y-33159D02*
X16128D01*
X52530Y-348668D02*
X58160D01*
X52530Y-338432D02*
X58199D01*
X52530Y-348668D02*
Y-346306D01*
Y-340794D02*
Y-338432D01*
X22311Y-417659D02*
X26248D01*
X22311Y-422601D02*
X26248D01*
X16012Y-417659D02*
X19949D01*
X16012Y-422601D02*
X19949D01*
X35774Y-46077D02*
X46759D01*
X35774Y-51589D02*
Y-46077D01*
Y-51589D02*
X46759D01*
X47428Y-50959D02*
Y-46077D01*
X46759Y-51589D02*
Y-46077D01*
X47428Y-51549D02*
Y-50959D01*
X47389Y-51589D02*
X47428Y-51549D01*
X46759Y-51589D02*
X47389D01*
X45223Y-46077D02*
X47428D01*
X35765Y-67667D02*
X46749D01*
X35765Y-73179D02*
Y-67667D01*
Y-73179D02*
X46749D01*
X47418Y-72549D02*
Y-67667D01*
X46749Y-73179D02*
Y-67667D01*
X47418Y-73139D02*
Y-72549D01*
X47379Y-73179D02*
X47418Y-73139D01*
X46749Y-73179D02*
X47379D01*
X45213Y-67667D02*
X47418D01*
X35774Y-89317D02*
X46759D01*
X35774Y-94829D02*
Y-89317D01*
Y-94829D02*
X46759D01*
X47428Y-94199D02*
Y-89317D01*
X46759Y-94829D02*
Y-89317D01*
X47428Y-94789D02*
Y-94199D01*
X47389Y-94829D02*
X47428Y-94789D01*
X46759Y-94829D02*
X47389D01*
X45223Y-89317D02*
X47428D01*
X35774Y-111147D02*
X46759D01*
X35774Y-116659D02*
Y-111147D01*
Y-116659D02*
X46759D01*
X47428Y-116029D02*
Y-111147D01*
X46759Y-116659D02*
Y-111147D01*
X47428Y-116619D02*
Y-116029D01*
X47389Y-116659D02*
X47428Y-116619D01*
X46759Y-116659D02*
X47389D01*
X45223Y-111147D02*
X47428D01*
X40922Y-139505D02*
X42497Y-137930D01*
X40922Y-139505D02*
X42497Y-141080D01*
X35804Y-143049D02*
Y-135568D01*
X35017Y-143049D02*
Y-135568D01*
X47615Y-143049D02*
Y-135568D01*
X42497Y-141080D02*
Y-137930D01*
X35017Y-135568D02*
X47615D01*
X35017Y-143049D02*
X47615D01*
X45233Y-255283D02*
X45430Y-255086D01*
X59407Y-284220D02*
Y-268708D01*
X45233Y-284417D02*
X59367D01*
X45233D02*
Y-255283D01*
X45430Y-255086D02*
X59367D01*
X59407Y-269850D02*
Y-255047D01*
X9792Y-86880D02*
Y-81250D01*
X20028Y-86919D02*
Y-81250D01*
X9792D02*
X12154D01*
X17666D02*
X20028D01*
X9192Y-61780D02*
Y-56150D01*
X19428Y-61819D02*
Y-56150D01*
X9192D02*
X11554D01*
X17066D02*
X19428D01*
X25311Y-401459D02*
X29248D01*
X25311Y-406401D02*
X29248D01*
X19012Y-401459D02*
X22949D01*
X19012Y-406401D02*
X22949D01*
X25679Y-265319D02*
Y-261382D01*
X30621Y-265319D02*
Y-261382D01*
X25679Y-271618D02*
Y-267681D01*
X30621Y-271618D02*
Y-267681D01*
X22391Y-425269D02*
X26328D01*
X22391Y-430211D02*
X26328D01*
X16092Y-425269D02*
X20029D01*
X16092Y-430211D02*
X20029D01*
D42*
X17660Y-331569D02*
Y-318971D01*
D48*
X10572Y-22446D02*
G03*
X10575Y-22549I-1652J-103D01*
G01*
X72829Y-22626D02*
G03*
X72820Y-22420I2271J206D01*
G01*
X62394Y-420275D02*
G03*
X62394Y-420275I-781J0D01*
G01*
Y-386735D02*
G03*
X62394Y-386735I-781J0D01*
G01*
X42467Y-48833D02*
Y-48833D01*
X40775Y-50526D02*
X42467Y-48833D01*
X40775Y-50526D02*
Y-47100D01*
X42467Y-48794D01*
X42457Y-70423D02*
Y-70423D01*
X40764Y-72116D02*
X42457Y-70423D01*
X40764Y-72116D02*
Y-68691D01*
X42457Y-70384D01*
X42467Y-92073D02*
Y-92073D01*
X40775Y-93766D02*
X42467Y-92073D01*
X40775Y-93766D02*
Y-90341D01*
X42467Y-92033D01*
Y-113903D02*
Y-113903D01*
X40775Y-115596D02*
X42467Y-113903D01*
X40775Y-115596D02*
Y-112171D01*
X42467Y-113864D01*
X46400Y-244959D02*
Y-243266D01*
X44746Y-244959D02*
X46400D01*
X34589D02*
X36242D01*
X34589D02*
Y-243305D01*
Y-233148D02*
X36242D01*
X34589Y-234801D02*
Y-233148D01*
X44746D02*
X46400D01*
Y-234801D02*
Y-233148D01*
X22808Y-466537D02*
X60170D01*
Y-475356D02*
Y-466537D01*
X22808Y-475395D02*
Y-466537D01*
X9398Y-95082D02*
X12745D01*
X9398Y-99019D02*
Y-95082D01*
Y-99019D02*
X12745D01*
X14319Y-95082D02*
X17666D01*
Y-99019D02*
Y-95082D01*
X14319Y-99019D02*
X17666D01*
X16467Y-73619D02*
X19814D01*
Y-69682D01*
X16467D02*
X19814D01*
X11546Y-73619D02*
X14893D01*
X11546D02*
Y-69682D01*
X14893D01*
X9398Y-101031D02*
X12745D01*
X9398Y-104969D02*
Y-101031D01*
Y-104969D02*
X12745D01*
X14319Y-101031D02*
X17666D01*
Y-104969D02*
Y-101031D01*
X14319Y-104969D02*
X17666D01*
X28569Y-440355D02*
Y-437008D01*
X24632D02*
X28569D01*
X24632Y-440355D02*
Y-437008D01*
X28569Y-445276D02*
Y-441930D01*
X24632Y-445276D02*
X28569D01*
X24632D02*
Y-441930D01*
X28569Y-450353D02*
Y-447006D01*
X24632D02*
X28569D01*
X24632Y-450353D02*
Y-447006D01*
X28569Y-455274D02*
Y-451927D01*
X24632Y-455274D02*
X28569D01*
X24632D02*
Y-451927D01*
X62107Y-334099D02*
X65454D01*
Y-330161D01*
X62107D02*
X65454D01*
X57186Y-334099D02*
X60533D01*
X57186D02*
Y-330161D01*
X60533D01*
X34556Y-403532D02*
X37903D01*
X34556Y-407469D02*
Y-403532D01*
Y-407469D02*
X37903D01*
X39477Y-403532D02*
X42824D01*
Y-407469D02*
Y-403532D01*
X39477Y-407469D02*
X42824D01*
X36157Y-399698D02*
X39504D01*
Y-395761D01*
X36157D02*
X39504D01*
X31236Y-399698D02*
X34583D01*
X31236D02*
Y-395761D01*
X34583D01*
X59527Y-356989D02*
X62874D01*
Y-353051D01*
X59527D02*
X62874D01*
X54606Y-356989D02*
X57953D01*
X54606D02*
Y-353051D01*
X57953D01*
X25917Y-399689D02*
X29264D01*
Y-395752D01*
X25917D02*
X29264D01*
X20996Y-399689D02*
X24343D01*
X20996D02*
Y-395752D01*
X24343D01*
X59617Y-362679D02*
X62964D01*
Y-358741D01*
X59617D02*
X62964D01*
X54696Y-362679D02*
X58043D01*
X54696D02*
Y-358741D01*
X58043D01*
X41566Y-459761D02*
X44913D01*
X41566Y-463698D02*
Y-459761D01*
Y-463698D02*
X44913D01*
X46487Y-459761D02*
X49834D01*
Y-463698D02*
Y-459761D01*
X46487Y-463698D02*
X49834D01*
X65497Y-116308D02*
X68844D01*
Y-112372D01*
X65497D02*
X68844D01*
X60576Y-116308D02*
X63923D01*
X60576D02*
Y-112372D01*
X63923D01*
X65497Y-94038D02*
X68844D01*
Y-90101D01*
X65497D02*
X68844D01*
X60576Y-94038D02*
X63923D01*
X60576D02*
Y-90101D01*
X63923D01*
X61581Y-133984D02*
Y-130637D01*
Y-133984D02*
X65518D01*
Y-130637D01*
X61581Y-129063D02*
Y-125716D01*
X65518D01*
Y-129063D02*
Y-125716D01*
X65497Y-72429D02*
X68844D01*
Y-68492D01*
X65497D02*
X68844D01*
X60576Y-72429D02*
X63923D01*
X60576D02*
Y-68492D01*
X63923D01*
X65518Y-142643D02*
Y-139296D01*
X61581D02*
X65518D01*
X61581Y-142643D02*
Y-139296D01*
X65518Y-147564D02*
Y-144217D01*
X61581Y-147564D02*
X65518D01*
X61581D02*
Y-144217D01*
X65497Y-50858D02*
X68844D01*
Y-46922D01*
X65497D02*
X68844D01*
X60576Y-50858D02*
X63923D01*
X60576D02*
Y-46922D01*
X63923D01*
X32486Y-167371D02*
X35833D01*
X32486Y-171309D02*
Y-167371D01*
Y-171309D02*
X35833D01*
X37407Y-167371D02*
X40754D01*
Y-171309D02*
Y-167371D01*
X37407Y-171309D02*
X40754D01*
X57447Y-221649D02*
X60794D01*
Y-217711D01*
X57447D02*
X60794D01*
X52526Y-221649D02*
X55873D01*
X52526D02*
Y-217711D01*
X55873D01*
X66917Y-41418D02*
X70264D01*
Y-37481D01*
X66917D02*
X70264D01*
X61996Y-41418D02*
X65343D01*
X61996D02*
Y-37481D01*
X65343D01*
X53507Y-298429D02*
X56854D01*
Y-294492D01*
X53507D02*
X56854D01*
X48586Y-298429D02*
X51933D01*
X48586D02*
Y-294492D01*
X51933D01*
X64417Y-298429D02*
X67764D01*
Y-294492D01*
X64417D02*
X67764D01*
X59496Y-298429D02*
X62843D01*
X59496D02*
Y-294492D01*
X62843D01*
X57824Y-191411D02*
X61170D01*
X57824Y-195349D02*
Y-191411D01*
Y-195349D02*
X61170D01*
X62745Y-191411D02*
X66091D01*
Y-195349D02*
Y-191411D01*
X62745Y-195349D02*
X66091D01*
X49173Y-246143D02*
Y-248110D01*
X49567Y-248504D01*
X50354D01*
X50748Y-248110D01*
Y-246143D01*
X53109D02*
X52322Y-246536D01*
X51535Y-247323D01*
Y-248110D01*
X51928Y-248504D01*
X52715D01*
X53109Y-248110D01*
Y-247717D01*
X52715Y-247323D01*
X51535D01*
X14215Y-470544D02*
Y-472512D01*
X14609Y-472905D01*
X15396D01*
X15789Y-472512D01*
Y-470544D01*
X18151D02*
X16577D01*
Y-471725D01*
X17364Y-471331D01*
X17757D01*
X18151Y-471725D01*
Y-472512D01*
X17757Y-472905D01*
X16970D01*
X16577Y-472512D01*
X61268Y-258229D02*
Y-260197D01*
X61661Y-260591D01*
X62449D01*
X62842Y-260197D01*
Y-258229D01*
X64810Y-260591D02*
Y-258229D01*
X63629Y-259410D01*
X65203D01*
X64370Y-421142D02*
Y-423110D01*
X64764Y-423504D01*
X65551D01*
X65944Y-423110D01*
Y-421142D01*
X66732Y-421536D02*
X67125Y-421142D01*
X67912D01*
X68306Y-421536D01*
Y-421930D01*
X67912Y-422323D01*
X67519D01*
X67912D01*
X68306Y-422717D01*
Y-423110D01*
X67912Y-423504D01*
X67125D01*
X66732Y-423110D01*
X12992Y-384607D02*
Y-386575D01*
X13386Y-386968D01*
X14173D01*
X14566Y-386575D01*
Y-384607D01*
X16928Y-386968D02*
X15354D01*
X16928Y-385394D01*
Y-385001D01*
X16534Y-384607D01*
X15747D01*
X15354Y-385001D01*
X48150Y-441812D02*
Y-443780D01*
X48543Y-444173D01*
X49330D01*
X49724Y-443780D01*
Y-441812D01*
X50511Y-444173D02*
X51298D01*
X50905D01*
Y-441812D01*
X50511Y-442205D01*
X25157Y-189804D02*
X24763Y-189410D01*
X23976D01*
X23583Y-189804D01*
Y-190197D01*
X23976Y-190591D01*
X24763D01*
X25157Y-190984D01*
Y-191378D01*
X24763Y-191772D01*
X23976D01*
X23583Y-191378D01*
X25944Y-191772D02*
X26731D01*
X26338D01*
Y-189410D01*
X25944Y-189804D01*
X57921Y-199132D02*
Y-196771D01*
X59102D01*
X59496Y-197164D01*
Y-197951D01*
X59102Y-198345D01*
X57921D01*
X58709D02*
X59496Y-199132D01*
X61857D02*
X60283D01*
X61857Y-197558D01*
Y-197164D01*
X61464Y-196771D01*
X60676D01*
X60283Y-197164D01*
X64219Y-196771D02*
X63432Y-197164D01*
X62644Y-197951D01*
Y-198739D01*
X63038Y-199132D01*
X63825D01*
X64219Y-198739D01*
Y-198345D01*
X63825Y-197951D01*
X62644D01*
X60710Y-293107D02*
Y-290746D01*
X61891D01*
X62284Y-291139D01*
Y-291926D01*
X61891Y-292320D01*
X60710D01*
X61497D02*
X62284Y-293107D01*
X64646D02*
X63072D01*
X64646Y-291533D01*
Y-291139D01*
X64252Y-290746D01*
X63465D01*
X63072Y-291139D01*
X67007Y-290746D02*
X65433D01*
Y-291926D01*
X66220Y-291533D01*
X66614D01*
X67007Y-291926D01*
Y-292713D01*
X66614Y-293107D01*
X65827D01*
X65433Y-292713D01*
X49915Y-292861D02*
Y-290500D01*
X51095D01*
X51489Y-290894D01*
Y-291681D01*
X51095Y-292074D01*
X49915D01*
X50702D02*
X51489Y-292861D01*
X53851D02*
X52276D01*
X53851Y-291287D01*
Y-290894D01*
X53457Y-290500D01*
X52670D01*
X52276Y-290894D01*
X55818Y-292861D02*
Y-290500D01*
X54638Y-291681D01*
X56212D01*
X72008Y-37835D02*
Y-35473D01*
X73189D01*
X73582Y-35867D01*
Y-36654D01*
X73189Y-37047D01*
X72008D01*
X72795D02*
X73582Y-37835D01*
X75944D02*
X74369D01*
X75944Y-36260D01*
Y-35867D01*
X75550Y-35473D01*
X74763D01*
X74369Y-35867D01*
X76731D02*
X77124Y-35473D01*
X77912D01*
X78305Y-35867D01*
Y-36260D01*
X77912Y-36654D01*
X77518D01*
X77912D01*
X78305Y-37047D01*
Y-37441D01*
X77912Y-37835D01*
X77124D01*
X76731Y-37441D01*
X44551Y-220827D02*
Y-218465D01*
X45732D01*
X46126Y-218859D01*
Y-219646D01*
X45732Y-220040D01*
X44551D01*
X45338D02*
X46126Y-220827D01*
X48487D02*
X46913D01*
X48487Y-219252D01*
Y-218859D01*
X48094Y-218465D01*
X47306D01*
X46913Y-218859D01*
X50849Y-220827D02*
X49274D01*
X50849Y-219252D01*
Y-218859D01*
X50455Y-218465D01*
X49668D01*
X49274Y-218859D01*
X25079Y-170158D02*
Y-167796D01*
X26259D01*
X26653Y-168190D01*
Y-168977D01*
X26259Y-169370D01*
X25079D01*
X25866D02*
X26653Y-170158D01*
X29015D02*
X27440D01*
X29015Y-168583D01*
Y-168190D01*
X28621Y-167796D01*
X27834D01*
X27440Y-168190D01*
X29802Y-170158D02*
X30589D01*
X30195D01*
Y-167796D01*
X29802Y-168190D01*
X71181Y-50591D02*
Y-48229D01*
X72362D01*
X72755Y-48623D01*
Y-49410D01*
X72362Y-49803D01*
X71181D01*
X71968D02*
X72755Y-50591D01*
X75117D02*
X73542D01*
X75117Y-49016D01*
Y-48623D01*
X74723Y-48229D01*
X73936D01*
X73542Y-48623D01*
X75904D02*
X76298Y-48229D01*
X77085D01*
X77478Y-48623D01*
Y-50197D01*
X77085Y-50591D01*
X76298D01*
X75904Y-50197D01*
Y-48623D01*
X66969Y-143347D02*
Y-140985D01*
X68149D01*
X68543Y-141379D01*
Y-142166D01*
X68149Y-142559D01*
X66969D01*
X67756D02*
X68543Y-143347D01*
X69330D02*
X70117D01*
X69723D01*
Y-140985D01*
X69330Y-141379D01*
X71298Y-142953D02*
X71691Y-143347D01*
X72478D01*
X72872Y-142953D01*
Y-141379D01*
X72478Y-140985D01*
X71691D01*
X71298Y-141379D01*
Y-141772D01*
X71691Y-142166D01*
X72872D01*
X61428Y-76618D02*
Y-74257D01*
X62609D01*
X63003Y-74650D01*
Y-75437D01*
X62609Y-75831D01*
X61428D01*
X62216D02*
X63003Y-76618D01*
X63790D02*
X64577D01*
X64183D01*
Y-74257D01*
X63790Y-74650D01*
X65758D02*
X66151Y-74257D01*
X66939D01*
X67332Y-74650D01*
Y-75044D01*
X66939Y-75437D01*
X67332Y-75831D01*
Y-76224D01*
X66939Y-76618D01*
X66151D01*
X65758Y-76224D01*
Y-75831D01*
X66151Y-75437D01*
X65758Y-75044D01*
Y-74650D01*
X66151Y-75437D02*
X66939D01*
X66496Y-130905D02*
Y-128544D01*
X67677D01*
X68070Y-128938D01*
Y-129725D01*
X67677Y-130118D01*
X66496D01*
X67283D02*
X68070Y-130905D01*
X68858D02*
X69645D01*
X69251D01*
Y-128544D01*
X68858Y-128938D01*
X70825Y-128544D02*
X72400D01*
Y-128938D01*
X70825Y-130512D01*
Y-130905D01*
X61794Y-98786D02*
Y-96425D01*
X62974D01*
X63368Y-96819D01*
Y-97606D01*
X62974Y-97999D01*
X61794D01*
X62581D02*
X63368Y-98786D01*
X64155D02*
X64942D01*
X64549D01*
Y-96425D01*
X64155Y-96819D01*
X67697Y-96425D02*
X66910Y-96819D01*
X66123Y-97606D01*
Y-98393D01*
X66516Y-98786D01*
X67304D01*
X67697Y-98393D01*
Y-97999D01*
X67304Y-97606D01*
X66123D01*
X70433Y-115276D02*
Y-112914D01*
X71614D01*
X72007Y-113308D01*
Y-114095D01*
X71614Y-114488D01*
X70433D01*
X71220D02*
X72007Y-115276D01*
X72795D02*
X73582D01*
X73188D01*
Y-112914D01*
X72795Y-113308D01*
X76337Y-112914D02*
X74762D01*
Y-114095D01*
X75550Y-113701D01*
X75943D01*
X76337Y-114095D01*
Y-114882D01*
X75943Y-115276D01*
X75156D01*
X74762Y-114882D01*
X51051Y-462756D02*
Y-460394D01*
X52231D01*
X52625Y-460788D01*
Y-461575D01*
X52231Y-461969D01*
X51051D01*
X51838D02*
X52625Y-462756D01*
X53412D02*
X54199D01*
X53806D01*
Y-460394D01*
X53412Y-460788D01*
X56954Y-462756D02*
X55380D01*
X56954Y-461182D01*
Y-460788D01*
X56560Y-460394D01*
X55773D01*
X55380Y-460788D01*
X24016Y-458780D02*
Y-456419D01*
X25196D01*
X25590Y-456812D01*
Y-457599D01*
X25196Y-457993D01*
X24016D01*
X24803D02*
X25590Y-458780D01*
X26377D02*
X27164D01*
X26771D01*
Y-456419D01*
X26377Y-456812D01*
X28345Y-458780D02*
X29132D01*
X28739D01*
Y-456419D01*
X28345Y-456812D01*
X1811Y-104528D02*
Y-102166D01*
X2992D01*
X3385Y-102560D01*
Y-103347D01*
X2992Y-103740D01*
X1811D01*
X2598D02*
X3385Y-104528D01*
X4172D02*
X4960D01*
X4566D01*
Y-102166D01*
X4172Y-102560D01*
X6140D02*
X6534Y-102166D01*
X7321D01*
X7715Y-102560D01*
Y-104134D01*
X7321Y-104528D01*
X6534D01*
X6140Y-104134D01*
Y-102560D01*
X4800Y-72636D02*
Y-70275D01*
X5981D01*
X6374Y-70669D01*
Y-71456D01*
X5981Y-71849D01*
X4800D01*
X5587D02*
X6374Y-72636D01*
X7162Y-72243D02*
X7555Y-72636D01*
X8342D01*
X8736Y-72243D01*
Y-70669D01*
X8342Y-70275D01*
X7555D01*
X7162Y-70669D01*
Y-71062D01*
X7555Y-71456D01*
X8736D01*
X64549Y-361317D02*
Y-358956D01*
X65729D01*
X66123Y-359350D01*
Y-360137D01*
X65729Y-360530D01*
X64549D01*
X65336D02*
X66123Y-361317D01*
X66910Y-359350D02*
X67304Y-358956D01*
X68091D01*
X68484Y-359350D01*
Y-359743D01*
X68091Y-360137D01*
X68484Y-360530D01*
Y-360924D01*
X68091Y-361317D01*
X67304D01*
X66910Y-360924D01*
Y-360530D01*
X67304Y-360137D01*
X66910Y-359743D01*
Y-359350D01*
X67304Y-360137D02*
X68091D01*
X25674Y-435206D02*
Y-432845D01*
X26855D01*
X27248Y-433238D01*
Y-434025D01*
X26855Y-434419D01*
X25674D01*
X26461D02*
X27248Y-435206D01*
X29610Y-432845D02*
X28822Y-433238D01*
X28035Y-434025D01*
Y-434813D01*
X28429Y-435206D01*
X29216D01*
X29610Y-434813D01*
Y-434419D01*
X29216Y-434025D01*
X28035D01*
X64169Y-356452D02*
Y-354091D01*
X65350D01*
X65744Y-354485D01*
Y-355272D01*
X65350Y-355665D01*
X64169D01*
X64956D02*
X65744Y-356452D01*
X68105Y-354091D02*
X66531D01*
Y-355272D01*
X67318Y-354878D01*
X67712D01*
X68105Y-355272D01*
Y-356059D01*
X67712Y-356452D01*
X66924D01*
X66531Y-356059D01*
X3351Y-98561D02*
Y-96199D01*
X4532D01*
X4925Y-96593D01*
Y-97380D01*
X4532Y-97774D01*
X3351D01*
X4138D02*
X4925Y-98561D01*
X6893D02*
Y-96199D01*
X5712Y-97380D01*
X7287D01*
X35276Y-394213D02*
Y-391851D01*
X36456D01*
X36850Y-392245D01*
Y-393032D01*
X36456Y-393425D01*
X35276D01*
X36063D02*
X36850Y-394213D01*
X37637Y-392245D02*
X38031Y-391851D01*
X38818D01*
X39211Y-392245D01*
Y-392638D01*
X38818Y-393032D01*
X38424D01*
X38818D01*
X39211Y-393425D01*
Y-393819D01*
X38818Y-394213D01*
X38031D01*
X37637Y-393819D01*
X37126Y-411422D02*
Y-409061D01*
X38306D01*
X38700Y-409454D01*
Y-410241D01*
X38306Y-410635D01*
X37126D01*
X37913D02*
X38700Y-411422D01*
X41061D02*
X39487D01*
X41061Y-409848D01*
Y-409454D01*
X40668Y-409061D01*
X39881D01*
X39487Y-409454D01*
X66448Y-333017D02*
Y-330656D01*
X67629D01*
X68023Y-331049D01*
Y-331836D01*
X67629Y-332230D01*
X66448D01*
X67236D02*
X68023Y-333017D01*
X68810D02*
X69597D01*
X69203D01*
Y-330656D01*
X68810Y-331049D01*
X48228Y-348465D02*
Y-346890D01*
X47834Y-346497D01*
X47047D01*
X46654Y-346890D01*
Y-348465D01*
X47047Y-348858D01*
X47834D01*
X47441Y-348071D02*
X48228Y-348858D01*
X47834D02*
X48228Y-348465D01*
X49015Y-348858D02*
X49802D01*
X49409D01*
Y-346497D01*
X49015Y-346890D01*
X55709Y-23858D02*
Y-21497D01*
X56889D01*
X57283Y-21890D01*
Y-22678D01*
X56889Y-23071D01*
X55709D01*
X58070Y-21890D02*
X58464Y-21497D01*
X59251D01*
X59644Y-21890D01*
Y-22284D01*
X59251Y-22678D01*
X58857D01*
X59251D01*
X59644Y-23071D01*
Y-23465D01*
X59251Y-23858D01*
X58464D01*
X58070Y-23465D01*
X42087Y-23740D02*
Y-21379D01*
X43267D01*
X43661Y-21772D01*
Y-22559D01*
X43267Y-22953D01*
X42087D01*
X46022Y-23740D02*
X44448D01*
X46022Y-22166D01*
Y-21772D01*
X45629Y-21379D01*
X44842D01*
X44448Y-21772D01*
X18740Y-466653D02*
Y-464292D01*
X19921D01*
X20314Y-464686D01*
Y-465473D01*
X19921Y-465866D01*
X18740D01*
X21102Y-466653D02*
X21889D01*
X21495D01*
Y-464292D01*
X21102Y-464686D01*
X37638Y-342048D02*
Y-344409D01*
X39212D01*
X39999D02*
X40786D01*
X40393D01*
Y-342048D01*
X39999Y-342442D01*
X45906Y-130631D02*
Y-132992D01*
X47086D01*
X47480Y-132599D01*
Y-131024D01*
X47086Y-130631D01*
X45906D01*
X49841Y-132992D02*
X48267D01*
X49841Y-131418D01*
Y-131024D01*
X49448Y-130631D01*
X48660D01*
X48267Y-131024D01*
X60629Y-181182D02*
X60236Y-180788D01*
X59449D01*
X59055Y-181182D01*
Y-182756D01*
X59449Y-183150D01*
X60236D01*
X60629Y-182756D01*
X61417Y-183150D02*
X62204D01*
X61810D01*
Y-180788D01*
X61417Y-181182D01*
X63384D02*
X63778Y-180788D01*
X64565D01*
X64959Y-181182D01*
Y-182756D01*
X64565Y-183150D01*
X63778D01*
X63384Y-182756D01*
Y-181182D01*
X55314Y-302245D02*
X54921Y-301851D01*
X54134D01*
X53740Y-302245D01*
Y-303819D01*
X54134Y-304213D01*
X54921D01*
X55314Y-303819D01*
X56102D02*
X56495Y-304213D01*
X57282D01*
X57676Y-303819D01*
Y-302245D01*
X57282Y-301851D01*
X56495D01*
X56102Y-302245D01*
Y-302638D01*
X56495Y-303032D01*
X57676D01*
X18661Y-273898D02*
X18267Y-273505D01*
X17480D01*
X17087Y-273898D01*
Y-275473D01*
X17480Y-275866D01*
X18267D01*
X18661Y-275473D01*
X19448Y-273898D02*
X19842Y-273505D01*
X20629D01*
X21022Y-273898D01*
Y-274292D01*
X20629Y-274685D01*
X21022Y-275079D01*
Y-275473D01*
X20629Y-275866D01*
X19842D01*
X19448Y-275473D01*
Y-275079D01*
X19842Y-274685D01*
X19448Y-274292D01*
Y-273898D01*
X19842Y-274685D02*
X20629D01*
X30358Y-427795D02*
X29964Y-427401D01*
X29177D01*
X28784Y-427795D01*
Y-429369D01*
X29177Y-429762D01*
X29964D01*
X30358Y-429369D01*
X31145Y-427401D02*
X32719D01*
Y-427795D01*
X31145Y-429369D01*
Y-429762D01*
X27362Y-256890D02*
X26968Y-256497D01*
X26181D01*
X25787Y-256890D01*
Y-258465D01*
X26181Y-258858D01*
X26968D01*
X27362Y-258465D01*
X29723Y-256497D02*
X28936Y-256890D01*
X28149Y-257678D01*
Y-258465D01*
X28542Y-258858D01*
X29330D01*
X29723Y-258465D01*
Y-258071D01*
X29330Y-257678D01*
X28149D01*
X19015Y-43071D02*
X18622Y-42678D01*
X17834D01*
X17441Y-43071D01*
Y-44646D01*
X17834Y-45039D01*
X18622D01*
X19015Y-44646D01*
X21377Y-42678D02*
X19802D01*
Y-43859D01*
X20590Y-43465D01*
X20983D01*
X21377Y-43859D01*
Y-44646D01*
X20983Y-45039D01*
X20196D01*
X19802Y-44646D01*
X39296Y-382197D02*
X39690Y-381804D01*
Y-381017D01*
X39296Y-380623D01*
X37722D01*
X37328Y-381017D01*
Y-381804D01*
X37722Y-382197D01*
X37328Y-384165D02*
X39690D01*
X38509Y-382984D01*
Y-384559D01*
X31205Y-419820D02*
X30812Y-419427D01*
X30025D01*
X29631Y-419820D01*
Y-421395D01*
X30025Y-421788D01*
X30812D01*
X31205Y-421395D01*
X31993Y-419820D02*
X32386Y-419427D01*
X33173D01*
X33567Y-419820D01*
Y-420214D01*
X33173Y-420608D01*
X32780D01*
X33173D01*
X33567Y-421001D01*
Y-421395D01*
X33173Y-421788D01*
X32386D01*
X31993Y-421395D01*
X7992Y-29607D02*
X7598Y-29213D01*
X6811D01*
X6417Y-29607D01*
Y-31181D01*
X6811Y-31575D01*
X7598D01*
X7992Y-31181D01*
X10353Y-31575D02*
X8779D01*
X10353Y-30000D01*
Y-29607D01*
X9960Y-29213D01*
X9172D01*
X8779Y-29607D01*
X15551Y-403347D02*
X15157Y-402953D01*
X14370D01*
X13976Y-403347D01*
Y-404921D01*
X14370Y-405315D01*
X15157D01*
X15551Y-404921D01*
X16338Y-405315D02*
X17125D01*
X16731D01*
Y-402953D01*
X16338Y-403347D01*
X46063Y-107442D02*
Y-109803D01*
X47244D01*
X47637Y-109410D01*
Y-107835D01*
X47244Y-107442D01*
X46063D01*
X48424Y-109803D02*
X49212D01*
X48818D01*
Y-107442D01*
X48424Y-107835D01*
X45079Y-85631D02*
Y-87992D01*
X46259D01*
X46653Y-87599D01*
Y-86024D01*
X46259Y-85631D01*
X45079D01*
X47440Y-86024D02*
X47834Y-85631D01*
X48621D01*
X49014Y-86024D01*
Y-86418D01*
X48621Y-86811D01*
X48227D01*
X48621D01*
X49014Y-87205D01*
Y-87599D01*
X48621Y-87992D01*
X47834D01*
X47440Y-87599D01*
X45276Y-63701D02*
Y-66063D01*
X46456D01*
X46850Y-65669D01*
Y-64095D01*
X46456Y-63701D01*
X45276D01*
X48818Y-66063D02*
Y-63701D01*
X47637Y-64882D01*
X49211D01*
X52362Y-47717D02*
Y-50079D01*
X53543D01*
X53936Y-49685D01*
Y-48111D01*
X53543Y-47717D01*
X52362D01*
X56298D02*
X54724D01*
Y-48898D01*
X55511Y-48504D01*
X55904D01*
X56298Y-48898D01*
Y-49685D01*
X55904Y-50079D01*
X55117D01*
X54724Y-49685D01*
X16220Y-399331D02*
Y-396969D01*
X17401D01*
X17795Y-397363D01*
Y-398150D01*
X17401Y-398544D01*
X16220D01*
X17008D02*
X17795Y-399331D01*
X18582Y-396969D02*
X20156D01*
Y-397363D01*
X18582Y-398937D01*
Y-399331D01*
X37558Y-441930D02*
X37165Y-441536D01*
X36378D01*
X35984Y-441930D01*
Y-443504D01*
X36378Y-443898D01*
X37165D01*
X37558Y-443504D01*
X38346Y-443898D02*
X39133D01*
X38739D01*
Y-441536D01*
X38346Y-441930D01*
X40314Y-443898D02*
X41101D01*
X40707D01*
Y-441536D01*
X40314Y-441930D01*
X37322Y-454292D02*
X36929Y-453898D01*
X36142D01*
X35748Y-454292D01*
Y-455866D01*
X36142Y-456260D01*
X36929D01*
X37322Y-455866D01*
X38109Y-456260D02*
X38897D01*
X38503D01*
Y-453898D01*
X38109Y-454292D01*
X41652Y-456260D02*
X40077D01*
X41652Y-454685D01*
Y-454292D01*
X41258Y-453898D01*
X40471D01*
X40077Y-454292D01*
X49362Y-322258D02*
Y-324620D01*
X50543D01*
X50937Y-324226D01*
Y-322652D01*
X50543Y-322258D01*
X49362D01*
X53298D02*
X52511Y-322652D01*
X51724Y-323439D01*
Y-324226D01*
X52118Y-324620D01*
X52905D01*
X53298Y-324226D01*
Y-323833D01*
X52905Y-323439D01*
X51724D01*
X4133Y-57953D02*
Y-56379D01*
X3740Y-55985D01*
X2953D01*
X2559Y-56379D01*
Y-57953D01*
X2953Y-58346D01*
X3740D01*
X3346Y-57559D02*
X4133Y-58346D01*
X3740D02*
X4133Y-57953D01*
X6495Y-58346D02*
X4921D01*
X6495Y-56772D01*
Y-56379D01*
X6101Y-55985D01*
X5314D01*
X4921Y-56379D01*
X5629Y-84410D02*
Y-82835D01*
X5236Y-82442D01*
X4449D01*
X4055Y-82835D01*
Y-84410D01*
X4449Y-84803D01*
X5236D01*
X4842Y-84016D02*
X5629Y-84803D01*
X5236D02*
X5629Y-84410D01*
X6417Y-82835D02*
X6810Y-82442D01*
X7597D01*
X7991Y-82835D01*
Y-83229D01*
X7597Y-83622D01*
X7204D01*
X7597D01*
X7991Y-84016D01*
Y-84410D01*
X7597Y-84803D01*
X6810D01*
X6417Y-84410D01*
X64252Y-387284D02*
Y-389252D01*
X64645Y-389646D01*
X65433D01*
X65826Y-389252D01*
Y-387284D01*
X66613D02*
X68188D01*
Y-387678D01*
X66613Y-389252D01*
Y-389646D01*
X30866Y-362757D02*
Y-364724D01*
X31260Y-365118D01*
X32047D01*
X32440Y-364724D01*
Y-362757D01*
X33228Y-363150D02*
X33621Y-362757D01*
X34408D01*
X34802Y-363150D01*
Y-363544D01*
X34408Y-363937D01*
X34802Y-364331D01*
Y-364724D01*
X34408Y-365118D01*
X33621D01*
X33228Y-364724D01*
Y-364331D01*
X33621Y-363937D01*
X33228Y-363544D01*
Y-363150D01*
X33621Y-363937D02*
X34408D01*
X68190Y-207598D02*
X70551D01*
Y-206418D01*
X70158Y-206024D01*
X68583D01*
X68190Y-206418D01*
Y-207598D01*
X70551Y-205237D02*
X68977D01*
X68190Y-204450D01*
X68977Y-203663D01*
X70551D01*
X69371D01*
Y-205237D01*
X68190Y-202875D02*
Y-201301D01*
Y-202088D01*
X70551D01*
X68229Y-216929D02*
X70591D01*
Y-215748D01*
X70197Y-215355D01*
X69803D01*
X69410Y-215748D01*
Y-216929D01*
Y-215748D01*
X69016Y-215355D01*
X68623D01*
X68229Y-215748D01*
Y-216929D01*
X70591Y-214568D02*
X69016D01*
X68229Y-213780D01*
X69016Y-212993D01*
X70591D01*
X69410D01*
Y-214568D01*
X68229Y-212206D02*
Y-210632D01*
Y-211419D01*
X70591D01*
X68544Y-195788D02*
X68150Y-196181D01*
Y-196969D01*
X68544Y-197362D01*
X70118D01*
X70512Y-196969D01*
Y-196181D01*
X70118Y-195788D01*
X68150Y-195001D02*
X70512D01*
Y-193427D01*
X68150Y-192639D02*
X70512D01*
X69725D01*
X68150Y-191065D01*
X69331Y-192246D01*
X70512Y-191065D01*
X70827Y-187284D02*
X68465D01*
Y-186103D01*
X68859Y-185709D01*
X69646D01*
X70040Y-186103D01*
Y-187284D01*
Y-186496D02*
X70827Y-185709D01*
X68859Y-183348D02*
X68465Y-183741D01*
Y-184528D01*
X68859Y-184922D01*
X69253D01*
X69646Y-184528D01*
Y-183741D01*
X70040Y-183348D01*
X70433D01*
X70827Y-183741D01*
Y-184528D01*
X70433Y-184922D01*
X68465Y-182561D02*
Y-180986D01*
Y-181773D01*
X70827D01*
X68701Y-176733D02*
X68308Y-177126D01*
Y-177913D01*
X68701Y-178307D01*
X70276D01*
X70669Y-177913D01*
Y-177126D01*
X70276Y-176733D01*
X69489D01*
Y-177520D01*
X70669Y-175946D02*
X68308D01*
X70669Y-174371D01*
X68308D01*
Y-173584D02*
X70669D01*
Y-172404D01*
X70276Y-172010D01*
X68701D01*
X68308Y-172404D01*
Y-173584D01*
D49*
X48228Y-192913D02*
G03*
X48228Y-192913I-6890J0D01*
G01*
X23740Y-518701D02*
X58937D01*
X23740Y-517244D02*
X58937D01*
X54724Y-490433D02*
X58936D01*
X54724Y-494567D02*
Y-490433D01*
X27953Y-494567D02*
Y-490433D01*
X23741D02*
X27953D01*
X27677Y-494567D02*
X55000D01*
Y-518701D02*
Y-477362D01*
X27677Y-518701D02*
Y-477362D01*
X58937Y-518701D02*
Y-473229D01*
X54724D02*
X58936D01*
X54724Y-477362D02*
Y-473229D01*
X27677Y-477362D02*
X55000D01*
X27953D02*
Y-473229D01*
X23741D02*
X27953D01*
X23740Y-518701D02*
Y-473229D01*
X49016Y-178839D02*
X51772D01*
X49016Y-174902D02*
X51772D01*
Y-181004D02*
Y-174902D01*
X49016Y-181004D02*
Y-174902D01*
X30906Y-178839D02*
X33661D01*
X30906Y-174902D02*
X33661D01*
Y-181004D02*
Y-174902D01*
X30906Y-181004D02*
Y-174902D01*
X49016Y-210925D02*
X51772D01*
X49016Y-206988D02*
X51772D01*
Y-210925D02*
Y-204823D01*
X49016Y-210925D02*
Y-204823D01*
X30906Y-210925D02*
X33661D01*
X30906Y-206988D02*
X33661D01*
Y-210925D02*
Y-204823D01*
X30906Y-210925D02*
Y-204823D01*
X29429Y-181004D02*
X53248D01*
X29429Y-204823D02*
X53248D01*
X29429D02*
Y-181004D01*
X53248Y-204823D02*
Y-181004D01*
X34449Y-144882D02*
Y-133858D01*
Y-144882D02*
X48228D01*
Y-133858D01*
X34449D02*
X48228D01*
X38189Y-115354D02*
Y-112205D01*
Y-115354D02*
X44488D01*
Y-112205D01*
X38189D02*
X44488D01*
X38189Y-93701D02*
Y-90551D01*
X44488Y-93701D02*
Y-90551D01*
X38189Y-93701D02*
X44488D01*
X38189Y-90551D02*
X44488D01*
X38189Y-72047D02*
Y-68898D01*
Y-72047D02*
X44488D01*
Y-68898D01*
X38189D02*
X44488D01*
X38189Y-50394D02*
Y-47244D01*
Y-50394D02*
X44488D01*
Y-47244D01*
X38189D02*
X44488D01*
D50*
X45770Y-243935D02*
G03*
X45770Y-243935I-394J0D01*
G01*
D51*
X13509Y-46596D02*
G03*
X13434Y-50532I4907J-2063D01*
G01*
X20365Y-50525D02*
G03*
X20362Y-46626I-4864J1945D01*
G01*
X34414Y-452019D02*
G03*
X30478Y-451944I-2063J-4907D01*
G01*
X30485Y-458875D02*
G03*
X34384Y-458872I1945J4864D01*
G01*
X30686Y-444971D02*
G03*
X34622Y-445046I2063J4907D01*
G01*
X34615Y-438115D02*
G03*
X30716Y-438118I-1945J-4864D01*
G01*
X15366Y-271341D02*
G03*
X19302Y-271416I2063J4907D01*
G01*
X19295Y-264485D02*
G03*
X15396Y-264488I-1945J-4864D01*
G01*
X59759Y-300716D02*
G03*
X59684Y-304652I4907J-2063D01*
G01*
X66615Y-304645D02*
G03*
X66612Y-300746I-4864J1945D01*
G01*
X65721Y-188544D02*
G03*
X65796Y-184608I-4907J2063D01*
G01*
X58865Y-184615D02*
G03*
X58868Y-188514I4864J-1945D01*
G01*
X32476Y-384781D02*
G03*
X36412Y-384856I2063J4907D01*
G01*
X36405Y-377925D02*
G03*
X32506Y-377928I-1945J-4864D01*
G01*
X13511Y-46591D02*
X16191D01*
X13432Y-50529D02*
X16191D01*
X17766Y-46591D02*
X20364Y-46631D01*
X17766Y-50529D02*
X20364D01*
X34418Y-454701D02*
Y-452021D01*
X30481Y-454701D02*
Y-451942D01*
X34379Y-458874D02*
X34418Y-456276D01*
X30481Y-458874D02*
Y-456276D01*
X30681Y-444969D02*
Y-442289D01*
X34618Y-445048D02*
Y-442289D01*
X30681Y-440714D02*
X30721Y-438116D01*
X34618Y-440714D02*
Y-438116D01*
X15361Y-271339D02*
Y-268659D01*
X19298Y-271417D02*
Y-268659D01*
X15361Y-267084D02*
X15401Y-264486D01*
X19298Y-267084D02*
Y-264486D01*
X59761Y-300711D02*
X62441D01*
X59682Y-304648D02*
X62441D01*
X64016Y-300711D02*
X66614Y-300751D01*
X64016Y-304648D02*
X66614D01*
X63039Y-188549D02*
X65719D01*
X63039Y-184611D02*
X65798D01*
X58866Y-188509D02*
X61464Y-188549D01*
X58866Y-184611D02*
X61464D01*
X32471Y-384779D02*
Y-382099D01*
X36408Y-384858D02*
Y-382099D01*
X32471Y-380524D02*
X32511Y-377926D01*
X36408Y-380524D02*
Y-377926D01*
D52*
X63092Y-421946D02*
G03*
X63092Y-423225I0J-640D01*
G01*
Y-388406D02*
G03*
X63092Y-389686I0J-640D01*
G01*
X15748Y-279528D02*
X66929D01*
Y-165354D01*
X15748D02*
X66929D01*
X15748Y-279528D02*
Y-165354D01*
X51181Y-152559D02*
Y-126969D01*
X31496Y-152559D02*
X51181D01*
X31496Y-126969D02*
X51181D01*
X31496Y-152559D02*
Y-126969D01*
X51181Y-122244D02*
Y-105315D01*
X31496Y-122244D02*
X51181D01*
X31496Y-105315D02*
X51181D01*
X31496Y-122244D02*
Y-105315D01*
X51063Y-100591D02*
Y-83701D01*
X51024Y-100551D02*
X51063Y-100591D01*
X31496D02*
X51063D01*
X31496Y-83661D02*
X51024D01*
X31496Y-100591D02*
Y-83661D01*
X51181Y-78937D02*
Y-62008D01*
X31496Y-78937D02*
X51181D01*
X31496Y-62008D02*
X51181D01*
X31496Y-78937D02*
Y-62008D01*
Y-57284D02*
X51181D01*
Y-39567D01*
X31496D02*
X51181D01*
X31496Y-57284D02*
Y-39567D01*
X23622Y-161024D02*
X59055D01*
Y-31102D01*
X23622D02*
X59055D01*
X23622Y-161024D02*
Y-31102D01*
X5120Y-17649D02*
Y-720D01*
Y-17649D02*
X46459D01*
Y-720D01*
X5120D02*
X46459D01*
X78500Y-17720D02*
Y-791D01*
X54878Y-17720D02*
X78500D01*
X54878D02*
Y-791D01*
Y-720D02*
X78500D01*
X63092Y-421946D02*
Y-418786D01*
Y-426385D02*
Y-423225D01*
X52856Y-426385D02*
X63092D01*
X52856D02*
Y-418786D01*
X63092D01*
Y-388406D02*
Y-385246D01*
Y-392845D02*
Y-389686D01*
X52856Y-392845D02*
X63092D01*
X52856D02*
Y-385246D01*
X63092D01*
X12717Y-430985D02*
X13466Y-432953D01*
X14216Y-430985D02*
X13466Y-432953D01*
X15313Y-431266D02*
Y-432953D01*
X14469Y-432109D02*
X16156D01*
X13583Y-464292D02*
X14332Y-466260D01*
X15082Y-464292D02*
X14332Y-466260D01*
X15335Y-465416D02*
X17022D01*
X14410Y-442008D02*
X15159Y-443976D01*
X15909Y-442008D02*
X15159Y-443976D01*
X16162Y-443133D02*
X17849D01*
X18430Y-442008D02*
Y-443976D01*
Y-442008D02*
X19180Y-443976D01*
X19929Y-442008D02*
X19180Y-443976D01*
X19929Y-442008D02*
Y-443976D01*
D53*
X16160Y-331569D02*
Y-318971D01*
X47160Y-331569D02*
Y-318971D01*
X16160Y-331569D02*
X26668D01*
X16160Y-318971D02*
X26668D01*
X37160Y-331569D02*
X47160D01*
X37160Y-318971D02*
X47160D01*
D54*
X15857Y-335723D02*
X36046D01*
Y-352723D02*
Y-335723D01*
X15857Y-352723D02*
Y-335723D01*
Y-352723D02*
X36046D01*
X29489Y-388590D02*
Y-382290D01*
X18071D02*
X29489D01*
X18071Y-388590D02*
X29489D01*
X18071D02*
Y-382290D01*
X41670Y-445071D02*
X47970D01*
X41670Y-456489D02*
Y-445071D01*
X47970Y-456489D02*
Y-445071D01*
X41670Y-456489D02*
X47970D01*
X18071Y-368410D02*
Y-362110D01*
Y-368410D02*
X29489D01*
X18071Y-362110D02*
X29489D01*
Y-368410D02*
Y-362110D01*
M02*
