M48
;Layer_Color=9474304
;FILE_FORMAT=2:5
INCH,LZ
;TYPE=PLATED
T1F00S00C0.01181
T2F00S00C0.02362
%
T01
X0034811Y-045078
X0032677Y-0446575
X0038819Y-0424764
Y-0420079
X004378Y-0420039
Y-0424882
X0047677Y-0423622
X0056653Y-0424173
X0058701Y-0457126
X0062638Y-0457087
X006685Y-0457126
Y-0461299
X0047677Y-0414409
X0032795Y-0409449
X0036575Y-0388583
X0035197Y-0371024
X0035315Y-0357441
X0047638Y-0354803
Y-0360591
X0056693Y-0386575
X0059254Y-0389053
X0067559Y-0338976
X0063661Y-0326969
X0058958Y-0314428
X0051575Y-0313228
X0067874Y-0309842
X0045709Y-0290354
X0053236Y-026985
X0055748Y-0262559
X003315Y-0274252
X0020787Y-0277913
X0014528Y-039626
X0015512Y-041
X0010591Y-023311
X0008071Y-0161457
X0010748Y-0113504
X0044961Y-012063
X0040905Y-0124764
X0056063Y-012311
X0059595Y-0128021
X0049213Y-0144803
X0063622Y-0151614
X0075945Y-0157874
X0057205Y-0172283
X0036496Y-0174685
X003374Y-018752
X0049646Y-0201811
X005559Y-0204331
Y-0196181
X0069252Y-0199173
X007481Y-0214052
X006252Y-0214134
X0054921Y-0225472
X004752Y-0228465
X0049486Y-0232754
X0059488Y-023374
X0059606Y-0239016
X0054921Y-0239606
X0056575Y-0247362
X0046384Y-0250506
X0040494Y-0250534
X0040157Y-0255866
X0036772Y-0253465
X0031575Y-0251299
X003315Y-0247835
X0032953Y-0259409
X002311Y-0257638
X002752Y-0239961
X0030827Y-0231378
X0034195Y-0227542
X0034488Y-022189
X0027716Y-0226693
X0039134Y-0237717
X0041693
Y-0240394
X0039134
X0049213Y-0258543
X0074016Y-0240709
X0069252Y-0227205
X0042992Y-0214055
X0029685Y-0157165
X002815Y-0139449
X0054016Y-0104646
X0042795Y-0102992
X0038819Y-0080984
X0061535Y-0087087
X0053189Y-0060984
X0055984Y-0043583
X0046024Y-0035984
X0036496Y-0033504
X0030394Y-0035512
X0032913Y-0055709
X0074016Y-004378
X0080079Y-0045039
X002248Y-006
X0022598Y-0066299
X0002913Y-0040472
X0003268Y-0025197
X0002441Y-0015827
T02
X0036561Y-0464882
X0038937Y-0461417
X0039567Y-0430945
X0043465Y-0433898
X0047874Y-0430669
X0032047Y-0424409
X0032323Y-0417165
X0040748Y-0415827
X0046968Y-040941
Y-040126
Y-0396339
Y-0390905
X0045039Y-0381535
Y-037563
Y-037059
X0056417Y-036563
X0062283Y-036689
X0067165
X0027441Y-0365118
X002748Y-0408386
X0030158Y-031437
Y-0305472
Y-029752
Y-0288032
X0031882Y-0278905
X0019331Y-0287638
Y-029752
Y-0305827
Y-0314449
X0020039Y-0365197
X0019961Y-0385472
X0015236Y-0413858
X0063661Y-0219659
X0017992Y-0076614
M30
