%FSLAX25Y25*%
%MOIN*%
G70*
G01*
G75*
%ADD10C,0.05906*%
%ADD11R,0.02362X0.02756*%
%ADD12R,0.02756X0.02362*%
%ADD13R,0.03150X0.03937*%
%ADD14R,0.03937X0.03150*%
%ADD15R,0.02559X0.02165*%
%ADD16R,0.02165X0.02559*%
%ADD17R,0.03543X0.03150*%
%ADD18R,0.03543X0.03150*%
%ADD19R,0.01575X0.03937*%
%ADD20O,0.01181X0.07874*%
%ADD21R,0.01181X0.07874*%
%ADD22R,0.03937X0.01575*%
%ADD23R,0.02362X0.07874*%
%ADD24R,0.01063X0.07874*%
%ADD25R,0.05118X0.05118*%
%ADD26R,0.00787X0.02362*%
%ADD27R,0.00787X0.03150*%
%ADD28R,0.02362X0.00787*%
%ADD29R,0.03150X0.00787*%
%ADD30R,0.05118X0.15748*%
%ADD31R,0.03150X0.03543*%
%ADD32R,0.03150X0.03543*%
%ADD33R,0.06299X0.07480*%
%ADD34R,0.02756X0.13386*%
%ADD35R,0.02756X0.06102*%
%ADD36R,0.07874X0.10000*%
%ADD37R,0.04724X0.03937*%
%ADD38R,0.07480X0.06299*%
%ADD39R,0.13386X0.02756*%
%ADD40C,0.00787*%
%ADD41C,0.02362*%
%ADD42C,0.01000*%
%ADD43C,0.01575*%
%ADD44C,0.01181*%
%ADD45C,0.01969*%
%ADD46C,0.03150*%
%ADD47C,0.00500*%
%ADD48C,0.00591*%
%ADD49C,0.00394*%
%ADD50C,0.00600*%
%ADD51C,0.00197*%
%ADD52C,0.00709*%
%ADD53C,0.01200*%
D40*
X39338Y-291961D02*
G03*
X39338Y-287019I-3706J2471D01*
G01*
X29102D02*
G03*
X29102Y-291961I3706J-2471D01*
G01*
X25679Y-271618D02*
G03*
X30621Y-271618I2471J3706D01*
G01*
Y-261382D02*
G03*
X25679Y-261382I-2471J-3706D01*
G01*
X18972Y-391160D02*
G03*
X18972Y-396101I3706J-2471D01*
G01*
X29208D02*
G03*
X29208Y-391160I-3706J2471D01*
G01*
X30028Y-350461D02*
G03*
X30028Y-350461I-394J0D01*
G01*
X23274Y-403966D02*
G03*
X23274Y-403966I-394J0D01*
G01*
X18240Y-379641D02*
G03*
X18240Y-379641I-394J0D01*
G01*
X47660Y-246061D02*
G03*
X47660Y-246061I-394J0D01*
G01*
X39378Y-298741D02*
G03*
X39378Y-293799I-3706J2471D01*
G01*
X29142D02*
G03*
X29142Y-298741I3706J-2471D01*
G01*
X16128Y-38101D02*
G03*
X16128Y-33159I-3706J2471D01*
G01*
X5892D02*
G03*
X5892Y-38101I3706J-2471D01*
G01*
X35810Y-280430D02*
G03*
X35810Y-280430I-394J0D01*
G01*
X35401Y-287019D02*
X39338D01*
X35401Y-291961D02*
X39338D01*
X29102Y-287019D02*
X33039D01*
X29102Y-291961D02*
X33039D01*
X30621Y-271618D02*
Y-267681D01*
X25679Y-271618D02*
Y-267681D01*
X30621Y-265319D02*
Y-261382D01*
X25679Y-265319D02*
Y-261382D01*
X18972Y-396101D02*
X22909D01*
X18972Y-391160D02*
X22909D01*
X25271Y-396101D02*
X29208D01*
X25271Y-391160D02*
X29208D01*
X17066Y-56150D02*
X19428D01*
X9192D02*
X11554D01*
X19428Y-61819D02*
Y-56150D01*
X9192Y-61780D02*
Y-56150D01*
X17666Y-81250D02*
X20028D01*
X9792D02*
X12154D01*
X20028Y-86919D02*
Y-81250D01*
X9792Y-86880D02*
Y-81250D01*
X45223Y-111147D02*
X47428D01*
X46759Y-116659D02*
X47389D01*
X47428Y-116619D01*
Y-116029D01*
X46759Y-116659D02*
Y-111147D01*
X47428Y-116029D02*
Y-111147D01*
X35774Y-116659D02*
X46759D01*
X35774D02*
Y-111147D01*
X46759D01*
X45223Y-89317D02*
X47428D01*
X46759Y-94829D02*
X47389D01*
X47428Y-94789D01*
Y-94199D01*
X46759Y-94829D02*
Y-89317D01*
X47428Y-94199D02*
Y-89317D01*
X35774Y-94829D02*
X46759D01*
X35774D02*
Y-89317D01*
X46759D01*
X45213Y-67667D02*
X47418D01*
X46749Y-73179D02*
X47379D01*
X47418Y-73139D01*
Y-72549D01*
X46749Y-73179D02*
Y-67667D01*
X47418Y-72549D02*
Y-67667D01*
X35765Y-73179D02*
X46749D01*
X35765D02*
Y-67667D01*
X46749D01*
X45223Y-46077D02*
X47428D01*
X46759Y-51589D02*
X47389D01*
X47428Y-51549D01*
Y-50959D01*
X46759Y-51589D02*
Y-46077D01*
X47428Y-50959D02*
Y-46077D01*
X35774Y-51589D02*
X46759D01*
X35774D02*
Y-46077D01*
X46759D01*
X35441Y-293799D02*
X39378D01*
X35441Y-298741D02*
X39378D01*
X29142Y-293799D02*
X33079D01*
X29142Y-298741D02*
X33079D01*
X52530Y-330440D02*
Y-328078D01*
Y-338314D02*
Y-335952D01*
Y-328078D02*
X58199D01*
X52530Y-338314D02*
X58160D01*
X12191Y-33159D02*
X16128D01*
X12191Y-38101D02*
X16128D01*
X5892Y-33159D02*
X9829D01*
X5892Y-38101D02*
X9829D01*
X29626Y-181004D02*
X53248D01*
X29626Y-204626D02*
Y-181004D01*
Y-204626D02*
X53248D01*
Y-181004D01*
X28374Y-134353D02*
X57374D01*
Y-155790D02*
Y-134353D01*
X28374Y-155790D02*
X57374D01*
X28374D02*
Y-134353D01*
X39693Y-145290D02*
X46228Y-151826D01*
X39693Y-145290D02*
X46339Y-138645D01*
Y-151826D02*
Y-138645D01*
D42*
X16040Y-315259D02*
Y-302661D01*
D47*
X36365Y-367625D02*
G03*
X32466Y-367629I-1945J-4864D01*
G01*
X32436Y-374482D02*
G03*
X36372Y-374557I2063J4907D01*
G01*
X58865Y-184615D02*
G03*
X58868Y-188514I4864J-1945D01*
G01*
X65721Y-188544D02*
G03*
X65796Y-184608I-4907J2063D01*
G01*
X66615Y-304645D02*
G03*
X66612Y-300746I-4864J1945D01*
G01*
X59759Y-300716D02*
G03*
X59684Y-304652I4907J-2063D01*
G01*
X19295Y-264485D02*
G03*
X15396Y-264488I-1945J-4864D01*
G01*
X15366Y-271341D02*
G03*
X19302Y-271416I2063J4907D01*
G01*
X44605Y-428175D02*
G03*
X48504Y-428172I1945J4864D01*
G01*
X48534Y-421319D02*
G03*
X44598Y-421244I-2063J-4907D01*
G01*
X46845Y-418935D02*
G03*
X50744Y-418932I1945J4864D01*
G01*
X50774Y-412079D02*
G03*
X46838Y-412004I-2063J-4907D01*
G01*
X20365Y-50525D02*
G03*
X20362Y-46626I-4864J1945D01*
G01*
X13509Y-46596D02*
G03*
X13434Y-50532I4907J-2063D01*
G01*
X36369Y-370225D02*
Y-367627D01*
X32432Y-370225D02*
X32471Y-367627D01*
X36369Y-374558D02*
Y-371800D01*
X32432Y-374479D02*
Y-371800D01*
X58866Y-184611D02*
X61464D01*
X58866Y-188509D02*
X61464Y-188549D01*
X63039Y-184611D02*
X65798D01*
X63039Y-188549D02*
X65719D01*
X64016Y-304648D02*
X66614D01*
X64016Y-300711D02*
X66614Y-300751D01*
X59682Y-304648D02*
X62441D01*
X59761Y-300711D02*
X62441D01*
X19298Y-267084D02*
Y-264486D01*
X15361Y-267084D02*
X15401Y-264486D01*
X19298Y-271417D02*
Y-268659D01*
X15361Y-271339D02*
Y-268659D01*
X44602Y-428174D02*
Y-425576D01*
X48499Y-428174D02*
X48539Y-425576D01*
X44602Y-424001D02*
Y-421243D01*
X48539Y-424001D02*
Y-421321D01*
X46841Y-418934D02*
Y-416336D01*
X50739Y-418934D02*
X50779Y-416336D01*
X46841Y-414761D02*
Y-412003D01*
X50779Y-414761D02*
Y-412081D01*
X17766Y-50529D02*
X20364D01*
X17766Y-46591D02*
X20364Y-46631D01*
X13432Y-50529D02*
X16191D01*
X13511Y-46591D02*
X16191D01*
D48*
X64520Y-374176D02*
G03*
X64520Y-374176I-781J0D01*
G01*
Y-407716D02*
G03*
X64520Y-407716I-781J0D01*
G01*
X72829Y-22626D02*
G03*
X72820Y-22420I2271J206D01*
G01*
X10572Y-22446D02*
G03*
X10575Y-22549I-1652J-103D01*
G01*
X34300Y-433345D02*
G03*
X34197Y-433342I0J1655D01*
G01*
X62745Y-195349D02*
X66091D01*
Y-191411D01*
X62745D02*
X66091D01*
X57824Y-195349D02*
X61170D01*
X57824D02*
Y-191411D01*
X61170D01*
X59496Y-294492D02*
X62843D01*
X59496Y-298429D02*
Y-294492D01*
Y-298429D02*
X62843D01*
X64417Y-294492D02*
X67764D01*
Y-298429D02*
Y-294492D01*
X64417Y-298429D02*
X67764D01*
X48586Y-294492D02*
X51933D01*
X48586Y-298429D02*
Y-294492D01*
Y-298429D02*
X51933D01*
X53507Y-294492D02*
X56854D01*
Y-298429D02*
Y-294492D01*
X53507Y-298429D02*
X56854D01*
X61996Y-37481D02*
X65343D01*
X61996Y-41418D02*
Y-37481D01*
Y-41418D02*
X65343D01*
X66917Y-37481D02*
X70264D01*
Y-41418D02*
Y-37481D01*
X66917Y-41418D02*
X70264D01*
X52526Y-217711D02*
X55873D01*
X52526Y-221649D02*
Y-217711D01*
Y-221649D02*
X55873D01*
X57447Y-217711D02*
X60794D01*
Y-221649D02*
Y-217711D01*
X57447Y-221649D02*
X60794D01*
X37407Y-171309D02*
X40754D01*
Y-167371D01*
X37407D02*
X40754D01*
X32486Y-171309D02*
X35833D01*
X32486D02*
Y-167371D01*
X35833D01*
X60576Y-46922D02*
X63923D01*
X60576Y-50858D02*
Y-46922D01*
Y-50858D02*
X63923D01*
X65497Y-46922D02*
X68844D01*
Y-50858D02*
Y-46922D01*
X65497Y-50858D02*
X68844D01*
X61581Y-147564D02*
Y-144217D01*
Y-147564D02*
X65518D01*
Y-144217D01*
X61581Y-142643D02*
Y-139296D01*
X65518D01*
Y-142643D02*
Y-139296D01*
X60576Y-68492D02*
X63923D01*
X60576Y-72429D02*
Y-68492D01*
Y-72429D02*
X63923D01*
X65497Y-68492D02*
X68844D01*
Y-72429D02*
Y-68492D01*
X65497Y-72429D02*
X68844D01*
X65518Y-129063D02*
Y-125716D01*
X61581D02*
X65518D01*
X61581Y-129063D02*
Y-125716D01*
X65518Y-133984D02*
Y-130637D01*
X61581Y-133984D02*
X65518D01*
X61581D02*
Y-130637D01*
X60576Y-90101D02*
X63923D01*
X60576Y-94038D02*
Y-90101D01*
Y-94038D02*
X63923D01*
X65497Y-90101D02*
X68844D01*
Y-94038D02*
Y-90101D01*
X65497Y-94038D02*
X68844D01*
X60576Y-112372D02*
X63923D01*
X60576Y-116308D02*
Y-112372D01*
Y-116308D02*
X63923D01*
X65497Y-112372D02*
X68844D01*
Y-116308D02*
Y-112372D01*
X65497Y-116308D02*
X68844D01*
X16869Y-410433D02*
Y-407086D01*
X12932D02*
X16869D01*
X12932Y-410433D02*
Y-407086D01*
X16869Y-415354D02*
Y-412007D01*
X12932Y-415354D02*
X16869D01*
X12932D02*
Y-412007D01*
X54696Y-348387D02*
X58043D01*
X54696Y-352324D02*
Y-348387D01*
Y-352324D02*
X58043D01*
X59617Y-348387D02*
X62964D01*
Y-352324D02*
Y-348387D01*
X59617Y-352324D02*
X62964D01*
X20956Y-385452D02*
X24303D01*
X20956Y-389389D02*
Y-385452D01*
Y-389389D02*
X24303D01*
X25878Y-385452D02*
X29224D01*
Y-389389D02*
Y-385452D01*
X25878Y-389389D02*
X29224D01*
X54606Y-342697D02*
X57953D01*
X54606Y-346634D02*
Y-342697D01*
Y-346634D02*
X57953D01*
X59527Y-342697D02*
X62874D01*
Y-346634D02*
Y-342697D01*
X59527Y-346634D02*
X62874D01*
X31196Y-385462D02*
X34543D01*
X31196Y-389399D02*
Y-385462D01*
Y-389399D02*
X34543D01*
X36118Y-385462D02*
X39464D01*
Y-389399D02*
Y-385462D01*
X36118Y-389399D02*
X39464D01*
X39438Y-397169D02*
X42784D01*
Y-393232D01*
X39438D02*
X42784D01*
X34516Y-397169D02*
X37863D01*
X34516D02*
Y-393232D01*
X37863D01*
X57186Y-319807D02*
X60533D01*
X57186Y-323744D02*
Y-319807D01*
Y-323744D02*
X60533D01*
X62107Y-319807D02*
X65454D01*
Y-323744D02*
Y-319807D01*
X62107Y-323744D02*
X65454D01*
X53437Y-444678D02*
X56784D01*
Y-440741D01*
X53437D02*
X56784D01*
X48516Y-444678D02*
X51863D01*
X48516D02*
Y-440741D01*
X51863D01*
X38977Y-422518D02*
X42324D01*
Y-418581D01*
X38977D02*
X42324D01*
X34056Y-422518D02*
X37403D01*
X34056D02*
Y-418581D01*
X37403D01*
X14319Y-104969D02*
X17666D01*
Y-101031D01*
X14319D02*
X17666D01*
X9398Y-104969D02*
X12745D01*
X9398D02*
Y-101031D01*
X12745D01*
X11546Y-69682D02*
X14893D01*
X11546Y-73619D02*
Y-69682D01*
Y-73619D02*
X14893D01*
X16467Y-69682D02*
X19814D01*
Y-73619D02*
Y-69682D01*
X16467Y-73619D02*
X19814D01*
X14319Y-99019D02*
X17666D01*
Y-95082D01*
X14319D02*
X17666D01*
X9398Y-99019D02*
X12745D01*
X9398D02*
Y-95082D01*
X12745D01*
X22808Y-475395D02*
Y-466537D01*
X60170Y-475356D02*
Y-466537D01*
X22808D02*
X60170D01*
X46400Y-234801D02*
Y-233148D01*
X44746D02*
X46400D01*
X34589Y-234801D02*
Y-233148D01*
X36242D01*
X34589Y-244959D02*
Y-243305D01*
Y-244959D02*
X36242D01*
X44746D02*
X46400D01*
Y-243266D01*
X40775Y-112171D02*
X42467Y-113864D01*
X40775Y-115596D02*
Y-112171D01*
Y-115596D02*
X42467Y-113903D01*
Y-113903D01*
X40775Y-90341D02*
X42467Y-92033D01*
X40775Y-93766D02*
Y-90341D01*
Y-93766D02*
X42467Y-92073D01*
Y-92073D01*
X40764Y-68691D02*
X42457Y-70384D01*
X40764Y-72116D02*
Y-68691D01*
Y-72116D02*
X42457Y-70423D01*
Y-70423D01*
X40775Y-47100D02*
X42467Y-48794D01*
X40775Y-50526D02*
Y-47100D01*
Y-50526D02*
X42467Y-48833D01*
Y-48833D01*
X30826Y-351670D02*
Y-354294D01*
X31351Y-354819D01*
X32401D01*
X32925Y-354294D01*
Y-351670D01*
X33975Y-352195D02*
X34500Y-351670D01*
X35549D01*
X36074Y-352195D01*
Y-352720D01*
X35549Y-353244D01*
X36074Y-353769D01*
Y-354294D01*
X35549Y-354819D01*
X34500D01*
X33975Y-354294D01*
Y-353769D01*
X34500Y-353244D01*
X33975Y-352720D01*
Y-352195D01*
X34500Y-353244D02*
X35549D01*
X53049Y-374200D02*
X50425D01*
X49900Y-374725D01*
Y-375774D01*
X50425Y-376299D01*
X53049D01*
Y-377349D02*
Y-379448D01*
X52524D01*
X50425Y-377349D01*
X49900D01*
X3299Y-86375D02*
Y-84276D01*
X2774Y-83751D01*
X1725D01*
X1200Y-84276D01*
Y-86375D01*
X1725Y-86900D01*
X2774D01*
X2249Y-85851D02*
X3299Y-86900D01*
X2774D02*
X3299Y-86375D01*
X4349Y-84276D02*
X4873Y-83751D01*
X5923D01*
X6448Y-84276D01*
Y-84801D01*
X5923Y-85326D01*
X5398D01*
X5923D01*
X6448Y-85851D01*
Y-86375D01*
X5923Y-86900D01*
X4873D01*
X4349Y-86375D01*
X3799Y-59075D02*
Y-56976D01*
X3274Y-56451D01*
X2225D01*
X1700Y-56976D01*
Y-59075D01*
X2225Y-59600D01*
X3274D01*
X2750Y-58551D02*
X3799Y-59600D01*
X3274D02*
X3799Y-59075D01*
X6948Y-59600D02*
X4849D01*
X6948Y-57501D01*
Y-56976D01*
X6423Y-56451D01*
X5373D01*
X4849Y-56976D01*
X47743Y-305161D02*
Y-308310D01*
X49317D01*
X49842Y-307785D01*
Y-305686D01*
X49317Y-305161D01*
X47743D01*
X52990D02*
X51941Y-305686D01*
X50891Y-306735D01*
Y-307785D01*
X51416Y-308310D01*
X52465D01*
X52990Y-307785D01*
Y-307260D01*
X52465Y-306735D01*
X50891D01*
X44699Y-407676D02*
X44174Y-407151D01*
X43125D01*
X42600Y-407676D01*
Y-409775D01*
X43125Y-410300D01*
X44174D01*
X44699Y-409775D01*
X45749Y-410300D02*
X46798D01*
X46273D01*
Y-407151D01*
X45749Y-407676D01*
X50472Y-410300D02*
X48372D01*
X50472Y-408201D01*
Y-407676D01*
X49947Y-407151D01*
X48897D01*
X48372Y-407676D01*
X39199Y-425776D02*
X38674Y-425251D01*
X37625D01*
X37100Y-425776D01*
Y-427875D01*
X37625Y-428400D01*
X38674D01*
X39199Y-427875D01*
X40249Y-428400D02*
X41298D01*
X40773D01*
Y-425251D01*
X40249Y-425776D01*
X42872Y-428400D02*
X43922D01*
X43397D01*
Y-425251D01*
X42872Y-425776D01*
X13600Y-388800D02*
Y-385651D01*
X15174D01*
X15699Y-386176D01*
Y-387226D01*
X15174Y-387751D01*
X13600D01*
X14649D02*
X15699Y-388800D01*
X16749Y-385651D02*
X18848D01*
Y-386176D01*
X16749Y-388275D01*
Y-388800D01*
X39500Y-41851D02*
Y-45000D01*
X41074D01*
X41599Y-44475D01*
Y-42376D01*
X41074Y-41851D01*
X39500D01*
X44748D02*
X42649D01*
Y-43426D01*
X43698Y-42901D01*
X44223D01*
X44748Y-43426D01*
Y-44475D01*
X44223Y-45000D01*
X43173D01*
X42649Y-44475D01*
X40100Y-63351D02*
Y-66500D01*
X41674D01*
X42199Y-65975D01*
Y-63876D01*
X41674Y-63351D01*
X40100D01*
X44823Y-66500D02*
Y-63351D01*
X43249Y-64926D01*
X45348D01*
X39800Y-85251D02*
Y-88400D01*
X41374D01*
X41899Y-87875D01*
Y-85776D01*
X41374Y-85251D01*
X39800D01*
X42949Y-85776D02*
X43473Y-85251D01*
X44523D01*
X45048Y-85776D01*
Y-86301D01*
X44523Y-86826D01*
X43998D01*
X44523D01*
X45048Y-87350D01*
Y-87875D01*
X44523Y-88400D01*
X43473D01*
X42949Y-87875D01*
X40500Y-106651D02*
Y-109800D01*
X42074D01*
X42599Y-109275D01*
Y-107176D01*
X42074Y-106651D01*
X40500D01*
X43649Y-109800D02*
X44698D01*
X44173D01*
Y-106651D01*
X43649Y-107176D01*
X15399Y-392376D02*
X14874Y-391851D01*
X13825D01*
X13300Y-392376D01*
Y-394475D01*
X13825Y-395000D01*
X14874D01*
X15399Y-394475D01*
X16449Y-395000D02*
X17498D01*
X16973D01*
Y-391851D01*
X16449Y-392376D01*
X6999Y-28776D02*
X6474Y-28251D01*
X5425D01*
X4900Y-28776D01*
Y-30875D01*
X5425Y-31400D01*
X6474D01*
X6999Y-30875D01*
X10148Y-31400D02*
X8049D01*
X10148Y-29301D01*
Y-28776D01*
X9623Y-28251D01*
X8573D01*
X8049Y-28776D01*
X23899Y-295276D02*
X23374Y-294751D01*
X22325D01*
X21800Y-295276D01*
Y-297375D01*
X22325Y-297900D01*
X23374D01*
X23899Y-297375D01*
X24949Y-295276D02*
X25473Y-294751D01*
X26523D01*
X27048Y-295276D01*
Y-295801D01*
X26523Y-296326D01*
X25998D01*
X26523D01*
X27048Y-296850D01*
Y-297375D01*
X26523Y-297900D01*
X25473D01*
X24949Y-297375D01*
X39399Y-369176D02*
X38874Y-368651D01*
X37825D01*
X37300Y-369176D01*
Y-371275D01*
X37825Y-371800D01*
X38874D01*
X39399Y-371275D01*
X42023Y-371800D02*
Y-368651D01*
X40449Y-370226D01*
X42548D01*
X14299Y-42776D02*
X13774Y-42251D01*
X12725D01*
X12200Y-42776D01*
Y-44875D01*
X12725Y-45400D01*
X13774D01*
X14299Y-44875D01*
X17448Y-42251D02*
X15349D01*
Y-43826D01*
X16398Y-43301D01*
X16923D01*
X17448Y-43826D01*
Y-44875D01*
X16923Y-45400D01*
X15873D01*
X15349Y-44875D01*
X27887Y-256234D02*
X27362Y-255710D01*
X26312D01*
X25787Y-256234D01*
Y-258333D01*
X26312Y-258858D01*
X27362D01*
X27887Y-258333D01*
X31035Y-255710D02*
X29985Y-256234D01*
X28936Y-257284D01*
Y-258333D01*
X29461Y-258858D01*
X30510D01*
X31035Y-258333D01*
Y-257809D01*
X30510Y-257284D01*
X28936D01*
X23599Y-288476D02*
X23074Y-287951D01*
X22025D01*
X21500Y-288476D01*
Y-290575D01*
X22025Y-291100D01*
X23074D01*
X23599Y-290575D01*
X24649Y-287951D02*
X26748D01*
Y-288476D01*
X24649Y-290575D01*
Y-291100D01*
X19186Y-273242D02*
X18661Y-272717D01*
X17611D01*
X17087Y-273242D01*
Y-275341D01*
X17611Y-275866D01*
X18661D01*
X19186Y-275341D01*
X20235Y-273242D02*
X20760Y-272717D01*
X21810D01*
X22334Y-273242D01*
Y-273767D01*
X21810Y-274292D01*
X22334Y-274817D01*
Y-275341D01*
X21810Y-275866D01*
X20760D01*
X20235Y-275341D01*
Y-274817D01*
X20760Y-274292D01*
X20235Y-273767D01*
Y-273242D01*
X20760Y-274292D02*
X21810D01*
X54999Y-300976D02*
X54474Y-300451D01*
X53425D01*
X52900Y-300976D01*
Y-303075D01*
X53425Y-303600D01*
X54474D01*
X54999Y-303075D01*
X56049D02*
X56573Y-303600D01*
X57623D01*
X58148Y-303075D01*
Y-300976D01*
X57623Y-300451D01*
X56573D01*
X56049Y-300976D01*
Y-301501D01*
X56573Y-302026D01*
X58148D01*
X56799Y-179476D02*
X56274Y-178951D01*
X55225D01*
X54700Y-179476D01*
Y-181575D01*
X55225Y-182100D01*
X56274D01*
X56799Y-181575D01*
X57849Y-182100D02*
X58898D01*
X58373D01*
Y-178951D01*
X57849Y-179476D01*
X60472D02*
X60997Y-178951D01*
X62047D01*
X62572Y-179476D01*
Y-181575D01*
X62047Y-182100D01*
X60997D01*
X60472Y-181575D01*
Y-179476D01*
X40200Y-130251D02*
Y-133400D01*
X41774D01*
X42299Y-132875D01*
Y-130776D01*
X41774Y-130251D01*
X40200D01*
X45448Y-133400D02*
X43349D01*
X45448Y-131301D01*
Y-130776D01*
X44923Y-130251D01*
X43873D01*
X43349Y-130776D01*
X37248Y-327011D02*
Y-330159D01*
X39347D01*
X40396D02*
X41446D01*
X40921D01*
Y-327011D01*
X40396Y-327536D01*
X30250Y-457084D02*
Y-453935D01*
X31824D01*
X32349Y-454460D01*
Y-455509D01*
X31824Y-456034D01*
X30250D01*
X33399Y-457084D02*
X34448D01*
X33924D01*
Y-453935D01*
X33399Y-454460D01*
X42100Y-25000D02*
Y-21851D01*
X43674D01*
X44199Y-22376D01*
Y-23426D01*
X43674Y-23950D01*
X42100D01*
X47348Y-25000D02*
X45249D01*
X47348Y-22901D01*
Y-22376D01*
X46823Y-21851D01*
X45773D01*
X45249Y-22376D01*
X53400Y-25200D02*
Y-22051D01*
X54974D01*
X55499Y-22576D01*
Y-23626D01*
X54974Y-24150D01*
X53400D01*
X56549Y-22576D02*
X57073Y-22051D01*
X58123D01*
X58648Y-22576D01*
Y-23101D01*
X58123Y-23626D01*
X57598D01*
X58123D01*
X58648Y-24150D01*
Y-24675D01*
X58123Y-25200D01*
X57073D01*
X56549Y-24675D01*
X48753Y-337979D02*
Y-335880D01*
X48228Y-335355D01*
X47178D01*
X46654Y-335880D01*
Y-337979D01*
X47178Y-338504D01*
X48228D01*
X47703Y-337454D02*
X48753Y-338504D01*
X48228D02*
X48753Y-337979D01*
X49802Y-338504D02*
X50852D01*
X50327D01*
Y-335355D01*
X49802Y-335880D01*
X51500Y-323200D02*
Y-320051D01*
X53074D01*
X53599Y-320576D01*
Y-321626D01*
X53074Y-322150D01*
X51500D01*
X52549D02*
X53599Y-323200D01*
X54649D02*
X55698D01*
X55173D01*
Y-320051D01*
X54649Y-320576D01*
X41299Y-392284D02*
Y-389135D01*
X42873D01*
X43398Y-389660D01*
Y-390709D01*
X42873Y-391234D01*
X41299D01*
X42349D02*
X43398Y-392284D01*
X46547D02*
X44448D01*
X46547Y-390184D01*
Y-389660D01*
X46022Y-389135D01*
X44973D01*
X44448Y-389660D01*
X35236Y-383913D02*
Y-380765D01*
X36810D01*
X37335Y-381289D01*
Y-382339D01*
X36810Y-382864D01*
X35236D01*
X36285D02*
X37335Y-383913D01*
X38384Y-381289D02*
X38909Y-380765D01*
X39959D01*
X40483Y-381289D01*
Y-381814D01*
X39959Y-382339D01*
X39434D01*
X39959D01*
X40483Y-382864D01*
Y-383388D01*
X39959Y-383913D01*
X38909D01*
X38384Y-383388D01*
X1200Y-98600D02*
Y-95451D01*
X2774D01*
X3299Y-95976D01*
Y-97026D01*
X2774Y-97550D01*
X1200D01*
X2249D02*
X3299Y-98600D01*
X5923D02*
Y-95451D01*
X4349Y-97026D01*
X6448D01*
X47700Y-346200D02*
Y-343051D01*
X49274D01*
X49799Y-343576D01*
Y-344626D01*
X49274Y-345150D01*
X47700D01*
X48750D02*
X49799Y-346200D01*
X52948Y-343051D02*
X50849D01*
Y-344626D01*
X51898Y-344101D01*
X52423D01*
X52948Y-344626D01*
Y-345675D01*
X52423Y-346200D01*
X51373D01*
X50849Y-345675D01*
X27480Y-421500D02*
Y-418351D01*
X29055D01*
X29579Y-418876D01*
Y-419926D01*
X29055Y-420450D01*
X27480D01*
X28530D02*
X29579Y-421500D01*
X32728Y-418351D02*
X31678Y-418876D01*
X30629Y-419926D01*
Y-420975D01*
X31154Y-421500D01*
X32203D01*
X32728Y-420975D01*
Y-420450D01*
X32203Y-419926D01*
X30629D01*
X47900Y-352000D02*
Y-348851D01*
X49474D01*
X49999Y-349376D01*
Y-350426D01*
X49474Y-350951D01*
X47900D01*
X48950D02*
X49999Y-352000D01*
X51049Y-349376D02*
X51573Y-348851D01*
X52623D01*
X53148Y-349376D01*
Y-349901D01*
X52623Y-350426D01*
X53148Y-350951D01*
Y-351475D01*
X52623Y-352000D01*
X51573D01*
X51049Y-351475D01*
Y-350951D01*
X51573Y-350426D01*
X51049Y-349901D01*
Y-349376D01*
X51573Y-350426D02*
X52623D01*
X3110Y-73400D02*
Y-70251D01*
X4685D01*
X5209Y-70776D01*
Y-71826D01*
X4685Y-72351D01*
X3110D01*
X4160D02*
X5209Y-73400D01*
X6259Y-72875D02*
X6784Y-73400D01*
X7833D01*
X8358Y-72875D01*
Y-70776D01*
X7833Y-70251D01*
X6784D01*
X6259Y-70776D01*
Y-71301D01*
X6784Y-71826D01*
X8358D01*
X3110Y-110700D02*
Y-107551D01*
X4685D01*
X5209Y-108076D01*
Y-109126D01*
X4685Y-109651D01*
X3110D01*
X4160D02*
X5209Y-110700D01*
X6259D02*
X7308D01*
X6784D01*
Y-107551D01*
X6259Y-108076D01*
X8883D02*
X9407Y-107551D01*
X10457D01*
X10982Y-108076D01*
Y-110175D01*
X10457Y-110700D01*
X9407D01*
X8883Y-110175D01*
Y-108076D01*
X48300Y-439000D02*
Y-435851D01*
X49874D01*
X50399Y-436376D01*
Y-437426D01*
X49874Y-437951D01*
X48300D01*
X49349D02*
X50399Y-439000D01*
X51449D02*
X52498D01*
X51973D01*
Y-435851D01*
X51449Y-436376D01*
X54072Y-439000D02*
X55122D01*
X54597D01*
Y-435851D01*
X54072Y-436376D01*
X13400Y-419900D02*
Y-416751D01*
X14974D01*
X15499Y-417276D01*
Y-418326D01*
X14974Y-418851D01*
X13400D01*
X14449D02*
X15499Y-419900D01*
X16549D02*
X17598D01*
X17073D01*
Y-416751D01*
X16549Y-417276D01*
X21271Y-419900D02*
X19172D01*
X21271Y-417801D01*
Y-417276D01*
X20747Y-416751D01*
X19697D01*
X19172Y-417276D01*
X60500Y-111300D02*
Y-108151D01*
X62074D01*
X62599Y-108676D01*
Y-109726D01*
X62074Y-110250D01*
X60500D01*
X61550D02*
X62599Y-111300D01*
X63649D02*
X64698D01*
X64173D01*
Y-108151D01*
X63649Y-108676D01*
X68371Y-108151D02*
X66272D01*
Y-109726D01*
X67322Y-109201D01*
X67847D01*
X68371Y-109726D01*
Y-110775D01*
X67847Y-111300D01*
X66797D01*
X66272Y-110775D01*
X60700Y-99300D02*
Y-96151D01*
X62274D01*
X62799Y-96676D01*
Y-97726D01*
X62274Y-98251D01*
X60700D01*
X61750D02*
X62799Y-99300D01*
X63849D02*
X64898D01*
X64373D01*
Y-96151D01*
X63849Y-96676D01*
X68572Y-96151D02*
X67522Y-96676D01*
X66472Y-97726D01*
Y-98775D01*
X66997Y-99300D01*
X68047D01*
X68572Y-98775D01*
Y-98251D01*
X68047Y-97726D01*
X66472D01*
X66496Y-130905D02*
Y-127757D01*
X68070D01*
X68595Y-128282D01*
Y-129331D01*
X68070Y-129856D01*
X66496D01*
X67546D02*
X68595Y-130905D01*
X69645D02*
X70694D01*
X70169D01*
Y-127757D01*
X69645Y-128282D01*
X72268Y-127757D02*
X74367D01*
Y-128282D01*
X72268Y-130381D01*
Y-130905D01*
X60400Y-67600D02*
Y-64451D01*
X61974D01*
X62499Y-64976D01*
Y-66026D01*
X61974Y-66550D01*
X60400D01*
X61449D02*
X62499Y-67600D01*
X63549D02*
X64598D01*
X64073D01*
Y-64451D01*
X63549Y-64976D01*
X66172D02*
X66697Y-64451D01*
X67747D01*
X68271Y-64976D01*
Y-65501D01*
X67747Y-66026D01*
X68271Y-66550D01*
Y-67075D01*
X67747Y-67600D01*
X66697D01*
X66172Y-67075D01*
Y-66550D01*
X66697Y-66026D01*
X66172Y-65501D01*
Y-64976D01*
X66697Y-66026D02*
X67747D01*
X66969Y-143347D02*
Y-140198D01*
X68543D01*
X69068Y-140723D01*
Y-141772D01*
X68543Y-142297D01*
X66969D01*
X68018D02*
X69068Y-143347D01*
X70117D02*
X71167D01*
X70642D01*
Y-140198D01*
X70117Y-140723D01*
X72741Y-142822D02*
X73266Y-143347D01*
X74315D01*
X74840Y-142822D01*
Y-140723D01*
X74315Y-140198D01*
X73266D01*
X72741Y-140723D01*
Y-141247D01*
X73266Y-141772D01*
X74840D01*
X60600Y-56400D02*
Y-53251D01*
X62174D01*
X62699Y-53776D01*
Y-54826D01*
X62174Y-55351D01*
X60600D01*
X61650D02*
X62699Y-56400D01*
X65848D02*
X63749D01*
X65848Y-54301D01*
Y-53776D01*
X65323Y-53251D01*
X64273D01*
X63749Y-53776D01*
X66897D02*
X67422Y-53251D01*
X68471D01*
X68996Y-53776D01*
Y-55875D01*
X68471Y-56400D01*
X67422D01*
X66897Y-55875D01*
Y-53776D01*
X21500Y-171400D02*
Y-168251D01*
X23074D01*
X23599Y-168776D01*
Y-169826D01*
X23074Y-170351D01*
X21500D01*
X22549D02*
X23599Y-171400D01*
X26748D02*
X24649D01*
X26748Y-169301D01*
Y-168776D01*
X26223Y-168251D01*
X25173D01*
X24649Y-168776D01*
X27797Y-171400D02*
X28847D01*
X28322D01*
Y-168251D01*
X27797Y-168776D01*
X39955Y-221782D02*
Y-218633D01*
X41529D01*
X42054Y-219158D01*
Y-220208D01*
X41529Y-220732D01*
X39955D01*
X41005D02*
X42054Y-221782D01*
X45203D02*
X43104D01*
X45203Y-219683D01*
Y-219158D01*
X44678Y-218633D01*
X43628D01*
X43104Y-219158D01*
X48351Y-221782D02*
X46252D01*
X48351Y-219683D01*
Y-219158D01*
X47827Y-218633D01*
X46777D01*
X46252Y-219158D01*
X61200Y-36800D02*
Y-33651D01*
X62774D01*
X63299Y-34176D01*
Y-35226D01*
X62774Y-35750D01*
X61200D01*
X62249D02*
X63299Y-36800D01*
X66448D02*
X64349D01*
X66448Y-34701D01*
Y-34176D01*
X65923Y-33651D01*
X64873D01*
X64349Y-34176D01*
X67497D02*
X68022Y-33651D01*
X69072D01*
X69596Y-34176D01*
Y-34701D01*
X69072Y-35226D01*
X68547D01*
X69072D01*
X69596Y-35750D01*
Y-36275D01*
X69072Y-36800D01*
X68022D01*
X67497Y-36275D01*
X49915Y-292861D02*
Y-289713D01*
X51489D01*
X52014Y-290238D01*
Y-291287D01*
X51489Y-291812D01*
X49915D01*
X50964D02*
X52014Y-292861D01*
X55162D02*
X53063D01*
X55162Y-290762D01*
Y-290238D01*
X54638Y-289713D01*
X53588D01*
X53063Y-290238D01*
X57786Y-292861D02*
Y-289713D01*
X56212Y-291287D01*
X58311D01*
X60710Y-293107D02*
Y-289959D01*
X62284D01*
X62809Y-290483D01*
Y-291533D01*
X62284Y-292058D01*
X60710D01*
X61760D02*
X62809Y-293107D01*
X65958D02*
X63859D01*
X65958Y-291008D01*
Y-290483D01*
X65433Y-289959D01*
X64384D01*
X63859Y-290483D01*
X69107Y-289959D02*
X67007D01*
Y-291533D01*
X68057Y-291008D01*
X68582D01*
X69107Y-291533D01*
Y-292582D01*
X68582Y-293107D01*
X67532D01*
X67007Y-292582D01*
X57000Y-201811D02*
Y-198662D01*
X58574D01*
X59099Y-199187D01*
Y-200237D01*
X58574Y-200762D01*
X57000D01*
X58049D02*
X59099Y-201811D01*
X62248D02*
X60149D01*
X62248Y-199712D01*
Y-199187D01*
X61723Y-198662D01*
X60673D01*
X60149Y-199187D01*
X65396Y-198662D02*
X64347Y-199187D01*
X63297Y-200237D01*
Y-201286D01*
X63822Y-201811D01*
X64872D01*
X65396Y-201286D01*
Y-200762D01*
X64872Y-200237D01*
X63297D01*
X25682Y-189148D02*
X25157Y-188623D01*
X24107D01*
X23583Y-189148D01*
Y-189673D01*
X24107Y-190197D01*
X25157D01*
X25682Y-190722D01*
Y-191247D01*
X25157Y-191772D01*
X24107D01*
X23583Y-191247D01*
X26731Y-191772D02*
X27781D01*
X27256D01*
Y-188623D01*
X26731Y-189148D01*
X19742Y-398712D02*
Y-401336D01*
X20267Y-401861D01*
X21317D01*
X21841Y-401336D01*
Y-398712D01*
X22891Y-401861D02*
X23940D01*
X23416D01*
Y-398712D01*
X22891Y-399237D01*
X12952Y-373520D02*
Y-376144D01*
X13477Y-376669D01*
X14527D01*
X15051Y-376144D01*
Y-373520D01*
X18200Y-376669D02*
X16101D01*
X18200Y-374570D01*
Y-374045D01*
X17675Y-373520D01*
X16626D01*
X16101Y-374045D01*
X69449Y-407400D02*
X66825D01*
X66300Y-407925D01*
Y-408974D01*
X66825Y-409499D01*
X69449D01*
X68924Y-410549D02*
X69449Y-411073D01*
Y-412123D01*
X68924Y-412648D01*
X68399D01*
X67874Y-412123D01*
Y-411598D01*
Y-412123D01*
X67349Y-412648D01*
X66825D01*
X66300Y-412123D01*
Y-411073D01*
X66825Y-410549D01*
X29000Y-280051D02*
Y-282675D01*
X29525Y-283200D01*
X30574D01*
X31099Y-282675D01*
Y-280051D01*
X33723Y-283200D02*
Y-280051D01*
X32149Y-281626D01*
X34248D01*
X14215Y-469757D02*
Y-472380D01*
X14740Y-472905D01*
X15789D01*
X16314Y-472380D01*
Y-469757D01*
X19463D02*
X17364D01*
Y-471331D01*
X18413Y-470806D01*
X18938D01*
X19463Y-471331D01*
Y-472380D01*
X18938Y-472905D01*
X17888D01*
X17364Y-472380D01*
X49173Y-245355D02*
Y-247979D01*
X49698Y-248504D01*
X50748D01*
X51272Y-247979D01*
Y-245355D01*
X54421D02*
X53371Y-245880D01*
X52322Y-246930D01*
Y-247979D01*
X52847Y-248504D01*
X53896D01*
X54421Y-247979D01*
Y-247454D01*
X53896Y-246930D01*
X52322D01*
X75276Y-155601D02*
X74751Y-156126D01*
Y-157175D01*
X75276Y-157700D01*
X77375D01*
X77900Y-157175D01*
Y-156126D01*
X77375Y-155601D01*
X76326D01*
Y-156650D01*
X77900Y-154551D02*
X74751D01*
X77900Y-152452D01*
X74751D01*
Y-151403D02*
X77900D01*
Y-149829D01*
X77375Y-149304D01*
X75276D01*
X74751Y-149829D01*
Y-151403D01*
X77600Y-169500D02*
X74451D01*
Y-167926D01*
X74976Y-167401D01*
X76026D01*
X76551Y-167926D01*
Y-169500D01*
Y-168450D02*
X77600Y-167401D01*
X74976Y-164252D02*
X74451Y-164777D01*
Y-165827D01*
X74976Y-166351D01*
X75501D01*
X76026Y-165827D01*
Y-164777D01*
X76551Y-164252D01*
X77075D01*
X77600Y-164777D01*
Y-165827D01*
X77075Y-166351D01*
X74451Y-163203D02*
Y-161104D01*
Y-162153D01*
X77600D01*
X68376Y-195601D02*
X67851Y-196126D01*
Y-197175D01*
X68376Y-197700D01*
X70475D01*
X71000Y-197175D01*
Y-196126D01*
X70475Y-195601D01*
X67851Y-194551D02*
X71000D01*
Y-192452D01*
X67851Y-191403D02*
X71000D01*
X69950D01*
X67851Y-189304D01*
X69426Y-190878D01*
X71000Y-189304D01*
X74151Y-241700D02*
X77300D01*
Y-240126D01*
X76775Y-239601D01*
X76250D01*
X75726Y-240126D01*
Y-241700D01*
Y-240126D01*
X75201Y-239601D01*
X74676D01*
X74151Y-240126D01*
Y-241700D01*
X77300Y-238551D02*
X75201D01*
X74151Y-237502D01*
X75201Y-236452D01*
X77300D01*
X75726D01*
Y-238551D01*
X74151Y-235403D02*
Y-233304D01*
Y-234353D01*
X77300D01*
X73951Y-229200D02*
X77100D01*
Y-227626D01*
X76575Y-227101D01*
X74476D01*
X73951Y-227626D01*
Y-229200D01*
X77100Y-226051D02*
X75001D01*
X73951Y-225002D01*
X75001Y-223952D01*
X77100D01*
X75526D01*
Y-226051D01*
X73951Y-222903D02*
Y-220804D01*
Y-221853D01*
X77100D01*
D49*
X65218Y-375847D02*
G03*
X65218Y-377127I0J-640D01*
G01*
Y-409387D02*
G03*
X65218Y-410667I0J-640D01*
G01*
X54982Y-372688D02*
X65218D01*
X54982Y-380286D02*
Y-372688D01*
Y-380286D02*
X65218D01*
Y-377127D01*
Y-375847D02*
Y-372688D01*
X54982Y-406227D02*
X65218D01*
X54982Y-413826D02*
Y-406227D01*
Y-413826D02*
X65218D01*
Y-410667D01*
Y-409387D02*
Y-406227D01*
X54878Y-720D02*
X78500D01*
X54878Y-17720D02*
Y-791D01*
Y-17720D02*
X78500D01*
Y-791D01*
X5120Y-720D02*
X46459D01*
Y-17649D02*
Y-720D01*
X5120Y-17649D02*
X46459D01*
X5120D02*
Y-720D01*
X23622Y-161024D02*
Y-31102D01*
X59055D01*
Y-161024D02*
Y-31102D01*
X23622Y-161024D02*
X59055D01*
X31496Y-57284D02*
Y-39567D01*
X51181D01*
Y-57284D02*
Y-39567D01*
X31496Y-57284D02*
X51181D01*
X31496Y-78937D02*
Y-62008D01*
X51181D01*
X31496Y-78937D02*
X51181D01*
Y-62008D01*
X31496Y-100591D02*
Y-83661D01*
X51024D01*
X31496Y-100591D02*
X51063D01*
X51024Y-100551D02*
X51063Y-100591D01*
Y-83701D01*
X31496Y-122244D02*
Y-105315D01*
X51181D01*
X31496Y-122244D02*
X51181D01*
Y-105315D01*
X15748Y-279528D02*
Y-165354D01*
X66929D01*
Y-279528D02*
Y-165354D01*
X15748Y-279528D02*
X66929D01*
X12471Y-457390D02*
Y-427890D01*
Y-457390D02*
X29400D01*
Y-427890D01*
X12471D02*
X29400D01*
D50*
X45770Y-243935D02*
G03*
X45770Y-243935I-394J0D01*
G01*
D51*
X48228Y-192913D02*
G03*
X48228Y-192913I-6890J0D01*
G01*
X38189Y-47244D02*
X44488D01*
Y-50394D02*
Y-47244D01*
X38189Y-50394D02*
X44488D01*
X38189D02*
Y-47244D01*
Y-68898D02*
X44488D01*
Y-72047D02*
Y-68898D01*
X38189Y-72047D02*
X44488D01*
X38189D02*
Y-68898D01*
Y-90551D02*
X44488D01*
X38189Y-93701D02*
X44488D01*
Y-90551D01*
X38189Y-93701D02*
Y-90551D01*
Y-112205D02*
X44488D01*
Y-115354D02*
Y-112205D01*
X38189Y-115354D02*
X44488D01*
X38189D02*
Y-112205D01*
X53248Y-204823D02*
Y-181004D01*
X29429Y-204823D02*
Y-181004D01*
Y-204823D02*
X53248D01*
X29429Y-181004D02*
X53248D01*
X30906Y-210925D02*
Y-204823D01*
X33661Y-210925D02*
Y-204823D01*
X30906Y-206988D02*
X33661D01*
X30906Y-210925D02*
X33661D01*
X49016D02*
Y-204823D01*
X51772Y-210925D02*
Y-204823D01*
X49016Y-206988D02*
X51772D01*
X49016Y-210925D02*
X51772D01*
X30906Y-181004D02*
Y-174902D01*
X33661Y-181004D02*
Y-174902D01*
X30906D02*
X33661D01*
X30906Y-178839D02*
X33661D01*
X49016Y-181004D02*
Y-174902D01*
X51772Y-181004D02*
Y-174902D01*
X49016D02*
X51772D01*
X49016Y-178839D02*
X51772D01*
X23740Y-518701D02*
Y-473229D01*
X23741D02*
X27953D01*
Y-477362D02*
Y-473229D01*
X27677Y-477362D02*
X55000D01*
X54724D02*
Y-473229D01*
X58936D01*
X58937Y-518701D02*
Y-473229D01*
X27677Y-518701D02*
Y-477362D01*
X55000Y-518701D02*
Y-477362D01*
X27677Y-494567D02*
X55000D01*
X23741Y-490433D02*
X27953D01*
Y-494567D02*
Y-490433D01*
X54724Y-494567D02*
Y-490433D01*
X58936D01*
X23740Y-517244D02*
X58937D01*
X23740Y-518701D02*
X58937D01*
D52*
X29449Y-358110D02*
Y-351811D01*
X18032D02*
X29449D01*
X18032Y-358110D02*
X29449D01*
X18032D02*
Y-351811D01*
X24230Y-404151D02*
X30530D01*
X24230Y-415569D02*
Y-404151D01*
X30530Y-415569D02*
Y-404151D01*
X24230Y-415569D02*
X30530D01*
X18032Y-378290D02*
Y-371991D01*
Y-378290D02*
X29449D01*
X18032Y-371991D02*
X29449D01*
Y-378290D02*
Y-371991D01*
X15467Y-338473D02*
X35656D01*
X15467D02*
Y-321473D01*
X35656Y-338473D02*
Y-321473D01*
X15467D02*
X35656D01*
X47019Y-279080D02*
Y-272780D01*
X35601D02*
X47019D01*
X35601Y-279080D02*
X47019D01*
X35601D02*
Y-272780D01*
D53*
X35540Y-302661D02*
X45540D01*
X35540Y-315259D02*
X45540D01*
X14540Y-302661D02*
X25048D01*
X14540Y-315259D02*
X25048D01*
X45540D02*
Y-302661D01*
X14540Y-315259D02*
Y-302661D01*
M02*
