%FSLAX25Y25*%
%MOIN*%
G70*
G01*
G75*
G04 Layer_Color=8388736*
%ADD10C,0.05906*%
%ADD11R,0.02362X0.02756*%
%ADD12R,0.02756X0.02362*%
%ADD13R,0.03150X0.03937*%
%ADD14R,0.03937X0.03150*%
%ADD15R,0.02559X0.02165*%
%ADD16R,0.02165X0.02559*%
%ADD17R,0.03543X0.03150*%
%ADD18R,0.03543X0.03150*%
%ADD19R,0.01575X0.03937*%
%ADD20O,0.01181X0.07874*%
%ADD21R,0.01181X0.07874*%
%ADD22R,0.03937X0.01575*%
%ADD23R,0.02362X0.07874*%
%ADD24R,0.01063X0.07874*%
%ADD25R,0.05118X0.05118*%
%ADD26R,0.00787X0.02362*%
%ADD27R,0.00787X0.03150*%
%ADD28R,0.02362X0.00787*%
%ADD29R,0.03150X0.00787*%
%ADD30R,0.05118X0.15748*%
%ADD31R,0.03150X0.03543*%
%ADD32R,0.03150X0.03543*%
%ADD33R,0.06299X0.07480*%
%ADD34R,0.02756X0.13386*%
%ADD35R,0.02756X0.06102*%
%ADD36R,0.07874X0.10000*%
%ADD37R,0.04724X0.03937*%
%ADD38R,0.07480X0.06299*%
%ADD39R,0.13386X0.02756*%
%ADD40C,0.00787*%
%ADD41C,0.02362*%
%ADD42C,0.01000*%
%ADD43C,0.01575*%
%ADD44C,0.01181*%
%ADD45C,0.01969*%
%ADD46C,0.03150*%
%ADD47C,0.00500*%
%ADD48C,0.00591*%
%ADD49C,0.00394*%
%ADD50C,0.00600*%
%ADD51C,0.00197*%
%ADD52C,0.00709*%
%ADD53C,0.01200*%
%ADD54C,0.06706*%
%ADD55R,0.03162X0.03556*%
%ADD56R,0.03556X0.03162*%
%ADD57R,0.03950X0.04737*%
%ADD58R,0.04737X0.03950*%
%ADD59R,0.03359X0.02965*%
%ADD60R,0.02965X0.03359*%
%ADD61R,0.04343X0.03950*%
%ADD62R,0.04343X0.03950*%
%ADD63R,0.02375X0.04737*%
%ADD64O,0.01981X0.08674*%
%ADD65R,0.01981X0.08674*%
%ADD66R,0.04737X0.02375*%
%ADD67R,0.03162X0.08674*%
%ADD68R,0.01863X0.08674*%
%ADD69R,0.05918X0.05918*%
%ADD70R,0.01587X0.03162*%
%ADD71R,0.01587X0.03950*%
%ADD72R,0.03162X0.01587*%
%ADD73R,0.03950X0.01587*%
%ADD74R,0.05918X0.16548*%
%ADD75R,0.03950X0.04343*%
%ADD76R,0.03950X0.04343*%
%ADD77R,0.07099X0.08280*%
%ADD78R,0.03556X0.14186*%
%ADD79R,0.03556X0.06902*%
%ADD80R,0.08674X0.10800*%
%ADD81R,0.05524X0.04737*%
%ADD82R,0.08280X0.07099*%
%ADD83R,0.14186X0.03556*%
D54*
X74810Y-204319D02*
D03*
Y-184520D02*
D03*
Y-214052D02*
D03*
Y-175140D02*
D03*
Y-194340D02*
D03*
D55*
X64320Y-193380D02*
D03*
X59595D02*
D03*
X61268Y-296460D02*
D03*
X65992D02*
D03*
X50358D02*
D03*
X55082D02*
D03*
X63768Y-39450D02*
D03*
X68492D02*
D03*
X54298Y-219680D02*
D03*
X59022D02*
D03*
X38982Y-169340D02*
D03*
X34258D02*
D03*
X62348Y-48890D02*
D03*
X67072D02*
D03*
X62348Y-70460D02*
D03*
X67072D02*
D03*
X62348Y-92070D02*
D03*
X67072D02*
D03*
X62348Y-114340D02*
D03*
X67072D02*
D03*
X56468Y-350356D02*
D03*
X61192D02*
D03*
X22728Y-387421D02*
D03*
X27452D02*
D03*
X56378Y-344666D02*
D03*
X61102D02*
D03*
X32968Y-387431D02*
D03*
X37692D02*
D03*
X41012Y-395201D02*
D03*
X36288D02*
D03*
X58958Y-321776D02*
D03*
X63682D02*
D03*
X55012Y-442710D02*
D03*
X50288D02*
D03*
X40552Y-420550D02*
D03*
X35828D02*
D03*
X15894Y-103000D02*
D03*
X11170D02*
D03*
X13318Y-71650D02*
D03*
X18042D02*
D03*
X15894Y-97050D02*
D03*
X11170D02*
D03*
D56*
X63550Y-145792D02*
D03*
Y-141068D02*
D03*
Y-127488D02*
D03*
Y-132212D02*
D03*
X14900Y-408858D02*
D03*
Y-413582D02*
D03*
D57*
X30874Y-289490D02*
D03*
X37567D02*
D03*
X27437Y-393631D02*
D03*
X20744D02*
D03*
X38137Y-113903D02*
D03*
X44436D02*
D03*
X38137Y-92073D02*
D03*
X44436D02*
D03*
X38127Y-70423D02*
D03*
X44426D02*
D03*
X38137Y-48833D02*
D03*
X44436D02*
D03*
X30913Y-296270D02*
D03*
X37606D02*
D03*
X7664Y-35630D02*
D03*
X14356D02*
D03*
D58*
X28150Y-263154D02*
D03*
Y-269847D02*
D03*
D59*
X34400Y-369044D02*
D03*
Y-372981D02*
D03*
X17330Y-265903D02*
D03*
Y-269840D02*
D03*
X46570Y-426757D02*
D03*
Y-422820D02*
D03*
X48810Y-417517D02*
D03*
Y-413580D02*
D03*
D60*
X60283Y-186580D02*
D03*
X64220D02*
D03*
X65197Y-302680D02*
D03*
X61260D02*
D03*
X18947Y-48560D02*
D03*
X15010D02*
D03*
D61*
X14310Y-56150D02*
D03*
X10570Y-64811D02*
D03*
X14910Y-81250D02*
D03*
X11170Y-89911D02*
D03*
D62*
X18050Y-64811D02*
D03*
X18650Y-89911D02*
D03*
D63*
X27480Y-348858D02*
D03*
X20000D02*
D03*
X23740D02*
D03*
Y-361063D02*
D03*
X20000D02*
D03*
X27480D02*
D03*
X20000Y-381243D02*
D03*
X27480D02*
D03*
X23740D02*
D03*
Y-369038D02*
D03*
X27480D02*
D03*
X20000D02*
D03*
X37570Y-269828D02*
D03*
X45050D02*
D03*
X41310Y-282032D02*
D03*
X45050D02*
D03*
X37570D02*
D03*
D64*
X56261Y-387117D02*
D03*
X58821D02*
D03*
X61380D02*
D03*
X63939D02*
D03*
X56261Y-365857D02*
D03*
X58821D02*
D03*
X61380D02*
D03*
X56261Y-420657D02*
D03*
X58821D02*
D03*
X61380D02*
D03*
X63939D02*
D03*
X56261Y-399397D02*
D03*
X58821D02*
D03*
X61380D02*
D03*
D65*
X63939Y-365857D02*
D03*
Y-399397D02*
D03*
D66*
X21278Y-406120D02*
D03*
Y-413600D02*
D03*
Y-409860D02*
D03*
X33482D02*
D03*
Y-413600D02*
D03*
Y-406120D02*
D03*
D67*
X58438Y-471340D02*
D03*
X24422D02*
D03*
D68*
X52257D02*
D03*
X50288D02*
D03*
X48320D02*
D03*
X46351D02*
D03*
X44383D02*
D03*
X40446D02*
D03*
X38477D02*
D03*
X36509D02*
D03*
X34540D02*
D03*
X32572D02*
D03*
X30603D02*
D03*
X42414D02*
D03*
D69*
X40494Y-239053D02*
D03*
D70*
X43644Y-245352D02*
D03*
X37345D02*
D03*
Y-232754D02*
D03*
X43644D02*
D03*
D71*
X42069Y-244959D02*
D03*
X40494D02*
D03*
X38920D02*
D03*
Y-233148D02*
D03*
X40494D02*
D03*
X42069D02*
D03*
D72*
X34195Y-242203D02*
D03*
Y-235904D02*
D03*
X46794D02*
D03*
Y-242203D02*
D03*
D73*
X34589Y-240628D02*
D03*
Y-239053D02*
D03*
Y-237478D02*
D03*
X46400D02*
D03*
Y-239053D02*
D03*
Y-240628D02*
D03*
D74*
X18869Y-329973D02*
D03*
X32254D02*
D03*
D75*
X52530Y-333196D02*
D03*
X61191Y-336936D02*
D03*
D76*
Y-329455D02*
D03*
D77*
X78067Y-8120D02*
D03*
X55272D02*
D03*
X46183Y-8049D02*
D03*
X4687D02*
D03*
D78*
X69642Y-24098D02*
D03*
X63736D02*
D03*
X13978Y-24027D02*
D03*
X19884D02*
D03*
X25789D02*
D03*
X31695D02*
D03*
X37600D02*
D03*
D79*
X50394Y-177953D02*
D03*
Y-207677D02*
D03*
X32283Y-177953D02*
D03*
Y-207677D02*
D03*
D80*
X39040Y-308960D02*
D03*
X21324D02*
D03*
D81*
X33031Y-152070D02*
D03*
Y-145180D02*
D03*
X52716Y-152070D02*
D03*
Y-145180D02*
D03*
Y-138290D02*
D03*
X33031D02*
D03*
D82*
X19800Y-457890D02*
D03*
Y-427457D02*
D03*
D83*
X35778Y-436748D02*
D03*
Y-442654D02*
D03*
Y-448559D02*
D03*
M02*
