%FSLAX25Y25*%
%MOIN*%
G70*
G01*
G75*
G04 Layer_Color=255*
%ADD10R,0.03150X0.03543*%
%ADD11R,0.03150X0.03543*%
%ADD12R,0.03150X0.03937*%
%ADD13C,0.05906*%
%ADD14R,0.05118X0.15748*%
%ADD15R,0.03150X0.02559*%
%ADD16R,0.00787X0.02362*%
%ADD17R,0.00787X0.03150*%
%ADD18R,0.02362X0.00787*%
%ADD19R,0.03150X0.00787*%
%ADD20R,0.05118X0.05118*%
%ADD21R,0.05906X0.03937*%
%ADD22R,0.05906X0.12992*%
%ADD23R,0.01063X0.07874*%
%ADD24R,0.02362X0.07874*%
%ADD25R,0.02165X0.02559*%
%ADD26R,0.01575X0.03937*%
%ADD27R,0.02362X0.02756*%
%ADD28R,0.03937X0.01575*%
%ADD29R,0.01181X0.07874*%
%ADD30O,0.01181X0.07874*%
%ADD31R,0.02559X0.02165*%
%ADD32R,0.03543X0.03150*%
%ADD33R,0.03543X0.03150*%
%ADD34R,0.07874X0.10000*%
%ADD35R,0.02756X0.02362*%
%ADD36R,0.03937X0.03150*%
%ADD37C,0.00787*%
%ADD38C,0.01000*%
%ADD39C,0.01181*%
%ADD40C,0.02362*%
%ADD41C,0.03150*%
%ADD42C,0.01575*%
%ADD43R,0.05906X0.05906*%
%ADD44C,0.01969*%
%ADD45C,0.03150*%
D13*
X50168Y-180075D02*
D03*
X32452D02*
D03*
X50168Y-205665D02*
D03*
X32452D02*
D03*
X52950Y-19540D02*
D03*
X42950D02*
D03*
X32950D02*
D03*
X48110Y-6700D02*
D03*
X38110D02*
D03*
X28110D02*
D03*
X18110D02*
D03*
X17890Y-458780D02*
D03*
Y-448780D02*
D03*
Y-438780D02*
D03*
D23*
X30603Y-471340D02*
D03*
X32572D02*
D03*
X34540D02*
D03*
X36509D02*
D03*
X38477D02*
D03*
X40446D02*
D03*
X52257D02*
D03*
X50288D02*
D03*
X48320D02*
D03*
X46351D02*
D03*
X44383D02*
D03*
X42414D02*
D03*
D24*
X24422D02*
D03*
X58438D02*
D03*
D43*
X22950Y-19540D02*
D03*
X8110Y-6700D02*
D03*
M02*
