%FSLAX25Y25*%
%MOIN*%
G70*
G01*
G75*
G04 Layer_Color=2752767*
%ADD10R,0.03150X0.03543*%
%ADD11R,0.03150X0.03543*%
%ADD12R,0.03150X0.03937*%
%ADD13C,0.05906*%
%ADD14R,0.05118X0.15748*%
%ADD15R,0.03150X0.02559*%
%ADD16R,0.00787X0.02362*%
%ADD17R,0.00787X0.03150*%
%ADD18R,0.02362X0.00787*%
%ADD19R,0.03150X0.00787*%
%ADD20R,0.05118X0.05118*%
%ADD21R,0.05906X0.03937*%
%ADD22R,0.05906X0.12992*%
%ADD23R,0.01063X0.07874*%
%ADD24R,0.02362X0.07874*%
%ADD25R,0.02165X0.02559*%
%ADD26R,0.01575X0.03937*%
%ADD27R,0.02362X0.02756*%
%ADD28R,0.03937X0.01575*%
%ADD29R,0.01181X0.07874*%
%ADD30O,0.01181X0.07874*%
%ADD31R,0.02559X0.02165*%
%ADD32R,0.03543X0.03150*%
%ADD33R,0.03543X0.03150*%
%ADD34R,0.07874X0.10000*%
%ADD35R,0.02756X0.02362*%
%ADD36R,0.03937X0.03150*%
%ADD37C,0.00787*%
%ADD38C,0.01000*%
%ADD39C,0.01181*%
%ADD40C,0.02362*%
%ADD41C,0.03150*%
%ADD42C,0.01575*%
%ADD43R,0.05906X0.05906*%
%ADD44C,0.01969*%
%ADD45C,0.03150*%
%ADD46C,0.00197*%
%ADD47C,0.00600*%
%ADD48C,0.00500*%
%ADD49C,0.00394*%
%ADD50C,0.00591*%
%ADD51C,0.00709*%
%ADD52C,0.01200*%
%ADD53R,0.03950X0.04343*%
%ADD54R,0.03950X0.04343*%
%ADD55R,0.03950X0.04737*%
%ADD56C,0.06706*%
%ADD57R,0.05918X0.16548*%
%ADD58R,0.03950X0.03359*%
%ADD59R,0.01587X0.03162*%
%ADD60R,0.01587X0.03950*%
%ADD61R,0.03162X0.01587*%
%ADD62R,0.03950X0.01587*%
%ADD63R,0.05918X0.05918*%
%ADD64R,0.06706X0.04737*%
%ADD65R,0.06706X0.13792*%
%ADD66R,0.01863X0.08674*%
%ADD67R,0.03162X0.08674*%
%ADD68R,0.02965X0.03359*%
%ADD69R,0.02375X0.04737*%
%ADD70R,0.03162X0.03556*%
%ADD71R,0.04737X0.02375*%
%ADD72R,0.01981X0.08674*%
%ADD73O,0.01981X0.08674*%
%ADD74R,0.03359X0.02965*%
%ADD75R,0.04343X0.03950*%
%ADD76R,0.04343X0.03950*%
%ADD77R,0.08674X0.10800*%
%ADD78R,0.03556X0.03162*%
%ADD79R,0.04737X0.03950*%
%ADD80R,0.06706X0.06706*%
%ADD81C,0.00667*%
D46*
X48168Y-182075D02*
Y-178075D01*
X52168D01*
Y-182075D01*
X48168D01*
X30452D02*
Y-178075D01*
X34452D01*
Y-182075D01*
X30452D01*
X48168Y-207665D02*
Y-203665D01*
X52168D01*
Y-207665D01*
X48168D01*
X30452D02*
Y-203665D01*
X34452D01*
Y-207665D01*
X30452D01*
X39567Y-149638D02*
X37567Y-145638D01*
X41567D01*
X39567Y-149638D01*
X67913Y-156921D02*
X65913Y-152921D01*
X69913D01*
X67913Y-156921D01*
X30709Y-153260D02*
X28709Y-149259D01*
X32709D01*
X30709Y-153260D01*
Y-158850D02*
X28709Y-154850D01*
X32709D01*
X30709Y-158850D01*
X20787Y-174204D02*
X18787Y-170204D01*
X22787D01*
X20787Y-174204D01*
X49492Y-139752D02*
X47492Y-135752D01*
X51492D01*
X49492Y-139752D01*
X53980D02*
X51980Y-135752D01*
X55980D01*
X53980Y-139752D01*
X63346Y-135031D02*
X61347Y-131032D01*
X65346D01*
X63346Y-135031D01*
X44685Y-174205D02*
X42685Y-170205D01*
X46685D01*
X44685Y-174205D01*
X62677Y-170661D02*
X60677Y-166661D01*
X64677D01*
X62677Y-170661D01*
X70945Y-144205D02*
X68945Y-140205D01*
X72945D01*
X70945Y-144205D01*
X73189Y-148457D02*
X71189Y-144457D01*
X75189D01*
X73189Y-148457D01*
X76535Y-31331D02*
X74535Y-27331D01*
X78535D01*
X76535Y-31331D01*
X54805Y-146018D02*
X52805Y-142018D01*
X56805D01*
X54805Y-146018D01*
X11417Y-156843D02*
X9417Y-152842D01*
X13417D01*
X11417Y-156843D01*
X43740Y-161291D02*
X41740Y-157291D01*
X45740D01*
X43740Y-161291D01*
X23268Y-166528D02*
X21268Y-162528D01*
X25268D01*
X23268Y-166528D01*
X58958Y-316428D02*
X56958Y-312428D01*
X60958D01*
X58958Y-316428D01*
X70157Y-191688D02*
X68158Y-187688D01*
X72158D01*
X70157Y-191688D01*
X39646Y-164559D02*
X37646Y-160559D01*
X41646D01*
X39646Y-164559D01*
Y-186685D02*
X37646Y-182685D01*
X41646D01*
X39646Y-186685D01*
X31811Y-169126D02*
X29811Y-165126D01*
X33811D01*
X31811Y-169126D01*
X55079Y-288378D02*
X53079Y-284378D01*
X57079D01*
X55079Y-288378D01*
X17992Y-78614D02*
X18992Y-77614D01*
X19992D01*
X18992Y-76614D01*
X19992Y-75614D01*
X18992D01*
X17992Y-74614D01*
X16992Y-75614D01*
X15992D01*
X16992Y-76614D01*
X15992Y-77614D01*
X16992D01*
X17992Y-78614D01*
X31882Y-280905D02*
X32882Y-279905D01*
X33882D01*
X32882Y-278905D01*
X33882Y-277905D01*
X32882D01*
X31882Y-276905D01*
X30882Y-277905D01*
X29882D01*
X30882Y-278905D01*
X29882Y-279905D01*
X30882D01*
X31882Y-280905D01*
X56417Y-367630D02*
X57417Y-366630D01*
X58417D01*
X57417Y-365630D01*
X58417Y-364630D01*
X57417D01*
X56417Y-363630D01*
X55417Y-364630D01*
X54417D01*
X55417Y-365630D01*
X54417Y-366630D01*
X55417D01*
X56417Y-367630D01*
X63661Y-328969D02*
X61661Y-324969D01*
X65661D01*
X63661Y-328969D01*
X53236Y-271850D02*
X51236Y-267850D01*
X55236D01*
X53236Y-271850D01*
X27480Y-410386D02*
X28480Y-409386D01*
X29480D01*
X28480Y-408386D01*
X29480Y-407386D01*
X28480D01*
X27480Y-406386D01*
X26480Y-407386D01*
X25480D01*
X26480Y-408386D01*
X25480Y-409386D01*
X26480D01*
X27480Y-410386D01*
X36561Y-466882D02*
X37561Y-465882D01*
X38561D01*
X37561Y-464882D01*
X38561Y-463882D01*
X37561D01*
X36561Y-462882D01*
X35561Y-463882D01*
X34561D01*
X35561Y-464882D01*
X34561Y-465882D01*
X35561D01*
X36561Y-466882D01*
X56653Y-426173D02*
X54654Y-422173D01*
X58653D01*
X56653Y-426173D01*
X56693Y-388575D02*
X54693Y-384575D01*
X58693D01*
X56693Y-388575D01*
X59254Y-391053D02*
X57254Y-387053D01*
X61254D01*
X59254Y-391053D01*
X34811Y-452780D02*
X32811Y-448780D01*
X36811D01*
X34811Y-452780D01*
X32677Y-448575D02*
X30677Y-444575D01*
X34677D01*
X32677Y-448575D01*
X2441Y-17827D02*
X441Y-13827D01*
X4441D01*
X2441Y-17827D01*
X3268Y-27197D02*
X1268Y-23197D01*
X5268D01*
X3268Y-27197D01*
X4646Y-41724D02*
X2646Y-37724D01*
X6646D01*
X4646Y-41724D01*
X65630Y-29913D02*
X63630Y-25913D01*
X67630D01*
X65630Y-29913D01*
X63858Y-16724D02*
X61858Y-12724D01*
X65858D01*
X63858Y-16724D01*
X72795Y-11724D02*
X70795Y-7724D01*
X74795D01*
X72795Y-11724D01*
X80551Y-19953D02*
X78551Y-15953D01*
X82551D01*
X80551Y-19953D01*
X63543Y-62315D02*
X61543Y-58315D01*
X65543D01*
X63543Y-62315D01*
X62047Y-84677D02*
X60047Y-80677D01*
X64047D01*
X62047Y-84677D01*
X65039Y-108063D02*
X63039Y-104063D01*
X67039D01*
X65039Y-108063D01*
X10748Y-115504D02*
X8748Y-111504D01*
X12748D01*
X10748Y-115504D01*
X4331Y-159992D02*
X2331Y-155992D01*
X6331D01*
X4331Y-159992D01*
X77598Y-229165D02*
X75598Y-225165D01*
X79598D01*
X77598Y-229165D01*
X62520Y-216134D02*
X60520Y-212134D01*
X64520D01*
X62520Y-216134D01*
X42323Y-215307D02*
X40323Y-211307D01*
X44323D01*
X42323Y-215307D01*
X66654Y-168299D02*
X64653Y-164299D01*
X68654D01*
X66654Y-168299D01*
X36063Y-131449D02*
X34063Y-127449D01*
X38063D01*
X36063Y-131449D01*
X48661Y-264441D02*
X46661Y-260441D01*
X50661D01*
X48661Y-264441D01*
X20787Y-279913D02*
X18787Y-275913D01*
X22787D01*
X20787Y-279913D01*
X33150Y-276252D02*
X31150Y-272252D01*
X35150D01*
X33150Y-276252D01*
X45709Y-292354D02*
X43709Y-288354D01*
X47709D01*
X45709Y-292354D01*
X67559Y-340976D02*
X65559Y-336976D01*
X69559D01*
X67559Y-340976D01*
X67874Y-311842D02*
X65874Y-307842D01*
X69874D01*
X67874Y-311842D01*
X62638Y-459087D02*
X60638Y-455087D01*
X64638D01*
X62638Y-459087D01*
X66850Y-459126D02*
X64850Y-455126D01*
X68850D01*
X66850Y-459126D01*
X58701D02*
X56701Y-455126D01*
X60701D01*
X58701Y-459126D01*
X66850Y-463299D02*
X64850Y-459299D01*
X68850D01*
X66850Y-463299D01*
X51575Y-315228D02*
X49575Y-311228D01*
X53575D01*
X51575Y-315228D01*
X47638Y-356803D02*
X45638Y-352803D01*
X49638D01*
X47638Y-356803D01*
Y-362591D02*
X45638Y-358591D01*
X49638D01*
X47638Y-362591D01*
X35315Y-359441D02*
X33315Y-355441D01*
X37315D01*
X35315Y-359441D01*
X35197Y-373024D02*
X33197Y-369024D01*
X37197D01*
X35197Y-373024D01*
X36575Y-390583D02*
X34575Y-386583D01*
X38575D01*
X36575Y-390583D01*
X14528Y-398260D02*
X12528Y-394260D01*
X16528D01*
X14528Y-398260D01*
X15512Y-412000D02*
X13512Y-408000D01*
X17512D01*
X15512Y-412000D01*
X32795Y-411449D02*
X30795Y-407449D01*
X34795D01*
X32795Y-411449D01*
X38819Y-422079D02*
X36819Y-418079D01*
X40819D01*
X38819Y-422079D01*
Y-426764D02*
X36819Y-422764D01*
X40819D01*
X38819Y-426764D01*
X43780Y-422039D02*
X41780Y-418039D01*
X45779D01*
X43780Y-422039D01*
Y-426882D02*
X41780Y-422882D01*
X45779D01*
X43780Y-426882D01*
X35827Y-160425D02*
X33827Y-156425D01*
X37827D01*
X35827Y-160425D01*
X45984Y-152472D02*
X43984Y-148472D01*
X47984D01*
X45984Y-152472D01*
X72874Y-154874D02*
X70874Y-150874D01*
X74874D01*
X72874Y-154874D01*
X49213Y-146803D02*
X47213Y-142803D01*
X51213D01*
X49213Y-146803D01*
X64803Y-180819D02*
X62803Y-176819D01*
X66803D01*
X64803Y-180819D01*
X47874Y-432669D02*
X48874Y-431669D01*
X49874D01*
X48874Y-430669D01*
X49874Y-429669D01*
X48874D01*
X47874Y-428669D01*
X46874Y-429669D01*
X45874D01*
X46874Y-430669D01*
X45874Y-431669D01*
X46874D01*
X47874Y-432669D01*
X43465Y-435898D02*
X44465Y-434898D01*
X45465D01*
X44465Y-433898D01*
X45465Y-432898D01*
X44465D01*
X43465Y-431898D01*
X42465Y-432898D01*
X41465D01*
X42465Y-433898D01*
X41465Y-434898D01*
X42465D01*
X43465Y-435898D01*
X47677Y-425622D02*
X45677Y-421622D01*
X49677D01*
X47677Y-425622D01*
Y-416409D02*
X45677Y-412409D01*
X49677D01*
X47677Y-416409D01*
X46968Y-392905D02*
X47969Y-391905D01*
X48968D01*
X47969Y-390905D01*
X48968Y-389906D01*
X47969D01*
X46968Y-388906D01*
X45968Y-389906D01*
X44969D01*
X45968Y-390905D01*
X44969Y-391905D01*
X45968D01*
X46968Y-392905D01*
Y-411410D02*
X47969Y-410409D01*
X48968D01*
X47969Y-409410D01*
X48968Y-408410D01*
X47969D01*
X46968Y-407409D01*
X45968Y-408410D01*
X44969D01*
X45968Y-409410D01*
X44969Y-410409D01*
X45968D01*
X46968Y-411410D01*
Y-403260D02*
X47969Y-402260D01*
X48968D01*
X47969Y-401260D01*
X48968Y-400260D01*
X47969D01*
X46968Y-399260D01*
X45968Y-400260D01*
X44969D01*
X45968Y-401260D01*
X44969Y-402260D01*
X45968D01*
X46968Y-403260D01*
X55039Y-157039D02*
X53039Y-153039D01*
X57039D01*
X55039Y-157039D01*
X57717D02*
X55717Y-153039D01*
X59716D01*
X57717Y-157039D01*
X55039Y-159598D02*
X53039Y-155598D01*
X57039D01*
X55039Y-159598D01*
X57717D02*
X55717Y-155598D01*
X59716D01*
X57717Y-159598D01*
X67165Y-368890D02*
X68165Y-367890D01*
X69165D01*
X68165Y-366890D01*
X69165Y-365890D01*
X68165D01*
X67165Y-364890D01*
X66165Y-365890D01*
X65165D01*
X66165Y-366890D01*
X65165Y-367890D01*
X66165D01*
X67165Y-368890D01*
X45039Y-372590D02*
X46039Y-371590D01*
X47039D01*
X46039Y-370590D01*
X47039Y-369590D01*
X46039D01*
X45039Y-368590D01*
X44039Y-369590D01*
X43039D01*
X44039Y-370590D01*
X43039Y-371590D01*
X44039D01*
X45039Y-372590D01*
Y-377630D02*
X46039Y-376630D01*
X47039D01*
X46039Y-375630D01*
X47039Y-374630D01*
X46039D01*
X45039Y-373630D01*
X44039Y-374630D01*
X43039D01*
X44039Y-375630D01*
X43039Y-376630D01*
X44039D01*
X45039Y-377630D01*
Y-383535D02*
X46039Y-382535D01*
X47039D01*
X46039Y-381535D01*
X47039Y-380535D01*
X46039D01*
X45039Y-379535D01*
X44039Y-380535D01*
X43039D01*
X44039Y-381535D01*
X43039Y-382535D01*
X44039D01*
X45039Y-383535D01*
X62283Y-368890D02*
X63283Y-367890D01*
X64284D01*
X63283Y-366890D01*
X64284Y-365890D01*
X63283D01*
X62283Y-364890D01*
X61283Y-365890D01*
X60283D01*
X61283Y-366890D01*
X60283Y-367890D01*
X61283D01*
X62283Y-368890D01*
X46968Y-398339D02*
X47969Y-397339D01*
X48968D01*
X47969Y-396339D01*
X48968Y-395339D01*
X47969D01*
X46968Y-394339D01*
X45968Y-395339D01*
X44969D01*
X45968Y-396339D01*
X44969Y-397339D01*
X45968D01*
X46968Y-398339D01*
X32323Y-419165D02*
X33323Y-418165D01*
X34323D01*
X33323Y-417165D01*
X34323Y-416165D01*
X33323D01*
X32323Y-415165D01*
X31323Y-416165D01*
X30323D01*
X31323Y-417165D01*
X30323Y-418165D01*
X31323D01*
X32323Y-419165D01*
X32047Y-426409D02*
X33047Y-425410D01*
X34047D01*
X33047Y-424409D01*
X34047Y-423410D01*
X33047D01*
X32047Y-422409D01*
X31047Y-423410D01*
X30047D01*
X31047Y-424409D01*
X30047Y-425410D01*
X31047D01*
X32047Y-426409D01*
X40748Y-417827D02*
X41748Y-416827D01*
X42748D01*
X41748Y-415827D01*
X42748Y-414827D01*
X41748D01*
X40748Y-413827D01*
X39748Y-414827D01*
X38748D01*
X39748Y-415827D01*
X38748Y-416827D01*
X39748D01*
X40748Y-417827D01*
X15236Y-415858D02*
X16236Y-414858D01*
X17236D01*
X16236Y-413858D01*
X17236Y-412858D01*
X16236D01*
X15236Y-411858D01*
X14236Y-412858D01*
X13236D01*
X14236Y-413858D01*
X13236Y-414858D01*
X14236D01*
X15236Y-415858D01*
X19961Y-387472D02*
X20961Y-386472D01*
X21961D01*
X20961Y-385472D01*
X21961Y-384472D01*
X20961D01*
X19961Y-383472D01*
X18961Y-384472D01*
X17961D01*
X18961Y-385472D01*
X17961Y-386472D01*
X18961D01*
X19961Y-387472D01*
X20039Y-367197D02*
X21039Y-366197D01*
X22039D01*
X21039Y-365197D01*
X22039Y-364197D01*
X21039D01*
X20039Y-363197D01*
X19039Y-364197D01*
X18039D01*
X19039Y-365197D01*
X18039Y-366197D01*
X19039D01*
X20039Y-367197D01*
X27441Y-367118D02*
X28441Y-366118D01*
X29441D01*
X28441Y-365118D01*
X29441Y-364118D01*
X28441D01*
X27441Y-363118D01*
X26441Y-364118D01*
X25441D01*
X26441Y-365118D01*
X25441Y-366118D01*
X26441D01*
X27441Y-367118D01*
X19331Y-289638D02*
X20331Y-288638D01*
X21331D01*
X20331Y-287638D01*
X21331Y-286638D01*
X20331D01*
X19331Y-285638D01*
X18331Y-286638D01*
X17331D01*
X18331Y-287638D01*
X17331Y-288638D01*
X18331D01*
X19331Y-289638D01*
X30158Y-290032D02*
X31157Y-289032D01*
X32157D01*
X31157Y-288032D01*
X32157Y-287032D01*
X31157D01*
X30158Y-286032D01*
X29158Y-287032D01*
X28157D01*
X29158Y-288032D01*
X28157Y-289032D01*
X29158D01*
X30158Y-290032D01*
X19331Y-299520D02*
X20331Y-298520D01*
X21331D01*
X20331Y-297520D01*
X21331Y-296520D01*
X20331D01*
X19331Y-295520D01*
X18331Y-296520D01*
X17331D01*
X18331Y-297520D01*
X17331Y-298520D01*
X18331D01*
X19331Y-299520D01*
X30158D02*
X31157Y-298520D01*
X32157D01*
X31157Y-297520D01*
X32157Y-296520D01*
X31157D01*
X30158Y-295520D01*
X29158Y-296520D01*
X28157D01*
X29158Y-297520D01*
X28157Y-298520D01*
X29158D01*
X30158Y-299520D01*
X19331Y-307827D02*
X20331Y-306827D01*
X21331D01*
X20331Y-305827D01*
X21331Y-304827D01*
X20331D01*
X19331Y-303827D01*
X18331Y-304827D01*
X17331D01*
X18331Y-305827D01*
X17331Y-306827D01*
X18331D01*
X19331Y-307827D01*
X30158Y-307472D02*
X31157Y-306472D01*
X32157D01*
X31157Y-305472D01*
X32157Y-304472D01*
X31157D01*
X30158Y-303472D01*
X29158Y-304472D01*
X28157D01*
X29158Y-305472D01*
X28157Y-306472D01*
X29158D01*
X30158Y-307472D01*
X19331Y-316449D02*
X20331Y-315449D01*
X21331D01*
X20331Y-314449D01*
X21331Y-313449D01*
X20331D01*
X19331Y-312449D01*
X18331Y-313449D01*
X17331D01*
X18331Y-314449D01*
X17331Y-315449D01*
X18331D01*
X19331Y-316449D01*
X30158Y-316370D02*
X31157Y-315370D01*
X32157D01*
X31157Y-314370D01*
X32157Y-313370D01*
X31157D01*
X30158Y-312370D01*
X29158Y-313370D01*
X28157D01*
X29158Y-314370D01*
X28157Y-315370D01*
X29158D01*
X30158Y-316370D01*
X38937Y-463417D02*
X39937Y-462417D01*
X40937D01*
X39937Y-461417D01*
X40937Y-460417D01*
X39937D01*
X38937Y-459417D01*
X37937Y-460417D01*
X36937D01*
X37937Y-461417D01*
X36937Y-462417D01*
X37937D01*
X38937Y-463417D01*
X39567Y-432945D02*
X40567Y-431945D01*
X41567D01*
X40567Y-430945D01*
X41567Y-429945D01*
X40567D01*
X39567Y-428945D01*
X38567Y-429945D01*
X37567D01*
X38567Y-430945D01*
X37567Y-431945D01*
X38567D01*
X39567Y-432945D01*
D81*
X54950Y-19540D02*
G03*
X54950Y-19540I-2000J0D01*
G01*
X44950D02*
G03*
X44950Y-19540I-2000J0D01*
G01*
X34950D02*
G03*
X34950Y-19540I-2000J0D01*
G01*
X24950D02*
G03*
X24950Y-19540I-2000J0D01*
G01*
X50110Y-6700D02*
G03*
X50110Y-6700I-2000J0D01*
G01*
X40110D02*
G03*
X40110Y-6700I-2000J0D01*
G01*
X30110D02*
G03*
X30110Y-6700I-2000J0D01*
G01*
X20110D02*
G03*
X20110Y-6700I-2000J0D01*
G01*
X10110D02*
G03*
X10110Y-6700I-2000J0D01*
G01*
X19890Y-458780D02*
G03*
X19890Y-458780I-2000J0D01*
G01*
Y-448780D02*
G03*
X19890Y-448780I-2000J0D01*
G01*
Y-438780D02*
G03*
X19890Y-438780I-2000J0D01*
G01*
M02*
