M48
;Layer_Color=9474304
;FILE_FORMAT=2:5
INCH,LZ
;TYPE=PLATED
T1F00S00C0.01181
T2F00S00C0.02362
T3F00S00C0.03543
T4F00S00C0.04724
%
T01
X0034811Y-045078
X0032677Y-0446575
X0038819Y-0424764
Y-0420079
X004378Y-0420039
Y-0424882
X0047677Y-0423622
X0056653Y-0424173
X0058701Y-0457126
X0062638Y-0457087
X006685Y-0457126
Y-0461299
X0047677Y-0414409
X0032795Y-0409449
X0036575Y-0388583
X0035197Y-0371024
X0035315Y-0357441
X0047638Y-0354803
Y-0360591
X0056693Y-0386575
X0059254Y-0389053
X0067559Y-0338976
X0063661Y-0326969
X0058958Y-0314428
X0051575Y-0313228
X0067874Y-0309842
X0055079Y-0286378
X0045709Y-0290354
X0053236Y-026985
X0048661Y-0262441
X003315Y-0274252
X0020787Y-0277913
X0014528Y-039626
X0015512Y-041
X0020787Y-0172204
X0011417Y-0154842
X0004331Y-0157992
X0010748Y-0113504
X0036063Y-0129449
X0039567Y-0147638
X0045984Y-0150472
X0049213Y-0144803
X0054805Y-0144018
X005398Y-0137752
X0049492
X0063346Y-0133031
X0070945Y-0142205
X0073189Y-0146457
X0072874Y-0152874
X0067913Y-0154921
X0057717Y-0155039
Y-0157598
X0055039
Y-0155039
X004374Y-0159291
X0039646Y-0162559
X0035827Y-0158425
X0030709Y-015685
Y-015126
X0031811Y-0167126
X0023268Y-0164528
X0044685Y-0172205
X0039646Y-0184685
X0064803Y-0178819
X0062677Y-0168661
X0066654Y-0166299
X0070157Y-0189688
X006252Y-0214134
X0042323Y-0213307
X0077598Y-0227165
X0065039Y-0106063
X0062047Y-0082677
X0063543Y-0060315
X006563Y-0027913
X0076535Y-0029331
X0080551Y-0017953
X0072795Y-0009724
X0063858Y-0014724
X0002441Y-0015827
X0003268Y-0025197
X0004646Y-0039724
T02
X0036561Y-0464882
X0038937Y-0461417
X0039567Y-0430945
X0043465Y-0433898
X0047874Y-0430669
X0032047Y-0424409
X0032323Y-0417165
X0040748Y-0415827
X0046968Y-040941
Y-040126
Y-0396339
Y-0390905
X0045039Y-0381535
Y-037563
Y-037059
X0056417Y-036563
X0062283Y-036689
X0067165
X0027441Y-0365118
X002748Y-0408386
X0030158Y-031437
Y-0305472
Y-029752
Y-0288032
X0031882Y-0278905
X0019331Y-0287638
Y-029752
Y-0305827
Y-0314449
X0020039Y-0365197
X0019961Y-0385472
X0015236Y-0413858
X0017992Y-0076614
T03
X001789Y-045878
Y-044878
Y-043878
X002295Y-001954
X003295
X004295
X005295
X004811Y-00067
X003811
X002811
X001811
X000811
T04
X0032452Y-0205665
X0050168
Y-0180075
X0032452
M30
