M48
;Layer_Color=9474304
;FILE_FORMAT=2:5
INCH,LZ
;TYPE=PLATED
T1F00S00C0.01181
T2F00S00C0.01968
T3F00S00C0.02362
T4F00S00C0.03543
T5F00S00C0.04724
%
T01
X0017165Y-0466811
X0024488Y-0461417
X0035039Y-0455669
X0062835Y-0458347
X0063701Y-0434213
X0056931Y-0393345
X0041142Y-0391102
X004189Y-0401142
X0040276Y-035874
X0036063
X003185
Y-0354252
X0036063
X0040276
X0063819Y-0371024
X0063701Y-0322126
X0056931Y-0306888
X0058425Y-0292874
X0047047Y-0293228
X0033819Y-0316024
X0056063Y-0262795
X0014961Y-0172323
X0018622Y-0125906
X001811Y-0112205
X0023504Y-0110827
X0050945Y-0104842
X0049055Y-0120512
X0055039Y-0155039
Y-0157598
X0057677
Y-0155079
X0034724Y-0150669
X0025118Y-0164016
X0023268Y-0190354
X006315Y-0191929
X0061496Y-0204409
X0061024Y-0217677
X0058425Y-0233701
X0066929Y-0235433
X0042538Y-024943
X0024764Y-0239724
X0075646Y-0204319
X0077362Y-0168858
X0077716Y-0165315
X0077402Y-0142323
X0077047Y-0097244
X0074252Y-0074961
X0075827Y-0049488
X0063701Y-003185
X0029764Y-0038819
X0027913Y-0064173
X0029016Y-0086221
X0051929Y-0088543
X0053543Y-0066732
X0006968Y-0022402
T02
X0015789Y-0184841
X0040787Y-0162284
X0035677Y-02233
T03
X0015789Y-0422605
X0046351Y-046168
X002577Y-0367857
X0039391Y-0319428
X002577Y-0267891
X0075646Y-0175122
T04
X0018494Y-0451912
Y-0441912
X002295Y-001954
X003295
X004295
X005295
X004811Y-00067
X003811
X002811
X001811
X000811
T05
X0032452Y-0205665
X0050168
Y-0180075
X0032452
M30
