%FSLAX25Y25*%
%MOIN*%
G70*
G01*
G75*
G04 Layer_Physical_Order=1*
G04 Layer_Color=255*
%ADD10R,0.03150X0.03937*%
%ADD11R,0.03937X0.03150*%
%ADD12R,0.04724X0.03937*%
%ADD13R,0.01575X0.03937*%
%ADD14R,0.03150X0.03543*%
%ADD15R,0.03150X0.03543*%
%ADD16R,0.02400X0.05906*%
%ADD17R,0.12402X0.08898*%
%ADD18R,0.03937X0.04724*%
%ADD19C,0.05906*%
%ADD20R,0.15748X0.05118*%
%ADD21R,0.03150X0.02559*%
%ADD22R,0.00787X0.02362*%
%ADD23R,0.00787X0.03150*%
%ADD24R,0.02362X0.00787*%
%ADD25R,0.03150X0.00787*%
%ADD26R,0.05118X0.05118*%
%ADD27O,0.01969X0.07874*%
%ADD28R,0.01969X0.07874*%
%ADD29R,0.05906X0.03937*%
%ADD30R,0.05906X0.12992*%
%ADD31R,0.01063X0.07874*%
%ADD32R,0.02362X0.07874*%
%ADD33C,0.01575*%
%ADD34C,0.01000*%
%ADD35C,0.03937*%
%ADD36C,0.00787*%
%ADD37C,0.01181*%
%ADD38R,0.05906X0.05906*%
%ADD39R,0.05906X0.05906*%
%ADD40C,0.01969*%
%ADD41C,0.03150*%
%ADD42C,0.02756*%
G36*
X81674Y-163459D02*
X81212Y-163651D01*
X73251Y-155690D01*
X72926Y-155473D01*
X72542Y-155396D01*
X70534D01*
X70343Y-154935D01*
X70828Y-154450D01*
X71045Y-154124D01*
X71122Y-153740D01*
X71122Y-153740D01*
X71122Y-153740D01*
Y-153740D01*
Y-17284D01*
X71058Y-16963D01*
X71045Y-16899D01*
X70828Y-16574D01*
X60244Y-5990D01*
X59919Y-5773D01*
X59535Y-5697D01*
X51530D01*
X51205Y-4913D01*
X50637Y-4173D01*
X49897Y-3605D01*
X49035Y-3248D01*
X48110Y-3126D01*
X47185Y-3248D01*
X46323Y-3605D01*
X45583Y-4173D01*
X45015Y-4913D01*
X44658Y-5775D01*
X44536Y-6700D01*
X44658Y-7625D01*
X45015Y-8487D01*
X45583Y-9227D01*
X46323Y-9795D01*
X47185Y-10152D01*
X48110Y-10274D01*
X49035Y-10152D01*
X49897Y-9795D01*
X50637Y-9227D01*
X51205Y-8487D01*
X51530Y-7704D01*
X59119D01*
X69115Y-17699D01*
Y-153324D01*
X68617Y-153822D01*
X64451D01*
Y-152266D01*
X63683D01*
Y-56813D01*
X63606Y-56429D01*
X63389Y-56103D01*
X29114Y-21828D01*
Y-20819D01*
X29604Y-20721D01*
X29855Y-21327D01*
X30423Y-22067D01*
X31163Y-22635D01*
X32025Y-22992D01*
X32950Y-23114D01*
X33875Y-22992D01*
X34737Y-22635D01*
X35477Y-22067D01*
X36045Y-21327D01*
X36402Y-20465D01*
X36524Y-19540D01*
X36402Y-18615D01*
X36045Y-17753D01*
X35477Y-17013D01*
X34737Y-16445D01*
X33875Y-16088D01*
X32950Y-15966D01*
X32025Y-16088D01*
X31163Y-16445D01*
X30423Y-17013D01*
X29855Y-17753D01*
X29604Y-18359D01*
X29114Y-18261D01*
Y-10120D01*
X29897Y-9795D01*
X30637Y-9227D01*
X31205Y-8487D01*
X31562Y-7625D01*
X31684Y-6700D01*
X31562Y-5775D01*
X31205Y-4913D01*
X30637Y-4173D01*
X29897Y-3605D01*
X29035Y-3248D01*
X28110Y-3126D01*
X27185Y-3248D01*
X26323Y-3605D01*
X25583Y-4173D01*
X25015Y-4913D01*
X24658Y-5775D01*
X24536Y-6700D01*
X24658Y-7625D01*
X25015Y-8487D01*
X25583Y-9227D01*
X26323Y-9795D01*
X27106Y-10120D01*
Y-22244D01*
X27106Y-22244D01*
X27106D01*
X27183Y-22628D01*
X27400Y-22953D01*
X61676Y-57229D01*
Y-152266D01*
X60908D01*
Y-153841D01*
X60120D01*
Y-155809D01*
Y-157384D01*
Y-158959D01*
X60908D01*
Y-160534D01*
X62582D01*
X62679Y-160553D01*
X67638D01*
X75788Y-168703D01*
X75757Y-168858D01*
X75879Y-169473D01*
X76227Y-169994D01*
X76748Y-170342D01*
X77362Y-170464D01*
X77977Y-170342D01*
X78498Y-169994D01*
X78846Y-169473D01*
X78968Y-168858D01*
X78846Y-168244D01*
X78498Y-167723D01*
X77977Y-167375D01*
X77640Y-167308D01*
X77716Y-166921D01*
X78331Y-166798D01*
X78852Y-166450D01*
X79187Y-165948D01*
X79666Y-166094D01*
Y-174687D01*
X79167Y-174720D01*
X79098Y-174197D01*
X78741Y-173335D01*
X78173Y-172594D01*
X77433Y-172027D01*
X76571Y-171669D01*
X75646Y-171548D01*
X74721Y-171669D01*
X73859Y-172027D01*
X73119Y-172594D01*
X72939Y-172829D01*
X65160D01*
X64992Y-172851D01*
X62994D01*
Y-174028D01*
X62924Y-174119D01*
X62666Y-174742D01*
X62578Y-175410D01*
X62666Y-176078D01*
X62924Y-176701D01*
X62994Y-176792D01*
Y-177969D01*
X64992D01*
X65160Y-177991D01*
X73565D01*
X73859Y-178217D01*
X74721Y-178574D01*
X75646Y-178695D01*
X76571Y-178574D01*
X77433Y-178217D01*
X78173Y-177649D01*
X78741Y-176909D01*
X79098Y-176047D01*
X79167Y-175523D01*
X79666Y-175556D01*
Y-178420D01*
X76651Y-181435D01*
X76571Y-181402D01*
X75646Y-181280D01*
X74721Y-181402D01*
X73859Y-181759D01*
X73119Y-182327D01*
X72551Y-183067D01*
X72194Y-183929D01*
X72072Y-184854D01*
X72194Y-185779D01*
X72551Y-186641D01*
X73119Y-187381D01*
X73859Y-187949D01*
X74721Y-188306D01*
X75646Y-188428D01*
X76571Y-188306D01*
X77433Y-187949D01*
X78173Y-187381D01*
X78741Y-186641D01*
X79098Y-185779D01*
X79220Y-184854D01*
X79098Y-183929D01*
X78741Y-183067D01*
X78357Y-182567D01*
X81212Y-179712D01*
X81674Y-179903D01*
Y-245060D01*
X70866D01*
X70482Y-245136D01*
X70157Y-245354D01*
X69939Y-245679D01*
X69863Y-246063D01*
Y-439548D01*
X64961D01*
Y-439521D01*
X63573Y-439704D01*
X62280Y-440239D01*
X61170Y-441091D01*
X60318Y-442202D01*
X59782Y-443495D01*
X59600Y-444882D01*
X59782Y-446270D01*
X60318Y-447563D01*
X61170Y-448673D01*
X62280Y-449525D01*
X63573Y-450060D01*
X64961Y-450243D01*
Y-450216D01*
X69863D01*
Y-475375D01*
X60210D01*
Y-466812D01*
X56666D01*
Y-475375D01*
X51410D01*
Y-466812D01*
X47556D01*
Y-463951D01*
X47642Y-463915D01*
X48176Y-463505D01*
X48587Y-462971D01*
X48844Y-462348D01*
X48932Y-461680D01*
X48844Y-461012D01*
X48587Y-460390D01*
X48176Y-459855D01*
X47642Y-459445D01*
X47019Y-459187D01*
X46351Y-459099D01*
X38753D01*
X38085Y-459187D01*
X37827Y-459294D01*
X37462Y-459445D01*
X36928Y-459855D01*
X34684Y-462099D01*
X34273Y-462634D01*
X34016Y-463256D01*
X33928Y-463924D01*
X34016Y-464592D01*
X34273Y-465215D01*
X34684Y-465750D01*
X35218Y-466160D01*
X35304Y-466195D01*
Y-466812D01*
X31450D01*
Y-475375D01*
X26194D01*
Y-466812D01*
X22650D01*
Y-475375D01*
X12815D01*
Y-246063D01*
X12738Y-245679D01*
X12521Y-245354D01*
X12195Y-245136D01*
X11811Y-245060D01*
X1003D01*
Y-52578D01*
X5906D01*
Y-52605D01*
X7293Y-52422D01*
X8586Y-51887D01*
X9696Y-51035D01*
X10548Y-49924D01*
X11084Y-48632D01*
X11266Y-47244D01*
X11084Y-45857D01*
X10548Y-44564D01*
X9696Y-43453D01*
X8586Y-42601D01*
X7293Y-42066D01*
X5906Y-41883D01*
Y-41910D01*
X1003D01*
Y-1003D01*
X81674D01*
Y-163459D01*
D02*
G37*
%LPC*%
G36*
X66929Y-233827D02*
X66315Y-233950D01*
X65794Y-234298D01*
X65446Y-234819D01*
X65324Y-235433D01*
X65446Y-236048D01*
X65794Y-236568D01*
X65926Y-236656D01*
Y-296474D01*
X57086Y-305313D01*
X56931Y-305282D01*
X56316Y-305405D01*
X55795Y-305753D01*
X55707Y-305885D01*
X46337D01*
Y-304526D01*
X42006D01*
Y-309250D01*
X46337D01*
Y-307892D01*
X55707D01*
X55795Y-308024D01*
X56316Y-308372D01*
X56931Y-308494D01*
X57545Y-308372D01*
X58066Y-308024D01*
X58414Y-307503D01*
X58536Y-306888D01*
X58505Y-306733D01*
X67639Y-297599D01*
X67856Y-297274D01*
X67869Y-297210D01*
X67933Y-296890D01*
Y-236656D01*
X68064Y-236568D01*
X68413Y-236048D01*
X68535Y-235433D01*
X68413Y-234819D01*
X68064Y-234298D01*
X67544Y-233950D01*
X66929Y-233827D01*
D02*
G37*
G36*
X27689Y-272244D02*
X22571D01*
Y-276575D01*
X27689D01*
Y-275521D01*
X29618D01*
X31341Y-277245D01*
Y-277819D01*
X31162D01*
Y-282937D01*
X31341D01*
Y-288159D01*
X30244D01*
Y-293277D01*
X34574D01*
Y-288159D01*
X33565D01*
Y-282937D01*
X33918D01*
Y-277819D01*
X33565D01*
Y-276784D01*
X33481Y-276359D01*
X33240Y-275998D01*
X33240Y-275998D01*
X30865Y-273623D01*
X30504Y-273382D01*
X30079Y-273298D01*
X30079Y-273298D01*
X27689D01*
Y-272244D01*
D02*
G37*
G36*
X16650Y-29369D02*
X16483Y-29391D01*
X14485D01*
Y-30568D01*
X14415Y-30659D01*
X14157Y-31282D01*
X14069Y-31950D01*
Y-55863D01*
X6049Y-63884D01*
X5639Y-64418D01*
X5510Y-64729D01*
X5381Y-65041D01*
X5293Y-65709D01*
Y-227047D01*
X5381Y-227715D01*
X5510Y-228027D01*
X5639Y-228338D01*
X6049Y-228872D01*
X15726Y-238549D01*
Y-326040D01*
X15726Y-326040D01*
X15726D01*
X15814Y-326708D01*
X16012Y-327187D01*
Y-328206D01*
X16925D01*
X17017Y-328276D01*
X17639Y-328534D01*
X18307Y-328622D01*
X40276D01*
X40944Y-328534D01*
X41566Y-328276D01*
X42101Y-327866D01*
X42511Y-327331D01*
X42769Y-326708D01*
X42857Y-326040D01*
X42769Y-325372D01*
X42511Y-324750D01*
X42101Y-324215D01*
X41973Y-324117D01*
Y-319428D01*
X41884Y-318759D01*
X41627Y-318137D01*
X41216Y-317602D01*
X40682Y-317192D01*
X40059Y-316934D01*
X39391Y-316846D01*
X38723Y-316934D01*
X38101Y-317192D01*
X37566Y-317602D01*
X37156Y-318137D01*
X36898Y-318759D01*
X36810Y-319428D01*
Y-323459D01*
X32474D01*
Y-323075D01*
X26569D01*
Y-323459D01*
X20888D01*
Y-237480D01*
X20800Y-236812D01*
X20725Y-236630D01*
X20542Y-236190D01*
X20132Y-235655D01*
X10455Y-225978D01*
Y-66778D01*
X18475Y-58757D01*
X18886Y-58223D01*
X18981Y-57993D01*
X19144Y-57600D01*
X19231Y-56932D01*
Y-31950D01*
X19144Y-31282D01*
X18886Y-30659D01*
X18816Y-30568D01*
Y-29391D01*
X16818D01*
X16650Y-29369D01*
D02*
G37*
G36*
X27016Y-300583D02*
X22685D01*
Y-305701D01*
X27016D01*
Y-304260D01*
X33345D01*
Y-305510D01*
X37676D01*
Y-300786D01*
X33345D01*
Y-302036D01*
X27016D01*
Y-300583D01*
D02*
G37*
G36*
X37538Y-231066D02*
X36924Y-231188D01*
X36403Y-231536D01*
X36055Y-232057D01*
X35932Y-232671D01*
Y-238577D01*
X36055Y-239191D01*
X36403Y-239712D01*
X36441Y-239738D01*
X36511Y-240090D01*
X36752Y-240450D01*
X41182Y-244881D01*
X41182Y-244881D01*
X41543Y-245122D01*
X41543Y-245122D01*
X41543Y-245122D01*
D01*
X41543Y-245122D01*
X41543Y-245122D01*
X41969Y-245206D01*
X41969Y-245206D01*
X45996D01*
X61188Y-260398D01*
Y-265885D01*
X59741D01*
Y-270216D01*
X64859D01*
Y-265885D01*
X63412D01*
Y-259938D01*
X63327Y-259512D01*
X63086Y-259152D01*
X63086Y-259152D01*
X47243Y-243308D01*
X46882Y-243067D01*
X46457Y-242983D01*
X46457Y-242983D01*
X42429D01*
X38868Y-239421D01*
X39022Y-239191D01*
X39144Y-238577D01*
Y-232671D01*
X39022Y-232057D01*
X38673Y-231536D01*
X38153Y-231188D01*
X37538Y-231066D01*
D02*
G37*
G36*
X56063Y-261190D02*
X55449Y-261312D01*
X54928Y-261660D01*
X54580Y-262181D01*
X54457Y-262795D01*
X54580Y-263410D01*
X54928Y-263931D01*
X54936Y-263936D01*
Y-265538D01*
X52421D01*
Y-266969D01*
X50059D01*
Y-265835D01*
X44941D01*
Y-266969D01*
X41398D01*
Y-265614D01*
X38642D01*
Y-270732D01*
X41398D01*
Y-269377D01*
X44941D01*
Y-270166D01*
X50059D01*
Y-269377D01*
X52421D01*
Y-269869D01*
X57539D01*
Y-265538D01*
X57344D01*
Y-263712D01*
X57546Y-263410D01*
X57669Y-262795D01*
X57546Y-262181D01*
X57198Y-261660D01*
X56677Y-261312D01*
X56063Y-261190D01*
D02*
G37*
G36*
X35677Y-220719D02*
X32600D01*
X31932Y-220806D01*
X31309Y-221064D01*
X31218Y-221134D01*
X30041D01*
Y-223015D01*
X29959Y-223640D01*
Y-256083D01*
X29957Y-256096D01*
X29959Y-256109D01*
Y-265529D01*
X25130D01*
X24462Y-265617D01*
X23839Y-265875D01*
X23748Y-265945D01*
X22571D01*
Y-267943D01*
X22549Y-268110D01*
X22571Y-268278D01*
Y-270276D01*
X23748D01*
X23839Y-270346D01*
X24462Y-270604D01*
X25130Y-270691D01*
X31162D01*
Y-270732D01*
X32372D01*
X32540Y-270754D01*
X32708Y-270732D01*
X33918D01*
Y-270341D01*
X34365Y-269998D01*
X34775Y-269463D01*
X35033Y-268841D01*
X35121Y-268173D01*
Y-258678D01*
X35932D01*
Y-259049D01*
X36055Y-259664D01*
X36403Y-260185D01*
X36924Y-260532D01*
X37538Y-260655D01*
X38153Y-260532D01*
X38673Y-260185D01*
X39022Y-259664D01*
X39144Y-259049D01*
Y-258090D01*
X39363Y-257922D01*
X39773Y-257387D01*
X40031Y-256764D01*
X40119Y-256096D01*
X40031Y-255428D01*
X39773Y-254806D01*
X39363Y-254271D01*
X39144Y-254103D01*
Y-253144D01*
X39022Y-252529D01*
X38673Y-252008D01*
X38153Y-251660D01*
X37538Y-251538D01*
X36924Y-251660D01*
X36403Y-252008D01*
X36055Y-252529D01*
X35932Y-253144D01*
Y-253515D01*
X35121D01*
Y-225881D01*
X35677D01*
X36345Y-225793D01*
X36967Y-225535D01*
X37502Y-225125D01*
X37912Y-224590D01*
X38170Y-223968D01*
X38258Y-223300D01*
X38170Y-222632D01*
X37912Y-222009D01*
X37502Y-221475D01*
X36967Y-221064D01*
X36345Y-220806D01*
X35677Y-220719D01*
D02*
G37*
G36*
X50059Y-272134D02*
X44941D01*
Y-273188D01*
X42157D01*
X42157Y-273188D01*
X41732Y-273272D01*
X41371Y-273513D01*
X41371Y-273513D01*
X39234Y-275650D01*
X38993Y-276011D01*
X38908Y-276436D01*
X38908Y-276437D01*
Y-277819D01*
X38642D01*
Y-282937D01*
X41398D01*
Y-277819D01*
X41132D01*
Y-276897D01*
X42618Y-275412D01*
X44941D01*
Y-276465D01*
X50059D01*
Y-275507D01*
X52421D01*
Y-276562D01*
X57539D01*
Y-275507D01*
X59741D01*
Y-276515D01*
X64859D01*
Y-272184D01*
X59741D01*
Y-273283D01*
X57539D01*
Y-272231D01*
X52421D01*
Y-273283D01*
X50059D01*
Y-272134D01*
D02*
G37*
G36*
X67615Y-409253D02*
X60528D01*
Y-423426D01*
X67615D01*
Y-409253D01*
D02*
G37*
G36*
X56931Y-391739D02*
X56316Y-391861D01*
X55795Y-392210D01*
X55447Y-392730D01*
X55325Y-393345D01*
X55356Y-393500D01*
X53130Y-395726D01*
X36915D01*
Y-394171D01*
X32584D01*
Y-399289D01*
X36915D01*
Y-397733D01*
X53546D01*
X53930Y-397657D01*
X54255Y-397440D01*
X56775Y-394920D01*
X56931Y-394951D01*
X57545Y-394828D01*
X58066Y-394480D01*
X58414Y-393959D01*
X58536Y-393345D01*
X58414Y-392730D01*
X58066Y-392210D01*
X57545Y-391861D01*
X56931Y-391739D01*
D02*
G37*
G36*
X30326Y-364313D02*
X26745D01*
Y-365276D01*
X25770D01*
X25102Y-365363D01*
X24479Y-365621D01*
X23945Y-366032D01*
X23535Y-366566D01*
X23277Y-367189D01*
X23189Y-367857D01*
X23277Y-368525D01*
X23535Y-369147D01*
X23945Y-369682D01*
X24479Y-370092D01*
X25102Y-370350D01*
X25770Y-370438D01*
X25889D01*
Y-378796D01*
Y-416330D01*
X25911Y-416498D01*
Y-418496D01*
X27088D01*
X27179Y-418566D01*
X27802Y-418823D01*
X28470Y-418911D01*
X28965Y-418846D01*
X35725D01*
Y-418899D01*
X36612D01*
Y-422836D01*
X35725D01*
Y-427954D01*
X36612D01*
Y-439280D01*
X22037D01*
Y-438369D01*
X14951D01*
Y-445456D01*
X22037D01*
Y-444442D01*
X27380D01*
Y-444508D01*
X33285D01*
Y-444442D01*
X39303D01*
X39971Y-444354D01*
X40024Y-444332D01*
X46023D01*
Y-444430D01*
X51928D01*
Y-439312D01*
X49655D01*
X49523Y-439258D01*
X48855Y-439170D01*
X41775D01*
Y-427954D01*
X42812D01*
Y-422836D01*
X41775D01*
Y-418899D01*
X42812D01*
Y-413781D01*
X39883D01*
X39862Y-413772D01*
X39194Y-413684D01*
X31051D01*
Y-389859D01*
X31106D01*
Y-383953D01*
X31051D01*
Y-378796D01*
Y-368352D01*
X31116Y-367857D01*
X31028Y-367189D01*
X30770Y-366566D01*
X30360Y-366032D01*
X30326Y-366005D01*
Y-364313D01*
D02*
G37*
G36*
X28470Y-420048D02*
X19267D01*
X19215Y-420055D01*
X16065D01*
X15396Y-420143D01*
X14774Y-420401D01*
X14239Y-420811D01*
X13829Y-421346D01*
X13571Y-421968D01*
X13483Y-422636D01*
X13571Y-423304D01*
X13829Y-423927D01*
X14239Y-424461D01*
X14774Y-424872D01*
X15396Y-425129D01*
X16065Y-425217D01*
X16679D01*
Y-430490D01*
X16767Y-431158D01*
X17025Y-431781D01*
X17085Y-431859D01*
Y-433059D01*
X19165D01*
X19260Y-433071D01*
X19355Y-433059D01*
X21416D01*
Y-431884D01*
X21495Y-431781D01*
X21753Y-431158D01*
X21841Y-430490D01*
Y-425211D01*
X28470D01*
X29138Y-425123D01*
X29761Y-424865D01*
X29852Y-424795D01*
X31029D01*
Y-422797D01*
X31051Y-422629D01*
X31029Y-422462D01*
Y-420464D01*
X29852D01*
X29761Y-420394D01*
X29138Y-420136D01*
X28470Y-420048D01*
D02*
G37*
G36*
X67728Y-359722D02*
X50798D01*
Y-361467D01*
X36696D01*
X36158Y-361573D01*
X35702Y-361878D01*
X33267Y-364313D01*
X31745D01*
Y-371400D01*
X32423D01*
Y-377508D01*
X32423Y-377508D01*
X32508Y-377934D01*
X32658Y-378158D01*
Y-381355D01*
X36989D01*
Y-376237D01*
X34647D01*
Y-371400D01*
X35326D01*
Y-366228D01*
X36283Y-365271D01*
X36745Y-365462D01*
Y-371400D01*
X37423D01*
Y-372145D01*
X37423Y-372145D01*
X37508Y-372571D01*
X37749Y-372931D01*
X41859Y-377042D01*
Y-380194D01*
X46977D01*
Y-379140D01*
X49576D01*
Y-380594D01*
X53907D01*
Y-376127D01*
X54369Y-375936D01*
X55875Y-377443D01*
Y-380594D01*
X56928D01*
Y-383256D01*
X55945D01*
Y-388374D01*
X60276D01*
Y-383256D01*
X59152D01*
Y-380594D01*
X60206D01*
Y-375476D01*
X57054D01*
X48648Y-367070D01*
X48287Y-366829D01*
X47862Y-366745D01*
X47861Y-366745D01*
X45326D01*
Y-364630D01*
X45326Y-364630D01*
D01*
D01*
X45326Y-364313D01*
D01*
X45363Y-364276D01*
X50798D01*
Y-366021D01*
X67728D01*
Y-359722D01*
D02*
G37*
G36*
X49810Y-329882D02*
X44692D01*
Y-333034D01*
X37749Y-339977D01*
X37508Y-340338D01*
X37423Y-340764D01*
X37423Y-340764D01*
Y-341813D01*
X36745D01*
Y-348900D01*
X40326D01*
Y-341813D01*
X39647D01*
Y-341224D01*
X46659Y-334213D01*
X49810D01*
Y-329882D01*
D02*
G37*
G36*
Y-323189D02*
X44692D01*
Y-327520D01*
X49810D01*
Y-327175D01*
X50272Y-326984D01*
X57858Y-334569D01*
Y-346336D01*
X50798D01*
Y-348081D01*
X48246D01*
X45326Y-345160D01*
Y-341813D01*
X41745D01*
Y-348900D01*
X45092D01*
X46671Y-350479D01*
X47126Y-350784D01*
X47664Y-350890D01*
X50798D01*
Y-352635D01*
X67728D01*
Y-346336D01*
X60668D01*
Y-333987D01*
X60561Y-333450D01*
X60256Y-332994D01*
X51624Y-324361D01*
X51168Y-324057D01*
X50630Y-323950D01*
X49810D01*
Y-323189D01*
D02*
G37*
G36*
X21130Y-330174D02*
X16012D01*
Y-334505D01*
X17453D01*
Y-343195D01*
X16002D01*
Y-347526D01*
X21120D01*
Y-346468D01*
X26745D01*
Y-348900D01*
X30326D01*
Y-341813D01*
X26745D01*
Y-344245D01*
X21120D01*
Y-343195D01*
X19677D01*
Y-334505D01*
X21130D01*
Y-330174D01*
D02*
G37*
G36*
X41950Y-329755D02*
X36832D01*
Y-332907D01*
X32749Y-336990D01*
X32508Y-337351D01*
X32423Y-337777D01*
X32423Y-337777D01*
Y-341813D01*
X31745D01*
Y-348900D01*
X35326D01*
Y-341813D01*
X34647D01*
Y-338237D01*
X38798Y-334086D01*
X41950D01*
Y-329755D01*
D02*
G37*
G36*
X40351Y-46141D02*
X36021D01*
Y-51259D01*
X37074D01*
Y-56931D01*
X36035D01*
Y-62049D01*
X40366D01*
Y-56931D01*
X39298D01*
Y-51259D01*
X40351D01*
Y-46141D01*
D02*
G37*
G36*
X55118Y-30473D02*
X53936Y-30628D01*
X52835Y-31085D01*
X51889Y-31810D01*
X51163Y-32756D01*
X50707Y-33858D01*
X50551Y-35039D01*
X50707Y-36221D01*
X51163Y-37323D01*
X51889Y-38269D01*
X52835Y-38994D01*
X53936Y-39450D01*
X55118Y-39606D01*
X56300Y-39450D01*
X57402Y-38994D01*
X58347Y-38269D01*
X59073Y-37323D01*
X59529Y-36221D01*
X59685Y-35039D01*
X59529Y-33858D01*
X59073Y-32756D01*
X58347Y-31810D01*
X57402Y-31085D01*
X56300Y-30628D01*
X55118Y-30473D01*
D02*
G37*
G36*
X40211Y-89584D02*
X35880D01*
Y-94702D01*
X36934D01*
Y-99871D01*
X35905D01*
Y-104989D01*
X40236D01*
Y-99871D01*
X39157D01*
Y-94702D01*
X40211D01*
Y-89584D01*
D02*
G37*
G36*
X40216Y-67819D02*
X35885D01*
Y-72937D01*
X36938D01*
Y-78761D01*
X35865D01*
Y-83879D01*
X40196D01*
Y-78761D01*
X39162D01*
Y-72937D01*
X40216D01*
Y-67819D01*
D02*
G37*
G36*
X18110Y-3126D02*
X17185Y-3248D01*
X16323Y-3605D01*
X15583Y-4173D01*
X15015Y-4913D01*
X14658Y-5775D01*
X14536Y-6700D01*
X14658Y-7625D01*
X15015Y-8487D01*
X15583Y-9227D01*
X16323Y-9795D01*
X17185Y-10152D01*
X18110Y-10274D01*
X19035Y-10152D01*
X19897Y-9795D01*
X20637Y-9227D01*
X21205Y-8487D01*
X21562Y-7625D01*
X21684Y-6700D01*
X21562Y-5775D01*
X21205Y-4913D01*
X20637Y-4173D01*
X19897Y-3605D01*
X19035Y-3248D01*
X18110Y-3126D01*
D02*
G37*
G36*
X11653Y-3157D02*
X4567D01*
Y-10243D01*
X11653D01*
Y-3157D01*
D02*
G37*
G36*
X42950Y-15966D02*
X42025Y-16088D01*
X41163Y-16445D01*
X40423Y-17013D01*
X39855Y-17753D01*
X39498Y-18615D01*
X39376Y-19540D01*
X39498Y-20465D01*
X39855Y-21327D01*
X40423Y-22067D01*
X41163Y-22635D01*
X42025Y-22992D01*
X42950Y-23114D01*
X43875Y-22992D01*
X44737Y-22635D01*
X45477Y-22067D01*
X46045Y-21327D01*
X46402Y-20465D01*
X46524Y-19540D01*
X46402Y-18615D01*
X46045Y-17753D01*
X45477Y-17013D01*
X44737Y-16445D01*
X43875Y-16088D01*
X42950Y-15966D01*
D02*
G37*
G36*
X52950D02*
X52025Y-16088D01*
X51163Y-16445D01*
X50423Y-17013D01*
X49855Y-17753D01*
X49498Y-18615D01*
X49376Y-19540D01*
X49498Y-20465D01*
X49855Y-21327D01*
X50423Y-22067D01*
X51163Y-22635D01*
X52025Y-22992D01*
X52950Y-23114D01*
X53875Y-22992D01*
X54737Y-22635D01*
X55477Y-22067D01*
X56045Y-21327D01*
X56402Y-20465D01*
X56524Y-19540D01*
X56402Y-18615D01*
X56045Y-17753D01*
X55477Y-17013D01*
X54737Y-16445D01*
X53875Y-16088D01*
X52950Y-15966D01*
D02*
G37*
G36*
X26493Y-15997D02*
X19407D01*
Y-23083D01*
X21946D01*
Y-29391D01*
X20784D01*
Y-34509D01*
X21946D01*
Y-100509D01*
X21946Y-100509D01*
X21946D01*
X22023Y-100893D01*
X22240Y-101218D01*
X29999Y-108977D01*
X30217Y-109123D01*
X30325Y-109195D01*
X30709Y-109271D01*
X47143D01*
X53802Y-115929D01*
Y-116808D01*
X53340Y-116999D01*
X49332Y-112992D01*
X49007Y-112775D01*
X48623Y-112698D01*
X46415D01*
Y-111143D01*
X42085D01*
Y-116261D01*
X46415D01*
Y-114705D01*
X48207D01*
X52227Y-118725D01*
Y-150101D01*
X52246Y-150198D01*
Y-151872D01*
X53821D01*
Y-152660D01*
X58939D01*
Y-151872D01*
X60514D01*
Y-150198D01*
X60533Y-150101D01*
Y-63744D01*
X60457Y-63360D01*
X60239Y-63035D01*
X46650Y-49446D01*
Y-46141D01*
X42320D01*
Y-51259D01*
X45625D01*
X58526Y-64160D01*
Y-82482D01*
X58064Y-82673D01*
X46515Y-71124D01*
Y-67819D01*
X42184D01*
Y-72937D01*
X45489D01*
X56951Y-84399D01*
Y-102677D01*
X56489Y-102869D01*
X46510Y-92889D01*
Y-89584D01*
X42179D01*
Y-94702D01*
X45485D01*
X55376Y-104594D01*
Y-114013D01*
X54914Y-114204D01*
X48269Y-107558D01*
X47943Y-107341D01*
X47559Y-107264D01*
X31124D01*
X23953Y-100093D01*
Y-34509D01*
X25115D01*
Y-29391D01*
X23953D01*
Y-23083D01*
X26493D01*
Y-15997D01*
D02*
G37*
G36*
X75646Y-200745D02*
X74721Y-200867D01*
X73859Y-201224D01*
X73119Y-201792D01*
X72551Y-202532D01*
X72194Y-203394D01*
X72072Y-204319D01*
X72194Y-205244D01*
X72551Y-206106D01*
X73119Y-206846D01*
X73859Y-207414D01*
X74721Y-207771D01*
X75646Y-207893D01*
X76571Y-207771D01*
X77433Y-207414D01*
X78173Y-206846D01*
X78741Y-206106D01*
X79098Y-205244D01*
X79220Y-204319D01*
X79098Y-203394D01*
X78741Y-202532D01*
X78173Y-201792D01*
X77433Y-201224D01*
X76571Y-200867D01*
X75646Y-200745D01*
D02*
G37*
G36*
X58939Y-160140D02*
X56971D01*
Y-162209D01*
X56951Y-162305D01*
Y-167889D01*
X54369Y-170472D01*
X54152Y-170797D01*
X54075Y-171181D01*
Y-190079D01*
X54075Y-190079D01*
X54075D01*
X54152Y-190463D01*
X54369Y-190788D01*
X58630Y-195049D01*
X58847Y-195194D01*
X58956Y-195267D01*
X59340Y-195343D01*
X72172D01*
X72194Y-195512D01*
X72551Y-196373D01*
X73119Y-197114D01*
X73859Y-197682D01*
X74721Y-198039D01*
X75646Y-198160D01*
X76571Y-198039D01*
X77433Y-197682D01*
X78173Y-197114D01*
X78741Y-196373D01*
X79098Y-195512D01*
X79220Y-194587D01*
X79098Y-193662D01*
X78741Y-192800D01*
X78173Y-192060D01*
X77433Y-191491D01*
X76571Y-191135D01*
X75646Y-191013D01*
X74721Y-191135D01*
X73859Y-191491D01*
X73119Y-192060D01*
X72551Y-192800D01*
X72329Y-193336D01*
X64634D01*
X64398Y-192895D01*
X64633Y-192544D01*
X64755Y-191929D01*
X64633Y-191315D01*
X64285Y-190794D01*
X63764Y-190446D01*
X63150Y-190323D01*
X62994Y-190354D01*
X60019Y-187380D01*
Y-186289D01*
X61119D01*
Y-181171D01*
X59957D01*
Y-177969D01*
X61026D01*
Y-172851D01*
X60533D01*
Y-162699D01*
X60514Y-162602D01*
Y-160928D01*
X58939D01*
Y-160140D01*
D02*
G37*
G36*
X42538Y-247825D02*
X41924Y-247947D01*
X41403Y-248295D01*
X41055Y-248816D01*
X40933Y-249430D01*
X41055Y-250045D01*
X41403Y-250566D01*
X41426Y-250581D01*
Y-251993D01*
X41403Y-252008D01*
X41055Y-252529D01*
X40933Y-253144D01*
Y-259049D01*
X41055Y-259664D01*
X41403Y-260185D01*
X41924Y-260532D01*
X42538Y-260655D01*
X43153Y-260532D01*
X43674Y-260185D01*
X44021Y-259664D01*
X44144Y-259049D01*
Y-257208D01*
X45932D01*
Y-259049D01*
X46055Y-259664D01*
X46403Y-260185D01*
X46924Y-260532D01*
X47538Y-260655D01*
X48153Y-260532D01*
X48673Y-260185D01*
X49022Y-259664D01*
X49144Y-259049D01*
Y-253144D01*
X49022Y-252529D01*
X48673Y-252008D01*
X48153Y-251660D01*
X47538Y-251538D01*
X46924Y-251660D01*
X46403Y-252008D01*
X46055Y-252529D01*
X45932Y-253144D01*
Y-254984D01*
X44144D01*
Y-253144D01*
X44021Y-252529D01*
X43674Y-252008D01*
X43650Y-251993D01*
Y-250581D01*
X43674Y-250566D01*
X44021Y-250045D01*
X44144Y-249430D01*
X44021Y-248816D01*
X43674Y-248295D01*
X43153Y-247947D01*
X42538Y-247825D01*
D02*
G37*
G36*
X44679Y-221782D02*
X40348D01*
Y-226901D01*
X41426D01*
Y-231520D01*
X41403Y-231536D01*
X41055Y-232057D01*
X40933Y-232671D01*
Y-238577D01*
X41055Y-239191D01*
X41403Y-239712D01*
X41924Y-240060D01*
X42538Y-240182D01*
X43153Y-240060D01*
X43674Y-239712D01*
X44021Y-239191D01*
X44144Y-238577D01*
Y-232671D01*
X44021Y-232057D01*
X43674Y-231536D01*
X43650Y-231520D01*
Y-226901D01*
X44679D01*
Y-221782D01*
D02*
G37*
G36*
X40116Y-111143D02*
X35785D01*
Y-116261D01*
X36869D01*
Y-118861D01*
X35815D01*
Y-123979D01*
X40146D01*
Y-118861D01*
X39092D01*
Y-116261D01*
X40116D01*
Y-111143D01*
D02*
G37*
G36*
X27559Y-126929D02*
X26377Y-127085D01*
X25276Y-127541D01*
X24330Y-128267D01*
X23604Y-129213D01*
X23148Y-130314D01*
X22992Y-131496D01*
X23148Y-132678D01*
X23604Y-133779D01*
X24330Y-134725D01*
X25276Y-135451D01*
X26377Y-135907D01*
X27559Y-136063D01*
X28741Y-135907D01*
X29842Y-135451D01*
X30788Y-134725D01*
X31514Y-133779D01*
X31970Y-132678D01*
X32126Y-131496D01*
X31970Y-130314D01*
X31514Y-129213D01*
X30788Y-128267D01*
X29842Y-127541D01*
X28741Y-127085D01*
X27559Y-126929D01*
D02*
G37*
G36*
X18110Y-110599D02*
X17495Y-110722D01*
X16975Y-111070D01*
X16627Y-111591D01*
X16504Y-112205D01*
X16627Y-112819D01*
X16975Y-113340D01*
X17495Y-113688D01*
X18110Y-113811D01*
X18266Y-113780D01*
X30825Y-126339D01*
X31151Y-126557D01*
X31535Y-126633D01*
X35675D01*
Y-127041D01*
X35675D01*
Y-132159D01*
X37582D01*
X40756Y-135333D01*
Y-135567D01*
X40633Y-135863D01*
X36395D01*
Y-136622D01*
X30176D01*
X30176Y-136622D01*
X29751Y-136706D01*
X29390Y-136947D01*
X29390Y-136947D01*
X27126Y-139211D01*
X23974D01*
Y-144329D01*
X28305D01*
Y-141177D01*
X30637Y-138846D01*
X36395D01*
Y-139604D01*
Y-140041D01*
X36334Y-140053D01*
X35973Y-140294D01*
X35973Y-140294D01*
X27266Y-149001D01*
X24114D01*
Y-153621D01*
X23652Y-153813D01*
X22146Y-152306D01*
Y-149001D01*
X17815D01*
Y-154119D01*
X21120D01*
X23510Y-156509D01*
X23319Y-156971D01*
X19414D01*
X17066Y-154624D01*
Y-145963D01*
X18700Y-144329D01*
X22006D01*
Y-139211D01*
X17675D01*
Y-142516D01*
X15353Y-144838D01*
X15136Y-145163D01*
X15059Y-145547D01*
Y-155039D01*
X15059Y-155039D01*
X15059D01*
X15136Y-155423D01*
X15353Y-155749D01*
X18289Y-158684D01*
X18614Y-158902D01*
X18998Y-158978D01*
X42020D01*
X42211Y-159440D01*
X41278Y-160374D01*
X40787Y-160276D01*
X40019Y-160429D01*
X39368Y-160864D01*
X38933Y-161515D01*
X38780Y-162284D01*
X38933Y-163051D01*
X39294Y-163592D01*
X39059Y-164033D01*
X34016D01*
X33348Y-164121D01*
X33090Y-164228D01*
X32725Y-164379D01*
X32191Y-164789D01*
X13964Y-183016D01*
X13554Y-183550D01*
X13296Y-184173D01*
X13208Y-184841D01*
X13296Y-185509D01*
X13554Y-186132D01*
X13964Y-186666D01*
X14498Y-187076D01*
X15121Y-187334D01*
X15789Y-187422D01*
X16457Y-187334D01*
X17079Y-187076D01*
X17614Y-186666D01*
X35085Y-169195D01*
X48071D01*
X48739Y-169107D01*
X49361Y-168850D01*
X49896Y-168439D01*
X50306Y-167905D01*
X50425Y-167618D01*
X51496D01*
X51880Y-167541D01*
X52206Y-167324D01*
X53340Y-166190D01*
X53450Y-166235D01*
X53548Y-166726D01*
X41203Y-179071D01*
X35871D01*
X35547Y-178288D01*
X34979Y-177548D01*
X34239Y-176980D01*
X33377Y-176623D01*
X32452Y-176501D01*
X31527Y-176623D01*
X30665Y-176980D01*
X29925Y-177548D01*
X29357Y-178288D01*
X29000Y-179150D01*
X28878Y-180075D01*
X29000Y-181000D01*
X29357Y-181862D01*
X29925Y-182602D01*
X30665Y-183170D01*
X31448Y-183494D01*
Y-202246D01*
X30665Y-202570D01*
X29925Y-203138D01*
X29357Y-203878D01*
X29000Y-204740D01*
X28878Y-205665D01*
X29000Y-206590D01*
X29357Y-207452D01*
X29925Y-208192D01*
X30665Y-208760D01*
X31436Y-209080D01*
Y-214835D01*
X30041D01*
Y-219166D01*
X35159D01*
Y-214835D01*
X33443D01*
Y-209090D01*
X34239Y-208760D01*
X34979Y-208192D01*
X35547Y-207452D01*
X35904Y-206590D01*
X36026Y-205665D01*
X35904Y-204740D01*
X35547Y-203878D01*
X34979Y-203138D01*
X34239Y-202570D01*
X33455Y-202246D01*
Y-183494D01*
X34239Y-183170D01*
X34979Y-182602D01*
X35547Y-181862D01*
X35871Y-181078D01*
X41618D01*
X42002Y-181002D01*
X42328Y-180784D01*
X55515Y-167597D01*
X55660Y-167380D01*
X55732Y-167272D01*
X55809Y-166888D01*
Y-162305D01*
X55789Y-162209D01*
Y-160140D01*
X53821D01*
Y-160928D01*
X52246D01*
Y-162602D01*
X52227Y-162699D01*
Y-164464D01*
X51080Y-165611D01*
X50425D01*
X50306Y-165324D01*
X49896Y-164789D01*
X49361Y-164379D01*
X48739Y-164121D01*
X48071Y-164033D01*
X42516D01*
X42281Y-163592D01*
X42642Y-163051D01*
X42794Y-162284D01*
X42697Y-161793D01*
X43937Y-160553D01*
X50081D01*
X50178Y-160534D01*
X51852D01*
Y-158959D01*
X52640D01*
Y-157384D01*
Y-155809D01*
Y-153841D01*
X51852D01*
Y-152266D01*
X51084D01*
Y-129018D01*
X51008Y-128634D01*
X50790Y-128308D01*
X47403Y-124920D01*
X47077Y-124703D01*
X46693Y-124626D01*
X31951D01*
X19685Y-112361D01*
X19716Y-112205D01*
X19593Y-111591D01*
X19245Y-111070D01*
X18724Y-110722D01*
X18110Y-110599D01*
D02*
G37*
%LPD*%
G36*
X42694Y-137271D02*
Y-139604D01*
X46509D01*
Y-153649D01*
X46509Y-153649D01*
X46509D01*
X46586Y-154033D01*
X46803Y-154359D01*
X47379Y-154935D01*
X47188Y-155396D01*
X25236D01*
X24421Y-154581D01*
X24612Y-154119D01*
X28445D01*
Y-150967D01*
X36462Y-142950D01*
X40725D01*
Y-139604D01*
Y-135956D01*
X40758Y-135942D01*
D01*
X41022Y-135833D01*
X41256D01*
X42694Y-137271D01*
D02*
G37*
D10*
X44140Y-129600D02*
D03*
X37840D02*
D03*
X38708Y-290718D02*
D03*
X32409D02*
D03*
X18551Y-310682D02*
D03*
X24850D02*
D03*
X18551Y-303142D02*
D03*
X24850D02*
D03*
X34750Y-396730D02*
D03*
X28450D02*
D03*
X28524Y-378796D02*
D03*
X34823D02*
D03*
X51741Y-378035D02*
D03*
X58040D02*
D03*
X49207Y-224342D02*
D03*
X42513D02*
D03*
X38186Y-48700D02*
D03*
X44485D02*
D03*
X38200Y-59490D02*
D03*
X44500D02*
D03*
X38050Y-70378D02*
D03*
X44350D02*
D03*
X38030Y-81320D02*
D03*
X44330D02*
D03*
X38045Y-92143D02*
D03*
X44345D02*
D03*
X38070Y-102430D02*
D03*
X44370D02*
D03*
X37951Y-113702D02*
D03*
X44250D02*
D03*
X37980Y-121420D02*
D03*
X44280D02*
D03*
X19840Y-141770D02*
D03*
X26140D02*
D03*
X19980Y-151560D02*
D03*
X26280D02*
D03*
X58860Y-175410D02*
D03*
X65160D02*
D03*
X58953Y-183730D02*
D03*
X65646D02*
D03*
X51811Y-385815D02*
D03*
X58110D02*
D03*
X19250Y-430500D02*
D03*
X25550D02*
D03*
X22950Y-31950D02*
D03*
X16650D02*
D03*
D11*
X32600Y-217000D02*
D03*
Y-223300D02*
D03*
X39303Y-441861D02*
D03*
Y-448554D02*
D03*
X54980Y-274396D02*
D03*
Y-267704D02*
D03*
X47500Y-274300D02*
D03*
Y-268000D02*
D03*
X25130Y-274410D02*
D03*
Y-268110D02*
D03*
X47251Y-332048D02*
D03*
Y-325355D02*
D03*
X39391Y-331921D02*
D03*
Y-325621D02*
D03*
X18571Y-332340D02*
D03*
Y-326040D02*
D03*
X18561Y-351660D02*
D03*
Y-345360D02*
D03*
X44418Y-384328D02*
D03*
Y-378028D02*
D03*
X62300Y-268050D02*
D03*
Y-274350D02*
D03*
X19260Y-422636D02*
D03*
Y-415943D02*
D03*
X28470Y-416330D02*
D03*
Y-422629D02*
D03*
D12*
X48976Y-441871D02*
D03*
Y-449745D02*
D03*
X30333Y-441949D02*
D03*
Y-449823D02*
D03*
X29521Y-333508D02*
D03*
Y-325634D02*
D03*
D13*
X32540Y-268173D02*
D03*
X40020D02*
D03*
X36280Y-280378D02*
D03*
X40020D02*
D03*
X32540D02*
D03*
D14*
X35510Y-303148D02*
D03*
X44172Y-306888D02*
D03*
D15*
X35510Y-310628D02*
D03*
D16*
X43535Y-367857D02*
D03*
X38535D02*
D03*
X33535D02*
D03*
X28535D02*
D03*
Y-345357D02*
D03*
X33535D02*
D03*
X38535D02*
D03*
X43535D02*
D03*
D17*
X36035Y-356607D02*
D03*
D18*
X36421Y-386906D02*
D03*
X28547D02*
D03*
D19*
X75646Y-184854D02*
D03*
Y-175122D02*
D03*
Y-214052D02*
D03*
Y-194587D02*
D03*
Y-204319D02*
D03*
X50168Y-180075D02*
D03*
X32452D02*
D03*
X50168Y-205665D02*
D03*
X32452D02*
D03*
X18494Y-451912D02*
D03*
X52950Y-19540D02*
D03*
X42950D02*
D03*
X32950D02*
D03*
X48110Y-6700D02*
D03*
X38110D02*
D03*
X28110D02*
D03*
X18110D02*
D03*
D20*
X59263Y-349486D02*
D03*
Y-362871D02*
D03*
D21*
X38560Y-141080D02*
D03*
X44859D02*
D03*
X38560Y-137733D02*
D03*
X44859D02*
D03*
D22*
X53230Y-162699D02*
D03*
X59530D02*
D03*
Y-150101D02*
D03*
X53230D02*
D03*
D23*
X54805Y-162305D02*
D03*
X56380D02*
D03*
X57955D02*
D03*
Y-150495D02*
D03*
X56380D02*
D03*
X54805D02*
D03*
D24*
X62679Y-159550D02*
D03*
Y-153250D02*
D03*
X50081D02*
D03*
Y-159550D02*
D03*
D25*
X62286Y-157975D02*
D03*
Y-156400D02*
D03*
Y-154825D02*
D03*
X50475D02*
D03*
Y-156400D02*
D03*
Y-157975D02*
D03*
D26*
X56380Y-156400D02*
D03*
D27*
X37538Y-256096D02*
D03*
X42538D02*
D03*
X47538D02*
D03*
X32538Y-235624D02*
D03*
X37538D02*
D03*
X42538D02*
D03*
X47538D02*
D03*
D28*
X32538Y-256096D02*
D03*
D29*
X39268Y-407285D02*
D03*
Y-416340D02*
D03*
Y-425395D02*
D03*
D30*
X64072Y-416340D02*
D03*
D31*
X42414Y-471340D02*
D03*
X30603D02*
D03*
X32572D02*
D03*
X34540D02*
D03*
X36509D02*
D03*
X38477D02*
D03*
X40446D02*
D03*
X44383D02*
D03*
X46351D02*
D03*
X48320D02*
D03*
X50288D02*
D03*
X52257D02*
D03*
D32*
X24422D02*
D03*
X58438D02*
D03*
D33*
X43535Y-345357D02*
X47664Y-349486D01*
X59263D01*
X33535Y-366032D02*
X36696Y-362871D01*
X59263D01*
X47251Y-325355D02*
X50630D01*
X59263Y-333987D01*
Y-349486D02*
Y-333987D01*
D34*
X38045Y-102405D02*
Y-92143D01*
X38050Y-81300D02*
Y-70378D01*
X38186Y-59476D02*
Y-48700D01*
X37951Y-113702D02*
X37980Y-113731D01*
Y-121420D02*
Y-113731D01*
X42538Y-256096D02*
Y-249430D01*
X46457Y-244094D02*
X62300Y-259938D01*
X41969Y-244094D02*
X46457D01*
X37538Y-239664D02*
X41969Y-244094D01*
X45964Y-274434D02*
X48688D01*
X42157Y-274300D02*
X47500D01*
X40020Y-276436D02*
X42157Y-274300D01*
X40020Y-280378D02*
Y-276436D01*
X48688Y-274434D02*
X48727Y-274395D01*
X62300D01*
Y-268050D02*
Y-259938D01*
X33535Y-377508D02*
X34823Y-378796D01*
X38535Y-372145D02*
Y-367857D01*
Y-372145D02*
X44418Y-378028D01*
X58040Y-385745D02*
Y-378035D01*
X43535Y-367857D02*
X47862D01*
X58040Y-378035D01*
X44418Y-378028D02*
X51734D01*
X33535Y-377508D02*
Y-367857D01*
X18565Y-332346D02*
X18571Y-332340D01*
X25565Y-303148D02*
X35510D01*
X42538Y-256096D02*
X47538D01*
X42538Y-235624D02*
Y-224366D01*
X26140Y-141770D02*
X30176Y-137733D01*
X38560D01*
X26280Y-151560D02*
X36760Y-141080D01*
X38560D01*
X37538Y-239664D02*
Y-235624D01*
X25130Y-274410D02*
X30079D01*
X32454Y-276784D01*
Y-290674D02*
Y-276784D01*
X18565Y-345357D02*
Y-332346D01*
Y-345357D02*
X28535D01*
X33535D02*
Y-337777D01*
X39391Y-331921D01*
X38535Y-345357D02*
Y-340764D01*
X47251Y-332048D01*
X33535Y-367857D02*
Y-366032D01*
D35*
X7874Y-227047D02*
X18307Y-237480D01*
Y-326040D02*
Y-237480D01*
Y-326040D02*
X40276D01*
X25770Y-367857D02*
X28470D01*
Y-378796D02*
Y-367857D01*
Y-416330D02*
Y-378796D01*
Y-367857D02*
X28535D01*
X19267Y-422629D02*
X28470D01*
X19260Y-430490D02*
Y-422636D01*
X16065D02*
X19260D01*
X38753Y-461680D02*
X46351D01*
X36509Y-463924D02*
X38753Y-461680D01*
X39391Y-325621D02*
Y-319428D01*
X65160Y-175410D02*
X75357D01*
X34016Y-166614D02*
X48071D01*
X15789Y-184841D02*
X34016Y-166614D01*
X32540Y-268173D02*
Y-223640D01*
X32600Y-223300D02*
X35677D01*
X32538Y-256096D02*
X37538D01*
X28535Y-416265D02*
X39194D01*
X18545Y-441861D02*
X39303D01*
X39194Y-441751D02*
Y-416265D01*
Y-441751D02*
X48855D01*
X25130Y-268110D02*
X32477D01*
X16650Y-56932D02*
Y-31950D01*
X7874Y-65709D02*
X16650Y-56932D01*
X7874Y-227047D02*
Y-65709D01*
D36*
X50081Y-153250D02*
Y-129018D01*
X46693Y-125630D02*
X50081Y-129018D01*
X31535Y-125630D02*
X46693D01*
X18110Y-112205D02*
X31535Y-125630D01*
X34750Y-396730D02*
X53546D01*
X56931Y-393345D01*
X66929Y-296890D02*
Y-235433D01*
X56931Y-306888D02*
X66929Y-296890D01*
X44172Y-306888D02*
X56931D01*
X68054Y-159550D02*
X77362Y-168858D01*
X62679Y-159550D02*
X68054D01*
X62286Y-157975D02*
X70376D01*
X77716Y-165315D01*
X80669Y-178835D02*
Y-164527D01*
X72542Y-156400D02*
X80669Y-164527D01*
X65827Y-156400D02*
X72542D01*
X40787Y-162284D02*
X43521Y-159550D01*
X50081D01*
X48071Y-166614D02*
X51496D01*
X32452Y-180075D02*
X41618D01*
X53230Y-164880D02*
Y-162699D01*
X51496Y-166614D02*
X53230Y-164880D01*
X54805Y-166888D02*
Y-162305D01*
X41618Y-180075D02*
X54805Y-166888D01*
X28110Y-22244D02*
Y-6700D01*
X44250Y-113702D02*
X48623D01*
X19980Y-151560D02*
X24820Y-156400D01*
X16063Y-155039D02*
X18998Y-157975D01*
X16063Y-155039D02*
Y-145547D01*
X19840Y-141770D01*
X22950Y-31950D02*
Y-19540D01*
X22950Y-19540D01*
X48110Y-6700D02*
X59535D01*
X70118Y-17284D01*
X62286Y-154825D02*
X69033D01*
X70118Y-153740D01*
Y-17284D01*
X30709Y-108268D02*
X47559D01*
X22950Y-100509D02*
X30709Y-108268D01*
X22950Y-100509D02*
Y-31950D01*
X18998Y-157975D02*
X50475D01*
X24820Y-156400D02*
X50475D01*
X44140Y-129600D02*
X47513Y-132973D01*
Y-153649D02*
Y-132973D01*
Y-153649D02*
X48689Y-154825D01*
X50475D01*
X48623Y-113702D02*
X53230Y-118309D01*
Y-150101D02*
Y-118309D01*
X47559Y-108268D02*
X54805Y-115514D01*
Y-150495D02*
Y-115514D01*
X44345Y-92143D02*
X56380Y-104179D01*
Y-150495D02*
Y-104179D01*
X44350Y-70378D02*
X57955Y-83983D01*
Y-150495D02*
Y-83983D01*
X44485Y-48700D02*
X59530Y-63744D01*
Y-150101D02*
Y-63744D01*
X28110Y-22244D02*
X62679Y-56813D01*
Y-153250D02*
Y-56813D01*
X62286Y-156400D02*
X65827D01*
X65325D02*
X65827D01*
X74898Y-184607D02*
X80669Y-178835D01*
X55079Y-190079D02*
X59340Y-194340D01*
X74898D01*
X55079Y-190079D02*
Y-171181D01*
X57955Y-168305D01*
Y-162305D01*
X58953Y-183730D02*
Y-175503D01*
X59016Y-187795D02*
Y-183792D01*
X58953Y-183730D02*
X59016Y-183792D01*
Y-187795D02*
X63150Y-191929D01*
X32452Y-205665D02*
Y-180075D01*
X32440Y-217340D02*
Y-205677D01*
X59530Y-174927D02*
Y-162699D01*
D37*
X37840Y-130715D02*
X44859Y-137733D01*
X37840Y-130715D02*
Y-129600D01*
X36509Y-471340D02*
Y-463924D01*
X46351Y-471340D02*
Y-461680D01*
X40020Y-268173D02*
X55706D01*
X56140Y-267739D02*
Y-262872D01*
D38*
X18494Y-441912D02*
D03*
D39*
X22950Y-19540D02*
D03*
X8110Y-6700D02*
D03*
D40*
X34724Y-150669D02*
D03*
X49055Y-120512D02*
D03*
X36063Y-354252D02*
D03*
X40276D02*
D03*
X31850Y-358740D02*
D03*
X36063D02*
D03*
X40276D02*
D03*
X31850Y-354252D02*
D03*
X57677Y-155079D02*
D03*
Y-157598D02*
D03*
X55039D02*
D03*
Y-155039D02*
D03*
X56931Y-393345D02*
D03*
X42538Y-249430D02*
D03*
X56931Y-306888D02*
D03*
X66929Y-235433D02*
D03*
X77716Y-165315D02*
D03*
X77362Y-168858D02*
D03*
X56063Y-262795D02*
D03*
X18110Y-112205D02*
D03*
X75646Y-204319D02*
D03*
X63150Y-191929D02*
D03*
X63701Y-31850D02*
D03*
X75827Y-49488D02*
D03*
X53543Y-66732D02*
D03*
X51929Y-88543D02*
D03*
X50945Y-104842D02*
D03*
X29016Y-86221D02*
D03*
X27913Y-64173D02*
D03*
X29764Y-38819D02*
D03*
X6968Y-22402D02*
D03*
X23504Y-110827D02*
D03*
X18622Y-125906D02*
D03*
X25118Y-164016D02*
D03*
X14961Y-172323D02*
D03*
X23268Y-190354D02*
D03*
X61496Y-204409D02*
D03*
X61024Y-217677D02*
D03*
X77402Y-142323D02*
D03*
X74252Y-74961D02*
D03*
X77047Y-97244D02*
D03*
X58425Y-233701D02*
D03*
X24764Y-239724D02*
D03*
X58425Y-292874D02*
D03*
X47047Y-293228D02*
D03*
X33819Y-316024D02*
D03*
X63701Y-322126D02*
D03*
X63819Y-371024D02*
D03*
X41142Y-391102D02*
D03*
X41890Y-401142D02*
D03*
X24488Y-461417D02*
D03*
X35039Y-455669D02*
D03*
X62835Y-458347D02*
D03*
X63701Y-434213D02*
D03*
X17165Y-466811D02*
D03*
D41*
X25770Y-267891D02*
D03*
Y-367857D02*
D03*
X15789Y-422605D02*
D03*
X46351Y-461680D02*
D03*
X39391Y-319428D02*
D03*
X75646Y-175122D02*
D03*
D42*
X15789Y-184841D02*
D03*
X40787Y-162284D02*
D03*
X35677Y-223300D02*
D03*
M02*
