%FSLAX25Y25*%
%MOIN*%
G70*
G01*
G75*
G04 Layer_Color=8388736*
%ADD10R,0.03150X0.03937*%
%ADD11R,0.03937X0.03150*%
%ADD12R,0.04724X0.03937*%
%ADD13R,0.01575X0.03937*%
%ADD14R,0.03150X0.03543*%
%ADD15R,0.03150X0.03543*%
%ADD16R,0.02400X0.05906*%
%ADD17R,0.12402X0.08898*%
%ADD18R,0.03937X0.04724*%
%ADD19C,0.05906*%
%ADD20R,0.15748X0.05118*%
%ADD21R,0.03150X0.02559*%
%ADD22R,0.00787X0.02362*%
%ADD23R,0.00787X0.03150*%
%ADD24R,0.02362X0.00787*%
%ADD25R,0.03150X0.00787*%
%ADD26R,0.05118X0.05118*%
%ADD27O,0.01969X0.07874*%
%ADD28R,0.01969X0.07874*%
%ADD29R,0.05906X0.03937*%
%ADD30R,0.05906X0.12992*%
%ADD31R,0.01063X0.07874*%
%ADD32R,0.02362X0.07874*%
%ADD33C,0.01575*%
%ADD34C,0.01000*%
%ADD35C,0.03937*%
%ADD36C,0.00787*%
%ADD37C,0.01181*%
%ADD38R,0.05906X0.05906*%
%ADD39R,0.05906X0.05906*%
%ADD40C,0.01969*%
%ADD41C,0.03150*%
%ADD42C,0.02756*%
%ADD43C,0.00197*%
%ADD44C,0.00500*%
%ADD45C,0.00984*%
%ADD46C,0.00600*%
%ADD47C,0.00709*%
%ADD48C,0.00591*%
%ADD49C,0.00492*%
%ADD50R,0.03950X0.04737*%
%ADD51R,0.04737X0.03950*%
%ADD52R,0.05524X0.04737*%
%ADD53R,0.02375X0.04737*%
%ADD54R,0.03950X0.04343*%
%ADD55R,0.03950X0.04343*%
%ADD56R,0.03200X0.06706*%
%ADD57R,0.13202X0.09698*%
%ADD58R,0.04737X0.05524*%
%ADD59C,0.06706*%
%ADD60R,0.16548X0.05918*%
%ADD61R,0.03950X0.03359*%
%ADD62R,0.01587X0.03162*%
%ADD63R,0.01587X0.03950*%
%ADD64R,0.03162X0.01587*%
%ADD65R,0.03950X0.01587*%
%ADD66R,0.05918X0.05918*%
%ADD67O,0.02769X0.08674*%
%ADD68R,0.02769X0.08674*%
%ADD69R,0.06706X0.04737*%
%ADD70R,0.06706X0.13792*%
%ADD71R,0.01863X0.08674*%
%ADD72R,0.03162X0.08674*%
%ADD73R,0.06706X0.06706*%
%ADD74R,0.06706X0.06706*%
%ADD75C,0.02769*%
%ADD76C,0.03950*%
%ADD77C,0.03556*%
D50*
X44140Y-129600D02*
D03*
X37840D02*
D03*
X38708Y-290718D02*
D03*
X32409D02*
D03*
X18551Y-310682D02*
D03*
X24850D02*
D03*
X18551Y-303142D02*
D03*
X24850D02*
D03*
X34750Y-396730D02*
D03*
X28450D02*
D03*
X28524Y-378796D02*
D03*
X34823D02*
D03*
X51741Y-378035D02*
D03*
X58040D02*
D03*
X49207Y-224342D02*
D03*
X42513D02*
D03*
X38186Y-48700D02*
D03*
X44485D02*
D03*
X38200Y-59490D02*
D03*
X44500D02*
D03*
X38050Y-70378D02*
D03*
X44350D02*
D03*
X38030Y-81320D02*
D03*
X44330D02*
D03*
X38045Y-92143D02*
D03*
X44345D02*
D03*
X38070Y-102430D02*
D03*
X44370D02*
D03*
X37951Y-113702D02*
D03*
X44250D02*
D03*
X37980Y-121420D02*
D03*
X44280D02*
D03*
X19840Y-141770D02*
D03*
X26140D02*
D03*
X19980Y-151560D02*
D03*
X26280D02*
D03*
X58860Y-175410D02*
D03*
X65160D02*
D03*
X58953Y-183730D02*
D03*
X65646D02*
D03*
X51811Y-385815D02*
D03*
X58110D02*
D03*
X19250Y-430500D02*
D03*
X25550D02*
D03*
X22950Y-31950D02*
D03*
X16650D02*
D03*
D51*
X32600Y-217000D02*
D03*
Y-223300D02*
D03*
X39303Y-441861D02*
D03*
Y-448554D02*
D03*
X54980Y-274396D02*
D03*
Y-267704D02*
D03*
X47500Y-274300D02*
D03*
Y-268000D02*
D03*
X25130Y-274410D02*
D03*
Y-268110D02*
D03*
X47251Y-332048D02*
D03*
Y-325355D02*
D03*
X39391Y-331921D02*
D03*
Y-325621D02*
D03*
X18571Y-332340D02*
D03*
Y-326040D02*
D03*
X18561Y-351660D02*
D03*
Y-345360D02*
D03*
X44418Y-384328D02*
D03*
Y-378028D02*
D03*
X62300Y-268050D02*
D03*
Y-274350D02*
D03*
X19260Y-422636D02*
D03*
Y-415943D02*
D03*
X28470Y-416330D02*
D03*
Y-422629D02*
D03*
D52*
X48976Y-441871D02*
D03*
Y-449745D02*
D03*
X30333Y-441949D02*
D03*
Y-449823D02*
D03*
X29521Y-333508D02*
D03*
Y-325634D02*
D03*
D53*
X32540Y-268173D02*
D03*
X40020D02*
D03*
X36280Y-280378D02*
D03*
X40020D02*
D03*
X32540D02*
D03*
D54*
X35510Y-303148D02*
D03*
X44172Y-306888D02*
D03*
D55*
X35510Y-310628D02*
D03*
D56*
X43535Y-367857D02*
D03*
X38535D02*
D03*
X33535D02*
D03*
X28535D02*
D03*
Y-345357D02*
D03*
X33535D02*
D03*
X38535D02*
D03*
X43535D02*
D03*
D57*
X36035Y-356607D02*
D03*
D58*
X36421Y-386906D02*
D03*
X28547D02*
D03*
D59*
X75646Y-184854D02*
D03*
Y-175122D02*
D03*
Y-214052D02*
D03*
Y-194587D02*
D03*
Y-204319D02*
D03*
X50168Y-180075D02*
D03*
X32452D02*
D03*
X50168Y-205665D02*
D03*
X32452D02*
D03*
X18494Y-451912D02*
D03*
X52950Y-19540D02*
D03*
X42950D02*
D03*
X32950D02*
D03*
X48110Y-6700D02*
D03*
X38110D02*
D03*
X28110D02*
D03*
X18110D02*
D03*
D60*
X59263Y-349486D02*
D03*
Y-362871D02*
D03*
D61*
X38560Y-141080D02*
D03*
X44859D02*
D03*
X38560Y-137733D02*
D03*
X44859D02*
D03*
D62*
X53230Y-162699D02*
D03*
X59530D02*
D03*
Y-150101D02*
D03*
X53230D02*
D03*
D63*
X54805Y-162305D02*
D03*
X56380D02*
D03*
X57955D02*
D03*
Y-150495D02*
D03*
X56380D02*
D03*
X54805D02*
D03*
D64*
X62679Y-159550D02*
D03*
Y-153250D02*
D03*
X50081D02*
D03*
Y-159550D02*
D03*
D65*
X62286Y-157975D02*
D03*
Y-156400D02*
D03*
Y-154825D02*
D03*
X50475D02*
D03*
Y-156400D02*
D03*
Y-157975D02*
D03*
D66*
X56380Y-156400D02*
D03*
D67*
X37538Y-256096D02*
D03*
X42538D02*
D03*
X47538D02*
D03*
X32538Y-235624D02*
D03*
X37538D02*
D03*
X42538D02*
D03*
X47538D02*
D03*
D68*
X32538Y-256096D02*
D03*
D69*
X39268Y-407285D02*
D03*
Y-416340D02*
D03*
Y-425395D02*
D03*
D70*
X64072Y-416340D02*
D03*
D71*
X42414Y-471340D02*
D03*
X30603D02*
D03*
X32572D02*
D03*
X34540D02*
D03*
X36509D02*
D03*
X38477D02*
D03*
X40446D02*
D03*
X44383D02*
D03*
X46351D02*
D03*
X48320D02*
D03*
X50288D02*
D03*
X52257D02*
D03*
D72*
X24422D02*
D03*
X58438D02*
D03*
D73*
X18494Y-441912D02*
D03*
D74*
X22950Y-19540D02*
D03*
X8110Y-6700D02*
D03*
D75*
X34724Y-150669D02*
D03*
X49055Y-120512D02*
D03*
X36063Y-354252D02*
D03*
X40276D02*
D03*
X31850Y-358740D02*
D03*
X36063D02*
D03*
X40276D02*
D03*
X31850Y-354252D02*
D03*
X57677Y-155079D02*
D03*
Y-157598D02*
D03*
X55039D02*
D03*
Y-155039D02*
D03*
X56931Y-393345D02*
D03*
X42538Y-249430D02*
D03*
X56931Y-306888D02*
D03*
X66929Y-235433D02*
D03*
X77716Y-165315D02*
D03*
X77362Y-168858D02*
D03*
X56063Y-262795D02*
D03*
X18110Y-112205D02*
D03*
X75646Y-204319D02*
D03*
X63150Y-191929D02*
D03*
X63701Y-31850D02*
D03*
X75827Y-49488D02*
D03*
X53543Y-66732D02*
D03*
X51929Y-88543D02*
D03*
X50945Y-104842D02*
D03*
X29016Y-86221D02*
D03*
X27913Y-64173D02*
D03*
X29764Y-38819D02*
D03*
X6968Y-22402D02*
D03*
X23504Y-110827D02*
D03*
X18622Y-125906D02*
D03*
X25118Y-164016D02*
D03*
X14961Y-172323D02*
D03*
X23268Y-190354D02*
D03*
X61496Y-204409D02*
D03*
X61024Y-217677D02*
D03*
X77402Y-142323D02*
D03*
X74252Y-74961D02*
D03*
X77047Y-97244D02*
D03*
X58425Y-233701D02*
D03*
X24764Y-239724D02*
D03*
X58425Y-292874D02*
D03*
X47047Y-293228D02*
D03*
X33819Y-316024D02*
D03*
X63701Y-322126D02*
D03*
X63819Y-371024D02*
D03*
X41142Y-391102D02*
D03*
X41890Y-401142D02*
D03*
X24488Y-461417D02*
D03*
X35039Y-455669D02*
D03*
X62835Y-458347D02*
D03*
X63701Y-434213D02*
D03*
X17165Y-466811D02*
D03*
D76*
X25770Y-267891D02*
D03*
Y-367857D02*
D03*
X15789Y-422605D02*
D03*
X46351Y-461680D02*
D03*
X39391Y-319428D02*
D03*
X75646Y-175122D02*
D03*
D77*
X15789Y-184841D02*
D03*
X40787Y-162284D02*
D03*
X35677Y-223300D02*
D03*
M02*
