%FSLAX25Y25*%
%MOIN*%
G70*
G01*
G75*
G04 Layer_Color=2752767*
%ADD10C,0.05906*%
%ADD11R,0.07874X0.07874*%
%ADD12R,0.02362X0.02756*%
%ADD13R,0.02756X0.02362*%
%ADD14R,0.03150X0.03937*%
%ADD15R,0.03937X0.03150*%
%ADD16R,0.02559X0.02165*%
%ADD17R,0.02165X0.02559*%
%ADD18R,0.03543X0.03150*%
%ADD19R,0.03543X0.03150*%
%ADD20R,0.01575X0.03937*%
%ADD21O,0.01181X0.07874*%
%ADD22R,0.01181X0.07874*%
%ADD23R,0.03937X0.01575*%
%ADD24R,0.02362X0.07874*%
%ADD25R,0.01063X0.07874*%
%ADD26R,0.05118X0.05118*%
%ADD27R,0.00787X0.02362*%
%ADD28R,0.00787X0.03150*%
%ADD29R,0.02362X0.00787*%
%ADD30R,0.03150X0.00787*%
%ADD31R,0.03150X0.02559*%
%ADD32R,0.05118X0.15748*%
%ADD33R,0.03150X0.03543*%
%ADD34R,0.03150X0.03543*%
%ADD35R,0.06299X0.07480*%
%ADD36R,0.02756X0.13386*%
%ADD37R,0.02756X0.06102*%
%ADD38R,0.07874X0.10000*%
%ADD39C,0.00787*%
%ADD40C,0.02362*%
%ADD41C,0.01000*%
%ADD42C,0.01575*%
%ADD43C,0.01181*%
%ADD44C,0.01969*%
%ADD45C,0.03150*%
%ADD46C,0.00500*%
%ADD47C,0.00591*%
%ADD48C,0.00394*%
%ADD49C,0.00600*%
%ADD50C,0.00197*%
%ADD51C,0.00709*%
%ADD52C,0.01200*%
%ADD53C,0.06706*%
%ADD54R,0.08674X0.08674*%
%ADD55R,0.03162X0.03556*%
%ADD56R,0.03556X0.03162*%
%ADD57R,0.03950X0.04737*%
%ADD58R,0.04737X0.03950*%
%ADD59R,0.03359X0.02965*%
%ADD60R,0.02965X0.03359*%
%ADD61R,0.04343X0.03950*%
%ADD62R,0.04343X0.03950*%
%ADD63R,0.02375X0.04737*%
%ADD64O,0.01981X0.08674*%
%ADD65R,0.01981X0.08674*%
%ADD66R,0.04737X0.02375*%
%ADD67R,0.03162X0.08674*%
%ADD68R,0.01863X0.08674*%
%ADD69R,0.05918X0.05918*%
%ADD70R,0.01587X0.03162*%
%ADD71R,0.01587X0.03950*%
%ADD72R,0.03162X0.01587*%
%ADD73R,0.03950X0.01587*%
%ADD74R,0.03950X0.03359*%
%ADD75R,0.05918X0.16548*%
%ADD76R,0.03950X0.04343*%
%ADD77R,0.03950X0.04343*%
%ADD78R,0.07099X0.08280*%
%ADD79R,0.03556X0.14186*%
%ADD80R,0.03556X0.06902*%
%ADD81R,0.08674X0.10800*%
%ADD82C,0.02769*%
%ADD83C,0.00667*%
D50*
X21110Y-259638D02*
Y-255638D01*
X25110D01*
Y-259638D01*
X21110D01*
X31150Y-249835D02*
Y-245835D01*
X35150D01*
Y-249835D01*
X31150D01*
X30953Y-261409D02*
Y-257410D01*
X34953D01*
Y-261409D01*
X30953D01*
X34772Y-255465D02*
Y-251465D01*
X38772D01*
Y-255465D01*
X34772D01*
X44384Y-252506D02*
Y-248506D01*
X48384D01*
Y-252506D01*
X44384D01*
X53591Y-198181D02*
Y-194181D01*
X57591D01*
Y-198181D01*
X53591D01*
Y-206331D02*
Y-202331D01*
X57591D01*
Y-206331D01*
X53591D01*
X25520Y-241961D02*
Y-237961D01*
X29520D01*
Y-241961D01*
X25520D01*
X47646Y-203811D02*
Y-199811D01*
X51646D01*
Y-203811D01*
X47646D01*
X54575Y-249362D02*
Y-245362D01*
X58575D01*
Y-249362D01*
X54575D01*
X32488Y-223890D02*
Y-219890D01*
X36488D01*
Y-223890D01*
X32488D01*
X53984Y-45583D02*
Y-41583D01*
X57984D01*
Y-45583D01*
X53984D01*
X54063Y-125110D02*
Y-121110D01*
X58063D01*
Y-125110D01*
X54063D01*
X26150Y-141449D02*
Y-137449D01*
X30150D01*
Y-141449D01*
X26150D01*
X29575Y-253299D02*
Y-249299D01*
X33575D01*
Y-253299D01*
X29575D01*
X38157Y-257866D02*
Y-253866D01*
X42158D01*
Y-257866D01*
X38157D01*
X20598Y-68299D02*
Y-64299D01*
X24598D01*
Y-68299D01*
X20598D01*
X20480Y-62000D02*
Y-58000D01*
X24480D01*
Y-62000D01*
X20480D01*
X31740Y-189520D02*
Y-185520D01*
X35740D01*
Y-189520D01*
X31740D01*
X34496Y-35504D02*
Y-31504D01*
X38496D01*
Y-35504D01*
X34496D01*
Y-176685D02*
Y-172685D01*
X38496D01*
Y-176685D01*
X34496D01*
X30913Y-57709D02*
Y-53709D01*
X34913D01*
Y-57709D01*
X30913D01*
X8591Y-235110D02*
Y-231110D01*
X12591D01*
Y-235110D01*
X8591D01*
X36819Y-82984D02*
Y-78984D01*
X40819D01*
Y-82984D01*
X36819D01*
X25717Y-228693D02*
Y-224693D01*
X29717D01*
Y-228693D01*
X25717D01*
X40795Y-104992D02*
Y-100992D01*
X44795D01*
Y-104992D01*
X40795D01*
X72810Y-216052D02*
Y-212052D01*
X76810D01*
Y-216052D01*
X72810D01*
X78079Y-47039D02*
Y-43039D01*
X82079D01*
Y-47039D01*
X78079D01*
X42961Y-122630D02*
Y-118630D01*
X46961D01*
Y-122630D01*
X42961D01*
X32195Y-229542D02*
Y-225542D01*
X36195D01*
Y-229542D01*
X32195D01*
X28827Y-233378D02*
Y-229378D01*
X32827D01*
Y-233378D01*
X28827D01*
X67252Y-201173D02*
Y-197173D01*
X71252D01*
Y-201173D01*
X67252D01*
Y-229205D02*
Y-225205D01*
X71252D01*
Y-229205D01*
X67252D01*
X57606Y-241016D02*
Y-237016D01*
X61606D01*
Y-241016D01*
X57606D01*
X38495Y-252534D02*
Y-248534D01*
X42494D01*
Y-252534D01*
X38495D01*
X47213Y-260543D02*
Y-256543D01*
X51213D01*
Y-260543D01*
X47213D01*
X52921Y-227472D02*
Y-223472D01*
X56921D01*
Y-227472D01*
X52921D01*
X57595Y-130021D02*
Y-126021D01*
X61595D01*
Y-130021D01*
X57595D01*
X45520Y-230465D02*
Y-226465D01*
X49520D01*
Y-230465D01*
X45520D01*
X61622Y-153614D02*
Y-149614D01*
X65622D01*
Y-153614D01*
X61622D01*
X47486Y-234754D02*
Y-230754D01*
X51486D01*
Y-234754D01*
X47486D01*
X57488Y-235740D02*
Y-231740D01*
X61488D01*
Y-235740D01*
X57488D01*
X52921Y-241606D02*
Y-237606D01*
X56921D01*
Y-241606D01*
X52921D01*
X39693Y-239717D02*
Y-235717D01*
X43693D01*
Y-239717D01*
X39693D01*
Y-242394D02*
Y-238394D01*
X43693D01*
Y-242394D01*
X39693D01*
X37134Y-239717D02*
Y-235717D01*
X41134D01*
Y-239717D01*
X37134D01*
Y-242394D02*
Y-238394D01*
X41134D01*
Y-242394D01*
X37134D01*
X45677Y-416409D02*
Y-412409D01*
X49677D01*
Y-416409D01*
X45677D01*
Y-425622D02*
Y-421622D01*
X49677D01*
Y-425622D01*
X45677D01*
X47213Y-146803D02*
Y-142803D01*
X51213D01*
Y-146803D01*
X47213D01*
X28394Y-37512D02*
Y-33512D01*
X32394D01*
Y-37512D01*
X28394D01*
X27685Y-159165D02*
Y-155165D01*
X31685D01*
Y-159165D01*
X27685D01*
X41780Y-426882D02*
Y-422882D01*
X45779D01*
Y-426882D01*
X41780D01*
Y-422039D02*
Y-418039D01*
X45779D01*
Y-422039D01*
X41780D01*
X36819Y-426764D02*
Y-422764D01*
X40819D01*
Y-426764D01*
X36819D01*
Y-422079D02*
Y-418079D01*
X40819D01*
Y-422079D01*
X36819D01*
X30795Y-411449D02*
Y-407449D01*
X34795D01*
Y-411449D01*
X30795D01*
X13512Y-412000D02*
Y-408000D01*
X17512D01*
Y-412000D01*
X13512D01*
X12528Y-398260D02*
Y-394260D01*
X16528D01*
Y-398260D01*
X12528D01*
X34575Y-390583D02*
Y-386583D01*
X38575D01*
Y-390583D01*
X34575D01*
X33197Y-373024D02*
Y-369024D01*
X37197D01*
Y-373024D01*
X33197D01*
X33315Y-359441D02*
Y-355441D01*
X37315D01*
Y-359441D01*
X33315D01*
X45638Y-362591D02*
Y-358591D01*
X49638D01*
Y-362591D01*
X45638D01*
Y-356803D02*
Y-352803D01*
X49638D01*
Y-356803D01*
X45638D01*
X49575Y-315228D02*
Y-311228D01*
X53575D01*
Y-315228D01*
X49575D01*
X64850Y-463299D02*
Y-459299D01*
X68850D01*
Y-463299D01*
X64850D01*
X56701Y-459126D02*
Y-455126D01*
X60701D01*
Y-459126D01*
X56701D01*
X64850D02*
Y-455126D01*
X68850D01*
Y-459126D01*
X64850D01*
X60638Y-459087D02*
Y-455087D01*
X64638D01*
Y-459087D01*
X60638D01*
X65874Y-311842D02*
Y-307842D01*
X69874D01*
Y-311842D01*
X65874D01*
X65559Y-340976D02*
Y-336976D01*
X69559D01*
Y-340976D01*
X65559D01*
X39024Y-292669D02*
Y-288669D01*
X43024D01*
Y-292669D01*
X39024D01*
X29850Y-276252D02*
Y-272252D01*
X33850D01*
Y-276252D01*
X29850D01*
X18787Y-279913D02*
Y-275913D01*
X22787D01*
Y-279913D01*
X18787D01*
X53905Y-260504D02*
Y-256504D01*
X57906D01*
Y-260504D01*
X53905D01*
X38906Y-126764D02*
Y-122764D01*
X42906D01*
Y-126764D01*
X38906D01*
X73945Y-159874D02*
Y-155874D01*
X77945D01*
Y-159874D01*
X73945D01*
X40992Y-216055D02*
Y-212055D01*
X44992D01*
Y-216055D01*
X40992D01*
X60520Y-216134D02*
Y-212134D01*
X64520D01*
Y-216134D01*
X60520D01*
X72016Y-242709D02*
Y-238709D01*
X76016D01*
Y-242709D01*
X72016D01*
X6071Y-163457D02*
Y-159457D01*
X10071D01*
Y-163457D01*
X6071D01*
X8748Y-115504D02*
Y-111504D01*
X12748D01*
Y-115504D01*
X8748D01*
X52016Y-106646D02*
Y-102646D01*
X56016D01*
Y-106646D01*
X52016D01*
X59535Y-89087D02*
Y-85087D01*
X63535D01*
Y-89087D01*
X59535D01*
X51189Y-62984D02*
Y-58984D01*
X55189D01*
Y-62984D01*
X51189D01*
X44024Y-37984D02*
Y-33984D01*
X48024D01*
Y-37984D01*
X44024D01*
X72016Y-45779D02*
Y-41780D01*
X76016D01*
Y-45779D01*
X72016D01*
X913Y-42472D02*
Y-38472D01*
X4913D01*
Y-42472D01*
X913D01*
X1268Y-27197D02*
Y-23197D01*
X5268D01*
Y-27197D01*
X1268D01*
X441Y-17827D02*
Y-13827D01*
X4441D01*
Y-17827D01*
X441D01*
X30677Y-448575D02*
Y-444575D01*
X34677D01*
Y-448575D01*
X30677D01*
X32811Y-452780D02*
Y-448780D01*
X36811D01*
Y-452780D01*
X32811D01*
X57254Y-391053D02*
Y-387053D01*
X61254D01*
Y-391053D01*
X57254D01*
X54693Y-388575D02*
Y-384575D01*
X58693D01*
Y-388575D01*
X54693D01*
X54654Y-426173D02*
Y-422173D01*
X58653D01*
Y-426173D01*
X54654D01*
X61661Y-328969D02*
Y-324969D01*
X65661D01*
Y-328969D01*
X61661D01*
X56958Y-316428D02*
Y-312428D01*
X60958D01*
Y-316428D01*
X56958D01*
X55205Y-174284D02*
Y-170283D01*
X59205D01*
Y-174284D01*
X55205D01*
X53197Y-266961D02*
Y-262961D01*
X57197D01*
Y-266961D01*
X53197D01*
D83*
X41567Y-430945D02*
G03*
X41567Y-430945I-2000J0D01*
G01*
X40937Y-461417D02*
G03*
X40937Y-461417I-2000J0D01*
G01*
X32157Y-314370D02*
G03*
X32157Y-314370I-2000J0D01*
G01*
X21331Y-314449D02*
G03*
X21331Y-314449I-2000J0D01*
G01*
X32157Y-305472D02*
G03*
X32157Y-305472I-2000J0D01*
G01*
X21331Y-305827D02*
G03*
X21331Y-305827I-2000J0D01*
G01*
X32157Y-297520D02*
G03*
X32157Y-297520I-2000J0D01*
G01*
X21331D02*
G03*
X21331Y-297520I-2000J0D01*
G01*
X32157Y-288032D02*
G03*
X32157Y-288032I-2000J0D01*
G01*
X21331Y-287638D02*
G03*
X21331Y-287638I-2000J0D01*
G01*
X29441Y-365118D02*
G03*
X29441Y-365118I-2000J0D01*
G01*
X22039Y-365197D02*
G03*
X22039Y-365197I-2000J0D01*
G01*
X21961Y-385472D02*
G03*
X21961Y-385472I-2000J0D01*
G01*
X17236Y-413858D02*
G03*
X17236Y-413858I-2000J0D01*
G01*
X42748Y-415827D02*
G03*
X42748Y-415827I-2000J0D01*
G01*
X34047Y-424409D02*
G03*
X34047Y-424409I-2000J0D01*
G01*
X34323Y-417165D02*
G03*
X34323Y-417165I-2000J0D01*
G01*
X48968Y-396339D02*
G03*
X48968Y-396339I-2000J0D01*
G01*
X64284Y-366890D02*
G03*
X64284Y-366890I-2000J0D01*
G01*
X47039Y-381535D02*
G03*
X47039Y-381535I-2000J0D01*
G01*
Y-375630D02*
G03*
X47039Y-375630I-2000J0D01*
G01*
Y-370590D02*
G03*
X47039Y-370590I-2000J0D01*
G01*
X69165Y-366890D02*
G03*
X69165Y-366890I-2000J0D01*
G01*
X48968Y-401260D02*
G03*
X48968Y-401260I-2000J0D01*
G01*
Y-409410D02*
G03*
X48968Y-409410I-2000J0D01*
G01*
Y-390905D02*
G03*
X48968Y-390905I-2000J0D01*
G01*
X45465Y-433898D02*
G03*
X45465Y-433898I-2000J0D01*
G01*
X49874Y-430669D02*
G03*
X49874Y-430669I-2000J0D01*
G01*
X38561Y-464882D02*
G03*
X38561Y-464882I-2000J0D01*
G01*
X29480Y-408386D02*
G03*
X29480Y-408386I-2000J0D01*
G01*
X58417Y-365630D02*
G03*
X58417Y-365630I-2000J0D01*
G01*
X33882Y-278905D02*
G03*
X33882Y-278905I-2000J0D01*
G01*
X19992Y-76614D02*
G03*
X19992Y-76614I-2000J0D01*
G01*
X65661Y-219659D02*
G03*
X65661Y-219659I-2000J0D01*
G01*
M02*
