%FSLAX25Y25*%
%MOIN*%
G70*
G01*
G75*
G04 Layer_Color=8421504*
%ADD10R,0.01575X0.03937*%
%ADD11R,0.07874X0.10000*%
%ADD12R,0.02756X0.06102*%
%ADD13R,0.02756X0.13386*%
%ADD14R,0.06299X0.07480*%
%ADD15R,0.03150X0.03937*%
%ADD16R,0.03150X0.03543*%
%ADD17R,0.03150X0.03543*%
%ADD18C,0.05906*%
%ADD19R,0.05118X0.15748*%
%ADD20R,0.03150X0.02559*%
%ADD21R,0.02362X0.00787*%
%ADD22R,0.03150X0.00787*%
%ADD23R,0.00787X0.02362*%
%ADD24R,0.00787X0.03150*%
%ADD25R,0.05118X0.05118*%
%ADD26R,0.01063X0.07874*%
%ADD27R,0.02362X0.07874*%
%ADD28R,0.02165X0.02559*%
%ADD29R,0.02362X0.02756*%
%ADD30R,0.03937X0.01575*%
%ADD31R,0.01181X0.07874*%
%ADD32O,0.01181X0.07874*%
%ADD33R,0.02559X0.02165*%
%ADD34R,0.03543X0.03150*%
%ADD35R,0.03543X0.03150*%
%ADD36R,0.02756X0.02362*%
%ADD37R,0.03937X0.03150*%
%ADD38R,0.07874X0.07874*%
%ADD39C,0.02362*%
%ADD40C,0.01575*%
%ADD41C,0.00787*%
%ADD42C,0.01000*%
%ADD43C,0.01181*%
%ADD44C,0.01969*%
%ADD45C,0.03150*%
%ADD46C,0.00591*%
%ADD47C,0.00197*%
%ADD48C,0.00600*%
%ADD49C,0.00500*%
%ADD50C,0.00394*%
%ADD51C,0.00709*%
%ADD52C,0.01200*%
D10*
X37570Y-282032D02*
D03*
X45050D02*
D03*
X41310D02*
D03*
X45050Y-269828D02*
D03*
X37570D02*
D03*
X20040Y-379338D02*
D03*
X27520D02*
D03*
X23780D02*
D03*
Y-391542D02*
D03*
X27520D02*
D03*
X20040D02*
D03*
X27520Y-371362D02*
D03*
X20040D02*
D03*
X23780D02*
D03*
Y-359158D02*
D03*
X20040D02*
D03*
X27520D02*
D03*
D11*
X22943Y-325270D02*
D03*
X40660D02*
D03*
D12*
X32283Y-207677D02*
D03*
Y-177953D02*
D03*
X50394Y-207677D02*
D03*
Y-177953D02*
D03*
D13*
X37600Y-24027D02*
D03*
X31695D02*
D03*
X25789D02*
D03*
X19884D02*
D03*
X13978D02*
D03*
X63736Y-24098D02*
D03*
X69642D02*
D03*
D14*
X4687Y-8049D02*
D03*
X46183D02*
D03*
X55272Y-8120D02*
D03*
X78067D02*
D03*
D15*
X14356Y-35630D02*
D03*
X7664D02*
D03*
X17784Y-420130D02*
D03*
X24476D02*
D03*
X44436Y-48833D02*
D03*
X38137D02*
D03*
X44426Y-70423D02*
D03*
X38127D02*
D03*
X44436Y-92073D02*
D03*
X38137D02*
D03*
X44436Y-113903D02*
D03*
X38137D02*
D03*
X20784Y-403930D02*
D03*
X27477D02*
D03*
X17864Y-427740D02*
D03*
X24556D02*
D03*
D16*
X61191Y-347290D02*
D03*
X52530Y-343550D02*
D03*
D17*
X61191Y-339810D02*
D03*
D18*
X74810Y-194340D02*
D03*
Y-175140D02*
D03*
Y-214052D02*
D03*
Y-184520D02*
D03*
Y-204319D02*
D03*
D19*
X32644Y-344223D02*
D03*
X19259D02*
D03*
D20*
X38560Y-141080D02*
D03*
X44859D02*
D03*
X38560Y-137733D02*
D03*
X44859D02*
D03*
D21*
X46794Y-242203D02*
D03*
Y-235904D02*
D03*
X34195D02*
D03*
Y-242203D02*
D03*
D22*
X46400Y-240628D02*
D03*
Y-239053D02*
D03*
Y-237478D02*
D03*
X34589D02*
D03*
Y-239053D02*
D03*
Y-240628D02*
D03*
D23*
X43644Y-232754D02*
D03*
X37345D02*
D03*
Y-245352D02*
D03*
X43644D02*
D03*
D24*
X42069Y-233148D02*
D03*
X40494D02*
D03*
X38920D02*
D03*
Y-244959D02*
D03*
X40494D02*
D03*
X42069D02*
D03*
D25*
X40494Y-239053D02*
D03*
D26*
X42414Y-471340D02*
D03*
X30603D02*
D03*
X32572D02*
D03*
X34540D02*
D03*
X36509D02*
D03*
X38477D02*
D03*
X40446D02*
D03*
X44383D02*
D03*
X46351D02*
D03*
X48320D02*
D03*
X50288D02*
D03*
X52257D02*
D03*
D27*
X24422D02*
D03*
X58438D02*
D03*
D28*
X15010Y-48560D02*
D03*
X18947D02*
D03*
X61260Y-302680D02*
D03*
X65197D02*
D03*
X64220Y-186580D02*
D03*
X60283D02*
D03*
D29*
X11170Y-97050D02*
D03*
X15894D02*
D03*
X18042Y-71650D02*
D03*
X13318D02*
D03*
X11170Y-103000D02*
D03*
X15894D02*
D03*
X63682Y-332130D02*
D03*
X58958D02*
D03*
X36328Y-405500D02*
D03*
X41052D02*
D03*
X37732Y-397730D02*
D03*
X33008D02*
D03*
X61102Y-355020D02*
D03*
X56378D02*
D03*
X27492Y-397720D02*
D03*
X22768D02*
D03*
X61192Y-360710D02*
D03*
X56468D02*
D03*
X43338Y-461730D02*
D03*
X48062D02*
D03*
X67072Y-114340D02*
D03*
X62348D02*
D03*
X67072Y-92070D02*
D03*
X62348D02*
D03*
X67072Y-70460D02*
D03*
X62348D02*
D03*
X67072Y-48890D02*
D03*
X62348D02*
D03*
X34258Y-169340D02*
D03*
X38982D02*
D03*
X59022Y-219680D02*
D03*
X54298D02*
D03*
X68492Y-39450D02*
D03*
X63768D02*
D03*
X55082Y-296460D02*
D03*
X50358D02*
D03*
X65992D02*
D03*
X61268D02*
D03*
X59595Y-193380D02*
D03*
X64320D02*
D03*
D30*
X38718Y-454520D02*
D03*
Y-447040D02*
D03*
Y-450780D02*
D03*
X50922D02*
D03*
Y-447040D02*
D03*
Y-454520D02*
D03*
D31*
X61813Y-411956D02*
D03*
Y-378416D02*
D03*
D32*
X59254Y-411956D02*
D03*
X56695D02*
D03*
X54136D02*
D03*
X61813Y-433216D02*
D03*
X59254D02*
D03*
X56695D02*
D03*
X54136D02*
D03*
X59254Y-378416D02*
D03*
X56695D02*
D03*
X54136D02*
D03*
X61813Y-399676D02*
D03*
X59254D02*
D03*
X56695D02*
D03*
X54136D02*
D03*
D33*
X32450Y-453520D02*
D03*
Y-457457D02*
D03*
X32650Y-443470D02*
D03*
Y-439533D02*
D03*
X17330Y-269840D02*
D03*
Y-265903D02*
D03*
X34440Y-383280D02*
D03*
Y-379343D02*
D03*
D34*
X11170Y-89911D02*
D03*
X14910Y-81250D02*
D03*
X10570Y-64811D02*
D03*
X14310Y-56150D02*
D03*
D35*
X18650Y-89911D02*
D03*
X18050Y-64811D02*
D03*
D36*
X26600Y-438780D02*
D03*
Y-443504D02*
D03*
Y-448778D02*
D03*
Y-453502D02*
D03*
X63550Y-132212D02*
D03*
Y-127488D02*
D03*
Y-141068D02*
D03*
Y-145792D02*
D03*
D37*
X28150Y-269847D02*
D03*
Y-263154D02*
D03*
D38*
X17890Y-437460D02*
D03*
Y-448247D02*
D03*
Y-459035D02*
D03*
M02*
